<?xml version="1.0" encoding="utf-8"?>
<!-- Generator: Adobe Illustrator 16.0.0, SVG Export Plug-In . SVG Version: 6.00 Build 0)  -->
<!DOCTYPE svg PUBLIC "-//W3C//DTD SVG 1.1//EN" "http://www.w3.org/Graphics/SVG/1.1/DTD/svg11.dtd">
<svg version="1.1" id="Calque_2" xmlns="http://www.w3.org/2000/svg" xmlns:xlink="http://www.w3.org/1999/xlink" x="0px" y="0px"
	 width="200px" height="200px" viewBox="0 0 200 200" enable-background="new 0 0 200 200" xml:space="preserve">
<g>
	<g>
		<g>
			<g>
				<rect x="33.976" y="11.477" fill="#DBE120" width="130.428" height="180.023"/>
			</g>
		</g>
	</g>
	<g>
		<g>
			<g>
				<path fill="#11233F" d="M61.376,62.223c1.332-4.274,3.426-7.773,6.25-8.086c5.407-0.604,11.709,8.469,12.812,19.129
					c1.02,9.858-1.289,20.649-6.695,21.251c-3.291,0.368-6.341-0.978-8.706-6.094c3.648,1,8.273-0.464,8.273-0.464
					c1.643-5.322,1.635-15.113,1.635-15.113c-3.379-8.938-7.068-13.04-7.068-13.04S64.163,60.646,61.376,62.223z"/>
			</g>
			<path fill="#11233F" d="M65.701,82.938c-2.126,0.261-4.254-2.908-4.755-7.071c-0.504-4.161,0.818-7.739,2.947-7.991
				c2.123-0.26,4.255,2.905,4.759,7.068C69.149,79.108,67.826,82.685,65.701,82.938z"/>
			<path fill="#11233F" d="M114.238,62.489c0.444,3.894-2.292,7.405-6.119,7.844c-3.822,0.44-7.295-2.362-7.731-6.256
				c-0.446-3.891,2.296-7.403,6.114-7.84C110.328,55.798,113.791,58.599,114.238,62.489z"/>
			<g>
				<path fill="#11233F" d="M126.959,61.088c-1.357-11.828-11.503-20.379-22.66-19.096c-11.163,1.277-19.106,11.9-17.752,23.729
					c1.167,10.168,8.829,17.915,18.063,19.073c0,0-0.178-2.041-0.424-4.067c-0.225-2.02-0.509-4.012-0.509-4.012l-2.419,0.257
					c0,0-2.786-2.659-4.959-5.75c-2.039-2.893-3.459-6.225-3.459-6.225s1.029-3.65,2.388-7.02c1.389-3.416,3.101-6.552,3.101-6.552
					s3.25-0.771,6.611-1.155c3.592-0.41,7.305-0.438,7.305-0.438s2.504,2.477,4.594,5.435c2.127,3.03,3.83,6.542,3.83,6.542
					s-0.46,3.344-1.819,6.714c-1.385,3.416-3.671,6.853-3.671,6.853l-2.179,0.359c0,0,0.292,1.92,0.435,3.887
					c0.158,2.078,0.258,4.125,0.258,4.125C122.412,80.543,128.122,71.255,126.959,61.088z"/>
			</g>
			<path fill="#11233F" d="M122.895,43.383c-5.138-4.62-9.385-8.243-9.325-8.465c0.029-0.107,1.296,0.438,3.287,1.469
				c1.153,0.59,4.168,2.244,7.453,5.146c5.3,4.67,8.081,9.753,8.018,9.955C132.237,51.772,128.034,48.005,122.895,43.383z"/>
			<g>
				<path fill="#11233F" d="M86.049,34.127c-2.77,0.97-5.129,2.171-7.271,3.441c2.885-0.57,8.496-1.798,13.71-5.088
					C90.854,32.688,88.213,33.374,86.049,34.127z"/>
				<path fill="#11233F" d="M104.857,32.902c-0.197-0.583-3.726-1.177-8.229-0.892c0.904,0.156,1.872,0.437,2.52,0.846l-9.997,4.489
					l-11.949,3.135c0,0-0.725-0.053-1.495-0.827c-3.103,2.366-5.079,4.494-5.02,5.001c0.111,1.019,8.258-0.87,17.694-4.113
					C97.822,37.297,105.197,33.874,104.857,32.902z"/>
			</g>
			<path fill="#11233F" d="M131.727,74.927c1.233-8.759,3.007-15.926,3.869-15.629c0.535,0.18,2.801,7.828,1.545,16.632
				c-1.051,7.346-4.531,15.173-6.005,15.084C130.225,90.958,130.499,83.683,131.727,74.927z"/>
			<g>
				<path fill="#11233F" d="M92.405,107.926c-4.394-0.894-6.599-2.614-7.209-5.001c-1.349-5.266,7.207-10.13,17.804-11.748
					c9.683-1.479,18.008,1.629,18.883,5.231c0.682,2.797-0.624,5.046-4.326,7.491c0.628-3.728,0.161-6.058,0.161-6.058
					c-5.444-1.45-13.978-2.251-13.978-2.251c-9.177,3.477-13.214,6.614-13.214,6.614S90.836,105.318,92.405,107.926z"/>
			</g>
			<path fill="#11233F" d="M112.496,103.318c0.304,1.87-2.804,3.931-6.943,4.593c-4.146,0.665-7.741-0.318-8.036-2.195
				c-0.306-1.877,2.806-3.938,6.943-4.595C108.594,100.457,112.195,101.442,112.496,103.318z"/>
		</g>
		<g>
			<path fill="#11233F" d="M54.523,135.379v-13.744h3.586v10.625h4.343v3.119H54.523z"/>
			<path fill="#11233F" d="M68.242,135.379v-13.744h3.59v13.744H68.242z"/>
			<path fill="#11233F" d="M84.894,121.134c2.762,0,4.787,1.076,6.202,3.446l-2.872,1.578c0,0-0.93-1.897-3.369-1.897
				c-2.354,0-3.41,1.91-3.41,4.413c0,2.33,1.074,4.191,3.732,4.191c1.525,0,2.922-1.167,3.047-2.438h-3.152v-2.871h6.883
				c0,0,0,0.47,0,0.753c0,4.076-1.885,7.572-7.031,7.572c-4.379,0-7.175-3.352-7.175-7.352
				C77.75,124.313,80.893,121.134,84.894,121.134z"/>
			<path fill="#11233F" d="M101.338,121.635c0,0,0,5.654,0,8.432c0,1.835,1.119,2.476,2.475,2.476c1.308,0,2.441-0.691,2.441-2.293
				c0-2.783,0-5.808,0-8.614h3.624c0,0,0,5.706,0,8.793c0,3.142-2.14,5.345-6.138,5.345c-3.031,0-5.988-1.576-5.988-4.951
				c0-3.178,0-9.187,0-9.187H101.338z"/>
			<path fill="#11233F" d="M116.529,121.635h7.964v3.123h-4.375v2.228h4.13v3.046h-4.13v2.294h4.448v3.054h-8.037V121.635z"/>
			<path fill="#11233F" d="M138.27,121.635h5.565v13.744h-3.592V124.58h-1.974V121.635z"/>
		</g>
		<g>
			<g>
				<path fill="#11233F" d="M125.329,160.004c0,0-12.286,0.223-18.312-6.671c-0.014-0.013-0.021-0.033-0.041-0.043
					c-0.004-0.011-0.014-0.022-0.021-0.032c-0.005-0.007-0.011-0.011-0.026-0.016c-1.311-1.425-3.012-2.482-4.922-3.013
					c-0.045-0.012-0.09-0.031-0.137-0.034c-0.079-0.024-0.154-0.042-0.221-0.056c-0.117-0.03-0.224-0.061-0.34-0.082
					c-0.01-0.001-0.023-0.005-0.042-0.007c-0.5-0.102-1.011-0.168-1.546-0.192c-0.181-0.015-0.361-0.015-0.544-0.015
					c-0.186,0-0.38,0-0.566,0.015c-0.055,0.003-0.115,0.009-0.183,0.015c-0.125,0.007-0.239,0.015-0.364,0.025
					c-0.076,0.015-0.142,0.021-0.217,0.029c-0.108,0.012-0.216,0.031-0.321,0.045c-0.083,0.011-0.163,0.031-0.233,0.04
					c-0.101,0.018-0.201,0.038-0.302,0.058c-0.081,0.017-0.155,0.039-0.239,0.05c-0.093,0.028-0.188,0.051-0.289,0.075
					c-0.076,0.023-0.152,0.047-0.237,0.065c-0.087,0.027-0.184,0.055-0.272,0.082c-0.08,0.026-0.167,0.058-0.238,0.08
					c-0.084,0.036-0.174,0.065-0.259,0.097c-0.084,0.028-0.164,0.064-0.237,0.091c-0.086,0.034-0.17,0.074-0.26,0.113
					c-0.076,0.029-0.149,0.063-0.227,0.1c-0.082,0.04-0.172,0.082-0.255,0.12c-0.067,0.035-0.146,0.072-0.222,0.113
					c-0.086,0.043-0.155,0.085-0.238,0.131c-0.076,0.041-0.145,0.082-0.223,0.131c-0.08,0.041-0.148,0.09-0.228,0.139
					c-0.074,0.045-0.138,0.09-0.215,0.134c-0.066,0.051-0.149,0.104-0.223,0.151c-0.065,0.052-0.136,0.103-0.202,0.15
					c-0.077,0.052-0.146,0.106-0.215,0.16c-0.072,0.056-0.136,0.108-0.204,0.161c-0.066,0.052-0.138,0.11-0.204,0.176
					c-0.066,0.049-0.13,0.104-0.188,0.165c-0.074,0.061-0.134,0.119-0.202,0.182c-0.057,0.061-0.116,0.113-0.178,0.169
					c-0.066,0.07-0.135,0.14-0.197,0.209c-0.049,0.049-0.097,0.096-0.141,0.14l-0.006,0.01c-0.158,0.172-0.3,0.346-0.441,0.523
					c-1.488,1.596-6.794,6.305-17.929,6.305H54.537v0.696h18.489c0,0,12.262-0.218,18.297,6.661c0.017,0.022,0.04,0.047,0.057,0.062
					c0.002,0.012,0.017,0.021,0.023,0.028c0.008,0.001,0.011,0.008,0.015,0.017c1.312,1.421,3.015,2.482,4.936,3.012
					c0.045,0.016,0.091,0.029,0.134,0.037c0.066,0.024,0.148,0.039,0.222,0.063c0.108,0.022,0.222,0.05,0.333,0.069
					c0.008,0.005,0.027,0.01,0.038,0.014c0.498,0.102,1.019,0.168,1.553,0.19c0.182,0.013,0.363,0.014,0.546,0.014
					c0.187,0,0.371-0.001,0.555-0.014c0.057-0.002,0.125-0.005,0.182-0.012c0.124-0.011,0.25-0.018,0.367-0.03
					c0.074-0.011,0.149-0.02,0.217-0.028c0.113-0.014,0.223-0.025,0.324-0.044c0.084-0.012,0.158-0.025,0.234-0.044
					c0.104-0.018,0.201-0.028,0.301-0.057c0.081-0.012,0.16-0.036,0.229-0.048c0.107-0.03,0.201-0.049,0.299-0.075
					c0.083-0.02,0.159-0.044,0.225-0.066c0.099-0.027,0.19-0.051,0.295-0.084c0.068-0.026,0.152-0.046,0.227-0.079
					c0.093-0.035,0.185-0.063,0.278-0.098c0.067-0.031,0.144-0.056,0.22-0.088c0.091-0.035,0.181-0.067,0.271-0.11
					c0.062-0.029,0.142-0.064,0.215-0.104c0.082-0.041,0.169-0.082,0.259-0.12c0.074-0.037,0.137-0.069,0.212-0.111
					c0.086-0.04,0.171-0.091,0.258-0.141c0.064-0.038,0.139-0.078,0.199-0.116c0.084-0.049,0.166-0.103,0.252-0.151
					c0.061-0.041,0.13-0.084,0.197-0.127c0.08-0.052,0.161-0.106,0.234-0.159c0.066-0.045,0.127-0.091,0.191-0.135
					c0.078-0.06,0.156-0.119,0.238-0.179c0.057-0.047,0.121-0.095,0.172-0.147c0.072-0.061,0.156-0.122,0.238-0.19
					c0.053-0.049,0.102-0.094,0.162-0.14c0.071-0.075,0.152-0.142,0.229-0.22c0.053-0.048,0.099-0.093,0.147-0.14
					c0.081-0.083,0.164-0.169,0.233-0.243c0.039-0.041,0.078-0.076,0.116-0.115c0,0,0-0.006,0-0.008
					c0.155-0.17,0.309-0.345,0.446-0.523c1.486-1.6,6.793-6.306,17.927-6.306h18.482v-0.698H125.329z M99.179,169.99
					c-5.295,0-9.586-4.295-9.586-9.592c0-5.298,4.291-9.59,9.586-9.59c5.298,0,9.584,4.292,9.584,9.59
					C108.763,165.695,104.477,169.99,99.179,169.99z"/>
			</g>
			<g>
				<path fill-rule="evenodd" clip-rule="evenodd" fill="#11233F" d="M92.895,154.368c0.322-0.259,2.739,1.32,5.156,3.584
					c0.022,0.023,0.609-0.346,1.499-1.279c1.402-1.479,1.364-2.6,1.765-2.502c0.08,0.019,0.205,0.061,0.229,0.156
					c0.24,0.73-0.09,1.964-0.528,3.061c-0.509,1.232-1.156,2.297-1.156,2.297s1.636,2.12,2.059,4.524
					c0.229,1.302-0.021,2.508-0.285,2.955c-0.072,0.119-0.168,0.168-0.238,0.168c-0.309,0-0.124-0.912-1.095-2.712
					c-0.273-0.506-0.574-1.07-1.07-1.691c-1.083-1.367-1.072-1.258-1.072-1.258s-0.986,1.258-1.975,2.304
					c-0.33,0.345-0.648,0.611-0.93,0.858c-0.362,0.32-0.661,0.558-0.949,0.485c-0.098-0.028-0.176-0.159-0.15-0.274
					c0.019-0.147,1.684-2.28,1.697-4.935c0-1.714-1.599-3.786-2.455-4.836C92.996,154.785,92.627,154.581,92.895,154.368z"/>
				<circle fill-rule="evenodd" clip-rule="evenodd" fill="#11233F" cx="104.103" cy="165.558" r="1.454"/>
				<path fill-rule="evenodd" clip-rule="evenodd" fill="#11233F" d="M97.123,155.924c0-0.743,0.595-1.342,1.338-1.342
					c0.738,0,1.343,0.599,1.343,1.342c0,0.738-0.605,1.336-1.343,1.336C97.718,157.26,97.123,156.662,97.123,155.924z"/>
			</g>
		</g>
	</g>
</g>
</svg>
