<?xml version="1.0" encoding="UTF-8" ?>
<!DOCTYPE svg PUBLIC "-//W3C//DTD SVG 1.1//EN" "http://www.w3.org/Graphics/SVG/1.1/DTD/svg11.dtd">
<svg width="1184pt" height="449pt" viewBox="0 0 1184 449" version="1.1" xmlns="http://www.w3.org/2000/svg">
<g id="#931c81ff">
<path fill="#931c81" opacity="1.00" d=" M 200.44 0.00 L 202.27 0.00 C 203.88 1.93 204.07 4.49 204.52 6.87 C 209.64 34.94 215.06 62.96 220.10 91.04 C 220.81 93.64 217.78 94.23 215.93 94.53 C 188.67 99.70 163.85 116.60 149.17 140.16 C 148.02 141.97 147.04 143.91 145.64 145.56 C 144.46 146.63 142.99 145.74 141.84 145.15 C 116.54 130.46 91.26 115.73 65.93 101.07 C 64.79 100.30 63.16 99.59 63.17 97.96 C 64.04 95.46 65.58 93.27 66.94 91.02 C 78.42 72.38 93.04 55.68 110.00 41.83 C 135.96 20.51 167.42 6.07 200.44 0.00 Z" />
</g>
<g id="#e52620ff">
<path fill="#e52620" opacity="1.00" d=" M 238.57 22.80 C 291.55 18.04 346.08 35.90 386.00 71.05 C 387.41 71.99 387.39 74.09 386.15 75.16 C 367.46 96.81 348.69 118.39 329.99 140.03 C 328.72 141.40 327.66 143.07 326.03 144.04 C 324.32 144.66 323.08 143.03 321.88 142.14 C 299.95 123.29 269.71 114.52 241.10 118.81 C 239.33 119.14 236.60 119.43 236.27 117.03 C 231.76 87.40 227.47 57.72 223.07 28.07 C 222.57 26.56 223.32 24.65 225.03 24.47 C 229.50 23.64 234.04 23.24 238.57 22.80 Z" />
</g>
<g id="#2d52a0ff">
<path fill="#2d52a0" opacity="1.00" d=" M 29.57 100.46 C 30.79 98.81 32.84 99.94 34.22 100.69 C 60.26 114.74 86.39 128.61 112.40 142.69 C 114.60 143.66 113.77 146.23 112.75 147.78 C 98.94 173.36 97.01 204.97 107.54 232.06 C 108.63 233.96 108.79 236.88 106.11 237.40 C 78.29 248.14 50.47 258.87 22.63 269.54 C 21.20 270.35 19.25 269.73 18.81 268.08 C -2.69 214.31 1.33 151.02 29.57 100.46 Z" />
</g>
<g id="#ef7d1bff">
<path fill="#ef7d1b" opacity="1.00" d=" M 379.41 105.50 C 380.43 104.17 382.43 104.37 383.45 105.61 C 425.74 144.84 449.16 203.36 445.66 260.94 C 445.66 262.81 443.56 263.54 442.00 263.21 C 412.31 261.76 382.61 260.35 352.91 258.88 C 350.79 259.10 349.69 256.88 350.14 255.05 C 351.77 225.40 339.57 195.39 317.78 175.24 C 316.14 174.18 315.95 171.80 317.59 170.64 C 338.17 148.91 358.76 127.18 379.41 105.50 Z" />
</g>
<g id="#000101ff">
<path fill="#000101" opacity="1.00" d=" M 879.36 117.49 C 886.30 115.96 893.94 118.02 899.11 122.92 C 903.80 127.25 906.36 133.75 905.88 140.12 C 905.48 147.40 901.19 154.30 894.85 157.90 C 887.61 162.15 877.87 161.91 871.09 156.85 C 864.57 152.20 861.27 143.76 862.45 135.89 C 863.58 127.05 870.60 119.31 879.36 117.49 Z" />
<path fill="#000101" opacity="1.00" d=" M 522.44 242.00 C 522.53 207.92 522.25 173.82 522.57 139.74 C 535.48 139.90 548.40 139.76 561.31 139.82 C 561.30 178.24 561.35 216.67 561.28 255.09 C 576.93 255.31 592.59 255.12 608.24 255.18 C 608.26 266.52 608.25 277.85 608.24 289.18 C 579.71 289.26 551.17 289.06 522.64 289.29 C 522.16 273.54 522.57 257.76 522.44 242.00 Z" />
<path fill="#000101" opacity="1.00" d=" M 763.82 139.82 C 776.79 139.88 789.77 139.66 802.74 139.93 C 802.63 178.35 802.71 216.76 802.70 255.18 C 818.36 255.21 834.03 255.16 849.70 255.20 C 849.69 266.51 849.66 277.81 849.71 289.12 C 821.08 289.28 792.45 289.15 763.82 289.18 C 763.81 239.39 763.81 189.61 763.82 139.82 Z" />
<path fill="#000101" opacity="1.00" d=" M 210.50 152.69 C 224.74 150.98 239.45 153.41 252.32 159.76 C 267.88 167.35 280.63 180.51 287.71 196.31 C 294.17 210.57 295.89 226.89 292.68 242.21 C 289.36 258.35 280.43 273.23 267.86 283.86 C 246.03 302.90 212.82 307.11 186.90 294.20 C 171.27 286.66 158.44 273.51 151.30 257.69 C 143.48 240.60 142.55 220.51 148.67 202.74 C 157.53 176.09 182.55 155.74 210.50 152.69 M 162.90 187.93 C 165.56 186.35 168.25 184.82 171.10 183.61 C 167.84 190.92 165.95 198.94 166.77 206.98 C 173.26 209.87 179.66 212.96 186.20 215.72 C 179.13 215.48 172.24 213.18 165.27 211.99 C 159.93 217.99 156.55 225.49 154.90 233.31 C 152.88 231.22 152.21 228.31 150.90 225.80 C 150.58 224.46 148.73 226.80 150.88 227.05 C 150.72 241.76 155.75 256.47 164.69 268.14 C 164.05 265.31 163.48 262.46 163.16 259.57 C 169.12 264.95 176.19 269.14 184.05 270.99 C 189.15 265.71 193.82 260.01 199.10 254.91 C 195.85 261.43 192.00 267.64 188.49 274.03 C 192.57 281.09 198.88 286.52 205.86 290.61 C 202.91 291.19 199.93 291.73 196.91 291.70 C 211.41 296.81 227.59 296.70 242.12 291.74 C 239.05 291.71 236.03 291.19 233.03 290.61 C 240.06 286.57 246.35 281.09 250.46 274.03 C 246.98 267.64 243.05 261.48 239.92 254.92 C 245.11 260.09 249.83 265.72 254.92 271.00 C 262.77 269.12 269.86 264.94 275.82 259.55 C 275.43 262.47 274.91 265.38 274.24 268.26 C 283.02 256.44 288.47 241.70 287.91 226.89 L 289.06 225.62 C 288.61 225.29 288.28 225.36 288.05 225.82 C 286.65 228.27 286.16 231.29 284.02 233.26 C 282.39 225.47 279.01 218.01 273.71 212.01 C 266.73 213.30 259.84 215.31 252.76 215.90 C 259.19 212.81 265.75 209.99 272.21 206.97 C 272.97 198.93 271.12 190.92 267.85 183.61 C 270.65 184.80 273.31 186.29 275.90 187.89 C 267.14 175.13 253.89 165.57 239.07 161.16 C 241.53 163.14 243.84 165.32 245.91 167.72 C 237.86 166.74 229.47 167.49 222.03 170.88 C 221.33 178.01 220.55 185.14 219.54 192.24 C 218.32 185.18 217.70 178.03 216.96 170.90 C 209.52 167.48 201.11 166.76 193.04 167.70 C 195.16 165.35 197.37 163.07 199.95 161.23 C 184.96 165.41 171.86 175.28 162.90 187.93 Z" />
<path fill="#000101" opacity="1.00" d=" M 637.65 179.66 C 650.83 168.62 669.46 164.26 686.09 168.87 C 694.01 171.08 700.61 176.20 706.74 181.48 C 706.74 177.52 706.80 173.57 706.66 169.62 C 718.61 169.19 730.59 169.56 742.56 169.44 C 742.58 200.63 742.56 231.81 742.56 263.00 C 742.43 271.76 742.83 280.54 742.36 289.29 C 730.30 289.03 718.23 289.33 706.16 289.13 C 706.20 285.33 706.19 281.54 706.15 277.74 C 697.24 286.22 685.31 291.53 672.98 292.01 C 657.82 292.78 642.00 287.74 631.33 276.67 C 619.77 264.93 614.90 248.11 614.64 231.95 C 613.98 212.27 622.33 192.22 637.65 179.66 M 673.19 201.33 C 665.21 202.88 658.07 208.23 654.51 215.57 C 648.43 228.05 651.20 244.88 662.08 253.86 C 673.57 263.13 691.97 260.37 701.23 249.21 C 711.37 237.28 709.85 217.25 697.83 207.14 C 691.13 201.43 681.72 199.53 673.19 201.33 Z" />
<path fill="#000101" opacity="1.00" d=" M 942.18 175.20 C 954.02 167.10 969.44 165.20 983.19 168.78 C 991.72 170.99 998.96 176.43 1004.99 182.68 C 1004.98 178.30 1005.05 173.92 1004.94 169.53 C 1016.49 169.30 1028.06 169.50 1039.62 169.44 C 1039.63 204.64 1039.63 239.83 1039.62 275.03 C 1039.69 287.55 1036.14 300.37 1028.17 310.19 C 1018.04 322.92 1001.93 329.57 986.02 330.91 C 968.84 332.34 950.48 329.06 936.56 318.35 C 927.45 311.46 921.27 300.95 919.63 289.64 C 933.16 289.32 946.71 289.57 960.24 289.52 C 962.89 293.79 966.75 297.75 971.93 298.59 C 981.43 300.14 992.78 299.09 999.58 291.49 C 1004.37 286.06 1003.61 278.32 1003.30 271.61 C 992.93 280.15 979.71 286.12 966.04 285.17 C 952.20 284.54 938.86 277.64 930.34 266.72 C 918.86 252.33 915.38 232.78 918.30 214.89 C 920.80 199.31 928.88 184.12 942.18 175.20 M 972.54 198.62 C 963.94 200.03 957.03 206.89 954.42 215.04 C 950.70 226.13 952.15 239.85 960.77 248.34 C 970.92 258.13 988.97 256.37 998.05 245.95 C 1007.32 235.58 1007.45 218.72 999.31 207.67 C 993.23 199.59 982.14 196.95 972.54 198.62 Z" />
<path fill="#000101" opacity="1.00" d=" M 1075.24 182.20 C 1084.59 173.32 1097.10 167.75 1110.03 167.16 C 1118.98 166.63 1128.23 168.27 1135.95 173.00 C 1140.03 175.36 1143.58 178.47 1147.21 181.45 C 1147.27 177.44 1147.23 173.43 1147.27 169.43 C 1159.13 169.39 1170.99 169.55 1182.86 169.34 C 1183.18 209.28 1182.91 249.24 1182.99 289.18 C 1170.89 289.19 1158.79 289.19 1146.69 289.18 C 1146.67 285.36 1146.68 281.55 1146.70 277.73 C 1139.03 284.88 1129.33 289.93 1118.92 291.47 C 1102.46 293.84 1084.55 289.30 1072.57 277.42 C 1060.75 265.94 1055.59 249.18 1055.15 233.03 C 1054.25 214.28 1061.46 195.09 1075.24 182.20 M 1112.44 201.61 C 1104.82 203.45 1098.16 208.81 1094.83 215.92 C 1089.02 228.29 1091.75 244.77 1102.38 253.72 C 1113.92 263.21 1132.63 260.39 1141.88 249.00 C 1151.75 237.14 1150.29 217.52 1138.60 207.38 C 1131.56 201.20 1121.41 199.34 1112.44 201.61 Z" />
<path fill="#000101" opacity="1.00" d=" M 865.65 169.52 C 877.71 169.31 889.78 169.52 901.84 169.42 C 901.92 209.33 901.85 249.25 901.88 289.17 C 889.82 289.21 877.76 289.18 865.70 289.18 C 865.65 249.30 865.74 209.41 865.65 169.52 Z" />
<path fill="#000101" opacity="1.00" d=" M 219.35 194.99 C 229.63 202.19 239.68 209.70 249.86 217.04 C 246.30 227.99 242.68 238.93 239.20 249.91 C 238.67 250.90 238.76 253.18 237.02 252.72 C 224.94 252.76 212.86 252.67 200.78 252.76 C 196.82 240.87 193.03 228.93 189.12 217.03 C 199.18 209.66 209.35 202.44 219.35 194.99 Z" />
</g>
<g id="#ffffffff">
<path fill="#ffffff" opacity="1.00" d=" M 162.90 187.93 C 171.86 175.28 184.96 165.41 199.95 161.23 C 197.37 163.07 195.16 165.35 193.04 167.70 C 201.11 166.76 209.52 167.48 216.96 170.90 C 217.70 178.03 218.32 185.18 219.54 192.24 C 220.55 185.14 221.33 178.01 222.03 170.88 C 229.47 167.49 237.86 166.74 245.91 167.72 C 243.84 165.32 241.53 163.14 239.07 161.16 C 253.89 165.57 267.14 175.13 275.90 187.89 C 273.31 186.29 270.65 184.80 267.85 183.61 C 271.12 190.92 272.97 198.93 272.21 206.97 C 265.75 209.99 259.19 212.81 252.76 215.90 C 259.84 215.31 266.73 213.30 273.71 212.01 C 279.01 218.01 282.39 225.47 284.02 233.26 C 286.16 231.29 286.65 228.27 288.05 225.82 C 288.28 225.36 288.61 225.29 289.06 225.62 L 287.91 226.89 C 288.47 241.70 283.02 256.44 274.24 268.26 C 274.91 265.38 275.43 262.47 275.82 259.55 C 269.86 264.94 262.77 269.12 254.92 271.00 C 249.83 265.72 245.11 260.09 239.92 254.92 C 243.05 261.48 246.98 267.64 250.46 274.03 C 246.35 281.09 240.06 286.57 233.03 290.61 C 236.03 291.19 239.05 291.71 242.12 291.74 C 227.59 296.70 211.41 296.81 196.91 291.70 C 199.93 291.73 202.91 291.19 205.86 290.61 C 198.88 286.52 192.57 281.09 188.49 274.03 C 192.00 267.64 195.85 261.43 199.10 254.91 C 193.82 260.01 189.15 265.71 184.05 270.99 C 176.19 269.14 169.12 264.95 163.16 259.57 C 163.48 262.46 164.05 265.31 164.69 268.14 C 155.75 256.47 150.72 241.76 150.88 227.05 C 148.73 226.80 150.58 224.46 150.90 225.80 C 152.21 228.31 152.88 231.22 154.90 233.31 C 156.55 225.49 159.93 217.99 165.27 211.99 C 172.24 213.18 179.13 215.48 186.20 215.72 C 179.66 212.96 173.26 209.87 166.77 206.98 C 165.95 198.94 167.84 190.92 171.10 183.61 C 168.25 184.82 165.56 186.35 162.90 187.93 M 219.35 194.99 C 209.35 202.44 199.18 209.66 189.12 217.03 C 193.03 228.93 196.82 240.87 200.78 252.76 C 212.86 252.67 224.94 252.76 237.02 252.72 C 238.76 253.18 238.67 250.90 239.20 249.91 C 242.68 238.93 246.30 227.99 249.86 217.04 C 239.68 209.70 229.63 202.19 219.35 194.99 Z" />
</g>
<g id="#4384c5ff">
<path fill="#4384c5" opacity="1.00" d=" M 85.22 258.21 C 87.10 257.00 89.03 258.51 89.52 260.39 C 101.01 287.51 124.91 308.94 153.08 317.52 C 155.28 317.79 157.15 319.75 155.91 322.00 C 147.09 350.36 138.25 378.72 129.38 407.07 C 129.14 408.54 127.61 410.00 126.05 409.29 C 72.18 393.41 26.33 353.06 3.21 301.93 C 2.49 299.62 -0.00 297.01 1.57 294.61 C 3.25 293.47 5.19 292.80 7.03 291.99 C 33.10 280.75 59.14 269.43 85.22 258.21 Z" />
</g>
<g id="#ffe609ff">
<path fill="#ffe609" opacity="1.00" d=" M 322.26 270.19 C 324.37 268.47 327.46 269.88 329.96 269.76 C 358.02 271.97 386.08 274.12 414.14 276.33 C 415.53 276.26 417.22 277.23 417.06 278.82 C 413.51 336.84 382.42 392.46 334.97 425.99 C 333.21 426.78 331.99 425.13 331.11 423.91 C 313.66 400.03 296.10 376.23 278.66 352.35 C 277.19 350.84 278.21 348.69 279.84 347.85 C 303.56 330.80 319.13 303.05 321.44 273.94 C 321.65 272.69 321.48 271.28 322.26 270.19 Z" />
</g>
<g id="#20a637ff">
<path fill="#20a637" opacity="1.00" d=" M 248.38 334.55 C 249.73 333.26 251.93 333.58 252.73 335.30 C 269.49 360.22 286.29 385.11 302.94 410.10 C 304.75 413.05 300.73 414.53 298.88 415.91 C 251.61 446.98 190.70 456.25 136.37 440.45 C 134.51 439.84 134.72 437.62 135.26 436.16 C 142.57 409.75 149.85 383.32 157.14 356.91 C 157.89 354.35 158.39 351.70 159.45 349.25 C 160.89 347.42 163.21 348.84 165.01 349.10 C 193.18 356.63 224.37 351.02 248.38 334.55 Z" />
</g>
</svg>
