<?xml version="1.0" encoding="UTF-8" standalone="no"?>
<svg
   xmlns:dc="http://purl.org/dc/elements/1.1/"
   xmlns:cc="http://creativecommons.org/ns#"
   xmlns:rdf="http://www.w3.org/1999/02/22-rdf-syntax-ns#"
   xmlns:svg="http://www.w3.org/2000/svg"
   xmlns="http://www.w3.org/2000/svg"
   version="1.1"
   id="svg4066"
   viewBox="0 0 297.92205 299.99999"
   height="84.666664mm"
   width="84.080223mm">
  <defs
     id="defs4068">
    <clipPath
       id="clipPath88"
       clipPathUnits="userSpaceOnUse">
      <path
         id="path90"
         d="m 70.866,726.665 58.125,0 0,58.531 -58.125,0 0,-58.531 z" />
    </clipPath>
  </defs>
  <metadata
     id="metadata4071">
    <rdf:RDF>
      <cc:Work
         rdf:about="">
        <dc:format>image/svg+xml</dc:format>
        <dc:type
           rdf:resource="http://purl.org/dc/dcmitype/StillImage" />
        <dc:title></dc:title>
      </cc:Work>
    </rdf:RDF>
  </metadata>
  <g
     transform="translate(-199.12621,-118.72109)"
     id="layer1">
    <g
       transform="matrix(5.1255679,0,0,-5.1255679,-164.10331,4143.2965)"
       id="g84">
      <g
         clip-path="url(#clipPath88)"
         id="g86">
        <g
           transform="translate(100.0449,734.7861)"
           id="g92">
          <path
             id="path94"
             style="fill:#918f90;fill-opacity:1;fill-rule:nonzero;stroke:none"
             d="m 0,0 -0.109,0 c -2.176,0.011 -4.525,0.341 -6.54,0.806 3.473,5.992 4.034,11.893 4.034,11.893 l 0,19.393 2.506,2.843 0,0.433 10.635,9.03 c -1.9,1.013 -3.983,1.765 -6.195,2.203 -0.672,0.236 -1.147,0.808 -1.147,1.477 0,0.88 0.821,1.593 1.833,1.593 0.121,0 0.23,-0.011 0.344,-0.03 C 17.659,47.255 26.904,37.19 26.904,25.124 26.904,14.928 20.307,6.154 10.843,2.239 L 8.444,8.975 c 7.562,3.08 12.835,10.084 12.835,18.207 0,5.97 -2.839,11.322 -7.344,14.962 L 2.506,32.092 l 0,-19.393 c 0,0 0.561,-5.901 4.034,-11.893 C 4.526,0.341 2.176,0.011 0,0" />
        </g>
        <g
           transform="translate(89.0909,737.0255)"
           id="g96">
          <path
             id="path98"
             style="fill:#918f90;fill-opacity:1;fill-rule:nonzero;stroke:none"
             d="m 0,0 c -9.465,3.914 -16.062,12.688 -16.062,22.885 0,12.066 9.245,22.13 21.543,24.517 0.114,0.019 0.224,0.029 0.344,0.029 1.012,0 1.833,-0.713 1.833,-1.592 0,-0.669 -0.474,-1.242 -1.147,-1.477 -9.704,-1.924 -16.947,-9.884 -16.947,-19.42 0,-8.122 5.272,-15.126 12.834,-18.206 L 0,0 Z" />
        </g>
        <g
           transform="translate(116.7523,761.5397)"
           id="g100">
          <path
             id="path102"
             style="fill:#918f90;fill-opacity:1;fill-rule:nonzero;stroke:none"
             d="M 0,0 C -0.568,3.029 -3.125,3.805 -5.988,1.712 -6.601,1.264 -6.877,1.031 -7.2,0.734 l -0.039,2.923 4.367,3.452 0.075,4.408 -8.242,-7.064 -0.027,-9.932 c 1.135,1.23 1.948,2.009 3.303,2.999 1.79,1.308 2.862,-0.057 3.12,-1.437 0.38,-2.028 -0.941,-4.439 -3.395,-6.232 -0.946,-0.692 -1.216,-0.852 -1.936,-1.194 l 1.194,-3.462 c 0.608,0.321 0.792,0.664 1.636,1.28 C -1.93,-9.713 0.765,-4.084 0,0" />
        </g>
        <g
           transform="translate(72.6812,743.749)"
           id="g104">
          <path
             id="path106"
             style="fill:#ed1c24;fill-opacity:1;fill-rule:nonzero;stroke:none"
             d="M 0,0 0.47,-0.512 -1.815,-2.526 -0.796,-3.801 2.569,-0.835 1.062,0.936 0,0 Z" />
        </g>
        <g
           transform="translate(74.519,739.0532)"
           id="g108">
          <path
             id="path110"
             style="fill:#ed1c24;fill-opacity:1;fill-rule:nonzero;stroke:none"
             d="m 0,0 c -0.301,0.316 -0.807,0.441 -1.137,0.095 -0.326,-0.342 -0.198,-0.865 0.103,-1.181 0.301,-0.316 0.799,-0.45 1.125,-0.108 C 0.42,-0.848 0.301,-0.316 0,0" />
        </g>
        <g
           transform="translate(77.5842,734.2402)"
           id="g112">
          <path
             id="path114"
             style="fill:#ed1c24;fill-opacity:1;fill-rule:nonzero;stroke:none"
             d="m 0,0 1.349,-0.92 0.837,1.355 0.983,-0.67 0.622,1.006 -0.982,0.67 0.247,0.4 L 4.175,1.078 4.86,2.186 2.393,3.869 0,0 Z" />
        </g>
        <g
           transform="translate(81.0218,732.3212)"
           id="g116">
          <path
             id="path118"
             style="fill:#ed1c24;fill-opacity:1;fill-rule:nonzero;stroke:none"
             d="M 0,0 C 0.32,-0.476 0.814,-0.933 1.303,-1.206 2.142,-1.674 3.229,-1.664 3.721,-0.692 4.071,0 3.809,0.576 3.283,1.049 L 3.003,1.303 C 2.908,1.391 2.744,1.51 2.821,1.661 2.906,1.828 3.11,1.777 3.234,1.708 3.537,1.538 3.741,1.251 3.896,0.943 l 0.908,0.83 C 4.547,2.229 4.198,2.569 3.755,2.816 2.912,3.287 1.8,3.215 1.31,2.248 0.987,1.611 1.278,1.012 1.776,0.602 L 2.032,0.39 C 2.147,0.291 2.324,0.172 2.231,-0.012 2.138,-0.196 1.887,-0.132 1.748,-0.054 1.424,0.127 1.205,0.464 1.057,0.81 L 1.015,0.909 0,0 Z" />
        </g>
        <g
           transform="translate(89.3999,733.0385)"
           id="g120">
          <path
             id="path122"
             style="fill:#ed1c24;fill-opacity:1;fill-rule:nonzero;stroke:none"
             d="m 0,0 -1.202,-1.785 c -0.13,-0.192 -0.245,-0.39 -0.317,-0.61 l -0.033,0.012 c 0.072,0.22 0.098,0.45 0.108,0.686 l 0.1,2.183 -1.576,0.57 0.179,-4.944 1.278,-0.462 3.039,3.78 L 0,0 Z" />
        </g>
        <g
           transform="translate(93.8178,726.9929)"
           id="g124">
          <path
             id="path126"
             style="fill:#ed1c24;fill-opacity:1;fill-rule:nonzero;stroke:none"
             d="M 0,0 1.542,-0.085 1.826,1.872 C 1.853,2.054 1.874,2.243 1.895,2.426 L 1.947,2.423 C 1.949,2.227 1.981,2.041 2.017,1.843 l 0.473,-1.98 0.931,-0.051 0.738,2.03 C 4.212,1.986 4.25,2.143 4.286,2.294 L 4.315,2.293 4.405,-0.243 5.947,-0.327 5.455,4.319 3.832,4.408 3.247,2.627 C 3.185,2.435 3.145,2.222 3.106,2.022 L 3.065,2.024 2.581,4.477 0.94,4.568 0,0 Z" />
        </g>
        <g
           transform="translate(102.7248,728.5004)"
           id="g128">
          <path
             id="path130"
             style="fill:#ed1c24;fill-opacity:1;fill-rule:evenodd;stroke:none"
             d="M 0,0 0.197,1.425 0.255,1.429 C 0.297,1.236 0.34,1.037 0.399,0.845 L 0.639,0.047 0,0 Z m -0.212,-1.113 1.203,0.088 0.184,-0.563 1.685,0.124 -1.87,4.487 -1.761,-0.13 -1.216,-4.713 1.685,0.124 0.09,0.583 z" />
        </g>
        <g
           transform="translate(106.8831,727.3649)"
           id="g132">
          <path
             id="path134"
             style="fill:#ed1c24;fill-opacity:1;fill-rule:nonzero;stroke:none"
             d="M 0,0 1.555,0.377 0.567,4.872 -0.988,4.495 0,0 Z" />
        </g>
        <g
           transform="translate(109.8568,727.9592)"
           id="g136">
          <path
             id="path138"
             style="fill:#ed1c24;fill-opacity:1;fill-rule:nonzero;stroke:none"
             d="M 0,0 1.444,0.522 0.979,1.939 C 0.884,2.228 0.747,2.496 0.599,2.779 L 0.642,2.794 2.722,0.984 4.165,1.506 2.735,5.867 1.291,5.345 1.72,4.038 C 1.841,3.668 2.031,3.316 2.211,2.973 L 2.167,2.957 0.019,4.885 -1.43,4.362 0,0 Z" />
        </g>
        <g
           transform="translate(113.5336,734.2303)"
           id="g140">
          <path
             id="path142"
             style="fill:#ed1c24;fill-opacity:1;fill-rule:nonzero;stroke:none"
             d="m 0,0 0.603,-1.243 1.065,0.57 c 0.119,0.063 0.217,0.144 0.313,0.229 L 2.01,-0.449 C 1.965,-0.679 1.919,-0.896 1.903,-1.131 l -0.246,-3.16 3.811,2.039 -0.617,1.27 -1.183,-0.633 C 3.559,-1.674 3.45,-1.746 3.346,-1.815 L 3.32,-1.801 3.645,1.95 0,0 Z" />
        </g>
        <g
           transform="translate(122.3728,738.5964)"
           id="g144">
          <path
             id="path146"
             style="fill:#ed1c24;fill-opacity:1;fill-rule:evenodd;stroke:none"
             d="m 0,0 c 0.349,0.342 0.787,-0.007 1.034,-0.285 0.23,-0.259 0.57,-0.83 0.242,-1.151 C 0.948,-1.757 0.429,-1.362 0.198,-1.102 -0.048,-0.825 -0.349,-0.342 0,0 m -0.93,1.047 c -0.971,-0.951 -0.866,-2.254 -0.016,-3.211 0.898,-1.011 2.115,-1.242 3.108,-0.27 0.993,0.972 0.858,2.263 -0.04,3.274 -0.85,0.958 -2.08,1.158 -3.052,0.207" />
        </g>
        <g
           transform="translate(124.2109,742.5077)"
           id="g148">
          <path
             id="path150"
             style="fill:#ed1c24;fill-opacity:1;fill-rule:nonzero;stroke:none"
             d="m 0,0 1.744,-2.063 c 0.137,0.381 0.347,0.748 0.601,1.067 0.162,0.202 0.628,0.652 0.901,0.413 C 3.509,-0.815 3.255,-1.286 3.082,-1.502 2.85,-1.792 2.303,-2.173 1.963,-2.312 l 0.798,-0.943 c 0.422,0.195 1.104,0.8 1.4,1.171 0.599,0.749 0.963,2.033 0.138,2.761 C 3.656,1.243 2.796,1.043 2.279,0.396 2.137,0.218 1.924,-0.114 1.978,-0.361 L 1.952,-0.394 C 1.88,-0.227 1.764,-0.077 1.653,0.061 L 2.863,1.575 1.922,2.404 0,0 Z" />
        </g>
        <g
           transform="translate(89.0298,754.0287)"
           id="g152">
          <path
             id="path154"
             style="fill:#918f90;fill-opacity:1;fill-rule:evenodd;stroke:none"
             d="m 0,0 c -0.732,-0.059 -1.447,0.339 -2.049,1.052 -0.812,0.961 -1.419,2.495 -1.586,4.257 -0.291,3.07 0.864,5.672 2.58,5.811 C 0.662,11.258 2.289,8.881 2.581,5.811 2.765,3.868 2.37,2.113 1.62,1.052 1.185,0.434 0.63,0.051 0,0 M 5.938,5.539 C 5.351,11.726 1.996,16.508 -1.556,16.221 -5.108,15.934 -7.511,10.687 -6.925,4.501 -6.81,3.288 -6.588,2.13 -6.28,1.052 c 1.265,-4.417 3.993,-7.463 6.849,-7.233 2.645,0.214 4.654,3.179 5.264,7.234 0.21,1.39 0.255,2.907 0.105,4.486" />
        </g>
        <g
           transform="translate(88.3248,754.769)"
           id="g156">
          <path
             id="path158"
             style="fill:#ed1c24;fill-opacity:1;fill-rule:evenodd;stroke:none"
             d="m 0,0 c -0.732,-0.059 -1.447,0.339 -2.049,1.052 -0.812,0.961 -1.419,2.495 -1.586,4.257 -0.291,3.071 0.864,5.672 2.58,5.811 C 0.662,11.258 2.289,8.881 2.581,5.811 2.765,3.868 2.37,2.113 1.62,1.052 1.185,0.434 0.63,0.051 0,0 M 5.938,5.539 C 5.351,11.726 1.996,16.508 -1.556,16.221 -5.108,15.935 -7.511,10.687 -6.925,4.501 -6.81,3.289 -6.588,2.13 -6.28,1.052 c 1.265,-4.417 3.993,-7.463 6.849,-7.233 2.645,0.214 4.654,3.179 5.264,7.234 0.21,1.39 0.255,2.907 0.105,4.486" />
        </g>
        <g
           transform="translate(99.3401,735.5266)"
           id="g160">
          <path
             id="path162"
             style="fill:#ed1c24;fill-opacity:1;fill-rule:nonzero;stroke:none"
             d="m 0,0 -0.109,0 c -2.176,0.011 -4.525,0.341 -6.54,0.805 3.473,5.993 4.034,11.894 4.034,11.894 l 0,19.393 -11.43,10.054 c -4.506,-3.641 -7.346,-8.994 -7.346,-14.965 0,-8.122 5.273,-15.126 12.835,-18.206 l -2.398,-6.736 c -9.465,3.914 -16.062,12.689 -16.062,22.885 0,12.066 9.245,22.131 21.543,24.517 0.114,0.019 0.224,0.029 0.344,0.029 1.012,0 1.833,-0.713 1.833,-1.592 0,-0.669 -0.475,-1.241 -1.147,-1.477 -2.215,-0.439 -4.301,-1.192 -6.202,-2.207 l 10.536,-9.24 10.634,9.244 c -1.899,1.013 -3.982,1.764 -6.194,2.203 -0.672,0.236 -1.147,0.808 -1.147,1.477 0,0.879 0.821,1.592 1.833,1.592 0.12,0 0.23,-0.01 0.344,-0.029 C 17.659,47.255 26.904,37.19 26.904,25.124 26.904,14.928 20.307,6.153 10.842,2.239 L 8.444,8.975 c 7.562,3.08 12.835,10.084 12.835,18.206 0,5.97 -2.84,11.323 -7.344,14.963 L 2.506,32.092 l 0,-19.393 c 0,0 0.561,-5.901 4.034,-11.894 C 4.526,0.341 2.176,0.011 0,0" />
        </g>
        <g
           transform="translate(116.0473,762.2798)"
           id="g164">
          <path
             id="path166"
             style="fill:#ed1c24;fill-opacity:1;fill-rule:nonzero;stroke:none"
             d="m 0,0 c 0.765,-4.084 -1.93,-9.713 -7.144,-13.524 -0.844,-0.617 -1.028,-0.959 -1.636,-1.281 l -1.195,3.462 c 0.721,0.342 0.991,0.502 1.937,1.194 2.454,1.793 3.775,4.204 3.395,6.233 -0.258,1.379 -1.33,2.744 -3.12,1.436 -1.355,-0.99 -2.168,-1.769 -3.303,-2.999 l 0.027,9.932 8.242,7.064 L -2.872,7.109 -7.239,3.658 -7.2,0.734 c 0.323,0.297 0.599,0.53 1.212,0.978 C -3.125,3.805 -0.568,3.03 0,0" />
        </g>
      </g>
    </g>
  </g>
</svg>
