<?xml version="1.0" encoding="utf-8"?>
<!DOCTYPE svg PUBLIC "-//W3C//DTD SVG 1.1//EN" "http://www.w3.org/Graphics/SVG/1.1/DTD/svg11.dtd">
<svg version="1.1" id="VARG" xmlns="http://www.w3.org/2000/svg" xmlns:xlink="http://www.w3.org/1999/xlink" x="0px" y="0px"
 width="171px" height="276px" viewBox="0 0 171 276" enable-background="new 0 0 171 276" xml:space="preserve">
<path fill="#FFFFFF" stroke="#000000" stroke-width="14" d="M85.5,267.775c42.176,0,77.368-57.936,77.368-129.4
S127.676,8.975,85.5,8.975S8.132,66.91,8.132,138.375S43.324,267.775,85.5,267.775z"/>
<path fill="none" stroke="#FB090B" stroke-width="5" d="M85.25,267.4c42.176,0,77.368-57.936,77.368-129.4S127.426,8.6,85.25,8.6
S7.882,66.535,7.882,138S43.074,267.4,85.25,267.4z"/>
<polygon points="72.233,209.5 72.233,68.833 59.267,68.833 59.267,204.5 "/>
<polygon fill="#FB090B" points="59.233,204.5 59.233,68.833 46.267,76.833 46.267,199.5 "/>
<polygon points="46.233,199.5 46.233,76.833 33.267,86.833 33.267,189.5 "/>
<polygon fill="#FB090B" points="33.233,189.5 33.233,86.833 20.267,106.833 20.267,169.5 "/>
<polygon points="20.233,171.5 20.233,103.833 14.267,118.833 14.267,159.5 "/>
<line fill="none" stroke="#000000" stroke-width="5" stroke-linecap="square" x1="110.25" y1="71.75" x2="110.25" y2="204.5"/>
<line fill="none" stroke="#000000" stroke-width="5" stroke-linecap="square" x1="128.25" y1="81.25" x2="128.25" y2="195"/>
<line fill="none" stroke="#000000" stroke-width="5" stroke-linecap="square" x1="87.775" y1="146.5" x2="155.625" y2="146.5"/>
<line fill="none" stroke="#000000" stroke-width="5" stroke-linecap="square" x1="87.775" y1="129.025" x2="155.625" y2="129.025"/>
<polygon fill="#FB090B" points="158.583,131.483 125.733,131.483 125.733,79.833 112.767,71.833 112.767,131.483 85.233,131.483 
85.233,64.833 72.267,66.833 72.267,209.5 85.233,209.5 85.233,144.449 112.767,144.449 112.767,204.5 125.733,199.5 
125.733,144.449 158.583,144.449 "/>
<line fill="none" stroke="#000000" stroke-width="5" stroke-linecap="square" x1="87.75" y1="66.75" x2="87.75" y2="209.75"/>
<circle fill="none" stroke="#000000" stroke-width="5" cx="85.25" cy="138" r="72.125"/>
<path d="M48.958,213.971l0.662,0.239c4.469,1.616,6.422-0.059,7.098-1.618l3.807,1.377l-7.727,21.365l-4.634-1.676l5.322-14.715
l-5.594-2.023L48.958,213.971z"/>
<path d="M70.889,225.699c-2.088-0.316-2.947-1.935-2.746-3.263c0.249-1.646,1.569-2.611,3.762-2.279
c1.566,0.237,2.691,1.507,2.433,3.216C74.094,224.986,72.803,225.988,70.889,225.699z M78.406,233.665
c0.44-2.911-0.667-4.535-2.871-5.969c2.127-0.649,3.247-2.163,3.539-4.093c0.469-3.101-1.829-6.264-6.945-7.038
c-4.315-0.653-8.041,1.146-8.62,4.975c-0.316,2.088,0.513,3.67,2.328,4.851c-3.998,1.014-4.448,3.988-4.62,5.127
c-0.464,3.069,1.159,7.166,7.528,8.129C75.287,240.637,77.975,236.513,78.406,233.665z M73.366,233.097
c-0.235,1.55-1.511,3.396-4.051,3.012c-2.228-0.337-3.37-1.966-3.044-4.118c0.369-2.436,2.232-3.222,4.007-2.954
C72.992,229.448,73.605,231.515,73.366,233.097z"/>
<path d="M87.767,225.014c-0.27-3.253,1.963-4.016,3.226-4.121c2.526-0.209,3.886,1.283,4.1,3.866
c0.222,2.679-1.58,3.952-3.298,4.094C89.935,229.008,88.05,228.426,87.767,225.014z M84.17,235.298
c0.72,3.568,3.957,5.548,8.201,5.196c4.49-0.373,8.815-3.589,8.088-12.358c-0.265-3.189-1.106-11.628-9.735-10.913
c-4.876,0.404-8.275,3.287-7.814,8.836c0.314,3.795,3.358,6.85,8.129,6.454c1.684-0.14,3.582-0.682,4.577-2.306l0.075,0.058
c0.359,4.754-1.546,6.486-3.581,6.654c-1.508,0.125-2.651-0.455-3.062-1.994l-0.002-0.032L84.17,235.298z"/>
<path d="M108.765,221.591c-1.054-3.089,0.925-4.373,2.125-4.782c2.399-0.819,4.082,0.298,4.918,2.75
c0.868,2.544-0.569,4.218-2.202,4.775C111.841,224.937,109.871,224.831,108.765,221.591z M107.782,232.441
c1.567,3.286,5.189,4.417,9.22,3.042c4.264-1.455,7.675-5.628,4.833-13.957c-1.033-3.028-3.905-11.009-12.1-8.212
c-4.631,1.58-7.225,5.204-5.427,10.474c1.229,3.604,4.926,5.825,9.457,4.279c1.599-0.545,3.307-1.534,3.877-3.352l0.087,0.038
c1.507,4.524,0.081,6.667-1.851,7.327c-1.433,0.489-2.683,0.205-3.456-1.188l-0.01-0.03L107.782,232.441z"/>
<path d="M86.46,29.747c-6.948,0.115-13.059,5.579-12.949,12.214c0.109,6.589,6.346,11.85,13.344,11.734
c3.449-0.057,6.679-1.292,8.944-3.42l3.503,3.215c-3.152,2.916-7.572,4.716-12.421,4.796c-9.997,0.165-18.317-7.106-18.468-16.24
c-0.151-9.134,7.774-16.72,17.971-16.888c4.849-0.08,9.225,1.484,12.423,4.386l-3.395,3.329
C93.078,30.819,89.959,29.689,86.46,29.747z"/>
<polygon points="107.25,31 99.25,58.875 103.25,59.875 108.25,43.875 112.25,62.875 114.125,62.875 119.25,50.875 125.375,69 
131.125,73 122.125,42 118.5,39.875 114.625,50.375 111.125,33 "/>
<path d="M70.875,59l-7.75-28l-6.75,3.875l-19.125,39l7.75-5l5-10.125l13.75-5.25l2,6.75L70.875,59z M52.5,52.75L60,37.625
l2.625,11.125L52.5,52.75z"/>
</svg>
