<?xml version="1.0" encoding="UTF-8" standalone="no"?>
<!-- Created with Inkscape (http://www.inkscape.org/) -->

<svg
   xmlns:dc="http://purl.org/dc/elements/1.1/"
   xmlns:cc="http://creativecommons.org/ns#"
   xmlns:rdf="http://www.w3.org/1999/02/22-rdf-syntax-ns#"
   xmlns:svg="http://www.w3.org/2000/svg"
   xmlns="http://www.w3.org/2000/svg"
   xmlns:sodipodi="http://sodipodi.sourceforge.net/DTD/sodipodi-0.dtd"
   xmlns:inkscape="http://www.inkscape.org/namespaces/inkscape"
   width="383.90958"
   height="523.24811"
   id="svg4505"
   version="1.1"
   inkscape:version="0.48.2 r9819"
   sodipodi:docname="Logo SCO Angers.svg">
  <defs
     id="defs4507" />
  <sodipodi:namedview
     id="base"
     pagecolor="#ffffff"
     bordercolor="#666666"
     borderopacity="1.0"
     inkscape:pageopacity="0.0"
     inkscape:pageshadow="2"
     inkscape:zoom="0.7"
     inkscape:cx="72.510419"
     inkscape:cy="216.1514"
     inkscape:document-units="px"
     inkscape:current-layer="g3833"
     showgrid="false"
     fit-margin-top="5"
     fit-margin-right="5"
     fit-margin-bottom="5"
     fit-margin-left="5"
     inkscape:window-width="1366"
     inkscape:window-height="706"
     inkscape:window-x="-8"
     inkscape:window-y="-8"
     inkscape:window-maximized="1" />
  <metadata
     id="metadata4510">
    <rdf:RDF>
      <cc:Work
         rdf:about="">
        <dc:format>image/svg+xml</dc:format>
        <dc:type
           rdf:resource="http://purl.org/dc/dcmitype/StillImage" />
        <dc:title />
      </cc:Work>
    </rdf:RDF>
  </metadata>
  <g
     inkscape:label="Calque 1"
     inkscape:groupmode="layer"
     id="layer1"
     transform="translate(-182.33094,-380.8874)">
    <g
       id="g4468"
       transform="matrix(0.67852621,0.00386059,-0.00386059,0.67852621,135.60003,408.33055)">
      <g
         transform="matrix(0.99964007,-0.02682742,0.02682742,0.99964007,600.29209,-96.723884)"
         id="g3833">
        <path
           style="fill:#000000;fill-opacity:1;stroke:none"
           d="M -503.54574,90.94482 C -360.53178,40.586809 -146.99675,41.58784 1.1705452,101.74948 28.030615,288.54843 23.588675,454.59528 -6.7608748,619.60008 -78.941355,693.86261 -156.40688,758.41637 -267.34313,811.1647 -348.99353,765.26858 -433.58029,705.15506 -516.58545,610.48797 -540.33613,468.19195 -540.07581,302.1593 -503.54574,90.94482 z"
           id="path3030-1"
           inkscape:connector-curvature="0"
           sodipodi:nodetypes="cccccc" />
        <path
           style="fill:#ffffff;fill-opacity:1;stroke:none"
           d="m -484.2122,107.42066 c 152.56636,-45.469694 307.27734,-41.346159 464.926785,9.76304 25.0519702,174.22447 20.5575902,338.16196 -7.74896,492.05938 -67.32161,69.2635 -136.115405,127.1147 -239.583905,176.31222 -76.15407,-42.80659 -152.63018,-97.20683 -230.0478,-185.50135 -18.3805,-132.0887 -21.61715,-295.63685 12.45388,-492.63329 z"
           id="path3030"
           inkscape:connector-curvature="0"
           sodipodi:nodetypes="cccccc" />
      </g>
      <g
         transform="translate(-1589.3742,920.68489)"
         id="g3017" />
      <flowRoot
         transform="translate(-235.32796,948.36903)"
         style="font-size:72px;font-style:normal;font-variant:normal;font-weight:normal;font-stretch:normal;text-align:start;line-height:125%;letter-spacing:0px;word-spacing:0px;writing-mode:lr-tb;text-anchor:start;fill:#000000;fill-opacity:1;stroke:none;font-family:Nimbus Sans L;-inkscape-font-specification:Nimbus Sans L"
         id="flowRoot2997"
         xml:space="preserve"><flowRegion
           id="flowRegion2999"><rect
             y="733.46509"
             x="-473.24481"
             height="226.33447"
             width="157.74828"
             id="rect3001" /></flowRegion><flowPara
           id="flowPara3003" /></flowRoot>      <text
         xml:space="preserve"
         style="font-size:144px;font-style:normal;font-variant:normal;font-weight:bold;font-stretch:normal;text-align:center;line-height:111.00000143%;letter-spacing:0px;word-spacing:0px;writing-mode:lr-tb;text-anchor:middle;fill:#000000;fill-opacity:1;stroke:none;font-family:CastleT;-inkscape-font-specification:CastleT Bold"
         x="400.76886"
         y="1501.2238"
         id="text3029"
         sodipodi:linespacing="111%"><tspan
           sodipodi:role="line"
           x="400.76886"
           y="1501.2238"
           id="tspan3035" /><tspan
           id="tspan3041"
           sodipodi:role="line"
           x="400.76886"
           y="1661.0637" /></text>
      <path
         sodipodi:nodetypes="ccc"
         inkscape:connector-curvature="0"
         id="path3924"
         d="M 121.14526,297.09945 C 168.6811,398.96007 220.70215,500.07315 290.91319,598.15457 199.4894,512.10371 149.74898,419.7565 121.14526,297.09945 z"
         style="fill:#b1b022;fill-opacity:1;stroke:none" />
      <path
         sodipodi:nodetypes="ccc"
         inkscape:connector-curvature="0"
         id="path3924-0"
         d="M 580.70693,297.83821 C 533.90796,400.03947 482.61851,501.52561 413.11764,600.11153 503.91758,513.40266 552.98978,420.69864 580.70693,297.83821 z"
         style="fill:#b1b022;fill-opacity:1;stroke:none" />
      <g
         transform="translate(35.963457,-90)"
         id="g4210">
        <path
           style="fill:#000000;fill-opacity:1;stroke:none"
           d="m 316.25,202.0625 c -51.31404,0.12987 -105.32863,2.97771 -161.5625,9.65625 C 131.92314,242.40188 113.62994,262.98101 83.40625,338.1875 138.26084,455.23425 192.38271,571.71948 315.96875,744.5 379.62483,651.7046 447.11309,557.34626 551.4375,336.34375 532.59528,290.15074 512.45715,251.17215 479.625,210.40625 429.08142,205.25765 374.40591,201.91532 316.25,202.0625 z m -31.84375,5.125 64.03125,0 0,54.75 -64.03125,0 0,-54.75 z m 154.5625,4.78125 L 477.5,216.375 c 11.72509,14.07947 22.85628,28.8693 32.71875,45.1875 l -71.25,0 0,-49.59375 z m -245.625,0.96875 0,49.5625 -68.5,0 c 9.48313,-16.3182 20.22589,-31.07678 31.5,-45.15625 l 37,-4.40625 z m 246.4375,195.65625 72.25,0 c -24.91546,49.08798 -48.57877,90.86481 -72.25,132.65625 l 0,-132.65625 z m -154.6875,1.3125 63.84375,0.125 1.3125,276.28125 c -13.94903,20.74135 -23.58434,34.0971 -34.65625,49.90625 -8.77676,-12.9102 -18.49093,-25.21514 -29.0625,-40.8125 l -1.4375,-285.5 z M 122.1875,410.75 l 72,0 0,135.28125 c -23.59318,-42.61714 -47.1667,-85.22341 -72,-135.28125 z"
           id="path3829"
           inkscape:connector-curvature="0" />
        <g
           id="g4202">
          <path
             sodipodi:nodetypes="ccccccsccccccccccsccc"
             inkscape:connector-curvature="0"
             d="m 323.16243,119.55764 0,9.43354 c -4.38711,-3.37901 -9.87768,-3.99633 -14.56555,-3.99637 -6.83566,0.45906 -12.67853,3.55523 -14.36454,9.17666 -0.72703,2.58982 -1.09052,5.75922 -1.09051,9.50823 -0.53274,7.03656 1.36574,12.26106 8.02762,16.91479 1.65453,0.81394 3.25341,1.22091 5.13361,1.22091 1.83001,0 4.23369,-0.0721 5.86322,-1.05869 l 0,-13.24117 c -0.0252,-1.03588 -0.16299,-1.86215 -0.41365,-2.4788 l 12.48731,0 c -0.25073,0.69065 -0.38862,1.51691 -0.41364,2.4788 l 0,14.81065 c 0.0251,1.3319 0.2005,3.34765 0.52645,4.26023 -6.15581,1.55656 -13.3322,2.49665 -18.95218,2.51022 -5.36478,0 -9.75186,-0.83859 -13.16123,-2.51579 -4.33695,-2.12116 -7.57085,-5.29058 -9.70171,-9.50824 -1.93031,-3.79834 -2.89546,-8.31198 -2.89546,-13.54091 0,-8.92858 2.8704,-15.81001 8.61121,-20.64432 4.71295,-3.97097 11.00526,-5.95646 18.87695,-5.95652 4.83829,6e-5 10.81771,0.87565 16.0321,2.62678"
             id="path3909-9"
             style="font-size:170.56468201px;font-style:normal;font-variant:normal;font-weight:bold;font-stretch:normal;text-align:center;line-height:111.00000143%;letter-spacing:0px;word-spacing:0px;writing-mode:lr-tb;text-anchor:middle;fill:#000000;fill-opacity:1;stroke:none;font-family:CastleT;-inkscape-font-specification:CastleT Bold" />
          <path
             sodipodi:nodetypes="ccccccccccccccccscc"
             inkscape:connector-curvature="0"
             d="m 347.86226,118.90111 31.56478,0.50045 -0.0887,6.94174 c -0.80902,-0.22956 -1.65782,-0.35175 -2.54642,-0.3666 l -17.4608,-0.23468 -0.26545,12.87052 13.95496,0.22962 c 1.16787,0.0195 2.12151,-0.0607 2.86094,-0.24052 l -0.0916,8.38541 c -0.68245,-0.20343 -1.59492,-0.31468 -2.73741,-0.33373 l -14.06921,-0.23152 -0.26951,14.30198 17.93045,0.22708 c 1.16788,0.0195 2.17252,-0.0719 3.01387,-0.27398 l -0.0956,7.87931 -32.49143,-0.50044 c 0.28972,-0.64356 0.44211,-1.43345 0.45718,-2.36973 l 0.71403,-44.36521 c -0.008,-1.03269 -0.13548,-1.83925 -0.3801,-2.4197"
             id="path3896-4"
             style="font-size:156.25350952px;font-style:normal;font-variant:normal;font-weight:bold;font-stretch:normal;text-align:center;line-height:111.00000143%;letter-spacing:0px;word-spacing:0px;writing-mode:lr-tb;text-anchor:middle;fill:#000000;fill-opacity:1;stroke:none;font-family:CastleT;-inkscape-font-specification:CastleT Bold" />
          <path
             sodipodi:nodetypes="cccccccccccccccccc"
             inkscape:connector-curvature="0"
             d="m 226.58204,138.78625 1.83227,30.36127 c 0.0667,1.00786 0.24473,1.82642 0.53406,2.45567 l -10.16389,0.99445 c 0.26157,-0.72523 0.37367,-1.55538 0.33629,-2.49047 l -1.81683,-45.43793 c -0.0676,-1.03243 -0.24571,-1.85098 -0.53406,-2.45568 l 9.67031,-0.47929 c 0.15349,0.53614 0.59083,1.23341 1.31199,2.09183 l 22.21372,28.3598 -1.32092,-29.07636 c -0.0658,-0.9832 -0.2438,-1.80175 -0.53406,-2.45567 l 9.53464,-0.27682 c -0.2451,0.47814 -0.35719,1.3083 -0.33629,2.49047 l 2.40948,45.51177 c 0.0637,0.93404 0.25393,1.72746 0.57066,2.38026 l -9.39082,0.4698 c -0.17796,-0.48582 -0.66903,-1.2056 -1.47318,-2.15932"
             id="path3907-8"
             style="font-size:170.56468201px;font-style:normal;font-variant:normal;font-weight:bold;font-stretch:normal;text-align:center;line-height:111.00000143%;letter-spacing:0px;word-spacing:0px;writing-mode:lr-tb;text-anchor:middle;fill:#000000;fill-opacity:1;stroke:none;font-family:CastleT;-inkscape-font-specification:CastleT Bold" />
          <path
             sodipodi:nodetypes="cccccccccccccccccccc"
             inkscape:connector-curvature="0"
             d="m 163.74606,163.86664 -2.9908,10.59447 c -0.17642,0.71173 -0.23623,1.29817 -0.1794,1.75938 0.015,0.12136 0.0519,0.31395 0.11077,0.57777 l -9.87944,0.89427 c 0.43957,-0.71949 0.77463,-1.537 1.00517,-2.45252 l 13.15608,-47.11617 c 0.17343,-0.73594 0.23322,-1.32239 0.17941,-1.75938 -0.015,-0.12131 -0.033,-0.26695 -0.0539,-0.43692 l 11.56967,-1.289 c 0.0367,0.513 0.26359,1.17504 0.68047,1.9861 l 22.71634,44.75202 c 0.43985,0.78363 1.01535,1.48895 1.72651,2.11595 l -12.60661,1.28903 c -5.4e-4,-0.22167 -0.009,-0.39317 -0.0238,-0.51455 -0.0599,-0.48547 -0.26319,-1.06413 -0.61005,-1.73603 l -5.43219,-10.34664 m -17.62455,-6.23099 14.37733,-1.31695 -9.06278,-16.73843"
             id="path3905-8"
             style="font-size:170.56468201px;font-style:normal;font-variant:normal;font-weight:bold;font-stretch:normal;text-align:center;line-height:111.00000143%;letter-spacing:0px;word-spacing:0px;writing-mode:lr-tb;text-anchor:middle;fill:#000000;fill-opacity:1;stroke:none;font-family:CastleT;-inkscape-font-specification:CastleT Bold" />
          <path
             sodipodi:nodetypes="ccccccccccccccccccc"
             inkscape:connector-curvature="0"
             d="m 457.21025,171.47643 2.13192,-8.39677 c 2.16128,2.56452 4.8391,3.22804 4.8391,3.22804 0,0 4.4412,1.88581 7.88509,2.40496 3.95236,0.0112 8.40962,-1.71611 8.84783,-5.33397 0.23885,-2.26857 -0.52539,-4.09224 -2.29273,-5.63947 -7.4194,-7.28715 -19.01833,-11.05278 -18.10961,-20.53425 0.32288,-3.06628 1.14702,-5.74598 3.06808,-8.03911 3.72981,-4.47193 9.08791,-6.315 16.55086,-5.52921 4.36367,0.45955 8.11366,1.89391 12.32222,4.30308 l -2.15206,8.32915 c -3.93905,-3.54027 -7.53255,-4.34965 -10.78049,-4.69171 -1.90915,-0.20098 -3.56872,-0.45123 -4.97873,0.55972 -2.5235,2.24327 -2.99568,5.28728 -1.00541,7.34142 1.11249,1.10021 4.19394,3.71103 7.99338,6.8198 4.50341,3.53773 8.06648,5.88961 9.49785,8.48527 2.65975,4.56599 2.15071,10.6397 -0.91003,14.8665 -3.79024,5.04537 -10.51693,6.81335 -18.95637,6.73608 -6.0908,-0.22291 -11.85249,-2.57045 -13.9509,-4.90953"
             id="path3887-2"
             style="font-size:145.26455688px;font-style:normal;font-variant:normal;font-weight:bold;font-stretch:normal;text-align:center;line-height:111.00000143%;letter-spacing:0px;word-spacing:0px;writing-mode:lr-tb;text-anchor:middle;fill:#000000;fill-opacity:1;stroke:none;font-family:CastleT;-inkscape-font-specification:CastleT Bold" />
          <path
             sodipodi:nodetypes="cccccsccccccccccsccccc"
             inkscape:connector-curvature="0"
             d="m 412.61454,149.73577 -0.9089,18.46375 c -0.0432,0.94274 0.0628,1.75906 0.31797,2.44899 l -10.94832,-0.52367 c 0.28548,-0.54408 0.46556,-1.34733 0.54021,-2.40973 l 2.04171,-44.88499 c 0.0407,-0.89434 -0.0651,-1.71066 -0.31797,-2.44897 l 21.25975,0.47245 c 7.46688,0.60786 13.36223,7.304 12.9207,14.45716 -0.10363,4.33971 -6.02017,10.50168 -10.53353,13.23217 l 14.25222,21.20262 c 0.65456,1.07154 1.25798,1.83796 1.81025,2.29924 l -15.28256,-0.73336 c -0.0936,-0.80366 -0.31881,-1.577 -0.67568,-2.32001 l -9.60085,-18.88065 m -4.73655,-7.17092 5.98146,0.25072 c 2.02876,0.085 3.67866,-0.37672 4.95072,-1.4086 2.00289,-1.62822 2.57079,-3.25539 2.71456,-6.39788 0,-4.39246 -3.02118,-7.22672 -6.87335,-7.45479 l -5.94245,-0.24895 -0.83094,15.2595"
             id="path3890-4"
             style="font-size:156.25350952px;font-style:normal;font-variant:normal;font-weight:bold;font-stretch:normal;text-align:center;line-height:111.00000143%;letter-spacing:0px;word-spacing:0px;writing-mode:lr-tb;text-anchor:middle;fill:#000000;fill-opacity:1;stroke:none;font-family:CastleT;-inkscape-font-specification:CastleT Bold" />
        </g>
      </g>
      <g
         transform="translate(35.853037,-90)"
         id="g4307">
        <g
           style="font-size:48px;line-height:125%;letter-spacing:0px;word-spacing:0px;color:#000000;fill:#000000;fill-opacity:1;fill-rule:nonzero;stroke:#000000;stroke-width:1.25;stroke-linecap:butt;stroke-linejoin:miter;stroke-miterlimit:4;stroke-opacity:1;stroke-dashoffset:0;marker:none;visibility:visible;display:inline;overflow:visible;enable-background:accumulate"
           id="text4251"
           transform="matrix(1,0,0,1.0360145,0,-17.601217)">
          <path
             d="m 328.19347,473.57342 -20.68719,0 0,-3.88689 7.50536,0 0,-25.17091 -7.07414,2.32032 0,-3.65625 13.03921,-3.53907 0,30.04591 7.21676,0 z"
             style="font-style:normal;font-variant:normal;font-weight:normal;font-stretch:normal;marker:none;font-family:Segoe UI;-inkscape-font-specification:Segoe UI"
             id="path4263"
             inkscape:connector-curvature="0"
             sodipodi:nodetypes="ccccccccccc" />
        </g>
        <g
           transform="matrix(1.06174,0,0,0.94185014,0.17677669,0)"
           style="font-size:53.71338654px;font-style:normal;font-variant:normal;font-weight:normal;font-stretch:normal;line-height:125%;letter-spacing:0px;word-spacing:0px;color:#000000;fill:#000000;fill-opacity:1;fill-rule:nonzero;stroke:#000000;stroke-width:1.39878619;stroke-linecap:butt;stroke-linejoin:miter;stroke-miterlimit:4;stroke-opacity:1;stroke-dashoffset:0;marker:none;visibility:visible;display:inline;overflow:visible;enable-background:accumulate;font-family:Segoe UI;-inkscape-font-specification:Segoe UI"
           id="text4255">
          <path
             d="m 288.17341,574.6684 0,-4.98852 c 2.09817,1.18898 4.31874,1.97115 6.66172,1.97115 3.40952,0 5.56335,-0.71564 7.46047,-3.46076 1.89709,-2.74511 2.38856,-6.64422 2.38858,-11.69735 -0.035,0.0175 -0.07,0.0175 -0.10491,0 -1.60862,3.23471 -3.44962,4.85205 -7.43615,4.85204 -6.60573,-0.16176 -10.46052,-5.24188 -10.50037,-11.72358 0.0175,-8.05114 5.45352,-12.48446 11.57569,-12.56284 3.70677,3e-5 6.59613,1.46439 8.6681,4.39306 2.07193,2.92874 3.69065,7.19066 3.69067,12.78578 -2e-5,6.94149 -1.51286,12.29184 -4.20549,16.05107 -2.69269,3.75924 -6.85068,5.63885 -11.6415,5.63886 -2.51783,-1e-5 -4.70343,-0.41964 -6.55681,-1.25891 z m 9.65162,-33.96428 c -4.85552,0.35323 -6.41757,3.75781 -6.40819,8.31404 -0.35271,5.45498 2.31522,8.44284 6.69669,8.49762 4.1103,-0.27719 6.66353,-2.8569 6.67629,-7.13381 0.17543,-5.4154 -2.40987,-9.60732 -6.96479,-9.67785 z"
             style="marker:none"
             id="path4260"
             inkscape:connector-curvature="0"
             sodipodi:nodetypes="ccssccccccssscccccc" />
        </g>
        <g
           style="font-size:48px;line-height:125%;letter-spacing:0px;word-spacing:0px;color:#000000;fill:#000000;fill-opacity:1;fill-rule:nonzero;stroke:#000000;stroke-width:1.25;stroke-linecap:butt;stroke-linejoin:miter;stroke-miterlimit:4;stroke-opacity:1;stroke-dashoffset:0;marker:none;visibility:visible;display:inline;overflow:visible;enable-background:accumulate"
           id="text4251-5"
           transform="matrix(1,0,0,1.0360145,4.9843101e-6,118.8704)">
          <path
             d="m 328.7238,473.48811 -20.68719,0 0,-3.80158 7.50536,0 0,-25.17091 -7.07414,2.32032 0,-3.65625 13.03921,-3.53907 0,30.04591 7.21676,0 z"
             style="font-style:normal;font-variant:normal;font-weight:normal;font-stretch:normal;marker:none;font-family:Segoe UI;-inkscape-font-specification:Segoe UI"
             id="path4263-1"
             inkscape:connector-curvature="0"
             sodipodi:nodetypes="ccccccccccc" />
        </g>
        <g
           transform="matrix(1.06174,0,0,0.94185014,0.79549482,136.73677)"
           style="font-size:53.71338654px;font-style:normal;font-variant:normal;font-weight:normal;font-stretch:normal;line-height:125%;letter-spacing:0px;word-spacing:0px;color:#000000;fill:#000000;fill-opacity:1;fill-rule:nonzero;stroke:#000000;stroke-width:1.39878619;stroke-linecap:butt;stroke-linejoin:miter;stroke-miterlimit:4;stroke-opacity:1;stroke-dashoffset:0;marker:none;visibility:visible;display:inline;overflow:visible;enable-background:accumulate;font-family:Segoe UI;-inkscape-font-specification:Segoe UI"
           id="text4255-7">
          <path
             d="m 288.17341,574.6684 0,-4.98852 c 2.09817,1.18898 4.31874,1.97115 6.66172,1.97115 3.40952,0 5.56335,-0.71564 7.46047,-3.46076 1.89709,-2.74511 2.38856,-6.64422 2.38858,-11.69735 -0.035,0.0175 -0.07,0.0175 -0.10491,0 -1.60862,3.23471 -3.44962,4.85205 -7.43615,4.85204 -6.60573,-0.16176 -10.46052,-5.24188 -10.50037,-11.72358 0.0175,-8.05114 5.45352,-12.48446 11.57569,-12.56284 3.70677,3e-5 6.59613,1.46439 8.6681,4.39306 2.07193,2.92874 3.69065,7.19066 3.69067,12.78578 -2e-5,6.94149 -1.51286,12.29184 -4.20549,16.05107 -2.69269,3.75924 -6.85068,5.63885 -11.6415,5.63886 -2.51783,-1e-5 -4.70343,-0.41964 -6.55681,-1.25891 z m 9.65162,-33.96428 c -4.85552,0.35323 -6.41757,3.75781 -6.40819,8.31404 -0.35271,5.45498 2.31522,8.44284 6.69669,8.49762 4.1103,-0.27719 6.66353,-2.8569 6.67629,-7.13381 0.17543,-5.4154 -2.40987,-9.60732 -6.96479,-9.67785 z"
             style="marker:none"
             id="path4260-1"
             inkscape:connector-curvature="0"
             sodipodi:nodetypes="ccssccccccssscccccc" />
        </g>
      </g>
      <g
         transform="translate(38.183487,-90)"
         style="fill:#ffffff"
         id="g4452">
        <path
           sodipodi:nodetypes="ccccccccc"
           inkscape:connector-curvature="0"
           id="path4354-5"
           d="m 270.25,301.875 c -31.79379,27.79379 -17.23724,70.9958 25.78125,80.09375 21.21555,6.77368 54.71162,3.74345 69.20282,-5.36338 l 0.11454,-16.08668 c -17.47964,12.50684 -49.6645,12.70674 -63.63262,5.56894 -21.05757,-9.51087 -28.6794,-30.68022 -16.65777,-51.15013 13.21136,-19.12095 56.21767,-19.57593 80.52538,-4.46935 l 2.39067,-16.97057 C 337.90035,282.0657 291.70707,283.46783 270.25,301.875 z"
           style="fill:#ffffff" />
        <path
           style="fill:#ffffff"
           d="m 233.06368,363.06307 c 4.14733,-28.03716 -32.18563,-33.09208 -43.24147,-36.24522 -7.33195,-2.07943 -13.69791,-3.56454 -17.58851,-5.32121 -20.80179,-9.83052 -0.82135,-20.72296 22.37633,-19.18376 15.01159,1.19747 16.86901,3.63667 32.21395,8.77774 0.31772,-5.17287 1.43432,-10.31005 4.40585,-15.37867 -9.0798,-2.97 -15.09533,-4.93495 -24.47498,-7.02219 -7.84041,-1.69964 -25.51714,-1.69929 -34.25758,6.8e-4 -8.46021,1.64546 -20.60346,6.9576 -25.3033,11.62003 -7.45277,7.39348 -8.12186,17.9659 -2.90618,26.98938 4.29208,7.42562 18.33104,14.0347 35.21398,16.31097 20.03516,5.36841 28.22892,5.3968 29.79716,19.73015 0.19676,17.61168 -44.64254,11.82156 -57.31162,4.6037 l -4.86987,-4.1625 c -0.13303,6.11608 -1.50818,11.56503 -3.09849,17.50032 l 8.94642,2.16086 c 13.85715,3.34697 20.22518,4.39468 35.70548,3.89513 15.98681,0 40.49869,-4.58921 44.39283,-24.27541 z"
           id="path4354"
           inkscape:connector-curvature="0"
           sodipodi:nodetypes="cccccccssscccccscc" />
        <path
           style="fill:#ffffff"
           d="m 488.14576,355.4746 c 0,0 1.00217,-20.06469 1.00217,-21.48826 0,0 1.22946,-11.34617 -0.85289,-18.0841 -6.09968,-19.7369 -27.12616,-29.81847 -53.83057,-28.63103 -21.84061,0 -36.64271,8.64492 -43.1971,20.40446 -4.98989,8.95259 -4.14851,19.39505 -4.14851,31.04907 -0.75184,9.05174 -0.13151,17.32904 2.77973,24.31751 4.95042,11.88354 19.02334,20.47954 30.48729,21.94135 9.7343,1.81002 24.46124,1.88133 37.10874,-0.8832 16.44109,-3.59374 30.18235,-17.19765 30.65114,-28.6258 z m -63.88734,16.12332 c -3.75221,-1.11481 -8.5325,-3.75858 -10.45886,-7.50207 -3.50673,-6.81461 -2.30279,-16.32015 -2.37948,-27.34616 -0.0563,-8.10035 -0.68134,-17.67657 1.96516,-24.17837 4.28903,-10.53707 13.11695,-12.08455 24.79172,-12.09845 12.0054,-0.0143 22.11245,3.14853 24.51747,11.3389 1.64339,5.59665 1.18624,12.62375 1.18624,24.51118 0,20.54209 0.67178,25.16881 -4.6084,30.44899 -3.1793,3.1793 -8.59925,6.2249 -16.17948,6.2249 -6.40228,0 -12.7767,0.40087 -18.83437,-1.39892 z"
           id="path4354-5-2"
           inkscape:connector-curvature="0"
           sodipodi:nodetypes="ccscscscscssssssssss" />
      </g>
    </g>
  </g>
</svg>
