<?xml version="1.0" encoding="UTF-8" standalone="no"?>
<!-- Generator: Adobe Illustrator 15.0.2, SVG Export Plug-In . SVG Version: 6.00 Build 0)  -->

<svg
   xmlns:dc="http://purl.org/dc/elements/1.1/"
   xmlns:cc="http://creativecommons.org/ns#"
   xmlns:rdf="http://www.w3.org/1999/02/22-rdf-syntax-ns#"
   xmlns:svg="http://www.w3.org/2000/svg"
   xmlns="http://www.w3.org/2000/svg"
   xmlns:sodipodi="http://sodipodi.sourceforge.net/DTD/sodipodi-0.dtd"
   xmlns:inkscape="http://www.inkscape.org/namespaces/inkscape"
   version="1.1"
   id="Capa_1"
   x="0px"
   y="0px"
   width="107.46"
   height="143.42"
   viewBox="0 0 427.04883 567.9432"
   xml:space="preserve"
   inkscape:version="0.48.4 r9939"
   sodipodi:docname="ca_osasuna.svg"><metadata
   id="metadata79"><rdf:RDF><cc:Work
       rdf:about=""><dc:format>image/svg+xml</dc:format><dc:type
         rdf:resource="http://purl.org/dc/dcmitype/StillImage" /><dc:title></dc:title></cc:Work></rdf:RDF></metadata><defs
   id="defs77" /><sodipodi:namedview
   pagecolor="#ffffff"
   bordercolor="#666666"
   borderopacity="1"
   objecttolerance="10"
   gridtolerance="10"
   guidetolerance="10"
   inkscape:pageopacity="0"
   inkscape:pageshadow="2"
   inkscape:window-width="1920"
   inkscape:window-height="1018"
   id="namedview75"
   showgrid="false"
   fit-margin-top="0"
   fit-margin-left="0"
   fit-margin-right="0"
   fit-margin-bottom="0"
   inkscape:zoom="5.6661466"
   inkscape:cx="53.229397"
   inkscape:cy="70.849544"
   inkscape:window-x="-8"
   inkscape:window-y="-8"
   inkscape:window-maximized="1"
   inkscape:current-layer="Capa_1" />
<path
   d="m 311.68246,172.37194 c -0.573,-0.107 -1.124,-0.204 -1.693,-0.31 -0.739,-9.559 -8.711,-17.088 -18.458,-17.088 -7.56,0 -14.05,4.533 -16.931,11.025 -15.246,-2.309 -29.674,-3.963 -43.338,-4.715 -2.297,-7.626 -9.365,-13.186 -17.74,-13.186 -8.375,0 -15.445,5.56 -17.739,13.186 -13.664,0.752 -28.093,2.406 -43.336,4.715 -2.881,-6.492 -9.373,-11.025 -16.933,-11.025 -9.747,0 -17.717,7.529 -18.457,17.086 -0.571,0.107 -1.123,0.204 -1.696,0.311 -44.868994,11.455 -86.339994,23.398 -113.3749941,30.877 19.5620001,167.998 133.1189941,298.469 211.5349941,363.604 78.416,-65.135 191.973,-195.606 211.535,-363.604 -27.035,-7.479 -68.506,-19.422 -113.374,-30.876 z"
   id="path3"
   inkscape:connector-curvature="0"
   style="fill:#ad8f1f" />
<path
   d="m 401.49646,208.76494 c -25.792,-7.226 -57.871,-16.211 -92.327,-25.012 -0.657,-0.124 -1.325,-0.242 -1.984,-0.364 -2.268,3.586 -5.727,6.339 -9.83,7.697 v 48.183 c 7.377,2.442 12.707,9.385 12.707,17.584 0,8.198 -5.329,15.14 -12.707,17.582 v 13.237 c 0,15.618 -2.273,30.079 -6.061,43.331 3.331,3.35 5.392,7.966 5.392,13.065 0,10.124 -8.122,18.337 -18.203,18.513 -13.602,25.368 -32.104,43.842 -47.007,54.285 0.361,1.445 0.575,2.95 0.575,4.508 0,10.233 -8.295,18.529 -18.529,18.529 v 111.669 c 49.072,-42.379 174.284,-165.99 198.616,-339.837 -5.314,-1.483 -10.642,-2.97 -10.642,-2.97 z"
   id="path5"
   inkscape:connector-curvature="0"
   style="fill:#0a346f" />
<path
   d="m 194.99246,421.37294 c 0,-1.558 0.213,-3.062 0.574,-4.508 -14.904,-10.443 -33.404,-28.917 -47.004,-54.285 -10.083,-0.176 -18.205,-8.389 -18.205,-18.513 0,-5.099 2.062,-9.715 5.393,-13.065 -3.788,-13.252 -6.061,-27.712 -6.061,-43.33 v -13.238 c -7.377,-2.443 -12.706,-9.385 -12.706,-17.582 0,-8.199 5.329,-15.141 12.706,-17.584 v -48.183 c -4.102,-1.359 -7.561,-4.11 -9.83,-7.697 -0.661,0.122 -1.328,0.241 -1.986,0.364 -34.454994,8.801 -66.533994,17.786 -92.326994,25.012 0,0 -5.329,1.487 -10.64,2.97 24.331,173.848 149.542994,297.458 198.614994,339.838 v -111.67 c -10.234,0 -18.529,-8.296 -18.529,-18.529 z"
   id="path7"
   inkscape:connector-curvature="0"
   style="fill:#d91a21" />
<path
   d="m 141.33646,191.08494 v 48.183 c 7.378,2.443 12.706,9.385 12.706,17.584 0,8.197 -5.328,15.139 -12.706,17.582 v 13.238 c 0,13.535 1.92,26.249 5.152,38.037 0.786,-0.101 1.583,-0.172 2.398,-0.172 10.233,0 18.531,8.296 18.531,18.53 0,6.058 -2.921,11.422 -7.418,14.802 12.239,22.173 28.38,38.747 41.762,48.186 3.199,-2.631 7.294,-4.211 11.759,-4.211 4.465,0 8.559,1.58 11.757,4.209 13.382,-9.438 29.525,-26.011 41.767,-48.184 -4.498,-3.38 -7.42,-8.744 -7.42,-14.802 0,-10.234 8.298,-18.53 18.531,-18.53 0.815,0 1.612,0.071 2.399,0.172 3.231,-11.789 5.152,-24.503 5.152,-38.038 v -13.237 c -7.376,-2.443 -12.705,-9.385 -12.705,-17.582 0,-8.198 5.329,-15.14 12.705,-17.584 v -48.183 c -6.106,-2.022 -10.797,-7.13 -12.234,-13.481 -14.452,-2.199 -28.801,-3.93 -42.533,-4.707 -2.571,7.146 -9.388,12.263 -17.418,12.263 -8.034,0 -14.853,-5.123 -17.422,-12.271 -13.696,0.773 -28.051,2.508 -42.527,4.713 -1.436,6.352 -6.128,11.46 -12.236,13.483 z"
   id="path9"
   inkscape:connector-curvature="0"
   style="fill:#ffffff" />
<path
   d="m 172.57846,291.44194 c -2.68,0.061 -4.518,1.668 -5.063,3.019 l -3.577,10.276 c 0,0 -1.941,8.035 6.148,9.859 0,0 1.417,-4.619 2.696,-8.487 0,0 0.604,-3.689 3.689,-3.689 l 8.091,0.082 c 0,0 1.927,0.287 2.477,-1.051 l 0.006,-10.34 c 0.001,-0.002 -11.52,0.268 -14.467,0.331 z"
   id="path11"
   inkscape:connector-curvature="0"
   style="fill:#ad8f1f" />
<path
   d="m 259.88946,254.74794 c -4.083,-4.043 -9.001,-8.412 -15.385,-8.317 -5.087,0.075 -7.318,2.075 -8.785,4.852 -1.362,2.571 -2.062,6.381 2.298,10.739 3.748,3.748 10.15,6.929 10.15,12.474 0,3.811 -2.825,3.58 -2.825,3.58 l -29.532,-0.626 4.372,8.394 -12.382,0.178 -0.16,12.732 -10.334,-7.743 -8.678,9.652 -1.751,20.799 c 0,0 0.133,1.479 -2.279,1.479 h -4.687 c 0,0 -2.414,3.312 -2.414,7.453 l 15.004,-0.21 c 0,0 0.657,-0.414 2.678,-4.141 2.711,-5 10.066,-17.88 10.066,-17.88 0,0 -0.079,-5.876 -0.019,-6.155 0,0 2.148,1.648 2.553,1.69 v 2.839 c 0,0 10.62,-7.124 20.542,-3.561 0,0 13.532,3.627 15.788,13.127 l 1.113,6.561 c 0,0 -5.836,-0.484 -6.854,1.81 0,0 -1.463,3.286 -1.463,5.652 0,0 13.036,0 16.229,0 l 3.279,-7.461 -2.962,-16.755 c 0,0 -9.342,-8.815 -8.948,-17.612 0,0 9.837,-0.808 9.837,-11.952 0,-11.144 -9.711,-15.809 -12.809,-18.106 -2.401,-2.401 -2.231,-4.632 -0.685,-6.176 2.382,-2.382 6.9,-0.028 6.9,1.299 0,0 0.683,5.254 7.274,9.067 l 1.518,-1.792 c 0,0 1.151,1.963 6.698,1.963 0.002,-10e-4 0.733,-3.811 -3.347,-7.853 z"
   id="path13"
   inkscape:connector-curvature="0"
   style="fill:#ad8f1f" />
<path
   d="m 218.88746,304.23494 1.942,6.249 c 0,5.392 -3.615,12.178 -3.615,12.178 h -7.483 c 0,0 -3.213,2.284 -3.213,7.461 h 15.353 l 10.446,-11.605 c 0,0 2.257,-1.868 2.59,-3.573 0.484,-2.499 1.294,-6.069 1.294,-6.069 -9.063,-6.071 -17.314,-4.641 -17.314,-4.641 z"
   id="path15"
   inkscape:connector-curvature="0"
   style="fill:#ad8f1f" />
<path
   d="m 219.89646,276.48294 -4.979,-7.453 v -9.341 c 0,-3.552 -1.524,-4.737 -1.524,-4.737 0,0 -7.508,-8.03 -9.032,-9.712 -1.411,-1.557 -3.67,-1.352 -3.996,-1.313 0.047,-0.09 0.102,-0.415 0.102,-1.488 0,-1.868 -1.691,-1.493 -1.691,-1.493 0,0 -7.787,0.186 -7.787,-0.748 0,0 -0.339,-2.802 -3.046,-1.493 -2.708,1.304 -9.878,10.271 -13.264,13.82 -3.385,3.549 -1.861,4.669 -1.861,4.669 l 2.708,4.551 4.378,-3.312 c 0,0 1.723,-1.229 3.712,0.571 l -6.586,5.145 c 0.845,1.681 2.051,1.518 2.051,1.518 h 5.755 l 2.092,4.399 h 4.254 v -7.844 h 2.368 v -7.831 h 1.332 v 9.593 h -2.369 v 7.847 h -5.754 l -10.423,9.749 7.489,-0.163 -3.798,8.461 8.362,0.245 -0.062,8.892 8.944,-10.036 8.887,6.638 v -11.389 l 11.529,-0.037 -4.584,-7.669 6.793,-0.039 z"
   id="path17"
   inkscape:connector-curvature="0"
   style="fill:#ad8f1f" />
<path
   d="m 184.29546,248.83094 c -0.956,0.271 -1.581,0.801 -1.742,0.964 -0.776,0.776 0.805,1.985 1.799,1.985 0.993,0 1.799,-0.888 1.799,-1.985 0.001,-1.097 0.18,-1.535 -1.856,-0.964 z"
   id="path19"
   inkscape:connector-curvature="0"
   style="fill:#ffffff" />
<polygon
   points="287.317,340.331 286.012,339.149 284.706,340.331 286.012,341.513 "
   id="polygon21"
   style="fill:#d91a21"
   transform="translate(-92.978534,-113.14806)" />
<circle
   cx="294.263"
   cy="340.995"
   r="0.97000003"
   id="circle23"
   sodipodi:cx="294.263"
   sodipodi:cy="340.995"
   sodipodi:rx="0.97000003"
   sodipodi:ry="0.97000003"
   style="fill:#ad8f1f"
   transform="translate(-92.978534,-113.14806)" />
<circle
   cx="277.76099"
   cy="340.995"
   r="0.97000003"
   id="circle25"
   sodipodi:cx="277.76099"
   sodipodi:cy="340.995"
   sodipodi:rx="0.97000003"
   sodipodi:ry="0.97000003"
   style="fill:#ad8f1f"
   transform="translate(-92.978534,-113.14806)" />
<polygon
   points="301.328,343.964 302.058,341.718 302.334,342.981 "
   id="polygon27"
   style="fill:#d91a21"
   transform="translate(-92.978534,-113.14806)" />
<polygon
   points="270.693,343.964 269.963,341.718 269.687,342.981 "
   id="polygon29"
   style="fill:#d91a21"
   transform="translate(-92.978534,-113.14806)" />
<path
   d="m 193.03646,228.69294 c -2.335,0.061 -10.331,0.415 -15.346,2.435 l -0.06,0.024 0.014,0.063 c 0.41,1.779 0.418,1.783 0.461,1.804 l 0.03,0.015 0.031,-0.012 c 5.755,-2.195 13.391,-2.49 14.868,-2.527 1.476,0.037 9.11,0.332 14.866,2.527 l 0.03,0.011 0.029,-0.014 c 0.045,-0.021 0.05,-0.024 0.46,-1.805 l 0.015,-0.063 -0.06,-0.024 c -5.013,-2.02 -13.007,-2.374 -15.338,-2.434 z"
   id="path31"
   inkscape:connector-curvature="0"
   style="fill:#ad8f1f" />
<path
   d="m 209.47646,226.41794 c -5.34,-2.15 -14.469,-2.549 -16.443,-2.532 -1.972,-0.017 -11.103,0.382 -16.444,2.533 -0.07,0.031 -0.07,0.031 0.339,1.762 l 0.02,0.084 0.081,-0.031 c 5.595,-2.136 13.631,-2.566 16.005,-2.548 h 0.002 c 2.374,-0.018 10.409,0.412 16.001,2.548 l 0.081,0.031 0.02,-0.084 c 0.409,-1.734 0.409,-1.734 0.338,-1.763 z"
   id="path33"
   inkscape:connector-curvature="0"
   style="fill:#ad8f1f" />
<path
   d="m 211.19846,219.48794 c -0.365,-0.536 -0.982,-0.888 -1.671,-0.888 -1.095,0 -1.979,0.885 -1.979,1.978 0,0.65 0.313,1.197 0.796,1.555 0,0 0.554,0.345 0.668,0.576 0.167,0.347 0.011,0.583 -0.342,0.641 -0.354,0.056 -3.7,-1.074 -5.394,-1.255 -0.387,-0.038 -0.35,-0.688 0.468,-0.515 0.817,0.175 1.623,-0.347 1.796,-1.167 0.175,-0.817 -0.35,-1.621 -1.167,-1.796 0.075,-0.133 0.167,-0.275 0.202,-0.431 0.187,-0.878 -0.373,-1.738 -1.248,-1.926 -0.876,-0.184 -1.737,0.375 -1.924,1.25 -0.032,0.159 -0.04,0.315 -0.028,0.469 -0.817,-0.175 -1.586,0.356 -1.761,1.176 -0.172,0.818 0.366,1.556 1.167,1.796 0.689,0.205 0.426,0.708 0.044,0.685 -0.275,-0.021 -4.64,-0.389 -5.874,-0.424 -0.644,-0.056 -0.918,-1.216 0.316,-1.216 1.232,0 2.231,-1.001 2.231,-2.236 0,-1.232 -0.999,-2.233 -2.231,-2.233 0.063,-0.217 0.159,-0.447 0.159,-0.685 0,-1.321 -1.071,-2.392 -2.393,-2.392 -1.321,0 -2.391,1.071 -2.391,2.392 0,0.237 0.092,0.468 0.159,0.685 -1.234,0 -2.235,1.001 -2.235,2.233 0,1.234 1.001,2.236 2.235,2.236 1.233,0 0.958,1.16 0.314,1.216 -1.235,0.035 -5.599,0.403 -5.875,0.424 -0.38,0.023 -0.644,-0.48 0.045,-0.685 0.802,-0.24 1.341,-0.978 1.167,-1.796 -0.174,-0.82 -0.944,-1.351 -1.762,-1.176 0.012,-0.154 0.008,-0.31 -0.026,-0.469 -0.187,-0.875 -1.048,-1.435 -1.924,-1.25 -0.875,0.188 -1.436,1.048 -1.25,1.926 0.034,0.156 0.128,0.298 0.203,0.431 -0.818,0.175 -1.34,0.979 -1.167,1.796 0.173,0.82 0.979,1.341 1.795,1.167 0.818,-0.172 0.854,0.478 0.468,0.515 -1.694,0.181 -5.041,1.311 -5.394,1.255 -0.353,-0.058 -0.51,-0.293 -0.341,-0.641 0.114,-0.23 0.668,-0.576 0.668,-0.576 0.483,-0.358 0.795,-0.905 0.795,-1.555 0,-1.093 -0.885,-1.978 -1.979,-1.978 -0.689,0 -1.306,0.352 -1.67,0.888 -0.895,-3.508 -4.487,-1.719 -4.487,-1.719 l 1.85,2.995 c 0.419,-0.303 1.065,-0.254 1.464,0.145 0.453,0.454 0.453,1.188 0,1.64 -0.075,0.077 -0.159,0.14 -0.248,0.191 l 1.563,2.529 c 0,0 0.453,1.183 2.442,0.426 5.039,-1.917 13.351,-2.261 15.58,-2.243 2.229,-0.019 10.539,0.326 15.579,2.243 1.989,0.757 2.441,-0.426 2.441,-0.426 l 1.563,-2.529 c -0.088,-0.051 -0.17,-0.114 -0.247,-0.191 -0.454,-0.452 -0.454,-1.186 0,-1.64 0.398,-0.398 1.043,-0.447 1.463,-0.145 l 1.849,-2.995 c 0.002,0 -3.589,-1.789 -4.482,1.719 z m -27.795,0.882 c -0.539,0 -0.976,-0.438 -0.976,-0.978 0,-0.538 0.437,-0.976 0.976,-0.976 0.54,0 0.976,0.438 0.976,0.976 0,0.54 -0.436,0.978 -0.976,0.978 z m 9.63,-1.609 c -0.724,0 -1.313,-0.587 -1.313,-1.311 0,-0.725 0.588,-1.314 1.313,-1.314 0.724,0 1.313,0.589 1.313,1.314 -0.001,0.724 -0.59,1.311 -1.313,1.311 z m 8.654,0.631 c 0,-0.538 0.436,-0.976 0.973,-0.976 0.541,0 0.976,0.438 0.976,0.976 0,0.54 -0.435,0.978 -0.976,0.978 -0.537,0 -0.973,-0.438 -0.973,-0.978 z"
   id="path35"
   inkscape:connector-curvature="0"
   style="fill:#ad8f1f" />
<polygon
   points="315.303,213.365 306.5,205.399 297.696,213.365 306.5,221.332 "
   id="polygon37"
   style="fill:#d91a21"
   transform="translate(-92.978534,-113.14806)" />
<circle
   cx="362.13599"
   cy="217.843"
   r="6.5380001"
   id="circle39"
   sodipodi:cx="362.13599"
   sodipodi:cy="217.843"
   sodipodi:rx="6.5380001"
   sodipodi:ry="6.5380001"
   style="fill:#ad8f1f"
   transform="translate(-92.978534,-113.14806)" />
<circle
   cx="250.864"
   cy="217.843"
   r="6.54"
   id="circle41"
   sodipodi:cx="250.864"
   sodipodi:cy="217.843"
   sodipodi:rx="6.54"
   sodipodi:ry="6.54"
   style="fill:#ad8f1f"
   transform="translate(-92.978534,-113.14806)" />
<polygon
   points="414.71,222.713 409.789,237.866 416.571,231.237 "
   id="polygon43"
   style="fill:#d91a21"
   transform="translate(-92.978534,-113.14806)" />
<polygon
   points="203.21,237.866 198.287,222.713 196.429,231.237 "
   id="polygon45"
   style="fill:#d91a21"
   transform="translate(-92.978534,-113.14806)" />
<path
   d="m 213.54746,110.30994 c -15.755,0.404 -69.684,2.779 -103.523,16.41 l -0.48,0.193 0.116,0.505 c 2.771,12.058 2.8,12.072 3.158,12.246 l 0.236,0.114 0.247,-0.093 c 38.72,-14.771 90.257,-16.789 100.231,-17.044 9.97,0.255 61.49,2.273 100.212,17.044 l 0.243,0.092 0.238,-0.112 c 0.358,-0.171 0.386,-0.186 3.16,-12.247 l 0.116,-0.505 -0.481,-0.193 c -33.843,-13.631 -87.757,-16.007 -103.473,-16.41 z"
   id="path47"
   inkscape:connector-curvature="0"
   style="fill:#ad8f1f" />
<path
   d="m 324.46646,94.976946 c -36.022,-14.511003 -97.623,-17.206003 -110.94,-17.095003 -13.313,-0.111 -74.927,2.584 -110.935,17.088003 -0.554,0.242 -0.555,0.244 2.229,11.985994 l 0.16,0.674 0.647,-0.247 c 37.814,-14.423997 91.924,-17.292997 107.898,-17.159997 h 0.009 c 15.971,-0.133 70.066,2.736 107.879,17.159997 l 0.648,0.247 0.158,-0.674 c 2.786,-11.742994 2.786,-11.742994 2.247,-11.978994 z"
   id="path49"
   inkscape:connector-curvature="0"
   style="fill:#ad8f1f" />
<path
   d="m 336.00646,48.318943 c -2.457,-3.605 -6.621,-5.985 -11.27,-5.985 -7.364,0 -13.338,5.971 -13.338,13.338 0,4.374 2.105,8.066 5.356,10.497 0,0 3.745,2.322 4.509,3.882 1.141,2.327 0.081,3.917 -2.304,4.302 -2.382,0.384 -24.946,-7.229 -36.373,-8.457 -2.608,-0.247 -2.362,-4.642 3.156,-3.468 5.517,1.171 10.939,-2.35 12.111,-7.867 1.173,-5.517 -2.348,-10.94 -7.866,-12.114 0.499,-0.906 1.134,-1.852 1.361,-2.916 1.257,-5.909 -2.516,-11.715 -8.422,-12.972 -5.909,-1.253 -11.715,2.518 -12.973,8.424 -0.223,1.062 -0.256,2.124 -0.175,3.153 -5.517,-1.169 -10.708,2.413 -11.882,7.931 -1.172,5.517 2.459,10.506 7.865,12.113 4.656,1.384 2.874,4.784 0.31,4.611 -1.863,-0.123 -31.292,-2.606 -39.614,-2.855 -4.344,-0.373 -6.2,-8.198 2.119,-8.198 8.322,0 15.064,-6.745 15.064,-15.064 0,-8.319 -6.742,-15.064 -15.064,-15.064 0.443,-1.462 1.07,-3.021 1.07,-4.625 0,-8.9110002 -7.216,-16.13299931 -16.126,-16.13299931 -8.909,0 -16.124,7.22199911 -16.124,16.13299931 0,1.604 0.624,3.163 1.067,4.625 -8.321,0 -15.066,6.745 -15.066,15.064 0,8.319 6.745,15.064 15.066,15.064 8.318,0 6.465,7.826 2.116,8.198 -8.319,0.249 -37.75,2.732 -39.611,2.855 -2.563,0.173 -4.346,-3.228 0.308,-4.611 5.406,-1.607 9.038,-6.595 7.866,-12.113 -1.173,-5.518 -6.364,-9.1 -11.88,-7.931 0.082,-1.029 0.048,-2.091 -0.176,-3.153 -1.257,-5.906 -7.064,-9.677 -12.972,-8.424 -5.907,1.257 -9.679,7.064 -8.423,12.972 0.227,1.064 0.861,2.01 1.359,2.916 -5.516,1.174 -9.037,6.596 -7.864,12.114 1.172,5.517 6.594,9.038 12.112,7.867 5.517,-1.174 5.763,3.221 3.155,3.468 -11.426,1.228 -33.99,8.841 -36.374,8.457 -2.382,-0.384 -3.442,-1.975 -2.302,-4.302 0.765,-1.56 4.507,-3.882 4.507,-3.882 3.254,-2.431 5.359,-6.123 5.359,-10.497 0,-7.366 -5.973,-13.338 -13.339,-13.338 -4.648996,0 -8.812994,2.38 -11.270994,5.985 -6.028,-23.649 -30.255,-11.594 -30.255,-11.594 l 12.479,20.195 c 2.827,-2.028 7.185,-1.702 9.868,0.981 3.055,3.056 3.055,8.009 0,11.065 -0.51,0.51 -1.074,0.932 -1.671,1.272 l 10.538,17.064 c 0,0 3.057998,7.981003 16.470994,2.876 33.979,-12.936 90.034,-15.25 105.063,-15.127 15.027,-0.124 71.07,2.191 105.05,15.127 13.413,5.105003 16.471,-2.876 16.471,-2.876 l 10.539,-17.064 c -0.601,-0.34 -1.162,-0.762 -1.672,-1.272 -3.054,-3.056 -3.054,-8.009 0,-11.065 2.683,-2.683 7.041,-3.009 9.868,-0.981 l 12.479,-20.195 c 10e-4,10e-4 -24.225,-12.054 -30.255,11.594 z m -187.422,5.944 c -3.634,0 -6.581,-2.946 -6.581,-6.582 0,-3.633 2.947,-6.582 6.581,-6.582 3.635,0 6.582,2.949 6.582,6.582 0,3.636 -2.947,6.582 -6.582,6.582 z m 64.937,-10.844 c -4.888,0 -8.849,-3.961 -8.849,-8.848 0,-4.886 3.961,-8.848 8.849,-8.848 4.886,0 8.85,3.962 8.85,8.848 0,4.886 -3.964,8.848 -8.85,8.848 z m 58.355,4.262 c 0,-3.633 2.948,-6.582 6.582,-6.582 3.633,0 6.582,2.949 6.582,6.582 0,3.636 -2.948,6.582 -6.582,6.582 -3.633,0 -6.582,-2.946 -6.582,-6.582 z"
   id="path51"
   inkscape:connector-curvature="0"
   style="fill:#ad8f1f" />
<path
   d="m 56.558466,257.40894 c 0,-10.751 8.714,-19.466 19.465,-19.466 l 13.814,0.012 v -7.928 l -13.814,-0.017 c -15.132,0 -27.397,12.267 -27.397,27.399 0,15.131 12.26,27.404 27.391,27.404 h 14.055 l 0.049,-7.948 h -14.149 c -10.751,0 -19.414,-8.706 -19.414,-19.456 z"
   id="path53"
   inkscape:connector-curvature="0"
   style="fill:#ad8f1f;fill-opacity:1" />
<path
   d="m 356.65946,227.31794 c -9.595,0 -20.397,8.557 -21.301,22.964 l -0.135,32.962 7.406,-0.063 v -11.475 l 27.738,0.061 v 11.2 h 7.733 v -32.476 c -0.901,-14.405 -11.284,-23.173 -21.441,-23.173 z m 13.639,36.607 h -27.669 l -0.023,-13.539 c 0.023,-10.658 7.582,-15.162 13.9,-15.034 7.844,0.159 13.792,6.603 13.792,14.929 v 13.644 z"
   id="path55"
   inkscape:connector-curvature="0"
   style="fill:#ad8f1f;fill-opacity:1" />
<path
   d="m 213.52146,462.59394 c -15.133,0 -27.398,12.267 -27.398,27.398 0,15.132 12.265,27.397 27.398,27.397 15.13,0 27.398,-12.265 27.398,-27.397 0,-15.131 -12.268,-27.398 -27.398,-27.398 z m 0,46.862 c -10.75,0 -19.465,-8.712 -19.465,-19.463 0,-10.75 8.715,-19.465 19.465,-19.465 10.75,0 19.465,8.715 19.465,19.465 0,10.751 -8.715,19.463 -19.465,19.463 z"
   id="path57"
   inkscape:connector-curvature="0"
   style="fill:#ad8f1f;fill-opacity:1" />
<circle
   cx="306.5"
   cy="534.521"
   r="10.595"
   id="circle59"
   sodipodi:cx="306.5"
   sodipodi:cy="534.521"
   sodipodi:rx="10.595"
   sodipodi:ry="10.595"
   style="fill:#ffffff"
   transform="translate(-92.978534,-113.14806)" />
<circle
   cx="384.51001"
   cy="369.99899"
   r="10.596"
   id="circle61"
   sodipodi:cx="384.51001"
   sodipodi:cy="369.99899"
   sodipodi:rx="10.596"
   sodipodi:ry="10.596"
   style="fill:#ffffff"
   transform="translate(-92.978534,-113.14806)" />
<circle
   cx="228.492"
   cy="370"
   r="10.596"
   id="circle63"
   sodipodi:cx="228.492"
   sodipodi:cy="370"
   sodipodi:rx="10.596"
   sodipodi:ry="10.596"
   style="fill:#ffffff"
   transform="translate(-92.978534,-113.14806)" />
<circle
   cx="241.867"
   cy="457.21399"
   r="10.596"
   id="circle65"
   sodipodi:cx="241.867"
   sodipodi:cy="457.21399"
   sodipodi:rx="10.596"
   sodipodi:ry="10.596"
   style="fill:#ffffff"
   transform="translate(-92.978534,-113.14806)" />
<circle
   cx="384.51001"
   cy="286.64999"
   r="10.596"
   id="circle67"
   sodipodi:cx="384.51001"
   sodipodi:cy="286.64999"
   sodipodi:rx="10.596"
   sodipodi:ry="10.596"
   style="fill:#ffffff"
   transform="translate(-92.978534,-113.14806)" />
<circle
   cx="228.492"
   cy="286.64999"
   r="10.596"
   id="circle69"
   sodipodi:cx="228.492"
   sodipodi:cy="286.64999"
   sodipodi:rx="10.596"
   sodipodi:ry="10.596"
   style="fill:#ffffff"
   transform="translate(-92.978534,-113.14806)" />
<circle
   cx="306.5"
   cy="279.77802"
   r="10.596"
   id="circle71"
   sodipodi:cx="306.5"
   sodipodi:cy="279.77802"
   sodipodi:rx="10.596"
   sodipodi:ry="10.596"
   style="fill:#ffffff"
   transform="translate(-92.978534,-113.14806)" />
<circle
   cx="371.134"
   cy="457.21399"
   r="10.596"
   id="circle73"
   sodipodi:cx="371.134"
   sodipodi:cy="457.21399"
   sodipodi:rx="10.596"
   sodipodi:ry="10.596"
   style="fill:#ffffff"
   transform="translate(-92.978534,-113.14806)" />
</svg>