<?xml version="1.0" encoding="UTF-8" standalone="no"?>
<!-- Created with Inkscape (http://www.inkscape.org/) -->

<svg
   xmlns:dc="http://purl.org/dc/elements/1.1/"
   xmlns:cc="http://creativecommons.org/ns#"
   xmlns:rdf="http://www.w3.org/1999/02/22-rdf-syntax-ns#"
   xmlns:svg="http://www.w3.org/2000/svg"
   xmlns="http://www.w3.org/2000/svg"
   xmlns:sodipodi="http://sodipodi.sourceforge.net/DTD/sodipodi-0.dtd"
   xmlns:inkscape="http://www.inkscape.org/namespaces/inkscape"
   width="247.96843"
   height="300"
   viewBox="0 0 247.96844 300"
   id="svg2"
   version="1.1"
   inkscape:version="0.91 r13725"
   sodipodi:docname="cagliari.svg">
  <defs
     id="defs4">
    <clipPath
       clipPathUnits="userSpaceOnUse"
       id="clipPath966">
      <path
         d="m 442.559,41.002 88.441,0 0,106.999 -88.441,0 0,-106.999 z"
         id="path968"
         inkscape:connector-curvature="0" />
    </clipPath>
  </defs>
  <sodipodi:namedview
     id="base"
     pagecolor="#ffffff"
     bordercolor="#666666"
     borderopacity="1.0"
     inkscape:pageopacity="0.0"
     inkscape:pageshadow="2"
     inkscape:zoom="0.99674932"
     inkscape:cx="320.12859"
     inkscape:cy="113.49611"
     inkscape:document-units="px"
     inkscape:current-layer="layer1"
     showgrid="false"
     units="px"
     fit-margin-top="0"
     fit-margin-left="0"
     fit-margin-right="0"
     fit-margin-bottom="0"
     inkscape:window-width="1366"
     inkscape:window-height="705"
     inkscape:window-x="-8"
     inkscape:window-y="-8"
     inkscape:window-maximized="1" />
  <metadata
     id="metadata7">
    <rdf:RDF>
      <cc:Work
         rdf:about="">
        <dc:format>image/svg+xml</dc:format>
        <dc:type
           rdf:resource="http://purl.org/dc/dcmitype/StillImage" />
        <dc:title></dc:title>
      </cc:Work>
    </rdf:RDF>
  </metadata>
  <g
     inkscape:label="Layer 1"
     inkscape:groupmode="layer"
     id="layer1"
     transform="translate(-54.87141,-602.13192)">
    <path
       inkscape:connector-curvature="0"
       id="path3458"
       d="m 136.42503,1076.9584 0,-166.71386 137.89913,0 137.89914,0 0,166.71386 0,166.7139 -137.89914,0 -137.89913,0 0,-166.7139 z"
       style="fill:#fdfdfe" />
    <g
       id="g962"
       transform="matrix(2.8037724,0,0,-2.8037724,-1185.9633,1017.0922)">
      <g
         id="g964"
         clip-path="url(#clipPath966)">
        <g
           id="g970"
           transform="translate(486.7794,41.0017)">
          <path
             d="m 0,0 c 26.509,15.973 44.221,44.904 44.221,77.945 0,7.244 -0.878,14.282 -2.487,21.038 -12.867,5.166 -26.926,8.016 -41.657,8.016 -14.802,0 -28.916,-2.895 -41.833,-8.108 -1.595,-6.729 -2.465,-13.735 -2.465,-20.946 C -44.221,44.904 -26.509,15.973 0,0"
             style="fill:#ffffff;fill-opacity:1;fill-rule:nonzero;stroke:none"
             id="path972"
             inkscape:connector-curvature="0" />
        </g>
        <g
           id="g974"
           transform="translate(486.7794,146.3687)">
          <path
             d="m 0,0 c -14.322,-0.01 -27.978,-2.815 -40.477,-7.86 -1.547,-6.522 -2.39,-13.314 -2.39,-20.305 0,-32.028 17.17,-60.074 42.867,-75.558 L 0,0 Z"
             style="fill:#b01028;fill-opacity:1;fill-rule:nonzero;stroke:none"
             id="path976"
             inkscape:connector-curvature="0" />
        </g>
        <g
           id="g978"
           transform="translate(486.8541,146.3692)">
          <path
             d="m 0,0 c -0.025,0 -0.05,0 -0.075,0 l 0,-103.723 c 25.697,15.483 42.867,43.529 42.867,75.558 0,7.023 -0.85,13.845 -2.41,20.394 C 27.909,-2.763 14.28,0 0,0"
             style="fill:#082242;fill-opacity:1;fill-rule:nonzero;stroke:none"
             id="path980"
             inkscape:connector-curvature="0" />
        </g>
        <g
           id="g982"
           transform="translate(519.6022,113.6184)">
          <path
             d="m 0,0 c 0,2.505 -0.115,4.983 -0.339,7.43 -10.23,3.198 -21.116,4.926 -32.409,4.926 -11.35,0 -22.289,-1.747 -32.563,-4.976 -0.222,-2.43 -0.335,-4.892 -0.335,-7.38 0,-26.583 12.901,-50.172 32.823,-64.935 C -12.901,-50.172 0,-26.583 0,0"
             style="fill:#ffffff;fill-opacity:1;fill-rule:nonzero;stroke:none"
             id="path984"
             inkscape:connector-curvature="0" />
        </g>
        <g
           id="g986"
           transform="translate(494.9449,79.1653)">
          <path
             d="M 0,0 C 0.078,0.103 0.212,0.286 0.463,0.541 0.713,0.796 1.08,1.125 1.625,1.518 2.169,1.911 2.892,2.369 3.855,2.885 4.432,3.193 4.996,3.468 5.537,3.714 6.079,3.961 6.6,4.177 7.09,4.369 7.581,4.56 8.042,4.726 8.465,4.871 c 0.424,0.145 0.811,0.266 1.151,0.372 0,0 0.09,0.343 -0.058,0.678 C 9.409,6.256 9.022,6.585 8.066,6.556 7.3,6.533 6.806,6.656 6.261,6.729 5.716,6.803 5.12,6.829 4.154,6.614 3.631,6.497 3.256,6.322 2.907,6.107 2.558,5.892 2.234,5.637 1.817,5.361 1.307,5.023 0.972,4.889 0.688,4.736 0.404,4.583 0.174,4.41 -0.121,3.991 -0.417,3.569 -0.433,3.242 -0.421,2.863 -0.41,2.484 -0.372,2.054 -0.556,1.427 -0.792,0.626 0,0 0,0 m 11.85,-0.072 c -0.05,0.084 -0.39,0.526 -0.467,0.714 -0.076,0.187 -0.505,0.611 -0.3,1.061 0.066,0.144 0.044,0.403 -0.017,0.7 0,0 -0.18,-0.021 -0.498,-0.069 C 10.249,2.288 9.793,2.215 9.245,2.111 8.696,2.008 8.056,1.874 7.365,1.703 6.675,1.533 5.935,1.325 5.192,1.078 4.201,0.748 3.344,0.42 2.642,0.128 1.94,-0.164 1.393,-0.418 1.021,-0.599 0.649,-0.781 0.452,-0.89 0.452,-0.89 0.151,-1.464 0.251,-1.775 0.477,-1.96 0.704,-2.145 1.146,-2.186 1.267,-2.271 1.821,-2.665 1.804,-3.66 1.655,-4.128 1.506,-4.597 1.241,-4.916 1.338,-5.097 c 0.097,-0.18 0.485,-0.378 0.927,-0.596 0.441,-0.217 0.938,-0.455 1.251,-0.715 0.651,-0.539 1.199,-0.987 1.7,-1.326 0.502,-0.339 0.957,-0.569 1.423,-0.673 0.464,-0.103 0.939,-0.079 1.481,0.091 0.539,0.169 -0.388,0.684 0.004,1.661 0.446,1.111 0.065,1.355 0.445,1.368 1.004,0.037 1.64,0.121 2.022,0.295 0.383,0.173 0.512,0.436 0.5,0.827 -0.017,0.509 -0.422,0.712 0.048,1.093 0.297,0.241 -0.084,0.613 -0.245,0.684 -0.01,0.004 0.375,0.04 0.405,0.467 0.009,0.121 -0.352,0.328 -0.191,0.553 0.134,0.186 0.623,0.088 0.858,0.291 0.218,0.189 0.161,0.597 -0.116,1.005"
             style="fill:#082242;fill-opacity:1;fill-rule:nonzero;stroke:none"
             id="path988"
             inkscape:connector-curvature="0" />
        </g>
        <g
           id="g990"
           transform="translate(494.3976,111.5393)">
          <path
             d="M 0,0 C 0.224,0.711 0.176,1.198 0.162,1.628 0.147,2.058 0.166,2.43 0.527,2.91 0.885,3.385 1.166,3.582 1.512,3.755 1.858,3.929 2.267,4.081 2.888,4.464 3.397,4.778 3.791,5.067 4.217,5.311 4.642,5.555 5.098,5.753 5.735,5.885 6.521,6.049 7.106,6.09 7.606,6.075 8.105,6.06 8.519,5.988 8.964,5.924 9.409,5.86 9.885,5.804 10.508,5.821 11.673,5.853 12.15,5.481 12.332,5.1 12.515,4.72 12.406,4.331 12.406,4.331 11.991,4.212 11.52,4.072 11.004,3.908 10.487,3.744 9.924,3.555 9.326,3.338 8.728,3.121 8.093,2.874 7.433,2.595 6.773,2.316 6.086,2.004 5.383,1.654 4.208,1.068 3.327,0.548 2.663,0.102 1.998,-0.344 1.552,-0.716 1.247,-1.006 0.941,-1.296 0.777,-1.503 0.682,-1.62 0.682,-1.62 -0.286,-0.909 0,0 M 15.304,-2.844 C 15.017,-3.108 14.422,-2.963 14.26,-3.174 14.064,-3.428 14.504,-3.665 14.495,-3.803 14.46,-4.287 13.988,-4.327 14,-4.332 c 0.196,-0.08 0.665,-0.504 0.305,-0.777 -0.575,-0.434 -0.075,-0.663 -0.052,-1.24 0.017,-0.443 -0.142,-0.742 -0.609,-0.939 -0.467,-0.197 -1.244,-0.292 -2.472,-0.334 -0.465,-0.015 0.005,-0.293 -0.536,-1.555 -0.474,-1.107 0.659,-1.693 0.001,-1.884 -0.662,-0.193 -1.242,-0.221 -1.812,-0.104 -0.569,0.117 -1.128,0.379 -1.742,0.764 -0.615,0.385 -1.287,0.894 -2.086,1.506 -0.383,0.294 -0.992,0.563 -1.532,0.81 -0.541,0.248 -1.016,0.473 -1.135,0.678 -0.119,0.204 0.206,0.568 0.387,1.099 0.18,0.532 0.18,1.666 -0.483,2.107 -0.151,0.101 -0.686,0.144 -0.964,0.354 -0.277,0.21 -0.4,0.564 -0.033,1.216 0,0 0.24,0.123 0.694,0.329 0.454,0.206 1.122,0.495 1.979,0.826 0.857,0.332 1.902,0.704 3.111,1.079 0.907,0.281 1.809,0.516 2.652,0.709 0.842,0.194 1.624,0.347 2.294,0.465 0.669,0.117 1.225,0.2 1.614,0.253 0.388,0.053 0.609,0.077 0.609,0.077 0.077,-0.337 0.102,-0.631 0.022,-0.795 -0.248,-0.51 0.278,-0.992 0.372,-1.205 0.094,-0.213 0.511,-0.718 0.574,-0.81 0.315,-0.457 0.448,-0.928 0.146,-1.141"
             style="fill:#082242;fill-opacity:1;fill-rule:nonzero;stroke:none"
             id="path992"
             inkscape:connector-curvature="0" />
        </g>
        <g
           id="g994"
           transform="translate(467.5208,79.1653)">
          <path
             d="m 0,0 c 0.069,0.103 0.188,0.286 0.417,0.541 0.229,0.255 0.569,0.584 1.08,0.977 0.512,0.393 1.195,0.851 2.116,1.367 0.55,0.308 1.09,0.583 1.611,0.829 0.522,0.247 1.023,0.463 1.498,0.655 0.474,0.191 0.922,0.357 1.334,0.502 0.411,0.145 0.787,0.266 1.118,0.372 0,0 0.062,0.343 -0.115,0.678 C 8.882,6.256 8.466,6.585 7.513,6.556 6.75,6.533 6.245,6.656 5.694,6.729 5.143,6.803 4.544,6.829 3.596,6.614 3.085,6.497 2.724,6.322 2.393,6.107 2.062,5.892 1.76,5.637 1.367,5.361 0.885,5.023 0.559,4.889 0.289,4.736 0.018,4.583 -0.197,4.41 -0.456,3.991 -0.717,3.569 -0.706,3.242 -0.663,2.863 -0.62,2.484 -0.545,2.054 -0.676,1.427 -0.845,0.626 0,0 0,0 m 11.857,-0.072 c -0.057,0.084 -0.436,0.526 -0.528,0.714 -0.092,0.187 -0.558,0.611 -0.39,1.061 0.054,0.144 0.012,0.403 -0.074,0.7 -10e-4,0 -0.319,-0.038 -0.852,-0.124 C 9.48,2.193 8.734,2.058 7.88,1.862 7.026,1.666 6.064,1.408 5.101,1.078 4.138,0.748 3.309,0.42 2.631,0.128 1.953,-0.164 1.428,-0.418 1.071,-0.599 0.715,-0.781 0.527,-0.89 0.527,-0.89 0.274,-1.464 0.4,-1.775 0.642,-1.96 0.884,-2.145 1.328,-2.184 1.457,-2.271 2.063,-2.675 2.112,-3.66 2.003,-4.128 1.893,-4.597 1.656,-4.916 1.768,-5.097 1.88,-5.277 2.285,-5.475 2.745,-5.693 3.205,-5.91 3.72,-6.148 4.055,-6.408 4.752,-6.947 5.338,-7.395 5.868,-7.734 6.398,-8.073 6.873,-8.303 7.346,-8.407 7.82,-8.51 8.293,-8.486 8.82,-8.316 c 0.525,0.169 -0.444,0.684 -0.135,1.661 0.353,1.111 -0.05,1.355 0.329,1.368 1.001,0.037 1.63,0.121 1.998,0.295 0.368,0.173 0.476,0.436 0.431,0.827 -0.059,0.509 -0.481,0.714 -0.046,1.093 0.276,0.239 -0.136,0.613 -0.303,0.684 -0.01,0.004 0.373,0.04 0.367,0.467 -0.002,0.121 -0.379,0.328 -0.236,0.553 0.117,0.185 0.615,0.09 0.831,0.291 0.202,0.188 0.113,0.597 -0.199,1.005"
             style="fill:#082242;fill-opacity:1;fill-rule:nonzero;stroke:none"
             id="path996"
             inkscape:connector-curvature="0" />
        </g>
        <g
           id="g998"
           transform="translate(463.9973,111.5393)">
          <path
             d="M 0,0 C 0.164,0.711 0.076,1.198 0.025,1.628 -0.026,2.058 -0.038,2.43 0.282,2.909 0.6,3.385 0.864,3.581 1.195,3.755 1.526,3.929 1.924,4.08 2.513,4.464 2.995,4.778 3.364,5.067 3.769,5.311 4.174,5.555 4.614,5.753 5.239,5.885 6.011,6.049 6.594,6.09 7.095,6.075 7.596,6.06 8.016,5.987 8.466,5.923 8.917,5.859 9.397,5.803 10.018,5.82 11.181,5.853 11.687,5.481 11.902,5.1 12.116,4.72 12.041,4.331 12.041,4.331 11.636,4.211 11.177,4.071 10.674,3.907 10.172,3.743 9.625,3.554 9.045,3.337 8.465,3.12 7.852,2.874 7.215,2.595 6.578,2.315 5.918,2.003 5.244,1.653 4.119,1.068 3.281,0.548 2.655,0.102 2.028,-0.344 1.612,-0.716 1.331,-1.006 1.05,-1.296 0.905,-1.504 0.819,-1.621 0.819,-1.621 -0.21,-0.909 0,0 m 15.545,-2.844 c -0.264,-0.264 -0.874,-0.121 -1.018,-0.331 -0.173,-0.253 0.286,-0.49 0.288,-0.628 0.006,-0.484 -0.462,-0.524 -0.449,-0.529 0.202,-0.079 0.704,-0.505 0.368,-0.777 -0.536,-0.432 -0.018,-0.663 0.053,-1.24 0.054,-0.444 -0.078,-0.742 -0.528,-0.939 -0.45,-0.197 -1.219,-0.292 -2.444,-0.334 -0.463,-0.015 0.027,-0.294 -0.407,-1.555 -0.381,-1.107 0.803,-1.693 0.161,-1.884 -0.645,-0.193 -1.224,-0.221 -1.804,-0.104 -0.579,0.117 -1.159,0.378 -1.806,0.763 -0.648,0.386 -1.363,0.895 -2.213,1.507 -0.409,0.294 -1.038,0.563 -1.599,0.81 -0.562,0.248 -1.056,0.473 -1.192,0.678 -0.136,0.204 0.157,0.568 0.293,1.099 0.136,0.532 0.062,1.654 -0.659,2.107 -0.162,0.103 -0.699,0.144 -0.994,0.354 -0.295,0.21 -0.448,0.563 -0.136,1.215 0,0 0.229,0.124 0.666,0.33 0.437,0.206 1.08,0.495 1.909,0.826 0.829,0.331 1.843,0.704 3.021,1.079 0.883,0.281 1.765,0.516 2.591,0.709 0.826,0.194 1.596,0.347 2.256,0.465 0.659,0.117 1.208,0.199 1.592,0.252 0.384,0.053 0.603,0.078 0.603,0.078 0.105,-0.337 0.155,-0.631 0.089,-0.795 -0.206,-0.51 0.361,-0.992 0.473,-1.205 0.113,-0.213 0.573,-0.719 0.643,-0.81 0.356,-0.459 0.528,-0.928 0.243,-1.141"
             style="fill:#082242;fill-opacity:1;fill-rule:nonzero;stroke:none"
             id="path1000"
             inkscape:connector-curvature="0" />
        </g>
        <g
           id="g1002"
           transform="translate(460.3334,136.7626)">
          <path
             d="M 0,0 C -0.38,-0.089 -0.741,-0.219 -1.082,-0.392 -1.423,-0.565 -1.746,-0.78 -2.052,-1.037 -2.357,-1.294 -2.646,-1.593 -2.918,-1.933 -3.189,-2.274 -3.427,-2.632 -3.63,-3.006 -3.833,-3.38 -4,-3.771 -4.135,-4.177 -4.269,-4.582 -4.368,-5.004 -4.432,-5.44 c -0.063,-0.428 -0.11,-0.749 -0.157,-1.07 -0.047,-0.321 -0.094,-0.642 -0.157,-1.07 -0.064,-0.438 -0.083,-0.837 -0.057,-1.197 0.027,-0.359 0.1,-0.68 0.22,-0.961 0.12,-0.282 0.287,-0.523 0.501,-0.727 0.215,-0.203 0.463,-0.353 0.745,-0.449 0.282,-0.097 0.598,-0.142 0.946,-0.134 0.349,0.007 0.731,0.066 1.145,0.175 0.413,0.108 0.801,0.243 1.163,0.406 0.363,0.162 0.7,0.352 1.011,0.57 0.311,0.218 0.596,0.465 0.855,0.739 0.258,0.275 0.479,0.564 0.663,0.87 0.183,0.306 0.328,0.629 0.437,0.967 0.108,0.339 0.179,0.695 0.213,1.068 -0.004,0.016 -0.006,0.024 -0.01,0.04 -0.401,-0.085 -0.7,-0.152 -1,-0.218 C 1.787,-6.498 1.488,-6.566 1.09,-6.658 1.05,-7.008 0.977,-7.322 0.869,-7.604 0.762,-7.885 0.621,-8.133 0.446,-8.347 0.271,-8.562 0.06,-8.743 -0.189,-8.891 -0.437,-9.039 -0.723,-9.154 -1.044,-9.237 -1.367,-9.32 -1.648,-9.332 -1.887,-9.27 c -0.239,0.061 -0.435,0.195 -0.589,0.404 -0.153,0.208 -0.253,0.467 -0.302,0.775 -0.048,0.309 -0.045,0.668 0.01,1.076 0.058,0.426 0.101,0.746 0.144,1.066 0.043,0.32 0.085,0.641 0.143,1.067 0.054,0.404 0.146,0.783 0.277,1.137 0.13,0.354 0.299,0.683 0.505,0.986 0.206,0.304 0.432,0.549 0.681,0.736 0.249,0.187 0.521,0.316 0.815,0.386 0.328,0.078 0.608,0.098 0.841,0.061 0.232,-0.036 0.417,-0.13 0.552,-0.279 0.136,-0.15 0.228,-0.348 0.277,-0.596 0.048,-0.247 0.052,-0.545 0.013,-0.891 0.392,0.088 0.688,0.152 0.984,0.216 0.296,0.063 0.593,0.125 0.99,0.206 0.007,0.019 0.011,0.028 0.018,0.046 0.071,0.573 0.045,1.068 -0.078,1.484 -0.122,0.417 -0.34,0.756 -0.651,1.016 C 2.536,-0.2 2.296,-0.07 2.023,0.016 1.75,0.103 1.445,0.145 1.108,0.143 0.77,0.141 0.401,0.093 0,0 m 8.973,1.548 c 0.317,0.047 0.635,0.093 1.059,0.152 0.132,-0.487 0.257,-0.944 0.377,-1.377 0.12,-0.433 0.234,-0.843 0.344,-1.238 0.111,-0.395 0.218,-0.775 0.324,-1.147 0.105,-0.372 0.209,-0.736 0.313,-1.1 0.105,-0.364 0.21,-0.728 0.318,-1.099 0.108,-0.372 0.218,-0.751 0.334,-1.144 0.116,-0.394 0.237,-0.804 0.366,-1.235 0.128,-0.432 0.265,-0.886 0.412,-1.37 -0.438,-0.055 -0.766,-0.098 -1.093,-0.143 -0.327,-0.044 -0.654,-0.09 -1.089,-0.154 -0.109,0.419 -0.191,0.733 -0.272,1.047 -0.081,0.314 -0.162,0.629 -0.269,1.048 C 9.599,-6.287 9.186,-6.351 8.8,-6.413 8.415,-6.475 8.057,-6.535 7.673,-6.6 7.289,-6.666 6.879,-6.739 6.387,-6.829 6.201,-7.3 6.062,-7.655 5.922,-8.009 5.782,-8.364 5.642,-8.719 5.454,-9.193 5.026,-9.277 4.706,-9.342 4.386,-9.408 4.067,-9.474 3.748,-9.54 3.323,-9.632 c 0.209,0.497 0.405,0.966 0.592,1.412 0.188,0.447 0.366,0.872 0.537,1.28 0.171,0.409 0.335,0.8 0.495,1.183 0.159,0.383 0.315,0.756 0.469,1.125 0.154,0.37 0.307,0.735 0.46,1.104 0.153,0.368 0.308,0.738 0.465,1.117 0.158,0.379 0.319,0.767 0.486,1.169 0.167,0.402 0.34,0.818 0.521,1.254 0.181,0.437 0.37,0.893 0.57,1.375 0.421,0.066 0.738,0.114 1.055,0.161 m -0.59,-6.439 c 0.397,0.065 0.795,0.128 1.328,0.208 -0.128,0.51 -0.233,0.935 -0.331,1.332 -0.098,0.397 -0.189,0.766 -0.285,1.163 -0.097,0.397 -0.2,0.823 -0.322,1.335 C 8.756,-0.856 8.747,-0.857 8.73,-0.86 8.565,-1.283 8.419,-1.654 8.284,-1.999 8.149,-2.343 8.024,-2.662 7.899,-2.981 7.774,-3.3 7.648,-3.62 7.512,-3.966 7.376,-4.313 7.229,-4.687 7.06,-5.114 c 0.528,0.092 0.925,0.158 1.323,0.223 m 9.903,1.189 c 0.382,0.028 0.667,0.048 0.954,0.067 0.286,0.019 0.572,0.037 0.954,0.059 -0.017,-0.372 -0.029,-0.65 -0.042,-0.929 -0.013,-0.278 -0.025,-0.557 -0.043,-0.928 -0.166,-0.151 -0.405,-0.285 -0.72,-0.401 -0.313,-0.117 -0.725,-0.193 -1.233,-0.231 -0.359,-0.028 -0.677,0.006 -0.954,0.101 -0.278,0.095 -0.514,0.252 -0.709,0.472 -0.196,0.219 -0.335,0.48 -0.42,0.781 -0.084,0.302 -0.114,0.644 -0.089,1.027 0.028,0.424 0.049,0.742 0.07,1.06 0.02,0.318 0.041,0.636 0.069,1.06 0.024,0.377 0.096,0.723 0.215,1.039 0.12,0.317 0.286,0.603 0.498,0.859 0.214,0.255 0.453,0.453 0.72,0.592 0.267,0.14 0.561,0.221 0.884,0.244 0.305,0.021 0.571,0 0.799,-0.063 0.228,-0.063 0.418,-0.167 0.569,-0.313 0.303,-0.292 0.463,-0.704 0.477,-1.236 0.4,0.023 0.7,0.037 1,0.052 0.3,0.014 0.6,0.027 0.999,0.042 0.006,0.017 0.01,0.025 0.016,0.042 0.009,0.484 -0.068,0.918 -0.227,1.302 -0.16,0.384 -0.403,0.717 -0.729,1 C 21.127,2.184 20.876,2.337 20.591,2.454 20.306,2.571 19.987,2.652 19.633,2.697 19.28,2.742 18.892,2.75 18.469,2.721 18.062,2.693 17.677,2.622 17.313,2.508 16.95,2.395 16.608,2.238 16.288,2.04 15.968,1.842 15.669,1.603 15.392,1.321 15.114,1.039 14.877,0.735 14.681,0.41 14.486,0.084 14.332,-0.263 14.218,-0.63 c -0.113,-0.367 -0.185,-0.755 -0.214,-1.163 -0.031,-0.424 -0.055,-0.741 -0.078,-1.058 -0.023,-0.318 -0.047,-0.635 -0.078,-1.058 -0.03,-0.41 -0.012,-0.79 0.054,-1.138 0.066,-0.349 0.18,-0.666 0.343,-0.953 0.164,-0.287 0.376,-0.543 0.637,-0.77 0.261,-0.227 0.553,-0.408 0.877,-0.546 0.324,-0.137 0.678,-0.231 1.063,-0.281 0.385,-0.05 0.802,-0.058 1.248,-0.023 0.527,0.041 1.011,0.113 1.452,0.218 0.441,0.105 0.839,0.243 1.191,0.416 0.353,0.172 0.66,0.351 0.921,0.538 0.261,0.187 0.476,0.382 0.645,0.586 0.017,0.504 0.03,0.924 0.043,1.316 0.013,0.392 0.025,0.756 0.037,1.148 0.013,0.392 0.027,0.812 0.043,1.315 -0.538,-0.02 -0.988,-0.04 -1.407,-0.061 -0.419,-0.021 -0.808,-0.042 -1.226,-0.068 -0.419,-0.025 -0.868,-0.054 -1.406,-0.093 -0.015,-0.28 -0.027,-0.489 -0.039,-0.698 -0.011,-0.21 -0.022,-0.419 -0.038,-0.699 m 8.107,5.209 C 26.392,1.083 26.391,0.683 26.39,0.298 c 0,-0.385 -0.001,-0.755 -0.001,-1.12 -10e-4,-0.365 -0.002,-0.725 -0.002,-1.09 -0.001,-0.365 -0.001,-0.735 -0.002,-1.12 -0.001,-0.385 -0.001,-0.785 -0.002,-1.209 -10e-4,-0.424 -10e-4,-0.874 -0.002,-1.358 0.49,0.002 0.919,0 1.317,-0.004 0.397,-0.003 0.764,-0.009 1.13,-0.016 0.367,-0.007 0.733,-0.016 1.129,-0.028 0.397,-0.011 0.824,-0.026 1.311,-0.046 0.01,-0.31 0.019,-0.542 0.027,-0.775 0.008,-0.232 0.017,-0.465 0.028,-0.775 -0.476,0.02 -0.913,0.036 -1.324,0.048 -0.41,0.012 -0.796,0.022 -1.167,0.029 -0.372,0.007 -0.731,0.013 -1.09,0.016 -0.36,0.004 -0.72,0.005 -1.094,0.005 -0.373,0 -0.76,-0.002 -1.173,-0.006 -0.412,-0.004 -0.851,-0.011 -1.329,-0.022 0.009,0.501 0.018,0.971 0.027,1.416 0.008,0.446 0.017,0.869 0.025,1.275 0.008,0.407 0.015,0.798 0.023,1.181 0.007,0.384 0.015,0.759 0.022,1.135 0.007,0.375 0.014,0.751 0.022,1.134 0.007,0.384 0.014,0.775 0.022,1.182 0.008,0.407 0.016,0.829 0.025,1.275 0.009,0.446 0.018,0.915 0.027,1.416 0.413,0.008 0.722,0.013 1.03,0.016 0.309,0.004 0.617,0.006 1.026,0.007 C 26.394,2.381 26.393,1.931 26.393,1.507 m 6.34,-8.818 c 0.442,-0.024 0.773,-0.044 1.103,-0.066 0.331,-0.021 0.66,-0.044 1.1,-0.077 -0.028,0.503 -0.054,0.975 -0.079,1.423 -0.024,0.448 -0.048,0.872 -0.07,1.281 -0.023,0.409 -0.044,0.802 -0.066,1.187 -0.021,0.385 -0.042,0.762 -0.062,1.14 -0.021,0.377 -0.042,0.754 -0.063,1.139 -0.021,0.386 -0.043,0.778 -0.065,1.187 -0.023,0.409 -0.046,0.833 -0.071,1.281 -0.024,0.448 -0.051,0.92 -0.078,1.423 -0.419,0.027 -0.731,0.046 -1.045,0.064 -0.313,0.018 -0.627,0.035 -1.043,0.055 0.022,-0.502 0.042,-0.972 0.061,-1.419 0.02,-0.447 0.039,-0.871 0.057,-1.278 0.017,-0.408 0.035,-0.8 0.052,-1.184 0.016,-0.385 0.033,-0.761 0.049,-1.137 0.016,-0.377 0.033,-0.753 0.05,-1.138 0.017,-0.384 0.034,-0.776 0.052,-1.184 0.017,-0.407 0.036,-0.831 0.056,-1.278 0.019,-0.446 0.04,-0.917 0.062,-1.419 m 7.505,9.393 c 0.32,-0.036 0.641,-0.073 1.067,-0.126 0.196,-0.472 0.382,-0.918 0.559,-1.345 0.177,-0.427 0.346,-0.834 0.51,-1.227 0.163,-0.393 0.322,-0.772 0.476,-1.143 0.155,-0.371 0.305,-0.733 0.456,-1.093 0.15,-0.36 0.299,-0.717 0.45,-1.078 0.151,-0.361 0.304,-0.726 0.461,-1.099 0.156,-0.374 0.318,-0.757 0.485,-1.156 0.168,-0.399 0.342,-0.813 0.525,-1.249 0.183,-0.436 0.375,-0.893 0.58,-1.379 -0.431,0.076 -0.754,0.131 -1.078,0.184 -0.324,0.054 -0.649,0.107 -1.082,0.174 -0.184,0.464 -0.322,0.811 -0.459,1.158 -0.137,0.346 -0.274,0.693 -0.456,1.154 -0.498,0.072 -0.914,0.129 -1.303,0.181 -0.389,0.051 -0.751,0.097 -1.141,0.144 -0.39,0.048 -0.807,0.098 -1.31,0.153 -0.115,-0.42 -0.202,-0.736 -0.289,-1.051 -0.087,-0.315 -0.174,-0.631 -0.292,-1.051 -0.44,0.047 -0.771,0.08 -1.101,0.112 -0.331,0.032 -0.663,0.062 -1.106,0.101 0.158,0.487 0.304,0.944 0.442,1.378 0.138,0.434 0.267,0.846 0.391,1.242 0.124,0.396 0.242,0.777 0.357,1.15 0.116,0.374 0.228,0.739 0.339,1.105 0.112,0.366 0.223,0.731 0.335,1.104 0.113,0.374 0.227,0.755 0.345,1.151 0.118,0.397 0.24,0.808 0.367,1.243 0.128,0.434 0.261,0.892 0.402,1.38 0.428,-0.045 0.749,-0.08 1.07,-0.117 m 0.495,-6.372 c 0.402,-0.05 0.804,-0.102 1.339,-0.175 -0.165,0.419 -0.308,0.784 -0.441,1.123 -0.133,0.339 -0.255,0.652 -0.377,0.964 -0.122,0.313 -0.244,0.625 -0.376,0.963 -0.132,0.337 -0.274,0.7 -0.435,1.115 -0.018,0.002 -0.025,0.003 -0.043,0.005 -0.132,-0.512 -0.243,-0.938 -0.348,-1.336 -0.104,-0.398 -0.2,-0.767 -0.306,-1.165 -0.105,-0.397 -0.219,-0.823 -0.356,-1.335 0.538,-0.06 0.941,-0.109 1.343,-0.159 m 13.184,0.709 c -0.043,0.339 -0.118,0.664 -0.227,0.977 -0.11,0.311 -0.252,0.61 -0.427,0.894 -0.175,0.285 -0.384,0.555 -0.625,0.811 -0.241,0.255 -0.504,0.482 -0.791,0.678 -0.287,0.197 -0.599,0.363 -0.933,0.499 -0.334,0.137 -0.692,0.243 -1.075,0.319 -0.531,0.106 -0.977,0.19 -1.394,0.267 -0.417,0.077 -0.806,0.147 -1.226,0.22 -0.42,0.072 -0.871,0.149 -1.414,0.236 0.05,-0.515 0.097,-0.999 0.141,-1.458 0.044,-0.459 0.085,-0.894 0.126,-1.313 0.04,-0.419 0.079,-0.822 0.117,-1.217 0.038,-0.395 0.076,-0.781 0.113,-1.168 0.037,-0.387 0.074,-0.774 0.112,-1.168 0.038,-0.395 0.077,-0.798 0.117,-1.217 0.041,-0.419 0.083,-0.854 0.127,-1.313 0.044,-0.459 0.09,-0.943 0.14,-1.458 0.425,-0.079 0.743,-0.14 1.061,-0.203 0.317,-0.062 0.635,-0.125 1.057,-0.212 -0.051,0.501 -0.095,0.92 -0.134,1.31 -0.041,0.391 -0.079,0.753 -0.119,1.144 -0.04,0.39 -0.083,0.808 -0.135,1.31 0.358,-0.07 0.626,-0.124 0.893,-0.179 0.268,-0.055 0.535,-0.111 0.891,-0.187 0.242,-0.421 0.454,-0.792 0.652,-1.136 0.198,-0.345 0.381,-0.664 0.564,-0.984 0.183,-0.32 0.366,-0.64 0.566,-0.988 0.199,-0.348 0.416,-0.724 0.662,-1.155 0.417,-0.101 0.728,-0.18 1.039,-0.259 0.311,-0.079 0.622,-0.159 1.035,-0.269 -0.267,0.468 -0.499,0.876 -0.713,1.253 -0.215,0.378 -0.413,0.726 -0.61,1.072 -0.198,0.347 -0.393,0.692 -0.606,1.066 -0.212,0.373 -0.44,0.775 -0.7,1.232 0.408,0.053 0.753,0.182 1.031,0.395 0.295,0.226 0.499,0.523 0.612,0.889 0.114,0.367 0.137,0.805 0.073,1.312 m -2.285,-0.672 c -0.255,-0.255 -0.667,-0.318 -1.238,-0.197 -0.404,0.086 -0.708,0.149 -1.013,0.21 -0.304,0.062 -0.609,0.122 -1.017,0.201 -0.047,0.454 -0.087,0.833 -0.123,1.187 -0.037,0.353 -0.07,0.681 -0.107,1.035 -0.036,0.353 -0.075,0.732 -0.122,1.186 0.403,-0.074 0.705,-0.131 1.005,-0.189 0.301,-0.058 0.601,-0.117 0.999,-0.198 0.284,-0.057 0.536,-0.15 0.758,-0.277 0.222,-0.127 0.415,-0.288 0.577,-0.484 0.162,-0.195 0.291,-0.406 0.387,-0.631 0.096,-0.225 0.159,-0.463 0.189,-0.716 0.058,-0.497 -0.04,-0.872 -0.295,-1.127 m 4.354,3.438 c 0.285,-0.076 0.569,-0.152 0.945,-0.255 0.079,-0.539 0.154,-1.044 0.224,-1.524 0.071,-0.48 0.137,-0.934 0.201,-1.372 0.065,-0.438 0.127,-0.859 0.188,-1.272 0.061,-0.412 0.12,-0.817 0.18,-1.221 0.059,-0.404 0.119,-0.808 0.179,-1.221 0.061,-0.412 0.123,-0.833 0.188,-1.271 0.064,-0.438 0.13,-0.892 0.201,-1.372 0.071,-0.48 0.145,-0.985 0.225,-1.524 -0.407,0.123 -0.714,0.214 -1.02,0.304 -0.307,0.09 -0.614,0.178 -1.025,0.294 -0.072,0.534 -0.139,1.034 -0.203,1.51 -0.064,0.476 -0.125,0.926 -0.183,1.36 -0.059,0.434 -0.116,0.851 -0.171,1.26 -0.055,0.409 -0.109,0.809 -0.163,1.21 -0.054,0.4 -0.107,0.801 -0.162,1.21 -0.056,0.409 -0.112,0.826 -0.171,1.26 -0.058,0.434 -0.119,0.884 -0.183,1.36 -0.064,0.475 -0.132,0.976 -0.204,1.51 0.384,-0.097 0.67,-0.171 0.954,-0.246"
             style="fill:#ffffff;fill-opacity:1;fill-rule:nonzero;stroke:none"
             id="path1004"
             inkscape:connector-curvature="0" />
        </g>
        <g
           id="g1006"
           transform="translate(515.0054,97.4052)">
          <path
             d="m 0,0 c -7.475,-0.553 -15.979,-1.009 -25.038,-1.096 0.087,7.825 0.134,16.097 0.134,24.655 0,0.348 0,0.694 -0.001,1.041 -1.08,0.035 -2.164,0.057 -3.254,0.057 -1.185,0 -2.365,-0.024 -3.541,-0.066 0,-0.344 0,-0.687 0,-1.032 0,-8.557 0.047,-16.827 0.134,-24.652 -9.008,0.096 -17.459,0.553 -24.888,1.105 0.356,-1.881 0.784,-3.737 1.284,-5.563 7.134,-0.918 15.161,-1.582 23.683,-1.722 0.199,-13.913 0.53,-26.164 0.952,-35.744 0.759,-0.611 1.526,-1.212 2.309,-1.792 0.729,0.54 1.443,1.098 2.151,1.664 0.425,9.598 0.757,21.894 0.958,35.867 8.573,0.128 16.65,0.788 23.83,1.706 0.501,1.83 0.93,3.688 1.287,5.572"
             style="fill:#b01028;fill-opacity:1;fill-rule:nonzero;stroke:none"
             id="path1008"
             inkscape:connector-curvature="0" />
        </g>
      </g>
    </g>
  </g>
</svg>
