<?xml version="1.0" encoding="utf-8"?>
<!-- Generator: Adobe Illustrator 15.1.0, SVG Export Plug-In . SVG Version: 6.00 Build 0)  -->
<!DOCTYPE svg PUBLIC "-//W3C//DTD SVG 1.1//EN" "http://www.w3.org/Graphics/SVG/1.1/DTD/svg11.dtd">
<svg version="1.1" id="Layer_1" xmlns="http://www.w3.org/2000/svg" xmlns:xlink="http://www.w3.org/1999/xlink" x="0px" y="0px"
	 width="590.432px" height="535.328px" viewBox="0 0 590.432 535.328" enable-background="new 0 0 590.432 535.328"
	 xml:space="preserve">
<path fill-rule="evenodd" clip-rule="evenodd" fill="#FFFFFF" d="M216.81,382.763c-37.634-8.78-67.265-18.696-101.974-33.071
	l17.91,46.545l-47.681,21.375c17.222,10.346,40.692,19.607,70.268,27.81l17.281-45.226l1.179-3.084l3.131,1.03
	c15.112,4.976,30.219,8.993,45.321,12.052l0.28-18.32C222.581,388.288,220.301,383.577,216.81,382.763L216.81,382.763z
	 M295.216,382.977L64.114,50.793h462.204L295.216,382.977L295.216,382.977z M152.905,461.456l22.939-60.031
	c78.902,26.084,157.805,25.977,236.707,0l22.939,60.031C344.498,496.69,250.404,497.804,152.905,461.456L152.905,461.456z
	 M371.585,382.763c-3.491,0.814-5.771,5.525-5.717,9.11l0.281,18.32c15.102-3.059,30.209-7.076,45.321-12.052l3.131-1.03
	l1.179,3.084l17.281,45.226c29.575-8.202,53.047-17.464,70.269-27.81l-47.682-21.375l17.91-46.545
	C438.849,364.066,409.219,373.982,371.585,382.763z"/>
<path fill-rule="evenodd" clip-rule="evenodd" fill="#00499E" d="M252.719,164.936v-9.038l-18.323-27.941
	c12.372-5.129,20.626-1.748,23.305,10.494c1.109,5.072,2.252,6.337,5.125,3.782c1.917-1.705,3.288-4.104,3.904-7.442
	c2.93,5.392,6.483,9.38,10.494,12.202c2.077,1.461,3.2,0.645,3.538-2.685c-6.617-7.106-5.396-15.769,6.955-15.74
	c-1.202-6.097,1.298-9.106,7.5-9.029c6.201-0.077,8.701,2.933,7.499,9.029c12.352-0.029,13.571,8.634,6.955,15.74
	c0.338,3.33,1.461,4.146,3.538,2.685c4.011-2.822,7.563-6.81,10.493-12.202c0.616,3.338,1.988,5.737,3.905,7.442
	c2.872,2.556,4.015,1.291,5.124-3.782c2.678-12.241,10.934-15.623,23.305-10.494l-18.323,27.941v9.038
	c-12.259-7.874-26.844-12.441-42.496-12.441S264.978,157.062,252.719,164.936z"/>
<path fill-rule="evenodd" clip-rule="evenodd" fill="#00499E" d="M337.712,180.547v101.38c-8.069,6.772-17.779,11.653-28.448,13.96
	v-129.3C319.933,168.894,329.643,173.774,337.712,180.547z"/>
<path fill-rule="evenodd" clip-rule="evenodd" fill="#00499E" d="M252.719,281.927v-101.38c8.069-6.772,17.78-11.653,28.448-13.96
	v129.3C270.499,293.58,260.789,288.699,252.719,281.927z"/>
<path fill-rule="evenodd" clip-rule="evenodd" d="M312.138,145.529c0.011,0.046,0.02,0.072,0.027,0.078
	C312.31,145.716,312.244,145.647,312.138,145.529z"/>
<path fill-rule="evenodd" clip-rule="evenodd" d="M278.293,145.53c-0.106,0.118-0.172,0.187-0.027,0.078
	C278.274,145.602,278.283,145.576,278.293,145.53z"/>
<path fill-rule="evenodd" clip-rule="evenodd" d="M300.003,165.263l-4.373,0.814l-0.414,0.077l-0.415-0.077l-4.373-0.814
	c1.582-0.114,3.178-0.172,4.788-0.172C296.825,165.091,298.422,165.15,300.003,165.263z"/>
<path fill-rule="evenodd" clip-rule="evenodd" fill="#755A27" d="M219.383,409.603l0.22-14.377
	c-4.262,1.367-13.175,0.428-26.678-3.074c-10.711-2.777-16.368-1.071-17.108,5.626l1.107,0.364
	C191.083,402.801,205.234,406.624,219.383,409.603L219.383,409.603z M369.012,409.603l-0.221-14.377
	c4.263,1.367,13.176,0.428,26.679-3.074c10.71-2.777,16.367-1.071,17.107,5.626l-1.106,0.364
	C397.312,402.801,383.161,406.624,369.012,409.603z"/>
<path fill-rule="evenodd" clip-rule="evenodd" fill="#009A3C" d="M486.505,228.569c-16.509-1.138-26.839,1.302-30.991,7.321
	C466.214,239.439,476.545,237,486.505,228.569z"/>
<path fill-rule="evenodd" clip-rule="evenodd" fill="#009A3C" d="M484.957,189.037c-10.788,3.894-17.133,9.304-19.034,16.228
	C476.32,204.157,482.665,198.748,484.957,189.037L484.957,189.037z M335.978,327.889c-8.586,15.209-10.945,26.027-7.077,32.456
	C337.579,352.49,339.938,341.672,335.978,327.889L335.978,327.889z M370.874,362.053c-12.363,10.667-24.85,12.701-37.459,6.101
	C338.363,360.941,350.85,358.908,370.874,362.053L370.874,362.053z M391.372,345.337c-20.461-2.976-32.947-0.78-37.459,6.589
	C367.92,358.193,380.406,355.997,391.372,345.337L391.372,345.337z M344.885,313.735c8.86,10.619,9.43,21.519,1.708,32.699
	C340.315,341.066,339.746,330.167,344.885,313.735L344.885,313.735z M359.648,298.483c-7.383,13.595-7.058,25.349,0.976,35.262
	C368.459,324.918,368.134,313.164,359.648,298.483L359.648,298.483z M368.555,283.964c11.935,10.367,15.474,21.877,10.615,34.53
	C368.89,312.224,365.352,300.713,368.555,283.964L368.555,283.964z M409.552,327.4c-12.091,12.151-24.455,14.998-37.092,8.541
	C378.254,328.248,390.618,325.401,409.552,327.4L409.552,327.4z M429.074,309.099c-19.041-2.248-31.201,0.762-36.482,9.029
	C405.036,324.38,417.196,321.37,429.074,309.099L429.074,309.099z M380.269,272.372c-1.509,17.483,3.088,28.22,13.788,32.212
	C397.268,293.131,392.672,282.394,380.269,272.372L380.269,272.372z M390.64,258.463c13.353,12.948,18.233,24.621,14.642,35.018
	C394.18,288.125,389.299,276.453,390.64,258.463L390.64,258.463z M446.645,290.431c-18.226-1.758-30.671,1.496-37.337,9.761
	C422.715,306.425,435.16,303.171,446.645,290.431L446.645,290.431z M463.238,272.007c-19.613-1.566-32.059,1.891-37.336,10.371
	C439.661,287.567,452.106,284.11,463.238,272.007L463.238,272.007z M402.109,247.115c-1.722,18.077,3.362,29.343,15.252,33.798
	C420.373,270.348,415.289,259.082,402.109,247.115L402.109,247.115z M413.578,234.914c13.082,15.196,17.108,27.112,12.08,35.75
	C414.912,264.465,410.886,252.549,413.578,234.914L413.578,234.914z M421.998,224.787c-0.483,17.235,4.805,27.525,15.861,30.87
	C440.568,247.01,435.281,236.72,421.998,224.787L421.998,224.787z M474.83,254.192c-11.03,13.184-22.744,16.926-35.141,11.225
	C443.636,257.916,455.35,254.174,474.83,254.192L474.83,254.192z M482.395,239.063c-18.793-0.207-29.651,3.332-32.578,10.615
	C463.057,253.534,473.916,249.996,482.395,239.063L482.395,239.063z M430.66,215.27c1.281,16.916,6.122,26.108,14.521,27.575
	C447.045,235.813,442.205,226.621,430.66,215.27L430.66,215.27z M450.427,230.277c-9.662-4.256-13.688-12.391-12.079-24.403
	C447.822,214.866,451.849,223,450.427,230.277L450.427,230.277z M486.543,217.222c-13.18-0.05-21.884,2.39-26.11,7.321
	C471.812,227.416,480.516,224.975,486.543,217.222L486.543,217.222z M484.713,202.092c-2.907,9.812-10.065,14.814-21.475,15.007
	C465.741,210.7,472.899,205.697,484.713,202.092L484.713,202.092z M444.57,193.795c7.934,8.677,10.943,17.34,9.028,25.989
	C444.341,215.46,441.331,206.797,444.57,193.795L444.57,193.795z M458.968,208.803c0.476-10.166-1.273-18.178-5.246-24.037
	C449.82,198.188,451.568,206.201,458.968,208.803L458.968,208.803z M468.607,178.177c2.52,11.47,0.404,17.896-6.345,19.278
	C458.269,190.24,460.384,183.814,468.607,178.177z"/>
<path fill-rule="evenodd" clip-rule="evenodd" fill="#BC9615" d="M485.539,229.052c-7.532-0.432-13.702-0.081-18.507,1.055
	c-4.648,1.098-7.999,2.926-10.051,5.481c4.983,1.52,9.884,1.711,14.701,0.574C476.372,235.054,480.991,232.684,485.539,229.052
	L485.539,229.052z M484.128,189.956c-4.847,1.842-8.729,4.008-11.646,6.495c-2.828,2.411-4.746,5.124-5.753,8.138
	c4.68-0.623,8.473-2.173,11.377-4.649C480.95,197.514,482.958,194.187,484.128,189.956L484.128,189.956z M271.499,408.488
	c-1.049,0.711-2.477,0.437-3.188-0.612c-0.711-1.05-0.437-2.478,0.612-3.188c67.698-45.853,117.236-86.882,148.626-123.091
	l-0.388-0.146c-6.096-2.284-10.447-6.314-13.055-12.093c-2.583-5.724-3.439-13.157-2.569-22.297l0.109-1.144l0.851,0.772
	c6.647,6.036,11.26,11.908,13.835,17.614c2.6,5.761,3.127,11.35,1.583,16.768l-0.043,0.149c7.488-8.665,13.933-17.053,19.338-25.164
	c-5.438-1.77-9.479-5.224-12.12-10.363v-0.002c-2.688-5.231-3.91-12.205-3.666-20.92l0.034-1.242l0.925,0.83
	c6.691,6.012,11.377,11.624,14.054,16.834c2.228,4.335,3.07,8.397,2.527,12.186c2.173-3.379,4.165-6.711,5.971-9.993
	c-4.314-0.802-7.712-3.558-10.192-8.267c-2.457-4.667-4.009-11.27-4.655-19.806l-0.116-1.527l1.093,1.074
	c5.815,5.718,9.947,10.901,12.395,15.549c2.113,4.016,2.979,7.646,2.599,10.891c6.059-11.434,9.854-22.266,11.4-32.5
	c-3.13-1.507-5.102-4.119-5.913-7.835c-0.895-4.098-0.353-9.551,1.626-16.357l0.341-1.174l0.686,1.012
	c2.029,2.993,3.49,6.527,4.38,10.604c0.082,0.38,0.16,0.766,0.234,1.156c0.415-0.484,1.028-0.793,1.716-0.802
	c0.047,0,0.094,0,0.141,0.003c-1.118-2.908-1.238-5.695-0.36-8.361c1.097-3.335,3.757-6.45,7.977-9.342l0.703-0.482l0.184,0.835
	c0.045,0.205,0.104,0.482,0.172,0.813c1.134,5.541,1.155,9.896,0.063,13.065c-1.095,3.181-3.28,5.174-6.557,5.979
	C463.302,251.587,399.521,321.778,271.499,408.488L271.499,408.488z M457.637,207.601c0.33-2.443,0.525-4.851,0.594-7.225
	c-0.17-1.783-0.43-3.479-0.78-5.085c-0.755-3.459-1.93-6.505-3.521-9.138c-1.64,6.043-2.06,10.899-1.259,14.567
	C453.371,203.932,455.027,206.226,457.637,207.601L457.637,207.601z M462.222,196.121c-1.449-3.068-1.724-5.974-0.821-8.716
	c0.956-2.904,3.231-5.656,6.825-8.255c1.081,5.307,1.112,9.445,0.091,12.411c-0.949,2.756-2.836,4.494-5.659,5.214
	C462.55,196.532,462.401,196.311,462.222,196.121L462.222,196.121z M471.733,195.577c3.226-2.749,7.568-5.11,13.03-7.081l0.998-0.36
	l-0.243,1.031c-1.176,4.978-3.397,8.86-6.666,11.646c-3.263,2.782-7.553,4.457-12.869,5.023l-0.838,0.089l0.224-0.812
	C466.352,201.536,468.474,198.357,471.733,195.577L471.733,195.577z M335.794,329.396c-3.87,7.025-6.358,13.07-7.462,18.134
	c-1.072,4.916-0.834,8.881,0.715,11.896c3.941-3.738,6.464-8.142,7.569-13.208C337.697,341.258,337.423,335.65,335.794,329.396
	L335.794,329.396z M327.206,347.288c-1.212,5.556-0.812,10.007,1.201,13.352l0.36,0.599l0.518-0.468
	c4.432-4.011,7.251-8.781,8.456-14.31c1.2-5.503,0.797-11.746-1.21-18.729l-0.379-1.319l-0.675,1.195
	C331.154,335.266,328.396,341.826,327.206,347.288L327.206,347.288z M369.536,362.43c-9.378-1.394-17.03-1.607-22.953-0.643
	c-5.767,0.938-9.869,2.993-12.309,6.162c5.991,3.006,11.948,4.026,17.87,3.062C357.959,370.064,363.756,367.203,369.536,362.43
	L369.536,362.43z M346.398,360.651c-6.405,1.043-10.892,3.437-13.459,7.178l-0.365,0.532l0.575,0.301
	c6.418,3.359,12.812,4.521,19.18,3.483c6.35-1.034,12.657-4.254,18.921-9.658l0.938-0.81l-1.226-0.192
	C360.889,359.903,352.7,359.625,346.398,360.651L346.398,360.651z M390.111,345.739c-9.624-1.324-17.407-1.465-23.351-0.42
	c-5.75,1.012-9.748,3.13-11.995,6.354c6.666,2.871,12.973,3.784,18.918,2.739C379.487,353.391,384.964,350.5,390.111,345.739
	L390.111,345.739z M366.563,344.185c-6.413,1.128-10.794,3.609-13.14,7.441l-0.342,0.557l0.598,0.268
	c7.112,3.183,13.848,4.215,20.203,3.097c6.358-1.118,12.323-4.385,17.891-9.798l0.837-0.813l-1.156-0.168
	C381.162,343.271,372.865,343.076,366.563,344.185L366.563,344.185z M345.118,314.935c-2.326,7.693-3.355,14.117-3.086,19.27
	c0.261,4.998,1.746,8.785,4.456,11.361c3.531-5.296,5.163-10.518,4.895-15.662C351.119,324.865,349.031,319.875,345.118,314.935
	L345.118,314.935z M340.884,334.263c0.293,5.615,2.072,9.818,5.335,12.609l0.484,0.414l0.362-0.524
	c3.936-5.697,5.757-11.337,5.466-16.916c-0.292-5.579-2.693-11.072-7.205-16.479l-0.677-0.811l-0.314,1.009
	C341.746,321.844,340.596,328.744,340.884,334.263L340.884,334.263z M359.665,299.676c-3.31,6.358-4.888,12.294-4.735,17.804
	c0.152,5.534,2.058,10.656,5.714,15.365c3.511-4.184,5.19-9.023,5.038-14.52C365.529,312.787,363.522,306.57,359.665,299.676
	L359.665,299.676z M353.781,317.511c0.166,6.007,2.299,11.54,6.397,16.597l0.425,0.525l0.451-0.507
	c4.017-4.526,5.942-9.805,5.775-15.832c-0.165-5.976-2.394-12.676-6.685-20.099l-0.513-0.888l-0.489,0.901
	C355.403,305.097,353.615,311.531,353.781,317.511L353.781,317.511z M368.938,285.07c-2.77,15.624,0.545,26.478,9.941,32.56
	C383.171,305.758,379.856,294.903,368.938,285.07L368.938,285.07z M378.871,318.984l0.588,0.358l0.247-0.645
	c4.954-12.903,1.362-24.626-10.775-35.169l-0.753-0.655l-0.188,0.981C364.736,300.866,368.363,312.576,378.871,318.984
	L378.871,318.984z M408.277,327.851c-8.858-0.851-16.216-0.602-22.07,0.746c-5.746,1.323-10.033,3.706-12.859,7.146
	c5.979,2.908,11.892,3.69,17.734,2.345C396.862,336.757,402.594,333.345,408.277,327.851L408.277,327.851z M385.95,327.476
	c-6.319,1.455-10.97,4.161-13.95,8.119l-0.411,0.547l0.609,0.312c6.444,3.292,12.824,4.211,19.141,2.757
	c6.29-1.448,12.497-5.25,18.621-11.404l0.847-0.851l-1.196-0.126C400.08,325.822,392.192,326.038,385.95,327.476L385.95,327.476z
	 M427.834,309.538c-8.92-0.966-16.262-0.735-22.023,0.69c-5.664,1.401-9.79,3.959-12.377,7.673c5.896,2.823,11.721,3.524,17.475,2.1
	C416.601,318.593,422.242,315.104,427.834,309.538L427.834,309.538z M405.536,309.111c-6.229,1.541-10.705,4.444-13.429,8.708
	l-0.342,0.535l0.569,0.286c6.349,3.19,12.632,4.016,18.848,2.478c6.188-1.531,12.289-5.404,18.304-11.619l0.81-0.836l-1.153-0.137
	C419.554,307.395,411.685,307.59,405.536,309.111L405.536,309.111z M380.756,273.517c-0.592,8.142,0.193,14.74,2.357,19.795
	c2.147,5.018,5.666,8.52,10.553,10.504c1.378-5.379,0.985-10.596-1.177-15.648C390.335,283.134,386.424,278.25,380.756,273.517
	L380.756,273.517z M382.055,293.763c2.362,5.519,6.297,9.306,11.801,11.359l0.586,0.219l0.169-0.602
	c1.642-5.856,1.288-11.531-1.063-17.023c-2.335-5.456-6.642-10.72-12.918-15.791l-0.842-0.681l-0.093,1.079
	C378.933,281.158,379.719,288.305,382.055,293.763L382.055,293.763z M391.131,259.75c-0.495,8.344,0.403,15.258,2.695,20.739
	c2.296,5.492,6.003,9.553,11.117,12.18c1.513-4.877,1.127-10.05-1.16-15.52C401.483,271.648,397.266,265.848,391.131,259.75
	L391.131,259.75z M392.763,280.931c2.497,5.971,6.587,10.327,12.269,13.068l0.582,0.28l0.211-0.611
	c1.844-5.337,1.518-10.991-0.978-16.96c-2.471-5.908-7.073-12.128-13.806-18.657l-0.884-0.856l-0.092,1.226
	C389.389,267.506,390.288,275.01,392.763,280.931L392.763,280.931z M445.435,290.897c-8.539-0.733-15.756-0.329-21.649,1.211
	c-5.807,1.519-10.323,4.142-13.551,7.871c6.335,2.797,12.441,3.428,18.318,1.891C434.382,300.347,440.01,296.688,445.435,290.897
	L445.435,290.897z M423.497,290.996c-6.346,1.659-11.226,4.604-14.637,8.835l-0.462,0.572l0.669,0.311
	c6.826,3.175,13.418,3.931,19.773,2.269c6.336-1.656,12.413-5.712,18.231-12.167l0.764-0.848l-1.138-0.109
	C437.519,288.974,429.784,289.353,423.497,290.996L423.497,290.996z M461.995,272.49c-9.196-0.646-16.746-0.15-22.647,1.488
	c-5.78,1.605-9.971,4.309-12.568,8.108c6.516,2.329,12.725,2.675,18.623,1.036C451.215,281.509,456.746,277.964,461.995,272.49
	L461.995,272.49z M439.041,272.871c-6.367,1.769-10.91,4.837-13.628,9.202l-0.37,0.595l0.656,0.247
	c6.996,2.64,13.666,3.078,20.01,1.315c6.329-1.758,12.313-5.703,17.953-11.835l0.8-0.87l-1.179-0.094
	C453.412,270.645,445.331,271.124,439.041,272.871L439.041,272.871z M402.579,248.33c-0.674,8.404,0.185,15.257,2.576,20.556
	c2.392,5.3,6.331,9.054,11.816,11.26c1.26-4.958,0.697-10.082-1.689-15.37C412.885,259.463,408.65,253.98,402.579,248.33
	L402.579,248.33z M413.966,236.258c-1.114,8.173-0.729,15.052,1.158,20.637c1.903,5.633,5.343,9.958,10.318,12.974
	c2.16-4.064,2.302-8.877,0.423-14.438C423.963,249.8,419.996,243.409,413.966,236.258L413.966,236.258z M414.034,257.26
	c2.06,6.096,5.839,10.729,11.338,13.901l0.495,0.286l0.288-0.495c2.602-4.468,2.868-9.764,0.8-15.886
	c-2.039-6.033-6.353-12.876-12.939-20.528l-0.817-0.949l-0.189,1.24C411.648,243.735,411.99,251.212,414.034,257.26L414.034,257.26z
	 M422.547,226.063c-0.092,7.93,1.096,14.299,3.564,19.104h0.001c2.479,4.826,6.267,8.08,11.359,9.762
	c1.086-4.025,0.4-8.43-2.057-13.214C432.93,236.88,428.641,231.662,422.547,226.063L422.547,226.063z M473.58,254.771
	c-9.1,0.069-16.424,0.989-21.973,2.762c-5.42,1.731-9.123,4.271-11.109,7.618c5.863,2.561,11.564,2.957,17.101,1.189
	C463.063,264.594,468.39,260.737,473.58,254.771L473.58,254.771z M451.261,256.438c-6.008,1.919-10.034,4.823-12.08,8.711
	l-0.282,0.537l0.553,0.254c6.331,2.912,12.497,3.41,18.494,1.494c5.966-1.905,11.741-6.196,17.326-12.872l0.788-0.942l-1.229-0.001
	C465.031,253.609,457.174,254.549,451.261,256.438L451.261,256.438z M481.207,239.629c-17.289-0.045-27.489,3.18-30.598,9.676
	C462.937,252.691,473.137,249.465,481.207,239.629L481.207,239.629z M449.283,249.464l-0.236,0.588l0.61,0.178
	c13.489,3.929,24.554,0.324,33.192-10.816l0.708-0.913l-1.158-0.013C463.346,238.279,452.307,241.938,449.283,249.464
	L449.283,249.464z M431.365,216.783c0.697,7.626,2.162,13.56,4.396,17.8c2.228,4.231,5.225,6.762,8.988,7.589
	c0.689-3.251-0.08-6.994-2.31-11.228C440.205,226.699,436.513,221.979,431.365,216.783L431.365,216.783z M450.195,230.804
	l0.659,0.291l0.138-0.707c0.735-3.765,0.068-7.74-2.003-11.924c-0.27-0.543-0.562-1.09-0.878-1.64
	c1.454,1.366,3.202,2.526,5.244,3.48l0.649,0.304l0.155-0.7c0.98-4.431,0.7-8.863-0.84-13.297
	c-1.529-4.404-4.306-8.806-8.326-13.204l-0.724-0.79l-0.259,1.04c-1.646,6.61-1.699,12.136-0.156,16.575
	c0.135,0.388,0.282,0.767,0.44,1.138c-1.582-1.93-3.433-3.901-5.552-5.913l-0.817-0.775l-0.149,1.117
	c-0.819,6.121-0.197,11.268,1.867,15.438C441.72,225.432,445.237,228.62,450.195,230.804L450.195,230.804z M440.676,220.73
	c1.856,3.75,4.959,6.654,9.309,8.712c0.47-3.3-0.205-6.79-2.026-10.469c-1.863-3.765-4.923-7.726-9.178-11.883
	C438.21,212.479,438.842,217.026,440.676,220.73L440.676,220.73z M485.33,217.799c-5.995,0.049-11.011,0.639-15.045,1.77
	c-3.811,1.068-6.731,2.617-8.763,4.645c5.2,1.191,9.807,1.225,13.816,0.101C479.21,223.228,482.541,221.056,485.33,217.799
	L485.33,217.799z M469.975,218.461c-4.463,1.251-7.79,3.154-9.979,5.708l-0.604,0.705l0.901,0.228
	c5.787,1.46,10.906,1.567,15.357,0.32c4.474-1.254,8.257-3.87,11.348-7.846l0.718-0.923l-1.173-0.004
	C479.899,216.623,474.375,217.227,469.975,218.461L469.975,218.461z M483.831,202.969c-1.452,4.264-3.784,7.518-6.996,9.763
	c-3.296,2.303-7.534,3.559-12.715,3.768c1.286-2.768,3.518-5.262,6.693-7.482C474.129,206.702,478.468,204.685,483.831,202.969
	L483.831,202.969z M470.155,208.077c3.629-2.536,8.426-4.714,14.392-6.535l1.021-0.312l-0.304,1.023
	c-1.491,5.034-4.083,8.84-7.772,11.419c-3.675,2.568-8.423,3.902-14.244,4l-0.857,0.015l0.312-0.798
	C463.996,213.583,466.48,210.646,470.155,208.077L470.155,208.077z M444.876,194.996c-1.342,5.919-1.32,10.873,0.065,14.859
	c1.379,3.971,4.128,7.001,8.244,9.089c0.752-3.98,0.436-7.965-0.951-11.955C450.85,203,448.396,199.002,444.876,194.996
	L444.876,194.996z M466.771,228.985c5.219-1.233,11.986-1.563,20.298-0.99l1.415,0.098l-1.081,0.916
	c-5.052,4.274-10.205,7.033-15.46,8.274c-5.268,1.244-10.629,0.961-16.084-0.848l-0.728-0.241l0.435-0.63
	C457.727,232.432,461.462,230.239,466.771,228.985z"/>
<path fill-rule="evenodd" clip-rule="evenodd" fill="#009A3C" d="M105.474,189.037c10.789,3.894,17.133,9.304,19.035,16.228
	C114.111,204.157,107.767,198.747,105.474,189.037L105.474,189.037z M104.892,229.052c7.533-0.432,13.702-0.081,18.508,1.055
	c4.648,1.098,7.998,2.925,10.05,5.481c-4.982,1.52-9.883,1.711-14.701,0.573C114.059,235.054,109.439,232.683,104.892,229.052
	L104.892,229.052z M254.454,327.889c8.585,15.209,10.944,26.027,7.077,32.456C252.852,352.49,250.493,341.672,254.454,327.889
	L254.454,327.889z M219.558,362.053c12.363,10.667,24.849,12.701,37.458,6.101C252.068,360.941,239.582,358.908,219.558,362.053
	L219.558,362.053z M199.059,345.337c20.461-2.976,32.947-0.78,37.458,6.589C222.511,358.193,210.025,355.997,199.059,345.337
	L199.059,345.337z M245.546,313.735c-8.86,10.619-9.43,21.519-1.708,32.699C250.115,341.066,250.685,330.167,245.546,313.735
	L245.546,313.735z M230.783,298.483c7.382,13.595,7.057,25.349-0.976,35.262C221.972,324.918,222.298,313.164,230.783,298.483
	L230.783,298.483z M221.876,283.964c-11.935,10.367-15.473,21.877-10.615,34.529C221.541,312.224,225.08,300.713,221.876,283.964
	L221.876,283.964z M180.879,327.401c12.091,12.15,24.455,14.997,37.093,8.54C212.178,328.248,199.813,325.401,180.879,327.401
	L180.879,327.401z M161.356,309.099c19.041-2.248,31.202,0.762,36.482,9.029C185.395,324.38,173.234,321.37,161.356,309.099
	L161.356,309.099z M210.162,272.373c1.509,17.481-3.087,28.219-13.787,32.211C193.163,293.131,197.759,282.395,210.162,272.373
	L210.162,272.373z M199.792,258.463c-13.353,12.948-18.233,24.621-14.642,35.018C196.251,288.125,201.132,276.453,199.792,258.463
	L199.792,258.463z M143.787,290.431c18.226-1.758,30.671,1.496,37.337,9.761C167.716,306.425,155.271,303.172,143.787,290.431
	L143.787,290.431z M127.192,272.007c19.613-1.566,32.059,1.891,37.337,10.371C150.77,287.567,138.325,284.11,127.192,272.007
	L127.192,272.007z M188.322,247.115c1.722,18.077-3.362,29.343-15.252,33.798C170.058,270.348,175.142,259.082,188.322,247.115
	L188.322,247.115z M176.853,234.914c-13.082,15.196-17.108,27.112-12.08,35.75C175.519,264.466,179.545,252.548,176.853,234.914
	L176.853,234.914z M168.434,224.787c0.482,17.235-4.805,27.524-15.862,30.87C149.863,247.01,155.15,236.72,168.434,224.787
	L168.434,224.787z M115.601,254.192c11.031,13.184,22.744,16.926,35.141,11.225C146.795,257.916,135.082,254.174,115.601,254.192
	L115.601,254.192z M108.037,239.063c18.792-0.207,29.652,3.332,32.578,10.615C127.375,253.534,116.515,249.996,108.037,239.063
	L108.037,239.063z M159.771,215.27c-1.282,16.916-6.122,26.108-14.52,27.575C143.387,235.813,148.227,226.621,159.771,215.27
	L159.771,215.27z M140.004,230.277c9.662-4.256,13.688-12.391,12.08-24.403C142.609,214.866,138.582,223,140.004,230.277
	L140.004,230.277z M103.888,217.222c13.181-0.05,21.884,2.39,26.111,7.321C118.62,227.416,109.916,224.975,103.888,217.222
	L103.888,217.222z M105.718,202.092c2.908,9.812,10.065,14.814,21.474,15.007C124.69,210.7,117.532,205.697,105.718,202.092
	L105.718,202.092z M145.861,193.795c-7.934,8.677-10.943,17.34-9.029,25.989C146.09,215.46,149.1,206.797,145.861,193.795
	L145.861,193.795z M131.463,208.803c-0.475-10.166,1.274-18.178,5.247-24.037C140.611,198.188,138.862,206.201,131.463,208.803
	L131.463,208.803z M121.824,178.177c-2.52,11.47-0.404,17.896,6.345,19.278C132.163,190.24,130.047,183.814,121.824,178.177z"/>
<path fill-rule="evenodd" clip-rule="evenodd" fill="#BC9615" d="M104.892,229.052c7.533-0.432,13.703-0.081,18.508,1.055
	c4.648,1.098,7.998,2.926,10.05,5.481c-4.983,1.52-9.883,1.711-14.701,0.574C114.059,235.054,109.439,232.684,104.892,229.052
	L104.892,229.052z M106.304,189.956c4.846,1.842,8.729,4.008,11.646,6.495c2.828,2.411,4.746,5.124,5.753,8.138
	c-4.68-0.623-8.473-2.173-11.377-4.649C109.481,197.514,107.473,194.187,106.304,189.956L106.304,189.956z M318.933,408.488
	c1.049,0.711,2.477,0.437,3.188-0.612c0.711-1.05,0.437-2.478-0.613-3.188c-67.698-45.853-117.236-86.882-148.625-123.091
	l0.388-0.146c6.095-2.284,10.447-6.314,13.054-12.093c2.583-5.724,3.439-13.157,2.569-22.297l-0.109-1.144l-0.85,0.772
	c-6.648,6.036-11.26,11.908-13.835,17.614c-2.6,5.761-3.128,11.35-1.583,16.768l0.042,0.149
	c-7.488-8.665-13.932-17.053-19.338-25.164c5.439-1.77,9.479-5.224,12.121-10.363v-0.002c2.688-5.231,3.91-12.205,3.667-20.92
	l-0.035-1.242l-0.924,0.83c-6.692,6.012-11.377,11.624-14.054,16.834c-2.228,4.335-3.07,8.397-2.528,12.186
	c-2.173-3.379-4.165-6.711-5.97-9.993c4.314-0.802,7.711-3.558,10.191-8.267c2.457-4.667,4.01-11.27,4.656-19.806l0.116-1.527
	l-1.093,1.074c-5.815,5.718-9.947,10.901-12.394,15.549c-2.114,4.016-2.98,7.646-2.6,10.891c-6.058-11.434-9.853-22.266-11.399-32.5
	c3.129-1.507,5.101-4.119,5.913-7.835c0.894-4.098,0.352-9.551-1.625-16.357l-0.341-1.174l-0.686,1.012
	c-2.029,2.993-3.489,6.527-4.379,10.604c-0.083,0.38-0.161,0.766-0.234,1.156c-0.416-0.484-1.029-0.793-1.716-0.802
	c-0.047,0-0.094,0-0.14,0.003c1.118-2.908,1.238-5.695,0.36-8.361c-1.098-3.335-3.757-6.45-7.977-9.342l-0.704-0.482l-0.184,0.835
	c-0.045,0.205-0.104,0.482-0.171,0.813c-1.134,5.541-1.156,9.896-0.064,13.065c1.095,3.181,3.281,5.174,6.557,5.979
	C127.129,251.587,190.91,321.778,318.933,408.488L318.933,408.488z M132.794,207.601c-0.33-2.443-0.525-4.851-0.593-7.225
	c0.169-1.783,0.43-3.479,0.781-5.085c0.754-3.459,1.929-6.505,3.521-9.138c1.64,6.043,2.059,10.899,1.258,14.567
	C137.06,203.932,135.404,206.226,132.794,207.601L132.794,207.601z M128.209,196.121c1.45-3.068,1.724-5.974,0.821-8.716
	c-0.956-2.904-3.231-5.656-6.825-8.255c-1.082,5.307-1.112,9.445-0.09,12.411c0.949,2.756,2.836,4.494,5.659,5.214
	C127.881,196.532,128.03,196.311,128.209,196.121L128.209,196.121z M118.697,195.577c-3.225-2.749-7.568-5.11-13.03-7.081
	l-0.998-0.36l0.243,1.031c1.175,4.978,3.397,8.86,6.665,11.646c3.263,2.782,7.553,4.457,12.869,5.023l0.838,0.089l-0.223-0.812
	C124.08,201.536,121.958,198.357,118.697,195.577L118.697,195.577z M254.638,329.396c3.87,7.025,6.357,13.07,7.462,18.134
	c1.071,4.916,0.833,8.881-0.715,11.896c-3.941-3.738-6.464-8.142-7.569-13.208C252.733,341.258,253.008,335.65,254.638,329.396
	L254.638,329.396z M263.225,347.288c1.211,5.556,0.811,10.007-1.201,13.352l-0.36,0.599l-0.518-0.468
	c-4.432-4.011-7.25-8.781-8.456-14.31c-1.2-5.503-0.796-11.746,1.21-18.729l0.379-1.319l0.674,1.195
	C259.277,335.266,262.034,341.826,263.225,347.288L263.225,347.288z M220.895,362.43c9.378-1.394,17.03-1.607,22.953-0.643
	c5.766,0.938,9.869,2.993,12.308,6.162c-5.991,3.006-11.948,4.026-17.87,3.062C232.473,370.064,226.675,367.203,220.895,362.43
	L220.895,362.43z M244.033,360.651c6.405,1.043,10.892,3.437,13.458,7.178l0.365,0.532l-0.575,0.301
	c-6.418,3.359-12.812,4.521-19.18,3.483c-6.35-1.034-12.657-4.254-18.92-9.658l-0.938-0.81l1.226-0.192
	C229.543,359.903,237.731,359.625,244.033,360.651L244.033,360.651z M200.32,345.739c9.624-1.324,17.408-1.465,23.351-0.42
	c5.75,1.012,9.749,3.13,11.995,6.354c-6.666,2.871-12.973,3.784-18.918,2.739C210.944,353.391,205.468,350.5,200.32,345.739
	L200.32,345.739z M223.869,344.185c6.413,1.128,10.793,3.609,13.14,7.441l0.341,0.557l-0.598,0.268
	c-7.112,3.183-13.847,4.215-20.203,3.097c-6.358-1.118-12.323-4.385-17.891-9.798l-0.837-0.813l1.156-0.168
	C209.27,343.271,217.566,343.076,223.869,344.185L223.869,344.185z M245.313,314.935c2.326,7.693,3.354,14.117,3.085,19.27
	c-0.261,4.998-1.746,8.785-4.456,11.361c-3.532-5.296-5.164-10.518-4.895-15.662C239.312,324.865,241.4,319.875,245.313,314.935
	L245.313,314.935z M249.547,334.263c-0.293,5.615-2.072,9.818-5.335,12.609l-0.484,0.414l-0.362-0.524
	c-3.935-5.697-5.757-11.337-5.465-16.916c0.291-5.579,2.693-11.072,7.205-16.479l0.676-0.811l0.315,1.009
	C248.685,321.844,249.835,328.744,249.547,334.263L249.547,334.263z M230.767,299.676c3.309,6.358,4.888,12.294,4.735,17.804
	c-0.153,5.534-2.059,10.656-5.714,15.365c-3.511-4.184-5.191-9.023-5.039-14.52C224.902,312.787,226.908,306.57,230.767,299.676
	L230.767,299.676z M236.65,317.511c-0.166,6.007-2.299,11.54-6.397,16.597l-0.426,0.525l-0.45-0.507
	c-4.017-4.526-5.943-9.805-5.776-15.832c0.165-5.976,2.394-12.676,6.685-20.099l0.513-0.888l0.489,0.901
	C235.028,305.097,236.816,311.531,236.65,317.511L236.65,317.511z M221.494,285.07c2.769,15.624-0.545,26.478-9.942,32.56
	C207.26,305.758,210.575,294.903,221.494,285.07L221.494,285.07z M211.56,318.984l-0.587,0.358l-0.248-0.645
	c-4.954-12.903-1.362-24.626,10.775-35.169l0.754-0.655l0.188,0.981C225.695,300.866,222.067,312.576,211.56,318.984L211.56,318.984
	z M182.154,327.851c8.859-0.851,16.216-0.602,22.07,0.746c5.746,1.323,10.033,3.706,12.859,7.146
	c-5.979,2.908-11.891,3.69-17.734,2.345C193.569,336.757,187.837,333.345,182.154,327.851L182.154,327.851z M204.481,327.476
	c6.319,1.455,10.969,4.161,13.95,8.119l0.412,0.547l-0.61,0.312c-6.443,3.292-12.824,4.211-19.141,2.757
	c-6.29-1.448-12.497-5.25-18.621-11.404l-0.847-0.851l1.196-0.126C190.351,325.822,198.238,326.038,204.481,327.476L204.481,327.476
	z M162.597,309.538c8.92-0.966,16.262-0.735,22.023,0.69c5.664,1.401,9.79,3.959,12.377,7.673c-5.896,2.823-11.721,3.524-17.475,2.1
	C173.831,318.593,168.188,315.104,162.597,309.538L162.597,309.538z M184.896,309.111c6.228,1.541,10.705,4.444,13.428,8.708
	l0.343,0.535l-0.57,0.286c-6.349,3.19-12.631,4.016-18.848,2.478c-6.187-1.531-12.289-5.404-18.303-11.619l-0.81-0.836l1.154-0.137
	C170.877,307.395,178.747,307.59,184.896,309.111L184.896,309.111z M209.675,273.517c0.592,8.142-0.194,14.74-2.357,19.795
	c-2.147,5.018-5.666,8.52-10.553,10.504c-1.377-5.379-0.985-10.596,1.178-15.648C200.097,283.134,204.008,278.25,209.675,273.517
	L209.675,273.517z M208.376,293.763c-2.362,5.519-6.296,9.306-11.801,11.359l-0.585,0.219l-0.169-0.602
	c-1.643-5.856-1.288-11.531,1.063-17.023c2.336-5.456,6.642-10.72,12.918-15.791l0.842-0.681l0.093,1.079
	C211.499,281.158,210.712,288.305,208.376,293.763L208.376,293.763z M199.3,259.75c0.495,8.344-0.403,15.258-2.695,20.739
	c-2.296,5.492-6.002,9.553-11.117,12.18c-1.514-4.877-1.127-10.05,1.16-15.52C188.948,271.648,193.166,265.848,199.3,259.75
	L199.3,259.75z M197.668,280.931c-2.497,5.971-6.586,10.327-12.269,13.068l-0.582,0.28l-0.211-0.611
	c-1.844-5.337-1.518-10.991,0.978-16.96c2.471-5.908,7.073-12.128,13.806-18.657l0.884-0.856l0.091,1.226
	C201.042,267.506,200.143,275.01,197.668,280.931L197.668,280.931z M144.997,290.897c8.539-0.733,15.755-0.329,21.649,1.211
	c5.806,1.519,10.324,4.142,13.551,7.871c-6.334,2.797-12.441,3.428-18.319,1.891C156.049,300.347,150.421,296.688,144.997,290.897
	L144.997,290.897z M166.934,290.996c6.346,1.659,11.226,4.604,14.637,8.835l0.461,0.572l-0.669,0.311
	c-6.826,3.175-13.418,3.931-19.773,2.269c-6.335-1.656-12.413-5.712-18.231-12.167l-0.764-0.848l1.138-0.109
	C152.913,288.974,160.647,289.353,166.934,290.996L166.934,290.996z M128.437,272.49c9.196-0.646,16.746-0.15,22.647,1.488
	c5.78,1.605,9.97,4.309,12.569,8.108c-6.517,2.329-12.726,2.675-18.624,1.036C139.216,281.509,133.686,277.964,128.437,272.49
	L128.437,272.49z M151.39,272.871c6.368,1.769,10.911,4.837,13.628,9.202l0.371,0.595l-0.657,0.247
	c-6.996,2.64-13.666,3.078-20.009,1.315c-6.329-1.758-12.314-5.703-17.953-11.835l-0.8-0.87l1.178-0.094
	C137.019,270.645,145.1,271.124,151.39,272.871L151.39,272.871z M187.852,248.33c0.674,8.404-0.185,15.257-2.576,20.556
	c-2.392,5.3-6.33,9.054-11.815,11.26c-1.26-4.958-0.697-10.082,1.688-15.37C177.546,259.463,181.781,253.98,187.852,248.33
	L187.852,248.33z M176.465,236.258c1.115,8.173,0.729,15.052-1.158,20.637c-1.903,5.633-5.343,9.958-10.318,12.974
	c-2.161-4.064-2.302-8.877-0.423-14.438C166.469,249.8,170.436,243.409,176.465,236.258L176.465,236.258z M176.397,257.26
	c-2.059,6.096-5.839,10.729-11.338,13.901l-0.495,0.286l-0.288-0.495c-2.602-4.468-2.868-9.764-0.799-15.886
	c2.039-6.033,6.352-12.876,12.939-20.528l0.817-0.949l0.189,1.24C178.782,243.735,178.441,251.212,176.397,257.26L176.397,257.26z
	 M167.884,226.063c0.092,7.93-1.096,14.299-3.564,19.104h-0.001c-2.48,4.826-6.267,8.08-11.36,9.762
	c-1.086-4.025-0.4-8.43,2.058-13.214C157.501,236.88,161.791,231.662,167.884,226.063L167.884,226.063z M116.851,254.771
	c9.099,0.069,16.424,0.989,21.972,2.762c5.42,1.731,9.124,4.271,11.11,7.618c-5.864,2.561-11.564,2.957-17.101,1.189
	C127.368,264.594,122.041,260.737,116.851,254.771L116.851,254.771z M139.17,256.438c6.007,1.919,10.035,4.823,12.08,8.711
	l0.282,0.537l-0.552,0.254c-6.332,2.912-12.497,3.41-18.495,1.494c-5.965-1.905-11.741-6.196-17.326-12.872l-0.788-0.942
	l1.229-0.001C125.4,253.609,133.257,254.549,139.17,256.438L139.17,256.438z M109.224,239.629
	c17.289-0.045,27.489,3.18,30.597,9.676C127.494,252.691,117.295,249.465,109.224,239.629L109.224,239.629z M141.148,249.464
	l0.236,0.588l-0.61,0.178c-13.49,3.929-24.554,0.324-33.193-10.816l-0.707-0.913l1.158-0.013
	C127.086,238.279,138.125,241.938,141.148,249.464L141.148,249.464z M159.066,216.783c-0.698,7.626-2.163,13.56-4.396,17.8
	c-2.228,4.231-5.225,6.762-8.989,7.589c-0.69-3.251,0.08-6.994,2.31-11.228C150.226,226.699,153.918,221.979,159.066,216.783
	L159.066,216.783z M140.236,230.804l-0.659,0.291l-0.138-0.707c-0.735-3.765-0.068-7.74,2.003-11.924
	c0.269-0.543,0.562-1.09,0.878-1.64c-1.454,1.366-3.203,2.526-5.245,3.48l-0.649,0.304l-0.155-0.7
	c-0.98-4.431-0.7-8.863,0.84-13.297c1.53-4.404,4.306-8.806,8.327-13.204l0.723-0.79l0.259,1.04
	c1.646,6.61,1.699,12.136,0.156,16.575c-0.135,0.388-0.282,0.767-0.44,1.138c1.582-1.93,3.432-3.901,5.552-5.913l0.816-0.775
	l0.15,1.117c0.82,6.121,0.197,11.268-1.867,15.438C148.711,225.432,145.194,228.62,140.236,230.804L140.236,230.804z
	 M149.755,220.73c-1.856,3.75-4.959,6.654-9.308,8.712c-0.471-3.3,0.205-6.79,2.026-10.469c1.864-3.765,4.923-7.726,9.178-11.883
	C152.221,212.479,151.589,217.026,149.755,220.73L149.755,220.73z M105.102,217.799c5.995,0.049,11.011,0.639,15.044,1.77
	c3.811,1.068,6.732,2.617,8.763,4.645c-5.201,1.191-9.807,1.225-13.817,0.101C111.221,223.228,107.89,221.056,105.102,217.799
	L105.102,217.799z M120.457,218.461c4.463,1.251,7.79,3.154,9.979,5.708l0.604,0.705l-0.901,0.228
	c-5.787,1.46-10.907,1.567-15.357,0.32c-4.474-1.254-8.257-3.87-11.349-7.846l-0.717-0.923l1.172-0.004
	C110.532,216.623,116.056,217.227,120.457,218.461L120.457,218.461z M106.601,202.969c1.452,4.264,3.784,7.518,6.996,9.763
	c3.296,2.303,7.534,3.559,12.714,3.768c-1.285-2.768-3.517-5.262-6.692-7.482C116.303,206.702,111.963,204.685,106.601,202.969
	L106.601,202.969z M120.276,208.077c-3.629-2.536-8.426-4.714-14.391-6.535l-1.021-0.312l0.303,1.023
	c1.492,5.034,4.083,8.84,7.772,11.419c3.674,2.568,8.423,3.902,14.245,4l0.857,0.015l-0.312-0.798
	C126.436,213.583,123.951,210.646,120.276,208.077L120.276,208.077z M145.555,194.996c1.341,5.919,1.32,10.873-0.065,14.859
	c-1.38,3.971-4.128,7.001-8.244,9.089c-0.752-3.98-0.436-7.965,0.95-11.955C139.582,203,142.035,199.002,145.555,194.996
	L145.555,194.996z M123.66,228.985c-5.22-1.233-11.986-1.563-20.298-0.99l-1.415,0.098l1.082,0.916
	c5.051,4.274,10.205,7.033,15.459,8.274c5.267,1.244,10.628,0.961,16.084-0.848l0.728-0.241l-0.435-0.63
	C132.704,232.432,128.969,230.239,123.66,228.985z"/>
<path fill-rule="evenodd" clip-rule="evenodd" fill="#BC9615" d="M295.216,378.658L409.332,214.63l68.749-98.819h-365.73
	L181.1,214.63L295.216,378.658L295.216,378.658z M217.463,379.96c2.441,0.569,4.409,2.293,5.771,4.465
	c1.408,2.243,2.2,5.057,2.163,7.482l-0.289,18.854l-0.02,0.027c23.047,4.485,46.084,6.721,69.108,6.713
	c23.316-0.008,46.643-2.316,69.983-6.915l-0.895,0.175l-0.288-18.854c-0.037-2.426,0.754-5.239,2.162-7.482
	c1.362-2.172,3.331-3.896,5.771-4.465c18.746-4.374,35.486-9.026,51.848-14.37c16.409-5.36,32.427-11.406,49.688-18.556l6.171-2.557
	l-2.399,6.238l-16.936,44.011l45.198,20.262l5.024,2.253l-4.721,2.836c-9.066,5.446-19.824,10.592-32.253,15.438l0.001,0.004
	c-11.418,4.452-24.243,8.653-38.459,12.604l4.625,12.104l1.224,3.202l-3.209,1.243c-45.886,17.768-92.571,26.933-140.096,27.072
	c-47.494,0.141-95.793-8.739-144.936-27.059l-3.265-1.218l1.239-3.241l4.625-12.104c-14.216-3.95-27.042-8.151-38.459-12.604
	l0.001-0.004c-12.429-4.846-23.187-9.991-32.253-15.438l-4.721-2.836l5.025-2.253l45.198-20.262l-16.935-44.011l-2.4-6.238
	l6.171,2.557c17.26,7.149,33.278,13.195,49.688,18.556C181.977,370.934,198.717,375.586,217.463,379.96L217.463,379.96z
	 M156.365,442.72c-14.252-3.944-27.068-8.13-38.429-12.56h-0.011c-9.971-3.888-18.824-7.964-26.548-12.23l42.541-19.069l2.484-1.114
	l-0.976-2.534l-15.521-40.338c15.127,6.139,29.398,11.439,43.933,16.188c16.54,5.402,33.433,10.099,52.32,14.505
	c0.828,0.193,1.6,0.943,2.214,1.921c0.835,1.331,1.305,2.967,1.284,4.352l-0.013,0.891c-0.093,0.05-0.197,0.1-0.313,0.149
	c-0.941,0.399-2.34,0.618-4.197,0.648c-4.737,0.077-11.954-1.091-21.63-3.601c-6.795-1.762-11.86-1.802-15.234-0.003
	c-2.885,1.537-4.472,4.181-4.78,7.986l-0.873,2.285L156.365,442.72L156.365,442.72z M178.062,398.516
	c13.782,4.511,27.559,8.217,41.333,11.119l-0.011-0.032l0.183-11.979c-1.224,0.303-2.679,0.469-4.362,0.496
	c-5.146,0.084-12.776-1.13-22.855-3.744c-5.649-1.465-9.619-1.626-11.92-0.399C179.003,394.735,178.217,396.239,178.062,398.516
	L178.062,398.516z M192.933,460.411l1.267-3.905l-16.336-5.298l10.106-31.163l-4.374-1.419l-11.373,35.068L192.933,460.411
	L192.933,460.411z M157.377,459.431c47.229,17.212,93.637,25.559,139.26,25.424c45.536-0.135,90.323-8.726,134.395-25.385
	l-20.536-53.744c-38.735,12.418-77.502,18.653-116.299,18.667c-38.797,0.013-77.564-6.196-116.3-18.663L157.377,459.431
	L157.377,459.431z M432.029,442.72l-16.249-42.524l-0.873-2.284c-0.308-3.806-1.895-6.45-4.779-7.987
	c-3.375-1.799-8.439-1.759-15.235,0.003c-9.677,2.51-16.893,3.678-21.63,3.601c-1.856-0.03-3.257-0.249-4.197-0.648
	c-0.115-0.05-0.22-0.1-0.313-0.149l-0.014-0.891c-0.021-1.385,0.449-3.021,1.284-4.352c0.614-0.978,1.386-1.728,2.214-1.921
	c18.888-4.406,35.78-9.103,52.32-14.505c14.534-4.748,28.806-10.049,43.933-16.188l-15.521,40.338l-0.976,2.534l2.484,1.114
	l42.541,19.069c-7.725,4.267-16.578,8.343-26.549,12.23h-0.011C459.098,434.59,446.282,438.775,432.029,442.72L432.029,442.72z
	 M410.333,398.514c-0.155-2.275-0.942-3.778-2.367-4.537c-2.301-1.227-6.271-1.065-11.92,0.399
	c-10.079,2.614-17.709,3.828-22.855,3.744c-1.684-0.027-3.139-0.193-4.362-0.496l0.184,11.979
	C382.781,406.703,396.556,403.006,410.333,398.514L410.333,398.514z M363.269,427.453h1.464l4.148-7.199l-5.124,0.123
	L363.269,427.453L363.269,427.453z M226.902,468.347l0.888-3.925l-18.739-4.241l2.973-13.133l14.495,3.28l0.815-3.604l-14.495-3.281
	l2.592-11.451l18.272,4.136l0.87-3.845l-22.756-5.15l-8.139,35.957L226.902,468.347L226.902,468.347z M266.368,473.773l2.082-18.771
	l-13.792-1.529l-0.426,3.835l9.127,1.013l-0.227,2.04c-0.204,1.837-0.767,3.44-1.675,4.799c-0.92,1.344-2.117,2.326-3.604,2.946
	c-1.474,0.621-3.134,0.822-4.984,0.617c-1.809-0.2-3.429-0.862-4.859-1.998c-1.43-1.137-2.473-2.532-3.13-4.175
	c-1.062-2.72-1.383-6.032-0.951-9.923c0.281-2.53,0.875-4.914,1.783-7.141c0.923-2.238,2.248-4.005,4.005-5.325
	c1.757-1.319,3.921-1.837,6.492-1.552c2.353,0.261,4.272,1.204,5.773,2.816c1.5,1.626,2.367,3.607,2.588,5.959l4.443-0.581
	c-0.528-3.432-1.818-6.205-3.872-8.291c-2.041-2.085-4.794-3.327-8.249-3.71c-3.455-0.383-6.479,0.19-9.073,1.733
	c-2.594,1.544-4.654,3.725-6.163,6.531c-1.511,2.82-2.444,5.897-2.813,9.229c-0.555,5.005,0.274,9.448,2.489,13.315
	c2.349,4.019,5.912,6.287,10.727,6.82c4.638,0.515,8.213-0.686,10.726-3.602l0.794,4.632L266.368,473.773L266.368,473.773z
	 M300.626,474.448l4.776,0.028l-11.851-36.938l-5.255-0.031l-12.207,36.794l3.845,0.022l3.431-10.735l13.643,0.081L300.626,474.448
	L300.626,474.448z M290.471,442.447l-5.839,17.618l11.413,0.068L290.471,442.447L290.471,442.447z M338.484,471.716l4.478-0.468
	l-3.834-36.667l-3.92,0.41l3.125,29.889l-20.438-28.079l-5.798,0.606l3.834,36.667l3.838-0.401l-3.349-32.025L338.484,471.716
	L338.484,471.716z M380.519,464.284l-0.797-3.944l-18.832,3.804l-2.666-13.199l14.567-2.941l-0.731-3.622l-14.567,2.942
	l-2.324-11.509l18.363-3.709l-0.78-3.863l-22.871,4.619l7.299,36.137L380.519,464.284L380.519,464.284z M390.868,450.218
	l-3.758,1.998c4.28,6.031,10.085,7.948,17.412,5.75c3.919-1.175,6.734-2.935,8.446-5.276c2.068-2.82,2.604-5.896,1.604-9.225
	c-0.856-2.857-2.657-4.861-5.415-6.005c-1.508-0.691-3.953-0.986-7.295-0.884l-5.692,0.407c-2.37,0.054-4.175-0.105-5.409-0.507
	c-1.244-0.384-2.125-1.463-2.659-3.245c-0.539-1.796-0.169-3.421,1.092-4.885c1.278-1.455,2.858-2.473,4.746-3.038
	c2.006-0.602,4.026-0.579,6.107,0.068c2.063,0.639,3.541,1.852,4.444,3.624l3.697-2.295c-1.771-2.525-3.977-4.207-6.636-5.024
	c-2.646-0.82-5.479-0.785-8.494,0.119c-3.355,1.007-5.952,2.686-7.776,5.033c-1.838,2.351-2.277,5.126-1.318,8.324
	c0.811,2.7,2.406,4.593,4.776,5.683c1.785,0.808,4.192,1.114,7.236,0.93l6.33-0.284c4.321-0.312,6.906,0.972,7.768,3.842
	c0.586,1.953,0.315,3.72-0.811,5.301c-1.138,1.541-3.07,2.721-5.81,3.543c-1.664,0.499-3.276,0.696-4.846,0.61
	c-1.573-0.1-3.015-0.524-4.325-1.274S391.833,451.671,390.868,450.218L390.868,450.218z M250.414,158.981v-2.4l-17.945-27.364
	l-1.523-2.322l2.567-1.064c2.103-0.872,4.1-1.515,5.984-1.927c4.413-0.965,8.273-0.683,11.506,0.865
	c3.28,1.57,5.802,4.379,7.486,8.441c0.595,1.435,1.084,3.02,1.463,4.753c0.442,2.022,0.785,3.2,1.091,3.446
	c0.278,0.224-0.192-0.503,0.251-0.897c0.769-0.684,1.425-1.5,1.944-2.47c0.549-1.024,0.967-2.237,1.23-3.667l1.179-6.387l3.1,5.703
	c1.382,2.544,2.91,4.755,4.562,6.66c1.515,1.746,3.141,3.235,4.862,4.49c-1.626-1.98-2.74-4.063-3.287-6.083
	c-0.586-2.164-0.535-4.271,0.209-6.151c0.758-1.915,2.205-3.531,4.392-4.664c1.511-0.782,3.389-1.323,5.651-1.551
	c-0.009-0.239-0.012-0.474-0.009-0.706c0.027-2.204,0.627-4.011,1.798-5.419c1.177-1.415,2.845-2.335,5.002-2.761
	c0.967-0.19,2.063-0.279,3.287-0.265c1.224-0.014,2.32,0.075,3.287,0.265c2.157,0.425,3.825,1.346,5.002,2.761
	c1.171,1.408,1.771,3.215,1.799,5.419c0.003,0.231-0.001,0.467-0.01,0.706c2.262,0.228,4.141,0.769,5.651,1.551
	c2.187,1.132,3.633,2.749,4.392,4.664c0.744,1.879,0.795,3.987,0.209,6.151c-0.547,2.02-1.66,4.103-3.287,6.083
	c1.722-1.255,3.348-2.745,4.863-4.49c1.651-1.904,3.18-4.115,4.562-6.66l3.099-5.702l1.18,6.387c0.265,1.429,0.682,2.643,1.23,3.667
	c0.52,0.97,1.176,1.786,1.944,2.47c0.443,0.394-0.026,1.122,0.251,0.897c0.307-0.246,0.649-1.424,1.091-3.446
	c0.38-1.734,0.868-3.319,1.463-4.753c1.685-4.062,4.206-6.871,7.486-8.441c3.232-1.548,7.094-1.83,11.507-0.865
	c1.884,0.412,3.881,1.055,5.983,1.927l2.567,1.064l-1.522,2.322l-17.945,27.364v3.125v6.774v5.696v1.344
	c2.412,1.875,4.704,3.897,6.861,6.054c13.222,13.222,21.399,31.488,21.399,51.663s-8.178,38.441-21.399,51.664
	c-13.222,13.222-31.488,21.399-51.663,21.399c-20.176,0-38.441-8.178-51.663-21.399c-13.222-13.223-21.4-31.488-21.4-51.664
	s8.178-38.441,21.4-51.663c2.157-2.157,4.449-4.179,6.861-6.054v-1.344v-5.696V158.981L250.414,158.981z M335.406,159.706v3.809
	v0.001c-11.766-6.999-25.507-11.022-40.19-11.022s-28.426,4.023-40.191,11.022v-0.001v-4.534v-3.084v-0.684l-0.378-0.577
	l-16.741-25.528c0.882-0.286,1.737-0.52,2.564-0.7c3.412-0.746,6.282-0.583,8.552,0.504c2.223,1.064,3.979,3.081,5.216,6.063
	c0.484,1.167,0.889,2.487,1.211,3.96c0.667,3.051,1.452,5.043,2.712,6.058c1.844,1.485,3.766,1.12,6.196-1.042
	c1.147-1.021,2.136-2.258,2.936-3.749l0.036-0.067c0.802,1.149,1.638,2.222,2.505,3.222c1.887,2.174,3.917,4.002,6.066,5.515
	c1.945,1.368,3.633,1.529,5.124,0.409c0.861-0.646,1.452-1.715,1.788-3.226c5.802-0.061,9.889-1.327,12.262-3.798
	c1.181,1.224,2.715,2.159,4.602,2.804c2.174,0.743,4.827,1.093,7.961,1.051c0.338,1.48,0.924,2.53,1.773,3.168
	c1.491,1.12,3.179,0.959,5.124-0.409c2.149-1.513,4.179-3.341,6.066-5.515c0.867-1,1.703-2.073,2.505-3.222l0.036,0.067
	c0.799,1.491,1.788,2.729,2.935,3.749c2.43,2.161,4.352,2.527,6.196,1.042c1.261-1.015,2.045-3.007,2.712-6.058
	c0.322-1.473,0.728-2.793,1.211-3.96c1.236-2.982,2.992-4.999,5.216-6.063c2.271-1.087,5.141-1.25,8.553-0.504
	c0.826,0.181,1.682,0.414,2.563,0.7l-16.741,25.528l-0.378,0.577v0.684V159.706L335.406,159.706z M308.065,142.653
	c-2.945,0.08-5.373-0.207-7.284-0.859c-2.009-0.687-3.417-1.787-4.224-3.3l-1.618-3.032l-1.463,3.107
	c-1.277,2.714-4.994,4.062-11.146,4.045c-1.539-1.683-2.557-3.423-2.996-5.044c-0.328-1.212-0.323-2.334,0.047-3.269
	c0.356-0.899,1.083-1.683,2.212-2.268c1.434-0.743,3.456-1.175,6.123-1.168l2.801,0.007l-0.541-2.745
	c-0.179-0.908-0.264-1.704-0.256-2.386c0.014-1.118,0.259-1.964,0.736-2.537c0.472-0.566,1.257-0.958,2.354-1.175
	c0.708-0.14,1.501-0.204,2.377-0.193h0.054c0.876-0.011,1.669,0.054,2.377,0.193c1.098,0.216,1.882,0.608,2.354,1.175
	c0.477,0.573,0.723,1.419,0.736,2.537c0.008,0.682-0.077,1.478-0.256,2.386l-0.542,2.745l2.803-0.007
	c2.666-0.006,4.688,0.426,6.123,1.168c1.128,0.584,1.855,1.368,2.211,2.268c0.37,0.935,0.376,2.057,0.048,3.269
	C310.654,139.202,309.624,140.958,308.065,142.653L308.065,142.653z M335.406,170.212c-11.53-7.609-25.343-12.039-40.19-12.039
	s-28.661,4.429-40.191,12.039v-1.271c11.579-7.487,25.376-11.835,40.191-11.835s28.611,4.349,40.19,11.836V170.212L335.406,170.212z
	 M306.958,296.343l0.094-0.017c-3.841,0.693-7.796,1.057-11.836,1.057c-4.033,0-7.982-0.361-11.815-1.053l0.073,0.013V166.13
	l-0.094,0.017c3.841-0.694,7.796-1.056,11.836-1.056c4.032,0,7.981,0.361,11.814,1.052l-0.072-0.013V296.343L306.958,296.343z
	 M311.498,167.111c8.807,2.229,16.91,6.225,23.908,11.586v3.878v101.203c-7,5.362-15.102,9.356-23.908,11.585l0.071-0.018V167.129
	L311.498,167.111L311.498,167.111z M340.018,182.575c0.67,0.616,1.326,1.245,1.971,1.89c11.97,11.97,19.373,28.506,19.373,46.772
	s-7.403,34.803-19.373,46.773c-0.644,0.644-1.301,1.272-1.971,1.889V182.575L340.018,182.575z M278.933,295.362
	c-8.807-2.228-16.909-6.225-23.908-11.585V181.676v-2.979c7-5.362,15.102-9.357,23.908-11.586l-0.071,0.018v128.216L278.933,295.362
	L278.933,295.362z M250.414,279.898c-0.669-0.615-1.326-1.245-1.971-1.889c-11.969-11.97-19.373-28.507-19.373-46.773
	s7.404-34.803,19.373-46.772c0.644-0.644,1.301-1.273,1.971-1.89V279.898L250.414,279.898z M310.657,334.474
	c1.614,0,2.923,1.308,2.923,2.922c0,1.613-1.309,2.922-2.923,2.922c-1.613,0-2.922-1.309-2.922-2.922
	C307.735,335.781,309.044,334.474,310.657,334.474L310.657,334.474z M280.482,336.996v-20.929c-1.326,0-2.26-0.249-2.812-0.738
	c-0.542-0.49-0.818-1.131-0.818-1.932s0.276-1.441,0.818-1.931c0.552-0.489,1.486-0.738,2.812-0.738l11.301,0.026
	c1.753,0,3.471,0.32,5.144,0.961c1.682,0.649,3.025,1.46,4.049,2.456c0.765,0.738,1.575,1.771,2.402,3.07
	c0.837,1.299,1.468,2.598,1.887,3.879c0.418,1.291,0.632,2.856,0.632,4.717v2.554c0,2.26-0.383,4.262-1.157,6.006
	c-0.774,1.753-1.788,3.177-3.043,4.28s-2.438,1.913-3.542,2.43c-1.753,0.818-4.031,1.228-6.825,1.228h-10.847
	c-1.326,0-2.26-0.249-2.812-0.747c-0.542-0.499-0.818-1.148-0.818-1.949s0.276-1.441,0.818-1.922
	C278.222,337.236,279.157,336.996,280.482,336.996L280.482,336.996z M285.822,336.996v-20.929h5.632c1.896,0,3.47,0.373,4.734,1.112
	c1.264,0.738,2.394,2.1,3.408,4.084c0.641,1.264,0.961,2.75,0.961,4.432v2.536c0,1.966-0.356,3.559-1.068,4.796
	s-1.771,2.251-3.186,3.053c-1.077,0.613-2.678,0.916-4.796,0.916H285.822L285.822,336.996z M424.952,161.089
	c1.614,0,2.922,1.308,2.922,2.922s-1.308,2.922-2.922,2.922c-1.613,0-2.922-1.309-2.922-2.922S423.339,161.089,424.952,161.089
	L424.952,161.089z M194.224,161.089c1.614,0,2.922,1.308,2.922,2.922s-1.308,2.922-2.922,2.922s-2.922-1.309-2.922-2.922
	S192.61,161.089,194.224,161.089L194.224,161.089z M167.469,166.35c-0.472,0.569-0.846,0.934-1.139,1.095
	c-0.285,0.16-0.641,0.24-1.059,0.24c-0.818,0-1.477-0.275-1.966-0.818c-0.499-0.552-0.748-1.46-0.748-2.732v-3.604
	c0-1.29,0.249-2.206,0.748-2.758c0.489-0.543,1.148-0.818,1.966-0.818c0.632,0,1.157,0.169,1.584,0.498
	c0.427,0.33,0.747,0.873,0.979,1.646c0.222,0.774,0.462,1.299,0.703,1.575c0.507,0.543,1.396,1.086,2.678,1.637
	c1.281,0.561,2.687,0.836,4.218,0.836c2.376,0,4.325-0.561,5.846-1.673c0.97-0.676,1.459-1.512,1.459-2.5
	c0-0.667-0.231-1.29-0.703-1.868c-0.463-0.587-1.219-1.068-2.278-1.451c-0.686-0.258-2.233-0.614-4.627-1.068
	c-2.901-0.543-5.099-1.192-6.593-1.958c-1.504-0.766-2.688-1.842-3.551-3.239c-0.872-1.388-1.308-2.892-1.308-4.512
	c0-2.554,1.068-4.796,3.194-6.718c2.127-1.922,4.894-2.883,8.303-2.883c1.361,0,2.634,0.151,3.799,0.462
	c1.166,0.303,2.225,0.774,3.177,1.406c0.703-0.677,1.406-1.015,2.109-1.015c0.792,0,1.441,0.276,1.94,0.828
	c0.507,0.543,0.756,1.45,0.756,2.723v4.03c0,1.282-0.249,2.207-0.748,2.75c-0.489,0.552-1.13,0.827-1.913,0.827
	c-0.667,0-1.237-0.205-1.727-0.605c-0.382-0.293-0.667-0.89-0.863-1.789c-0.187-0.89-0.436-1.53-0.73-1.913
	c-0.498-0.667-1.254-1.228-2.26-1.682c-0.996-0.454-2.162-0.685-3.47-0.685c-1.922,0-3.443,0.445-4.556,1.344
	c-1.112,0.898-1.673,1.833-1.673,2.803c0,0.667,0.231,1.308,0.686,1.922c0.462,0.623,1.13,1.104,2.011,1.451
	c0.587,0.24,2.233,0.632,4.956,1.174c2.714,0.543,4.814,1.13,6.282,1.771c1.468,0.649,2.688,1.655,3.666,3.034
	c0.97,1.371,1.459,3.008,1.459,4.903c0,2.643-0.925,4.751-2.786,6.335c-2.464,2.091-5.614,3.132-9.432,3.132
	c-1.477,0-2.918-0.178-4.315-0.534S168.785,167.062,167.469,166.35L167.469,166.35z M407.722,158.288h-12.93l-1.317,3.257h1.281
	c1.335,0,2.278,0.25,2.83,0.739c0.543,0.489,0.818,1.13,0.818,1.931s-0.275,1.442-0.818,1.931c-0.552,0.489-1.495,0.738-2.83,0.738
	h-7.029c-1.326,0-2.26-0.249-2.812-0.747c-0.543-0.499-0.819-1.148-0.819-1.949s0.276-1.442,0.819-1.922
	c0.552-0.48,1.485-0.721,2.812-0.721l8.436-20.929h-3.471c-1.325,0-2.26-0.249-2.812-0.739c-0.543-0.489-0.818-1.13-0.818-1.931
	c0-0.8,0.275-1.441,0.818-1.931c0.552-0.489,1.486-0.738,2.812-0.738h11.462l10.642,26.268c1.326,0,2.172,0.161,2.536,0.481
	c0.729,0.658,1.095,1.388,1.095,2.188s-0.275,1.442-0.818,1.931c-0.552,0.489-1.486,0.738-2.813,0.738h-7.038
	c-1.335,0-2.27-0.249-2.821-0.747c-0.542-0.499-0.818-1.148-0.818-1.949s0.276-1.442,0.818-1.922
	c0.552-0.48,1.486-0.721,2.821-0.721h1.281L407.722,158.288L407.722,158.288z M405.559,152.949h-8.596l4.298-10.607L405.559,152.949
	L405.559,152.949z M138.153,85.245c0,0.942-0.223,1.959-0.681,3.053c-0.452,1.093-1.167,2.166-2.146,3.217
	c-0.972,1.059-2.22,1.912-3.731,2.572c-1.519,0.653-3.286,0.983-5.304,0.983c-1.525,0-2.915-0.145-4.17-0.44
	c-1.249-0.296-2.389-0.756-3.407-1.382c-1.02-0.619-1.964-1.443-2.821-2.461c-0.762-0.928-1.417-1.959-1.957-3.107
	c-0.54-1.148-0.944-2.379-1.214-3.678c-0.27-1.306-0.405-2.688-0.405-4.153c0-2.372,0.337-4.503,1.019-6.38
	c0.675-1.884,1.653-3.493,2.915-4.827c1.269-1.333,2.747-2.351,4.447-3.052c1.701-0.695,3.516-1.045,5.439-1.045
	c2.349,0,4.433,0.475,6.269,1.43c1.829,0.949,3.232,2.131,4.21,3.534c0.972,1.403,1.464,2.723,1.464,3.974
	c0,0.688-0.243,1.286-0.715,1.815c-0.472,0.522-1.046,0.784-1.72,0.784c-0.749,0-1.316-0.186-1.687-0.543
	c-0.378-0.365-0.796-0.99-1.255-1.877c-0.769-1.464-1.667-2.558-2.699-3.286c-1.039-0.722-2.308-1.087-3.826-1.087
	c-2.416,0-4.332,0.936-5.762,2.799c-1.431,1.87-2.146,4.523-2.146,7.961c0,2.296,0.317,4.208,0.951,5.734
	c0.627,1.526,1.525,2.661,2.686,3.417c1.161,0.75,2.517,1.128,4.076,1.128c1.687,0,3.111-0.426,4.278-1.279
	c1.167-0.852,2.044-2.104,2.638-3.761c0.25-0.776,0.561-1.409,0.931-1.904c0.364-0.488,0.958-0.735,1.775-0.735
	c0.702,0,1.302,0.247,1.802,0.75C137.903,83.891,138.153,84.51,138.153,85.245L138.153,85.245z M250.069,65.039h7.526
	c1.958,0,3.637,0.186,5.038,0.564c1.407,0.378,2.675,1.086,3.816,2.118c2.967,2.633,4.454,6.641,4.454,12.011
	c0,1.773-0.146,3.39-0.444,4.854c-0.299,1.464-0.763,2.784-1.381,3.96c-0.624,1.175-1.42,2.227-2.396,3.155
	c-0.763,0.708-1.6,1.279-2.509,1.705c-0.909,0.434-1.885,0.736-2.927,0.908s-2.223,0.261-3.531,0.261h-7.527
	c-1.048,0-1.838-0.165-2.376-0.495c-0.531-0.33-0.875-0.791-1.035-1.389c-0.166-0.598-0.246-1.375-0.246-2.324V68.704
	c0-1.286,0.279-2.221,0.836-2.798C247.925,65.328,248.828,65.039,250.069,65.039L250.069,65.039z M252.306,69.783v20.047h4.38
	c0.956,0,1.712-0.027,2.257-0.082c0.544-0.055,1.108-0.186,1.692-0.399c0.584-0.22,1.088-0.522,1.514-0.908
	c1.931-1.691,2.9-4.606,2.9-8.745c0-2.915-0.425-5.101-1.275-6.552s-1.898-2.372-3.139-2.771c-1.248-0.392-2.754-0.591-4.513-0.591
	H252.306L252.306,69.783z M294.75,69.659h-13.009v7.26h11.98c0.882,0,1.54,0.206,1.971,0.612c0.438,0.406,0.65,0.949,0.65,1.616
	c0,0.667-0.213,1.217-0.638,1.636c-0.431,0.419-1.088,0.632-1.984,0.632h-11.98v8.415h13.454c0.909,0,1.593,0.22,2.051,0.654
	c0.465,0.433,0.696,1.017,0.696,1.739c0,0.694-0.231,1.265-0.696,1.698c-0.458,0.434-1.142,0.653-2.051,0.653h-15.69
	c-1.254,0-2.157-0.289-2.708-0.866c-0.551-0.578-0.83-1.513-0.83-2.798V68.704c0-0.859,0.126-1.561,0.372-2.104
	c0.246-0.543,0.631-0.941,1.155-1.189c0.524-0.248,1.195-0.371,2.011-0.371h15.246c0.922,0,1.606,0.213,2.051,0.633
	c0.444,0.426,0.67,0.983,0.67,1.664c0,0.701-0.226,1.265-0.67,1.691C296.356,69.446,295.673,69.659,294.75,69.659L294.75,69.659z
	 M313.594,83.065h-5.29v8.361c0,1.196-0.272,2.097-0.816,2.715c-0.544,0.619-1.234,0.928-2.058,0.928
	c-0.869,0-1.572-0.303-2.104-0.915s-0.797-1.513-0.797-2.688V68.704c0-1.313,0.292-2.255,0.876-2.819s1.507-0.846,2.781-0.846h7.407
	c2.19,0,3.876,0.172,5.058,0.522c1.168,0.337,2.177,0.894,3.026,1.671c0.85,0.784,1.493,1.732,1.932,2.86
	c0.444,1.127,0.663,2.399,0.663,3.809c0,3.011-0.896,5.287-2.681,6.841C319.799,82.289,317.138,83.065,313.594,83.065
	L313.594,83.065z M312.193,69.535h-3.89v9.034h3.89c1.36,0,2.502-0.151,3.418-0.447c0.909-0.296,1.605-0.777,2.091-1.451
	c0.478-0.667,0.717-1.554,0.717-2.64c0-1.306-0.372-2.365-1.108-3.183C316.48,69.976,314.775,69.535,312.193,69.535L312.193,69.535z
	 M341.636,64.544c2.96,0,5.495,0.619,7.612,1.863c2.117,1.238,3.724,3.004,4.813,5.294c1.088,2.29,1.633,4.978,1.633,8.064
	c0,2.283-0.299,4.359-0.896,6.222c-0.598,1.87-1.486,3.485-2.682,4.854c-1.194,1.368-2.654,2.414-4.394,3.142
	c-1.738,0.722-3.724,1.086-5.967,1.086c-2.229,0-4.228-0.371-5.986-1.121c-1.766-0.743-3.232-1.794-4.414-3.149
	c-1.182-1.354-2.07-2.984-2.675-4.895c-0.604-1.904-0.902-3.967-0.902-6.181c0-2.269,0.312-4.345,0.942-6.243
	c0.63-1.891,1.54-3.5,2.734-4.833c1.188-1.327,2.642-2.344,4.354-3.045C337.514,64.895,339.459,64.544,341.636,64.544
	L341.636,64.544z M349.839,79.725c0-2.159-0.339-4.036-1.009-5.624c-0.677-1.581-1.64-2.777-2.887-3.596
	c-1.248-0.812-2.688-1.217-4.308-1.217c-1.148,0-2.217,0.228-3.192,0.674c-0.982,0.454-1.825,1.107-2.529,1.967
	c-0.703,0.859-1.261,1.959-1.673,3.293c-0.404,1.341-0.61,2.84-0.61,4.503c0,1.684,0.206,3.197,0.61,4.558
	c0.412,1.354,0.989,2.482,1.732,3.375c0.744,0.894,1.6,1.561,2.563,2.001c0.969,0.447,2.024,0.667,3.179,0.667
	c1.48,0,2.834-0.385,4.075-1.148c1.235-0.764,2.217-1.946,2.954-3.548C349.474,84.035,349.839,82.062,349.839,79.725L349.839,79.725
	z M368.39,81.952h-2.024v9.475c0,1.251-0.265,2.165-0.796,2.756s-1.229,0.887-2.078,0.887c-0.922,0-1.639-0.309-2.144-0.928
	c-0.504-0.619-0.757-1.52-0.757-2.715V68.704c0-1.286,0.279-2.221,0.836-2.798c0.559-0.578,1.461-0.866,2.702-0.866h9.392
	c1.294,0,2.402,0.055,3.325,0.172s1.752,0.344,2.489,0.694c0.896,0.392,1.686,0.949,2.376,1.671c0.684,0.729,1.207,1.574,1.56,2.53
	c0.358,0.963,0.537,1.98,0.537,3.06c0,2.2-0.597,3.96-1.798,5.28c-1.202,1.313-3.021,2.248-5.456,2.798
	c1.022,0.564,2.004,1.396,2.94,2.496c0.929,1.1,1.766,2.276,2.495,3.514c0.73,1.244,1.301,2.358,1.712,3.362
	c0.405,0.997,0.611,1.685,0.611,2.063c0,0.385-0.119,0.77-0.358,1.155c-0.239,0.385-0.564,0.688-0.982,0.908
	c-0.411,0.22-0.896,0.33-1.44,0.33c-0.644,0-1.188-0.158-1.633-0.475c-0.438-0.316-0.816-0.715-1.135-1.196s-0.75-1.196-1.294-2.131
	l-2.316-3.988c-0.83-1.458-1.573-2.571-2.224-3.334c-0.657-0.77-1.32-1.292-1.998-1.574
	C370.262,82.089,369.412,81.952,368.39,81.952L368.39,81.952z M371.695,69.535h-5.33v8.127h5.171c1.387,0,2.555-0.124,3.504-0.372
	c0.942-0.248,1.666-0.674,2.164-1.272s0.75-1.423,0.75-2.468c0-0.825-0.199-1.547-0.604-2.173c-0.397-0.625-0.955-1.093-1.672-1.402
	C375.007,69.68,373.68,69.535,371.695,69.535L371.695,69.535z M405.811,69.989h-6.299v21.437c0,1.237-0.266,2.152-0.804,2.75
	c-0.53,0.598-1.221,0.894-2.064,0.894c-0.855,0-1.56-0.303-2.097-0.908c-0.538-0.605-0.81-1.513-0.81-2.736V69.989h-6.299
	c-0.989,0-1.719-0.227-2.196-0.674c-0.479-0.454-0.725-1.052-0.725-1.794c0-0.763,0.253-1.368,0.75-1.815
	c0.498-0.447,1.222-0.667,2.171-0.667h18.372c1.002,0,1.738,0.227,2.229,0.688c0.484,0.461,0.73,1.059,0.73,1.794
	c0,0.742-0.252,1.34-0.744,1.794C407.536,69.762,406.799,69.989,405.811,69.989L405.811,69.989z M412.414,91.426V68.167
	c0-1.21,0.266-2.111,0.797-2.716c0.53-0.605,1.221-0.908,2.063-0.908c0.863,0,1.566,0.296,2.104,0.894
	c0.537,0.598,0.81,1.505,0.81,2.729v23.259c0,1.223-0.272,2.131-0.81,2.736c-0.538,0.605-1.241,0.908-2.104,0.908
	c-0.829,0-1.513-0.303-2.051-0.915C412.687,93.543,412.414,92.636,412.414,91.426L412.414,91.426z M428.867,68.47l6.451,19.794
	l6.472-19.931c0.339-1.052,0.591-1.781,0.757-2.187c0.172-0.413,0.451-0.777,0.836-1.107c0.392-0.33,0.923-0.495,1.593-0.495
	c0.491,0,0.949,0.131,1.374,0.385c0.418,0.254,0.75,0.591,0.989,1.018c0.239,0.419,0.358,0.845,0.358,1.278
	c0,0.289-0.04,0.612-0.119,0.956c-0.073,0.337-0.173,0.674-0.286,1.004c-0.119,0.33-0.239,0.667-0.352,1.018l-6.896,19.292
	c-0.252,0.735-0.497,1.437-0.743,2.104c-0.245,0.66-0.531,1.245-0.855,1.753c-0.319,0.502-0.751,0.914-1.288,1.238
	c-0.538,0.323-1.194,0.481-1.971,0.481c-0.783,0-1.44-0.158-1.979-0.475c-0.537-0.316-0.969-0.729-1.301-1.244
	c-0.325-0.522-0.617-1.107-0.863-1.767c-0.245-0.654-0.491-1.355-0.736-2.09l-6.783-19.133c-0.119-0.344-0.238-0.688-0.358-1.025
	c-0.126-0.337-0.226-0.701-0.312-1.086c-0.087-0.392-0.126-0.722-0.126-0.99c0-0.681,0.266-1.306,0.796-1.87
	c0.531-0.564,1.201-0.846,2.005-0.846c0.982,0,1.679,0.31,2.084,0.935C428.024,66.105,428.442,67.102,428.867,68.47L428.867,68.47z
	 M464.058,64.544c2.96,0,5.495,0.619,7.613,1.863c2.117,1.238,3.723,3.004,4.812,5.294s1.633,4.978,1.633,8.064
	c0,2.283-0.299,4.359-0.896,6.222c-0.597,1.87-1.486,3.485-2.681,4.854c-1.195,1.368-2.655,2.414-4.395,3.142
	c-1.738,0.722-3.724,1.086-5.967,1.086c-2.229,0-4.228-0.371-5.986-1.121c-1.766-0.743-3.232-1.794-4.413-3.149
	c-1.182-1.354-2.071-2.984-2.675-4.895c-0.604-1.904-0.903-3.967-0.903-6.181c0-2.269,0.312-4.345,0.942-6.243
	c0.631-1.891,1.54-3.5,2.734-4.833c1.188-1.327,2.642-2.344,4.354-3.045C459.936,64.895,461.881,64.544,464.058,64.544
	L464.058,64.544z M472.261,79.725c0-2.159-0.338-4.036-1.008-5.624c-0.678-1.581-1.64-2.777-2.888-3.596
	c-1.248-0.812-2.688-1.217-4.308-1.217c-1.148,0-2.217,0.228-3.192,0.674c-0.982,0.454-1.825,1.107-2.529,1.967
	c-0.703,0.859-1.261,1.959-1.672,3.293c-0.405,1.341-0.61,2.84-0.61,4.503c0,1.684,0.205,3.197,0.61,4.558
	c0.411,1.354,0.989,2.482,1.732,3.375c0.743,0.894,1.599,1.561,2.562,2.001c0.969,0.447,2.024,0.667,3.179,0.667
	c1.48,0,2.835-0.385,4.076-1.148c1.234-0.764,2.217-1.946,2.953-3.548C471.896,84.035,472.261,82.062,472.261,79.725L472.261,79.725
	z M149.166,68.167v21.499h11.903c0.945,0,1.673,0.234,2.18,0.701c0.513,0.474,0.762,1.066,0.762,1.774
	c0,0.722-0.25,1.313-0.749,1.76c-0.499,0.447-1.235,0.674-2.193,0.674h-14.177c-1.275,0-2.193-0.289-2.753-0.866
	s-0.843-1.513-0.843-2.798V68.167c0-1.203,0.27-2.111,0.803-2.716s1.235-0.908,2.105-0.908c0.877,0,1.592,0.296,2.139,0.894
	C148.889,66.036,149.166,66.95,149.166,68.167L149.166,68.167z M165.893,82.365V68.167c0-1.21,0.27-2.111,0.803-2.716
	c0.534-0.605,1.235-0.908,2.105-0.908c0.904,0,1.626,0.303,2.159,0.908c0.533,0.605,0.803,1.513,0.803,2.716v14.527
	c0,1.65,0.182,3.032,0.546,4.139c0.358,1.107,1.005,1.966,1.923,2.578c0.924,0.612,2.213,0.915,3.873,0.915
	c2.294,0,3.914-0.619,4.865-1.863c0.951-1.245,1.424-3.128,1.424-5.651V68.167c0-1.217,0.263-2.131,0.79-2.729
	s1.235-0.894,2.119-0.894c0.877,0,1.593,0.296,2.139,0.894s0.823,1.512,0.823,2.729v14.197c0,2.31-0.223,4.242-0.661,5.782
	c-0.446,1.547-1.275,2.901-2.503,4.07c-1.053,0.99-2.281,1.712-3.678,2.172c-1.396,0.454-3.03,0.681-4.899,0.681
	c-2.227,0-4.143-0.248-5.756-0.736c-1.606-0.488-2.915-1.251-3.927-2.275c-1.019-1.024-1.761-2.345-2.24-3.946
	C166.129,86.51,165.893,84.592,165.893,82.365L165.893,82.365z M208.998,94.575h-8.86c-1.282,0-2.193-0.289-2.74-0.873
	s-0.823-1.519-0.823-2.791V68.704c0-1.299,0.284-2.234,0.844-2.805c0.56-0.571,1.464-0.859,2.719-0.859h9.393
	c1.384,0,2.584,0.089,3.597,0.261c1.019,0.179,1.93,0.509,2.732,1.011c0.688,0.412,1.289,0.942,1.822,1.581
	c0.526,0.64,0.924,1.341,1.201,2.111c0.277,0.777,0.418,1.588,0.418,2.447c0,2.957-1.451,5.123-4.352,6.49
	c3.812,1.238,5.715,3.637,5.715,7.212c0,1.65-0.418,3.143-1.248,4.462c-0.83,1.327-1.95,2.303-3.36,2.929
	c-0.884,0.378-1.896,0.646-3.043,0.797C211.866,94.499,210.523,94.575,208.998,94.575L208.998,94.575z M208.559,81.457h-6.113v8.622
	h6.309c3.975,0,5.958-1.458,5.958-4.373c0-1.492-0.513-2.571-1.545-3.245C212.142,81.794,210.604,81.457,208.559,81.457
	L208.559,81.457z M202.446,69.535v7.631h5.384c1.464,0,2.592-0.144,3.388-0.426c0.803-0.282,1.411-0.818,1.835-1.609
	c0.331-0.563,0.493-1.196,0.493-1.891c0-1.492-0.52-2.482-1.565-2.97c-1.039-0.488-2.632-0.736-4.764-0.736H202.446L202.446,69.535z
	 M486.102,104.282l34.208-49.17H295.216H70.122l34.208,49.17H486.102L486.102,104.282z M295.216,398.828L171.642,221.205
	L48.069,43.583h247.146h247.146L418.789,221.205L295.216,398.828z"/>
</svg>
