<?xml version="1.0" encoding="utf-8"?>
<!-- Generator: Adobe Illustrator 16.0.3, SVG Export Plug-In . SVG Version: 6.00 Build 0)  -->
<!DOCTYPE svg PUBLIC "-//W3C//DTD SVG 1.1//EN" "http://www.w3.org/Graphics/SVG/1.1/DTD/svg11.dtd">
<svg version="1.1" id="Calque_1" xmlns="http://www.w3.org/2000/svg" xmlns:xlink="http://www.w3.org/1999/xlink" x="0px" y="0px"
	 width="428.032px" height="462.246px" viewBox="0 0 428.032 462.246" enable-background="new 0 0 428.032 462.246"
	 xml:space="preserve">
<g>
	<g id="fond">
		<path id="fondrouge" fill="#D3072A" d="M214.008,32.937c-124.98,0-158.821,36.321-160.224,37.881
			c-0.391,0.629-26.749,45.609-20.122,111.932c6.109,61.131,42.235,153.383,179.766,245.997l0.579,0.437l0.594-0.437
			C352.125,336.133,388.249,243.881,394.36,182.75c6.631-66.323-19.729-111.303-20.008-111.75
			C372.875,69.258,338.995,32.937,214.008,32.937z"/>
		<path id="contourext" fill="#FFFFFF" d="M378.096,67.478l-0.037-0.047l-0.037-0.045c-1.391-1.597-35.68-39.033-164.014-39.033
			c-127.743,0-162.463,37.249-163.896,38.843c-0.346,0.509-27.469,46.718-20.672,114.654
			c6.237,62.452,43.146,156.786,183.604,251.367l0.965,0.676l0.968-0.676c140.463-94.58,177.391-188.915,183.611-251.367
			C405.387,114.028,378.372,67.924,378.096,67.478z M394.36,182.75c-6.111,61.131-42.234,153.383-179.758,245.997l-0.594,0.437
			l-0.579-0.437C75.898,336.133,39.771,243.881,33.663,182.75c-6.627-66.323,19.73-111.303,20.122-111.932
			c1.403-1.56,35.244-37.881,160.224-37.881c124.988,0,158.867,36.321,160.343,38.063C374.631,71.447,400.991,116.427,394.36,182.75
			z"/>
	</g>
	<g id="contour">
		<path id="contourbas" fill="#FFFFFF" d="M214.008,49.121c65.343,0,103.743,10.671,124.901,20.078h6.912
			c1.869,0,3.629,0.054,5.332,0.136C332.196,58.711,291.762,43.84,214.008,43.84c-77.518,0-117.944,14.781-136.943,25.359h12.041
			C110.26,59.808,148.685,49.121,214.008,49.121z"/>
		<path id="contourhaut" fill="#FFFFFF" d="M381.891,127.608V138.9c0,2.003-0.389,5.402-2.498,8.912
			c1.01,11.263,1.146,23.688-0.189,37.082c-5.619,56.26-38.895,141.165-165.195,227.006
			C87.693,326.047,54.432,241.152,48.823,184.894c-2.328-23.342-0.259-43.718,3.204-60.026v-20.231
			c-6.062,18.665-11.854,46.756-8.459,80.782c5.754,57.717,39.911,144.942,169.883,232.479l0.557,0.375l0.554-0.375
			c129.976-87.537,164.136-174.763,169.897-232.479C386.661,163.325,384.989,143.736,381.891,127.608z"/>
	</g>
	<g id="grpchouette">
		<g id="tete">
			<path fill="#FFFFFF" d="M240.715,271.895c-0.391-2.084-6.975-6.011-9.666-6.362c-7.162-0.914,5.908-3.78,4.734-4.702
				c-5.178-4.575-4.58-5.951-4.58-5.951c-9.257-3.199-10.19-4.999-10.19-4.999c-7.414-1.538-17.999,1.044-18.038,1.058
				c-2.862,1.279-4.195,1.948-4.738,2.176c0.535,0.027,2.046,0.205-3.326,2.025c-2.248,0.733,0.825,7.613-0.838,10.008
				c-1.807,2.523-7.021,6.461-7.201,7.955c-0.793,6.619,5.141,19.978,7.811,23.912c3.677,5.459,5.62,9.657,8.204,11.709
				c10.631,9.896,18.979,2,20.07,0.973c4.502-4.234,5.653-6.678,8.457-10.612c1.488-2.036,8.195-14.696,8.963-18.862
				C240.963,277.239,240.663,271.602,240.715,271.895z M198.065,266.094c5.069-2.07,2.356-2.648,3.674-3.625
				c2.041-1.589-5.088-0.316-3.596-1.496c4.763-3.649,0.38-4.119,0.38-4.119c-0.015-1.51,6.4,1.849,7.014-2.946
				c0.006-0.026,4.54-0.228,8.283-0.904c4.153-0.812,4.755,2.26,8.271,2.097c0,0,0,2.012,2.863,3.049c0,0,2.486-0.674,4.278,0.512
				c1.082,0.669-6.618,0.958-3.206,3.816c0.629,0.527-5.914,0.623-3.328,2.396c2.327,1.545,7.949,2.318,8.371,3.447
				c-1.848-0.516,1.037,1.881-1.761,1.623c-5.835-0.554-13.672,5.783-13.397,7.518c-0.535-3.281-9.084-7.08-18.079-8.08
				c-2.226-0.104-1.703-0.125-3.96,0.083C195.159,268.02,195.838,266.993,198.065,266.094z M235.396,283.617
				c0,0-2.849,6.747-6.575,13.089c-3.931,6.688-8.588,10.739-8.588,10.739s-4.471,3.707-10.377,1.475c0,0-1.54-0.176-5.999-4.102
				c-4.423-3.988-7.112-9.95-7.112-9.95s-9.626-20.769-4.508-20.937c0,0,7.814-1.029,13.403,1.991c0,0,7.846,2.761,9.624,7.175
				c0,0,4.393-4.342,9.195-6.818c4.818-2.555,6.054-3.867,12.998-3.037C237.458,273.242,237.54,278.871,235.396,283.617z"/>
			<path fill="#FFFFFF" d="M192.841,278.215l8.697,2.885c0,0-1.354,6.375,3.97,6.694c0,0,1.005-0.206,1.792,0.924
				c1.135,1.709,3.818,8.188,3.829,8.482c0,0,1.659-10.136-5.163-15.28C200.046,277.482,192.841,278.215,192.841,278.215z"/>
			<path fill="#FFFFFF" d="M235.511,278.652l-7.433,3.287c0,0,3.002,5.938-5.162,7.057c-0.746,0.104-5.858,8.038-5.908,8.418
				c0,0,1.195-10.949,5.482-14.383C228.456,278.404,235.511,278.652,235.511,278.652z"/>
			<path fill="#FFFFFF" d="M216.187,302.061c-0.048,1.916-1.957,4.86-2.383,4.877c-0.426-0.019-1.573-3.246-1.526-5.166
				c0.075-1.924,1.436-2.623,1.862-2.61C214.575,299.178,216.26,300.145,216.187,302.061z"/>
		</g>
		<g id="pattedroite">
			<path fill="#FFFFFF" d="M201.311,342.132c-6.507,0-11.604,20.778-11.218,18.104C190.093,360.236,203.427,350.292,201.311,342.132
				z"/>
			<path fill="#FFFFFF" d="M203.37,360.107l4.672-10.851C208.042,349.257,209.535,359.186,203.37,360.107z"/>
			<path fill="#FFFFFF" d="M205.218,389.846c7.25-0.613,9.689-4.187,6.766-8.391c-0.452-0.648-2.477-1.368-2.833-2.173
				c0.56-0.607,0.153-4.636-0.217-5.759c-0.448-1.644-3.156-2.403-3.674-3.58c-0.523-1.17-1.091-3.354-1.889-5.068
				c-6.258-13.199-11.527-1.521-6.758,0.671c-0.976-0.446,0.847-2.39,1.655-2.325c0.446,0.926-0.54,0.887,0.346,3.575
				c1.716,4.847,3.356,2.663,0.528,3.242c-4.303,1.987-8.724-6.61-12.495-6.437c-8.429,0.391-3.797,7.754-3.554,7.91
				c0.072-4.139,2.208-4.731,2.75-4.589c-0.505,2.429,1.329,3.394,3.851,3.966c2.479,0.563,3.042,3.461,3.024,3.526
				c-1.098,0.224-6.099,2.345-7.924,2.917c-6.781,2.016-5.022,8.027-4.786,7.781c0.017-1.398,2.327-3.412,4.415-3.621
				c1.08,0.293,1.642,2.158,4.42,1.109c3.609-1.393,2.994-2.588,4.912-2.806c2.397-0.271,2.987,2.002,4.859,1.275
				c3.205-0.163,5.323-1.507,6.104-1.021c1.636,1.028-0.107,0.455,0,2.678c0.128,2.645,2.514,2.48,2.875,3.187
				C207.593,385.917,208.329,387.223,205.218,389.846z"/>
		</g>
		<g id="pattegauche">
			<path fill="#FFFFFF" d="M227.157,342.132c6.506,0,11.604,20.778,11.217,18.104C238.374,360.236,225.04,350.292,227.157,342.132z"
				/>
			<path fill="#FFFFFF" d="M223.276,356.729l-4.673-10.851C218.603,345.878,217.111,355.807,223.276,356.729z"/>
			<path fill="#FFFFFF" d="M223.249,389.846c-7.25-0.613-9.688-4.187-6.766-8.391c0.451-0.648,2.477-1.368,2.833-2.173
				c-0.56-0.607-0.151-4.636,0.218-5.759c0.447-1.644,3.155-2.403,3.674-3.58c0.522-1.17,1.092-3.354,1.89-5.068
				c6.258-13.199,11.526-1.521,6.758,0.671c0.976-0.446-0.847-2.39-1.655-2.325c-0.445,0.926,0.54,0.887-0.346,3.575
				c-1.716,4.847-3.355,2.663-0.527,3.242c4.303,1.987,8.725-6.61,12.493-6.437c8.431,0.391,3.798,7.754,3.556,7.91
				c-0.072-4.139-2.209-4.731-2.75-4.589c0.504,2.429-1.33,3.394-3.852,3.966c-2.479,0.563-3.042,3.461-3.023,3.526
				c1.098,0.224,6.1,2.345,7.924,2.917c6.781,2.016,5.021,8.027,4.785,7.781c-0.017-1.398-2.326-3.412-4.414-3.621
				c-1.08,0.293-1.643,2.158-4.42,1.109c-3.609-1.393-2.994-2.588-4.912-2.806c-2.396-0.271-2.986,2.002-4.858,1.275
				c-3.204-0.163-5.323-1.507-6.104-1.021c-1.636,1.028,0.106,0.455,0,2.678c-0.127,2.645-2.515,2.48-2.875,3.187
				C220.874,385.917,220.138,387.223,223.249,389.846z"/>
		</g>
		<g id="chouettedate">
			<path fill="#FFFFFF" d="M375.231,161.463c-0.197-0.018-46.65-3.052-87.139,11.615c-1.108,0.4-16.25,7.643-24.629,13.084v-5.18
				c0-0.597-0.127-1.574-0.801-2.59c0.521-0.832,0.801-1.788,0.801-2.804V168.3c0-2.784-1.434-7.451-11.021-7.451h-8.354
				c-3.465,0-6.153,0.608-8.022,1.81c-0.58-0.393-1.231-0.717-1.967-0.971c-1.449-0.571-3.438-0.839-6.244-0.839H219.5
				c-2.35,0-4.354,0.342-6.121,1.041c-0.635,0.247-1.207,0.538-1.729,0.864c-0.607-0.439-1.299-0.795-2.063-1.056
				c-1.49-0.582-3.49-0.85-6.297-0.85h-8.307c-2.344,0-4.426,0.349-6.201,1.048c-0.75,0.299-1.424,0.66-2.014,1.078
				c-0.576-0.381-1.225-0.711-1.93-0.984c-1.783-0.754-3.846-1.141-6.133-1.141h-15.438l7.547,12.364h2.098v18.882
				c-0.77-0.59-1.484-1.179-2.008-1.748c-2.166-2.363-29.035-16.69-30.535-17.27c-37.946-14.658-86.941-11.633-87.136-11.615
				l1.11,2.408c-1.032,4.174-3.927,14.967,7.288,18.987c-0.842,4.902-1.808,14.898,8.021,18.461c0,0,0.424,0.144,0.604,0.234
				c-0.023,4.9,2.524,14.181,15.5,19.206c1.186,6.469,5.516,18.592,21.5,22.776c0.947,8.438,4.176,22.676,24.89,25.715
				c0.336,0.771,0.68,1.533,1.027,2.258c0.463,1.056,1.594-0.668,2.082,0.338c3.688,7.482,7.148,19.05,13.266,25.599
				c0.283,0.27,0.574,0.539,0.818,0.86c4.949,5.076,9.41,13.021,16.125,15.865c0.248,0.099,0.467,0.185,0.709,0.328
				c0.412-0.293,0.805,0.112,1.232-0.188c3.885-2.277,13.721-7.949,17.121-9.566c1.508,3.123,2.119,3.684,2.688,7.266
				c-18.393,7.504-37.57,29.787-37.938,30.334c-1.625,2.416,1.342,9.406,14.688,11.518c1.791,2.943,6.145,6.367,13.375,5.863
				c1.066,1.066,3.367,1.351,5.338,2.279h4.908c-1.361-0.377-2.52-3.152-4.121-3.658l-0.875-2.039
				c0.563-3.551,5.41-8.725,7.75-19.758c0,0-14.488,19.797-13.859,20.52c-3.207-0.813-4.414-2.032-7.498-5.063l0.768-1.584
				c6.164-8.76,17.879-23.318,19.338-27.342c0,0-25.852,25.342-24.955,27.203c-2.992-1.574-6.654-2.703-8.826-7.514
				c0,0,22.68-23.705,33.123-27.908c0.1,0.967,1.844,7.127,1.639,7.885c0.242-0.697,2.953-4.074,3.039-5.373
				c0.762-2.275-0.502-10.09-2.039-15.377c-0.432-1.484-4.729-11.25-5.979-9.342c-0.129,0.197-1.834,7.182-1.834,7.182
				c-5.135,1.932-11.439,7.455-15.041,7.648c-2.375,0.127-5.15-4.563-11.799-12.068c3.576-9.576,8.852-20.947,20.461-39.813
				c-6.961,11.313-22.426,23.061-25.922,33.481c-4.693-5.479-7.021-9.272-11.789-18.041c0.352-0.633,0.695-1.197,1.035-1.808
				c1.354,0.063,2.762,0.091,4.27,0.07c0,0-1.539-0.125-3.969-0.674c9.531-17.063,16.523-26.461,38.852-38.526
				c0,0-35.598,7.012-43.855,33.866c-1.957-3.787-1.92-4.248-3.781-8.729c-0.152-0.418-0.328-0.783-0.469-1.212
				c-1.441-3.526-2.846-7.303-4.172-11.313c0,0,0.762,4.298,2.662,10.687c0.123,0.406,0.275,0.881,0.402,1.297
				c1.111,3.648,2.563,7.814,4.412,12.236c-8.533-2.966-17.474-8.89-21.796-23.742c0.711,0.149,1.428,0.295,2.16,0.408
				c0,0-0.609-0.293-1.666-0.918c10.867-7.923,17.349-12.178,26.322-14.785c4.248,1.475,11.014,1.625,15.914,2.666
				c0,0-4.164-1.485-10.557-4.684c8.744-2.274,14.691-2.578,14.691-2.578c0.648-4.052-9.158-2.75-21.334-0.305
				c-2.412,0.484-9.787-6.144-18.312-12.908c12.027-1.674,20.306-1.262,20.306-1.262c4.275-3.719-9.648-3.318-23.691-1.24
				c-0.844,0.125-6.95-6.012-11.816-11.492c13.275-0.195,22.015,0.296,22.015,0.296c3.336-2.927-9.599-3.737-24.212-2.782
				c-3.523-4.051-3.59-5.121-7.998-11.334c1.011,1.424,12.665,0.291,12.665,0.291c3.09-2.709-4.405-3.713-14.82-3.619
				c-1.436-2.334-3.372-5.32-4.667-7.818c0,0-0.188,3.414,1.586,7.848c-9.51,0.152-19.164,0.722-25.003,2.053
				c-0.003-0.655-0.561-2.572-0.5-3.251c0,0-0.831,1.828-1.144,3.101l-0.106,0.022c-3.057-2.96-7.367-8.23-7.808-15.864
				c52.973,0.759,89.128,22.298,113.4,32.775c13.486,16.152,17.738,19.359,41.836,50.309c0,0,0.889-17.103-32.58-52.395h12.369
				v-5.713l3.523,5.708h9.959c2.305,0,4.33-0.37,6.178-1.132c3.174-1.257,4.342-3.23,4.734-4.835l3.645,5.967h10.006
				c2.297,0,4.377-0.388,6.129-1.13c0.774-0.299,1.463-0.66,2.07-1.074c0.569,0.374,1.217,0.704,1.93,0.99
				c1.83,0.806,3.886,1.214,6.104,1.214h6.939c-33.473,35.296-32.584,52.4-32.584,52.4c24.098-30.95,28.35-34.157,41.836-50.309
				c24.271-10.478,60.428-32.017,113.4-32.775c-0.441,7.634-4.752,12.904-7.809,15.864l-0.107-0.022
				c-0.313-1.272-1.143-3.101-1.143-3.101c0.061,0.679-0.496,2.596-0.5,3.251c-5.838-1.331-15.492-1.9-25.004-2.053
				c1.771-4.434,1.588-7.848,1.588-7.848c-1.297,2.498-3.232,5.484-4.668,7.818c-10.414-0.094-17.91,0.91-14.82,3.619
				c0,0,11.654,1.133,12.666-0.291c-4.41,6.213-4.475,7.283-8,11.334c-14.611-0.955-27.547-0.145-24.211,2.782
				c0,0,8.74-0.491,22.016-0.296c-4.867,5.48-10.973,11.617-11.818,11.492c-14.041-2.078-27.965-2.479-23.688,1.24
				c0,0,8.278-0.412,20.308,1.262c-8.525,6.765-15.9,13.393-18.314,12.908c-12.176-2.445-21.981-3.747-21.334,0.305
				c0,0,5.947,0.304,14.691,2.578c-6.393,3.198-10.557,4.684-10.557,4.684c4.9-1.041,11.666-1.191,15.914-2.666
				c8.973,2.606,15.455,6.862,26.322,14.785c-1.057,0.625-1.666,0.918-1.666,0.918c0.73-0.113,1.447-0.259,2.16-0.408
				c-4.322,14.854-13.266,20.776-21.797,23.742c1.85-4.422,3.301-8.588,4.412-12.236c0.127-0.416,0.275-0.891,0.4-1.297
				c1.9-6.389,2.662-10.687,2.662-10.687c-1.326,4.013-2.73,7.787-4.172,11.314c-0.141,0.428-0.315,0.793-0.471,1.211
				c-1.861,4.481-1.822,4.942-3.781,8.729c-8.256-26.854-43.854-33.866-43.854-33.866c22.328,12.065,29.32,21.463,38.852,38.526
				c-2.43,0.549-3.969,0.674-3.969,0.674c1.508,0.021,2.916-0.008,4.27-0.07c0.341,0.609,0.685,1.175,1.035,1.808
				c-4.768,8.769-7.096,12.563-11.789,18.041c-3.496-10.422-18.961-22.17-25.922-33.481c11.609,18.864,16.885,30.235,20.461,39.813
				c-6.647,7.506-9.424,12.195-11.799,12.068c-3.602-0.193-9.906-5.717-15.041-7.648c0,0-1.705-6.984-1.834-7.182
				c-1.25-1.908-5.547,7.856-5.979,9.342c-1.537,5.287-2.936,12.102-2.174,14.377c0.086,1.299,2.797,4.676,3.037,5.373
				c-0.203-0.758,1.676-5.918,1.774-6.885c10.443,4.203,33.123,27.908,33.123,27.908c-2.172,4.811-5.834,5.938-8.825,7.514
				c0.896-1.861-24.955-27.203-24.955-27.203c1.459,4.023,13.174,18.582,19.338,27.342l0.768,1.584
				c-3.084,3.029-4.291,4.248-7.498,5.063c0.629-0.723-13.859-20.52-13.859-20.52c2.34,11.033,7.188,16.207,7.75,19.758
				l-0.875,2.039c-1.602,0.506-2.76,3.281-4.121,3.658h4.908c1.971-0.93,4.271-1.213,5.338-2.279
				c7.23,0.504,11.584-2.92,13.375-5.863c13.346-2.11,16.313-9.102,14.688-11.518c-0.367-0.547-19.545-22.83-37.938-30.334
				c0.568-3.582,1.18-4.143,2.688-7.266c3.399,1.617,13.235,7.289,17.121,9.566c0.428,0.303,0.819-0.104,1.231,0.188
				c0.242-0.146,0.461-0.229,0.709-0.328c6.715-2.844,11.176-10.789,16.125-15.864c0.244-0.322,0.535-0.593,0.818-0.861
				c6.117-6.549,9.578-18.115,13.266-25.598c0.486-1.007,1.617,0.717,2.082-0.339c0.346-0.725,0.691-1.485,1.027-2.258
				c20.715-3.039,23.943-17.274,24.891-25.715c15.984-4.185,20.314-16.307,21.5-22.776c12.975-5.025,15.521-14.306,15.5-19.206
				c0.18-0.091,0.604-0.234,0.604-0.234c9.828-3.563,8.861-13.559,8.021-18.461c11.215-4.021,8.318-14.813,7.287-18.987
				L375.231,161.463z M130.894,225.227c-10.53,3.58-12.551,5.072-20.489,13.231l-1.063-0.19c-0.417-1.597-1.069-1.988-1.313-3.824
				c0,0-0.759,1.639-0.54,4.336c-5.151-3.242-13.111-7.715-18.229-18.06c0.568,0.202,1.593-0.066,2.164,0.126
				c0,0-0.448-1.648-1.5-1.359c10.048-2.761,16.94-6.063,24.641-7.616C121.483,217.699,123.225,221.154,130.894,225.227z
				 M111.445,209.235c-8.918,2.116-17.059,4.651-23.535,7.529c-0.363-0.886,0.318-1.672,0.016-2.634c0,0-1.723,1.491-1.51,3.105
				c-4.154-3.583-9.422-7.497-11.902-14.527c0.247,0.089,3.198-0.189,3.454-0.135c0,0-1.208-0.803-1.75-1.275
				c-0.054-0.172-0.673-0.473-0.853-0.443c12.837-2.029,16.572-3.95,24.595-4.417C103.482,201.532,105.504,204.162,111.445,209.235z
				 M90.59,181.971c1.588,3.808,3.969,6.836,7.457,12.01c-9.441,0.834-18.987,2.38-24.765,4.529
				c-0.103-0.441-0.174-0.917-0.222-1.352c0,0-0.129,0.58-0.25,1.502c-0.176,0.068-0.359,0.172-0.549,0.239
				c-2.914-2.87-6.449-6.765-7.174-13.952c0.508,0.179,2.17-0.089,2.755,0.035c0,0-1.95-1.084-2.972-2.012
				c-0.009-0.078,0.07-0.265-0.009-0.269C78.176,183.367,82.458,182.059,90.59,181.971z M244.088,193.982
				c-1.862,0-3.731-0.33-5.434-1.084c-1.197-0.472-2.039-1.035-2.631-1.627c-0.588,0.629-1.443,1.22-2.674,1.697
				c-1.629,0.691-3.467,1.014-5.496,1.014h-9.027l-5.422-8.873c0,0,8.592,0,10.42,0c0-0.896,0-1.486,0-2.43
				c-1.484,0-4.324,0-4.324,0c-1.172,0-2.391-0.146-3.52-0.413c-1.252-0.318-2.4-0.763-3.344-1.408v7.413
				c0,1.453-0.672,3.459-3.809,4.697c-1.684,0.691-3.516,1.014-5.537,1.014h-8.986l-5.479-8.873c0,0,8.594,0,10.422,0
				c0-0.896,0-1.486,0-2.43c-1.486,0-4.264,0-4.264,0c-1.234,0-2.445-0.146-3.512-0.413c-1.309-0.317-2.461-0.759-3.408-1.401
				v13.119h-12.629h-0.777c0,0,0-0.213,0-0.584c0-3.324,0-19.961,0-21.927c-0.982,0-2.863,0-2.863,0l-5.42-8.88h12.332
				c2.02,0,3.846,0.323,5.453,1.002c1.207,0.469,2.059,1.041,2.648,1.65c0.58-0.644,1.418-1.247,2.627-1.732
				c1.605-0.633,3.492-0.92,5.549-0.92h8.307c2.465,0,4.344,0.217,5.664,0.729c1.213,0.421,2.031,1.028,2.592,1.711
				c0.576-0.563,1.369-1.089,2.467-1.521c1.598-0.633,3.426-0.92,5.486-0.92h8.354c2.475,0,4.363,0.217,5.637,0.729
				c1.158,0.396,1.973,0.96,2.539,1.599c1.277-1.338,3.693-2.328,8.059-2.328h8.354c7.654,0,9.279,3.074,9.279,5.706v7.289
				c0,1.117-0.496,2.107-1.394,2.823c1.103,0.875,1.394,1.849,1.394,2.57v6.322v0.967c0,2.561-1.554,5.531-8.671,5.695
				c-0.204,0.005-0.396,0.016-0.608,0.016h-8.354V193.982z M320.975,238.777c0.221-2.696-0.541-4.336-0.541-4.336
				c-0.24,1.836-0.895,2.229-1.313,3.824l-1.063,0.191c-7.938-8.159-9.959-9.651-20.49-13.231c7.67-4.072,9.412-7.527,16.33-13.357
				c7.699,1.553,14.592,4.855,24.639,7.616c-1.051-0.289-1.5,1.359-1.5,1.359c0.572-0.192,1.598,0.076,2.166-0.126
				C334.086,231.063,326.125,235.536,320.975,238.777z M342.049,217.236c0.213-1.614-1.512-3.105-1.512-3.105
				c-0.303,0.962,0.381,1.748,0.018,2.634c-6.477-2.878-14.615-5.413-23.537-7.529c5.943-5.073,7.967-7.703,11.486-12.797
				c8.021,0.467,11.758,2.388,24.594,4.417c-0.18-0.029-0.797,0.271-0.852,0.443c-0.543,0.473-1.75,1.275-1.75,1.275
				c0.256-0.055,3.207,0.224,3.455,0.135C351.471,209.739,346.206,213.653,342.049,217.236z M363.594,182.971
				c-1.02,0.928-2.973,2.012-2.973,2.012c0.586-0.124,2.248,0.144,2.754-0.035c-0.723,7.188-4.258,11.082-7.172,13.952
				c-0.189-0.067-0.375-0.171-0.549-0.239c-0.121-0.922-0.25-1.502-0.25-1.502c-0.049,0.435-0.119,0.91-0.223,1.352
				c-5.777-2.149-15.322-3.695-24.764-4.529c3.488-5.174,5.867-8.202,7.457-12.01c8.131,0.088,12.412,1.396,25.727,0.731
				C363.526,182.706,363.602,182.893,363.594,182.971z"/>
			<path fill="#FFFFFF" d="M210.161,168.299c0-0.027,0.002-0.055,0.002-0.083c-0.026-1.292-0.635-2.087-2.032-2.609
				c-1.074-0.406-2.674-0.584-4.839-0.584h-8.307c-1.784,0-3.328,0.293-4.673,0.764c-2.026,0.792-2.247,1.826-2.247,2.512v0.002
				v8.76c0,0.208,0,0.861,1.25,1.687c0.738,0.528,1.633,0.878,2.706,1.163c0.965,0.221,1.917,0.337,2.964,0.337h6.746v7.292
				c0,0-5.909,0-8.529,0c1.04,1.62,2.048,3.353,2.463,4.018c1.143,0,7.628,0,7.628,0c1.665,0,3.195-0.324,4.572-0.912
				c2.303-0.872,2.303-1.937,2.303-2.374v-11.107c-0.001-0.035-0.007-0.067-0.007-0.103V168.299L210.161,168.299z M201.731,176.323
				h-5.152v-7.292h5.152V176.323z"/>
			<path fill="#FFFFFF" d="M183.26,165.864c-1.356-0.521-2.888-0.839-4.55-0.839c0,0-5.255,0-7.955,0
				c0.985,1.626,2.05,3.351,2.425,4.012c0.863,0,3.976,0,3.976,0s0,20.326,0,22.522c1.661,0,6.752,0,8.422,0
				c0-2.211,0-23.258,0-23.258C185.578,167.868,185.578,166.801,183.26,165.864z"/>
			<path fill="#FFFFFF" d="M232.642,165.608c-1.006-0.406-2.604-0.584-4.787-0.584h-8.353c-1.729,0-3.278,0.293-4.611,0.764
				c-2.037,0.792-2.252,1.826-2.252,2.512v8.762c0,0.208,0,0.861,1.25,1.687c0.727,0.528,1.638,0.878,2.688,1.163
				c0.979,0.221,1.945,0.337,2.926,0.337h6.813v7.292c0,0-5.978,0-8.542,0c0.989,1.62,2.055,3.353,2.434,4.018
				c1.182,0,7.646,0,7.646,0c1.672,0,3.209-0.324,4.596-0.912c2.281-0.872,2.281-1.937,2.281-2.374v-19.972
				C234.732,166.956,234.086,166.141,232.642,165.608z M226.317,176.323h-5.179v-7.292h5.179V176.323z"/>
			<path fill="#FFFFFF" d="M256.883,191.009c1.603-0.524,2.134-1.323,2.305-1.966c0.083-0.312,0.087-0.587,0.087-0.772v-7.289
				c0-0.1,0-0.374-0.687-0.838c-0.455-0.385-1.002-0.578-1.611-0.653l0.154-2.417c0.606,0,1.15-0.21,1.6-0.535
				c0.4-0.239,0.544-0.557,0.544-0.95V168.3c0-0.799,0-3.275-6.831-3.275h-8.354c-6.868,0-6.868,2.477-6.868,3.275v7.289
				c0,0.277,0.055,0.633,0.584,0.938c0.385,0.268,0.969,0.49,1.664,0.547l0.038,2.417c-0.646,0.082-1.184,0.259-1.641,0.635
				c-0.646,0.445-0.646,0.736-0.646,0.856v7.289c0,0.381,0,1.402,2.337,2.349c1.445,0.602,2.961,0.938,4.531,0.938h8.354
				C254.467,191.557,255.879,191.336,256.883,191.009z M250.859,187.539h-5.229v-7.292h5.229V187.539z M250.859,176.323h-5.229
				v-7.292h5.229V176.323z"/>
			<path fill="#FFFFFF" d="M222.583,365.288c-10.438-13.476-6.395-31.294-6.395-31.294c-1.729,3.605-4.883,0-4.883,0
				c1.338,3.104,3.063,22.688-6.031,30c0,0,9.311,1.501,9.311-9.273C214.586,363.493,222.583,365.288,222.583,365.288z"/>
		</g>
	</g>
	<g id="typodfco">
		<path fill="#FFFFFF" d="M114.258,79.973H62.801v69.686h51.457c3.613,0,7.072-0.316,10.407-1.034
			c3.692-0.673,6.886-1.745,9.614-3.168c2.681-1.484,4.358-3.073,5.042-4.77V88.373C137.581,82.769,129.245,79.973,114.258,79.973z
			 M118.485,132.126c-1.916,1.905-5.273,2.008-5.979,2.008c-0.087,0-0.133,0-0.133,0H90.965V95.375h21.058
			c0,0,0.584-0.035,1.411-0.035c1.621,0,4.17,0.143,5.051,0.999c1.284,1.331,0.99,6.494,0.99,6.494v23.919
			C119.475,126.752,119.627,130.986,118.485,132.126z"/>
		<polygon fill="#FFFFFF" points="181.841,102.869 212.381,102.869 217.181,102.869 217.181,99.562 181.841,99.562 		"/>
		<path fill="#FFFFFF" d="M143.503,87.736v53.654v8.268h34.154V122.46h24.775l9.949-15.408h-34.724V95.375h39.523v-4.646
			c0-0.548,0.044-1.122,0.138-1.712v-9.044h-73.815V87.736z"/>
		<path fill="#FFFFFF" d="M113.434,99.524c-0.666,0-1.144,0.028-1.144,0.028l-0.134,0.01h-0.133H95.151v30.388h17.221l0.032-0.001
			l0.101,0.002c0.956,0,2.025-0.225,2.641-0.529c0.108-0.633,0.173-1.686,0.147-2.519l-0.001-0.075v-0.076v-23.919v-0.12
			l0.007-0.121c0.05-0.876,0.021-2.096-0.073-2.984C114.785,99.562,114.191,99.524,113.434,99.524z M113.21,102.476l-0.011,24.276
			l0.005,0.22c0.007,0.267,0.006,0.555-0.006,0.838c-0.209,0.028-0.431,0.047-0.648,0.051l-0.24-0.006l-15.069,0.006v-26.208h14.782
			l0.389-0.013c0.024,0,0.349-0.018,0.818-0.024C113.231,101.923,113.224,102.218,113.21,102.476z"/>
		<path fill="#FFFFFF" d="M342.139,99.562h-0.016H342.1h-12.932h-0.043l-0.074-0.003l-0.037-0.001c-0.145,0-0.295,0.007-0.434,0.02
			c0.002,0.082,0.01,0.162,0.014,0.234l0.076,0.299v0.488v27.884v0.117l-0.004,0.139c-0.023,0.367-0.01,0.82,0.027,1.207
			c0.244,0.025,0.547,0.043,0.912,0.043c0.396,0,0.678-0.021,0.678-0.021l0.18-0.018h0.186h10.727l0.129-0.014l0.23,0.028
			c0.02,0.004,0.047,0.004,0.072,0.004c0.332,0,0.621-0.048,0.824-0.102c0.061-0.391,0.104-0.912,0.096-1.319v-0.032v-0.033v-27.61
			l-0.01-0.185l0.035-0.285c0.025-0.241,0.031-0.536,0.016-0.807C342.547,99.575,342.329,99.562,342.139,99.562z M340.639,127.86
			h-9.875v-26.208h9.875V127.86z"/>
		<path fill="#FFFFFF" d="M367.225,76.884c-5.041-2.144-12.047-3.185-21.404-3.185h-26.088c-3.443,0-6.527,0.138-9.332,0.412
			l0.268-0.412h-63.846c-6.59,0-12.568,0.828-17.732,2.446c-2.045,0.603-3.877,1.327-5.498,2.165v-4.611H137.23v3.857
			c-0.47-0.239-0.958-0.465-1.46-0.678c-5.059-2.14-12.096-3.179-21.513-3.179h-57.73v82.233h57.731
			c4.19,0,8.005-0.376,11.603-1.145c4.215-0.78,8.025-2.048,11.37-3.796v4.94h46.701v-27.196h21.917l9.247-14.313V138.9
			c0,4.654,2.455,10.938,14.154,14.447c5.412,1.739,11.162,2.584,17.572,2.584h35.803l7.045-10.945
			c1.801,3.074,5.408,6.233,12.402,8.355c5.307,1.719,11.248,2.59,17.66,2.59h26.088c6.742,0,12.715-0.769,17.748-2.292
			c12.021-3.674,13.822-10.811,13.822-14.739V90.729C377.391,87.167,376.067,80.633,367.225,76.884z M375.293,138.9
			c0,4.093-2.139,9.623-12.336,12.739c-4.834,1.462-10.598,2.204-17.139,2.204h-26.088c-6.193,0-11.92-0.838-17.021-2.488
			c-9.235-2.803-11.986-7.34-12.487-11.082l-7.499,11.647l-1.24,1.922H279.2h-32.377c-6.191,0-11.729-0.813-16.936-2.487
			c-10.499-3.149-12.706-8.512-12.706-12.455v-31.569l-1.284,1.989l-9.952,15.407l-1.233,1.916h-2.279h-20.592v23.016v4.184h-4.183
			h-34.154h-4.183v-4.184v-2.528c-0.881,0.694-1.883,1.357-3.018,1.984l-0.043,0.024l-0.043,0.024
			c-3.116,1.626-6.727,2.826-10.735,3.567c-3.509,0.749-7.18,1.112-11.223,1.112H62.801h-4.183v-4.184V79.973v-4.181h4.183h51.457
			c9.129,0,15.901,0.985,20.699,3.013c1.775,0.751,3.206,1.619,4.364,2.553v-1.385v-4.181h4.183h73.815h4.18v4.181v2.179
			c1.879-1.525,4.508-2.918,8.187-3.999c4.991-1.568,10.765-2.361,17.14-2.361h52.326h7.682l-0.658,1.019
			c3.785-0.676,8.266-1.019,13.561-1.019h26.088c9.068,0,15.807,0.985,20.592,3.016c7.34,3.116,8.881,8.201,8.881,11.921V138.9
			H375.293z"/>
		<path fill="#FFFFFF" d="M345.821,79.973h-26.088c-7.105,0-12.705,0.638-16.834,1.9c-5.706,1.745-8.585,4.688-8.585,8.855v4.44
			v34.781v3.965v4.985c0,3.649,3.214,6.514,9.651,8.46c4.762,1.549,10.043,2.298,15.768,2.298h26.088
			c6.148,0,11.467-0.673,15.922-2.024c6.23-1.903,9.369-4.799,9.369-8.734v-48.17C371.112,83.547,362.655,79.973,345.821,79.973z
			 M345.911,132.681c-1.27,1.312-3.236,1.466-4.104,1.466c-0.271,0-0.434-0.013-0.434-0.013h-10.727c0,0-0.43,0.037-1.041,0.037
			c-1.242,0-3.25-0.151-4.113-1.046c-1.229-1.227-1.004-4.643-1.004-4.643v-27.884c0,0-0.541-2.717,1.004-4.259
			c0.918-0.9,2.947-0.964,3.521-0.964c0.102,0,0.154,0,0.154,0H342.1c0,0,0.012,0,0.025,0c0.256,0,2.813,0.025,3.785,0.964
			c1.377,1.417,1,4.533,1,4.533v27.61C346.913,128.482,346.961,131.676,345.911,132.681z"/>
		<path fill="#FFFFFF" d="M246.823,79.973c-5.916,0-11.246,0.711-15.921,2.18c-5.64,1.651-8.762,4.085-9.403,7.293v5.929v4.187
			h-0.131V138.9c0,3.649,3.25,6.514,9.764,8.46c4.801,1.549,10.006,2.298,15.691,2.298H279.2l9.998-15.524H255.52V95.375h33.678
			l0.93-1.438v-3.209c0-3.288,1.215-7.639,6.578-10.756L246.823,79.973L246.823,79.973z"/>
		<path fill="#FFFFFF" d="M259.708,99.562v30.388h29.49h0.93V99.562h-0.93H259.708z M288.034,127.86h-26.24v-26.208h26.24V127.86z"
			/>
	</g>
</g>
</svg>
