<?xml version="1.0" encoding="UTF-8" standalone="no"?>
<!-- Creator: CorelDRAW X6 -->

<svg
   xmlns:dc="http://purl.org/dc/elements/1.1/"
   xmlns:cc="http://creativecommons.org/ns#"
   xmlns:rdf="http://www.w3.org/1999/02/22-rdf-syntax-ns#"
   xmlns:svg="http://www.w3.org/2000/svg"
   xmlns="http://www.w3.org/2000/svg"
   xmlns:sodipodi="http://sodipodi.sourceforge.net/DTD/sodipodi-0.dtd"
   xmlns:inkscape="http://www.inkscape.org/namespaces/inkscape"
   xml:space="preserve"
   width="500"
   height="288.22601"
   version="1.1"
   style="fill-rule:evenodd"
   viewBox="0 0 21000 29700"
   id="svg4334"
   inkscape:version="0.48.5 r10040"
   sodipodi:docname="now.svg"><metadata
   id="metadata4424"><rdf:RDF><cc:Work
       rdf:about=""><dc:format>image/svg+xml</dc:format><dc:type
         rdf:resource="http://purl.org/dc/dcmitype/StillImage" /><dc:title /></cc:Work></rdf:RDF></metadata><sodipodi:namedview
   pagecolor="#ffffff"
   bordercolor="#666666"
   borderopacity="1"
   objecttolerance="10"
   gridtolerance="10"
   guidetolerance="10"
   inkscape:pageopacity="0"
   inkscape:pageshadow="2"
   inkscape:window-width="1366"
   inkscape:window-height="706"
   id="namedview4422"
   showgrid="false"
   inkscape:zoom="2.5514568"
   inkscape:cx="76.857501"
   inkscape:cy="206.05009"
   inkscape:window-x="-8"
   inkscape:window-y="-8"
   inkscape:window-maximized="1"
   inkscape:current-layer="svg4334" />
 <defs
   id="defs4336">
  <style
   type="text/css"
   id="style4338">
   
    .fil1 {fill:#2B2A29}
    .fil2 {fill:#E22229}
    .fil0 {fill:#FEFEFE}
   
  </style>
 </defs>
 <g
   id="Слой_x0020_1"
   transform="matrix(8.3100108,0,0,8.3100108,-17770.657,-203694.97)">
  <metadata
   id="CorelCorpID_0Corel-Layer" />
  
  <polygon
   class="fil1"
   points="6502,28086 6502,24512 6468,24512 302,24512 302,28086 "
   id="polygon4344"
   style="fill:#000000;fill-opacity:1" />
  <polygon
   class="fil2"
   points="6468,28051 6468,27413 337,27413 337,28051 "
   id="polygon4346"
   style="fill:#e00016;fill-opacity:1" />
  <path
   class="fil2"
   d="m 6468,25703 0,-604 -4159,0 0,-553 -1972,0 0,2314 6131,0 0,-604 -4159,0 0,-553 4159,0 z m -5168,906 c -501,0 -906,-406 -906,-906 0,-501 406,-906 906,-906 501,0 906,406 906,906 0,501 -406,906 -906,906 z"
   id="path4348"
   inkscape:connector-curvature="0"
   style="fill:#e00016;fill-opacity:1" />
  <polygon
   class="fil0"
   points="578,26941 821,26941 821,27008 643,27008 643,27095 810,27095 810,27162 643,27162 643,27270 827,27270 827,27336 578,27336 "
   id="polygon4350"
   style="fill:#fefefe" />
  <polygon
   class="fil0"
   points="1089,27205 1089,26941 1150,26941 1150,27336 1084,27336 951,27079 951,27336 890,27336 890,26941 954,26941 "
   id="polygon4352"
   style="fill:#fefefe" />
  <path
   class="fil0"
   d="m 1639,27336 -71,0 -28,-89 -132,0 -27,89 -71,0 126,-395 71,0 132,395 z m -121,-156 -47,-147 -44,147 91,0 z"
   id="path4354"
   inkscape:connector-curvature="0"
   style="fill:#fefefe" />
  <polygon
   class="fil0"
   points="1802,27336 1732,27336 1614,26941 1684,26941 1768,27234 1849,26941 1920,26941 "
   id="polygon4356"
   style="fill:#fefefe" />
  <path
   class="fil0"
   d="m 2222,27336 -71,0 -28,-89 -132,0 -27,89 -71,0 126,-395 71,0 132,395 z m -121,-156 -47,-147 -44,147 91,0 z"
   id="path4358"
   inkscape:connector-curvature="0"
   style="fill:#fefefe" />
  <polygon
   class="fil0"
   points="2463,27205 2463,26941 2525,26941 2525,27336 2459,27336 2326,27079 2326,27336 2264,27336 2264,26941 2328,26941 "
   id="polygon4360"
   style="fill:#fefefe" />
  <polygon
   class="fil0"
   points="2837,27008 2741,27008 2741,27336 2675,27336 2675,27008 2577,27008 2577,26941 2837,26941 "
   id="polygon4362"
   style="fill:#fefefe" />
  <path
   class="fil0"
   d="m 3021,26941 121,0 c 31,0 54,3 69,10 16,7 30,18 43,34 13,16 23,37 31,62 7,26 11,57 11,95 0,34 -4,64 -12,89 -8,25 -18,45 -30,60 -12,15 -27,26 -44,33 -17,7 -39,11 -66,11 l -125,0 0,-395 z m 66,67 0,262 50,0 c 22,0 37,-2 47,-6 10,-4 18,-10 24,-18 6,-8 11,-21 15,-38 4,-17 6,-40 6,-68 0,-29 -2,-52 -6,-69 -4,-17 -11,-30 -19,-40 -9,-10 -19,-16 -32,-19 -9,-2 -28,-4 -54,-4 l -30,0 z"
   id="path4364"
   inkscape:connector-curvature="0"
   style="fill:#fefefe" />
  <polygon
   class="fil0"
   points="3359,26941 3603,26941 3603,27008 3425,27008 3425,27095 3592,27095 3592,27162 3425,27162 3425,27270 3609,27270 3609,27336 3359,27336 "
   id="polygon4366"
   style="fill:#fefefe" />
  <path
   class="fil0"
   d="m 3958,27191 0,-67 142,0 0,157 c -14,17 -35,31 -61,43 -26,12 -53,18 -79,18 -32,0 -61,-8 -86,-24 -25,-16 -44,-39 -59,-71 -14,-31 -22,-68 -22,-110 0,-43 7,-81 22,-111 15,-31 34,-54 57,-69 23,-15 51,-23 84,-23 39,0 70,10 94,29 24,20 39,48 45,86 l -65,15 c -5,-20 -14,-36 -27,-46 -13,-11 -29,-16 -47,-16 -28,0 -51,11 -69,32 -18,22 -26,55 -26,99 0,48 10,84 29,109 16,21 38,32 66,32 13,0 27,-3 41,-9 14,-6 27,-14 38,-25 l 0,-50 -76,0 z"
   id="path4368"
   inkscape:connector-curvature="0"
   style="fill:#fefefe" />
  <path
   class="fil0"
   d="m 4166,26941 66,0 0,214 c 0,33 1,55 2,65 3,17 10,31 21,40 11,10 26,14 44,14 16,0 28,-3 38,-10 10,-7 17,-16 20,-28 4,-12 5,-38 5,-77 l 0,-219 66,0 0,207 c 0,53 -3,91 -9,115 -6,24 -19,43 -39,57 -20,15 -47,22 -80,22 -34,0 -61,-6 -80,-18 -19,-12 -33,-29 -42,-51 -9,-22 -13,-63 -13,-122 l 0,-211 z"
   id="path4370"
   inkscape:connector-curvature="0"
   style="fill:#fefefe" />
  <polygon
   class="fil0"
   points="4503,26941 4569,26941 4569,27336 4503,27336 "
   id="polygon4372"
   style="fill:#fefefe" />
  <polygon
   class="fil0"
   points="4839,27205 4839,26941 4901,26941 4901,27336 4834,27336 4701,27079 4701,27336 4640,27336 4640,26941 4704,26941 "
   id="polygon4374"
   style="fill:#fefefe" />
  <path
   class="fil0"
   d="m 5130,27191 0,-67 142,0 0,157 c -14,17 -35,31 -61,43 -26,12 -53,18 -79,18 -32,0 -61,-8 -86,-24 -25,-16 -44,-39 -59,-71 -14,-31 -22,-68 -22,-110 0,-43 7,-81 22,-111 15,-31 34,-54 57,-69 23,-15 51,-23 84,-23 39,0 70,10 94,29 24,20 39,48 45,86 l -65,15 c -5,-20 -14,-36 -27,-46 -13,-11 -29,-16 -47,-16 -28,0 -51,11 -69,32 -18,22 -26,55 -26,99 0,48 10,84 29,109 16,21 38,32 66,32 13,0 27,-3 41,-9 14,-6 27,-14 38,-25 l 0,-50 -76,0 z"
   id="path4376"
   inkscape:connector-curvature="0"
   style="fill:#fefefe" />
  <path
   class="fil0"
   d="m 5636,27336 -71,0 -28,-89 -132,0 -27,89 -71,0 126,-395 71,0 132,395 z m -121,-156 -47,-147 -44,147 91,0 z"
   id="path4378"
   inkscape:connector-curvature="0"
   style="fill:#fefefe" />
  <polygon
   class="fil0"
   points="5676,27336 5676,26941 5775,26941 5835,27212 5894,26941 5994,26941 5994,27336 5932,27336 5932,27024 5866,27336 5803,27336 5737,27024 5737,27336 "
   id="polygon4380"
   style="fill:#fefefe" />
  <path
   class="fil0"
   d="m 6067,27336 0,-395 107,0 c 40,0 66,2 78,6 20,6 36,19 48,39 13,20 19,46 19,77 0,29 -6,53 -16,72 -11,19 -25,33 -41,41 -16,8 -45,12 -85,12 l -44,0 0,149 -66,0 z m 66,-328 0,113 37,0 c 25,0 42,-2 51,-5 9,-3 16,-10 22,-19 6,-9 9,-20 9,-33 0,-13 -3,-24 -9,-33 -6,-9 -13,-15 -22,-18 -9,-3 -27,-5 -55,-5 l -33,0 z"
   id="path4382"
   inkscape:connector-curvature="0"
   style="fill:#fefefe" />
  <path
   class="fil1"
   d="m 3474,24770 -959,0 0,1929 993,0 0,-413 c 0,0 -553,0 -614,0 0,-54 0,-325 0,-379 61,0 580,0 580,0 l 0,-385 c 0,0 -519,0 -580,0 0,-52 0,-286 0,-339 61,0 614,0 614,0 l 0,-413 -34,0 z"
   id="path4384"
   inkscape:connector-curvature="0"
   style="fill:#000000;fill-opacity:1" />
  <polygon
   class="fil0"
   points="3474,24805 3474,25149 2860,25149 2860,25557 3440,25557 3440,25873 2860,25873 2860,26320 3474,26320 3474,26665 2550,26665 2550,24805 "
   id="polygon4386"
   style="fill:#fefefe" />
  <path
   class="fil1"
   d="m 4479,24770 -406,0 -470,1929 388,0 c 0,0 60,-298 69,-344 48,0 410,0 456,0 11,45 86,344 86,344 l 375,0 -470,-1929 -27,0 z m -190,621 c 42,166 130,516 146,579 -60,0 -235,0 -296,0 16,-63 107,-413 150,-579 z"
   id="path4388"
   inkscape:connector-curvature="0"
   style="fill:#000000;fill-opacity:1" />
  <path
   class="fil0"
   d="m 4479,24805 454,1860 -304,0 -86,-344 -511,0 -69,344 -316,0 454,-1860 379,0 z m -189,448 -195,752 385,0 -189,-752 z"
   id="path4390"
   inkscape:connector-curvature="0"
   style="fill:#fefefe" />
  <path
   class="fil1"
   d="m 5477,24770 c -210,0 -373,225 -373,419 l 0,1096 c 0,182 176,413 373,413 l 494,0 c 171,0 327,-156 327,-327 l 0,-809 -654,0 0,413 c 0,0 261,0 316,0 0,49 0,184 0,184 0,78 -42,126 -109,126 l -297,0 c -69,0 -99,-74 -99,-126 l 0,-858 c 0,-71 43,-118 109,-118 l 287,0 c 95,0 109,65 109,103 l 0,166 339,0 0,-321 c 0,-213 -135,-362 -327,-362 l -494,0 z"
   id="path4392"
   inkscape:connector-curvature="0"
   style="fill:#000000;fill-opacity:1" />
  <path
   class="fil0"
   d="m 5477,24805 c -187,0 -339,201 -339,385 0,0 0,970 0,1096 0,161 158,379 339,379 98,0 379,0 494,0 146,0 293,-132 293,-293 0,-115 0,-775 0,-775 l -586,0 0,344 316,0 c 0,0 0,100 0,218 0,100 -60,161 -144,161 -66,0 -212,0 -297,0 -85,0 -134,-83 -134,-161 0,-77 0,-686 0,-858 0,-95 63,-152 144,-152 80,0 181,0 287,0 106,0 144,69 144,138 0,80 0,132 0,132 l 270,0 c 0,0 0,-149 0,-287 0,-181 -106,-327 -293,-327 -115,0 -494,0 -494,0 z"
   id="path4394"
   inkscape:connector-curvature="0"
   style="fill:#fefefe" />
  <path
   class="fil0"
   d="m 1124,27809 12,0 0,139 -12,0 c -3,-9 -6,-17 -12,-22 -5,-5 -12,-7 -20,-7 -8,0 -22,4 -42,13 -6,3 -11,5 -14,6 l -1,1 c -41,18 -80,27 -119,27 -36,0 -71,-6 -106,-17 -35,-11 -67,-28 -95,-49 -27,-20 -48,-42 -61,-65 -13,-23 -20,-48 -20,-75 0,-31 7,-60 22,-88 15,-28 36,-52 63,-72 27,-20 58,-35 92,-46 35,-11 71,-16 108,-16 38,0 79,8 123,25 3,1 5,2 7,3 3,1 8,3 13,5 15,6 26,9 32,9 8,0 14,-2 19,-6 4,-4 7,-10 8,-18 l 12,0 0,123 -12,0 c -6,-38 -28,-70 -65,-94 -37,-25 -81,-37 -131,-37 -62,0 -109,17 -139,52 -31,35 -46,88 -46,159 0,31 3,59 9,82 6,24 15,43 27,56 15,18 35,33 61,43 25,11 52,16 78,16 32,0 64,-6 94,-18 31,-12 57,-28 78,-49 9,-9 17,-20 22,-32 5,-12 9,-28 11,-47 z"
   id="path4396"
   inkscape:connector-curvature="0"
   style="fill:#fefefe" />
  <path
   class="fil0"
   d="m 1253,27833 c 0,-17 5,-34 15,-50 10,-16 25,-30 44,-43 18,-12 38,-22 61,-28 22,-6 45,-10 69,-10 50,0 94,13 132,39 38,26 56,56 56,91 0,17 -5,34 -15,49 -10,16 -25,30 -44,44 -18,12 -38,22 -59,28 -22,6 -45,9 -70,9 -24,0 -47,-3 -69,-9 -22,-6 -42,-16 -60,-28 -19,-13 -34,-27 -44,-43 -10,-16 -15,-32 -15,-50 z m 60,-164 109,-105 56,0 109,105 -27,0 -110,-63 -110,63 -27,0 z m 27,201 c 0,29 8,50 25,64 17,14 42,21 77,21 35,0 60,-7 76,-21 16,-14 24,-35 24,-64 l 0,-75 c 0,-29 -8,-50 -24,-64 -16,-14 -42,-21 -76,-21 -34,0 -60,7 -77,21 -17,14 -25,35 -25,64 l 0,75 z"
   id="path4398"
   inkscape:connector-curvature="0"
   style="fill:#fefefe" />
  <path
   class="fil0"
   d="m 1833,27913 c 0,14 3,24 9,29 6,6 17,9 32,9 16,0 30,-3 42,-9 12,-6 21,-15 27,-25 l 14,0 c -7,15 -19,27 -36,35 -17,8 -37,12 -62,12 -15,0 -30,-2 -44,-5 -14,-3 -25,-8 -35,-14 -8,-5 -13,-10 -16,-16 -3,-6 -5,-15 -5,-26 l 0,-12 0,-173 -67,0 0,-9 c 38,0 67,-7 88,-20 20,-13 34,-34 41,-63 l 11,0 0,83 108,0 0,9 -108,0 0,194 z"
   id="path4400"
   inkscape:connector-curvature="0"
   style="fill:#fefefe" />
  <path
   class="fil0"
   d="m 2117,27809 0,72 c 0,26 8,44 23,56 15,12 40,17 73,17 34,0 63,-7 87,-21 24,-14 42,-34 52,-59 l 15,0 c -12,28 -31,51 -59,67 -28,16 -61,24 -99,24 -50,0 -92,-13 -128,-38 -35,-25 -53,-56 -53,-92 0,-38 16,-69 48,-95 32,-25 71,-38 117,-38 45,0 83,10 114,30 31,20 49,46 52,77 l -243,0 z m 0,-9 149,0 0,-29 c 0,-21 -6,-36 -18,-45 -12,-10 -31,-15 -57,-15 -24,0 -43,6 -55,17 -12,11 -18,29 -18,52 l 0,21 z"
   id="path4402"
   inkscape:connector-curvature="0"
   style="fill:#fefefe" />
  <path
   class="fil0"
   d="m 2457,27958 0,-86 9,0 c 12,29 28,50 47,63 19,13 44,19 75,19 27,0 48,-5 64,-15 16,-10 23,-24 23,-42 0,-15 -8,-27 -25,-35 -16,-8 -39,-12 -69,-12 -39,0 -70,-6 -92,-19 -22,-13 -33,-30 -33,-52 0,-22 10,-40 31,-54 21,-15 46,-22 77,-22 27,0 55,5 82,14 6,2 9,3 10,3 4,0 7,-1 9,-3 2,-2 3,-5 3,-8 0,-2 0,-3 0,-4 0,-1 0,-2 -1,-2 l 15,0 0,73 -11,0 c -7,-21 -20,-37 -37,-48 -17,-10 -40,-16 -69,-16 -23,0 -42,4 -57,13 -15,9 -22,19 -22,32 0,5 2,11 5,15 3,5 7,9 13,13 12,8 37,12 75,14 15,1 27,2 36,2 32,3 58,11 76,24 18,13 27,30 27,51 0,27 -11,48 -34,64 -22,16 -52,24 -89,24 -33,0 -64,-6 -94,-19 -7,-3 -12,-4 -14,-4 -6,0 -11,1 -13,4 -3,3 -4,7 -4,13 l -13,0 z"
   id="path4404"
   inkscape:connector-curvature="0"
   style="fill:#fefefe" />
  <path
   class="fil0"
   d="m 3383,27916 c -17,16 -35,28 -55,36 -20,8 -42,12 -66,12 -55,0 -99,-12 -133,-37 -34,-24 -51,-56 -51,-95 0,-35 18,-66 53,-91 35,-26 76,-38 123,-38 28,0 53,5 76,15 22,10 40,24 53,42 l 0,-204 -55,0 0,-9 46,0 c 17,0 33,-1 47,-4 14,-2 28,-6 42,-11 l 0,417 56,0 0,9 -135,0 0,-41 z m -218,-47 c 0,31 7,53 21,66 14,13 37,20 70,20 28,0 53,-5 74,-16 21,-10 38,-26 51,-46 l 0,-111 c -12,-22 -29,-39 -51,-51 -22,-12 -46,-18 -73,-18 -31,0 -54,7 -70,21 -16,14 -23,35 -23,63 l 0,71 z"
   id="path4406"
   inkscape:connector-curvature="0"
   style="fill:#fefefe" />
  <path
   class="fil0"
   d="m 3653,27695 -15,0 -31,-138 c 0,-2 -1,-3 -1,-5 0,-2 0,-4 0,-7 0,-10 3,-18 10,-23 7,-5 17,-8 30,-8 13,0 23,3 30,8 7,5 11,13 11,22 0,2 -1,5 -1,10 0,1 0,2 0,2 l -31,138 z"
   id="path4408"
   inkscape:connector-curvature="0"
   style="fill:#fefefe" />
  <path
   class="fil0"
   d="m 3697,27956 0,-9 12,0 c 34,0 57,-12 69,-37 l 0,-1 187,-368 10,0 228,406 64,0 0,9 -245,0 0,-9 83,0 -71,-125 -197,0 -47,99 c -1,2 -2,4 -3,6 -1,2 -1,4 -1,5 0,5 5,9 14,11 9,2 30,3 64,4 l 0,9 -167,0 z m 145,-142 188,0 -98,-175 -90,175 z"
   id="path4410"
   inkscape:connector-curvature="0"
   style="fill:#fefefe" />
  <path
   class="fil0"
   d="m 4257,27956 0,-9 55,0 0,-229 -55,0 0,-9 46,0 c 20,0 38,-1 53,-2 15,-1 27,-3 37,-6 l 0,65 c 14,-22 30,-38 47,-49 17,-11 37,-16 60,-16 18,0 33,3 45,9 12,6 17,14 17,23 0,9 -4,16 -11,22 -7,5 -16,8 -28,8 -12,0 -22,-3 -30,-8 -9,-5 -13,-11 -13,-18 0,-4 1,-7 4,-11 3,-4 7,-8 14,-13 -3,0 -5,-1 -7,-1 -2,0 -3,0 -5,0 -19,0 -37,8 -54,25 -17,16 -30,38 -39,65 l 0,145 54,0 0,9 -189,0 z"
   id="path4412"
   inkscape:connector-curvature="0"
   style="fill:#fefefe" />
  <path
   class="fil0"
   d="m 4689,27719 -55,0 0,-9 46,0 c 20,0 38,-1 53,-2 15,-1 27,-3 37,-6 l 0,55 c 18,-19 39,-33 61,-42 22,-9 47,-14 76,-14 32,0 59,5 81,16 21,10 34,25 39,43 19,-20 40,-34 63,-44 23,-10 48,-14 77,-14 38,0 68,7 90,21 22,14 33,33 33,57 l 0,168 56,0 0,9 -191,0 0,-9 54,0 0,-186 c 0,-18 -4,-31 -12,-38 -8,-7 -22,-10 -41,-10 -24,0 -46,5 -66,14 -20,10 -40,25 -59,46 l 0,173 56,0 0,9 -191,0 0,-9 54,0 0,-186 c 0,-18 -4,-31 -12,-38 -8,-7 -22,-10 -41,-10 -25,0 -48,5 -69,15 -21,10 -40,25 -57,46 l 0,173 54,0 0,9 -189,0 0,-9 55,0 0,-229 z"
   id="path4414"
   inkscape:connector-curvature="0"
   style="fill:#fefefe" />
  <path
   class="fil0"
   d="m 5413,27833 c 0,-17 5,-34 15,-50 10,-16 25,-30 44,-43 18,-12 38,-22 60,-28 22,-6 45,-10 69,-10 50,0 94,13 132,39 38,26 56,56 56,91 0,17 -5,34 -15,49 -10,16 -25,30 -44,44 -18,12 -38,22 -59,28 -22,6 -45,9 -70,9 -24,0 -47,-3 -69,-9 -22,-6 -42,-16 -60,-28 -19,-13 -34,-27 -44,-43 -10,-16 -15,-32 -15,-50 z m 87,37 c 0,29 8,50 25,64 17,14 42,21 77,21 35,0 60,-7 76,-21 16,-14 24,-35 24,-64 l 0,-75 c 0,-29 -8,-50 -24,-64 -16,-14 -42,-21 -76,-21 -34,0 -60,7 -77,21 -17,14 -25,35 -25,64 l 0,75 z"
   id="path4416"
   inkscape:connector-curvature="0"
   style="fill:#fefefe" />
  <path
   class="fil0"
   d="m 5861,27956 0,-9 55,0 0,-229 -55,0 0,-9 46,0 c 20,0 38,-1 53,-2 15,-1 27,-3 37,-6 l 0,65 c 14,-22 30,-38 47,-49 17,-11 37,-16 60,-16 18,0 33,3 45,9 12,6 17,14 17,23 0,9 -4,16 -11,22 -7,5 -16,8 -28,8 -12,0 -22,-3 -30,-8 -9,-5 -13,-11 -13,-18 0,-4 1,-7 4,-11 3,-4 7,-8 14,-13 -3,0 -5,-1 -7,-1 -2,0 -3,0 -5,0 -19,0 -37,8 -54,25 -17,16 -30,38 -39,65 l 0,145 54,0 0,9 -189,0 z"
   id="path4418"
   inkscape:connector-curvature="0"
   style="fill:#fefefe" />
  <path
   class="fil0"
   d="m 1832,25367 c -153,0 -251,99 -251,251 0,130 101,231 231,231 147,0 158,-101 158,-132 0,-35 -13,-64 -36,-86 -50,-45 -142,-38 -142,-38 -34,0 -33,69 7,69 0,0 66,-1 89,20 6,5 13,14 13,35 0,16 0,63 -89,63 -92,0 -162,-70 -162,-162 0,-116 66,-182 182,-182 130,0 240,135 240,294 0,152 -96,240 -240,240 -194,0 -371,-263 -371,-263 -79,-136 -77,-235 -75,-331 2,-91 4,-186 -64,-302 -96,-165 -257,-207 -422,-112 -170,99 -243,305 -159,449 77,132 212,168 343,91 112,-65 149,-204 84,-316 -74,-127 -167,-86 -194,-70 -30,17 -49,43 -56,74 -14,66 39,142 39,142 17,29 76,-6 56,-40 0,0 -34,-57 -28,-87 2,-8 6,-19 23,-29 13,-8 55,-32 99,45 47,80 21,175 -59,222 -100,58 -191,34 -249,-66 -65,-112 -4,-275 134,-355 132,-77 251,-45 328,87 16,28 28,57 36,78 62,196 -73,373 -73,373 -82,135 -170,181 -255,225 -81,42 -165,86 -234,200 -99,163 -59,325 104,424 168,102 384,67 470,-76 79,-130 46,-266 -85,-345 -111,-67 -250,-33 -317,78 -76,125 5,187 31,203 30,18 62,23 92,14 65,-19 106,-102 106,-102 18,-29 -42,-64 -62,-30 0,0 -33,57 -64,66 -7,2 -19,4 -36,-6 -13,-8 -54,-33 -8,-109 48,-79 144,-103 223,-55 99,60 121,151 61,250 -67,111 -239,135 -376,52 -130,-79 -160,-199 -81,-329 122,-169 420,-179 420,-179 158,0 242,52 324,101 78,48 159,97 293,97 190,0 309,-118 309,-309 0,-197 -141,-363 -309,-363 z m -662,399 c 69,-44 143,-121 149,-210 9,83 36,180 111,234 -95,-52 -208,-43 -259,-25 z"
   id="path4420"
   inkscape:connector-curvature="0"
   style="fill:#fefefe" />
 </g>
</svg>