<?xml version="1.0" encoding="UTF-8"?>
<!DOCTYPE svg PUBLIC "-//W3C//DTD SVG 1.1//EN" "http://www.w3.org/Graphics/SVG/1.1/DTD/svg11.dtd">
<!-- Creator: CorelDRAW X5 -->
<svg xmlns="http://www.w3.org/2000/svg" xml:space="preserve" width="394px" height="600px" style="shape-rendering:geometricPrecision; text-rendering:geometricPrecision; image-rendering:optimizeQuality; fill-rule:evenodd; clip-rule:evenodd"
viewBox="0 0 394000 599942"
 xmlns:xlink="http://www.w3.org/1999/xlink">
 <defs>
  <style type="text/css">
   <![CDATA[
    .fil3 {fill:#ED3237}
    .fil0 {fill:#FEFEFE}
    .fil2 {fill:#1B2C57}
    .fil6 {fill:#FFF1B4}
    .fil4 {fill:#FEFEFE;fill-rule:nonzero}
    .fil1 {fill:#ABA6B8;fill-rule:nonzero}
    .fil5 {fill:#E53326;fill-rule:nonzero}
   ]]>
  </style>
 </defs>
 <g id="Crotone_x0020_FC_x0020_-_x0020_Ayun_x0020_G._x0020_Aribowo">
  <metadata id="CorelCorpID_0Corel-Layer"/>
  <g id="Ostiamare">
   <path class="fil0" d="M197000 1748c107825,0 195234,133519 195234,298223 0,164704 -87409,298223 -195234,298223 -107825,0 -195234,-133519 -195234,-298223 0,-164704 87409,-298223 195234,-298223z"/>
   <path class="fil1" d="M197000 180c54476,0 103745,33652 139363,88058 35489,54210 57440,129071 57440,211733 0,82662 -21951,157523 -57440,211733 -35618,54407 -84887,88058 -139363,88058 -54476,0 -103745,-33652 -139363,-88058 -35489,-54210 -57440,-129071 -57440,-211733 0,-82662 21951,-157523 57440,-211733 35618,-54407 84887,-88058 139363,-88058zm136740 89774c-35043,-53528 -83392,-86636 -136740,-86636 -53348,0 -101697,33108 -136740,86636 -35171,53725 -56925,127975 -56925,210017 0,82042 21754,156293 56925,210017 35043,53528 83392,86636 136740,86636 53348,0 101697,-33108 136740,-86636 35171,-53725 56925,-127975 56925,-210017 0,-82042 -21754,-156293 -56925,-210017z"/>
   <path class="fil2" d="M197155 12025c102179,0 185012,128847 185012,287788 0,158941 -82834,287788 -185012,287788 -102179,0 -185013,-128847 -185013,-287788 0,-158941 82834,-287788 185013,-287788z"/>
   <path class="fil3" d="M159758 147012l0 434696c-28918,-9236 -55373,-28969 -77652,-56525l0 -340532c21416,-18728 48747,-31871 77652,-37638zm152197 37682l0 340793c-22290,27477 -48744,47129 -77652,56299l0 -435317c28904,5780 55946,19191 77652,38225zm69984 119557c9,-720 28,-1437 28,-2158 0,-100067 -82964,-181188 -185306,-181188 -102342,0 -185306,81120 -185306,181188 0,3779 133,7528 366,11250 1185,-99071 83674,-179029 185278,-179029 98476,0 178997,75112 184940,169937z"/>
   <path class="fil4" d="M149900 41863c10134,-1076 20274,-1794 30470,-2297 -31,2464 10,4928 82,7388 -5999,283 -11978,636 -17947,1063 165,1991 360,3973 556,5960 5032,-361 10074,-667 15127,-912 175,2313 350,4625 535,6934 -4970,229 -9931,520 -14880,873 494,4652 864,9275 926,13949 -3849,338 -7697,729 -11515,1176 -556,-11374 -2799,-22757 -3355,-34133zm29173 22613c3766,-132 7553,-233 11330,-303 82,3211 145,6404 41,9615 -3715,50 -7419,132 -11134,241 41,-3193 -72,-6362 -237,-9553zm44002 -4497c3447,1113 6864,2266 10260,3449 -7113,21809 -45747,10294 -36377,-14701 5484,-14628 32155,-13390 36717,1490 -3612,473 -7214,985 -10805,1529 -2922,-9211 -15016,-5581 -14942,4536 86,11722 12223,14365 15148,3698zm16094 5645c3746,392 7481,838 11207,1342l-916 9673c-3663,-496 -7337,-943 -11031,-1342l741 -9673zm-158615 67698c3154,-1253 6309,-2514 9463,-3776 8635,16511 -18166,30420 -31399,16631 -13714,-14290 8027,-33215 22775,-25485 -2141,2439 -4254,4870 -6367,7292 -7831,-4248 -13917,4879 -7698,11460 6984,7391 18376,3367 13226,-6123zm22110 2239l-15193 -28066c7592,-3354 28270,-17148 34380,-5672 2461,4623 218,8814 -3791,11694 6778,-918 12319,4639 17480,8069 -3907,1721 -7785,3408 -11663,5087 -4840,-3105 -11109,-9602 -17016,-7041 2054,3859 4109,7735 6193,11627 -3473,1445 -6945,2873 -10389,4302zm1331 -21292c12591,-5523 10365,-11624 -3097,-5722 1013,1904 2055,3809 3097,5722zm29345 -8186c-5264,-22000 32793,-29835 37824,-8011 5337,23153 -32535,30116 -37824,8011zm11315 -2164c2834,11946 18170,9115 15193,-3558 -2696,-11476 -18020,-8356 -15193,3558zm31428 -22779c11721,-409 23470,-819 35220,-1236 87,2773 174,5530 289,8286 -3965,150 -7901,301 -11836,434l897 25285c-3878,142 -7756,259 -11605,376l-868 -25268c-3936,134 -7871,259 -11807,376 -116,-2748 -203,-5496 -289,-8253zm42628 15846c5039,-22063 43142,-14317 37939,7752 -5278,22386 -43360,15260 -37939,-7752zm11286 2523c-2885,12366 12542,15135 15396,2798 2725,-11779 -12657,-14543 -15396,-2798zm42454 -6515c3299,1362 6598,2706 9897,4043l5354 21250c2489,-5379 5007,-10742 7524,-16080 3328,1311 6656,2623 9984,3926l-13601 29010c-3328,-1228 -6656,-2447 -9984,-3692l-5383 -21150c-2489,5413 -4977,10859 -7467,16322 -3328,-1261 -6656,-2539 -9955,-3834l13630 -29795zm45898 21250c8161,5697 16322,11418 24483,17165 -1476,1729 -2952,3458 -4428,5179 -5122,-3592 -10216,-7150 -15309,-10709 -1100,1312 -2199,2623 -3299,3943 4746,3258 9492,6557 14238,9840 -1418,1662 -2836,3341 -4225,5004 -4746,-3274 -9492,-6524 -14209,-9781 -1360,1646 -2720,3299 -4052,4953 5238,3567 10505,7142 15772,10750 -1563,1871 -3125,3734 -4688,5622 -8305,-5605 -16611,-11201 -24917,-16815 6804,-8472 13685,-16824 20634,-25151zm-6223 101386l0 244406c0,15923 -13019,28942 -28942,28942l-172153 0c-15923,0 -28942,-13019 -28942,-28942l0 -244406 230038 0z"/>
   <path class="fil5" d="M141741 258692c4130,-2628 32300,-23239 32368,-23286 -10216,18286 -704,17016 22379,-2733 -10635,16777 5262,11090 20957,-2537 -11833,14027 -12994,23015 12709,11091 -5794,13493 -4079,23160 22477,7598 -14863,12325 -35575,22620 -29653,629 -21555,8911 -23067,3047 -19552,-4636 -6797,4128 -13198,3854 -13631,-2488 -24450,19439 -25916,13259 -23760,4665 -10292,4780 -24292,11695 -24292,11695z"/>
   <path class="fil6" d="M147608 278552c4412,-8236 10883,-15295 15001,-16178 4118,-882 -2353,3530 4412,3530 6765,0 18237,-7354 24119,-8236 5883,-882 -4706,5000 882,5295 5589,294 11177,-2353 12942,-2353 1765,0 -4412,5000 882,5000 5294,0 14412,4118 15295,8824 882,4706 -31178,5588 -31178,5588l-42356 -1471z"/>
   <path class="fil2" d="M104491 488825c168,-162 338,-323 507,-483 7147,1531 157571,637 178187,637 14753,0 27121,-11212 28759,-25688 -599,14389 -12552,25975 -27082,25975 -19940,0 -174344,663 -180371,-441zm-17694 -52282c23256,-7704 44671,-8784 67142,-3767l-5033 13115c-18686,-1609 -36404,1264 -62109,13440l0 -22788zm44612 -171391c34712,12266 105403,8592 146882,-11987 -47606,38287 -165665,39828 -157627,15859 1457,-3251 8307,-4935 10745,-3872zm-11510 121120c3541,-4809 6435,-5576 14904,1565 -1594,781 -15148,8838 -14904,-1565zm23289 91255c3769,-21539 19241,-60901 43386,-108534 -25438,-39105 -51350,-71102 -58273,-78026l3328 -3328c6873,6873 32212,38116 57408,76546 564,-1088 3062,-65251 4095,-74355l3891 429c-2502,22047 -3522,44222 -3762,65901 14299,-26700 31583,-54385 52034,-80610l3079 2405c-11195,14355 -58580,81089 -55166,92663 1205,4085 44828,63235 50220,111757l-4670 515c-3666,-32996 -24586,-70062 -45486,-103412 249,22856 1068,43540 1698,65409 10968,2926 21487,4908 32143,5103l3615 9361c-26547,-1014 -46955,-8259 -71466,-12164l4600 -11824c9193,2730 18262,5917 27166,8439 -301,-10293 -1700,-70545 -1994,-71002 -23990,47743 -38360,84682 -41986,105401l-3861 -674zm-860 -111005c4509,-1176 11639,-1438 14764,-666 6062,-4311 13005,-9375 -18555,-6591 -31559,2783 -32790,27661 -21850,32244 -1403,-510 -8109,-3508 -9494,-10572l-1 2c-5522,928 -9707,2752 -16685,8239 5847,-7130 8236,-9216 16717,-14148l1 1c935,-4703 4077,-9661 10246,-13697 0,-3417 -731,-7811 5695,-12838l0 9785c30892,-13558 68978,-1094 25680,12049 -898,-2152 -1306,-3127 -6518,-3808zm-25641 24986c12742,5556 9865,13821 15099,18843 -627,-13171 37,-16481 5947,-19803 2860,2879 5654,6359 8320,10193 -1285,-3983 -2839,-8078 -4693,-12006 1450,-656 3146,-1358 5133,-2111 -2417,-710 -4533,-796 -6434,-518 -1571,-3028 -3334,-5914 -5305,-8521 2511,-667 5399,-1273 8746,-1841 -22977,-1633 -25233,8787 -26814,15764zm156449 -5236c-3541,-4809 -6435,-5576 -14904,1565 1594,781 15148,8838 14904,-1565zm-22429 -19750c-4509,-1176 -11639,-1438 -14764,-666 -6062,-4311 -13005,-9375 18555,-6591 31559,2783 32790,27661 21850,32244 1403,-510 8109,-3508 9494,-10572l1 2c5522,928 9707,2752 16685,8239 -5847,-7130 -8236,-9216 -16717,-14148l-1 1c-935,-4703 -4077,-9661 -10246,-13697 0,-3417 731,-7811 -5695,-12838l0 9785c-30892,-13558 -68978,-1094 -25680,12049 898,-2152 1306,-3127 6518,-3808zm25641 24986c-12742,5556 -9865,13821 -15099,18843 627,-13171 -37,-16481 -5947,-19803 -2860,2879 -5654,6359 -8320,10193 1285,-3983 2839,-8078 4693,-12006 -1450,-656 -3146,-1358 -5133,-2111 2417,-710 4533,-796 6434,-518 1571,-3028 3334,-5914 5305,-8521 -2511,-667 -5399,-1273 -8746,-1841 22977,-1633 25233,8787 26814,15764zm-37653 57959c20371,-2256 41978,-11905 68727,-34564l0 24126c-24564,13870 -45369,19365 -65100,20284l-3627 -9846zm-128948 34771c9354,-7403 20312,-12344 32058,-15376 -1025,4238 -1547,7224 -2245,11214l10037 1753c959,-5479 1634,-9129 3316,-15250 27505,-4301 57764,319 81357,7527 673,3534 1093,6584 1491,10167 -28063,0 -103324,1160 -126014,-34zm137043 34l-863 -6969c19066,3644 39299,-1093 61090,-12859 -4792,25778 -34934,19828 -60227,19828z"/>
  </g>
 </g>
</svg>
