<?xml version="1.0" encoding="utf-8"?>
<!-- Generator: Adobe Illustrator 13.0.2, SVG Export Plug-In . SVG Version: 6.00 Build 14948)  -->
<!DOCTYPE svg PUBLIC "-//W3C//DTD SVG 1.1 Tiny//EN" "http://www.w3.org/Graphics/SVG/1.1/DTD/svg11-tiny.dtd">
<svg version="1.1" baseProfile="tiny" id="Ebene_1" xmlns="http://www.w3.org/2000/svg" xmlns:xlink="http://www.w3.org/1999/xlink"
	 x="0px" y="0px" width="414.815px" height="566.929px" viewBox="0 0 414.815 566.929" xml:space="preserve">
<path fill-rule="evenodd" fill="#1B8F3A" d="M13.643,83.43l24.309-30.076l7.767,5.503c21.729,15.395,49.531,26.151,76.265,18.919
	c23.345-6.314,44.673-30.13,56.369-50.339c3.827-6.613,7.13-13.565,9.737-20.749l2.375-6.542L222.94,0
	c13.896,33.038,47.347,78.668,94.705,77.013c18.724-0.655,36.872-7.6,52.149-18.424l7.768-5.503l24.065,31.238l-4.686,5.581
	c-12.032,14.33-17.388,35.911-16.779,54.336c0.336,10.195,1.718,19.914,4.153,29.814c2.59,10.524,6.141,20.871,9.508,31.168
	c4.593,14.046,8.839,28.033,12.428,42.378c7.563,30.23,9.888,62.173,7.873,93.235c-2.081,32.105-9.026,62.9-25.443,90.863
	c-12.865,21.918-30.419,40.088-50.893,55.014c-10.313,7.518-21.196,14.324-32.107,20.934l-97.882,59.283l-97.946-59.004
	c-15.432-9.295-30.952-19.166-44.741-30.803c-40.31-34.018-62.468-84.506-64.805-136.756c-1.313-29.354,1.6-62.748,8.392-91.313
	c4.216-17.734,10.285-34.251,15.736-51.609c5.187-16.51,10.268-33.959,10.917-51.375C36.248,122.092,28.265,99.734,13.643,83.43
	L13.643,83.43z"/>
<path fill-rule="evenodd" fill="#FFD600" d="M26.422,83.752l13.434-16.619C70.59,88.908,100.37,94.13,124.632,87.567
	c29.283-7.92,59.817-40.325,72.991-76.615l20.401-0.402c15.047,36.558,43.843,65.351,73.125,73.271
	c24.262,6.562,53.774,4.818,84.509-16.957l13.434,17.154c-14.189,17.346-19.705,41.189-19.065,60.557
	c1.211,36.678,13.953,55.787,26.387,105.486c7.302,29.188,9.528,60.239,7.592,90.118c-2.222,34.252-9.872,62.201-24.069,86.385
	c-12.181,20.75-28.784,37.857-48.121,51.953c-9.326,6.799-19.769,13.416-31.388,20.453l-92.642,56.111l-92.698-55.842
	c-16.924-10.197-31.29-19.619-43.434-29.869c-39.674-33.48-59.105-82.32-61.214-129.457c-1.098-24.545,0.631-59.246,7.591-88.514
	c10.291-43.277,25.176-72.553,26.387-104.951C45.142,127.084,40.611,103.238,26.422,83.752L26.422,83.752z"/>
<path fill-rule="evenodd" fill="#1B8F3A" d="M37.985,80.997c11.272,18.543,16.838,44.282,16.032,65.831
	c-0.131,3.512-0.412,7.018-0.825,10.508c-1.844,15.596-6.853,30.717-11.546,45.653c-5.307,16.891-10.716,33.503-14.819,50.757
	c-6.355,26.726-7.485,58.249-6.256,85.714c2.083,46.58,21.655,91.807,57.624,122.16c12.937,10.918,27.647,20.209,42.125,28.932
	l87.452,52.68l87.417-52.945c11.764-7.088,23.684-14.553,34.679-22.959c15.397-11.77,28.677-25.771,39.05-42.209
	c15.502-24.563,22.813-52.379,24.968-85.596c1.878-28.965,0.277-58.811-6.775-87c-3.473-13.879-7.052-27.407-11.495-40.997
	c-3.529-10.793-7.745-21.592-10.459-32.626c-2.772-11.267-4.348-22.387-4.73-33.99c-0.682-20.654,5.739-45.862,17.352-63.528
	l-1.12-1.36c-25.369,15.805-55.008,26.451-88.423,17.602c-32.945-8.723-66.322-44.794-80.104-77.278l-1.216-0.009
	c-13.871,32.653-45.362,68.358-79.365,77.556c-29.615,8.01-63.387-1.662-88.755-18.002L37.985,80.997L37.985,80.997z"/>
<path fill-rule="evenodd" fill="#FFD600" d="M52.565,95.402c6.145,16.505,9.039,35.152,8.42,51.687
	c-0.138,3.699-0.434,7.39-0.868,11.066c-1.906,16.121-6.976,31.511-11.819,46.925c-3.312,10.541-6.693,21.064-9.755,31.68h164.829
	V42.345c-16.937,27.863-44.226,54.223-74.003,62.278c-1.771,0.479-3.559,0.901-5.358,1.267
	C100.323,110.698,74.779,105.692,52.565,95.402L52.565,95.402z M211.932,236.76h163.888c-2.099-7.739-4.338-15.438-6.832-23.067
	c-3.606-11.029-7.826-21.837-10.603-33.127c-2.869-11.658-4.532-23.424-4.929-35.425c-0.521-15.785,2.79-33.682,9.123-49.43
	c-8.168,3.875-16.667,7.026-25.494,9.138c-16.903,4.045-33.814,3.97-50.637-0.484c-29.073-7.699-57.288-34.267-74.517-61.849V236.76
	L211.932,236.76z M28.684,352.853c4.107,33.549,17.75,65.615,40.538,90.498v-86.752h45.553v122.395
	c3.04,1.889,6.094,3.748,9.143,5.586l36.405,21.93v-149.91h45.553v177.352l1.886,1.135l43.662-26.445V356.599h45.553v124.443
	c9.816-6.008,19.52-12.27,28.656-19.254c5.975-4.568,11.625-9.494,16.892-14.785v-90.404h42.688
	c0.167-1.246,0.324-2.494,0.471-3.746H28.684L28.684,352.853z"/>
<path fill-rule="evenodd" fill="#FFD600" d="M205.645,366.269c32.178,0,58.274,26.096,58.274,58.273s-26.096,58.273-58.274,58.273
	c-32.178,0-58.273-26.096-58.273-58.273S173.467,366.269,205.645,366.269L205.645,366.269z"/>
<path fill-rule="evenodd" fill="#1B8F3A" d="M205.645,369.439c30.428,0,55.104,24.676,55.104,55.104s-24.676,55.104-55.104,55.104
	c-30.428,0-55.104-24.676-55.104-55.104S175.217,369.439,205.645,369.439L205.645,369.439z M206.525,405.205l16.36,12.684
	l14.633-3.193l-0.405-16.6l-14.543-11.133l-16.045,5.059V405.205L206.525,405.205z M223.859,420.271l-7.126,17.205l7.565,12.574
	l13.595-3.635l7.731-15.979l-7.463-13.287L223.859,420.271L223.859,420.271z M247.811,429.15l8.924,0.027
	c0.137-1.527,0.212-3.072,0.212-4.635c0-11.469-3.769-22.063-10.132-30.607l-7.155,4.537l0.412,16.896L247.811,429.15
	L247.811,429.15z M245.726,456.554l-7.283-7.662l-13.864,3.707l-7.702,13.33l3.264,7.832
	C230.352,470.755,239.243,464.66,245.726,456.554L245.726,456.554z M191.554,473.88l3.022-8.221l-7.25-13.396l-13.42-3.066
	l-8.059,7.707C172.392,464.941,181.319,470.962,191.554,473.88L191.554,473.88z M154.565,429.277l9.054-0.553l7.234-13.691
	l0.606-16.637l-7.204-4.158c-6.228,8.492-9.911,18.969-9.911,30.305C154.344,426.14,154.422,427.716,154.565,429.277
	L154.565,429.277z M186.885,376.783l2.489,8.039l15.885,4.939l16.723-5.271l2.074-7.842c-5.716-2.199-11.921-3.406-18.411-3.406
	C199.023,373.242,192.695,374.496,186.885,376.783L186.885,376.783z M214.583,438.822l-18.018,0.113l-6.984,12.17l7.34,13.561
	h17.756l7.571-13.102L214.583,438.822L214.583,438.822z M194.257,437.863l-7.209-17.127l-14.394-3.682l-6.768,12.807l7.736,16.67
	l13.845,3.164L194.257,437.863L194.257,437.863z M187.556,418.248l16.434-13.037v-13.188l-15.551-4.836l-14.437,11.031l-0.597,16.41
	L187.556,418.248L187.556,418.248z"/>
<path fill-rule="evenodd" fill="#1B8F3A" d="M260.683,141.531c-2.316,12.89-5.148,22.829-12.773,32.635
	c2.563,0.093,4.748-0.528,7.289-3.475c1.124,3.11,3.468,5.897,5.552,6.416c1.964-0.5,4.165-3.253,5.417-6.346
	c2.74,3.014,5.236,3.612,7.355,3.406C266.431,165.347,263.222,155.205,260.683,141.531L260.683,141.531z"/>
<path fill-rule="evenodd" fill="#1B8F3A" d="M260.639,122.51c-1.124,3.328-2.638,6.199-2.78,8.642
	c-0.071,1.233,0.621,3.178,2.803,3.115c2.182-0.063,2.839-1.513,2.821-3.117C263.46,129.1,261.898,125.898,260.639,122.51
	L260.639,122.51z"/>
<path fill-rule="evenodd" fill="#1B8F3A" d="M246.693,137.543c3.328,1.124,6.199,2.638,8.643,2.78
	c1.233,0.072,3.178-0.621,3.115-2.802c-0.063-2.182-1.514-2.839-3.117-2.822C253.284,134.722,250.083,136.283,246.693,137.543
	L246.693,137.543z"/>
<path fill-rule="evenodd" fill="#1B8F3A" d="M274.609,137.576c-3.328,1.124-6.2,2.638-8.643,2.78
	c-1.233,0.071-3.179-0.621-3.115-2.802s1.514-2.839,3.117-2.822C268.019,134.755,271.22,136.316,274.609,137.576L274.609,137.576z"
	/>
<path fill-rule="evenodd" fill="#1B8F3A" d="M237.679,189.681c-2.317,12.89-5.148,22.828-12.773,32.635
	c2.563,0.094,4.748-0.528,7.288-3.475c1.124,3.11,3.468,5.897,5.552,6.416c1.964-0.5,4.166-3.253,5.417-6.346
	c2.74,3.014,5.237,3.612,7.355,3.406C243.427,213.497,240.217,203.354,237.679,189.681L237.679,189.681z"/>
<path fill-rule="evenodd" fill="#1B8F3A" d="M237.634,170.659c-1.124,3.328-2.638,6.2-2.78,8.643
	c-0.071,1.233,0.621,3.178,2.803,3.115c2.182-0.063,2.839-1.513,2.821-3.117C240.455,177.249,238.894,174.048,237.634,170.659
	L237.634,170.659z"/>
<path fill-rule="evenodd" fill="#1B8F3A" d="M223.689,185.693c3.327,1.124,6.198,2.638,8.642,2.78
	c1.233,0.072,3.178-0.621,3.115-2.802c-0.063-2.182-1.514-2.839-3.117-2.821C230.279,182.872,227.078,184.433,223.689,185.693
	L223.689,185.693z"/>
<path fill-rule="evenodd" fill="#1B8F3A" d="M251.604,185.726c-3.328,1.124-6.199,2.638-8.643,2.78
	c-1.233,0.071-3.178-0.621-3.115-2.802c0.063-2.182,1.514-2.839,3.117-2.822C245.014,182.904,248.215,184.466,251.604,185.726
	L251.604,185.726z"/>
<path fill-rule="evenodd" fill="#1B8F3A" d="M310.252,141.531c-2.316,12.89-5.148,22.829-12.773,32.635
	c2.563,0.093,4.748-0.528,7.289-3.475c1.124,3.11,3.468,5.897,5.552,6.416c1.964-0.5,4.165-3.253,5.417-6.346
	c2.74,3.014,5.236,3.612,7.355,3.406C316,165.347,312.791,155.205,310.252,141.531L310.252,141.531z"/>
<path fill-rule="evenodd" fill="#1B8F3A" d="M310.208,122.51c-1.124,3.328-2.638,6.199-2.78,8.642
	c-0.071,1.233,0.621,3.178,2.803,3.115c2.182-0.063,2.839-1.513,2.821-3.117C313.029,129.1,311.468,125.898,310.208,122.51
	L310.208,122.51z"/>
<path fill-rule="evenodd" fill="#1B8F3A" d="M296.263,137.543c3.328,1.124,6.199,2.638,8.643,2.78
	c1.233,0.072,3.178-0.621,3.115-2.802c-0.063-2.182-1.514-2.839-3.118-2.822C302.853,134.722,299.652,136.283,296.263,137.543
	L296.263,137.543z"/>
<path fill-rule="evenodd" fill="#1B8F3A" d="M324.178,137.576c-3.327,1.124-6.199,2.638-8.642,2.78
	c-1.233,0.071-3.178-0.621-3.115-2.802s1.514-2.839,3.117-2.822C317.588,134.755,320.789,136.316,324.178,137.576L324.178,137.576z"
	/>
<path fill-rule="evenodd" fill="#1B8F3A" d="M285.346,189.681c-2.316,12.89-5.148,22.828-12.773,32.635
	c2.563,0.094,4.748-0.528,7.289-3.475c1.124,3.11,3.468,5.897,5.552,6.416c1.964-0.5,4.165-3.253,5.416-6.346
	c2.741,3.014,5.237,3.612,7.356,3.406C291.094,213.497,287.885,203.354,285.346,189.681L285.346,189.681z"/>
<path fill-rule="evenodd" fill="#1B8F3A" d="M285.302,170.659c-1.124,3.328-2.639,6.2-2.78,8.643
	c-0.071,1.233,0.621,3.178,2.803,3.115c2.182-0.063,2.839-1.513,2.821-3.117C288.123,177.249,286.562,174.048,285.302,170.659
	L285.302,170.659z"/>
<path fill-rule="evenodd" fill="#1B8F3A" d="M271.356,185.693c3.328,1.124,6.199,2.638,8.643,2.78
	c1.233,0.072,3.178-0.621,3.115-2.802c-0.063-2.182-1.514-2.839-3.118-2.821C277.946,182.872,274.746,184.433,271.356,185.693
	L271.356,185.693z"/>
<path fill-rule="evenodd" fill="#1B8F3A" d="M299.271,185.726c-3.327,1.124-6.199,2.638-8.642,2.78
	c-1.233,0.071-3.179-0.621-3.115-2.802c0.063-2.182,1.514-2.839,3.117-2.822C292.682,182.904,295.883,184.466,299.271,185.726
	L299.271,185.726z"/>
<path fill-rule="evenodd" fill="#1B8F3A" d="M333.014,189.681c-2.317,12.89-5.148,22.828-12.773,32.635
	c2.563,0.094,4.748-0.528,7.288-3.475c1.125,3.11,3.468,5.897,5.553,6.416c1.963-0.5,4.165-3.253,5.416-6.346
	c2.741,3.014,5.237,3.612,7.355,3.406C338.762,213.497,335.552,203.354,333.014,189.681L333.014,189.681z"/>
<path fill-rule="evenodd" fill="#1B8F3A" d="M332.97,170.659c-1.125,3.328-2.639,6.2-2.78,8.643
	c-0.072,1.233,0.62,3.178,2.802,3.115c2.182-0.063,2.84-1.513,2.822-3.117C335.79,177.249,334.229,174.048,332.97,170.659
	L332.97,170.659z"/>
<path fill-rule="evenodd" fill="#1B8F3A" d="M319.024,185.693c3.327,1.124,6.199,2.638,8.642,2.78
	c1.233,0.072,3.179-0.621,3.115-2.802c-0.063-2.182-1.513-2.839-3.117-2.821C325.614,182.872,322.413,184.433,319.024,185.693
	L319.024,185.693z"/>
<path fill-rule="evenodd" fill="#1B8F3A" d="M346.939,185.726c-3.328,1.124-6.199,2.638-8.643,2.78
	c-1.233,0.071-3.178-0.621-3.114-2.802c0.063-2.182,1.513-2.839,3.117-2.822C340.35,182.904,343.551,184.466,346.939,185.726
	L346.939,185.726z"/>
<polygon fill-rule="evenodd" fill="#FFD600" points="47.287,323.697 49.798,331.476 57.973,331.46 51.35,336.251 53.891,344.021 
	47.287,339.203 40.684,344.021 43.225,336.251 36.602,331.46 44.776,331.476 47.287,323.697 "/>
<polygon fill-rule="evenodd" fill="#FFD600" points="92.61,323.697 95.12,331.476 103.295,331.46 96.672,336.251 99.213,344.021 
	92.61,339.203 86.006,344.021 88.547,336.251 81.924,331.46 90.099,331.476 92.61,323.697 "/>
<polygon fill-rule="evenodd" fill="#FFD600" points="137.932,323.697 140.442,331.476 148.617,331.46 141.994,336.251 
	144.536,344.021 137.932,339.203 131.328,344.021 133.869,336.251 127.247,331.46 135.421,331.476 137.932,323.697 "/>
<polygon fill-rule="evenodd" fill="#FFD600" points="183.254,323.697 185.765,331.476 193.939,331.46 187.316,336.251 
	189.858,344.021 183.254,339.203 176.65,344.021 179.191,336.251 172.569,331.46 180.743,331.476 183.254,323.697 "/>
<polygon fill-rule="evenodd" fill="#FFD600" points="228.576,323.697 231.087,331.476 239.262,331.46 232.639,336.251 
	235.18,344.021 228.576,339.203 221.973,344.021 224.514,336.251 217.891,331.46 226.065,331.476 228.576,323.697 "/>
<polygon fill-rule="evenodd" fill="#FFD600" points="273.898,323.697 276.409,331.476 284.584,331.46 277.961,336.251 
	280.502,344.021 273.898,339.203 267.295,344.021 269.836,336.251 263.213,331.46 271.388,331.476 273.898,323.697 "/>
<polygon fill-rule="evenodd" fill="#FFD600" points="319.221,323.697 321.731,331.476 329.906,331.46 323.283,336.251 
	325.825,344.021 319.221,339.203 312.617,344.021 315.158,336.251 308.536,331.46 316.71,331.476 319.221,323.697 "/>
<polygon fill-rule="evenodd" fill="#FFD600" points="364.543,323.697 367.054,331.476 375.229,331.46 368.605,336.251 
	371.147,344.021 364.543,339.203 357.939,344.021 360.48,336.251 353.858,331.46 362.032,331.476 364.543,323.697 "/>
<path fill-rule="evenodd" fill="#1B8F3A" d="M184.373,162.53l-0.414,0l0.013-32.039l-1.782,0.027l0.006,7.16
	c-1.687-0.856-4.41-1.329-6.463-0.763c-3.786,1.044-6.554,3.417-14.265,2.563c1.247,0.785,3.63,1.707,6.234,2.577
	c-0.809,1.339-2.131,2.161-3.148,2.814c6.165,0.691,9.371,0.935,11.735-0.285c3-1.549,3.942-2.832,5.908-1.242v19.188l-0.86,0
	l0.002,4.563l-3.768,0v-4.563h-3.683l-0.027,4.564l-4.349-0.001l0-4.563h-3.454l-0.001,4.563l-4.044,0l0.001-4.561l-3.6-0.002
	l0.003,8.454l-4.467,21.301l20.418,0.039l10.012-13.708L184.373,162.53L184.373,162.53z M175.525,172.058h4.465v7.113h-4.465
	V172.058L175.525,172.058z M168.298,172.058h4.466v7.113h-4.466V172.058L168.298,172.058z M165.271,179.192l-4.466-0.021l0-7.123
	l4.465,0.021V179.192L165.271,179.192z"/>
<path fill-rule="evenodd" fill="#1B8F3A" d="M173.145,195.032l-20.33-0.001c-12.085,7.783-22.407,8.552-31.081,6.803
	c-14.458-2.916-23.867-13.549-25.753-15.631L83.377,172.3l7.313-7.064c2.885,12.43,10.454,22.831,22.206,28.41
	c7.952,3.776,17.688,5.17,28.283,1.92c-12.394-2.316-29.336-9.899-36.647-24.343c15.247,13.174,30.404,19.638,43.334,20.598
	c-7.672-8.576-9.518-15.894-7.767-22.431c0.38-1.417,0.85-2.812,1.443-4.181l10.59,26.668l0.629-2.893l-10.22-25.826
	c0.287-0.527,0.599-1.049,0.934-1.567l10.504,21.734l0.571-2.844l-10.003-20.421c0.365-0.483,0.755-0.961,1.171-1.433l10.003,16.46
	l0.54-2.467l-9.3-15.305c1.314-1.298,2.851-2.551,4.652-3.748l-9.071-3.525l-2.088-3.437l17.516,6.78l-0.003,0.116
	c0,1.625,1.318,2.942,2.942,2.942s2.942-1.318,2.942-2.942c0-1.625-1.318-2.943-2.942-2.943c-0.964,0-1.82,0.466-2.356,1.184
	l-19.584-7.581l-9.846-16.204v-5.281h3.877v-1.746h-3.877v-4.279h-1.746v4.279h-4.145v1.746h4.145v4.694l-9.092,8.783l-20.529-7.946
	c0.017-0.128,0.024-0.257,0.024-0.389c0-1.625-1.318-2.942-2.942-2.942s-2.942,1.318-2.942,2.942s1.318,2.942,2.942,2.942
	c0.866,0,1.644-0.374,2.183-0.969l19.883,7.696l-1.912,1.846l-15.006-5.831c-10.158,8.599-11.51,19.958-9.714,29.712l-8.063,7.79
	l-3.579-3.949l-1.388,1.257l16.154,17.822l-13.471-0.337c0.625,12.126,4.104,22.96,10.432,32.234
	c0.737,0.011,1.815-0.305,3.158-0.493c11.831,2.763,25.283,3.127,35.094-1.646c12.351,4.59,22.961,3.966,31.029-2.141
	c2.676,1.965,4.548,2.677,7.222,3.21l-0.802-12.04C168.821,202.255,171.63,199.312,173.145,195.032L173.145,195.032z
	 M129.279,205.731h4.815v4.815h-4.815V205.731L129.279,205.731z M138.086,205.731h4.815v4.815h-4.815V205.731L138.086,205.731z
	 M120.314,205.731h4.815v4.815h-4.815V205.731L120.314,205.731z M132.234,176.218c-3.815-10.395-0.671-19.849,4.948-25.547
	l4.949,1.873C134.838,158.155,131.854,165.42,132.234,176.218L132.234,176.218z M118.92,171.119
	c-3.815-10.395-0.671-19.849,4.948-25.547l4.949,1.873C121.524,153.055,118.54,160.321,118.92,171.119L118.92,171.119z
	 M107.479,166.757c-3.815-10.395-0.671-19.849,4.948-25.547l4.948,1.872C110.083,148.693,107.099,155.959,107.479,166.757
	L107.479,166.757z M97.042,162.798c-3.815-10.395-0.671-19.849,4.948-25.547l4.949,1.873C99.647,144.735,96.662,152,97.042,162.798
	L97.042,162.798z M128.193,129.789h-0.112l0.258,0.24L128.193,129.789L128.193,129.789z M127.477,129.789h-0.095l-7.309,7.061
	l12.062,4.668L127.477,129.789L127.477,129.789z M136.241,143.108l0.06,0.022l-0.248-0.407L136.241,143.108L136.241,143.108z
	 M137.786,145.575l-0.415-0.16l1.584,3.236l0.914,0.355L137.786,145.575L137.786,145.575z M135.263,144.599l-0.078-0.03l1.224,3.091
	l0.411,0.16L135.263,144.599L135.263,144.599z M133.012,143.728l-14.32-5.543l-1.913,1.849l17.46,6.785L133.012,143.728
	L133.012,143.728z"/>
<path fill-rule="evenodd" fill="#1B8F3A" d="M182.376,216.209c-8.92,5.757-18.464,7.278-28.902,5.234
	c-17.975,8.171-34.344,8.167-60.216,5.905c0.542,0.359-0.223,0.838,0.375,1.167c12.138,6.682,36.479,6.622,59.975-5.999
	C161.835,227.155,177.045,225.229,182.376,216.209L182.376,216.209z"/>
<path fill-rule="evenodd" fill="#1B8F3A" d="M66.814,221.246l4.013,4.547c7.493-1.337,15.74-3.434,21.802-5.485
	c7.621,5.38,20.995,6.938,33.437,5.086c9.789,5.087,22.897,3.064,28.757,0.124c-7.757,0.895-18.591,1.569-28.624-2.401
	c-9.946,1.552-21.884,0.818-33.57-4.013C85.362,220.801,77.113,221.199,66.814,221.246L66.814,221.246z"/>
<polygon fill="#FFD600" points="178.018,505.628 174.827,505.628 174.827,490.982 170.284,495.474 168.375,493.447 173.969,488.16 
	178.018,488.16 178.018,505.628 "/>
<path fill="#FFD600" d="M198.892,500.574c0,1.898-0.521,3.25-1.564,4.055c-0.765,0.59-1.898,0.945-3.401,1.063
	c-0.711,0.055-1.564,0.082-2.559,0.082c-1.984,0-3.373-0.227-4.169-0.676c-1.273-0.727-1.91-2.17-1.91-4.336h3.168
	c0.026,0.605,0.089,1.051,0.187,1.338c0.104,0.305,0.302,0.525,0.605,0.664c0.346,0.168,0.987,0.275,1.91,0.33
	c0.202-0.035,0.47-0.055,0.811-0.055c1.049,0,1.79-0.037,2.225-0.111c0.408-0.074,0.738-0.252,0.99-0.537
	c0.392-0.438,0.579-1.191,0.563-2.262l-0.046-3.002h-0.05c-0.524,0.906-1.34,1.434-2.449,1.576c-0.509,0.066-1.153,0.102-1.93,0.102
	c-1.138,0-2.085-0.082-2.838-0.248c-0.738-0.16-1.355-0.49-1.844-0.986c-0.761-0.773-1.141-2.123-1.141-4.053
	c0-2.244,0.473-3.723,1.421-4.449c0.764-0.582,1.836-0.916,3.206-1.002c0.559-0.035,1.224-0.051,1.992-0.051
	c1.934,0,3.366,0.195,4.302,0.588c0.628,0.264,1.137,0.674,1.521,1.232c0.668,0.961,1.002,2.916,1.002,5.871V500.574
	L198.892,500.574z M195.701,493.937v-0.635c0-1-0.209-1.668-0.629-1.998c-0.314-0.244-0.761-0.4-1.343-0.471
	c-0.229-0.023-0.493-0.041-0.796-0.055c-0.202-0.01-0.489-0.021-0.866-0.033c-1.642-0.012-2.628,0.174-2.962,0.559
	c-0.341,0.326-0.512,1.076-0.512,2.256c0,0.992,0.155,1.645,0.466,1.955c0.276,0.277,0.823,0.447,1.634,0.514
	c0.435,0.035,0.909,0.055,1.421,0.055c0.551,0,1.048-0.02,1.49-0.055c0.78-0.059,1.316-0.227,1.607-0.502
	C195.537,495.228,195.701,494.697,195.701,493.937L195.701,493.937z"/>
<path fill="#1B8F3A" d="M224.141,501.906h-2.05v3.723h-3.168v-3.723h-9.526v-3.633l7.732-10.113h4.962v11.227h2.05V501.906
	L224.141,501.906z M218.923,499.386v-8.805l-0.089,0.004l-6.782,8.801H218.923L218.923,499.386z"/>
<path fill="#1B8F3A" d="M243.101,500.439c0,2.5-0.715,4.076-2.143,4.725c-0.896,0.406-2.582,0.609-5.055,0.609
	c-1.549,0-2.683-0.094-3.4-0.279c-0.556-0.141-1.014-0.334-1.378-0.586c-0.642-0.447-1.063-1.15-1.274-2.109
	c-0.205-0.932-0.307-1.941-0.307-3.039h3.169c0,0.834,0.042,1.463,0.132,1.883c0.085,0.424,0.24,0.734,0.466,0.936
	c0.229,0.201,0.508,0.326,0.846,0.381c0.354,0.057,0.773,0.084,1.258,0.084h1.533c1.13,0,1.895-0.123,2.286-0.367
	c0.447-0.338,0.672-1.037,0.672-2.102c0-1.025-0.17-1.719-0.512-2.092c-0.3-0.326-1.037-0.49-2.213-0.49h-2.144v-2.564
	c0.933,0,1.584,0.016,1.957,0.047c0.893-0.059,1.437-0.113,1.63-0.164c0.668-0.26,1.002-1.129,1.002-2.609
	c0-0.645-0.101-1.109-0.303-1.396c-0.368-0.373-1.433-0.559-3.188-0.559c-0.698,0-1.246,0.027-1.638,0.08
	c-0.42,0.059-0.741,0.172-0.975,0.338c-0.233,0.172-0.399,0.455-0.493,0.859c-0.093,0.383-0.136,0.963-0.136,1.727h-3.191
	c0-1.623,0.214-2.854,0.646-3.691c0.201-0.404,0.477-0.746,0.822-1.037c0.605-0.504,1.483-0.811,2.633-0.924
	c0.574-0.055,1.241-0.082,2.003-0.082c2.213,0,3.777,0.168,4.689,0.506c0.399,0.146,0.745,0.346,1.04,0.594
	c0.493,0.406,0.831,0.947,1.01,1.615c0.209,0.791,0.303,1.684,0.271,2.67c-0.059,1.98-0.967,3.068-2.726,3.262l-0.042,0.09
	c0.744,0.064,1.331,0.229,1.754,0.488c0.45,0.283,0.773,0.664,0.967,1.145C242.992,498.933,243.101,499.621,243.101,500.439
	L243.101,500.439z"/>
<polygon fill="#FFD600" points="68.584,265.87 48.148,265.87 48.148,280.219 67.43,280.219 67.43,288.789 48.148,288.789 
	48.148,311.083 39.835,311.083 39.835,257 68.584,257 68.584,265.87 "/>
<path fill="#FFD600" d="M108.945,296.457c0,5.432-1.059,9.277-3.185,11.525c-1.713,1.826-4.561,2.908-8.544,3.246
	c-1.606,0.143-3.251,0.24-4.944,0.299l-3.426,0.133c-5.975,0-10.131-1.467-12.469-4.398c-1.973-2.477-3.088-6.551-3.338-12.199
	c-0.116-2.512-0.173-6.045-0.173-10.588c0-8.545,0.327-14.218,0.972-17.018c0.461-2.02,1.193-3.822,2.203-5.408
	c0.952-1.502,2.28-2.668,3.974-3.498c2.693-1.334,6.427-1.995,11.198-1.995c4.801,0,8.246,0.36,10.333,1.069
	c2.944,1.01,4.898,3.245,5.87,6.694c0.712,2.561,1.068,6.178,1.068,10.853h-8.208v-3.39c0-2.164-0.424-3.761-1.27-4.771
	c-0.895-1.045-3.3-1.575-7.216-1.575h-1.212c-3.896,0-6.446,0.733-7.658,2.2c-1.203,1.478-1.809,4.495-1.809,9.05v14.134
	c0,5.348,0.712,8.664,2.145,9.951c0.943,0.854,1.954,1.371,3.012,1.563c1.145,0.217,2.742,0.313,4.781,0.313
	c2.463,0,4.108-0.037,4.956-0.133c1.51-0.359,2.626-0.996,3.357-1.887c0.606-0.732,0.991-1.922,1.155-3.533
	c0.096-0.949,0.173-2.729,0.221-5.336h8.207V296.457L108.945,296.457z"/>
<polygon fill="#FFD600" points="174.004,311.083 160.092,311.083 141.726,265.87 141.388,265.87 141.86,288.296 142.081,311.083 
	133.711,311.083 133.711,257 147.508,257 166.096,302.212 166.327,302.212 165.634,257 174.004,257 174.004,311.083 "/>
<path fill="#FFD600" d="M218.859,311.083h-8.476l-2.771-10.18H188.86l-2.781,10.18h-8.601L191.91,257h12.181L218.859,311.083
	L218.859,311.083z M205.649,293.054l-7.447-28.207l-0.048,0.012l-7.456,28.194H205.649L205.649,293.054z"/>
<polygon fill="#FFD600" points="263.195,311.083 249.283,311.083 230.916,265.87 230.579,265.87 231.051,288.296 231.271,311.083 
	222.901,311.083 222.901,257 236.698,257 255.287,302.212 255.518,302.212 254.825,257 263.195,257 263.195,311.083 "/>
<polygon fill="#FFD600" points="300.131,265.87 287.374,265.87 287.374,311.083 279.061,311.083 279.061,265.87 266.418,265.87 
	266.418,257 300.131,257 300.131,265.87 "/>
<polygon fill="#FFD600" points="333.267,311.083 303.412,311.083 303.412,257 333.152,257 333.152,265.87 311.726,265.87 
	311.726,279.426 332.055,279.426 332.055,287.863 311.726,287.863 311.726,302.212 333.267,302.212 333.267,311.083 "/>
<path fill="#FFD600" d="M372.408,295.435c0.038,2.885-0.299,5.553-1.011,7.992c-0.693,2.32-1.684,4.086-2.983,5.287
	c-2.02,1.875-6.167,2.813-12.411,2.813h-3.116c-2.887,0-5.033-0.131-6.438-0.408c-2.492-0.48-4.436-1.479-5.85-2.992
	c-1.838-1.971-2.888-4.725-3.127-8.258c-0.116-1.514-0.174-3.496-0.174-5.947h8.255c0,0.625-0.028,1.129-0.105,1.514
	c0.058,1.525,0.135,2.572,0.222,3.148c0.192,1.238,0.558,2.164,1.106,2.789c0.559,0.625,1.289,1.033,2.213,1.25
	c1.049,0.252,2.348,0.408,3.897,0.457c0.923,0.035,1.519,0.082,1.788,0.154c2.041-0.119,3.311-0.203,3.811-0.264
	c1.674-0.229,2.886-0.625,3.637-1.189c1.279-0.961,1.915-3.221,1.915-6.779c0-2.535-0.404-4.314-1.213-5.348
	c-0.24-0.324-0.625-0.602-1.145-0.854c-0.702-0.324-1.751-0.541-3.155-0.648c-0.511-0.037-1.309-0.084-2.406-0.156l-4.358-0.252
	c-3.137-0.182-5.656-0.65-7.552-1.406c-1.165-0.457-2.175-1.082-3.031-1.863c-2.348-2.188-3.56-6.129-3.638-11.827
	c-0.076-6.093,1.021-10.323,3.282-12.691c2.164-2.271,6.475-3.4,12.94-3.4c4.137,0,6.879,0.095,8.245,0.3
	c2.588,0.372,4.618,1.321,6.071,2.824c1.463,1.514,2.435,3.522,2.916,6.033c0.326,1.635,0.48,4.039,0.48,7.223h-8.371v-2.163
	c0-2.007-0.289-3.389-0.856-4.183c-0.692-0.961-2.434-1.442-5.205-1.442h-3.406c-3.28,0-5.416,0.481-6.397,1.442
	c-0.529,0.517-0.895,1.154-1.116,1.923c-0.25,0.914-0.365,2.104-0.337,3.558c0.038,1.623,0.163,2.909,0.385,3.882
	c0.289,1.371,1.415,2.284,3.396,2.752c0.827,0.205,1.809,0.348,2.944,0.445l3.213,0.276c3.638,0.289,6.043,0.541,7.227,0.757
	c3.204,0.565,5.407,1.49,6.609,2.776c1.174,1.274,1.972,3.124,2.387,5.554c0.173,1.105,0.278,2.055,0.317,2.871
	C372.302,292.093,372.35,293.451,372.408,295.435L372.408,295.435z"/>
</svg>
