<?xml version="1.0" encoding="UTF-8" standalone="no"?>
<svg
   xmlns:dc="http://purl.org/dc/elements/1.1/"
   xmlns:cc="http://creativecommons.org/ns#"
   xmlns:rdf="http://www.w3.org/1999/02/22-rdf-syntax-ns#"
   xmlns:svg="http://www.w3.org/2000/svg"
   xmlns="http://www.w3.org/2000/svg"
   xmlns:sodipodi="http://sodipodi.sourceforge.net/DTD/sodipodi-0.dtd"
   xmlns:inkscape="http://www.inkscape.org/namespaces/inkscape"
   width="48.02"
   height="125.94"
   viewBox="0 0 38.416001 2008.9949"
   version="1.1"
   id="svg2"
   inkscape:version="0.48.2 r9819"
   sodipodi:docname="Granada CF.svg">
  <metadata
     id="metadata44">
    <rdf:RDF>
      <cc:Work
         rdf:about="">
        <dc:format>image/svg+xml</dc:format>
        <dc:type
           rdf:resource="http://purl.org/dc/dcmitype/StillImage" />
      </cc:Work>
    </rdf:RDF>
  </metadata>
  <defs
     id="defs42" />
  <sodipodi:namedview
     pagecolor="#ffffff"
     bordercolor="#666666"
     borderopacity="1"
     objecttolerance="10"
     gridtolerance="10"
     guidetolerance="10"
     inkscape:pageopacity="0"
     inkscape:pageshadow="2"
     inkscape:window-width="1920"
     inkscape:window-height="1018"
     id="namedview40"
     showgrid="false"
     fit-margin-top="0"
     fit-margin-left="0"
     fit-margin-right="0"
     fit-margin-bottom="0"
     inkscape:zoom="6.3442908"
     inkscape:cx="24.01"
     inkscape:cy="62.970001"
     inkscape:window-x="-8"
     inkscape:window-y="-8"
     inkscape:window-maximized="1"
     inkscape:current-layer="svg2" />
  <g
     id="#e60d2eff"
     transform="translate(-355.56999,7.9082281)">
    <path
       d="m 366.92,0 14.46,0 c 19.32,1.27 38.6,4.8 56.66,11.93 42.02,16.08 77.15,48.27 98.42,87.74 16.03,29.39 24.44,62.77 24.87,96.21 62.89,0.01 125.78,0 188.67,0 l 0,1325.68 c -17.44,77.67 -44.91,153.48 -85.34,222.23 -50.08,85.65 -120.63,160.03 -206.34,210.53 -26.7,15.59 -54.66,29.39 -84.21,38.66 C 307.3,1963.67 244.45,1924.73 190.24,1875.76 110.8,1804.46 50.84,1711.63 19.11,1609.67 10.26,1581.37 3.62,1552.35 0,1522.91 L 0,195.88 c 62.31,0 124.63,0.01 186.94,0 0.49,-43.8 15.02,-87.48 41.74,-122.26 C 250,45.6 279.13,23.44 312.19,11.18 329.69,4.53 348.28,1.23 366.92,0 M 262.76,70.72 c 9.8,8.11 21.11,14.23 33.05,18.55 22.29,8.12 46.04,11.6 69.67,12.47 0.01,-25.62 0.01,-51.24 0,-76.87 C 327.1,26.81 290.1,43.89 262.76,70.72 M 385.38,25.13 c 0,25.51 -0.02,51.01 0.01,76.52 23.52,-0.97 47.18,-4.49 69.26,-12.93 11.2,-4.27 21.79,-10.22 30.86,-18.1 C 458.73,44.5 422.84,27.55 385.38,25.13 M 210.27,201.94 c 0.67,10.05 0.95,20.17 2.88,30.09 1.74,10.19 5.05,20 8.1,29.84 6.73,18.17 16.41,35.26 28.66,50.28 7.43,-6.66 15.88,-12.08 24.72,-16.67 -7.08,-11.02 -12.32,-23.14 -16.18,-35.63 -10.14,-33.57 -11.46,-69.6 -5.16,-104.02 3.67,-19.42 10.04,-38.51 20.31,-55.48 -8.42,-4.29 -15.98,-10.01 -23.29,-15.94 -27,32.63 -41.06,75.29 -40.04,117.53 M 474.52,100.68 c 13.47,21.41 20.36,46.36 23.29,71.31 2.68,23.63 1.77,47.7 -2.96,71.02 -3.89,18.97 -10.42,37.56 -20.74,54.01 8.42,4.43 16.33,9.83 23.4,16.2 19.5,-23.54 32.67,-52.24 37.94,-82.35 0.63,-7.99 2.05,-15.91 2.55,-23.92 2.06,-43.91 -11.95,-88.7 -40.13,-122.64 -7.21,6.23 -14.91,11.92 -23.35,16.37 M 290.37,108 c -13.93,24.43 -18.86,52.88 -20.1,80.66 69.42,0 138.83,0.02 208.25,-0.01 -1.36,-27.74 -6.21,-56.36 -20.84,-80.43 -17.21,6.66 -35.38,10.58 -53.68,12.65 -38.15,4.07 -77.55,0.65 -113.63,-12.87 m -20,100.5 c 1.43,27.49 6.49,55.79 21.11,79.54 29.21,-10.61 60.6,-14.36 91.55,-13.24 25.28,1.04 50.6,5.37 74.27,14.48 14.59,-24.22 19.69,-52.89 21.16,-80.77 -69.37,-0.01 -138.73,-0.01 -208.09,-0.01 m 439.8,54.12 C 585.53,457.16 460.91,651.71 336.28,846.25 232.54,1008.28 128.65,1170.21 24.99,1332.29 c -0.27,53.55 -0.03,107.12 -0.11,160.68 0.09,9.67 -0.2,19.35 0.14,29.02 2.5,21.07 7.18,41.83 12.78,62.27 27.46,98.66 81.33,189.76 154.35,261.54 52.87,52.19 115.52,94.03 182.86,125.18 20.21,-8.3 39.55,-18.6 58.36,-29.68 87.13,-51.85 161.83,-124.99 213.8,-212.18 38.03,-63.56 63.6,-134.32 76.51,-207.19 -0.16,-419.76 0.46,-839.54 0.83,-1259.31 -4.78,-0.01 -9.56,-0.01 -14.34,0 m -410.28,43.02 c -13.55,4.48 -26.87,10.62 -37.57,20.25 27.35,27.14 64.58,44.33 103.16,46.32 0.02,-25.64 0,-51.28 0.01,-76.92 -22.18,0.6 -44.44,3.52 -65.6,10.35 m 85.48,66.35 c 37.25,-2.56 73.07,-19.2 99.71,-45.24 -9.9,-8.91 -22.05,-14.91 -34.5,-19.38 -20.93,-7.39 -43.09,-10.75 -65.19,-11.83 -0.03,25.48 0,50.96 -0.02,76.45 M 53.36,433.24 c 0,256.69 -0.01,513.37 0.01,770.06 128.18,-205.09 256.32,-410.2 384.49,-615.29 -72.77,0.04 -145.54,0.17 -218.3,0.22 -0.03,13.76 -0.01,27.53 -0.01,41.29 47.84,0.03 95.69,0 143.53,0.02 -89.47,143.2 -178.95,286.4 -268.46,429.58 -0.01,-194.84 -0.01,-389.69 0,-584.53 137.94,-0.02 275.88,0.01 413.82,-0.02 8.63,-13.79 17.29,-27.55 25.92,-41.33 -160.33,-0.01 -320.67,-0.01 -481,0 z"
       id="path5"
       inkscape:connector-curvature="0"
       style="fill:#e60d2e" />
    <path
       d="m 677.39,378.1 c 7.89,-0.1 15.78,-0.03 23.67,-0.04 0.01,127.47 0.01,254.94 0,382.42 -18.62,0 -37.24,0.05 -55.85,0.03 0,-76.67 0.01,-153.35 -0.01,-230.02 -79.38,127.22 -158.71,254.47 -238.07,381.71 -0.56,0.83 -0.78,1.76 -0.66,2.8 0.04,50.26 0.01,100.52 0.02,150.78 53.45,7.08 104.2,32.38 142.17,70.64 -13.19,13.24 -26.41,26.46 -39.62,39.68 -27.64,-27.73 -63.92,-46.77 -102.54,-53.39 -0.03,34.28 -0.01,68.55 -0.01,102.83 70.99,0.02 141.98,0 212.98,0.02 0.01,18.69 -0.01,37.39 0.01,56.09 -70.99,0.03 -141.99,0 -212.98,0.02 -0.03,72.38 -0.01,144.76 -0.01,217.15 38.6,-6.63 74.84,-25.66 102.45,-53.39 13.24,13.21 26.49,26.42 39.71,39.66 -37.92,38.31 -88.71,63.53 -142.15,70.62 -0.03,17.05 0,34.1 -0.02,51.15 -18.68,0 -37.37,0.02 -56.05,-0.01 0,-16.64 0.01,-33.28 -0.01,-49.92 -37.89,-3.51 -74.94,-15.89 -107.24,-36.02 -27.43,-17.03 -51.49,-39.45 -70.37,-65.64 -19.67,-27.19 -33.69,-58.44 -40.88,-91.21 -9.2,-41.83 -7.39,-86.05 5.38,-126.94 10.65,-34.3 28.97,-66.16 53.17,-92.69 40.9,-45.3 99.12,-74.48 159.95,-79.82 0,-20.56 0,-41.12 0,-61.69 -2.55,4.44 -5.05,8.91 -7.58,13.36 -15.87,-9.52 -31.75,-19.02 -47.61,-28.54 C 422.62,784.52 550.07,581.35 677.39,378.1 m -440.24,799.1 c -22.78,23.21 -39.53,52.32 -47.96,83.75 -10.24,37.86 -8.49,78.89 5.12,115.7 12.38,33.8 34.63,63.89 63.24,85.73 26.83,20.63 59.26,33.89 92.88,37.91 0.01,-126.33 0,-252.66 0,-378.99 -42.68,4.98 -83.3,25.15 -113.28,55.9 z"
       id="path7"
       inkscape:connector-curvature="0"
       style="fill:#e60d2e" />
    <path
       d="m 404.6,1639.66 c 6.35,-3.76 11.16,-9.61 15.14,-15.71 -4.55,12.73 -7.38,26.47 -5.87,40.02 16.33,8.23 30.41,21.05 39.14,37.22 17.37,30.97 14.9,71.89 -6.44,100.35 -11.29,15.36 -27.78,26.99 -46.3,31.76 -16.49,4.32 -34.36,3.17 -50.16,-3.23 -17.24,-6.88 -31.85,-19.79 -41.36,-35.68 -11.66,-19.31 -15.84,-42.98 -11.57,-65.12 4.81,-25.01 20.52,-47.5 41.86,-61.26 5.55,-4.02 11.15,-9.15 12.92,-16 0.64,-7.32 -4.09,-13.68 -8.11,-19.34 4.82,3.37 10.17,6.29 16.07,7.14 8.42,1.25 17.46,-4.02 20.12,-12.19 1.03,4.38 3.27,8.66 7.06,11.26 5.06,3.45 12.19,4.03 17.5,0.78 m -50.12,56.92 c -4,6.98 -4.48,16.1 -0.16,23.07 6.45,10.68 17.46,17.3 25.82,26.31 5.15,5.38 9.51,12.28 9.26,20.01 -0.16,10.34 0.06,21.09 -3.81,30.88 -2.44,6.26 -7.16,11.26 -12.31,15.43 7.63,-2.66 14.44,-7.27 20.74,-12.26 11.11,-9.04 20.27,-21.56 22.13,-36.07 1.38,-9.98 -0.42,-21.03 -7.52,-28.58 -7.82,-8.88 -20.09,-12.22 -27.65,-21.34 -4.42,-5.26 -4.59,-12.47 -4.11,-18.97 0.58,-7.35 0.89,-15.63 6.05,-21.42 -11.08,5.15 -22.24,12.03 -28.44,22.94 z"
       id="path9"
       inkscape:connector-curvature="0"
       style="fill:#e60d2e" />
    <path
       d="m 375.26,1868.31 c 1.55,-10.77 3.09,-21.53 4.89,-32.26 3.8,23.88 7.23,47.83 9.9,71.87 1.43,13.4 2.79,26.84 2.91,40.33 -8.52,0 -17.03,0 -25.54,0 0.51,-26.44 4.25,-52.68 7.76,-78.84 -13.34,12.27 -30.67,21.7 -49.22,21.28 -17.73,-0.75 -33.99,-10.09 -46.78,-21.9 12.54,-11.61 28.41,-20.78 45.77,-21.85 18.94,-0.83 36.77,8.79 50.31,21.37 z"
       id="path11"
       inkscape:connector-curvature="0"
       style="fill:#e60d2e" />
    <path
       d="m 385.25,1868.79 c 12.97,-12.05 29.64,-21.53 47.72,-21.91 18.49,-0.05 35.6,9.61 48.83,21.91 -13.02,12.07 -29.73,21.57 -47.86,21.92 -18.43,-0.06 -35.47,-9.69 -48.69,-21.92 z"
       id="path13"
       inkscape:connector-curvature="0"
       style="fill:#e60d2e" />
  </g>
  <g
     id="#ffffffff"
     transform="translate(-355.56999,7.9082281)">
    <path
       d="M 262.76,70.72 C 290.1,43.89 327.1,26.81 365.48,24.87 c 0.01,25.63 0.01,51.25 0,76.87 C 341.85,100.87 318.1,97.39 295.81,89.27 283.87,84.95 272.56,78.83 262.76,70.72 z"
       id="path16"
       inkscape:connector-curvature="0"
       style="fill:#ffffff" />
    <path
       d="m 385.38,25.13 c 37.46,2.42 73.35,19.37 100.13,45.49 -9.07,7.88 -19.66,13.83 -30.86,18.1 -22.08,8.44 -45.74,11.96 -69.26,12.93 -0.03,-25.51 -0.01,-51.01 -0.01,-76.52 z"
       id="path18"
       inkscape:connector-curvature="0"
       style="fill:#ffffff" />
    <path
       d="m 210.27,201.94 c -1.02,-42.24 13.04,-84.9 40.04,-117.53 7.31,5.93 14.87,11.65 23.29,15.94 -10.27,16.97 -16.64,36.06 -20.31,55.48 -6.3,34.42 -4.98,70.45 5.16,104.02 3.86,12.49 9.1,24.61 16.18,35.63 -8.84,4.59 -17.29,10.01 -24.72,16.67 -12.25,-15.02 -21.93,-32.11 -28.66,-50.28 -3.05,-9.84 -6.36,-19.65 -8.1,-29.84 -1.93,-9.92 -2.21,-20.04 -2.88,-30.09 z"
       id="path20"
       inkscape:connector-curvature="0"
       style="fill:#ffffff" />
    <path
       d="m 474.52,100.68 c 8.44,-4.45 16.14,-10.14 23.35,-16.37 28.18,33.94 42.19,78.73 40.13,122.64 -0.5,8.01 -1.92,15.93 -2.55,23.92 -5.27,30.11 -18.44,58.81 -37.94,82.35 -7.07,-6.37 -14.98,-11.77 -23.4,-16.2 10.32,-16.45 16.85,-35.04 20.74,-54.01 4.73,-23.32 5.64,-47.39 2.96,-71.02 -2.93,-24.95 -9.82,-49.9 -23.29,-71.31 z"
       id="path22"
       inkscape:connector-curvature="0"
       style="fill:#ffffff" />
    <path
       d="m 290.37,108 c 36.08,13.52 75.48,16.94 113.63,12.87 18.3,-2.07 36.47,-5.99 53.68,-12.65 14.63,24.07 19.48,52.69 20.84,80.43 -69.42,0.03 -138.83,0.01 -208.25,0.01 1.24,-27.78 6.17,-56.23 20.1,-80.66 z"
       id="path24"
       inkscape:connector-curvature="0"
       style="fill:#ffffff" />
    <path
       d="m 270.37,208.5 c 69.36,0 138.72,0 208.09,0.01 -1.47,27.88 -6.57,56.55 -21.16,80.77 -23.67,-9.11 -48.99,-13.44 -74.27,-14.48 -30.95,-1.12 -62.34,2.63 -91.55,13.24 -14.62,-23.75 -19.68,-52.05 -21.11,-79.54 z"
       id="path26"
       inkscape:connector-curvature="0"
       style="fill:#ffffff" />
    <path
       d="m 710.17,262.62 c 4.78,-0.01 9.56,-0.01 14.34,0 -0.37,419.77 -0.99,839.55 -0.83,1259.31 -12.91,72.87 -38.48,143.63 -76.51,207.19 -51.97,87.19 -126.67,160.33 -213.8,212.18 -18.81,11.08 -38.15,21.38 -58.36,29.68 C 307.67,1939.83 245.02,1897.99 192.15,1845.8 119.13,1774.02 65.26,1682.92 37.8,1584.26 c -5.6,-20.44 -10.28,-41.2 -12.78,-62.27 -0.34,-9.67 -0.05,-19.35 -0.14,-29.02 0.08,-53.56 -0.16,-107.13 0.11,-160.68 C 128.65,1170.21 232.54,1008.28 336.28,846.25 460.91,651.71 585.53,457.16 710.17,262.62 M 677.39,378.1 C 550.07,581.35 422.62,784.52 295.24,987.74 c 15.86,9.52 31.74,19.02 47.61,28.54 2.53,-4.45 5.03,-8.92 7.58,-13.36 0,20.57 0,41.13 0,61.69 -60.83,5.34 -119.05,34.52 -159.95,79.82 -24.2,26.53 -42.52,58.39 -53.17,92.69 -12.77,40.89 -14.58,85.11 -5.38,126.94 7.19,32.77 21.21,64.02 40.88,91.21 18.88,26.19 42.94,48.61 70.37,65.64 32.3,20.13 69.35,32.51 107.24,36.02 0.02,16.64 0.01,33.28 0.01,49.92 18.68,0.03 37.37,0.01 56.05,0.01 0.02,-17.05 -0.01,-34.1 0.02,-51.15 53.44,-7.09 104.23,-32.31 142.15,-70.62 -13.22,-13.24 -26.47,-26.45 -39.71,-39.66 -27.61,27.73 -63.85,46.76 -102.45,53.39 0,-72.39 -0.02,-144.77 0.01,-217.15 70.99,-0.02 141.99,0.01 212.98,-0.02 -0.02,-18.7 0,-37.4 -0.01,-56.09 -71,-0.02 -141.99,0 -212.98,-0.02 0,-34.28 -0.02,-68.55 0.01,-102.83 38.62,6.62 74.9,25.66 102.54,53.39 13.21,-13.22 26.43,-26.44 39.62,-39.68 -37.97,-38.26 -88.72,-63.56 -142.17,-70.64 -0.01,-50.26 0.02,-100.52 -0.02,-150.78 -0.12,-1.04 0.1,-1.97 0.66,-2.8 79.36,-127.24 158.69,-254.49 238.07,-381.71 0.02,76.67 0.01,153.35 0.01,230.02 18.61,0.02 37.23,-0.03 55.85,-0.03 0.01,-127.48 0.01,-254.95 0,-382.42 -7.89,0.01 -15.78,-0.06 -23.67,0.04 M 404.6,1639.66 c -5.31,3.25 -12.44,2.67 -17.5,-0.78 -3.79,-2.6 -6.03,-6.88 -7.06,-11.26 -2.66,8.17 -11.7,13.44 -20.12,12.19 -5.9,-0.85 -11.25,-3.77 -16.07,-7.14 4.02,5.66 8.75,12.02 8.11,19.34 -1.77,6.85 -7.37,11.98 -12.92,16 -21.34,13.76 -37.05,36.25 -41.86,61.26 -4.27,22.14 -0.09,45.81 11.57,65.12 9.51,15.89 24.12,28.8 41.36,35.68 15.8,6.4 33.67,7.55 50.16,3.23 18.52,-4.77 35.01,-16.4 46.3,-31.76 21.34,-28.46 23.81,-69.38 6.44,-100.35 -8.73,-16.17 -22.81,-28.99 -39.14,-37.22 -1.51,-13.55 1.32,-27.29 5.87,-40.02 -3.98,6.1 -8.79,11.95 -15.14,15.71 m -29.34,228.65 c -13.54,-12.58 -31.37,-22.2 -50.31,-21.37 -17.36,1.07 -33.23,10.24 -45.77,21.85 12.79,11.81 29.05,21.15 46.78,21.9 18.55,0.42 35.88,-9.01 49.22,-21.28 -3.51,26.16 -7.25,52.4 -7.76,78.84 8.51,0 17.02,0 25.54,0 -0.12,-13.49 -1.48,-26.93 -2.91,-40.33 -2.67,-24.04 -6.1,-47.99 -9.9,-71.87 -1.8,10.73 -3.34,21.49 -4.89,32.26 m 9.99,0.48 c 13.22,12.23 30.26,21.86 48.69,21.92 18.13,-0.35 34.84,-9.85 47.86,-21.92 -13.23,-12.3 -30.34,-21.96 -48.83,-21.91 -18.08,0.38 -34.75,9.86 -47.72,21.91 z"
       id="path28"
       inkscape:connector-curvature="0"
       style="fill:#ffffff" />
    <path
       d="m 299.89,305.64 c 21.16,-6.83 43.42,-9.75 65.6,-10.35 -0.01,25.64 0.01,51.28 -0.01,76.92 -38.58,-1.99 -75.81,-19.18 -103.16,-46.32 10.7,-9.63 24.02,-15.77 37.57,-20.25 z"
       id="path30"
       inkscape:connector-curvature="0"
       style="fill:#ffffff" />
    <path
       d="m 385.37,371.99 c 0.02,-25.49 -0.01,-50.97 0.02,-76.45 22.1,1.08 44.26,4.44 65.19,11.83 12.45,4.47 24.6,10.47 34.5,19.38 -26.64,26.04 -62.46,42.68 -99.71,45.24 z"
       id="path32"
       inkscape:connector-curvature="0"
       style="fill:#ffffff" />
    <path
       d="m 53.36,433.24 c 160.33,-0.01 320.67,-0.01 481,0 -8.63,13.78 -17.29,27.54 -25.92,41.33 -137.94,0.03 -275.88,0 -413.82,0.02 -0.01,194.84 -0.01,389.69 0,584.53 89.51,-143.18 178.99,-286.38 268.46,-429.58 -47.84,-0.02 -95.69,0.01 -143.53,-0.02 0,-13.76 -0.02,-27.53 0.01,-41.29 72.76,-0.05 145.53,-0.18 218.3,-0.22 C 309.69,793.1 181.55,998.21 53.37,1203.3 53.35,946.61 53.36,689.93 53.36,433.24 z"
       id="path34"
       inkscape:connector-curvature="0"
       style="fill:#ffffff" />
    <path
       d="m 237.15,1177.2 c 29.98,-30.75 70.6,-50.92 113.28,-55.9 0,126.33 0.01,252.66 0,378.99 -33.62,-4.02 -66.05,-17.28 -92.88,-37.91 -28.61,-21.84 -50.86,-51.93 -63.24,-85.73 -13.61,-36.81 -15.36,-77.84 -5.12,-115.7 8.43,-31.43 25.18,-60.54 47.96,-83.75 z"
       id="path36"
       inkscape:connector-curvature="0"
       style="fill:#ffffff" />
    <path
       d="m 354.48,1696.58 c 6.2,-10.91 17.36,-17.79 28.44,-22.94 -5.16,5.79 -5.47,14.07 -6.05,21.42 -0.48,6.5 -0.31,13.71 4.11,18.97 7.56,9.12 19.83,12.46 27.65,21.34 7.1,7.55 8.9,18.6 7.52,28.58 -1.86,14.51 -11.02,27.03 -22.13,36.07 -6.3,4.99 -13.11,9.6 -20.74,12.26 5.15,-4.17 9.87,-9.17 12.31,-15.43 3.87,-9.79 3.65,-20.54 3.81,-30.88 0.25,-7.73 -4.11,-14.63 -9.26,-20.01 -8.36,-9.01 -19.37,-15.63 -25.82,-26.31 -4.32,-6.97 -3.84,-16.09 0.16,-23.07 z"
       id="path38"
       inkscape:connector-curvature="0"
       style="fill:#ffffff" />
  </g>
</svg>
