<?xml version="1.0" encoding="UTF-8" ?>
<!DOCTYPE svg PUBLIC "-//W3C//DTD SVG 1.1//EN" "http://www.w3.org/Graphics/SVG/1.1/DTD/svg11.dtd">
<svg width="492pt" height="349pt" viewBox="0 0 492 349" version="1.1" xmlns="http://www.w3.org/2000/svg">
<g id="#376aaaff">
<path fill="#376aaa" opacity="1.00" d=" M 0.00 0.00 L 492.00 0.00 L 492.00 349.00 L 0.00 349.00 L 0.00 0.00 M 98.86 174.80 C 147.89 223.97 196.90 273.16 245.96 322.30 C 295.00 273.15 344.02 223.98 393.05 174.81 C 344.03 125.61 294.99 76.43 245.95 27.26 C 196.92 76.43 147.88 125.60 98.86 174.80 Z" />
</g>
<g id="#ffffffff">
<path fill="#ffffff" opacity="1.00" d=" M 98.86 174.80 C 147.88 125.60 196.92 76.43 245.95 27.26 C 294.99 76.43 344.03 125.61 393.05 174.81 C 344.02 223.98 295.00 273.15 245.96 322.30 C 196.90 273.16 147.89 223.97 98.86 174.80 M 156.29 174.91 C 186.21 204.39 216.12 233.88 246.04 263.35 C 275.77 233.91 305.49 204.48 335.21 175.03 C 305.60 145.35 275.99 115.67 246.37 86.00 C 216.34 115.64 186.32 145.28 156.29 174.91 Z" />
<path fill="#ffffff" opacity="1.00" d=" M 213.30 174.92 C 224.16 164.06 235.13 153.31 246.07 142.54 C 257.00 153.17 267.87 163.94 278.38 174.99 C 267.61 185.73 256.78 196.41 245.97 207.11 C 235.07 196.39 224.18 185.66 213.30 174.92 Z" />
</g>
<g id="#000000ff">
<path fill="#000000" opacity="1.00" d=" M 156.29 174.91 C 186.32 145.28 216.34 115.64 246.37 86.00 C 275.99 115.67 305.60 145.35 335.21 175.03 C 305.49 204.48 275.77 233.91 246.04 263.35 C 216.12 233.88 186.21 204.39 156.29 174.91 M 213.30 174.92 C 224.18 185.66 235.07 196.39 245.97 207.11 C 256.78 196.41 267.61 185.73 278.38 174.99 C 267.87 163.94 257.00 153.17 246.07 142.54 C 235.13 153.31 224.16 164.06 213.30 174.92 Z" />
</g>
</svg>
