<?xml version="1.0" encoding="utf-8"?>
<!-- Generator: Adobe Illustrator 13.0.0, SVG Export Plug-In . SVG Version: 6.00 Build 14948)  -->
<!DOCTYPE svg PUBLIC "-//W3C//DTD SVG 1.1//EN" "http://www.w3.org/Graphics/SVG/1.1/DTD/svg11.dtd">
<svg version="1.1" id="Ebene_1" xmlns="http://www.w3.org/2000/svg" xmlns:xlink="http://www.w3.org/1999/xlink" x="0px" y="0px"
	 width="327.453px" height="327.458px" viewBox="0 0 327.453 327.458" enable-background="new 0 0 327.453 327.458"
	 xml:space="preserve">
<g>
	<defs>
		<rect id="SVGID_1_" x="0.06" width="327.393" height="327.458"/>
	</defs>
	<clipPath id="SVGID_2_">
		<use xlink:href="#SVGID_1_"  overflow="visible"/>
	</clipPath>
	<path clip-path="url(#SVGID_2_)" fill-rule="evenodd" clip-rule="evenodd" fill="#00529F" d="M0,163.728C0,73.302,73.3,0,163.726,0
		s163.727,73.302,163.727,163.729c0,90.425-73.301,163.729-163.727,163.729S0,254.154,0,163.728"/>
</g>
<path fill-rule="evenodd" clip-rule="evenodd" fill="#FFFFFF" d="M9.34,163.728C9.34,78.463,78.458,9.341,163.726,9.341
	c85.27,0,154.388,69.122,154.388,154.388s-69.118,154.386-154.388,154.386C78.458,318.115,9.34,248.995,9.34,163.728"/>
<path fill-rule="evenodd" clip-rule="evenodd" fill="#00529F" d="M163.727,271.611c28.817,0,55.909-11.221,76.284-31.599
	c20.379-20.377,31.599-47.468,31.599-76.284c0-28.817-11.22-55.909-31.599-76.287c-20.375-20.376-47.467-31.598-76.286-31.598
	c-28.818,0-55.908,11.222-76.284,31.598c-20.38,20.377-31.599,47.47-31.599,76.287c0,28.816,11.219,55.907,31.599,76.284
	C107.817,260.391,134.907,271.611,163.727,271.611 M56.98,163.728c0-28.513,11.103-55.319,31.265-75.481
	c20.162-20.164,46.967-31.266,75.48-31.266c28.515,0,55.323,11.102,75.482,31.266c20.162,20.162,31.269,46.968,31.269,75.482
	c0,28.512-11.106,55.318-31.269,75.481c-20.159,20.162-46.967,31.266-75.482,31.266c-28.513,0-55.318-11.104-75.48-31.266
	C68.083,219.047,56.98,192.241,56.98,163.728z"/>
<path fill-rule="evenodd" clip-rule="evenodd" fill="#00529F" d="M134.477,83.994c3.847-4.194,19.658-10.749,19.658-10.749
	c7.17-3.514,7.247-7.753,6.629-10.009c-21.142,0.634-40.615,8.017-56.415,20.107c9.01,3.001,23.646,13.656,23.646,13.656
	C128.417,89.331,130.633,88.188,134.477,83.994"/>
<path fill-rule="evenodd" clip-rule="evenodd" fill="#00529F" d="M174.066,71.771c0,0,15.809,6.556,19.652,10.749
	c3.844,4.195,6.059,5.339,6.486,13.007c0,0,12.812-9.327,21.838-12.986c-15.477-11.519-34.367-18.569-54.839-19.289
	C167.106,65.61,168.26,68.929,174.066,71.771"/>
<path fill-rule="evenodd" clip-rule="evenodd" fill="#00529F" d="M76.247,128.067c3.206-1.989,4.75-2.997,9.933-10.168
	c0,0,4.991-6.069,8.185-7.49c0,0-0.828-7.516-0.726-8.865c0.104-1.35,0.31-5.705,1.447-7.338c0.948-1.368,1.773-3.065,1.346-4.123
	c-11.483,10.861-20.421,24.466-25.81,39.789C71.364,129.865,73.626,129.691,76.247,128.067"/>
<path fill-rule="evenodd" clip-rule="evenodd" fill="#00529F" d="M233.412,99.844c0.102,1.349-0.731,8.867-0.731,8.867
	c3.198,1.42,8.185,7.488,8.185,7.488c5.183,7.172,6.729,8.181,9.938,10.168c2.406,1.491,4.508,1.76,5.415,1.8
	c-5.518-14.824-14.378-27.976-25.645-38.503c0.202,0.909,0.769,1.945,1.39,2.842C233.098,94.138,233.309,98.495,233.412,99.844"/>
<path fill-rule="evenodd" clip-rule="evenodd" fill="#00529F" d="M94.695,220.458c-7.573-12.497-2.034-20.586,0.825-26.515
	c2.863-5.929,14.506-10.517,14.506-10.517l-1.061-2.548c-3.405,0.756-12.854,3.264-23.079-2.228
	c-10.226-5.49-10.839-22.659-10.839-22.659c0.583-12.83-4.405-17.282-6.732-18.652c-2.242,8.409-3.438,17.256-3.438,26.389
	c0,32.805,15.45,61.939,39.354,80.291C105.653,238.357,101.64,231.914,94.695,220.458"/>
<path fill-rule="evenodd" clip-rule="evenodd" fill="#00529F" d="M262.58,163.728c0-10.316-1.531-20.268-4.369-29.636
	c-1.741,1.886-3.842,6.491-3.332,17.721c0,0-0.516,18.18-10.736,23.671c-10.227,5.492-19.298,2.932-22.708,2.174l-2.093,5.168
	c0,0,11.623,4.344,14.486,10.273c2.859,5.929,9.289,12.855,1.716,25.353c-6.872,11.337-10.875,17.766-9.576,23.386
	C248.3,223.405,262.58,195.263,262.58,163.728"/>
<path fill-rule="evenodd" clip-rule="evenodd" fill="#00529F" d="M194.45,249.586c-10.922,2.726-22.825-9.941-22.825-9.941
	c-7.883,3.004-13.158,0.375-13.158,0.375c-6.817,12.498-19.293,9.003-32.589,6.372c-9.577-1.897-13.384,0.808-14.759,2.468
	c15.233,9.759,33.274,15.407,52.607,15.407c20.901,0,40.286-6.598,56.256-17.858C214.088,241.914,204.501,247.079,194.45,249.586"/>
<path fill-rule="evenodd" clip-rule="evenodd" fill="#00529F" d="M164.896,64.08c0,0-1.36,5.844-2.777,7.358
	c-1.422,1.515-6.882,5.836-10.102,7.067c-3.22,1.229-15.78,7.187-17.769,12.088c-1.983,4.901-2.904,9.609-2.904,9.609l3.018,2.728
	c0,0,0.118-7.405,2.468-10.436c2.35-3.029,6.125-7.124,12.281-9.396c6.151-2.273,14.229-9.365,15.368-12.584l0.695-0.065
	c0,0,3.869,6.083,5.831,7.098c1.959,1.016,6.554,4.087,11.097,5.507c4.549,1.421,9.104,6.993,9.836,8.427
	c0.729,1.433,2.822,8.612,2.822,8.612l3.21-3.543c0,0-2.562-7.068-5.782-10.192c-3.218-3.125-5.485-4.844-11.357-6.548
	C174.963,78.106,164.875,74.243,164.896,64.08"/>
<path fill-rule="evenodd" clip-rule="evenodd" fill="#00529F" d="M96.144,114.136c0,0-5.967,5.435-8.661,8.559
	c-2.698,3.125-6.949,10.868-18.591,10.014l-0.02,1.022c0,0,2.27,0.133,4.188,2.708c1.916,2.573,4.398,4.384,4.682,10.206
	c0.283,5.822,0.293,34.244,26.422,31.331l-0.453-1.777c0,0-5.671,0.786-11.353-3.19c-5.683-3.977-9.094-7.703-10.659-18.212
	c0,0-1.963-13.371-5.513-16.495c-3.55-3.125-2.266-3.191-1.983-4.042c0,0,4.223-0.398,9.061-4.172
	c4.838-3.774,11.287-10.816,12.632-11.753C97.247,117.398,98.374,116.646,96.144,114.136"/>
<path fill-rule="evenodd" clip-rule="evenodd" fill="#00529F" d="M106.76,247.875c0,0-0.216-0.807,0.727-2.51
	c0.948-1.705,2.972-5.243-1.577-13.77c-4.549-8.528-12.373-18.724-9.813-27.527c2.555-8.805,7.907-14.162,15.104-16.529l0.752,3.736
	c0,0-9.679,3.806-11.765,10.338c-2.082,6.531-2.04,11.444,2.883,19.965c4.92,8.521,7.527,12.554,6.862,20.79
	c0,0,8.099-2.258,13.416-1.571c5.315,0.688,14.543,1.727,17.478,0.685c2.937-1.042,7.825-0.087,11.236-6.241l2.916,2.439
	c0,0-4.554,7.952-13.074,7.478c-8.521-0.474-15.609-2.126-18.927-2.459S110.887,241.553,106.76,247.875"/>
<path fill-rule="evenodd" clip-rule="evenodd" fill="#00529F" d="M179.098,235.071l-3.301,1.782c0,0,4.889,9.674,16.253,8.916
	c11.359-0.757,15.82-3.831,18.366-3.941c2.549-0.108,5.847-2.414,12.373,2.103l1.145-0.427c0,0-3.401-6.008-0.182-11.31
	c3.221-5.301,9.634-15.347,10.582-23.204c0.947-7.857-1.072-14.809-16.314-22.097l-2.123,4.077c0,0,12.563,3.719,14.178,11.387
	c1.605,7.67,2.117,10.103-2.771,19.472c-4.884,9.371-6.568,9.129-6.662,18.122c0,0-2.139-1.996-10.663-0.246
	C201.452,241.455,187.13,247.135,179.098,235.071"/>
<path fill-rule="evenodd" clip-rule="evenodd" fill="#00529F" d="M164.916,237.071c0,0,3.904,0.701,7.444-3.179
	c0,0,4.435-1.403,6.821-3.138c2.385-1.733,5.398-3.999,4.977-12.233c0,0,3.086-4.912,4.646-6.9c1.561-1.989,1.396-1.561,5.939-5.82
	c4.544-4.261,12.4-8.715,14.481-11.383c2.076-2.668,3.57-4.376,6.882-14.037c0,0,2.684-4.917,5.807-7.481
	c3.116-2.563,4.09-2.627,2.674-5.609c0,0-0.145-1.619,1.766-3.951c1.911-2.334,5.585-5.527,2.891-6.665
	c-2.699-1.136-3.498-1.93-4.493-2.925c-0.988-0.997-1.72-2.82-4.847-4.524c0,0-1.355-1.269-1.056-2.523
	c0.294-1.255,1.597-3.22,1.88-5.35c0.283-2.131,2.339-2.197,2.565-4.894c0.222-2.699,0.334-10.06,1.046-13.184
	c0.706-3.125,3.462-7.273,3.709-9.934c0.242-2.662-0.371-3.417,1.617-9.949c0,0,1.242-1.593,0.742-4.544
	c-0.5-2.953-3.966-12.25-4.93-12.993c-0.964-0.738-1.282-1.836-4.508-0.248c-3.215,1.589-6.476,4.044-7.897,5.463
	c-1.423,1.421-7.408,3.73-8.103,4.79c-0.691,1.059-5.322,4.182-6.898,5.806c-1.572,1.623-3.875,4.127-4.859,5.504
	c-0.982,1.377-1.457,2.683-5.331,1.519c-3.868-1.166-12.601-3.593-22.966-3.736c0,0-15.181,0.777-23.558,4.013
	c0,0-4.342,2.424-6.187-0.558c-1.844-2.983-12.827-11.549-14.816-12.056c-1.993-0.506-11.097-8.156-18.556-9.433
	c0,0-5.234,12.39-3.729,18.603c1.51,6.211,3.085,11.679,3.132,12.353c0.047,0.675,1.649,3.956,2.297,6.102
	c0.65,2.145,1.041,7.761,1.645,11.082c0.601,3.317,1.085,5.007,1.936,6.143c0.85,1.136,0.747,2.538,1.231,3.37
	c0.479,0.833,0.819,1.055,1.396,2.169c0.572,1.115,1.665,1.41-0.912,4.196c-2.571,2.784-5.233,7.391-10.205,7.816l-0.056,1.385
	c0,0,2.277,2.264,3.45,4.019c1.175,1.758,3.638,4.035,1.505,7.443l7.074,5.844c0,0,1.679-0.139,3.384,6.058
	c1.7,6.196,1.303,8.965,6.651,12.774c5.352,3.811,7.387,4.824,9.081,6.252c1.701,1.43,4.74,3.488,5.58,4.585
	c0.834,1.097,2.633,1.349,3.564,2.03c0.938,0.684,0.675,2.57,3.122,4.534c2.448,1.964,4.209,3.939,4.282,5.358
	c0.072,1.422-0.269,2.667,0.021,4.733c0.287,2.065,1.932,5.52,3.703,6.772c1.767,1.253,2.215,1.282,4.491,2.131
	C156.715,233.52,162.362,237.472,164.916,237.071"/>
<path fill-rule="evenodd" clip-rule="evenodd" fill="#EFB310" d="M186.367,112.019c0,0-11.652-3.8-22.018-3.375
	c0,0-20.182,1.919-24.444,4.476c0,0,2.844,3.145,3.709,6.032l-1.149,1.401c0,0-25.546-24.685-39.444-28.215
	c0,0-2.675,5.675,1.303,19.023c3.977,13.349,5.332,17.883,5.491,19.294c0.161,1.412-0.067,5.045,1.494,7.602
	c1.561,2.556,3.219,6.014,3.761,8.587c0.546,2.573-0.124,2.764-1.988,4.686c-1.861,1.923-7.177,7.046-7.321,8.183
	c-0.145,1.135,1.561,3.971,2.843,5.96c1.278,1.987,1.345,2.545,1.865,4.809c0.521,2.265,0.073,2.344,2.401,3.739
	c2.329,1.395,2.488,1.639,3.436,3.162c0.947,1.52,1.983,3.95,4.035,4.393c2.055,0.443,3.713,1.542,6.13,1.968
	c2.411,0.425,3.925,1.061,5.501,2.437c1.571,1.375,2.411,2.271,1.133,2.557c-1.278,0.283,0.037,0.994-3.657-0.424
	c-3.688-1.422-5.759-3.161-6.939-2.604c-1.175,0.557-3.024,1.559-2.488,2.623c0.53,1.064,2.282,3.886,4.06,4.736
	c1.776,0.852,1.174,0.78,4.208,2.407c3.039,1.628,3.524,1.657,6.181,4.534c2.659,2.878,1.227,1.739,4.174,3.904
	c2.947,2.166,2.38,2.449,4.41,4.17c0,0,5.248,6.781,5.388,9.054c0,0,2.214-6.671,1.798-8.631l2.869-0.431
	c0,0,1.994-6.342,2.715-9.894c0.716-3.55,1.999-6.815,1.37-9.544c-0.628-2.73,1.082-7.414,1.581-8.407
	c0.501-0.994,0.259-3.063,0.259-3.063l-2.015-2.563c0,0,1.664-3.125,1.907-2.343c0.246,0.786,0.864,2.356,1.575,3.066
	c0.712,0.71,2.391,1.653,2.242,2.506c-0.155,0.853-1.035,2.081-1.33,2.757c-0.298,0.677-0.757,5.588-0.618,6.724
	c0.144,1.136,0,5.112,0.412,5.489c0.413,0.375-0.675,0.984-1.669,4.375c-0.995,3.391-2.76,9.008-2.621,9.575
	c0.144,0.568-0.718,4.563-1.144,5.272c-0.423,0.71-0.501,1.629-0.501,1.629l-2.658-0.676c0,0-0.097,1.08-0.623,2.736
	c-0.52,1.657-0.994,4.69-1.484,5.773c-0.489,1.084,0.958,7.178,5.692,7.807c4.735,0.628,7.441,0.194,7.81,0.148
	c0.372-0.047,1.726-0.294,2.839-0.059c1.119,0.236,9.645-0.488,10.412-1.662c0.768-1.173,4.771-5.643,1.643-10.471
	c0,0-0.051-3.182-0.617-3.589c-0.573-0.408-2.591,1.104-3.287-0.46c-0.7-1.563-1.85-10.279-2.648-11.753
	c-0.798-1.473-1.286-3.058-1.715-5.472c-0.422-2.415-0.969-1.881-0.969-4.436c0-2.556,0.253-2.867,0.108-5.567
	c-0.145-2.697-2.721-8.337-2.293-9.473s4.144-5.462,6.697-9.274c2.556-3.813,5.173-8.865,13.343-8.016
	c8.176,0.85,11.406,1.195,13.564,0.853c2.158-0.34,5.059-0.963,6.006-0.301c0.947,0.66,1.129,0.263,0.531,1.476
	c-0.593,1.214-1.85,2.363-3.514,2.096c-1.664-0.269-7.434-0.651-9.37-0.59c-1.942,0.06-6.146-0.927-9.13-0.076
	c-2.981,0.853-6.371,3.746-7.598,5.273c-1.226,1.527-5.713,5.879-6.279,9.004c-0.566,3.124,1.271,4.906,1.293,6.983
	c0.025,2.075-1.582,2.554-0.016,5.229c1.566,2.673,0.551,3.087,1.138,4.827c0.583,1.74,0.881,4.823,1.305,7.096
	c0.428,2.271,0.169,5.486,1.251,5.684c1.082,0.2,1.768,0.275,2.556,0.502c0.788,0.222,0.999,2.055,1.123,3.564
	c0.122,1.51-0.021,2.974,0.974,2.688c0.993-0.284,1.241-0.203,2.823-2.314c1.586-2.11,4.183-4.546,6.722-7.373
	c2.545-2.827,3.771-4.959,9.165-8.651c5.399-3.692,9.149-3.89,9.005-6.871c-0.139-2.982,1.005-4.265-0.701-4.406
	c-1.703-0.143-1.791,0.836-4.08,1.547c-2.292,0.709-2.93,2.48-4.157,2.348c-1.226-0.131-4.26,0.648-2.839-1.623
	c1.418-2.272,3.922-4.182,6.677-5.916c2.757-1.736,5.25-1.043,7.667-3.883c2.415-2.84,8.602-5.525,7.748-7.529
	c-0.855-2.004-2.376-2.608-1.351-3.718c1.024-1.111,5.245-4.229,4.677-6.505c-0.564-2.272-0.54-1.971-2.246-3.533
	c-1.699-1.563-4.579-3.915-5.651-4.625c-1.065-0.708-0.318,0.296-0.128-3.496c0.186-3.791,0.454-4.74,1.932-8.69
	c1.474-3.95,1.443-3.395,1.871-7.657c0.428-4.259,1.952-10.34,2.663-11.901c0.712-1.562,1.684-5.603,2.111-7.875
	c0.423-2.272,2.087-5.047,2.231-9.714c0.144-4.668-0.063-4.905-0.773-7.177c-0.71-2.272-0.881-4.137-1.318-3.927
	c0,0-7.547,3.447-9.922,5.404c-2.377,1.958-4.59,3.683-5.729,4.252c-1.133,0.568-9.319,7.731-10.236,8.754
	c-0.917,1.022-4.322,5.551-5.456,6.26c-1.138,0.708-6.45,4.451-7.87,4.594C184.189,119.298,185.672,113.404,186.367,112.019"/>
<path fill-rule="evenodd" clip-rule="evenodd" fill="#00529F" d="M186.115,164.881c0.552,0.057,3.317,2.838,3.509,3.974
	c0.189,1.138-0.85,2.557-4.261,3.598c-3.406,1.042-3.596-3.368-4.26-4.461c-0.66-1.092,3.312-3.113,3.312-3.113
	C184.89,164.595,185.564,164.824,186.115,164.881 M185.167,167.778c0,0-0.618-0.231-0.572,0.602
	c0.047,0.831,0.892,1.239,1.094,0.856C185.883,168.854,186.677,168.026,185.167,167.778z"/>
<path fill-rule="evenodd" clip-rule="evenodd" fill="#00529F" d="M121.535,162.39c0,0,4.188,4.513,10.793,2.832
	c6.61-1.683,9.242-1.661,12.426-0.486c3.265,1.208,7.026,6.462,8.586,7.102c1.567,0.639,1.969-2.766,1.969-2.766
	c0-0.002-1.751-2.632-3.385-3.98c-1.633-1.35-5.703-4.263-8.171-4.462c-2.472-0.197-9.087,0.344-13.13,0.913
	c-4.05,0.566-8.562-0.714-9.202-0.856C120.783,160.544,120.546,161.677,121.535,162.39"/>
<path fill-rule="evenodd" clip-rule="evenodd" fill="#00529F" d="M132.349,167.15c0,0,6.562,5.528,9.118,6.191
	c2.555,0.662,5.631,1.186,6.332,1.541c0.699,0.354,0.947,1.698,0.587,1.916c-0.362,0.217-8.11-0.059-10.932-2.355
	c-2.829-2.299-6.626-4.43-6.616-5.422C130.849,168.029,131.782,166.867,132.349,167.15"/>
<path fill-rule="evenodd" clip-rule="evenodd" fill="#00529F" d="M147.603,170.788c-0.094,1.324-1.908,1.475-3.989,1.475
	c-2.08,0-2.039-0.508-2.889-3.253c-0.856-2.746,3.271-3.374,3.271-3.374C147.782,166.394,147.695,169.462,147.603,170.788
	 M143.898,168.193c0,0-0.948,0.566-0.284,1.041c0.665,0.473,0.665,0.946,1.042,0.283
	C145.037,168.854,144.465,168.098,143.898,168.193z"/>
<path fill-rule="evenodd" clip-rule="evenodd" fill="#00529F" d="M226.261,174.721l1.69-2.411c0,0,5.609,1.31,13.136-4.371
	s7.651-17.457,7.753-23.368c0.104-5.911,1.648-8.459,1.648-8.459c1.479-3.327,3.268-3.243,3.082-3.995s-5.014-1.887-8.846-4.159
	c-1.459-0.862-6.739-6.477-8.196-7.583c-1.464-1.107-5.244-3.878-5.244-3.878l0.47-3.912c0,0,6.16,5.507,7.67,7.532
	c1.504,2.026,4.837,4.967,6.053,5.881c1.215,0.916,7.109,4.038,8.36,4.051c1.253,0.012,3.24-0.538,3.24-0.538l0.273,1.511
	c0,0-1.736,0.801-2.432,1.596c-0.7,0.792-3.373,4.014-3.771,6.558c-0.391,2.545-0.206,10.223-0.098,11.927
	s-0.979,13.916-5.158,17.428C241.717,172.044,239.465,174.904,226.261,174.721"/>
<path fill-rule="evenodd" clip-rule="evenodd" fill="#00529F" d="M212.486,139.317c1.555-0.63,3.58-3.179,4.084-5.537
	c0.506-2.359,0.479-4.324,0.764-5.885c0.283-1.563,0.561-5.254,1.798-6.645c1.235-1.39,1.886-4.919,1.886-5.771
	c0-0.853,0.799-3.484,0.529-5.33c-0.268-1.847-0.01-3.867,0.172-6.048c0.18-2.184,0.503-5.169,0.992-5.824
	c0.49-0.653-0.566-2.84-0.566-2.84l-0.426-1.987c0,0-0.053,0.164-2.129,0.994c-2.08,0.828-3.236,2.17-4.518,3.014
	c-1.283,0.844-2.725,2.24-3.863,2.667c-1.134,0.425-2.557,1.136-4.262,3.55c-1.704,2.413-4.172,2.741-5.166,5.581
	c-0.995,2.839-4.127,3.803-3.555,5.365c0.566,1.563,1.71,2.896,1.51,4.295c-0.195,1.398-2.606,3.976-3.469,5.105
	c-0.859,1.128-1.287-0.628,1.264,3.292c2.55,3.921,5.749,6.633,6.131,7.136c0.381,0.502,3.111,3.05,4.394,3.992
	C209.338,139.384,212.486,139.317,212.486,139.317"/>
<path fill-rule="evenodd" clip-rule="evenodd" fill="#EFB310" d="M200.921,125.353c0,0,3.442,4.772,5.001,5.861
	c1.562,1.09,0.609,1.715,1.834,2.081c1.227,0.365,2.458,1.763,3.025,1.621c0.572-0.142,2.133-0.568,2.07-0.701
	c-0.062-0.133,0.36-1.418,0.36-2.412c0-0.995,0.737-3.847,0.737-3.847l2.55-8.581c0,0,1.227-2.21,1.211-3.062
	c-0.021-0.853-0.108-4.971-0.495-5.451c-0.386-0.48,0.521-1.585,0.521-2.579c0-0.993-0.182-1.802,0.551-2.85
	c0.73-1.049,0.443-2.719,1.014-3.747c0.577-1.029,0.836-2.655,0.836-2.655l0.401-1.656c0,0-1.587-0.127-2.066,0.982
	c-0.479,1.112-2.009,2.194-2.087,2.235c-0.075,0.041-1.626,1.947-1.626,1.947l-4.009,1.838c0,0-2.947,3.415-3.514,4.409
	c-0.57,0.994-3.41,3.693-3.41,4.119c0,0.425,0.273,1.608,0.346,2.252c0.07,0.644-0.412,2.412-0.412,2.412l0.134,2.103
	L200.921,125.353"/>
<path fill-rule="evenodd" clip-rule="evenodd" fill="#00529F" d="M233.73,130.747c0-1.148,0.578-2.078,1.283-2.078
	c0.705-0.002,1.278,0.93,1.278,2.078s-0.573,2.079-1.278,2.079S233.73,131.895,233.73,130.747"/>
<path fill-rule="evenodd" clip-rule="evenodd" fill="#00529F" d="M239.043,136.854c0.705,0,1.282-0.932,1.282-2.08
	c0-1.149-0.577-2.081-1.282-2.081c-0.707,0-1.277,0.932-1.277,2.081C237.766,135.922,238.336,136.854,239.043,136.854"/>
<path fill-rule="evenodd" clip-rule="evenodd" fill="#00529F" d="M230.238,134.772c0-1.147,0.572-2.079,1.278-2.079
	c0.705,0,1.282,0.932,1.282,2.079c0,1.15-0.577,2.082-1.282,2.082C230.811,136.854,230.238,135.922,230.238,134.772"/>
<path fill-rule="evenodd" clip-rule="evenodd" fill="#00529F" d="M200.844,210.18c0-1.149,0.572-2.08,1.277-2.08
	s1.282,0.931,1.282,2.08c0,1.147-0.577,2.079-1.282,2.079S200.844,211.327,200.844,210.18"/>
<path fill-rule="evenodd" clip-rule="evenodd" fill="#00529F" d="M204.532,205.918c0-1.146,0.577-2.078,1.282-2.078
	c0.707,0,1.277,0.932,1.277,2.078c0,1.149-0.57,2.08-1.277,2.08C205.109,207.998,204.532,207.067,204.532,205.918"/>
<path fill-rule="evenodd" clip-rule="evenodd" fill="#00529F" d="M208.369,209.753c0-1.147,0.573-2.079,1.278-2.079
	s1.278,0.932,1.278,2.079s-0.573,2.079-1.278,2.079S208.369,210.9,208.369,209.753"/>
<path fill-rule="evenodd" clip-rule="evenodd" fill="#00529F" d="M231.166,154.275c0,0,3.862-12.565,4.008-15.121
	c0,0,1.648,11.878,3.209,14.861c0,0-2.529-1.036-2.674,0.346c-0.148,1.383-0.36,2.423-0.876,2.654c0,0-0.844,0.455-0.844-2.385
	C233.989,154.63,233.227,152.761,231.166,154.275"/>
<path fill-rule="evenodd" clip-rule="evenodd" fill="#FFFFFF" d="M249.429,188.938c0,0-6.281-4.055-8.155-4.643
	c-1.869-0.585-5.719-2.416-7.146-2.012c-1.433,0.404-2.421,1.085-2.705,1.796c-0.283,0.709-0.67,2.588,2.2,3.933
	c2.869,1.344,6.949,2.373,11.668,2.727s4.719,0.481,4.719,0.481L249.429,188.938"/>
<path fill-rule="evenodd" clip-rule="evenodd" fill="#00529F" d="M196.8,189.011l1.046,1.221l0.191,0.401l-2.093,0.983l-1.818,0.911
	l-1.686,1.067l-1.962-1.167l-0.711-0.568l2.096-0.927c0,0,0.594-0.964,1.33-1.094c0.737-0.132,1.51-0.504,1.974-0.577
	C195.636,189.19,196.8,189.011,196.8,189.011"/>
<path fill-rule="evenodd" clip-rule="evenodd" fill="#00529F" d="M209.653,228.235c0,0-3.941-7.144-3.658-13.818
	c0,0-1.309,8.402-3.726,13.656c0-0.001-0.432,1.27,0.887,0.767c1.314-0.502,2.029-1.074,1.942,0.651
	c-0.139,2.841,1.396,1.979,1.396,1.979s0.031-2.24,0.17-2.405c0.002,0,0.593-1.279,1.732-0.426
	C209.529,229.49,209.653,228.967,209.653,228.235"/>
<path fill-rule="evenodd" clip-rule="evenodd" fill="#00529F" d="M121.066,210.18c0-1.149,0.571-2.08,1.283-2.08
	c0.706,0,1.277,0.931,1.277,2.08c0,1.147-0.571,2.079-1.277,2.079C121.637,212.259,121.066,211.327,121.066,210.18"/>
<path fill-rule="evenodd" clip-rule="evenodd" fill="#00529F" d="M124.759,205.918c0-1.146,0.573-2.078,1.278-2.078
	c0.712,0,1.284,0.932,1.284,2.078c0,1.149-0.572,2.08-1.284,2.08C125.332,207.998,124.759,207.067,124.759,205.918"/>
<path fill-rule="evenodd" clip-rule="evenodd" fill="#00529F" d="M128.593,209.753c0-1.147,0.572-2.079,1.282-2.079
	c0.707,0,1.277,0.932,1.277,2.079s-0.57,2.079-1.277,2.079C129.165,211.832,128.593,210.9,128.593,209.753"/>
<path fill-rule="evenodd" clip-rule="evenodd" fill="#00529F" d="M129.875,228.235c0,0-3.94-7.144-3.657-13.818
	c0,0-1.308,8.402-3.725,13.656c0-0.001-0.428,1.27,0.886,0.767c1.319-0.502,2.035-1.074,1.947,0.651
	c-0.138,2.841,1.392,1.979,1.392,1.979s0.036-2.24,0.175-2.405c0,0,0.592-1.279,1.726-0.426
	C129.757,229.49,129.881,228.967,129.875,228.235"/>
<path fill-rule="evenodd" clip-rule="evenodd" fill="#00529F" d="M90.121,137.046c0-1.149,0.577-2.077,1.282-2.077
	c0.706,0,1.279,0.928,1.279,2.077c0,1.148-0.573,2.08-1.279,2.08C90.698,139.126,90.121,138.194,90.121,137.046"/>
<path fill-rule="evenodd" clip-rule="evenodd" fill="#00529F" d="M93.814,132.787c0-1.149,0.572-2.081,1.278-2.081
	c0.711,0,1.282,0.932,1.282,2.081c0,1.148-0.571,2.079-1.282,2.079C94.386,134.866,93.814,133.935,93.814,132.787"/>
<path fill-rule="evenodd" clip-rule="evenodd" fill="#00529F" d="M97.647,136.62c0-1.148,0.571-2.078,1.282-2.078
	c0.706,0,1.279,0.93,1.279,2.078c0,1.149-0.573,2.081-1.279,2.081C98.218,138.699,97.647,137.769,97.647,136.62"/>
<path fill-rule="evenodd" clip-rule="evenodd" fill="#00529F" d="M98.93,155.104c0,0-3.941-7.145-3.658-13.818
	c0,0-1.308,8.401-3.719,13.655c0,0-0.433,1.269,0.886,0.767c1.314-0.503,2.03-1.074,1.942,0.652
	c-0.138,2.841,1.397,1.979,1.397,1.979s0.03-2.241,0.169-2.405c0,0,0.592-1.28,1.726-0.428
	C98.812,156.357,98.936,155.836,98.93,155.104"/>
<path fill-rule="evenodd" clip-rule="evenodd" fill="#00529F" d="M159.517,85.639c0-1.148,0.573-2.078,1.278-2.078
	c0.711,0,1.284,0.93,1.284,2.078c0,1.149-0.573,2.079-1.284,2.079C160.09,87.718,159.517,86.788,159.517,85.639"/>
<path fill-rule="evenodd" clip-rule="evenodd" fill="#00529F" d="M163.212,81.379c0-1.148,0.571-2.079,1.277-2.079
	c0.707,0,1.283,0.931,1.283,2.079s-0.576,2.079-1.283,2.079C163.783,83.458,163.212,82.527,163.212,81.379"/>
<path fill-rule="evenodd" clip-rule="evenodd" fill="#00529F" d="M167.043,85.213c0-1.149,0.573-2.081,1.278-2.081
	c0.711,0,1.284,0.932,1.284,2.081c0,1.148-0.573,2.08-1.284,2.08C167.616,87.293,167.043,86.361,167.043,85.213"/>
<path fill-rule="evenodd" clip-rule="evenodd" fill="#00529F" d="M167.616,101.827c-1.149-2.627-3.133-7.551-2.947-11.949
	c0,0-1.072,6.875-3.059,12.076L167.616,101.827"/>
<polyline fill-rule="evenodd" clip-rule="evenodd" fill="#EFB310" points="163.212,233.468 164.123,233.965 166.199,233.775 
	165.854,232.901 164.571,232.722 163.212,233.468 "/>
<path fill-rule="evenodd" clip-rule="evenodd" fill="#00529F" d="M164.916,227.787l3.163-0.071l3.122-3.584l2.23-3.344l0.474-2.638
	l-0.993-2.939l-4.555-0.838l-5.717,0.065l-3.261,0.144c0,0-2.092,0.87-2.52,2.29c-0.427,1.421-0.061,4.679,1.107,6.065
	c1.17,1.385,3.793,3.588,3.793,3.588S161.749,227.86,164.916,227.787"/>
<path fill-rule="evenodd" clip-rule="evenodd" fill="#EFB310" d="M166.699,217.764l-3.071,0.17c0,0-2.972-0.796-2.972,1.191
	s0.85,3.195,1.984,4.396c1.138,1.199,1.566,1.915,2.467,1.825c0.9-0.089,2.404-0.856,3.342-2.408
	C169.383,221.385,172.181,217.681,166.699,217.764"/>
<path fill-rule="evenodd" clip-rule="evenodd" fill="#00529F" d="M148.478,178.453l3.064,6.186l0.759,1.436l0.788,0.331
	l-0.258,1.338l1.483,6.887l-0.257,2.938l-1.921,2.813l0.283,1.419l-0.294,1.407l-1.206,1.93l-1.622,1.633
	c0,0-3.015,1.462-3.096,0.672c-0.082-0.792,1.643-3.584,1.643-3.584l0.175-1.914l0.521-1.766l1.751-5.309l0.855-2.155l-0.989-1.767
	l0.057-1.477v-1.193l-1.174-3.913l-1.164-2.586L148.478,178.453"/>
<path fill-rule="evenodd" clip-rule="evenodd" fill="#00529F" d="M133.311,191.254l4.483,2.772c0,0,2.358-0.652,1.647-1.93
	C138.736,190.818,136.583,190.259,133.311,191.254"/>
<path fill-rule="evenodd" clip-rule="evenodd" fill="#FFFFFF" d="M165.941,257.831c0,0,2.442-3.063,3.014-11.725
	c0,0,0.598-4.501-3.385-4.525c-3.354-0.018-2.652,4.296-2.52,4.525C163.186,246.336,163.701,256.348,165.941,257.831"/>
<path fill-rule="evenodd" clip-rule="evenodd" fill="#FFFFFF" d="M80.431,195.193c0,0,6.785-0.814,12.467-3.713
	c3.715-1.893,2.88-4.233,2.88-4.233s-1.511-3.272-6.337-1.144c-4.832,2.131-9.149,5.472-10.025,6.666s-1.406,2.072-1.406,2.072
	L80.431,195.193"/>
<path fill-rule="evenodd" clip-rule="evenodd" fill="#00529F" d="M104.849,95.722c0,0,9.227,5.254,11.076,6.674
	c1.844,1.42,9.957,8.04,11.215,9.373c1.263,1.332,2.272,6.247,2.612,6.697c0.334,0.45-1.757,2.39-1.757,2.39
	s3.602,2.345,4.313,3.623c0.71,1.28,0.426,2.982,0.426,2.982l-0.473,1.017c0,0-12.827,11.505-13.822,12.783
	c-0.994,1.278-2.659,1.038-3.792-2.654c-1.137-3.691-1.421-6.105-1.565-7.242c-0.139-1.135-1.134-0.569-2.128-3.407
	c-0.995-2.841-1.422-5.113-1.706-7.812c-0.283-2.698-1.844-4.969-1.704-7.099c0.143-2.131,0.288-2.557-0.568-4.687
	c-0.85-2.13-1.38-2.568-1.75-5.204c-0.377-2.635-0.773-5.445-0.773-5.445L104.849,95.722"/>
<path fill-rule="evenodd" clip-rule="evenodd" fill="#EFB310" d="M107.528,99.353c0,0,4.368,2.455,4.276,4.036
	c-0.094,1.583,1.807,1.26,2.374,1.829c0.567,0.568,0.712,0.827,2.576,1.947c1.865,1.116,2.484-0.138,3.935,2.097
	c1.459,2.234,2.366,2.726,2.988,4.373c0.624,1.648,1.588,3.099,1.588,3.099s0.279-0.048,0.881,1.851
	c0.608,1.896-1.046,2.202-0.284,3.406c0.768,1.205-0.726,1.535,0.479,2.376c2.504,1.743,2.097,1.602,1.793,2.029
	c-0.299,0.425-0.113,0.409-0.422,1.277l-1.216,0.588l-1.453,0.171c0,0-3.296,5.204-3.174,5.508c0.129,0.303-2.513,1.961-2.94,2.388
	c-0.423,0.425-1.727-0.42-1.727-0.42l-1.139-2.696l-1.292-2.558c0,0,0.768-2.634,0.299-3.55c-0.464-0.916-2.555-2.413-2.555-2.84
	c0-0.427,0-3.265-0.284-3.977c-0.283-0.708-1.247-1.94-1.55-5.239c-0.31-3.299-0.722-5.977-0.866-7.397
	c-0.139-1.421-1.983-7.385-2.982-8.522L107.528,99.353"/>
<path fill-rule="evenodd" clip-rule="evenodd" fill="#00529F" d="M137.676,145.516c0,0,1.498-2.433,3.383-2.802
	c1.881-0.37,3.395-0.244,3.055-1.393c-0.335-1.149-0.072-1.577,0.495-1.436c0.567,0.143,1.814,0.891,2.819,0.476
	c1.009-0.415,2.718,0.092,2.718,0.092s0.171,0.271-0.658,1.193c-0.83,0.925-1.747,1.931-1.747,1.931l-0.433,0.711
	c0,0,0.165-1.424-0.752-1.273c-0.922,0.15-1.427-1.269-4.698,2.024C141.858,145.039,142.465,143.138,137.676,145.516"/>
<path fill-rule="evenodd" clip-rule="evenodd" fill="#00529F" d="M180.68,139.317l-2.261,2.654c0,0-0.392-0.294,2.446-0.152
	c2.839,0.141,4.926,0.623,6.914,1.191c1.988,0.567,2.499,0.933,3.492,0.65c0.001,0,1.557,0.422-3.781-1.796
	C182.159,139.645,182.035,140.738,180.68,139.317"/>
<path fill-rule="evenodd" clip-rule="evenodd" fill="#00529F" d="M154.247,116.458l9.393,6.67c0,0,0.102,1.517,0,2.131
	c-0.104,0.614-0.764,2.045-0.764,2.045l-0.236,0.654l-2.004-2.346l0.303-2.2c0,0-2.822-3.112-3.693-2.129L154.247,116.458"/>
<path fill-rule="evenodd" clip-rule="evenodd" fill="#00529F" d="M165.745,127.157l-0.763-3.11c0,0,4.319-6.507,8.157-7.785
	c0-0.001,1.515-1.293,1.02,0.176c-0.494,1.47-5.281,6.412-7.254,8.253c-1.271,1.186-0.664,1.76,0.475,3.322L165.745,127.157"/>
<path fill-rule="evenodd" clip-rule="evenodd" fill="#00529F" d="M50.51,126.224l-4.671,18.63l-0.806-0.204
	c0.229-1.862,0.372-2.852-1.591-3.345l-15.599-3.912c-2.127-0.534-2.524,0.772-2.987,2.197l-0.804-0.199l2.823-11.249l0.803,0.201
	c-0.469,2.28-0.685,3.287,2.148,3.998l15.214,3.815c1.551,0.388,1.983-0.256,2.525-2.416c1.22-4.867-1.001-7.342-4.272-9.738
	l0.233-0.935L50.51,126.224"/>
<path fill-rule="evenodd" clip-rule="evenodd" fill="#00529F" d="M32.934,108.961l8.711-17.078l5.95,3.035l-0.376,0.739
	c-4.554-1.463-6.363,0.261-8.403,4.257c-0.829,1.628-0.983,2.222,0.289,2.871l6.868,3.502c1.478-2.826,1.478-4.728-1.964-7.044
	l0.393-0.77l10.004,5.104l-0.393,0.769c-3.878-1.532-5.537-0.476-7.037,2.455l7.168,3.654c1.302,0.664,1.941,0.283,2.924-1.642
	c1.479-2.9,2.252-6.311-1.267-10.456l0.423-0.829l5.554,4.324l-8.835,17.316l-0.742-0.378c0.685-1.777,1.066-2.739-0.774-3.676
	l-14.325-7.308c-1.953-0.996-2.644,0.217-3.426,1.533L32.934,108.961"/>
<path fill-rule="evenodd" clip-rule="evenodd" fill="#00529F" d="M73.26,86.339l-7.125,9.191l-0.659-0.51
	c0.968-1.519,1.659-2.624,0.031-3.887l-12.715-9.851c-1.73-1.343-2.739-0.151-3.754,0.997l-0.656-0.509l7.125-9.191l0.654,0.508
	c-0.905,1.275-1.854,2.555-0.066,3.94l12.709,9.852c1.68,1.303,2.57,0.314,3.797-1.05L73.26,86.339"/>
<path fill-rule="evenodd" clip-rule="evenodd" fill="#00529F" d="M91.037,63.75c-0.02,3.672-0.598,6.953-3.801,9.748
	c-5.837,5.086-12.575,3.727-16.655-0.957c-4.43-5.085-4.231-12.137,1.03-16.719c2.252-1.965,5.249-2.418,5.904-2.986
	c0.674-0.59,0.442-1.311,0.149-2.155l0.676-0.59l5.109,5.86l-0.628,0.546c-2.777-1.415-7.434-2.512-10.287-0.023
	c-3.658,3.186-1.299,7.871,2.39,12.104c1.313,1.503,3.559,3.776,5.882,4.572c2.623,0.886,4.93-0.461,5.704-1.139
	c1.957-1.702,3.177-4.092,3.23-8.233L91.037,63.75"/>
<path fill-rule="evenodd" clip-rule="evenodd" fill="#00529F" d="M88.503,43.549l16.955-8.947l3.115,5.907l-0.731,0.387
	c-2.88-3.816-5.352-3.45-9.32-1.357c-1.617,0.854-2.085,1.251-1.416,2.515l3.597,6.816c2.837-1.459,3.929-3.014,2.451-6.889
	l0.763-0.404l5.244,9.933l-0.767,0.403c-2.292-3.487-4.255-3.579-7.162-2.043l3.751,7.112c0.68,1.293,1.427,1.351,3.338,0.343
	c2.88-1.52,5.472-3.867,4.983-9.28l0.823-0.435l2.051,6.733l-17.192,9.072l-0.391-0.735c1.582-1.06,2.447-1.63,1.488-3.452
	l-7.506-14.222c-1.025-1.94-2.286-1.348-3.689-0.723L88.503,43.549"/>
<path fill-rule="evenodd" clip-rule="evenodd" fill="#00529F" d="M132.864,32.458c-1.206-2.077-4.163-5.216-7.94-4.153
	c-1.663,0.467-3.153,1.922-2.566,4.001c0.485,1.727,1.294,2.26,4.36,2.847l5.358,1.012c1.24,0.238,4.192,1.41,5.176,4.895
	c0.789,2.816-0.169,7.262-6.053,8.919c-3.039,0.855-4.785,0.173-5.775,0.451c-0.675,0.189-0.669,0.81-0.654,1.358l-0.928,0.259
	l-2.225-7.898l0.927-0.263c1.551,3.05,4.42,6.143,8.486,5.002c3.837-1.081,3.106-4.294,2.988-4.71
	c-0.603-2.144-2.319-2.487-4.678-2.893l-2.433-0.42c-6.207-1.085-6.979-3.835-7.396-5.307c-0.546-1.951-0.778-6.58,5.295-8.29
	c2.56-0.722,4.359-0.088,5.291-0.349c0.731-0.208,0.757-0.732,0.748-1.384l0.957-0.27l1.953,6.94L132.864,32.458"/>
<path fill-rule="evenodd" clip-rule="evenodd" fill="#00529F" d="M161.985,44.685l-11.839,0.755l-0.05-0.829
	c2.404-0.354,3.199-0.471,3.024-3.257l-1.119-17.475c-2.313,0.281-5.719,0.664-6.043,6.012L145,29.952l-0.33-6.672l19.901-1.269
	l0.49,6.662l-0.962,0.061c-1-5.264-4.426-5.211-6.723-5.198l1.112,17.477c0.18,2.818,0.984,2.834,3.447,2.843L161.985,44.685"/>
<path fill-rule="evenodd" clip-rule="evenodd" fill="#00529F" d="M175.807,22.471l18.933,3.032l-1.056,6.594l-0.819-0.131
	c-0.011-4.781-2.211-5.973-6.636-6.683c-1.808-0.289-2.415-0.252-2.643,1.16l-1.221,7.611c3.143,0.538,4.956-0.048,6.1-4.038
	l0.85,0.136l-1.772,11.091l-0.854-0.137c0.262-4.163-1.254-5.416-4.505-5.936l-1.266,7.939c-0.232,1.444,0.328,1.938,2.462,2.28
	c3.214,0.514,6.696,0.197,9.556-4.426l0.918,0.148l-2.401,6.613l-19.194-3.072l0.129-0.821c1.9,0.102,2.937,0.168,3.261-1.867
	l2.544-15.88c0.346-2.166-1.025-2.452-2.52-2.792L175.807,22.471"/>
<path fill-rule="evenodd" clip-rule="evenodd" fill="#00529F" d="M220.013,58.293l-6.296-2.602l-2.38-12.24l-0.829-0.342
	l-2.488,6.018c-1.016,2.456-0.381,2.827,1.536,3.943l-0.32,0.766l-10.38-4.292l0.318-0.768c2.189,0.62,2.844,0.78,3.869-1.707
	l5.615-13.57c1.093-2.642,0.166-3.096-1.535-3.943l0.319-0.766l9.886,4.088c2.148,0.889,8.558,3.826,6.424,8.984
	c-1.564,3.778-5.121,3.421-6.99,3.257l2.55,11.304c0.201,0.73,0.649,0.95,1.021,1.103L220.013,58.293 M210.915,42.126
	c4.033,1.633,5.908,1.618,7.563-2.374c1.282-3.1,0.566-4.942-1.885-5.957c-1.691-0.699-1.897-0.387-2.443,0.503L210.915,42.126z"/>
<path fill-rule="evenodd" clip-rule="evenodd" fill="#00529F" d="M253.003,78.245c-3.642,0.475-6.97,0.342-10.169-2.464
	c-5.821-5.101-5.379-11.959-1.282-16.632c4.445-5.073,11.462-5.817,16.712-1.218c2.245,1.971,3.096,4.881,3.744,5.451
	c0.676,0.592,1.36,0.264,2.159-0.141l0.675,0.591l-5.125,5.847l-0.624-0.548c1.029-2.939,1.493-7.702-1.354-10.2
	c-3.648-3.198-7.976-0.227-11.674,3.994c-1.314,1.5-3.268,4.03-3.746,6.44c-0.525,2.719,1.119,4.823,1.891,5.503
	c1.953,1.708,4.482,2.6,8.593,2.096L253.003,78.245"/>
<path fill-rule="evenodd" clip-rule="evenodd" fill="#00529F" d="M261.487,95.767l-7.104-9.207l0.66-0.508
	c1.227,1.318,2.122,2.264,3.756,1.006l12.729-9.825c1.736-1.34,0.834-2.617-0.021-3.887l0.658-0.508l7.105,9.207l-0.66,0.506
	c-1.005-1.196-2.004-2.437-3.797-1.057l-12.729,9.825c-1.684,1.298-0.952,2.411,0.063,3.94L261.487,95.767"/>
<path fill-rule="evenodd" clip-rule="evenodd" fill="#00529F" d="M272.563,115.386l-5.362-10.581l0.742-0.375
	c1.277,2.073,1.695,2.754,4.184,1.492l15.625-7.912c-1.17-2.015-2.865-4.992-7.907-3.185l-0.438-0.858l6.007-2.93l9.01,17.785
	l-5.93,3.077l-0.438-0.859c4.44-2.995,3.045-6.123,2.127-8.228l-15.619,7.913c-2.524,1.276-2.221,2.018-1.257,4.286L272.563,115.386
	"/>
<path fill-rule="evenodd" clip-rule="evenodd" fill="#00529F" d="M303.016,141.759c-0.242-0.59-0.6-1.497-1.789-1.894l-11.529-3.762
	l-5.944,1.428c-2.685,0.643-2.576,1.37-2.263,3.686l-0.803,0.193l-2.694-11.211l0.81-0.194c0.762,2.174,1.009,2.935,3.692,2.291
	l4.751-1.139l9.309-8.487c0.253-0.231,1.457-1.341,1.158-3.011l0.809-0.195l2.597,10.824l-0.81,0.194
	c-0.533-2.229-0.822-2.57-1.724-2.352c-0.485,0.114-1.17,0.827-1.624,1.207l-6.568,5.678l6.842,2.153
	c0.406,0.14,2.431,0.747,3.303,0.539c1.262-0.304,1.04-1.513,0.772-3.056l0.81-0.193l1.705,7.108L303.016,141.759"/>
<path fill-rule="evenodd" clip-rule="evenodd" fill="#00529F" d="M197.805,165.717c0,0-1.922-0.339-3.391,0.877
	c-1.468,1.217-2.133,4.212-4.033,5.102c-1.896,0.889-6.626,1.136-7.476,1.516c-0.53,0.233-1.869,1.875-2.782,3.3
	c0.819,0.232,1.566,0.307,2.453,0.329c0.149-0.178,0.329-0.311,0.547-0.377c1.643-0.518,2.682-0.544,5.238-1.111
	c2.555-0.568,5.049-1.577,5.714-2.804c0.664-1.227,3.673-3.069,3.956-4.3C198.32,167.018,198.221,166.175,197.805,165.717"/>
<path fill-rule="evenodd" clip-rule="evenodd" fill="#00529F" d="M180.979,178.271c-0.865-0.25,0.062-0.35-0.855-0.569
	c-0.51,2.528-3.559,11.023-3.559,11.509c0,0.568-0.191,8.045,0.375,9.275c0.566,1.231,1.231,3.408,1.892,4.734
	c0.665,1.326,1.804,2.936,1.804,4.545c0,1.608,0.186,2.46,0.186,2.46s2.498-0.544,2.379-3.281c-0.113-2.733,0.237-1.875-0.803-4.905
	c-1.041-3.028-2.298-5.118-2.716-8.061c-0.422-2.943,0.748-7.223,1.521-10.165C181.505,182.655,180.86,179.457,180.979,178.271"/>
<path fill-rule="evenodd" clip-rule="evenodd" fill="#00529F" d="M45.637,182.525l4.437,18.311l-6.497,1.571l-0.186-0.775
	c3.189-1.522,5.013-2.887,3.668-8.441c-0.421-1.745-0.695-2.294-2.08-1.959l-7.496,1.814c0.907,4.02,3.318,3.948,6.012,3.776
	l0.19,0.807l-10.911,2.643l-0.197-0.808c2.562-0.996,4.797-2.084,3.808-6.151l-7.521,1.82c-2.133,0.517-1.885,1.823-1.437,4.107
	l-0.805,0.195l-2.818-11.625l0.81-0.195c0.639,1.793,0.979,2.771,2.983,2.285l15.629-3.782c2.128-0.517,1.875-1.856,1.602-3.398
	L45.637,182.525"/>
<path fill-rule="evenodd" clip-rule="evenodd" fill="#00529F" d="M52.855,233.524c-6.218,3.177-12.761,0.961-15.858-5.104
	c-3.101-6.064-1.066-12.667,5.146-15.843c6.451-3.296,12.942-0.606,15.858,5.104C60.921,223.392,59.304,230.228,52.855,233.524
	 M44.823,217.813c-2.576,1.315-9.437,5.048-6.852,10.108c2.586,5.059,9.628,1.683,12.204,0.366
	c4.317-2.208,8.969-5.966,6.852-10.108C54.909,214.039,49.14,215.607,44.823,217.813z"/>
<path fill-rule="evenodd" clip-rule="evenodd" fill="#00529F" d="M74.548,259.683c-5.188,4.664-12.081,4.204-16.635-0.861
	c-4.554-5.065-4.281-11.97,0.912-16.633c5.384-4.844,12.344-3.909,16.635,0.86C79.746,247.818,79.936,254.839,74.548,259.683
	 M62.756,246.561c-2.154,1.934-7.826,7.302-4.029,11.527c3.802,4.226,9.741-0.847,11.889-2.778
	c3.608-3.245,7.135-8.068,4.025-11.527C71.533,240.322,66.362,243.317,62.756,246.561z"/>
<path fill-rule="evenodd" clip-rule="evenodd" fill="#00529F" d="M88.251,283.739l-9.762-6.737l0.473-0.685
	c2.113,1.215,2.804,1.612,4.39-0.684l9.947-14.412c-1.987-1.212-4.9-3.02-8.468,0.978l-0.789-0.547l3.874-5.439l16.408,11.326
	l-3.741,5.535l-0.793-0.548c2.474-4.754-0.247-6.835-2.06-8.247l-9.948,14.412c-1.602,2.323-0.984,2.832,0.942,4.366L88.251,283.739
	"/>
<path fill-rule="evenodd" clip-rule="evenodd" fill="#00529F" d="M102.7,291.086c1.804,0.491,2.845,0.754,3.581-1.135l5.853-14.979
	c0.799-2.043-0.479-2.612-1.865-3.261l0.298-0.775l9.566,3.735c1.732,0.678,7.997,3.268,6.11,8.096
	c-1.339,3.436-5.15,2.874-6.609,2.77l-0.021,0.062c2.427,1.448,5.075,4.265,3.695,7.795c-1.015,2.598-4.364,4.785-10.942,2.359
	l-9.97-3.893L102.7,291.086 M111.196,291.979c-0.542,1.393-0.18,2.104,1.123,2.613c3.406,1.328,4.883-1.27,5.62-3.157
	c1.725-4.427-0.814-5.954-2.791-6.831l-0.929-0.364L111.196,291.979z M114.58,283.312c4.147,1.62,5.337,0.586,6.574-2.569
	c0.844-2.168,0.876-4.26-1.633-5.238c-1.577-0.617-1.921,0.175-2.231,0.874L114.58,283.312z"/>
<path fill-rule="evenodd" clip-rule="evenodd" fill="#00529F" d="M154.607,305.486l-10.658-1.502l0.114-0.821
	c2.066,0.122,2.664,0.174,2.812-0.913c0.129-0.888-0.582-3.471-0.896-4.59l-7.402-1.041c-1.252,2.238-1.969,3.514-2.046,4.041
	c-0.176,1.25,1.392,1.571,2.498,1.795l-0.112,0.822l-6.683-0.941l0.119-0.821c1.814-0.014,2.431-1.067,3.766-3.396l9.845-17.002
	l0.917,0.13l4.904,18.338c0.985,3.729,1.349,4.923,2.941,5.079L154.607,305.486 M145.671,296.309l-2.201-8.463l-4.219,7.561
	L145.671,296.309z"/>
<path fill-rule="evenodd" clip-rule="evenodd" fill="#00529F" d="M186.172,303.861l-19.118,1.843l-0.076-0.828
	c1.829-0.409,2.813-0.604,2.617-2.621l-1.547-16.01c-0.206-2.182-1.571-2.117-3.069-2.073l-0.078-0.826l11.545-1.113l0.076,0.826
	c-2.308,0.322-3.328,0.455-3.05,3.365l1.51,15.611c0.149,1.588,0.907,1.782,3.121,1.569c4.993-0.482,6.579-3.406,7.744-7.29
	l0.958-0.094L186.172,303.861"/>
<path fill-rule="evenodd" clip-rule="evenodd" fill="#00529F" d="M217.726,294.991l-18.185,6.197l-0.27-0.787
	c1.69-0.822,2.603-1.238,1.948-3.157l-5.188-15.222c-0.705-2.077-2.02-1.7-3.467-1.313l-0.267-0.786l10.978-3.74l0.268,0.786
	c-2.17,0.846-3.132,1.208-2.189,3.977l5.059,14.847c0.51,1.51,1.289,1.524,3.401,0.808c4.75-1.62,5.62-4.829,5.856-8.877l0.906-0.31
	L217.726,294.991"/>
<path fill-rule="evenodd" clip-rule="evenodd" fill="#00529F" d="M255.785,266.317c-0.247,3.665-1.035,6.902-4.414,9.487
	c-6.146,4.705-12.782,2.922-16.558-2.013c-4.102-5.356-3.452-12.38,2.086-16.622c2.374-1.818,5.398-2.078,6.083-2.605
	c0.711-0.545,0.526-1.28,0.283-2.143l0.718-0.544l4.724,6.175l-0.66,0.504c-2.678-1.589-7.259-2.98-10.268-0.678
	c-3.852,2.949-1.791,7.773,1.619,12.233c1.216,1.583,3.312,3.995,5.579,4.938c2.564,1.051,4.95-0.149,5.77-0.774
	c2.055-1.576,3.431-3.881,3.739-8.013L255.785,266.317"/>
<path fill-rule="evenodd" clip-rule="evenodd" fill="#00529F" d="M278.957,246.553l-12.158,14.869l-0.645-0.525
	c1-1.588,1.551-2.421-0.014-3.705l-12.452-10.183c-1.7-1.387-2.612-0.375-3.638,0.721l-0.643-0.526l7.341-8.979l0.644,0.527
	c-1.396,1.863-2.02,2.682,0.241,4.533l12.143,9.929c1.236,1.01,1.907,0.612,3.313-1.112c3.178-3.884,2.219-7.07,0.277-10.63
	l0.613-0.747L278.957,246.553"/>
<path fill-rule="evenodd" clip-rule="evenodd" fill="#00529F" d="M276.668,205.925c-0.561,1.76-0.565,2.607,1.408,3.565l9.536,4.63
	c1.761,0.857,4.219,2.568,4.954,4.478c0.887,2.278,0.191,5.153-0.679,6.946c-0.64,1.315-2.185,4.039-4.833,5.153
	c-1.756,0.734-3.184,1.002-6.408-0.564l-9.984-4.85c-2.514-1.22-2.946-0.471-3.941,1.115l-0.746-0.362l4.91-10.103l0.746,0.362
	c-0.871,2.018-1.293,2.958,1.341,4.235l9.982,4.85c1.7,0.826,5.826,2.83,7.919-1.474c2.554-5.26-1.989-7.541-3.9-8.47l-9.119-4.429
	c-1.823-0.887-3.013-1.021-4.379,1.491l-0.752-0.363l3.193-6.574L276.668,205.925"/>
<path fill-rule="evenodd" clip-rule="evenodd" fill="#00529F" d="M298.939,204.508c0.207-1.861,0.304-2.929-1.674-3.365
	l-15.702-3.467c-2.144-0.473-2.509,0.875-2.937,2.347l-0.809-0.178l2.215-10.026c0.397-1.816,1.988-8.408,7.053-7.29
	c3.603,0.795,3.637,4.648,3.755,6.103l0.067,0.016c1.057-2.627,3.432-5.674,7.13-4.857c2.726,0.602,5.4,3.574,4.018,10.449
	l-2.303,10.45L298.939,204.508 M298.512,195.974c1.459,0.321,2.107-0.147,2.406-1.51c0.789-3.569-2.005-4.63-3.982-5.066
	c-4.642-1.023-5.759,1.724-6.321,3.812l-0.216,0.973L298.512,195.974z M289.424,193.969c0.959-4.35-0.242-5.363-3.554-6.094
	c-2.272-0.501-4.343-0.211-4.925,2.418c-0.36,1.654,0.474,1.872,1.211,2.07L289.424,193.969z"/>
<path fill-rule="evenodd" clip-rule="evenodd" fill="#00529F" d="M27.498,163.459c0-2.33,1.886-4.218,4.215-4.218
	c2.333,0,4.219,1.888,4.219,4.218c0,2.329-1.886,4.217-4.219,4.217C29.384,167.676,27.498,165.788,27.498,163.459"/>
<path fill-rule="evenodd" clip-rule="evenodd" fill="#00529F" d="M291.201,163.459c0-2.33,1.886-4.218,4.221-4.218
	c2.327,0,4.213,1.888,4.213,4.218c0,2.329-1.886,4.217-4.213,4.217C293.088,167.676,291.201,165.788,291.201,163.459"/>
</svg>
