<?xml version="1.0" encoding="UTF-8" standalone="no"?>
<!-- Created with Inkscape (http://www.inkscape.org/) -->
<svg
   xmlns:svg="http://www.w3.org/2000/svg"
   xmlns="http://www.w3.org/2000/svg"
   version="1.0"
   width="705.49902"
   height="705.5"
   viewBox="0 0 705.499 705.5"
   id="Layer_1"
   xml:space="preserve"><defs
   id="defs102" />
<g
   id="g3">
	<g
   id="g5">
		<g
   id="g7">
			<path
   d="M 537.157,352.75 C 537.157,454.715 454.497,537.364 352.543,537.364 C 250.578,537.364 167.917,454.715 167.917,352.75 C 167.917,250.785 250.578,168.124 352.543,168.124 C 454.497,168.124 537.157,250.785 537.157,352.75"
   style="fill:white"
   id="path9" />
			<path
   d="M 172.108,352.75 C 172.108,253.265 253.046,172.327 352.543,172.327 C 452.017,172.327 532.966,253.265 532.966,352.75 C 532.966,452.234 452.017,533.173 352.543,533.173 C 253.047,533.173 172.108,452.234 172.108,352.75 M 163.726,352.75 C 163.726,456.857 248.419,541.562 352.543,541.562 C 456.645,541.562 541.349,456.857 541.349,352.75 C 541.349,248.631 456.645,163.938 352.543,163.938 C 248.419,163.938 163.726,248.631 163.726,352.75 z "
   style="fill:#939598"
   id="path11" />
			<path
   d="M 0,352.75 C 0,547.252 158.236,705.5 352.75,705.5 C 547.252,705.5 705.499,547.252 705.499,352.75 C 705.499,158.236 547.252,0 352.75,0 C 158.236,0 0,158.236 0,352.75"
   style="fill:#939598"
   id="path13" />
			<path
   d="M 11.174,352.75 C 11.174,164.409 164.403,11.174 352.75,11.174 C 541.097,11.174 694.325,164.409 694.325,352.75 C 694.325,541.102 541.096,694.326 352.75,694.326 C 164.403,694.326 11.174,541.102 11.174,352.75"
   style="fill:white"
   id="path15" />
			<polyline
   fill="#005BA6"
   points="271.524,537.02 352.979,552.988 540.373,403.043 547.998,315.8 271.524,537.02    "
   id="polyline17"
   style="fill:#005ba6" />
			<path
   d="M 543.175,324.821 C 541.901,339.417 536.779,398.048 536.515,400.976 C 533.897,403.089 354.771,546.402 351.935,548.687 C 348.799,548.072 294.125,537.347 280.815,534.74 C 293.355,524.698 529.602,335.673 543.175,324.821 M 545.483,312.66 L 262.233,539.3 L 354.035,557.307 L 544.23,405.117 L 552.832,306.781 L 545.483,312.66 z "
   style="fill:white"
   id="path19" />
			<polyline
   fill="#005BA6"
   points="537.261,245.691 207.835,509.281 168.25,459.808 497.676,196.219 537.261,245.691    "
   id="polyline21"
   style="fill:#005ba6" />
			<path
   d="M 497.056,201.875 C 501.156,207.014 527.489,239.927 531.6,245.066 C 525.501,249.946 214.565,498.744 208.455,503.625 C 204.355,498.486 178.011,465.568 173.9,460.435 C 180.009,455.553 490.935,206.755 497.056,201.875 M 495.161,193.078 L 162.588,459.171 L 207.192,514.937 L 542.923,246.318 L 498.296,190.564 L 495.161,193.078 z "
   style="fill:white"
   id="path23" />
			<path
   d="M 440.096,164.799 C 412.57,154.096 386.168,146.867 366.749,142.337 L 143.192,321.198 L 148.348,326.372 L 148.348,398.238 L 440.096,164.799"
   style="fill:#005ba6"
   id="path25" />
			<path
   d="M 367.725,146.712 C 383.963,150.559 407.264,156.869 432.058,166.079 C 421.654,174.393 164.633,380.04 152.38,389.859 C 152.38,376.785 152.38,324.688 152.38,324.688 C 152.38,324.688 150.152,322.478 149.222,321.536 C 155.974,316.139 364.739,149.101 367.725,146.712 M 364.233,139.185 L 137.163,320.883 C 137.163,320.883 142.916,326.631 144.329,328.031 C 144.329,331.218 144.329,406.609 144.329,406.609 L 448.065,163.576 L 441.554,161.044 C 412.948,149.933 385.581,142.595 367.666,138.409 L 365.76,137.973 L 364.233,139.185 z "
   style="fill:white"
   id="path27" />
			<path
   d="M 171.144,352.75 C 171.144,252.605 252.61,171.138 352.75,171.138 C 452.9,171.138 534.367,252.605 534.367,352.75 C 534.367,452.895 452.9,534.361 352.75,534.361 C 252.61,534.361 171.144,452.895 171.144,352.75 M 120.845,352.75 C 120.845,480.623 224.877,584.655 352.75,584.655 C 480.622,584.655 584.666,480.623 584.666,352.75 C 584.666,224.877 480.622,120.839 352.75,120.839 C 224.877,120.839 120.845,224.877 120.845,352.75 z "
   style="fill:#f36f21"
   id="path29" />
			<path
   d="M 172.327,352.75 C 172.327,253.265 253.265,172.327 352.75,172.327 C 452.234,172.327 533.185,253.265 533.185,352.75 C 533.185,452.234 452.235,533.173 352.75,533.173 C 253.265,533.173 172.327,452.234 172.327,352.75 M 163.943,352.75 C 163.943,456.857 248.648,541.562 352.75,541.562 C 456.862,541.562 541.567,456.857 541.567,352.75 C 541.567,248.631 456.862,163.938 352.75,163.938 C 248.648,163.938 163.943,248.631 163.943,352.75 z "
   style="fill:#939598"
   id="path31" />
			<path
   d="M 121.833,352.761 C 121.833,225.416 225.417,121.826 352.75,121.826 C 480.071,121.826 583.667,225.416 583.667,352.761 C 583.667,480.083 480.071,583.667 352.75,583.667 C 225.417,583.667 121.833,480.083 121.833,352.761 M 113.449,352.761 C 113.449,484.688 220.8,592.056 352.75,592.056 C 484.711,592.056 592.051,484.688 592.051,352.761 C 592.051,220.794 484.711,113.455 352.75,113.455 C 220.8,113.455 113.449,220.794 113.449,352.761 z "
   style="fill:#939598"
   id="path33" />
			<path
   d="M 68.283,513.122 C 65.848,513.547 65.848,513.547 65.079,512.335 C 64.872,512.019 64.206,510.974 63.793,510.124 C 62.036,507.184 60.922,505.421 59.349,502.93 C 58.384,501.403 56.983,499.364 55.984,497.98 C 55.479,497.165 54.79,496.251 54.583,495.93 C 53.515,494.253 53.572,493.099 54.847,492.272 C 56.053,491.508 57.27,492.203 59.084,494.546 C 61.209,497.354 62.851,497.445 66.997,494.592 L 100.53,471.894 C 106.375,467.978 106.697,467.088 104.239,462.121 C 103.481,460.582 103.584,459.503 104.629,458.842 C 105.823,458.078 107.178,458.796 108.557,460.961 C 108.66,461.122 109.211,462.006 109.544,462.701 C 112.576,468.19 114.907,472.238 116.285,474.397 C 117.755,476.717 119.753,479.513 121.912,482.407 C 122.417,483.205 123.118,484.124 123.37,484.526 C 124.381,486.134 124.3,487.42 123.266,488.086 C 121.819,489.005 121.096,488.557 118.546,485.445 C 116.399,482.746 114.63,482.632 111.15,484.951 L 78.363,506.506 L 119.406,499.398 C 121.209,499.047 123,498.697 124.884,498.295 C 129.764,497.118 130.373,497.192 131.591,499.105 C 132.36,500.316 132.268,501.258 131.269,502.693 L 102.64,543.759 L 126.871,529.645 C 129.099,528.365 131.867,526.706 134.519,525.035 C 139.262,522.037 140.181,519.769 138.09,516.123 C 136.092,512.781 135.988,511.736 137.436,510.817 C 138.55,510.099 139.813,510.662 140.881,512.344 C 141.076,512.677 141.559,513.601 141.984,514.451 C 142.845,516.156 143.925,518.063 145.039,519.814 C 146.371,521.904 147.669,523.776 149.081,525.481 C 149.77,526.388 150.517,527.387 150.769,527.772 C 151.688,529.23 151.584,530.304 150.54,530.959 C 149.323,531.734 148.657,531.373 146.165,528.68 C 143.949,526.245 142.571,526.222 138.391,528.657 L 103.319,548.386 C 102.377,548.868 101.585,549.374 100.448,550.08 L 99.024,550.999 C 96.693,552.469 96.498,553.611 98.277,556.764 C 99.839,559.583 99.919,560.772 98.633,561.593 C 97.347,562.408 96.187,561.794 94.855,559.704 L 89.561,550.81 C 88.39,548.956 86.024,545.401 85.128,544.166 L 84.577,543.288 C 83.865,542.157 83.876,541.818 84.784,540.44 L 108.498,506.316 L 68.283,513.122"
   style="fill:#005ba6"
   id="path35" />
			<path
   d="M 53.159,448.41 C 57.684,462.748 72.177,470.746 85.9,466.406 C 93.031,464.149 99.003,458.453 101.311,451.775 C 103.275,445.976 103.286,438.041 101.277,431.678 C 96.683,417.122 82.305,409.032 68.663,413.344 C 54.95,417.674 48.232,432.821 53.159,448.41 M 55.949,448.06 C 53.285,439.688 61.531,429.83 74.634,425.706 C 86.336,422.003 96.109,424.472 98.405,431.747 C 101.035,440.061 92.617,450.104 79.606,454.221 C 67.961,457.89 58.235,455.341 55.949,448.06 z "
   style="fill:#005ba6"
   id="path37" />
			<path
   d="M 49.496,366.146 C 43.72,366.709 43.318,367.191 42.973,373.353 C 42.904,374.163 42.456,374.719 41.652,374.8 C 40.504,374.904 39.838,374.093 39.665,372.365 C 39.642,372.072 39.562,371.343 39.573,370.694 C 39.458,367.932 39.355,366.118 39.183,364.522 C 39.068,363.368 38.861,361.932 38.597,360.709 C 38.436,359.854 38.276,358.923 38.23,358.487 C 38.092,357.04 38.597,356.265 39.677,356.162 C 40.906,356.03 41.342,356.725 42.089,359.866 C 42.721,362.501 43.858,362.972 48.267,362.547 L 86.945,358.734 C 89.115,358.527 89.655,358.832 89.827,360.571 C 89.953,361.863 89.517,362.707 87.863,364.275 L 51.804,399.272 L 78.401,396.659 C 83.546,396.154 85.245,395.695 86.382,394.552 C 87.243,393.604 87.243,393.673 87.323,389.286 C 87.289,388.195 88.001,387.322 88.873,387.242 C 89.815,387.133 90.469,387.96 90.607,389.321 C 90.63,389.613 90.63,390.274 90.699,390.848 C 90.653,392.817 90.756,394.569 91.032,397.319 C 91.193,398.978 91.434,400.776 91.721,402.068 C 91.939,402.918 92.112,403.842 92.158,404.21 C 92.273,405.502 91.767,406.289 90.757,406.398 C 89.597,406.502 89.08,405.749 88.713,403.315 C 88.162,400.071 86.439,399.589 77.826,400.433 L 57.373,402.449 C 48.932,403.494 51.171,403.201 50.598,403.327 C 47.141,403.821 46.349,404.636 46.372,407.105 C 46.464,409.574 46.108,410.28 44.868,410.395 C 43.857,410.493 43.271,409.746 43.099,408.012 L 42.536,400.765 L 41.801,394.047 C 41.56,391.589 41.606,391.297 43.214,389.746 L 69.305,364.194 L 49.496,366.146"
   style="fill:#005ba6"
   id="path39" />
			<path
   d="M 80.111,324.195 C 85.405,324.631 85.876,324.304 87.242,319.091 C 87.449,318.235 88,317.764 88.712,317.822 C 89.815,317.908 90.274,318.609 90.159,319.837 L 90.125,320.268 C 89.964,321.422 90.021,320.705 89.803,322.502 L 89.757,323.162 L 89.711,323.742 L 89.585,324.305 L 89.528,324.96 C 89.287,327.056 89.057,329.008 88.839,331.689 C 88.644,334.147 88.586,335.743 88.471,339.016 L 88.425,339.601 L 88.367,340.25 L 88.379,340.979 L 88.333,341.622 C 88.356,342.213 88.321,342.719 88.31,342.942 C 88.195,344.165 87.644,344.774 86.553,344.693 C 85.543,344.612 85.405,344.458 85.072,341.368 C 84.739,338.199 83.637,337.377 79.089,337.027 L 44.465,334.225 C 43.317,334.133 43.145,334.334 42.984,336.355 C 42.617,340.92 43.754,343.131 48.462,347.006 C 50.185,348.384 50.965,349.464 50.897,350.337 C 50.828,351.135 50.059,351.726 49.186,351.657 C 48.956,351.64 48.623,351.536 48.256,351.428 L 37.702,347.529 C 36.577,347.139 36.048,346.444 36.117,345.566 C 36.186,344.705 36.588,344.291 37.415,344.067 C 39.115,343.625 39.287,343.493 39.413,341.753 L 41.813,312.142 C 42.031,309.323 41.675,308.347 40.159,307.204 C 39.068,306.383 38.735,305.924 38.804,305.126 C 38.884,304.109 39.642,303.668 40.802,303.897 L 52.504,306.073 C 54.146,306.44 54.697,306.911 54.606,308.002 C 54.537,308.944 53.745,309.604 52.103,310.132 C 45.603,312.153 44.799,313.118 44.294,319.342 C 44.168,320.927 44.351,321.317 45.431,321.398 L 80.111,324.195"
   style="fill:#005ba6"
   id="path41" />
			<path
   d="M 74.955,285.839 C 74.128,285.626 73.91,285.27 74.082,284.57 C 74.243,283.932 74.725,282.933 75.333,281.969 C 77.205,278.983 78.181,276.91 78.767,274.51 C 80.754,266.62 75.77,258.404 67.685,256.377 C 59.141,254.241 52.446,259.449 49.713,270.364 C 49.265,272.127 48.599,275.405 48.093,278.345 C 47.404,281.923 46.83,284.851 46.486,286.189 C 46.084,287.802 45.785,289.014 44.913,291.856 C 44.166,294.291 44.052,294.716 43.983,294.997 C 43.788,295.468 43.673,295.961 43.592,296.243 C 43.305,297.443 43.627,298.206 44.695,298.465 C 45.384,298.643 46.004,298.27 46.36,297.466 C 48.576,292.551 49.082,292.304 54.215,293.585 L 83.177,300.854 C 87.621,301.974 88.574,302.961 88.379,306.137 C 88.207,309.158 88.31,309.404 89.286,309.651 C 90.354,309.909 90.997,309.404 91.296,308.204 C 91.353,308.003 91.468,307.509 91.548,306.923 L 91.709,306.286 L 91.813,305.568 L 91.974,304.937 L 92.112,304.368 C 92.766,301.159 93.076,299.597 93.662,297.34 C 94.282,294.796 94.822,292.987 95.396,290.966 L 95.557,290.328 L 95.775,289.788 L 95.913,289.208 L 96.062,288.588 C 96.59,286.848 96.407,287.543 96.763,286.435 L 96.866,286.016 C 97.165,284.816 96.832,284.052 95.775,283.788 C 95.063,283.616 94.454,283.989 94.11,284.799 C 91.894,289.708 91.388,289.955 86.232,288.669 L 74.955,285.839 M 58.694,281.756 C 52.068,280.097 50.793,278.874 51.723,275.222 C 52.952,270.278 58.591,267.505 64.378,268.952 C 70.855,270.571 74.116,274.912 72.784,280.195 C 71.946,283.508 70.671,284.754 68.616,284.249 L 58.694,281.756 z "
   style="fill:#005ba6"
   id="path43" />
			<path
   d="M 99.749,243.539 C 105.008,245.858 107.822,244.871 109.9,240.14 C 112.232,234.823 111.657,229.816 108.27,225.785 C 106.777,223.936 106.456,223.08 106.915,222.007 C 107.294,221.152 108.121,220.882 108.994,221.266 C 109.649,221.548 110.97,222.363 112.21,223.305 C 113.461,224.252 115.081,225.292 117.653,226.653 C 118.629,227.158 118.778,227.537 118.422,228.335 C 118.273,228.663 117.71,229.771 117.297,230.701 C 115.942,233.44 114.139,237.333 111.934,242.386 C 109.947,246.916 107.226,253.1 106.295,255.38 C 104.906,258.584 105.399,257.453 103.149,263.286 C 102.988,263.849 102.77,264.308 102.69,264.509 C 102.196,265.634 101.461,266.036 100.474,265.6 C 99.544,265.187 99.452,264.992 100.153,261.966 C 100.876,258.877 100.107,257.745 95.915,255.903 L 68.57,243.894 C 63.724,241.764 63.207,241.844 60.175,246.398 C 59.693,247.127 59.027,247.397 58.372,247.104 C 57.373,246.656 57.166,245.87 57.66,244.727 L 57.844,244.325 L 58.073,243.964 L 58.245,243.562 L 58.521,242.965 L 58.877,242.327 L 59.141,241.73 L 59.37,241.202 L 59.692,240.622 L 59.933,240.094 C 61.001,238.027 61.828,236.166 63.482,232.365 C 64.676,229.637 66.077,226.29 66.939,224.136 C 72.543,209.93 70.878,214.271 72.336,210.39 L 72.577,209.862 C 72.944,209.001 73.438,208.811 74.3,209.202 L 76.861,210.402 L 81.455,212.256 C 83.453,213.129 83.717,213.565 83.201,214.777 C 82.833,215.564 82.236,215.857 80.203,216.15 C 75.3,216.856 72.968,218.527 71.142,222.713 C 68.363,229.041 68.363,229.758 71.165,230.982 L 81.799,235.662 C 83.717,236.506 84.532,236.293 85.141,234.91 C 88.471,227.325 88.471,226.056 85.382,223.351 C 83.832,222.019 83.361,221.101 83.752,220.176 C 84.165,219.235 85.165,218.965 86.198,219.504 L 92.905,222.846 L 98.808,225.114 C 100.071,225.677 100.508,226.487 100.094,227.428 C 99.692,228.358 98.888,228.726 97.269,228.64 C 93.077,228.393 90.987,229.381 89.816,232.039 L 89.299,233.394 C 87.393,238.275 87.393,238.108 89.575,239.073 L 99.749,243.539"
   style="fill:#005ba6"
   id="path45" />
			<path
   d="M 90.114,199.216 C 85.658,196.351 85.107,196.42 81.444,200.359 C 80.836,201.014 80.147,201.169 79.527,200.773 C 78.608,200.182 78.539,199.36 79.205,198.327 C 79.205,198.327 79.412,198.006 79.733,197.621 L 79.974,197.253 L 80.33,196.713 L 80.778,196.139 L 81.134,195.594 L 81.456,195.1 L 81.824,194.658 L 82.191,194.101 C 83.305,192.494 84.511,190.765 85.809,188.738 C 87.313,186.424 88.071,185.109 89.771,182.227 L 90.069,181.733 L 90.437,181.182 L 90.77,180.533 L 91.114,179.982 C 91.378,179.448 91.654,179.029 91.769,178.839 C 92.435,177.805 93.216,177.535 94.135,178.121 C 94.985,178.672 94.996,178.931 93.871,181.756 C 92.665,184.695 93.251,185.93 97.098,188.411 L 121.639,204.242 C 125.842,206.958 128.644,206.521 131.01,202.852 C 133.962,198.276 134.008,193.906 131.24,188.658 C 130.31,187.028 130.183,186.166 130.7,185.368 C 131.205,184.564 131.917,184.415 132.698,184.931 C 133.686,185.569 135.34,186.884 136.809,188.365 C 138.049,189.508 139.095,190.432 140.094,191.161 C 141.357,192.148 141.437,192.562 140.668,193.773 L 140.186,194.514 C 138.785,196.547 138.946,196.3 136.477,199.722 C 134.617,202.335 132.71,205.16 129.793,209.684 C 127.048,213.95 124.855,217.47 122.478,221.558 C 121.605,223.062 121.341,223.597 121.191,223.843 C 120.962,224.302 120.697,224.733 120.537,224.968 C 119.859,226.002 119.101,226.289 118.171,225.697 C 117.321,225.134 117.321,224.887 118.435,222.062 C 119.652,219.122 119.055,217.876 115.22,215.395 L 90.114,199.216"
   style="fill:#005ba6"
   id="path47" />
			<path
   d="M 116.699,160.917 C 112.714,157.386 112.151,157.375 107.937,160.716 C 107.236,161.267 106.524,161.313 105.984,160.819 C 105.169,160.107 105.215,159.28 106.042,158.35 C 106.042,158.35 106.283,158.08 106.674,157.753 L 106.972,157.426 L 107.409,156.944 L 107.937,156.45 L 108.373,155.956 L 108.752,155.519 L 109.189,155.14 L 109.626,154.646 C 110.981,153.228 112.439,151.695 114.024,149.909 C 115.861,147.842 116.815,146.653 118.927,144.052 L 119.754,143.122 L 120.179,142.536 L 120.616,142.054 C 120.937,141.56 121.282,141.181 121.42,141.032 C 122.247,140.102 123.062,139.947 123.866,140.665 C 124.636,141.348 124.601,141.606 123.062,144.219 C 121.42,146.947 121.799,148.261 125.232,151.299 L 147.074,170.678 C 150.818,174.002 153.655,173.991 156.537,170.724 C 160.154,166.653 160.889,162.341 158.949,156.742 C 158.271,154.979 158.271,154.107 158.903,153.4 C 159.534,152.694 160.258,152.648 160.959,153.274 C 161.832,154.049 163.255,155.611 164.496,157.282 C 165.541,158.614 166.437,159.694 167.31,160.566 C 168.412,161.726 168.435,162.139 167.471,163.231 L 166.885,163.879 C 165.197,165.676 165.381,165.47 162.429,168.467 C 160.201,170.77 157.881,173.273 154.31,177.298 C 150.934,181.093 148.247,184.246 145.272,187.915 C 144.169,189.27 143.836,189.752 143.652,189.976 C 143.365,190.407 143.021,190.786 142.825,190.998 C 142.01,191.928 141.206,192.066 140.379,191.349 C 139.621,190.677 139.655,190.419 141.206,187.8 C 142.837,185.084 142.446,183.763 139.024,180.732 L 116.699,160.917"
   style="fill:#005ba6"
   id="path49" />
			<path
   d="M 177.747,141.774 C 181.226,145.771 181.789,145.868 186.406,143.089 C 187.164,142.618 187.887,142.676 188.358,143.221 C 189.07,144.042 188.909,144.863 187.99,145.667 L 187.646,145.949 C 186.727,146.666 187.29,146.184 185.866,147.321 L 185.361,147.758 L 184.925,148.137 L 184.443,148.464 L 183.949,148.889 C 182.479,150.077 180.734,151.496 179.092,152.931 C 176.336,155.32 176.244,155.411 171.432,159.976 C 171.064,160.401 170.674,160.74 170.49,160.883 C 169.583,161.693 168.744,161.738 168.021,160.917 C 167.366,160.153 167.424,159.907 169.295,157.506 C 171.271,155.014 171.064,153.659 168.055,150.214 L 148.441,127.694 C 144.962,123.686 144.41,123.606 139.782,126.379 C 139.035,126.838 138.312,126.781 137.841,126.235 C 137.117,125.414 137.29,124.605 138.22,123.789 C 138.22,123.789 138.484,123.554 138.921,123.272 L 139.242,122.991 L 139.736,122.554 L 140.333,122.135 L 140.827,121.71 L 141.275,121.319 L 141.757,120.992 L 142.251,120.567 C 143.664,119.43 145.466,117.96 146.937,116.662 C 149.842,114.136 149.842,114.136 154.746,109.491 C 155.136,109.043 155.527,108.716 155.687,108.572 C 156.617,107.762 157.456,107.717 158.156,108.537 C 158.834,109.301 158.753,109.559 156.904,111.959 C 154.929,114.439 155.135,115.794 158.144,119.251 L 177.747,141.774"
   style="fill:#005ba6"
   id="path51" />
			<path
   d="M 200.141,123.348 C 203.299,128.142 206.193,128.849 210.499,126.013 C 215.368,122.815 217.607,118.302 216.953,113.071 C 216.712,110.717 216.895,109.809 217.86,109.178 C 218.652,108.661 219.491,108.879 220.007,109.672 C 220.409,110.281 221.075,111.671 221.603,113.14 C 222.143,114.621 222.935,116.361 224.348,118.899 C 224.888,119.852 224.807,120.254 224.084,120.736 C 223.774,120.937 222.706,121.557 221.856,122.108 C 219.227,123.675 215.598,125.966 210.993,128.987 C 206.87,131.709 201.22,135.424 199.199,136.848 C 196.282,138.76 197.316,138.082 192.262,141.763 C 191.814,142.136 191.389,142.417 191.205,142.538 C 190.183,143.222 189.356,143.158 188.747,142.246 C 188.196,141.396 188.23,141.195 190.458,139.036 C 192.755,136.82 192.72,135.459 190.205,131.635 L 173.783,106.698 C 170.866,102.265 170.384,102.064 165.377,104.229 C 164.573,104.579 163.873,104.436 163.471,103.827 C 162.874,102.92 163.138,102.144 164.16,101.45 L 164.528,101.215 L 164.93,101.037 L 165.298,100.796 L 165.849,100.44 L 166.492,100.101 L 167.043,99.745 L 167.525,99.429 L 168.111,99.125 L 168.605,98.803 C 170.626,97.643 172.314,96.535 175.771,94.256 C 178.263,92.62 181.26,90.564 183.155,89.22 C 195.592,80.343 191.825,83.082 195.167,80.624 L 195.649,80.308 C 196.43,79.791 196.935,79.894 197.452,80.682 L 198.956,83.093 L 201.792,87.141 C 202.998,88.961 202.986,89.478 201.896,90.196 C 201.161,90.678 200.506,90.598 198.634,89.737 C 194.133,87.658 191.273,87.797 187.449,90.317 C 181.684,94.112 181.294,94.715 182.97,97.265 L 189.366,106.969 C 190.514,108.732 191.307,109.002 192.57,108.158 C 199.495,103.604 200.184,102.531 199.07,98.58 C 198.473,96.628 198.576,95.594 199.426,95.043 C 200.276,94.492 201.263,94.796 201.838,95.795 L 205.651,102.249 L 209.372,107.365 C 210.119,108.531 210.039,109.449 209.188,110.012 C 208.35,110.563 207.477,110.449 206.145,109.495 C 202.78,107.014 200.495,106.699 198.06,108.295 L 196.877,109.156 C 192.639,112.211 192.72,112.073 194.029,114.071 L 200.141,123.348"
   style="fill:#005ba6"
   id="path53" />
			<path
   d="M 212.188,72.039 L 211.556,72.228 L 211.028,72.463 L 210.431,72.71 L 209.73,72.946 L 209.133,73.204 L 208.731,73.371 C 208.226,73.497 207.904,73.652 207.904,73.652 C 206.767,74.134 206.377,74.863 206.79,75.862 C 207.088,76.529 207.743,76.792 208.604,76.58 C 213.852,75.357 214.369,75.616 216.447,80.479 L 228.241,107.902 C 230.055,112.117 229.849,113.478 227.196,115.24 C 224.693,116.963 224.554,117.169 224.957,118.099 C 225.382,119.098 226.186,119.322 227.323,118.828 C 227.518,118.747 227.989,118.546 228.494,118.242 L 229.091,117.984 L 229.734,117.639 L 230.331,117.369 L 230.871,117.145 C 233.753,115.744 235.177,115.055 237.118,114.217 C 239.587,113.149 241.195,112.466 243.25,111.736 L 243.847,111.478 L 244.41,111.323 L 244.95,111.094 L 245.559,110.829 C 247.247,110.186 246.581,110.479 247.672,110.077 L 248.074,109.905 C 249.211,109.423 249.613,108.694 249.177,107.695 C 248.89,107.023 248.224,106.765 247.374,106.977 C 242.125,108.2 241.621,107.942 239.519,103.073 L 234.615,91.652 C 234.075,90.383 234.156,90.033 235.235,89.573 C 237.428,88.631 238.566,89.079 242.792,92.639 L 256.503,104.307 C 257.674,105.387 258.099,105.432 259.305,104.927 C 259.5,104.846 259.833,104.692 260.212,104.456 C 260.912,104.071 261.889,103.577 263.048,102.986 C 264.024,102.492 264.759,102.176 264.897,102.119 L 271.511,99.684 C 272.545,99.305 273.015,98.392 272.648,97.519 C 272.292,96.721 271.695,96.428 270.466,96.721 C 267.871,97.284 267.4,97.094 264.207,94.441 L 254.079,85.972 C 250.611,83.043 248.394,82.493 244.593,83.405 C 252.31,78.754 254.756,73.575 252.149,67.511 C 249.198,60.644 242.262,58.479 234.177,61.947 C 232.385,62.722 229.767,64.003 227.034,65.346 C 223.543,67.166 220.316,68.694 218.455,69.509 C 216.124,70.509 214.918,71.025 212.725,71.8 L 212.188,72.039 M 226.841,73.566 C 225.589,70.626 226.117,69.299 228.988,68.065 C 233.329,66.193 238.45,68.57 240.575,73.52 C 242.907,78.917 240.667,83.999 234.856,86.491 C 233.053,87.266 232.663,87.117 231.744,84.987 L 226.841,73.566 z "
   style="fill:#005ba6"
   id="path55" />
			<path
   d="M 332.01,52.355 C 333.813,52.154 334.054,51.752 333.859,49.766 L 332.562,37.197 C 331.861,30.307 331.424,29.779 324.385,29.244 C 323.225,29.083 322.513,28.59 322.398,27.539 C 322.272,26.224 323.053,25.472 324.661,25.305 C 324.661,25.305 325.132,25.259 325.798,25.294 L 327.222,25.145 L 328.083,25.157 L 329.025,25.059 L 329.783,24.978 L 330.541,24.989 L 331.311,24.92 C 334.067,24.811 336.513,24.564 340.302,24.179 C 343.323,23.875 345.493,23.554 349.627,22.945 L 350.385,22.859 L 351.235,22.767 L 352.166,22.578 L 353.016,22.497 C 353.763,22.33 354.44,22.262 354.704,22.227 C 356.323,22.06 357.242,22.635 357.368,23.967 C 357.517,25.38 357.253,25.587 353.452,26.66 C 349.364,27.837 348.675,29.433 349.283,35.48 L 353.268,74.335 C 353.992,81.226 354.428,81.754 361.537,82.259 C 362.696,82.328 363.42,82.926 363.535,83.965 C 363.661,85.291 362.881,86.032 361.272,86.21 L 360.721,86.268 C 359.182,86.314 358.998,86.348 354.531,86.612 C 352.258,86.75 349.134,86.974 346.86,87.209 C 341.474,87.76 341.578,87.749 332.827,89.035 C 332.161,89.196 331.507,89.253 331.22,89.287 C 329.623,89.454 328.704,88.879 328.567,87.547 C 328.418,86.14 328.59,85.928 332.483,84.762 C 336.468,83.585 337.18,82.092 336.548,76.034 L 334.883,59.784 C 334.481,56.867 334.389,56.786 332.781,56.948 L 312.547,59.021 C 309.905,59.291 309.825,59.394 310.077,61.852 L 311.8,78.579 C 312.501,85.48 312.926,85.917 319.954,86.526 C 321.113,86.601 321.837,87.198 321.952,88.231 C 322.09,89.564 321.298,90.304 319.701,90.465 L 319.127,90.528 C 317.611,90.597 317.508,90.597 313.052,90.867 C 310.583,91.022 307.736,91.217 304.91,91.516 C 300.179,91.998 299.8,92.033 291.336,93.29 C 290.601,93.468 289.935,93.526 289.648,93.56 C 288.029,93.727 287.11,93.146 286.983,91.82 C 286.834,90.407 287.098,90.184 290.899,89.035 C 294.884,87.858 295.688,86.347 295.068,80.296 L 291.083,41.452 C 290.371,34.562 289.935,34.034 282.826,33.516 C 281.551,33.361 280.931,32.856 280.816,31.719 C 280.69,30.588 281.563,29.726 283.078,29.577 C 283.078,29.577 283.549,29.531 284.215,29.554 L 284.789,29.491 L 285.639,29.41 L 286.592,29.41 L 287.442,29.318 L 288.2,29.243 L 288.97,29.261 L 289.82,29.163 C 292.289,29.008 295.217,28.812 298.065,28.514 C 302.785,28.032 303.06,27.997 311.536,26.751 C 312.19,26.59 312.846,26.515 313.133,26.493 C 314.74,26.332 315.659,26.906 315.797,28.221 C 315.935,29.645 315.774,29.846 311.869,30.914 C 307.884,32.091 307.172,33.693 307.804,39.745 L 309.09,52.308 C 309.285,54.197 309.814,54.622 311.8,54.421 L 332.01,52.355"
   style="fill:#005ba6"
   id="path57" />
			<path
   d="M 383.859,46.625 C 384.112,47.039 384.192,47.119 384.411,47.142 C 384.629,47.171 384.87,47.12 385.823,46.7 L 402.095,39.632 C 403.036,39.276 403.462,38.949 403.508,38.489 C 403.542,38.265 403.416,38.03 403.232,37.547 L 401.636,34.866 C 401.188,34.137 401.199,34.056 400.821,34.022 C 400.522,33.988 400.051,34.166 399.305,34.694 L 384.365,44.18 C 383.217,44.886 383.227,44.805 383.205,45.041 C 383.182,45.179 383.182,45.179 383.48,45.828 L 383.859,46.625 M 401.143,68.593 C 403.761,68.886 404.841,68.168 405.071,66.078 C 405.863,58.953 398.766,52.458 388.867,51.368 C 377.027,50.035 366.531,57.597 365.348,68.312 C 364.119,79.342 372.572,89.316 384.262,90.619 C 389.957,91.251 395.585,89.832 400.178,86.703 C 401.741,85.669 402.613,84.624 402.704,83.798 C 402.796,83.126 402.176,82.449 401.567,82.46 C 400.97,82.471 400.488,82.632 399.19,83.327 C 395.952,85.244 393.436,85.882 390.52,85.549 C 382.722,84.682 377.428,77.033 378.427,68.111 C 378.611,66.452 379.024,66.124 380.448,66.291 L 401.143,68.593 z M 389.693,54.261 C 392.828,54.612 394.7,56.937 394.344,60.175 C 393.907,63.993 391.863,64.596 382.573,63.563 C 380.334,63.31 379.76,62.937 379.885,61.817 C 380.38,57.471 385.191,53.756 389.693,54.261 z "
   style="fill:#005ba6"
   id="path59" />
			<path
   d="M 414.016,71.567 C 415.096,67.393 414.625,66.181 411.467,65.136 C 410.089,64.711 409.595,64.194 409.836,63.322 C 410.089,62.3 410.089,62.3 414.338,62.139 C 416.703,62.041 422.17,60.422 425.374,58.901 C 427.153,58.046 427.739,57.879 428.475,58.068 C 429.129,58.235 429.313,58.751 429.072,59.635 L 427.763,64.734 C 427.544,65.618 427.522,66.008 427.82,66.077 C 427.889,66.1 428.142,66.008 428.348,65.819 C 431.656,63.241 436.662,61.972 440.028,62.827 C 443.737,63.781 446.137,67.202 445.299,70.498 C 444.369,74.069 440.809,76.119 437.169,75.178 C 435.032,74.638 433.712,73.427 432.587,71.118 C 431.645,69.321 431.254,68.746 430.588,68.58 C 429.716,68.356 428.522,69.062 427.672,70.24 C 426.661,71.779 426.155,73.128 425.053,77.446 L 422.55,87.15 C 421.103,92.783 421.149,92.875 425.375,94.971 C 426.558,95.511 426.982,96.24 426.753,97.118 C 426.524,98.06 425.581,98.369 423.974,97.956 C 423.756,97.91 423.101,97.732 422.608,97.531 C 419.071,96.463 415.867,95.567 414.121,95.108 C 412.571,94.712 409.126,93.897 405.738,93.191 C 405.198,93.133 404.544,92.961 404.325,92.898 C 402.706,92.49 402.04,91.773 402.281,90.819 C 402.51,89.946 403.246,89.51 404.544,89.619 C 409.23,89.877 409.344,89.757 410.791,84.13 L 414.016,71.567"
   style="fill:#005ba6"
   id="path61" />
			<path
   d="M 467.209,86.347 C 466.888,87.117 466.888,87.117 463.821,87.231 L 461.674,87.312 L 459.412,87.433 L 457.253,87.525 C 453.739,87.703 451.052,87.893 449.008,88.105 C 444.368,88.633 441.336,90.631 439.832,94.254 C 438.029,98.578 439.936,103.039 444.482,104.917 C 446.492,105.755 448.709,106.117 451.177,106.071 C 453.508,105.979 454.071,105.801 459.4,104.188 C 459.675,104.13 459.837,104.119 459.974,104.176 C 460.181,104.262 460.329,104.481 460.329,104.894 L 460.502,107.409 C 460.56,107.846 460.64,108.282 460.731,108.649 C 461.248,110.337 462.488,111.67 464.44,112.479 C 467.162,113.61 470.539,113.552 474.144,112.353 C 475.936,111.773 476.969,111.067 477.279,110.303 C 477.532,109.671 477.245,108.976 476.694,108.753 C 476.487,108.661 476.108,108.586 475.821,108.707 C 472.836,109.189 473.099,109.143 472.41,108.845 C 471.113,108.225 471.101,107.082 472.25,104.286 L 479.898,85.906 C 482.091,80.6 479.209,76.541 470.641,72.981 C 465.485,70.851 459.662,70.299 455.012,71.477 C 451.693,72.396 448.133,74.675 447.409,76.415 C 446.95,77.518 447.558,78.591 448.81,79.12 C 450.487,79.803 453.357,80.188 455.815,80.154 C 457.745,80.05 458.583,79.58 460.65,77.582 C 463.245,75.061 465.749,74.148 467.896,75.038 C 470.342,76.049 470.594,78.202 468.849,82.376 L 467.209,86.347 M 463.087,96.31 C 461.996,98.888 460.985,100.347 459.825,101.001 C 458.091,102 455.507,102.155 453.624,101.369 C 451.396,100.45 450.535,97.803 451.568,95.288 C 452.498,93.066 454.244,91.831 457.207,91.171 C 460.066,90.574 464.235,90.172 464.89,90.373 C 465.245,90.517 465.303,90.947 465.051,91.573 L 463.087,96.31 z "
   style="fill:#005ba6"
   id="path63" />
			<path
   d="M 490.556,94.949 C 493.611,90.011 493.634,89.845 490.201,86.646 C 489.236,85.773 489.041,84.952 489.523,84.177 C 490.04,83.339 491.027,83.327 492.417,84.212 C 492.555,84.292 493.072,84.608 493.611,85.033 L 495.15,85.986 L 495.804,86.491 C 498.009,87.949 499.755,89.127 500.605,89.643 L 502.97,91.113 C 503.705,91.492 504.739,92.124 504.866,92.193 C 506.025,92.911 506.003,93.089 504.854,94.949 L 493.473,113.266 C 490.763,117.63 491.004,120.972 494.197,122.97 C 495.931,124.038 498.699,124.428 500.984,123.9 C 502.35,123.579 502.89,123.125 504.085,121.207 L 512.089,108.316 C 515.155,103.389 515.167,103.223 511.734,100.024 C 510.7,99.111 510.505,98.284 510.976,97.509 C 511.504,96.676 512.48,96.676 513.893,97.543 C 514.031,97.624 514.605,97.98 515.076,98.358 L 515.846,98.84 L 516.58,99.38 L 517.338,99.862 C 519.164,101.085 520.588,102.061 520.726,102.141 C 521.748,102.779 522.702,103.376 524.861,104.622 L 526.595,105.696 C 527.491,106.259 527.536,106.46 526.698,107.809 L 514.043,128.187 C 511.62,132.091 511.598,132.706 514.216,134.773 C 515.1,135.502 515.283,136.053 514.882,136.702 C 514.365,137.523 513.423,137.477 510.713,136.42 C 508.313,135.547 505.385,134.703 502.055,133.894 C 499.471,133.337 499.172,133.246 498.724,132.964 C 498.024,132.528 497.99,132.154 498.54,131.259 L 500.251,128.509 C 500.688,127.803 500.733,127.298 500.355,127.062 C 499.976,126.815 500.321,126.85 497.232,127.073 C 492.868,127.377 488.952,126.545 485.874,124.627 C 479.662,120.768 478.49,114.36 482.763,107.504 L 490.556,94.949"
   style="fill:#005ba6"
   id="path65" />
			<path
   d="M 530.91,143.772 C 527.235,148.273 527.259,148.371 530.198,152.052 C 531.048,153.039 531.129,153.884 530.565,154.578 C 529.945,155.342 528.969,155.227 527.671,154.176 C 527.499,154.027 526.982,153.602 526.614,153.217 C 523.789,150.708 521.32,148.606 519.747,147.32 C 518.69,146.453 515.773,144.185 513.121,142.193 C 512.661,141.912 512.133,141.492 511.949,141.349 C 510.675,140.304 510.353,139.362 510.973,138.599 C 511.547,137.904 512.397,137.807 513.545,138.444 C 517.679,140.654 517.828,140.586 521.503,136.095 L 543.059,109.671 C 545.781,106.329 545.757,105.646 543.07,102.379 C 542.393,101.638 542.336,101.001 542.864,100.369 C 543.542,99.542 544.426,99.766 547.205,101.368 C 550.914,103.504 552.763,104.342 558.551,106.059 C 559.057,106.18 559.401,106.352 559.631,106.541 C 560.274,107.069 560.158,107.942 559.286,108.987 L 530.91,143.772"
   style="fill:#005ba6"
   id="path67" />
			<path
   d="M 552.959,136.589 C 554.751,134.751 554.9,134.166 554.039,133.327 L 552.259,131.576 C 551.282,130.634 550.995,129.836 551.535,129.296 C 552.052,128.756 553.074,128.905 554.797,129.623 C 559.678,131.644 564.535,132.069 568.669,130.834 C 570.908,130.163 571.805,130.214 572.517,130.892 C 573.389,131.742 573.343,132.328 572.276,133.413 L 567.912,137.892 C 566.592,139.241 566.442,140.045 567.475,141.044 L 571.678,145.144 C 572.872,146.31 572.872,146.625 571.816,147.711 C 570.668,148.899 570.083,148.957 569.106,148.015 L 565.271,144.265 C 564.087,143.111 563.559,143.122 562.342,144.357 L 551.593,155.376 C 546.644,160.458 545.506,163.243 547.505,165.195 C 548.102,165.786 549.273,166.292 550.514,166.55 C 552.489,166.889 552.65,166.952 552.983,167.268 C 553.362,167.63 553.362,168.382 552.995,168.761 C 552.363,169.41 550.549,169.748 548.367,169.616 C 544.83,169.335 541.143,167.739 538.651,165.315 C 534,160.785 534.322,155.709 539.582,150.312 L 552.959,136.589"
   style="fill:#005ba6"
   id="path69" />
			<path
   d="M 623.413,191.89 C 622,192.866 620.921,192.797 620.117,191.609 C 619.382,190.518 619.565,189.456 620.921,187.727 C 625.767,181.331 626.56,176.427 623.459,171.868 C 619.888,166.608 613.617,164.667 609.448,167.493 C 606.704,169.37 605.751,172.196 606.531,176.72 C 606.726,177.512 606.864,178.219 607.048,179.006 L 607.795,181.613 L 608.61,184.156 L 609.288,186.682 C 612.537,198.028 610.355,206.641 602.972,211.671 C 591.982,219.153 577.478,215.22 568.75,202.427 C 564.753,196.535 561.343,187.481 561.859,184.024 C 561.951,183.157 562.318,182.675 563.915,181.475 C 564.581,180.907 564.972,180.648 567.016,179.265 C 568.613,178.065 569.554,177.416 569.945,177.146 C 573.631,174.643 574.848,174.384 575.859,175.877 C 576.444,176.738 576.376,177.829 575.526,179.098 C 575.285,179.603 576.306,178.22 572.184,183.318 C 568.073,188.411 568.049,193.952 572.206,200.079 C 576.766,206.757 583.794,208.979 588.893,205.499 C 592.349,203.156 593.475,200.09 593.039,194.882 C 592.832,193.401 592.533,191.776 591.259,185.505 C 588.354,171.615 589.64,164.892 596.082,160.516 C 605.35,154.206 619.647,158.834 627.881,170.926 C 630.339,174.544 632.922,180.71 633.095,183.484 C 633.175,184.799 632.762,185.528 631.269,186.556 L 623.413,191.89"
   style="fill:#005ba6"
   id="path71" />
			<path
   d="M 591.465,240.46 C 592.568,239.966 593.004,240.024 593.268,240.632 C 593.36,240.844 593.429,240.988 593.452,241.223 C 593.912,244.657 594.348,246.196 595.393,248.533 C 599.94,258.731 611.596,263.198 621.863,258.627 C 631.302,254.413 635.644,244.152 631.739,235.39 C 630.636,232.921 629.328,231.262 627.352,230.004 C 622.656,227.053 622.885,227.208 622.724,226.852 C 622.517,226.381 622.839,225.979 623.884,225.526 L 627.662,223.832 C 628.488,223.464 628.775,223.005 628.466,222.316 C 628.201,221.691 627.903,221.57 625.537,220.726 C 622.907,219.842 619.428,217.022 616.821,213.801 C 613.846,210.086 613.984,210.189 612.939,210.649 C 612.25,210.965 612.066,211.625 612.331,212.412 C 613.743,216.891 613.536,217.328 608.977,219.349 L 579.9,232.307 C 575.559,234.248 574.089,234.087 572.275,231.331 C 570.471,228.759 570.311,228.569 569.266,229.04 C 568.244,229.499 568.037,230.332 568.565,231.509 C 568.646,231.71 568.852,232.204 569.174,232.709 L 569.461,233.329 L 569.828,233.99 L 570.103,234.615 L 570.344,235.166 C 571.906,238.272 572.549,239.553 573.514,241.677 C 574.375,243.618 575.121,245.501 575.891,247.396 L 576.155,248.016 L 576.34,248.607 L 576.581,249.147 L 576.868,249.773 L 577.097,250.485 L 577.372,251.111 L 577.567,251.525 C 577.716,252.042 577.854,252.38 577.854,252.38 C 578.382,253.557 579.14,253.959 580.173,253.5 C 580.862,253.196 581.138,252.501 580.897,251.605 C 579.553,246.173 579.818,245.656 584.847,243.411 L 591.465,240.46 M 615.994,229.522 C 617.843,228.701 618.979,228.448 619.922,228.689 C 621.679,229.142 623.447,230.664 624.309,232.605 C 626.514,237.555 622.299,244.221 614.858,247.546 C 606.659,251.192 599.32,249.923 596.92,244.548 C 595.254,240.833 596.839,238.06 601.938,235.786 L 615.994,229.522 z "
   style="fill:#005ba6"
   id="path73" />
			<path
   d="M 647.437,279.781 C 644.256,267.046 633.37,259.484 622.173,262.274 C 611.699,264.869 605.831,276.278 608.806,288.285 C 611.975,301.032 623.045,308.686 634.173,305.924 C 644.497,303.358 650.399,291.719 647.437,279.781 M 644.417,279.207 C 645.853,284.989 639.318,291.283 629.224,293.786 C 620.072,296.054 613.158,294.199 611.883,289.083 C 610.482,283.438 617.613,276.772 627.868,274.229 C 636.137,272.173 643.188,274.315 644.417,279.207 z "
   style="fill:#005ba6"
   id="path75" />
			<path
   d="M 638.077,315.375 C 642.349,314.99 643.326,314.141 643.257,310.816 C 643.199,309.38 643.521,308.743 644.429,308.663 C 645.485,308.571 645.485,308.571 647.047,312.51 C 647.931,314.709 651.318,319.32 653.811,321.812 C 655.223,323.196 655.568,323.701 655.648,324.442 C 655.717,325.126 655.281,325.464 654.385,325.55 L 649.114,326.032 C 648.218,326.112 647.851,326.233 647.885,326.526 C 647.885,326.595 648.058,326.807 648.298,326.934 C 651.835,329.196 654.73,333.474 655.039,336.931 C 655.384,340.755 652.983,344.166 649.596,344.47 C 645.921,344.815 642.786,342.145 642.453,338.389 C 642.246,336.201 642.935,334.559 644.726,332.722 C 646.104,331.229 646.518,330.666 646.449,329.983 C 646.369,329.087 645.301,328.197 643.911,327.795 C 642.12,327.358 640.673,327.336 636.24,327.749 L 626.261,328.656 C 620.473,329.184 620.405,329.264 619.841,333.933 C 619.727,335.236 619.187,335.885 618.279,335.966 C 617.303,336.064 616.706,335.288 616.568,333.629 C 616.546,333.405 616.476,332.733 616.51,332.193 C 616.315,328.501 616.097,325.199 615.913,323.385 C 615.775,321.811 615.373,318.28 614.914,314.835 C 614.787,314.33 614.73,313.647 614.707,313.422 C 614.558,311.768 615.006,310.896 615.981,310.815 C 616.877,310.729 617.544,311.274 617.887,312.532 C 619.197,317.022 619.358,317.091 625.145,316.563 L 638.077,315.375"
   style="fill:#005ba6"
   id="path77" />
			<path
   d="M 647.38,353.347 C 649.941,353.421 650.491,353.14 650.515,351.923 L 650.573,349.443 C 650.619,348.082 651.02,347.341 651.779,347.353 C 652.525,347.387 653.099,348.237 653.742,349.988 C 655.556,354.938 658.543,358.779 662.263,361.007 C 664.273,362.19 664.859,362.884 664.824,363.861 C 664.802,365.072 664.331,365.44 662.826,365.394 L 656.567,365.227 C 654.695,365.181 653.983,365.612 653.961,367.047 L 653.8,372.926 C 653.754,374.586 653.513,374.809 652.009,374.752 C 650.355,374.717 649.918,374.327 649.942,372.96 L 650.091,367.614 C 650.137,365.954 649.77,365.564 648.035,365.518 L 632.658,365.104 C 625.561,364.909 622.736,365.965 622.667,368.762 C 622.633,369.589 623.058,370.812 623.712,371.88 C 624.804,373.574 624.872,373.717 624.86,374.171 C 624.849,374.705 624.309,375.222 623.769,375.199 C 622.873,375.188 621.392,374.079 620.002,372.386 C 617.809,369.613 616.477,365.8 616.58,362.321 C 616.752,355.838 620.691,352.629 628.225,352.829 L 647.38,353.347"
   style="fill:#005ba6"
   id="path79" />
			<path
   d="M 609.448,451.402 C 606.83,450.529 606.038,449.743 605.199,447.365 C 603.454,441.922 603.511,434.383 605.428,426.929 C 607.553,418.649 611.423,411.202 616.223,405.868 C 623.814,397.703 636.343,393.965 647.115,396.715 C 665.696,401.492 675.343,422.41 669.463,445.32 C 668.257,450.011 665.237,457.183 663.067,460.346 C 662.126,461.673 661.46,461.994 660.104,461.948 L 652.25,461.207 C 651.48,461.098 650.998,461.075 650.733,461.006 C 649.712,460.747 649.034,459.593 649.298,458.571 C 649.573,457.474 650.652,456.676 653.065,455.723 C 660.954,452.841 663.94,449.975 665.582,443.636 C 668.832,430.935 659.484,418.825 643.108,414.622 C 626.824,410.453 612.4,416.551 609.196,429.08 C 607.359,436.252 609.714,441.954 617.51,449.056 C 618.854,450.279 619.244,451.066 618.991,452.077 C 618.636,453.455 617.441,453.937 615.982,453.467 L 609.448,451.402"
   style="fill:#005ba6"
   id="path81" />
			<path
   d="M 602.156,467.83 C 596.839,465.51 596.724,465.545 594.003,469.38 C 593.268,470.46 592.486,470.781 591.649,470.414 C 590.753,470.029 590.604,469.053 591.258,467.52 C 591.35,467.325 591.625,466.699 591.902,466.251 C 593.555,462.852 594.922,459.9 595.726,458.034 C 596.265,456.8 597.666,453.377 598.872,450.271 C 598.998,449.754 599.263,449.128 599.365,448.927 C 600.02,447.4 600.846,446.848 601.743,447.25 C 602.569,447.612 602.891,448.398 602.569,449.662 C 601.57,454.244 601.673,454.376 607.002,456.702 L 638.262,470.31 C 642.212,472.027 642.878,471.826 645.289,468.346 C 645.817,467.508 646.427,467.272 647.185,467.605 C 648.15,468.024 648.161,468.943 647.391,472.049 C 646.324,476.2 646.025,478.21 645.933,484.257 C 645.967,484.762 645.887,485.135 645.761,485.423 C 645.428,486.181 644.555,486.301 643.303,485.75 L 602.156,467.83"
   style="fill:#005ba6"
   id="path83" />
			<path
   d="M 612.664,486.537 C 617.647,489.523 617.82,489.535 620.967,486.055 C 621.817,485.068 622.644,484.867 623.424,485.326 C 624.251,485.831 624.285,486.819 623.436,488.243 C 623.356,488.375 623.045,488.892 622.632,489.431 L 621.691,490.981 L 621.209,491.653 C 619.785,493.886 618.637,495.65 618.131,496.499 L 616.685,498.882 C 616.329,499.64 615.708,500.674 615.639,500.8 C 614.927,501.966 614.767,501.954 612.895,500.823 L 594.395,489.724 C 589.997,487.088 586.655,487.37 584.713,490.608 C 583.668,492.359 583.313,495.144 583.887,497.412 C 584.22,498.755 584.691,499.307 586.631,500.472 L 599.631,508.27 C 604.604,511.256 604.776,511.267 607.922,507.788 C 608.818,506.737 609.645,506.542 610.426,507.001 C 611.264,507.506 611.287,508.494 610.438,509.912 C 610.357,510.044 610.001,510.63 609.633,511.1 L 609.162,511.881 L 608.634,512.616 L 608.175,513.397 C 606.981,515.229 606.016,516.676 605.936,516.808 C 605.327,517.842 604.742,518.818 603.524,520.982 L 602.479,522.733 C 601.939,523.64 601.721,523.686 600.366,522.871 L 579.799,510.538 C 575.861,508.172 575.229,508.149 573.207,510.808 C 572.507,511.704 571.944,511.893 571.289,511.502 C 570.463,510.997 570.497,510.055 571.519,507.328 C 572.345,504.916 573.149,501.965 573.908,498.635 C 574.413,496.04 574.505,495.747 574.78,495.299 C 575.194,494.581 575.573,494.547 576.48,495.087 L 579.27,496.758 C 579.971,497.183 580.488,497.229 580.717,496.839 C 580.946,496.437 580.924,496.781 580.659,493.71 C 580.28,489.352 581.05,485.424 582.91,482.318 C 586.677,476.036 593.073,474.779 599.986,478.93 L 612.664,486.537"
   style="fill:#005ba6"
   id="path85" />
			<path
   d="M 598.103,556.221 C 600.043,557.904 600.48,558.081 601.158,557.174 C 601.605,556.669 601.686,556.341 602.594,554.039 C 604.373,548.98 605.109,547.424 606.992,544.57 C 608.381,542.371 608.634,541.395 607.945,540.809 C 607.382,540.315 606.739,540.361 605.843,541.171 C 602.868,543.795 602.34,543.829 599.32,541.217 L 569.347,515.315 C 567.808,513.983 566.671,512.88 566.131,512.232 C 565.73,511.773 565.373,511.371 565.155,511.169 C 564.466,510.584 563.558,510.595 563.065,511.169 C 562.674,511.617 562.72,512.266 563.179,513.362 C 564.339,516.262 564.58,517.261 564.178,517.72 C 564.04,517.887 563.777,518.065 563.466,518.191 C 557.115,520.683 555.749,521.59 552.786,525.012 C 544.242,534.888 544.3,548.204 552.866,555.599 C 560.79,562.455 571.872,561.76 578.579,554.009 C 580.256,552.062 580.256,552.062 581.588,547.635 C 582.07,546.05 582.46,544.896 582.495,544.626 C 582.575,544.189 582.667,543.862 582.85,543.638 C 583.149,543.299 583.149,543.299 584.343,544.333 L 598.103,556.221 M 578.534,539.299 C 580.118,540.689 580.245,540.78 580.303,541.521 C 580.441,542.853 579.729,544.725 578.443,546.218 C 574.446,550.823 566.258,550.025 559.816,544.449 C 553.304,538.834 551.145,531.174 554.947,526.776 C 556.187,525.352 557.841,524.6 559.667,524.674 C 561.32,524.72 562.377,525.328 566.201,528.636 L 578.534,539.299 z "
   style="fill:#005ba6"
   id="path87" />
			<path
   d="M 291.61,658.685 C 290.025,664.835 290.53,666.012 295.331,667.149 C 298.282,667.913 299.339,668.82 298.948,670.089 C 298.558,671.289 297.409,671.645 295.434,671.14 C 295.147,671.053 294.102,670.715 293.287,670.422 C 289.141,668.963 284.87,667.619 280.632,666.54 C 276.831,665.563 273.547,664.881 270.446,664.341 C 269.676,664.209 268.827,664.082 268.517,663.996 C 266.703,663.525 266.071,662.813 266.37,661.671 C 266.726,660.305 267.84,660.023 270.045,660.586 C 276.005,662.199 277.624,661.562 278.715,657.318 L 286.639,626.335 C 287.627,622.534 287.512,622.018 286.007,621.558 C 285.628,621.466 285.261,621.369 284.847,621.414 L 279.197,621.679 C 277.968,621.759 276.946,621.656 276.165,621.535 C 275.165,621.356 274.58,620.489 274.81,619.582 C 275.166,618.222 276.453,617.9 280.896,617.9 C 289.922,617.958 295.033,617.573 299.5,616.527 C 300.109,616.361 300.671,616.349 300.981,616.419 C 301.969,616.677 302.164,617.452 301.682,619.358 L 291.61,658.685"
   style="fill:#005ba6"
   id="path89" />
			<path
   d="M 320.308,634.202 C 319.389,643.304 323.604,652.215 329.139,652.765 C 329.759,652.84 330.632,652.765 331.448,652.536 C 331.758,652.484 332.08,652.438 332.24,652.45 C 332.7,652.496 333.182,653.179 333.125,653.72 C 332.918,655.826 328.141,657.24 322.916,656.711 C 314.602,655.872 308.182,647.609 309.066,638.814 C 310.111,628.392 319.929,620.56 330.678,621.628 C 342.747,622.839 351.085,633.812 349.776,646.829 C 348.49,659.823 338.545,671.875 323.823,678.266 C 320.297,679.805 316.094,681.029 310.053,682.395 C 309.249,682.544 308.537,682.624 307.917,682.567 C 306.975,682.475 306.354,681.712 306.436,680.77 C 306.54,679.839 307.114,679.501 309.686,678.898 C 324.017,675.608 335.938,661.874 337.431,646.841 C 338.556,635.552 334.329,625.228 328.347,624.631 C 324.132,624.206 320.916,628.052 320.308,634.202"
   style="fill:#005ba6"
   id="path91" />
			<path
   d="M 383.446,643.125 C 383.71,642.396 384.571,639.577 385.053,637.814 C 385.42,636.447 385.466,636.131 385.432,635.585 C 385.374,634.897 385.041,634.672 384.032,634.753 L 361.879,636.527 C 359.778,636.693 358.308,636.906 357.757,636.94 C 356.758,637.175 355.908,637.331 355.506,637.365 C 354.495,637.434 354.036,636.613 353.887,634.586 C 353.875,634.437 353.738,632.944 353.496,630.849 C 353.37,630.154 353.209,628.202 353.129,627.271 C 352.9,624.297 352.968,624.148 354.369,624.027 C 354.84,623.993 355.781,623.993 356.642,624.073 C 360.432,624.406 363.417,624.406 367.242,624.102 L 393.908,621.96 C 395.848,621.805 396.101,621.862 396.159,622.557 C 396.216,623.263 396.273,623.097 394.712,627.077 C 394.31,627.967 394.195,628.368 394.195,628.368 L 392.082,633.404 L 390.049,638.434 L 388.017,643.453 C 385.858,648.666 382.677,657.153 378.795,668.304 C 377.451,672.088 376.43,675.079 375.878,676.854 C 374.799,680.242 374.73,680.322 373.57,680.414 L 372.628,680.489 C 372.227,680.443 372.077,680.455 372.077,680.455 C 370.596,680.569 370.434,680.581 370.308,679.973 C 370.296,679.886 370.296,679.818 370.354,679.571 C 370.4,679.169 370.434,678.698 370.572,678.371 L 383.446,643.125"
   style="fill:#005ba6"
   id="path93" />
			<path
   d="M 434.526,656.934 C 435.537,660.965 436.076,661.223 441.118,660.706 C 442.059,660.626 442.714,661.022 442.944,661.94 C 443.254,663.152 442.335,664.031 440.291,664.524 L 427.693,667.08 C 427.245,667.194 425.005,667.912 421.721,668.975 C 420.883,669.176 419.769,669.538 419.378,669.629 C 417.564,670.089 416.772,669.796 416.461,668.584 C 416.128,667.224 416.599,666.855 420.01,665.609 C 422.456,664.765 423.133,663.307 422.445,660.494 L 420.952,654.499 C 420.389,652.214 420.298,652.156 418.104,652.708 L 401.613,656.778 C 398.582,657.542 398.765,657.657 397.926,654.235 C 397.754,653.557 397.88,652.794 398.454,651.524 L 416.702,608.397 C 417.506,606.421 417.92,606.164 421.031,605.388 C 421.64,605.233 422.226,605.342 422.386,605.612 C 422.535,605.905 422.065,606.904 420.113,610.774 C 416.829,617.394 414.026,623.32 411.81,628.637 L 405.103,644.559 C 402.703,650.146 403.22,648.969 402.898,649.946 C 402.611,650.732 402.554,650.83 402.611,651.065 C 402.703,651.438 403.129,651.496 404.415,651.169 L 416.714,648.137 C 419.068,647.546 419.183,647.357 418.62,645.076 L 415.807,633.764 C 415.199,631.261 415.233,631.083 416.312,630.25 C 416.45,630.141 416.588,630.026 416.737,629.991 C 421.331,627.075 420.688,627.402 423.743,625.754 C 424.547,625.393 425.097,625.014 425.454,624.853 C 425.661,624.709 425.729,624.698 425.902,624.652 C 426.349,624.544 426.556,624.733 426.752,625.571 L 430.886,642.194 C 431.392,644.256 431.667,644.416 433.493,643.974 L 438.431,642.75 C 439.947,642.371 439.947,642.371 440.556,644.794 C 441.038,646.7 440.877,647.063 439.281,647.453 L 434.493,648.641 C 432.828,649.048 432.655,649.329 433.103,651.156 L 434.526,656.934"
   style="fill:#005ba6"
   id="path95" />
			<polyline
   fill="#005BA6"
   points="228.448,616.867 197.212,616.609 181.744,589.466 212.979,589.725 228.448,616.867    "
   id="polyline97"
   style="fill:#005ba6" />
			<polyline
   fill="#005BA6"
   points="474.203,616.867 505.439,616.609 520.919,589.466 489.684,589.725 474.203,616.867    "
   id="polyline99"
   style="fill:#005ba6" />
		</g>
	</g>
</g>
</svg>