<?xml version="1.0" encoding="UTF-8" standalone="no"?>
<svg
   xmlns:dc="http://purl.org/dc/elements/1.1/"
   xmlns:cc="http://creativecommons.org/ns#"
   xmlns:rdf="http://www.w3.org/1999/02/22-rdf-syntax-ns#"
   xmlns:svg="http://www.w3.org/2000/svg"
   xmlns="http://www.w3.org/2000/svg"
   version="1.1"
   id="svg5264"
   viewBox="0 0 265.31969 299.99999"
   height="84.666664mm"
   width="74.879112mm">
  <defs
     id="defs5266" />
  <metadata
     id="metadata5269">
    <rdf:RDF>
      <cc:Work
         rdf:about="">
        <dc:format>image/svg+xml</dc:format>
        <dc:type
           rdf:resource="http://purl.org/dc/dcmitype/StillImage" />
        <dc:title></dc:title>
      </cc:Work>
    </rdf:RDF>
  </metadata>
  <g
     transform="translate(-236.05094,-344.82001)"
     id="layer1">
    <g
       transform="matrix(2.4346104,0,0,-2.4346104,-321.41636,778.45602)"
       id="g7550">
      <g
         id="g6321"
         transform="translate(283.4652,172.9569)">
        <path
           d="m 0,0 c 0,0 -19.349,-19.688 -46.876,-1.337 0,0 -8.083,-21.946 5.827,-54.523 L 0,-24.24 19.829,-8.965 C 7.511,-7.64 0,0 0,0"
           style="fill:#a7d6f5;fill-opacity:1;fill-rule:nonzero;stroke:none"
           id="path6323" />
      </g>
      <g
         id="g6325"
         transform="translate(234.1615,134.3775)">
        <path
           d="M 0,0 31.986,0 8.255,-19.164 3.141,-14.05 0,0 Z"
           style="fill:#00489a;fill-opacity:1;fill-rule:nonzero;stroke:none"
           id="path6327" />
      </g>
      <g
         id="g6329"
         transform="translate(332.5607,158.5616)">
        <path
           d="m 0,0 -49.096,-38.996 -29.609,-23.518 c 7.14,-10.802 16.742,-22.336 29.609,-34.31 C -4.172,-55.021 1.063,-18.567 0,0"
           style="fill:#00489a;fill-opacity:1;fill-rule:nonzero;stroke:none"
           id="path6331" />
      </g>
      <path
         d="m 288.384,60.215 -4.087,0 0,60.654 4.087,0 0,-60.654 z"
         style="fill:#ffffff;fill-opacity:1;fill-rule:nonzero;stroke:none"
         id="path6333" />
      <path
         d="m 298.6,71.308 -4.087,0 0,61.426 4.087,0 0,-61.426 z"
         style="fill:#ffffff;fill-opacity:1;fill-rule:nonzero;stroke:none"
         id="path6335" />
      <path
         d="m 308.111,82.52 -4.087,0 0,58.781 4.087,0 0,-58.781 z"
         style="fill:#ffffff;fill-opacity:1;fill-rule:nonzero;stroke:none"
         id="path6337" />
      <path
         d="m 318.045,96.423 -4.087,0 0,52.473 4.087,0 0,-52.473 z"
         style="fill:#ffffff;fill-opacity:1;fill-rule:nonzero;stroke:none"
         id="path6339" />
      <path
         d="m 327.697,113.063 -4.087,0 0,43.365 4.087,0 0,-43.365 z"
         style="fill:#ffffff;fill-opacity:1;fill-rule:nonzero;stroke:none"
         id="path6341" />
      <g
         id="g6343"
         transform="translate(278.0275,147.7807)">
        <path
           d="m 0,0 -9.194,-0.449 c 0,0 -2.589,-0.053 -2.721,-0.053 -0.132,0 -2.14,-0.846 -2.457,-0.846 -0.318,0 -2.682,-2.364 -2.682,-2.364 l -1.123,-1.995 -0.396,-0.924 0,-1.48 0.634,-3.303 c 0,0 1.004,-1.202 1.202,-1.202 0.198,0 3.844,-2.972 3.844,-2.972 L 1.11,-6.79 0.898,-0.687 0,0 Z"
           style="fill:#c39400;fill-opacity:1;fill-rule:nonzero;stroke:none"
           id="path6345" />
      </g>
      <g
         id="g6347"
         transform="translate(266.3979,142.6378)">
        <path
           d="m 0,0 c -0.001,0 -0.002,0.001 -0.002,0.001 0,0.008 0.001,0.015 0.002,0.024 L 0,0 Z m -3.555,-2.502 c -0.002,-0.002 -0.005,-0.004 -0.007,-0.005 0.002,0.002 0.004,0.004 0.007,0.006 l 0,-10e-4 z m 1.935,2.651 c -0.02,-0.02 -0.038,-0.04 -0.058,-0.061 0.003,0.037 0.024,0.055 0.058,0.061 M 6.05,2.713 C 5.399,2.866 4.939,2.921 4.614,3.238 4.288,3.555 4.3,3.785 3.425,3.522 2.549,3.26 1.808,3.26 1.404,3.26 1,3.26 0.798,3.413 0.259,3.26 -0.279,3.107 -0.526,3.281 -0.526,2.866 c 0,-0.415 -0.231,-0.469 0.087,-0.639 0.079,-0.043 0.21,-0.079 0.37,-0.111 -0.066,-0.022 -0.117,-0.06 -0.216,-0.104 l -0.105,0 C -0.453,2.012 -0.497,1.98 -0.534,1.93 -0.995,1.816 -0.947,1.905 -1.13,1.722 -1.314,1.537 -1.262,1.418 -1.553,0.889 -1.843,0.361 -2.107,0.863 -2.305,1.061 -2.504,1.259 -2.385,0.678 -2.385,0.532 l 0,-0.396 c 0,-0.198 -0.145,-0.145 -0.145,-0.436 0,-0.29 -0.172,-0.171 -0.172,-0.317 0,-0.111 -10e-4,-0.214 -0.048,-0.31 -0.284,-0.184 -0.95,-0.976 -0.955,-1.193 -0.083,-0.032 -0.165,-0.061 -0.225,-0.122 -0.113,-0.112 -0.251,-0.092 -0.489,-0.092 -0.238,0 -0.251,-0.026 -0.343,-0.119 -0.093,-0.092 0,-0.251 0,-0.396 0,-0.145 0,-0.212 0.263,-0.093 0.167,0.075 0.176,0.056 0.213,0.051 -0.413,-0.236 -0.349,-0.765 -0.349,-0.765 l 0.084,-1.237 0.575,0 c 0.034,0 0.06,0.003 0.085,0.006 0.008,-0.038 0.014,-0.08 0.014,-0.13 0,-0.352 0.252,0 0.423,0.171 0.17,0.171 0.353,0.09 0.544,0.281 0.191,0.192 0.1,0.545 0.1,0.766 0,0 -0.291,-0.191 -0.382,-0.282 -0.035,-0.035 -0.108,-0.054 -0.198,-0.077 0.047,0.056 0.104,0.119 0.185,0.2 0.44,0.439 0.302,0.302 0.605,0.302 0.302,0 0.33,0.33 0.33,0.825 0,0.099 -0.016,0.185 -0.037,0.263 0.026,0.022 0.06,0.045 0.115,0.067 0.312,0.124 0.23,0.23 0.451,0.23 0.094,0 0.185,-0.078 0.266,-0.167 -0.037,-0.133 -0.068,-0.242 0.045,-0.354 0.176,-0.176 0.373,-0.222 0.614,-0.222 0.191,0 0.407,-0.274 0.528,-0.35 0.099,-0.148 0.271,-0.433 0.188,-0.516 -0.112,-0.112 -0.171,-0.502 -0.171,-0.739 0,-0.125 -0.017,-0.346 0.027,-0.515 -0.019,-0.016 -0.038,-0.032 -0.057,-0.048 l -0.145,0 c -0.076,0 -0.142,-0.141 -0.383,-0.141 -0.241,0 -0.199,-0.121 -0.295,-0.374 -0.097,-0.254 0.232,-0.449 0.367,-0.585 0.136,-0.136 0.199,-0.277 0.199,-0.549 0,-0.271 0.253,-0.215 0.297,-0.215 l 0.178,0.137 c 0.055,-0.003 0.126,0.002 0.223,0.019 0.635,0.11 0.957,-0.111 1.43,0.906 0.474,1.017 0.474,1.238 0.474,1.44 0,0.201 0.06,0.564 0.06,0.564 0,0 -0.13,0.023 -0.306,0.043 0.276,0.277 0.308,0.336 0.308,0.837 0,0.515 0.04,0.911 0.04,1.255 0,0.195 0.046,0.423 0.06,0.585 0.024,0.023 0.051,0.05 0.069,0.069 0.252,0.252 0.614,0.05 0.614,0.412 0,0.363 0.202,0.564 0,0.564 -0.201,0 -0.523,-0.322 -0.704,-0.503 C 2.066,-0.837 1.99,-0.802 1.904,-0.885 1.882,-0.8 1.855,-0.889 1.611,-0.755 1.32,-0.597 1.565,-0.604 1.32,-0.359 1.076,-0.115 1.387,-0.082 1.043,0.064 0.7,0.209 0.356,0.209 0.237,0.209 c -0.073,0 -0.146,0.04 -0.191,0.018 0.021,0.068 0.048,0.143 0.093,0.24 0.251,0.541 0.323,0.191 0.726,0.356 0.231,0.095 0.385,0.348 0.477,0.548 0.076,0.008 0.161,0.033 0.236,0.033 0.133,0 0.33,0 0.41,-0.079 C 1.993,1.32 2.004,1.321 2.01,1.317 1.971,1.319 1.927,1.322 1.871,1.334 c -0.16,0.033 -0.389,0 -0.389,0 0,0 0.033,-0.033 0.106,-0.106 C 1.66,1.156 1.849,0.931 2.024,0.865 2.198,0.8 2.252,0.724 2.386,0.59 2.52,0.455 2.524,0.437 2.822,0.437 3.119,0.437 2.96,0.393 3.083,0.27 3.206,0.147 3.282,0.222 3.911,0.314 c 0.445,0.065 0.153,0.103 0.153,0.103 0,0 0.043,0.042 -0.045,0.042 -0.086,0 -0.188,0.036 -0.326,0.036 -0.138,0 -0.225,0.044 -0.407,0.073 C 3.105,0.597 3.139,0.675 2.944,0.761 2.749,0.847 2.81,0.89 2.702,1.021 2.594,1.153 2.608,1.132 2.529,1.21 2.475,1.265 2.389,1.295 2.308,1.31 2.363,1.318 2.414,1.325 2.45,1.325 2.569,1.325 2.589,1.186 2.648,1.127 2.708,1.068 2.794,0.982 2.853,0.922 2.913,0.863 2.985,0.79 3.071,0.704 c 0.086,-0.086 0.291,0 0.383,-0.092 0.093,-0.093 0.238,0 0.41,0 0.171,0 0.271,-0.046 0.383,0.066 0.112,0.112 0.224,0 0.356,0 0.132,0 0.225,0.357 0.225,0.357 0,0 0.055,0.106 0.094,0.242 0.037,-0.005 0.07,-0.008 0.095,-0.008 0.225,0 0.494,0.154 0.494,0.154 0,0 0.662,0.645 0.887,0.864 C 6.622,2.505 6.701,2.56 6.05,2.713"
           style="fill:#4c2a1f;fill-opacity:1;fill-rule:nonzero;stroke:none"
           id="path6349" />
      </g>
      <g
         id="g6351"
         transform="translate(262.2527,141.9416)">
        <path
           d="m 0,0 c 0.172,0.172 0.117,0.2 0.279,0.362 0.161,0.162 0.144,0.391 0.011,0.523 0,0 -0.343,0.026 -0.713,-0.291 C -0.793,0.277 -0.674,0.476 -0.898,0.251 -1.02,0.129 -1.043,0.038 -1.014,-0.045 -1.046,-0.059 -1.077,-0.073 -1.182,-0.178 -1.414,-0.409 -1.42,-0.297 -1.644,-0.522 c -0.225,-0.224 0.065,-0.198 0.065,-0.541 0,-0.344 0.132,-0.132 0.357,-0.225 0.224,-0.093 0.264,0 0.449,0.304 0.185,0.304 0.132,0.132 0.363,0.687 0.009,0.022 0.017,0.039 0.024,0.058 C -0.289,-0.213 -0.138,-0.138 0,0"
           style="fill:#4c2a1f;fill-opacity:1;fill-rule:nonzero;stroke:none"
           id="path6353" />
      </g>
      <g
         id="g6355"
         transform="translate(268.9671,146.7635)">
        <path
           d="M 0,0 C -0.035,0.005 -0.087,0.009 -0.163,0.009 -0.324,0.009 -1.302,0 -1.644,0 l -0.342,0 c 0,0 -0.169,-0.044 -0.203,-0.203 -0.005,-0.023 -0.011,-0.042 -0.017,-0.059 -0.187,-0.047 -0.5,-0.52 -0.414,-0.434 0.091,0.091 0.685,0.162 1.067,0.162 l 1.088,0 c 0.126,0 0.223,0.059 0.301,0.135 l 0.004,0 c 0.699,0 0.721,0.266 1.324,0.133 0.603,-0.132 0.773,-0.25 1.229,-0.132 0.457,0.117 0.074,0.426 0.883,0.154 0.81,-0.272 1.001,-0.353 1.251,-0.191 0.25,0.162 0.412,0.28 0.766,0.28 C 5.646,-0.155 6.184,0 6.184,0 L 0,0 Z"
           style="fill:#4c2a1f;fill-opacity:1;fill-rule:nonzero;stroke:none"
           id="path6357" />
      </g>
      <g
         id="g6359"
         transform="translate(265.3156,135.9456)">
        <path
           d="m 0,0 c -0.036,-0.102 0.012,-0.096 -0.145,-0.362 -0.156,-0.265 -0.156,-0.265 -0.253,-0.362 -0.096,-0.096 -0.06,-0.114 -0.208,-0.208 -0.148,-0.093 -0.256,-0.268 -0.323,-0.334 -0.066,-0.066 0.013,-0.097 -0.12,-0.229 -0.133,-0.133 -0.271,-0.272 -0.296,-0.296 -0.024,-0.024 0.019,-0.072 0.019,-0.072 0,0 0.042,0.121 0.265,0.211 0.223,0.09 0.259,0.223 0.455,0.323 0.196,0.099 0.217,0.138 0.395,0.316 0.178,0.178 0.181,0.205 0.217,0.32 0.036,0.114 -0.018,0.084 0.078,0.331 0.097,0.247 0.169,0.338 0.169,0.398 C 0.253,0.096 0.036,0.103 0,0"
           style="fill:#4c2a1f;fill-opacity:1;fill-rule:nonzero;stroke:none"
           id="path6361" />
      </g>
      <path
         d="m 251.261,142.597 2.712,0 0,2.806 -2.712,0 0,-2.806 z"
         style="fill:#c86606;fill-opacity:1;fill-rule:nonzero;stroke:none"
         id="path6363" />
      <path
         d="m 251.338,142.674 2.557,0 0,2.652 -2.557,0 0,-2.652 z m 2.712,-0.155 -2.866,0 0,2.961 2.866,0 0,-2.961 z"
         style="fill:#1d1d1b;fill-opacity:1;fill-rule:nonzero;stroke:none"
         id="path6365" />
      <g
         id="g6367"
         transform="translate(251.6646,142.7702)">
        <path
           d="m 0,0 1.951,-0.036 0,-0.885 -1.797,0 L 0,0 Z"
           style="fill:#c86606;fill-opacity:1;fill-rule:nonzero;stroke:none"
           id="path6369" />
      </g>
      <g
         id="g6371"
         transform="translate(251.8843,141.9267)">
        <path
           d="m 0,0 1.654,0 0,0.732 L -0.128,0.765 0,0 Z m 1.809,-0.155 -1.939,0 -0.181,1.078 2.12,-0.04 0,-1.038 z"
           style="fill:#1d1d1b;fill-opacity:1;fill-rule:nonzero;stroke:none"
           id="path6373" />
      </g>
      <g
         id="g6375"
         transform="translate(254.2496,142.7212)">
        <path
           d="M 0,0 C 0,0 -0.462,0.423 -0.753,0.211 -1.044,0 -0.733,-0.244 -1.242,-0.476 -1.75,-0.707 -2.16,-0.178 -2.404,0.066 -2.648,0.31 -3.052,0.238 -3.052,0.238 l 0,-3.184 c 0,0 2.008,0.806 2.88,0.846 l 0.132,0 L 0,0 Z"
           style="fill:#c86606;fill-opacity:1;fill-rule:nonzero;stroke:none"
           id="path6377" />
      </g>
      <g
         id="g6379"
         transform="translate(251.2753,142.8898)">
        <path
           d="m 0,0 0,-3.001 c 0.43,0.168 2.029,0.774 2.799,0.809 l 0.06,0 0.037,1.989 C 2.822,-0.142 2.603,0.025 2.411,0.025 2.355,0.025 2.308,0.01 2.267,-0.02 2.169,-0.091 2.158,-0.159 2.144,-0.253 2.122,-0.392 2.095,-0.564 1.765,-0.714 1.671,-0.757 1.575,-0.778 1.478,-0.778 c -0.371,0 -0.662,0.306 -0.875,0.53 -0.031,0.033 -0.06,0.064 -0.087,0.091 C 0.361,-0.003 0.121,0.008 0,0 m -0.155,-3.229 0,3.363 0.064,0.011 c 0.003,0.001 0.064,0.011 0.152,0.011 0.164,0 0.395,-0.035 0.564,-0.204 0.028,-0.028 0.058,-0.06 0.09,-0.094 0.194,-0.203 0.459,-0.482 0.763,-0.482 0.075,0 0.149,0.017 0.223,0.05 0.254,0.116 0.271,0.222 0.29,0.345 0.016,0.1 0.036,0.225 0.185,0.334 0.068,0.049 0.147,0.074 0.235,0.074 0.294,0 0.603,-0.279 0.615,-0.291 l 0.026,-0.023 -0.042,-2.211 -0.208,0 c -0.845,-0.039 -2.831,-0.832 -2.851,-0.84 l -0.106,-0.043 z"
           style="fill:#1d1d1b;fill-opacity:1;fill-rule:nonzero;stroke:none"
           id="path6381" />
      </g>
      <g
         id="g6383"
         transform="translate(265.6103,160.2046)">
        <path
           d="m 0,0 c 0,-0.412 -0.335,-0.746 -0.746,-0.746 -0.412,0 -0.747,0.334 -0.747,0.746 0,0.412 0.335,0.747 0.747,0.747 C -0.335,0.747 0,0.412 0,0"
           style="fill:#c39400;fill-opacity:1;fill-rule:nonzero;stroke:none"
           id="path6385" />
      </g>
      <g
         id="g6387"
         transform="translate(264.8641,160.8738)">
        <path
           d="m 0,0 c -0.369,0 -0.669,-0.3 -0.669,-0.669 0,-0.369 0.3,-0.669 0.669,-0.669 0.369,0 0.669,0.3 0.669,0.669 C 0.669,-0.3 0.369,0 0,0 m 0,-1.493 c -0.454,0 -0.824,0.37 -0.824,0.824 0,0.454 0.37,0.824 0.824,0.824 0.454,0 0.823,-0.37 0.823,-0.824 0,-0.454 -0.369,-0.824 -0.823,-0.824"
           style="fill:#1d1d1b;fill-opacity:1;fill-rule:nonzero;stroke:none"
           id="path6389" />
      </g>
      <g
         id="g6391"
         transform="translate(266.0858,158.3751)">
        <path
           d="m 0,0 0,1.929 -2.444,0 0,-2.074 2.457,0 L 0,0 Z"
           style="fill:#c39400;fill-opacity:1;fill-rule:nonzero;stroke:none"
           id="path6393" />
      </g>
      <g
         id="g6395"
         transform="translate(263.7193,158.3071)">
        <path
           d="M 0,0 2.295,0 2.29,0.061 2.289,1.919 0,1.919 0,0 Z m 2.464,-0.154 -2.618,0 0,2.228 2.598,0 0,-2.006 0.02,-0.222 z"
           style="fill:#1d1d1b;fill-opacity:1;fill-rule:nonzero;stroke:none"
           id="path6397" />
      </g>
      <path
         d="m 265.201,153.804 4.019,0 0,4.65 -4.019,0 0,-4.65 z"
         style="fill:#c39400;fill-opacity:1;fill-rule:nonzero;stroke:none"
         id="path6399" />
      <path
         d="m 265.278,153.882 3.864,0 0,4.496 -3.864,0 0,-4.496 z m 4.019,-0.155 -4.173,0 0,4.805 4.173,0 0,-4.805 z"
         style="fill:#1d1d1b;fill-opacity:1;fill-rule:nonzero;stroke:none"
         id="path6401" />
      <path
         d="m 267.526,152.193 -5.244,0 0,7.067 5.244,0 0,-7.067 z"
         style="fill:#c39400;fill-opacity:1;fill-rule:nonzero;stroke:none"
         id="path6403" />
      <path
         d="m 262.359,152.27 5.09,0 0,6.913 -5.09,0 0,-6.913 z m 5.244,-0.154 -5.399,0 0,7.222 5.399,0 0,-7.222 z"
         style="fill:#1d1d1b;fill-opacity:1;fill-rule:nonzero;stroke:none"
         id="path6405" />
      <g
         id="g6407"
         transform="translate(244.7946,140.4412)">
        <path
           d="M 0,0 0,1.516 -1.634,2.818 -3.15,1.61 l 0,-1.468 -2.96,0 -2.795,-1.35 0,-1.776 2.487,-2.487 4.405,1.586 L 0,0 Z"
           style="fill:#c86606;fill-opacity:1;fill-rule:nonzero;stroke:none"
           id="path6409" />
      </g>
      <g
         id="g6411"
         transform="translate(235.9667,137.4891)">
        <path
           d="m 0,0 2.429,-2.43 4.332,1.56 1.99,3.841 0,1.46 -1.557,1.241 -1.439,-1.147 0,-1.508 -3.02,0 L 0,1.696 0,0 Z m 2.389,-2.608 -0.034,0.034 -2.51,2.51 0,1.857 2.873,1.378 2.883,0 0,1.429 L 7.194,5.869 8.905,4.505 8.897,2.917 6.87,-0.995 6.841,-1.005 2.389,-2.608 Z"
           style="fill:#1d1d1b;fill-opacity:1;fill-rule:nonzero;stroke:none"
           id="path6413" />
      </g>
      <path
         d="m 235.558,136.865 4.382,0 0,2.416 -4.382,0 0,-2.416 z"
         style="fill:#c86606;fill-opacity:1;fill-rule:nonzero;stroke:none"
         id="path6415" />
      <path
         d="m 235.635,136.942 4.227,0 0,2.261 -4.227,0 0,-2.261 z m 4.382,-0.155 -4.536,0 0,2.57 4.536,0 0,-2.57 z"
         style="fill:#1d1d1b;fill-opacity:1;fill-rule:nonzero;stroke:none"
         id="path6417" />
      <g
         id="g6419"
         transform="translate(236.5524,138.0489)">
        <path
           d="M 0,0 2.842,0 3.245,-0.805 0.734,-1.16 -0.734,-0.805 0,0 Z"
           style="fill:#c86606;fill-opacity:1;fill-rule:nonzero;stroke:none"
           id="path6421" />
      </g>
      <g
         id="g6423"
         transform="translate(235.9629,137.2879)">
        <path
           d="m 0,0 1.328,-0.321 2.39,0.338 -0.334,0.667 -2.761,0 L 0,0 Z m 1.32,-0.478 -0.014,0.004 -1.595,0.385 0.844,0.927 2.925,0 0.471,-0.944 -2.631,-0.372 z"
           style="fill:#1d1d1b;fill-opacity:1;fill-rule:nonzero;stroke:none"
           id="path6425" />
      </g>
      <path
         d="m 235.061,134.022 4.998,0 0,3.221 -4.998,0 0,-3.221 z"
         style="fill:#c86606;fill-opacity:1;fill-rule:nonzero;stroke:none"
         id="path6427" />
      <path
         d="m 235.138,134.1 4.843,0 0,3.067 -4.843,0 0,-3.067 z m 4.998,-0.155 -5.152,0 0,3.376 5.152,0 0,-3.376 z"
         style="fill:#1d1d1b;fill-opacity:1;fill-rule:nonzero;stroke:none"
         id="path6429" />
      <g
         id="g6431"
         transform="translate(264.2364,152.7873)">
        <path
           d="m 0,0 -2.999,0 0,-1.585 -1.439,0 0,-0.951 c 0,0 -1.288,-0.601 -1.533,-0.846 -0.244,-0.244 -1.598,-0.898 -1.598,-1.427 l 0,-0.911 -1.572,0 0,-0.859 c 0,0 -0.978,-0.343 -1.123,-0.805 -0.146,-0.463 -0.37,-1.982 -0.37,-2.048 0,-0.066 2.642,-0.581 2.642,-0.581 l 1.162,0.792 c 0,0 1.507,1.903 2.002,2.002 0.495,0.099 1.156,0.204 1.275,0.997 0.119,0.793 1.202,1.361 1.532,1.691 0.33,0.33 0.661,0.911 1.281,1.532 0.621,0.621 0.872,0.819 1.176,1.123 0.304,0.304 0.978,1.057 0.74,1.295 C 0.938,-0.343 0,0 0,0"
           style="fill:#4c2a1f;fill-opacity:1;fill-rule:nonzero;stroke:none"
           id="path6433" />
      </g>
      <g
         id="g6435"
         transform="translate(253.6844,143.4007)">
        <path
           d="m 0,0 c 0.262,-0.086 1.651,-0.37 2.543,-0.545 l 1.126,0.768 c 0.187,0.236 1.538,1.92 2.04,2.02 l 0.048,0.01 c 0.496,0.098 1.058,0.21 1.165,0.923 0.093,0.621 0.727,1.095 1.19,1.441 0.152,0.114 0.284,0.213 0.364,0.293 0.136,0.136 0.274,0.318 0.433,0.528 0.217,0.286 0.486,0.642 0.849,1.004 0.365,0.366 0.606,0.588 0.799,0.766 0.136,0.126 0.252,0.233 0.376,0.357 0.082,0.082 0.363,0.369 0.564,0.662 0.179,0.259 0.245,0.455 0.176,0.524 -0.182,0.182 -0.869,0.46 -1.135,0.558 l -2.908,0 0,-1.585 -1.439,0 0,-0.923 L 6.146,6.78 C 5.791,6.615 4.828,6.143 4.636,5.95 4.559,5.874 4.397,5.77 4.192,5.638 3.741,5.349 3.06,4.912 3.06,4.578 l 0,-0.989 -1.572,0 0,-0.836 L 1.436,2.735 C 1.175,2.643 0.471,2.328 0.361,1.979 0.229,1.559 0.034,0.271 0,0 m 2.577,-0.709 -0.032,0.007 c -2.704,0.527 -2.704,0.576 -2.704,0.657 0,0.08 0.227,1.605 0.373,2.07 0.137,0.435 0.909,0.756 1.12,0.837 l 0,0.882 1.572,0 0,0.834 c 0,0.418 0.695,0.864 1.203,1.19 0.189,0.122 0.353,0.227 0.417,0.291 0.228,0.228 1.277,0.73 1.51,0.84 l 0,0.98 1.44,0 0,1.585 3.102,-0.005 C 10.618,9.445 11.535,9.107 11.782,8.86 11.918,8.725 11.866,8.489 11.624,8.139 11.415,7.836 11.126,7.54 11.043,7.456 10.916,7.33 10.8,7.222 10.662,7.095 10.469,6.918 10.231,6.697 9.867,6.333 9.512,5.978 9.257,5.642 9.032,5.345 8.869,5.13 8.728,4.944 8.586,4.801 8.497,4.713 8.361,4.611 8.205,4.494 7.763,4.164 7.159,3.712 7.075,3.153 6.952,2.332 6.279,2.199 5.787,2.101 L 5.739,2.092 C 5.355,2.015 4.197,0.641 3.783,0.118 L 3.766,0.102 2.577,-0.709 Z"
           style="fill:#1d1d1b;fill-opacity:1;fill-rule:nonzero;stroke:none"
           id="path6437" />
      </g>
      <g
         id="g6439"
         transform="translate(267.9798,152.0528)">
        <path
           d="m 0,0 -3.994,0 c 0,0 -0.213,-0.57 -0.362,-0.72 -0.149,-0.149 -0.679,-0.459 -0.679,-0.679 0,-0.22 -0.18,-0.399 -0.38,-0.599 -0.2,-0.2 -0.849,-0.769 -1.019,-0.939 -0.17,-0.17 -0.01,-0.77 -0.26,-1.019 -0.249,-0.25 -1.299,-1.08 -1.299,-1.08 -0.139,-0.439 -0.219,-0.939 -0.859,-0.939 -0.639,0 -1.227,0.036 -1.358,-0.094 -0.129,-0.13 -0.16,-0.065 -0.4,-0.305 -0.24,-0.24 -0.579,-0.38 -0.579,-0.86 0,-0.479 -0.261,-0.899 -0.42,-0.899 -0.16,0 -0.799,-1.199 -0.26,-1.559 0.54,-0.36 1.698,-0.04 1.698,-0.04 0,0 2.458,0.62 2.738,1.439 0.28,0.819 0.499,1.039 1.059,1.379 0.56,0.339 2.597,2.278 2.597,2.378 0,0.1 0.34,0.439 0.679,0.779 0.34,0.339 1.189,1.148 1.539,1.498 0.35,0.35 1.059,0.999 1.299,1.239 0.24,0.24 0.919,0.864 0.919,0.939 C 0.659,-0.005 0,0 0,0"
           style="fill:#c86606;fill-opacity:1;fill-rule:nonzero;stroke:none"
           id="path6441" />
      </g>
      <g
         id="g6443"
         transform="translate(258.4844,146.0055)">
        <path
           d="m 0,0 c -0.159,0 -0.584,0 -0.66,-0.076 -0.063,-0.063 -0.109,-0.088 -0.153,-0.112 -0.055,-0.03 -0.117,-0.063 -0.247,-0.194 -0.056,-0.056 -0.118,-0.107 -0.179,-0.158 -0.203,-0.167 -0.378,-0.312 -0.378,-0.646 0,-0.517 -0.278,-0.977 -0.497,-0.977 -0.07,-0.034 -0.353,-0.497 -0.391,-0.927 -0.02,-0.234 0.039,-0.399 0.175,-0.49 0.157,-0.105 0.392,-0.158 0.697,-0.158 0.467,0 0.932,0.127 0.937,0.128 0.026,0.007 2.422,0.619 2.685,1.389 0.282,0.825 0.509,1.067 1.092,1.42 0.551,0.334 2.441,2.143 2.562,2.331 0.02,0.123 0.225,0.339 0.693,0.807 0.178,0.179 0.478,0.468 0.778,0.758 0.297,0.287 0.594,0.574 0.768,0.748 0.193,0.193 0.496,0.478 0.764,0.73 0.223,0.21 0.427,0.401 0.535,0.509 0.064,0.064 0.159,0.155 0.264,0.256 0.191,0.183 0.49,0.47 0.598,0.596 C 9.932,5.955 9.697,5.969 9.495,5.97 l -3.941,0 C 5.496,5.82 5.329,5.408 5.194,5.273 5.147,5.226 5.07,5.168 4.982,5.102 4.815,4.976 4.537,4.766 4.537,4.648 4.537,4.396 4.342,4.201 4.135,3.995 4.03,3.89 3.806,3.688 3.59,3.492 3.388,3.309 3.197,3.136 3.116,3.056 3.06,3 3.051,2.839 3.042,2.684 3.029,2.454 3.014,2.194 2.856,2.036 2.622,1.802 1.716,1.082 1.569,0.966 1.558,0.93 1.547,0.894 1.536,0.857 1.415,0.454 1.277,-0.005 0.644,-0.005 0.526,-0.005 0.41,-0.003 0.298,-0.002 0.194,-0.001 0.094,0 0,0 m -1.633,-3.892 0,0 c -0.337,0 -0.6,0.061 -0.783,0.183 -0.251,0.168 -0.313,0.509 -0.176,0.961 0.091,0.302 0.314,0.739 0.478,0.739 0.083,0 0.343,0.342 0.343,0.823 0,0.407 0.23,0.597 0.433,0.765 0.058,0.048 0.116,0.096 0.169,0.149 0.146,0.146 0.222,0.187 0.283,0.22 0.04,0.022 0.07,0.038 0.117,0.085 C -0.667,0.135 -0.41,0.155 0,0.155 0.095,0.155 0.195,0.153 0.299,0.152 0.411,0.151 0.526,0.15 0.644,0.15 c 0.519,0 0.623,0.348 0.744,0.752 0.014,0.045 0.027,0.089 0.041,0.133 L 1.436,1.058 1.455,1.072 C 1.466,1.081 2.503,1.902 2.747,2.146 2.863,2.262 2.876,2.491 2.888,2.693 2.9,2.894 2.91,3.067 3.007,3.165 3.09,3.248 3.283,3.422 3.486,3.606 c 0.215,0.195 0.438,0.396 0.54,0.498 0.191,0.191 0.357,0.357 0.357,0.544 0,0.195 0.269,0.398 0.506,0.577 0.08,0.06 0.156,0.118 0.196,0.157 0.113,0.113 0.286,0.538 0.344,0.692 l 0.018,0.051 4.048,0 c 0.737,-0.006 0.737,-0.091 0.737,-0.159 0,-0.069 -0.085,-0.169 -0.68,-0.74 C 9.448,5.127 9.353,5.036 9.29,4.973 9.181,4.864 8.976,4.671 8.752,4.461 8.485,4.209 8.182,3.925 7.991,3.734 7.817,3.56 7.518,3.271 7.221,2.984 6.922,2.695 6.623,2.406 6.452,2.235 6.179,1.961 5.814,1.596 5.796,1.507 5.796,1.323 3.605,-0.664 3.161,-0.933 2.606,-1.27 2.404,-1.486 2.135,-2.271 1.845,-3.12 -0.554,-3.733 -0.656,-3.759 -0.674,-3.764 -1.145,-3.892 -1.633,-3.892"
           style="fill:#1d1d1b;fill-opacity:1;fill-rule:nonzero;stroke:none"
           id="path6445" />
      </g>
      <g
         id="g6447"
         transform="translate(267.4409,152.0524)">
        <path
           d="m 0,0 -1.339,-1.539 -1.398,0 0,-1.598 -1.239,0 0,-1.299 -1.858,0 0,-1.258 -1.559,-1.179 -0.959,0 0,-1.279 -1.139,-1.219 0,-1.699 2.077,0 c 0,0 0.28,0.939 0.859,1.119 0.58,0.18 -0.139,0.64 0.4,0.959 0.539,0.32 0.74,0.3 0.879,0.66 0.141,0.359 0.58,1.239 0.959,1.398 0.38,0.16 0.73,0.51 0.84,0.62 0.11,0.109 0.599,0.859 1.239,0.859 0.639,0 2.258,0.16 2.258,0.16 l 2.157,1.539 0,2.697 -0.12,1.119 -1.038,0.3 -0.934,0 L 0,0 Z"
           style="fill:#4c2a1f;fill-opacity:1;fill-rule:nonzero;stroke:none"
           id="path6449" />
      </g>
      <g
         id="g6451"
         transform="translate(258.027,141.06)">
        <path
           d="m 0,0 1.944,0 c 0.072,0.211 0.358,0.949 0.892,1.115 0.223,0.07 0.203,0.159 0.162,0.339 -0.04,0.18 -0.095,0.426 0.222,0.613 0.16,0.095 0.292,0.161 0.398,0.215 0.255,0.127 0.36,0.18 0.448,0.406 0.124,0.317 0.573,1.262 1.002,1.442 0.243,0.102 0.517,0.305 0.814,0.603 0.016,0.015 0.04,0.045 0.071,0.084 0.193,0.239 0.644,0.798 1.223,0.798 0.589,0 2.04,0.139 2.23,0.157 l 2.108,1.504 0,2.658 -0.114,1.059 -0.978,0.282 -0.862,0 -0.088,-0.333 -1.362,-1.565 -1.356,0 0,-1.599 -1.239,0 0,-1.298 -1.858,0 0,-1.22 -1.61,-1.218 -0.908,0 0,-1.232 L 0,1.591 0,0 Z m 2.058,-0.154 -2.213,0 0,1.806 1.14,1.219 0,1.325 1.01,0 1.507,1.141 0,1.297 1.858,0 0,1.299 1.239,0 0,1.598 1.441,0 1.303,1.498 0.095,0.401 1.016,-0.003 1.089,-0.314 L 11.668,9.942 11.669,7.196 9.461,5.622 9.441,5.62 C 9.375,5.614 7.811,5.46 7.176,5.46 6.671,5.46 6.252,4.942 6.073,4.72 6.037,4.675 6.01,4.641 5.992,4.624 5.875,4.507 5.522,4.154 5.127,3.988 4.78,3.841 4.352,2.996 4.21,2.632 4.101,2.35 3.945,2.272 3.687,2.143 3.583,2.091 3.454,2.027 3.298,1.935 3.078,1.804 3.109,1.664 3.149,1.488 3.188,1.316 3.241,1.079 2.882,0.968 2.348,0.802 2.077,-0.09 2.074,-0.099 L 2.058,-0.154 Z"
           style="fill:#1d1d1b;fill-opacity:1;fill-rule:nonzero;stroke:none"
           id="path6453" />
      </g>
      <g
         id="g6455"
         transform="translate(279.4678,158.078)">
        <path
           d="m 0,0 c 0,-0.412 -0.335,-0.747 -0.746,-0.747 -0.412,0 -0.747,0.335 -0.747,0.747 0,0.412 0.335,0.746 0.747,0.746 C -0.335,0.746 0,0.412 0,0"
           style="fill:#c39400;fill-opacity:1;fill-rule:nonzero;stroke:none"
           id="path6457" />
      </g>
      <g
         id="g6459"
         transform="translate(278.7213,158.747)">
        <path
           d="m 0,0 c -0.369,0 -0.669,-0.3 -0.669,-0.669 0,-0.369 0.3,-0.669 0.669,-0.669 0.369,0 0.669,0.3 0.669,0.669 C 0.669,-0.3 0.369,0 0,0 m 0,-1.493 c -0.454,0 -0.824,0.37 -0.824,0.824 0,0.454 0.37,0.824 0.824,0.824 0.454,0 0.824,-0.37 0.824,-0.824 0,-0.454 -0.37,-0.824 -0.824,-0.824"
           style="fill:#1d1d1b;fill-opacity:1;fill-rule:nonzero;stroke:none"
           id="path6461" />
      </g>
      <g
         id="g6463"
         transform="translate(279.9434,156.2483)">
        <path
           d="m 0,0 0,1.929 -2.444,0 0,-2.074 2.457,0 L 0,0 Z"
           style="fill:#c39400;fill-opacity:1;fill-rule:nonzero;stroke:none"
           id="path6465" />
      </g>
      <g
         id="g6467"
         transform="translate(277.5765,156.1802)">
        <path
           d="M 0,0 2.295,0 2.29,0.061 2.29,1.919 0,1.919 0,0 Z m 2.464,-0.154 -2.619,0 0,2.228 2.599,0 0,-2.006 0.02,-0.222 z"
           style="fill:#1d1d1b;fill-opacity:1;fill-rule:nonzero;stroke:none"
           id="path6469" />
      </g>
      <g
         id="g6471"
         transform="translate(248.4397,147.3559)">
        <path
           d="m 0,0 c 0,-0.412 -0.334,-0.746 -0.746,-0.746 -0.412,0 -0.747,0.334 -0.747,0.746 0,0.412 0.335,0.746 0.747,0.746 C -0.334,0.746 0,0.412 0,0"
           style="fill:#c86606;fill-opacity:1;fill-rule:nonzero;stroke:none"
           id="path6473" />
      </g>
      <g
         id="g6475"
         transform="translate(247.6936,148.0249)">
        <path
           d="m 0,0 c -0.369,0 -0.669,-0.3 -0.669,-0.669 0,-0.369 0.3,-0.669 0.669,-0.669 0.369,0 0.669,0.3 0.669,0.669 C 0.669,-0.3 0.369,0 0,0 m 0,-1.493 c -0.454,0 -0.824,0.37 -0.824,0.824 0,0.454 0.37,0.823 0.824,0.823 0.454,0 0.823,-0.369 0.823,-0.823 0,-0.454 -0.369,-0.824 -0.823,-0.824"
           style="fill:#1d1d1b;fill-opacity:1;fill-rule:nonzero;stroke:none"
           id="path6477" />
      </g>
      <g
         id="g6479"
         transform="translate(248.9153,145.5262)">
        <path
           d="m 0,0 0,1.929 -2.444,0 0,-2.074 2.457,0 L 0,0 Z"
           style="fill:#c86606;fill-opacity:1;fill-rule:nonzero;stroke:none"
           id="path6481" />
      </g>
      <g
         id="g6483"
         transform="translate(246.5488,145.4581)">
        <path
           d="M 0,0 2.295,0 2.29,0.061 2.289,1.92 0,1.92 0,0 Z m 2.464,-0.154 -2.619,0 0,2.228 2.599,0 0,-2.006 0.02,-0.222 z"
           style="fill:#1d1d1b;fill-opacity:1;fill-rule:nonzero;stroke:none"
           id="path6485" />
      </g>
      <g
         id="g6487"
         transform="translate(281.3565,154.346)">
        <path
           d="m 0,0 0,2.906 -1.427,0 0,-0.845 -0.383,0 0,0.845 -1.109,0 0,-0.845 -0.489,0 0,0.845 -1.083,0 0,-0.845 -0.542,0 0,0.845 -1.36,0 0,-0.845 -0.449,0 0,0.845 -1.52,0 0,-0.845 -0.475,0 0,0.845 -1.229,0 0,-0.845 -0.449,0 0,0.845 -1.981,0 0,-4.848 11.083,0 L 0,0 Z"
           style="fill:#c39400;fill-opacity:1;fill-rule:nonzero;stroke:none"
           id="path6489" />
      </g>
      <g
         id="g6491"
         transform="translate(268.9373,152.4813)">
        <path
           d="m 0,0 10.967,0 1.375,1.89 0,2.804 -1.272,0 0,-0.846 -0.538,0 0,0.846 -0.955,0 0,-0.846 -0.643,0 0,0.846 -0.929,0 0,-0.846 -0.696,0 0,0.846 -1.206,0 0,-0.846 -0.604,0 0,0.846 -1.364,0 0,-0.846 -0.631,0 0,0.846 -1.073,0 0,-0.846 -0.604,0 0,0.846 L 0,4.694 0,0 Z m 11.045,-0.155 -11.2,0 0,5.003 2.136,0 0,-0.845 0.295,0 0,0.845 1.383,0 0,-0.845 0.321,0 0,0.845 1.674,0 0,-0.845 0.295,0 0,0.845 1.514,0 0,-0.845 0.388,0 0,0.845 1.237,0 0,-0.845 0.335,0 0,0.845 1.264,0 0,-0.845 0.228,0 0,0.845 1.581,0 0,-3.008 -1.451,-1.995 z"
           style="fill:#1d1d1b;fill-opacity:1;fill-rule:nonzero;stroke:none"
           id="path6493" />
      </g>
      <g
         id="g6495"
         transform="translate(268.5428,155.5585)">
        <path
           d="m 0,0 0,-0.684 -0.607,0 0,0.684 -1.031,0 0,-0.644 -0.33,0 -0.33,0 0,0.644 -1.031,0 0,-0.684 -0.607,0 0,0.684 -1.427,-0.01 0,-1.414 0.806,-0.806 0,-1.281 2.589,0 2.589,0 0,1.281 0.806,0.806 0,1.414 L 0,0 Z"
           style="fill:#c39400;fill-opacity:1;fill-rule:nonzero;stroke:none"
           id="path6497" />
      </g>
      <g
         id="g6499"
         transform="translate(264.0627,152.1248)">
        <path
           d="m 0,0 5.024,0 0,1.236 0.806,0.806 0,1.305 -1.273,0.009 0,-0.684 -0.762,0 0,0.684 -0.875,0 0,-0.644 -0.815,0 0,0.644 -0.877,0 0,-0.684 -0.761,0 0,0.684 -1.273,-0.009 0,-1.305 L 0,1.236 0,0 Z m 5.178,-0.154 -5.333,0 0,1.326 -0.805,0.806 0,1.522 1.581,0.011 0,-0.684 0.453,0 0,0.684 1.185,0 0,-0.644 0.506,0 0,0.644 1.185,0 0,-0.684 0.453,0 0,0.684 1.581,-0.011 0,-1.522 -0.806,-0.806 0,-1.326 z"
           style="fill:#1d1d1b;fill-opacity:1;fill-rule:nonzero;stroke:none"
           id="path6501" />
      </g>
      <g
         id="g6503"
         transform="translate(278.8204,153.4345)">
        <path
           d="m 0,0 -2.008,0 0,-0.832 -0.515,0 0,0.779 -1.281,0 0,-0.792 -0.595,0 0,0.766 -1.374,0 0,-0.766 -0.819,0 0,0.739 -1.413,0 0,-0.726 -0.687,0 0,0.739 -1.149,0 0,-3.976 10.171,0 L 0,0 Z"
           style="fill:#c86606;fill-opacity:1;fill-rule:nonzero;stroke:none"
           id="path6505" />
      </g>
      <g
         id="g6507"
         transform="translate(269.0564,149.4431)">
        <path
           d="m 0,0 10.01,0 -0.317,3.914 -1.859,0 0,-0.832 -0.67,0 0,0.779 -1.127,0 0,-0.792 -0.749,0 0,0.766 -1.22,0 0,-0.766 -0.973,0 0,0.739 -1.259,0 0,-0.726 -0.842,0 0,0.74 L 0,3.822 0,0 Z m 10.178,-0.155 -10.333,0 0,4.131 1.304,0 0,-0.74 0.532,0 0,0.727 1.568,0 0,-0.74 0.665,0 0,0.766 1.528,0 0,-0.766 0.44,0 0,0.793 1.436,0 0,-0.78 0.361,0 0,0.833 2.156,0 0.343,-4.224 z"
           style="fill:#1d1d1b;fill-opacity:1;fill-rule:nonzero;stroke:none"
           id="path6509" />
      </g>
      <g
         id="g6511"
         transform="translate(285.8784,150.2923)">
        <path
           d="m 0,0 0,-2.78 -0.505,0 -6.935,0 0,8.046 1.331,0 0,-0.881 0.581,0 0,0.881 1.462,0 0,-0.806 0.487,0 0,0.806 1.312,0 0,-0.806 0.618,0 0,0.806 L 0,5.266 0,0.58 0,0 Z"
           style="fill:#c86606;fill-opacity:1;fill-rule:nonzero;stroke:none"
           id="path6513" />
      </g>
      <g
         id="g6515"
         transform="translate(278.5156,147.5891)">
        <path
           d="m 0,0 7.286,0 0,7.892 -1.495,0 0,-0.806 -0.773,0 0,0.806 -1.157,0 0,-0.806 -0.642,0 0,0.806 -1.307,0 0,-0.881 -0.736,0 0,0.881 L 0,7.892 0,0 Z m 7.44,-0.154 -7.595,0 0,8.201 1.486,0 0,-0.881 0.427,0 0,0.881 1.616,0 0,-0.806 0.332,0 0,0.806 1.467,0 0,-0.806 0.464,0 0,0.806 1.803,0 0,-8.201 z"
           style="fill:#1d1d1b;fill-opacity:1;fill-rule:nonzero;stroke:none"
           id="path6517" />
      </g>
      <g
         id="g6519"
         transform="translate(286.0239,150.1717)">
        <path
           d="m 0,0 0,0.581 -1.444,0 0,-0.911 -0.792,0 0,0.911 -1.639,0 0,-0.898 -0.607,0 0,0.898 -1.612,0 0,-0.872 -0.621,0 0,0.872 -1.545,0 0,-0.885 -0.608,0 0,0.885 -1.585,0 0,-0.885 -0.555,0 0,0.885 -1.546,0 0,-0.911 -0.673,0 0,0.911 -1.533,0 0,-0.951 -0.687,0 0,0.951 -1.519,0 0,-0.898 -0.594,0 0,0.898 -1.097,0 0,-3.989 10.727,0 7.86,0 L 0,0 Z"
           style="fill:#c39400;fill-opacity:1;fill-rule:nonzero;stroke:none"
           id="path6521" />
      </g>
      <g
         id="g6523"
         transform="translate(267.4443,146.8407)">
        <path
           d="m 0,0 18.434,0 0.068,3.332 0,0.503 -1.289,0 0,-0.912 -0.947,0 0,0.912 -1.484,0 0,-0.898 -0.762,0 0,0.898 -1.457,0 0,-0.872 -0.775,0 0,0.872 -1.391,0 0,-0.885 -0.763,0 0,0.885 -1.43,0 0,-0.885 -0.71,0 0,0.885 -1.391,0 0,-0.912 -0.828,0 0,0.912 -1.378,0 0,-0.951 -0.841,0 0,0.951 -1.365,0 0,-0.898 -0.749,0 0,0.898 L 0,3.835 0,0 Z m 18.585,-0.155 -18.74,0 0,4.144 1.252,0 0,-0.898 0.44,0 0,0.898 1.673,0 0,-0.951 0.533,0 0,0.951 1.686,0 0,-0.911 0.52,0 0,0.911 1.7,0 0,-0.885 0.4,0 0,0.885 1.74,0 0,-0.885 0.453,0 0,0.885 1.7,0 0,-0.871 0.466,0 0,0.871 1.767,0 0,-0.898 0.453,0 0,0.898 1.792,0 0,-0.911 0.638,0 0,0.911 1.599,0 0,-0.658 -0.072,-3.486 z"
           style="fill:#1d1d1b;fill-opacity:1;fill-rule:nonzero;stroke:none"
           id="path6525" />
      </g>
      <g
         id="g6527"
         transform="translate(255.2671,145.5746)">
        <path
           d="m 0,0 -1.149,0 -1.255,-1.176 1.228,0 L 0,0 Z"
           style="fill:#c86606;fill-opacity:1;fill-rule:nonzero;stroke:none"
           id="path6529" />
      </g>
      <g
         id="g6531"
         transform="translate(253.0581,144.4761)">
        <path
           d="M 0,0 1.001,0 2.023,1.021 1.09,1.021 0,0 Z m 1.065,-0.154 -1.455,0 1.419,1.33 1.366,0 -1.33,-1.33 z"
           style="fill:#1d1d1b;fill-opacity:1;fill-rule:nonzero;stroke:none"
           id="path6533" />
      </g>
      <g
         id="g6535"
         transform="translate(256.3633,142.8401)">
        <path
           d="m 0,0 0,1.638 -1.096,1.096 -1.176,-1.175 0,-1.691 2.272,0 L 0,0 Z"
           style="fill:#c39400;fill-opacity:1;fill-rule:nonzero;stroke:none"
           id="path6537" />
      </g>
      <g
         id="g6539"
         transform="translate(254.1686,142.7853)">
        <path
           d="m 0,0 2.117,0 0,1.661 L 1.098,2.68 0,1.582 0,0 Z m 2.272,-0.154 -2.427,0 0,1.8 1.253,1.252 1.174,-1.173 0,-1.879 z"
           style="fill:#1d1d1b;fill-opacity:1;fill-rule:nonzero;stroke:none"
           id="path6541" />
      </g>
      <path
         d="m 252.863,142.734 1.228,0 0,1.664 -1.228,0 0,-1.664 z"
         style="fill:#c86606;fill-opacity:1;fill-rule:nonzero;stroke:none"
         id="path6543" />
      <path
         d="m 252.94,142.812 1.074,0 0,1.51 -1.074,0 0,-1.51 z m 1.229,-0.155 -1.383,0 0,1.819 1.383,0 0,-1.819 z"
         style="fill:#1d1d1b;fill-opacity:1;fill-rule:nonzero;stroke:none"
         id="path6545" />
      <path
         d="m 254.025,140.7 3.976,0 0,2.114 -3.976,0 0,-2.114 z"
         style="fill:#c39400;fill-opacity:1;fill-rule:nonzero;stroke:none"
         id="path6547" />
      <path
         d="m 254.102,140.777 3.822,0 0,1.959 -3.822,0 0,-1.959 z m 3.977,-0.154 -4.131,0 0,2.268 4.131,0 0,-2.268 z"
         style="fill:#1d1d1b;fill-opacity:1;fill-rule:nonzero;stroke:none"
         id="path6549" />
      <g
         id="g6551"
         transform="translate(251.3081,140.0859)">
        <path
           d="m 0,0 0,6.276 c 0,0 -1.279,0.758 -2.605,0.45 -1.327,-0.308 -0.947,-0.687 -2.179,-0.497 -0.663,0 -0.948,0.047 -0.948,-0.285 l 0,-5.186 c 0,0 0.806,-1.492 2.961,-1.492 C -0.616,-0.734 0,0 0,0"
           style="fill:#c86606;fill-opacity:1;fill-rule:nonzero;stroke:none"
           id="path6553" />
      </g>
      <g
         id="g6555"
         transform="translate(245.6538,140.8644)">
        <path
           d="m 0,0 c 0.095,-0.159 0.922,-1.435 2.883,-1.435 1.89,0 2.578,0.575 2.694,0.688 l 0,6.2 C 5.399,5.549 4.615,5.944 3.711,5.944 3.488,5.944 3.271,5.92 3.066,5.873 2.536,5.749 2.288,5.618 2.09,5.511 1.802,5.358 1.586,5.262 0.858,5.374 c -0.067,-10e-4 -0.14,0 -0.207,0 L 0.486,5.375 C 0.06,5.375 0,5.331 0,5.166 L 0,0 Z m 2.883,-1.59 c -2.176,0 -3.02,1.517 -3.028,1.533 l -0.009,0.036 0,5.187 c 0,0.364 0.325,0.364 0.64,0.364 L 0.652,5.529 C 0.72,5.528 0.792,5.528 0.87,5.528 1.576,5.422 1.73,5.495 2.017,5.648 c 0.196,0.104 0.464,0.247 1.015,0.375 0.216,0.05 0.444,0.076 0.679,0.076 1.069,0 1.946,-0.513 1.982,-0.535 l 0.039,-0.022 0,-6.349 -0.019,-0.021 C 5.687,-0.859 5.049,-1.59 2.883,-1.59"
           style="fill:#1d1d1b;fill-opacity:1;fill-rule:nonzero;stroke:none"
           id="path6557" />
      </g>
      <path
         d="m 239.798,134.07 2.89,0 0,5.377 -2.89,0 0,-5.377 z"
         style="fill:#c86606;fill-opacity:1;fill-rule:nonzero;stroke:none"
         id="path6559" />
      <path
         d="m 239.875,134.147 2.735,0 0,5.222 -2.735,0 0,-5.222 z m 2.889,-0.154 -3.044,0 0,5.531 3.044,0 0,-5.531 z"
         style="fill:#1d1d1b;fill-opacity:1;fill-rule:nonzero;stroke:none"
         id="path6561" />
      <g
         id="g6563"
         transform="translate(246.7135,137.1962)">
        <path
           d="M 0,0 C 0,0 0.343,2.499 0.569,2.724 0.793,2.949 0.071,4.24 -0.948,3.979 -1.966,3.719 -5.43,1.741 -5.703,1.469 -5.975,1.196 -6.443,-3.221 -5.614,-3.553 -4.785,-3.884 -0.202,-0.201 0,0"
           style="fill:#c39400;fill-opacity:1;fill-rule:nonzero;stroke:none"
           id="path6565" />
      </g>
      <g
         id="g6567"
         transform="translate(246.0355,141.1327)">
        <path
           d="m 0,0 c -0.083,0 -0.167,-0.011 -0.251,-0.032 -0.978,-0.25 -4.435,-2.205 -4.72,-2.49 -0.187,-0.188 -0.53,-2.934 -0.255,-4.272 0.073,-0.354 0.183,-0.569 0.319,-0.624 0.026,-0.01 0.059,-0.015 0.098,-0.015 1.004,-0.001 5.019,3.169 5.414,3.534 0.066,0.477 0.36,2.514 0.587,2.741 0.025,0.025 0.035,0.125 -0.037,0.299 C 1.017,-0.527 0.582,0 0,0 m -4.808,-7.588 -0.001,0 c -0.059,0.001 -0.111,0.009 -0.155,0.027 -0.192,0.077 -0.327,0.317 -0.413,0.736 -0.267,1.297 0.028,4.142 0.297,4.412 0.269,0.269 3.723,2.257 4.791,2.53 0.096,0.025 0.193,0.037 0.289,0.037 0.662,0 1.138,-0.57 1.297,-0.954 C 1.386,-1.014 1.388,-1.181 1.301,-1.267 1.15,-1.418 0.886,-2.991 0.754,-3.947 L 0.751,-3.973 0.733,-3.991 c -0.161,-0.16 -4.392,-3.597 -5.541,-3.597"
           style="fill:#1d1d1b;fill-opacity:1;fill-rule:nonzero;stroke:none"
           id="path6569" />
      </g>
      <g
         id="g6571"
         transform="translate(258.2237,140.0384)">
        <path
           d="m 0,0 0,0.782 c 0,0 -3.15,0.166 -4.098,0 -0.946,-0.166 -4.239,-1.019 -5.115,-1.019 -0.876,0 -1.754,0.379 -2.368,-0.237 -0.616,-0.615 -0.546,-1.942 -0.332,-2.463 0.213,-0.521 0.379,-1.137 0.379,-1.137 l 9.924,0 1.895,1.019 0.331,0.876 L 0,0 Z"
           style="fill:#c39400;fill-opacity:1;fill-rule:nonzero;stroke:none"
           id="path6573" />
      </g>
      <g
         id="g6575"
         transform="translate(246.7485,136.0419)">
        <path
           d="m 0,0 9.845,0 1.853,0.995 0.312,0.826 -0.612,2.175 0,0.709 C 11.095,4.72 9.902,4.775 8.861,4.775 8.161,4.775 7.666,4.75 7.391,4.702 7.077,4.647 6.503,4.516 5.839,4.364 4.51,4.061 2.854,3.682 2.262,3.682 2.01,3.682 1.759,3.713 1.516,3.743 1.284,3.771 1.065,3.798 0.855,3.798 0.455,3.798 0.176,3.696 -0.052,3.468 -0.644,2.876 -0.57,1.586 -0.367,1.089 -0.191,0.661 -0.047,0.166 0,0 m 9.885,-0.155 -10.003,0 -0.015,0.058 C -0.135,-0.091 -0.3,0.52 -0.509,1.03 c -0.224,0.544 -0.3,1.899 0.348,2.547 0.256,0.256 0.578,0.375 1.016,0.375 0.219,0 0.443,-0.027 0.68,-0.056 0.238,-0.029 0.484,-0.059 0.727,-0.059 0.575,0 2.221,0.376 3.543,0.678 0.666,0.152 1.241,0.283 1.559,0.339 0.284,0.05 0.788,0.075 1.497,0.075 1.202,0 2.604,-0.073 2.618,-0.074 l 0.073,-0.004 0,-0.844 0.62,-2.193 L 12.164,1.79 11.821,0.887 11.796,0.873 9.885,-0.155 Z"
           style="fill:#1d1d1b;fill-opacity:1;fill-rule:nonzero;stroke:none"
           id="path6577" />
      </g>
      <g
         id="g6579"
         transform="translate(241.9997,134.2358)">
        <path
           d="M 0,0 C 0,0 -0.308,4.24 -0.852,4.429 -1.397,4.619 -2.463,2.368 -2.179,-0.048 -1.895,-2.463 0,0 0,0"
           style="fill:#c39400;fill-opacity:1;fill-rule:nonzero;stroke:none"
           id="path6581" />
      </g>
      <g
         id="g6583"
         transform="translate(241.0802,138.5989)">
        <path
           d="m 0,0 c -0.078,0 -0.18,-0.066 -0.287,-0.187 -0.515,-0.579 -1.113,-2.366 -0.896,-4.215 0.078,-0.659 0.281,-0.993 0.602,-0.993 0.553,0 1.297,0.9 1.421,1.056 C 0.721,-2.717 0.401,-0.132 0.042,-0.007 0.029,-0.002 0.015,0 0,0 m -0.581,-5.549 0,0 c -0.413,0 -0.667,0.38 -0.755,1.129 -0.233,1.98 0.42,3.758 0.934,4.336 0.176,0.198 0.349,0.273 0.494,0.223 0.564,-0.196 0.852,-3.78 0.904,-4.496 L 0.999,-4.387 0.98,-4.41 C 0.945,-4.457 0.097,-5.549 -0.581,-5.549"
           style="fill:#1d1d1b;fill-opacity:1;fill-rule:nonzero;stroke:none"
           id="path6585" />
      </g>
      <g
         id="g6587"
         transform="translate(257.9882,140.9643)">
        <path
           d="m 0,0 0,-0.964 3.778,0 -1.783,1.083 -1.982,0 L 0,0 Z"
           style="fill:#c39400;fill-opacity:1;fill-rule:nonzero;stroke:none"
           id="path6589" />
      </g>
      <g
         id="g6591"
         transform="translate(258.0654,140.0772)">
        <path
           d="M 0,0 3.425,0 1.896,0.929 0.005,0.929 0,0.879 0,0 Z m 3.977,-0.154 -4.131,0 0,1.041 0.021,0.196 2.072,0 2.038,-1.237 z"
           style="fill:#1d1d1b;fill-opacity:1;fill-rule:nonzero;stroke:none"
           id="path6593" />
      </g>
      <path
         d="m 256.707,140.185 5.429,0 0,-4.478 -5.429,0 0,4.478 z"
         style="fill:#c39400;fill-opacity:1;fill-rule:nonzero;stroke:none"
         id="path6595" />
      <path
         d="m 256.784,135.784 5.275,0 0,4.324 -5.275,0 0,-4.324 z m 5.429,-0.154 -5.584,0 0,4.633 5.584,0 0,-4.633 z"
         style="fill:#1d1d1b;fill-opacity:1;fill-rule:nonzero;stroke:none"
         id="path6597" />
      <g
         id="g6599"
         transform="translate(261.3698,136.1691)">
        <path
           d="m 0,0 0,2.893 -2.029,0 -0.481,0.489 -1.957,0 0,-1.387 3.265,-3.329 L 0,0 Z"
           style="fill:#c39400;fill-opacity:1;fill-rule:nonzero;stroke:none"
           id="path6601" />
      </g>
      <g
         id="g6603"
         transform="translate(256.9801,138.1951)">
        <path
           d="m 0,0 3.185,-3.248 1.127,1.252 0,2.786 -1.983,0 L 1.847,1.278 0,1.278 0,0 Z m 3.19,-3.473 -3.344,3.41 0,1.496 2.066,0 0.482,-0.489 2.073,0 0,-3 -1.277,-1.417 z"
           style="fill:#1d1d1b;fill-opacity:1;fill-rule:nonzero;stroke:none"
           id="path6605" />
      </g>
      <g
         id="g6607"
         transform="translate(261.1599,132.2032)">
        <path
           d="m 0,0 -4.453,5.799 c 0,0 -1.927,0.125 -2.984,-0.123 -1.056,-0.249 -3.025,-0.871 -4.205,-0.871 -1.181,0 -2.9,0.477 -4.267,-0.393 -1.367,-0.87 -2.941,-1.678 -3.232,-2.486 -0.29,-0.808 1.264,-4.309 2.031,-4.309 0.766,0 8.948,-0.745 9.093,-0.745 0.145,0 6.712,0.166 6.712,0.166 L 0.59,-1.067 0,0 Z"
           style="fill:#4c2a1f;fill-opacity:1;fill-rule:nonzero;stroke:none"
           id="path6609" />
      </g>
      <g
         id="g6611"
         transform="translate(247.3518,137.0618)">
        <path
           d="m 0,0 c -0.857,0 -1.511,-0.163 -2.059,-0.512 -0.266,-0.169 -0.539,-0.335 -0.809,-0.5 -1.114,-0.679 -2.167,-1.321 -2.392,-1.946 -0.189,-0.528 0.525,-2.522 1.295,-3.617 0.361,-0.512 0.57,-0.589 0.663,-0.589 0.537,0 4.697,-0.364 7.182,-0.582 1.038,-0.091 1.859,-0.162 1.911,-0.163 0.141,0 6.19,0.152 6.679,0.164 l 1.832,1.833 -0.561,1.016 -4.426,5.762 C 9.194,0.873 8.767,0.895 8.254,0.895 7.459,0.895 6.814,0.842 6.389,0.742 6.134,0.682 5.821,0.599 5.489,0.511 4.412,0.225 3.072,-0.13 2.166,-0.13 1.873,-0.13 1.548,-0.101 1.204,-0.071 0.815,-0.036 0.412,0 0,0 m 5.791,-8.064 c -0.045,0 -0.657,0.054 -1.925,0.165 -2.482,0.217 -6.638,0.581 -7.168,0.581 -0.218,0 -0.484,0.22 -0.79,0.655 -0.753,1.071 -1.54,3.124 -1.313,3.757 0.243,0.677 1.318,1.332 2.457,2.026 0.269,0.164 0.541,0.33 0.806,0.499 0.574,0.365 1.255,0.535 2.142,0.535 0.419,0 0.825,-0.036 1.218,-0.071 0.34,-0.03 0.662,-0.059 0.948,-0.059 0.885,0 2.215,0.353 3.283,0.636 0.333,0.088 0.648,0.172 0.904,0.232 0.443,0.104 1.083,0.157 1.901,0.157 0.611,0 1.101,-0.031 1.106,-0.031 L 9.395,1.015 9.416,0.987 13.869,-4.812 14.494,-5.939 12.536,-7.897 12.505,-7.898 C 12.237,-7.905 5.935,-8.064 5.791,-8.064"
           style="fill:#1d1d1b;fill-opacity:1;fill-rule:nonzero;stroke:none"
           id="path6613" />
      </g>
      <g
         id="g6615"
         transform="translate(263.959,133.8177)">
        <path
           d="m 0,0 0,2.88 -0.872,0 0,-0.648 -0.436,0 0,0.621 -0.977,0 0,-0.581 -0.375,0 0,0.608 -1.356,0 0,-1.77 2.589,-2.59 1.52,1.137 L 0,0 Z"
           style="fill:#c39400;fill-opacity:1;fill-rule:nonzero;stroke:none"
           id="path6617" />
      </g>
      <g
         id="g6619"
         transform="translate(260.0204,134.9593)">
        <path
           d="m 0,0 2.519,-2.519 1.424,1.064 -0.082,0.313 0,2.803 -0.717,0 0,-0.648 -0.59,0 0,0.622 -0.823,0 0,-0.582 -0.53,0 0,0.608 L 0,1.661 0,0 Z m 2.505,-2.723 -0.048,0.047 -2.611,2.612 0,1.879 1.509,0 0,-0.607 0.221,0 0,0.581 1.132,0 0,-0.621 0.281,0 0,0.647 1.027,0 0,-2.946 0.104,-0.385 -1.615,-1.207 z"
           style="fill:#1d1d1b;fill-opacity:1;fill-rule:nonzero;stroke:none"
           id="path6621" />
      </g>
      <g
         id="g6623"
         transform="translate(261.8322,133.4874)">
        <path
           d="m 0,0 -5.126,6.698 0,-2.514 4.312,-5.659 L 0,0 Z"
           style="fill:#c39400;fill-opacity:1;fill-rule:nonzero;stroke:none"
           id="path6625" />
      </g>
      <g
         id="g6627"
         transform="translate(256.7838,137.6977)">
        <path
           d="M 0,0 4.224,-5.544 4.956,-4.217 0,2.259 0,0 Z m 4.245,-5.826 -4.4,5.774 0,2.767 5.295,-6.919 -0.895,-1.622 z"
           style="fill:#1d1d1b;fill-opacity:1;fill-rule:nonzero;stroke:none"
           id="path6629" />
      </g>
      <path
         d="m 261.013,133.606 1.189,0 0,-2.55 -1.189,0 0,2.55 z"
         style="fill:#c39400;fill-opacity:1;fill-rule:nonzero;stroke:none"
         id="path6631" />
      <path
         d="m 261.09,131.134 1.035,0 0,2.395 -1.035,0 0,-2.395 z m 1.189,-0.155 -1.344,0 0,2.704 1.344,0 0,-2.704 z"
         style="fill:#1d1d1b;fill-opacity:1;fill-rule:nonzero;stroke:none"
         id="path6633" />
      <g
         id="g6635"
         transform="translate(259.6922,130.5152)">
        <path
           d="m 0,0 c 0,0 -8.686,0.066 -9.987,0.066 -1.301,0 -6.156,2.1 -6.393,2.18 -0.238,0.079 -2.061,1.083 -2.061,1.083 0,0 -0.234,1.03 -0.714,1.03 C -19.634,4.359 -20,4.214 -20,3.672 l 0,-2.43 c 0,0 2.431,-2.101 4.98,-3.091 2.55,-0.991 5.218,-0.819 5.39,-0.648 0.172,0.172 1.572,-1.162 4.287,-0.191 2.714,0.971 4.273,0.482 4.273,0.482 L 0,0 Z"
           style="fill:#c39400;fill-opacity:1;fill-rule:nonzero;stroke:none"
           id="path6637" />
      </g>
      <g
         id="g6639"
         transform="translate(250.1083,128.1112)">
        <path
           d="m 0,0 c 0.078,0 0.187,-0.047 0.352,-0.119 0.384,-0.167 1.028,-0.445 1.966,-0.445 0.604,0 1.242,0.118 1.896,0.352 1.409,0.504 2.504,0.61 3.174,0.61 0.576,0 0.944,-0.074 1.085,-0.109 l 0.988,2.039 c -1.06,0.008 -8.662,0.065 -9.864,0.065 -1.112,0 -4.663,1.463 -6,2.014 -0.222,0.092 -0.383,0.158 -0.418,0.169 -0.242,0.081 -1.999,1.048 -2.073,1.089 l -0.03,0.017 -0.008,0.034 c -0.062,0.27 -0.296,0.97 -0.639,0.97 -0.531,0 -0.768,-0.188 -0.768,-0.61 l 0,-2.395 c 0.272,-0.23 2.565,-2.135 4.931,-3.055 1.798,-0.698 3.54,-0.774 4.206,-0.774 0.719,0 1.058,0.076 1.103,0.111 C -0.075,-0.013 -0.041,0 0,0 m 2.318,-0.719 c -0.97,0 -1.632,0.287 -2.027,0.458 -0.132,0.058 -0.245,0.107 -0.291,0.107 -0.105,-0.108 -0.715,-0.148 -1.202,-0.148 -0.675,0 -2.44,0.076 -4.262,0.785 -2.532,0.984 -4.978,3.083 -5.003,3.104 l -0.027,0.023 0,2.466 c 0,0.514 0.302,0.764 0.923,0.764 0.488,0 0.734,-0.868 0.781,-1.056 0.637,-0.35 1.838,-1.001 2.018,-1.061 0.04,-0.013 0.186,-0.073 0.428,-0.173 1.202,-0.495 4.86,-2.003 5.941,-2.003 1.287,0 9.901,-0.065 9.988,-0.066 L 9.707,2.48 8.554,0.104 8.491,0.124 C 8.487,0.125 8.099,0.244 7.388,0.244 6.73,0.244 5.655,0.139 4.266,-0.357 3.595,-0.597 2.94,-0.719 2.318,-0.719"
           style="fill:#1d1d1b;fill-opacity:1;fill-rule:nonzero;stroke:none"
           id="path6641" />
      </g>
      <g
         id="g6643"
         transform="translate(243.5643,133.0382)">
        <path
           d="m 0,0 c 0,0.003 0.001,0.006 0.001,0.01 0,0.005 -0.002,0.01 -0.002,0.016 l -0.002,0.062 -0.005,0 c -0.041,0.779 -0.68,1.4 -1.47,1.4 -0.666,0 -1.223,-0.444 -1.407,-1.05 l -0.007,0 c 0,0 -0.955,-2.798 -0.744,-3.25 0.213,-0.453 2.122,-1.911 3.735,-0.92 L 0,0 Z"
           style="fill:#c39400;fill-opacity:1;fill-rule:nonzero;stroke:none"
           id="path6645" />
      </g>
      <g
         id="g6647"
         transform="translate(240.7256,133.3926)">
        <path
           d="m 0,0 c -0.378,-1.115 -0.87,-2.828 -0.727,-3.134 0.141,-0.302 1.239,-1.213 2.458,-1.213 0.406,0 0.786,0.102 1.129,0.303 l -0.099,3.688 c 0,0.013 -0.001,0.02 -0.001,0.028 L 2.754,-0.271 C 2.714,0.473 2.102,1.056 1.361,1.056 0.744,1.056 0.208,0.656 0.027,0.061 L 0.008,-0.001 0,0 Z m 1.731,-4.502 c -1.236,0 -2.411,0.905 -2.598,1.302 -0.219,0.468 0.642,3.02 0.741,3.309 l 0.02,0.059 0.005,-0.001 c 0.219,0.627 0.798,1.044 1.462,1.044 0.801,0 1.466,-0.612 1.542,-1.405 l 0.003,-0.001 0.01,-0.164 0.101,-3.77 -0.039,-0.023 C 2.601,-4.384 2.181,-4.502 1.731,-4.502"
           style="fill:#1d1d1b;fill-opacity:1;fill-rule:nonzero;stroke:none"
           id="path6649" />
      </g>
      <g
         id="g6651"
         transform="translate(249.8649,132.1355)">
        <path
           d="M 0,0 C -0.011,0.067 -0.027,0.131 -0.047,0.194 -0.06,0.242 -0.072,0.28 -0.083,0.31 c -0.006,0.016 -0.012,0.033 -0.019,0.049 -0.001,0.002 -0.003,0.008 -0.004,0.01 0,0.001 -0.002,0.001 -0.002,0.002 -0.231,0.514 -0.746,0.874 -1.347,0.874 -0.747,0 -1.359,-0.557 -1.458,-1.277 -0.001,0 -0.006,-0.002 -0.006,-0.002 0,0 -0.768,-3.198 -0.463,-4.083 0.303,-0.885 2.945,-1.532 4.029,-0.027 0,0 -0.408,3.052 -0.647,4.144"
           style="fill:#c39400;fill-opacity:1;fill-rule:nonzero;stroke:none"
           id="path6653" />
      </g>
      <g
         id="g6655"
         transform="translate(247.0138,132.0536)">
        <path
           d="m 0,0 c -0.077,-0.328 -0.736,-3.201 -0.458,-4.01 0.163,-0.474 1.073,-0.875 1.988,-0.875 0.473,0 1.342,0.11 1.887,0.844 C 3.374,-3.718 2.999,-0.952 2.776,0.065 2.766,0.126 2.752,0.184 2.731,0.253 2.718,0.301 2.706,0.337 2.696,0.365 L 2.674,0.418 C 2.446,0.925 1.946,1.25 1.397,1.25 0.704,1.25 0.11,0.73 0.015,0.04 L 0,0 Z m 1.53,-5.039 0,0 c -0.992,0 -1.949,0.439 -2.134,0.979 -0.308,0.896 0.43,3.995 0.461,4.126 l 0.013,0.048 c 0.128,0.739 0.775,1.29 1.527,1.29 0.609,0 1.165,-0.361 1.416,-0.919 l 0,-0.001 0.005,-0.007 C 2.825,0.461 2.829,0.449 2.833,0.437 L 2.841,0.419 C 2.853,0.387 2.865,0.347 2.879,0.296 2.902,0.223 2.917,0.158 2.927,0.094 3.164,-0.984 3.57,-4.021 3.574,-4.051 L 3.578,-4.082 3.56,-4.107 C 3.128,-4.708 2.406,-5.039 1.53,-5.039"
           style="fill:#1d1d1b;fill-opacity:1;fill-rule:nonzero;stroke:none"
           id="path6657" />
      </g>
      <g
         id="g6659"
         transform="translate(257.7455,131.6389)">
        <path
           d="m 0,0 c 0,0 -0.007,0.001 -0.008,0.001 -0.084,0.872 -0.809,1.556 -1.703,1.556 -0.84,0 -1.537,-0.603 -1.686,-1.4 0,-0.001 -0.002,-0.001 -0.002,-0.003 -0.184,-0.511 -0.348,-3.867 -0.123,-4.091 1.876,-1.44 3.751,1.162 3.751,1.162 L 0,0 Z"
           style="fill:#c39400;fill-opacity:1;fill-rule:nonzero;stroke:none"
           id="path6661" />
      </g>
      <g
         id="g6663"
         transform="translate(254.412,131.7474)">
        <path
           d="m 0,0 c -0.192,-0.601 -0.302,-3.791 -0.134,-3.992 0.354,-0.27 0.742,-0.411 1.146,-0.411 1.256,0 2.326,1.351 2.472,1.542 L 3.248,-0.114 C 3.167,0.733 2.469,1.372 1.623,1.372 0.835,1.372 0.157,0.809 0.012,0.034 L 0,0 Z m 1.012,-4.557 -0.001,0 c -0.438,0 -0.858,0.151 -1.247,0.45 -0.274,0.273 -0.088,3.614 0.093,4.166 l 0,0.025 0.01,0.008 c 0.163,0.828 0.9,1.434 1.756,1.434 0.906,0 1.658,-0.669 1.773,-1.567 L 3.409,-0.043 3.41,-0.102 3.642,-2.906 3.625,-2.929 C 3.578,-2.995 2.435,-4.557 1.012,-4.557"
           style="fill:#1d1d1b;fill-opacity:1;fill-rule:nonzero;stroke:none"
           id="path6665" />
      </g>
      <g
         id="g6667"
         transform="translate(259.9763,146.037)">
        <path
           d="m 0,0 -0.264,2.867 c 0,0 -0.146,0.805 -0.806,0.805 l -1.598,0 c 0,0 -0.502,-0.105 -0.569,-0.568 C -3.303,2.642 -3.303,1.876 -3.303,1.876 l 1.097,0 0,-1.929 2.232,0 L 0,0 Z"
           style="fill:#c39400;fill-opacity:1;fill-rule:nonzero;stroke:none"
           id="path6669" />
      </g>
      <g
         id="g6671"
         transform="translate(257.8472,146.0613)">
        <path
           d="M 0,0 2.049,0 1.788,2.835 C 1.784,2.859 1.646,3.571 1.059,3.571 l -1.598,0 C -0.541,3.569 -0.973,3.471 -1.031,3.069 -1.083,2.702 -1.094,2.134 -1.096,1.929 L 0,1.929 0,0 Z m 2.28,-0.154 -2.434,0 0,1.928 -1.097,0 0,0.078 c 0,0.031 10e-4,0.776 0.067,1.239 0.073,0.51 0.606,0.628 0.629,0.633 l 1.614,10e-4 c 0.717,0 0.88,-0.86 0.882,-0.869 L 2.204,-0.003 2.28,-0.154 Z"
           style="fill:#1d1d1b;fill-opacity:1;fill-rule:nonzero;stroke:none"
           id="path6673" />
      </g>
      <path
         d="m 283.091,152.405 -1.242,0 0,1.215 1.242,0 0,-1.215 z"
         style="fill:#c86606;fill-opacity:1;fill-rule:nonzero;stroke:none"
         id="path6675" />
      <path
         d="m 281.927,152.482 1.088,0 0,1.061 -1.088,0 0,-1.061 z m 1.242,-0.155 -1.397,0 0,1.37 1.397,0 0,-1.37 z"
         style="fill:#1d1d1b;fill-opacity:1;fill-rule:nonzero;stroke:none"
         id="path6677" />
      <path
         d="m 265.919,156.975 -1.242,0 0,1.215 1.242,0 0,-1.215 z"
         style="fill:#c39400;fill-opacity:1;fill-rule:nonzero;stroke:none"
         id="path6679" />
      <path
         d="m 264.754,157.052 1.088,0 0,1.061 -1.088,0 0,-1.061 z m 1.242,-0.154 -1.397,0 0,1.37 1.397,0 0,-1.37 z"
         style="fill:#1d1d1b;fill-opacity:1;fill-rule:nonzero;stroke:none"
         id="path6681" />
      <path
         d="m 249.417,143.078 -1.242,0 0,1.215 1.242,0 0,-1.215 z"
         style="fill:#c86606;fill-opacity:1;fill-rule:nonzero;stroke:none"
         id="path6683" />
      <path
         d="m 248.253,143.156 1.087,0 0,1.061 -1.087,0 0,-1.061 z m 1.241,-0.155 -1.396,0 0,1.37 1.396,0 0,-1.37 z"
         style="fill:#1d1d1b;fill-opacity:1;fill-rule:nonzero;stroke:none"
         id="path6685" />
      <g
         id="g6687"
         transform="translate(248.9507,131.1603)">
        <path
           d="m 0,0 c 0,-0.302 -0.245,-0.546 -0.546,-0.546 -0.302,0 -0.547,0.244 -0.547,0.546 0,0.302 0.245,0.547 0.547,0.547 C -0.245,0.547 0,0.302 0,0"
           style="fill:#c39400;fill-opacity:1;fill-rule:nonzero;stroke:none"
           id="path6689" />
      </g>
      <g
         id="g6691"
         transform="translate(248.4043,131.6297)">
        <path
           d="m 0,0 c -0.259,0 -0.469,-0.21 -0.469,-0.469 0,-0.259 0.21,-0.469 0.469,-0.469 0.259,0 0.469,0.21 0.469,0.469 C 0.469,-0.21 0.259,0 0,0 m 0,-1.093 c -0.344,0 -0.624,0.28 -0.624,0.624 0,0.344 0.28,0.623 0.624,0.623 0.344,0 0.624,-0.279 0.624,-0.623 0,-0.344 -0.28,-0.624 -0.624,-0.624"
           style="fill:#1d1d1b;fill-opacity:1;fill-rule:nonzero;stroke:none"
           id="path6693" />
      </g>
      <g
         id="g6695"
         transform="translate(256.4888,131.1603)">
        <path
           d="m 0,0 c 0,-0.302 -0.245,-0.546 -0.547,-0.546 -0.302,0 -0.546,0.244 -0.546,0.546 0,0.302 0.244,0.547 0.546,0.547 C -0.245,0.547 0,0.302 0,0"
           style="fill:#c39400;fill-opacity:1;fill-rule:nonzero;stroke:none"
           id="path6697" />
      </g>
      <g
         id="g6699"
         transform="translate(255.942,131.6297)">
        <path
           d="m 0,0 c -0.259,0 -0.469,-0.21 -0.469,-0.469 0,-0.259 0.21,-0.469 0.469,-0.469 0.259,0 0.47,0.21 0.47,0.469 C 0.47,-0.21 0.259,0 0,0 m 0,-1.093 c -0.344,0 -0.624,0.28 -0.624,0.624 0,0.344 0.28,0.623 0.624,0.623 0.344,0 0.624,-0.279 0.624,-0.623 0,-0.344 -0.28,-0.624 -0.624,-0.624"
           style="fill:#1d1d1b;fill-opacity:1;fill-rule:nonzero;stroke:none"
           id="path6701" />
      </g>
      <g
         id="g6703"
         transform="translate(242.5238,132.658)">
        <path
           d="m 0,0 c 0,-0.302 -0.245,-0.546 -0.547,-0.546 -0.301,0 -0.546,0.244 -0.546,0.546 0,0.302 0.245,0.547 0.546,0.547 C -0.245,0.547 0,0.302 0,0"
           style="fill:#c39400;fill-opacity:1;fill-rule:nonzero;stroke:none"
           id="path6705" />
      </g>
      <g
         id="g6707"
         transform="translate(241.9771,133.1273)">
        <path
           d="m 0,0 c -0.259,0 -0.469,-0.21 -0.469,-0.469 0,-0.259 0.21,-0.469 0.469,-0.469 0.259,0 0.47,0.21 0.47,0.469 C 0.47,-0.21 0.259,0 0,0 m 0,-1.093 c -0.344,0 -0.624,0.28 -0.624,0.624 0,0.344 0.28,0.624 0.624,0.624 0.344,0 0.624,-0.28 0.624,-0.624 0,-0.344 -0.28,-0.624 -0.624,-0.624"
           style="fill:#1d1d1b;fill-opacity:1;fill-rule:nonzero;stroke:none"
           id="path6709" />
      </g>
      <g
         id="g6711"
         transform="translate(258.6548,148.5854)">
        <path
           d="m 0,0 c 0,-0.268 -0.19,-0.485 -0.425,-0.485 -0.234,0 -0.424,0.217 -0.424,0.485 0,0.268 0.19,0.485 0.424,0.485 C -0.19,0.485 0,0.268 0,0"
           style="fill:#c39400;fill-opacity:1;fill-rule:nonzero;stroke:none"
           id="path6713" />
      </g>
      <g
         id="g6715"
         transform="translate(258.2301,148.9935)">
        <path
           d="m 0,0 c -0.192,0 -0.347,-0.183 -0.347,-0.408 0,-0.225 0.155,-0.408 0.347,-0.408 0.192,0 0.347,0.183 0.347,0.408 C 0.347,-0.183 0.192,0 0,0 m 0,-0.971 c -0.277,0 -0.502,0.253 -0.502,0.563 0,0.31 0.225,0.563 0.502,0.563 0.277,0 0.502,-0.253 0.502,-0.563 0,-0.31 -0.225,-0.563 -0.502,-0.563"
           style="fill:#1d1d1b;fill-opacity:1;fill-rule:nonzero;stroke:none"
           id="path6717" />
      </g>
      <g
         id="g6719"
         transform="translate(267.0513,146.9564)">
        <path
           d="m 0,0 c -0.194,0.051 -0.961,-0.091 -1.119,-0.091 -0.039,0 -0.083,-0.003 -0.127,-0.008 l 0.01,0.008 -0.543,0 c -0.222,0 -0.685,-0.101 -0.906,-0.101 -0.221,0 -0.645,-0.514 -0.735,-0.514 -0.091,0 -0.756,-0.755 -0.756,-0.755 0,0 0.232,-0.413 0.433,-0.614 0.202,-0.202 0.192,-0.191 0.695,-0.191 0.504,0 0.443,0.221 0.605,0.221 0.101,0 0.234,0.16 0.319,0.339 0.169,-0.048 0.368,-0.081 0.477,-0.081 0.211,0 0.382,-0.089 0.7,0.083 0.316,0.172 0.303,0.304 0.431,0.893 0.126,0.588 0.771,0.679 0.771,0.679 0,0 -0.061,0.081 -0.255,0.132"
           style="fill:#4c2a1f;fill-opacity:1;fill-rule:nonzero;stroke:none"
           id="path6721" />
      </g>
      <g
         id="g6723"
         transform="translate(330.3419,171.6203)">
        <path
           d="m 0,0 c -7.198,-4.799 -13.834,-6.993 -19.714,-7.622 l -27.163,-20.924 -39.161,-30.168 c 1.989,-4.206 4.342,-8.569 7.126,-13.074 l 32.035,25.444 48.584,38.586 C 1.014,-2.755 0,0 0,0"
           style="fill:#ffffff;fill-opacity:1;fill-rule:nonzero;stroke:none"
           id="path6725" />
      </g>
      <g
         id="g6727"
         transform="translate(283.4652,61.7371)">
        <path
           d="M 0,0 C -12.868,11.975 -22.47,23.508 -29.61,34.31 L 0,57.829 49.096,96.824 C 50.159,78.257 44.924,41.804 0,0 M -39.162,51.169 0,81.337 27.163,102.261 c 5.88,0.629 12.516,2.824 19.714,7.622 0,0 1.014,-2.755 1.707,-7.757 L 0,63.539 -32.035,38.095 c -2.784,4.505 -5.137,8.868 -7.127,13.074 m -7.714,58.714 C -19.349,91.531 0,111.22 0,111.22 c 0,0 7.511,-7.641 19.829,-8.965 L 0,86.98 -41.049,55.36 c -13.91,32.577 -5.827,54.523 -5.827,54.523 m 96.546,6.282 c -29.168,-19.445 -49.671,0.211 -49.671,0.211 0,0 -20.502,-19.656 -49.669,-0.211 0,0 -27.688,-56.433 49.669,-123.012 77.359,66.579 49.671,123.012 49.671,123.012"
           style="fill:#c39400;fill-opacity:1;fill-rule:nonzero;stroke:none"
           id="path6729" />
      </g>
      <g
         id="g6731"
         transform="translate(297.1916,133.7248)">
        <path
           d="m 0,0 c 0,-8.132 -6.593,-14.725 -14.725,-14.725 -8.132,0 -14.725,6.593 -14.725,14.725 0,8.132 6.593,14.725 14.725,14.725 C -6.593,14.725 0,8.132 0,0"
           style="fill:#fff26b;fill-opacity:1;fill-rule:nonzero;stroke:none"
           id="path6733" />
      </g>
      <g
         id="g6735"
         transform="translate(282.4666,148.2569)">
        <path
           d="m 0,0 c -8.013,0 -14.532,-6.519 -14.532,-14.532 0,-8.013 6.519,-14.532 14.532,-14.532 8.013,0 14.532,6.519 14.532,14.532 C 14.532,-6.519 8.013,0 0,0 m 0,-29.45 c -8.226,0 -14.918,6.692 -14.918,14.918 0,8.226 6.692,14.918 14.918,14.918 8.226,0 14.918,-6.692 14.918,-14.918 C 14.918,-22.758 8.226,-29.45 0,-29.45"
           style="fill:#1d1d1b;fill-opacity:1;fill-rule:nonzero;stroke:none"
           id="path6737" />
      </g>
      <g
         id="g6739"
         transform="translate(267.9809,136.0958)">
        <path
           d="m 0,0 -0.02,0.463 c 13.328,0.582 15.615,11.76 15.637,11.872 l 0.454,-0.086 C 16.049,12.132 13.689,0.598 0,0"
           style="fill:#1d1d1b;fill-opacity:1;fill-rule:nonzero;stroke:none"
           id="path6741" />
      </g>
      <g
         id="g6743"
         transform="translate(282.1915,118.9057)">
        <path
           d="m 0,0 -0.438,0.151 c 1.443,4.176 4.272,9.635 9.551,11.924 3.174,1.376 5.694,0.951 5.799,0.932 l -0.08,-0.456 C 14.733,12.568 4.88,14.124 0,0"
           style="fill:#1d1d1b;fill-opacity:1;fill-rule:nonzero;stroke:none"
           id="path6745" />
      </g>
      <g
         id="g6747"
         transform="translate(292.4559,123.096)">
        <path
           d="m 0,0 c -0.022,0.181 -0.584,4.442 -4.675,5.14 l 0.078,0.457 C -0.162,4.84 0.454,0.103 0.46,0.055 L 0,0 Z"
           style="fill:#1d1d1b;fill-opacity:1;fill-rule:nonzero;stroke:none"
           id="path6749" />
      </g>
      <g
         id="g6751"
         transform="translate(284.3391,123.9774)">
        <path
           d="m 0,0 c -0.109,0.011 -10.924,1.201 -10.723,13.439 l 0.463,-0.007 C -10.341,8.478 -8.638,4.791 -5.196,2.474 -2.621,0.74 0.018,0.464 0.045,0.461 L 0,0 Z"
           style="fill:#1d1d1b;fill-opacity:1;fill-rule:nonzero;stroke:none"
           id="path6753" />
      </g>
      <g
         id="g6755"
         transform="translate(249.7247,113.5744)">
        <path
           d="M 0,0 2.186,1.711 7.637,-1.854 7.657,-1.838 5.42,4.241 7.605,5.951 13.131,-1.112 11.677,-2.249 7.761,2.756 7.742,2.74 9.926,-3.618 8.73,-4.554 3.122,-0.953 3.102,-0.968 6.98,-5.924 5.525,-7.063 0,0 Z"
           style="fill:#00489a;fill-opacity:1;fill-rule:nonzero;stroke:none"
           id="path6757" />
      </g>
      <g
         id="g6759"
         transform="translate(264.2458,118.0333)">
        <path
           d="M 0,0 1.829,1.431 -1.088,3.326 -1.108,3.311 0,0 Z M -3.242,4.448 -1.649,5.694 6.517,0.698 4.905,-0.564 3.141,0.591 0.499,-1.475 1.176,-3.481 -0.397,-4.711 -3.242,4.448 Z"
           style="fill:#00489a;fill-opacity:1;fill-rule:nonzero;stroke:none"
           id="path6761" />
      </g>
      <g
         id="g6763"
         transform="translate(265.8545,126.2762)">
        <path
           d="M 0,0 1.553,1.214 6.057,-4.542 9.499,-1.849 10.52,-3.154 5.525,-7.062 0,0 Z"
           style="fill:#00489a;fill-opacity:1;fill-rule:nonzero;stroke:none"
           id="path6765" />
      </g>
      <g
         id="g6767"
         transform="translate(277.3538,128.3889)">
        <path
           d="M 0,0 1.829,1.432 -1.088,3.327 -1.108,3.311 0,0 Z M -3.241,4.449 -1.649,5.694 6.517,0.698 4.905,-0.563 3.14,0.591 0.5,-1.475 1.176,-3.48 -0.396,-4.711 -3.241,4.449 Z"
           style="fill:#00489a;fill-opacity:1;fill-rule:nonzero;stroke:none"
           id="path6769" />
      </g>
      <g
         id="g6771"
         transform="translate(289.3437,134.6053)">
        <path
           d="m 0,0 c 0.006,-1.128 -0.497,-1.952 -1.18,-2.486 -2.187,-1.711 -4.749,-1.085 -6.343,0.953 -1.64,2.097 -1.631,4.734 0.555,6.445 1.444,1.13 3.506,1.308 4.927,-0.163 L -3.524,3.588 c -0.79,0.642 -1.691,0.591 -2.422,0.018 -1.395,-1.09 -0.991,-2.688 -0.024,-3.924 0.921,-1.177 2.374,-1.954 3.768,-0.863 1.009,0.79 1.167,1.79 0.49,2.839 L -3.274,0.436 -4.18,1.592 -1.212,3.914 1.774,0.096 0.785,-0.677 0,0 Z"
           style="fill:#00489a;fill-opacity:1;fill-rule:nonzero;stroke:none"
           id="path6773" />
      </g>
      <g
         id="g6775"
         transform="translate(292.5875,140.1902)">
        <path
           d="M 0,0 1.83,1.432 -1.088,3.327 -1.108,3.311 0,0 Z M -3.241,4.449 -1.648,5.694 6.518,0.699 4.906,-0.563 3.14,0.592 0.5,-1.474 1.176,-3.48 -0.396,-4.711 -3.241,4.449 Z"
           style="fill:#00489a;fill-opacity:1;fill-rule:nonzero;stroke:none"
           id="path6777" />
      </g>
      <g
         id="g6779"
         transform="translate(303.4213,151.6658)">
        <path
           d="m 0,0 c -0.649,0.624 -1.739,0.633 -2.51,0.029 -1.395,-1.091 -0.99,-2.688 -0.024,-3.924 0.922,-1.177 2.374,-1.954 3.769,-0.863 0.95,0.743 0.972,1.813 0.364,2.836 l 1.503,1.176 C 4.321,-2.631 3.987,-4.71 2.256,-6.064 0.07,-7.775 -2.492,-7.148 -4.087,-5.11 c -1.64,2.096 -1.631,4.734 0.555,6.444 1.553,1.215 3.57,1.326 5.035,-0.158 L 0,0 Z"
           style="fill:#00489a;fill-opacity:1;fill-rule:nonzero;stroke:none"
           id="path6781" />
      </g>
      <g
         id="g6783"
         transform="translate(308.3872,150.485)">
        <path
           d="M 0,0 1.553,1.215 2.745,-0.308 1.192,-1.523 0,0 Z"
           style="fill:#00489a;fill-opacity:1;fill-rule:nonzero;stroke:none"
           id="path6785" />
      </g>
      <g
         id="g6787"
         transform="translate(307.2623,158.4759)">
        <path
           d="M 0,0 4.965,3.885 5.987,2.579 2.575,-0.091 3.851,-1.723 6.809,0.591 7.753,-0.616 4.795,-2.929 7.079,-5.847 5.525,-7.062 0,0 Z"
           style="fill:#00489a;fill-opacity:1;fill-rule:nonzero;stroke:none"
           id="path6789" />
      </g>
      <g
         id="g6791"
         transform="translate(316.3288,156.8054)">
        <path
           d="M 0,0 1.553,1.215 2.744,-0.308 1.192,-1.523 0,0 Z"
           style="fill:#00489a;fill-opacity:1;fill-rule:nonzero;stroke:none"
           id="path6793" />
      </g>
      <g
         id="g6795"
         transform="translate(279.8021,167.4086)">
        <path
           d="m 0,0 2.839,0 0,-0.291 -1.249,0 0,-3.291 -0.341,0 0,3.291 L 0,-0.291 0,0 Z"
           style="fill:#1d1d1b;fill-opacity:1;fill-rule:nonzero;stroke:none"
           id="path6797" />
      </g>
      <g
         id="g6799"
         transform="translate(283.9709,167.4086)">
        <path
           d="m 0,0 0.501,0 1.24,-3.14 1.234,3.14 0.501,0 0,-3.582 -0.341,0 0,3.096 -0.01,0 -1.224,-3.096 -0.321,0 -1.229,3.096 -0.01,0 0,-3.096 L 0,-3.582 0,0 Z"
           style="fill:#1d1d1b;fill-opacity:1;fill-rule:nonzero;stroke:none"
           id="path6801" />
      </g>
    </g>
  </g>
</svg>
