<?xml version="1.0" encoding="UTF-8" standalone="no"?>
<!-- Created with Inkscape (http://www.inkscape.org/) -->

<svg
   xmlns:dc="http://purl.org/dc/elements/1.1/"
   xmlns:cc="http://creativecommons.org/ns#"
   xmlns:rdf="http://www.w3.org/1999/02/22-rdf-syntax-ns#"
   xmlns:svg="http://www.w3.org/2000/svg"
   xmlns="http://www.w3.org/2000/svg"
   xmlns:xlink="http://www.w3.org/1999/xlink"
   version="1.1"
   width="173.23642"
   height="300.0271"
   id="svg10501">
  <defs
     id="defs10503">
    <linearGradient
       id="linearGradient17306">
      <stop
         id="stop17308"
         style="stop-color:#c81218;stop-opacity:1"
         offset="0" />
      <stop
         id="stop17310"
         style="stop-color:#8f1210;stop-opacity:1"
         offset="1" />
    </linearGradient>
    <linearGradient
       x1="335.61874"
       y1="339.54846"
       x2="356.36316"
       y2="339.54846"
       id="linearGradient17312"
       xlink:href="#linearGradient17306"
       gradientUnits="userSpaceOnUse" />
    <linearGradient
       x1="317.50253"
       y1="338.89108"
       x2="333.66196"
       y2="338.89108"
       id="linearGradient17314"
       xlink:href="#linearGradient17306"
       gradientUnits="userSpaceOnUse" />
    <linearGradient
       x1="298.1969"
       y1="338.84717"
       x2="315.02103"
       y2="338.84717"
       id="linearGradient17316"
       xlink:href="#linearGradient17306"
       gradientUnits="userSpaceOnUse" />
    <linearGradient
       x1="285.35953"
       y1="339.07132"
       x2="296.30087"
       y2="339.07132"
       id="linearGradient17318"
       xlink:href="#linearGradient17306"
       gradientUnits="userSpaceOnUse" />
    <linearGradient
       x1="265.42529"
       y1="340.01718"
       x2="285.15936"
       y2="340.01718"
       id="linearGradient17320"
       xlink:href="#linearGradient17306"
       gradientUnits="userSpaceOnUse"
       gradientTransform="translate(-223.52209,-324.3672)" />
    <linearGradient
       x1="275.29233"
       y1="332.68716"
       x2="275.29233"
       y2="348.31259"
       id="linearGradient17323"
       xlink:href="#linearGradient17306"
       gradientUnits="userSpaceOnUse"
       gradientTransform="translate(-223.52209,-324.3672)" />
    <linearGradient
       x1="86.71875"
       y1="41.333645"
       x2="86.71875"
       y2="61.56498"
       id="linearGradient17332"
       xlink:href="#linearGradient17306"
       gradientUnits="userSpaceOnUse" />
    <linearGradient
       x1="361.97855"
       y1="464.6076"
       x2="373.70175"
       y2="415.58972"
       id="linearGradient17340"
       xlink:href="#linearGradient17306"
       gradientUnits="userSpaceOnUse" />
  </defs>
  <metadata
     id="metadata10506">
    <rdf:RDF>
      <cc:Work
         rdf:about="">
        <dc:format>image/svg+xml</dc:format>
        <dc:type
           rdf:resource="http://purl.org/dc/dcmitype/StillImage" />
        <dc:title></dc:title>
      </cc:Work>
    </rdf:RDF>
  </metadata>
  <g
     transform="translate(-223.52209,-324.3672)"
     id="layer1">
    <path
       d="m 68.1875,29.75 c -13.70386,0 -20.53125,8.36922 -20.53125,18.84375 0,11.13958 7.1026,18.46875 19.96875,18.46875 14.20905,0 20.0625,-9.39492 20.0625,-19.5625 0,-10.32746 -6.41003,-17.75 -19.5,-17.75 z m 38.875,0 c -6.37552,0 -9.32664,1.26654 -11.1875,2.46875 -2.73054,1.70099 -4.5,4.3474 -4.5,7.5 0,4.41234 3.54342,7.69732 11.84375,11.40625 0.49879,0.24939 3.16386,1.40046 3.65625,1.65625 2.9032,1.24697 4.46875,2.546 4.46875,4.65625 0,1.70099 -1.65618,3.59375 -5.25,3.59375 -5.0774,0 -5.09375,-3.50859 -5.09375,-5.0625 l 0,-1.6875 -9.625,0 0,10.75 c 2.0463,0.58831 7.09542,2.03125 15.03125,2.03125 6.94465,0 10.20575,-1.40627 12.4375,-3.0625 C 121.0755,62.34377 123,59.67551 123,56.0625 c 0,-6.06218 -5.02107,-8.39953 -10.71875,-10.90625 l -4.21875,-1.8125 c -4.08622,-1.8097 -5.625,-2.94669 -5.625,-4.75 0,-0.44763 0.66873,-3.28125 4.8125,-3.28125 4.46351,0 4.46875,2.72733 4.46875,4.28125 l 0,1.90625 9.21875,0 0,-9.625 c -2.16141,-0.69702 -6.63619,-2.125 -13.875,-2.125 z m 39.71875,0 c -14.16427,0 -20.21875,9.01871 -20.21875,18.6875 0,7.1301 3.65826,18.625 19.3125,18.625 6.97024,0 10.89918,-1.76197 14.25,-3.71875 l 0,-7.8125 c -3.56824,2.0591 -7.6545,3.5 -11.875,3.5 -8.57531,0 -10.3125,-5.95929 -10.3125,-11.625 0,-3.2677 0.43639,-11.5 8.21875,-11.5 5.05182,0 5.15625,3.36923 5.15625,5.28125 l 0,2.75 9,0 0,-11.4375 c -2.02712,-0.8441 -6.51625,-2.75 -13.53125,-2.75 z M 13.125,30.90625 l 0,5.65625 1.1875,0 c 2.73054,0 2.75,0.71877 2.75,2.375 l 0,19.28125 c 0,1.11268 -0.0011,2.0625 -2.4375,2.0625 l -1.5,0 0,5.6875 31.65625,0 0,-11.5 -8.34375,0 0,2.75 c 0,1.05512 0.0074,1.96875 -2.53125,1.96875 l -5.6875,0 0,-20.40625 c 0,-1.36207 0.01101,-2.21875 2.5625,-2.21875 l 1.90625,0 0,-5.65625 -19.5625,0 z m 54.84375,5.78125 c 8.62007,0 8.34375,8.70346 8.34375,11.3125 0,8.07013 -2.31704,12.25 -8.46875,12.25 -7.07255,0 -8.625,-5.62254 -8.625,-11.53125 0,-5.11576 1.27459,-12.03125 8.75,-12.03125 z"
       transform="translate(223.52209,324.3672)"
       id="path14168"
       style="fill:url(#linearGradient17332);fill-opacity:1;fill-rule:nonzero;stroke:none" />
    <path
       d="m 84.3125,5 c -3.11422,0.01919 -6.54275,0.15335 -9.625,0.28125 0.06394,0.95281 0.08595,1.41579 0.15625,2.375 C 75.10593,7.64985 75.23142,7.6378 75.5,7.625 c 1.50919,-0.05755 1.54255,0.34907 1.59375,1.21875 0.04477,0.92084 0.5738,10.57916 0.625,11.5 0.04477,0.75458 0.05453,1.21275 -1.25,1.21875 -0.28136,0.006 -0.39974,0 -0.6875,0 0.06397,0.95921 0.09235,1.44704 0.15625,2.40625 l 15.40625,0 L 91.5,18.375 l -3.46875,0 c 0,0.60111 0,0.8989 0,1.5 -0.0064,0.76097 -0.09183,1.15625 -1.28125,1.15625 -0.88886,0 -3.48614,-0.006 -4.375,0 C 82.34942,20.20634 82.05685,9.57491 82.03125,8.75 82.00567,7.84834 81.99157,7.4503 83.46875,7.4375 c 0.38368,-0.0068 0.48492,0 0.875,0 C 84.32455,6.4655 84.3253,5.972 84.3125,5 z m 10.46875,0.09375 c -0.04472,0.97199 -0.0866,1.44065 -0.125,2.40625 0.26858,0.0064 0.41892,0.02525 0.6875,0.03125 1.50271,0.03836 1.4823,0.44921 1.4375,1.3125 -0.05116,0.91444 -0.5738,10.57916 -0.625,11.5 -0.04477,0.75458 -0.07048,1.1935 -1.375,1.1875 l -0.6875,0 c -0.03832,0.9656 -0.0802,1.4719 -0.125,2.4375 l 15.4375,0 0.71875,-5.25 -3.4375,-0.09375 c -0.0704,0.58192 -0.1236,0.85558 -0.1875,1.4375 -0.0895,0.729 -0.19198,1.10655 -1.375,1.09375 -0.89526,-0.0128 -3.57989,-0.0497 -4.46875,-0.0625 0.0767,-0.9656 0.88565,-11.0969 0.96875,-12.0625 0.0703,-0.88247 0.12297,-1.2642 1.59375,-1.1875 0.38369,0.0255 0.55382,0.0369 0.9375,0.0625 0.0895,-0.94642 0.1605,-1.42859 0.25,-2.375 -1.98236,-0.1215 -7.02235,-0.3799 -9.625,-0.4375 z M 71.1875,5.4375 c -1.86086,0.08313 -7.29744,0.53331 -9.34375,0.71875 0.12789,0.91445 0.1846,1.36681 0.3125,2.28125 0.28136,-0.0191 0.43739,-0.0369 0.71875,-0.0625 1.36847,-0.10871 1.47865,0.21128 1.59375,1.09375 0.11511,0.87607 1.29114,10.06143 1.40625,10.9375 0.12149,0.93363 0.17457,1.2308 -1.1875,1.25 -0.26218,0 -0.39407,0.03125 -0.65625,0.03125 0.13429,0.91444 0.18461,1.36681 0.3125,2.28125 l 8.4375,0 c -0.08313,-0.95281 -0.13565,-1.42858 -0.21875,-2.375 -0.25578,0 -0.36281,-0.006 -0.625,0 -1.29812,0.0064 -1.37285,-0.29719 -1.46875,-1.25 -0.08313,-0.88247 -1.00425,-10.11753 -1.09375,-11 -0.09592,-1.00397 -0.12631,-1.4233 1.3125,-1.5 C 70.96887,7.83095 71.09364,7.8317 71.375,7.8125 71.29827,6.86608 71.2706,6.39031 71.1875,5.4375 z m 43.65625,0.96875 c -0.14068,0.90165 -0.20306,1.35474 -0.34375,2.25 0.31334,0.0319 0.49277,0.0369 0.8125,0.0625 1.27255,0.1215 1.20886,0.55298 1.09375,1.25 -0.14708,0.85689 -1.66542,9.77451 -1.8125,10.625 -0.14068,0.82492 -0.19126,1.1442 -1.40625,1.125 -0.30055,0 -0.45584,0.006 -0.75,0 -0.14068,0.90165 -0.20306,1.34835 -0.34375,2.25 l 16.8125,0 1.1875,-4.21875 -3.40625,-0.15625 c -0.0959,0.37089 -0.12925,0.56661 -0.21875,0.9375 -0.18545,0.729 -0.31903,1.00715 -1.6875,0.96875 C 123.82204,21.48079 119.95921,21.3942 119,21.375 l 0.96875,-4.6875 c 0.69063,0.03837 4.52172,0.23645 5.21875,0.28125 l 0.59375,-2.53125 c -0.70981,-0.05755 -4.57783,-0.3175 -5.28125,-0.375 0.16627,-0.8441 0.70235,-3.37465 0.875,-4.21875 1.08071,0.10232 4.70983,0.36004 5.65625,0.46875 1.06791,0.1215 1.53559,0.23758 1.34375,1.0625 -0.0768,0.31973 -0.1172,0.43026 -0.1875,0.75 l 3.5625,0.40625 1.09375,-4.15625 c -5.8,-0.74178 -11.54774,-1.29731 -18,-1.96875 z M 51.375,7.34375 c -2.71775,0.34532 -7.07073,1.00906 -9.46875,1.4375 0.22382,0.78016 0.33869,1.15735 0.5625,1.9375 0.26218,-0.04472 0.39406,-0.04895 0.65625,-0.09375 1.47717,-0.21742 1.55816,0.12754 1.75,0.84375 0.20463,0.76097 2.32662,8.73903 2.53125,9.5 C 47.57251,21.59543 47.67312,21.968 46.375,22 c -0.28776,0.0064 -0.43739,0.01845 -0.71875,0.03125 0.22381,0.77376 0.33869,1.15735 0.5625,1.9375 l 15.40625,0 -0.8125,-5.15625 -3.46875,0.125 c 0.10232,0.54355 0.14769,0.8002 0.25,1.34375 0.1215,0.69063 0.12692,1.0369 -1.0625,1.0625 -0.88886,0.0192 -3.55503,0.07455 -4.4375,0.09375 C 51.90191,20.5934 49.88574,11.7191 49.6875,10.875 49.51484,10.10124 49.41701,9.7728 50.875,9.59375 51.25229,9.54894 51.46647,9.50715 51.84375,9.46875 51.6647,8.61186 51.55406,8.20065 51.375,7.34375 z"
       transform="translate(223.52209,324.3672)"
       id="path14184"
       style="fill:url(#linearGradient17323);fill-opacity:1;fill-rule:nonzero;stroke:none" />
    <path
       d="m 309.26422,401.29191 0,7.66725 -78.38633,0 0,93.83595 c 0,51.63087 38.57927,94.01499 89.62823,113.18632 l 0,-15.14906 C 359.4307,582.30051 389.3963,535.48485 389.3963,495.29411 l 0,-94.0022 -80.13208,0 z"
       id="path14204"
       style="fill:url(#linearGradient17340);fill-opacity:1;fill-rule:nonzero;stroke:none" />
    <path
       d="m 106.28125,101.09375 c -0.21742,0 -0.375,0.36319 -0.375,1.4375 0,2.37243 -1.20911,5.05395 -2.1875,6.8125 -1.01036,0 -1.85559,0.132 -2.4375,0.375 C 99.58665,110.44774 90.8125,112.25 90.8125,112.25 l 0,145.65625 -6.75,0 0,16.625 12.75,0 0,-12.0625 c 0.213891,0.003 0.786217,0 0.84375,0 5.33958,0 8.78125,-4.50634 8.78125,-9.75 -4.42514,0.94641 -7.21875,-3.27792 -7.21875,-7.84375 0,-5.71047 5.14786,-11.42158 9.9375,-12.125 0.58191,-0.0703 0.55284,-0.47106 -0.125,-1.75 -0.42844,-0.81853 -0.87537,-1.56348 -0.0312,-2.625 12.27784,-15.77574 22.25,-29.90773 22.25,-51.9375 0,-1.72017 -0.1057,-3.14661 -0.40625,-4.125 -6.56737,-6.81036 -17.97919,-10.12841 -23.59375,-12.1875 -3.10148,-1.13187 -4.28125,-4.11876 -4.28125,-7.15625 0,-5.58897 3.18187,-8.40625 6.46875,-8.40625 6.043,0 8.43539,7.34375 13.5,7.34375 1.8097,0 3.86876,-0.87562 6.90625,-2.78125 6.27321,-3.88798 6.58122,-11.61456 7.6875,-16.21875 -0.3581,-0.34531 -1.05153,-0.40625 -1.8125,-0.40625 l -1.3125,0 c -1.77773,0 -1.875,-0.82856 -1.875,-1.5 0,-1.19581 1.09375,-2.09375 1.09375,-2.09375 2.63462,0.19184 3.94149,1.11258 4.59375,1.9375 0.50518,-0.90805 1.8125,-2.2651 1.8125,-3.53125 0,-2.29571 -4.61239,-1.88854 -9.3125,-3.5 -6.00463,-2.0591 -7.125,-3.12476 -7.125,-3.6875 0,-0.2366 0.17604,-0.42966 0.40625,-0.5 0,0 0.59375,-0.80214 0.59375,-1.8125 0,-0.58192 -0.19861,-1.22985 -0.8125,-1.84375 -2.0591,-2.00793 -8.98125,-4.69054 -14.78125,-5.9375 0.25579,-0.43484 0.375,-1.16881 0.375,-1.71875 0,-2.66659 -2.007,-6.03608 -2.25,-6.375 -0.18544,-0.24939 -0.56878,-0.84375 -0.84375,-0.84375 z m 7.1875,13.78125 c 1.90563,0.61389 6.03125,2.2411 6.03125,4.84375 -1.72018,1.04873 -2.85619,1.4375 -3.6875,1.4375 -2.41081,0 -1.86176,-3.39105 -4.65625,-4.0625 -1.04234,-0.24939 -1.4375,-0.53753 -1.4375,-0.8125 0,-0.83131 3.07856,-1.40625 3.75,-1.40625 z"
       transform="translate(223.52209,324.3672)"
       id="path17342"
       style="fill:#000000;fill-opacity:0.43322479;fill-rule:nonzero;stroke:none" />
    <path
       d="m 328.26866,436.98717 c 0,-0.83131 3.06946,-1.41323 3.7409,-1.41323 1.90563,0.61389 6.0494,2.24454 6.0494,4.84719 -1.72018,1.04873 -2.85204,1.4452 -3.68335,1.4452 -2.41081,0 -1.87365,-3.3764 -4.66814,-4.04785 -1.04234,-0.24939 -1.43881,-0.55634 -1.43881,-0.83131 m 55.35899,58.30695 c 0,45.83726 -37.19163,88.3237 -68.74311,101.81653 l 0,-14.05556 c 0.41565,0.0831 0.85689,0.13428 1.3237,0.13428 5.33958,0 8.77354,-4.52105 8.77354,-9.76471 -4.42514,0.94641 -7.20684,-3.28688 -7.20684,-7.85271 0,-5.71047 5.15414,-11.42094 9.94378,-12.12436 0.58191,-0.0703 0.54994,-0.44763 -0.1279,-1.72657 -0.42844,-0.81853 -0.87607,-1.56671 -0.032,-2.62823 12.27784,-15.77574 22.25358,-29.92723 22.25358,-51.957 0,-1.72017 -0.12789,-3.13341 -0.42844,-4.1118 -6.56737,-6.81036 -17.95634,-10.12282 -23.5709,-12.18191 -3.10143,-1.13187 -4.29724,-4.1118 -4.29724,-7.14929 0,-5.58897 3.19096,-8.40904 6.47784,-8.40904 6.043,0 8.43462,7.33473 13.49923,7.33473 1.8097,0 3.86879,-0.88886 6.90628,-2.79449 6.27321,-3.88798 6.57376,-11.5936 7.68004,-16.19779 -0.3581,-0.34531 -1.05512,-0.40287 -1.81609,-0.40287 l -1.29173,0 c -1.77773,0 -1.87365,-0.83131 -1.87365,-1.50275 0,-1.19581 1.07431,-2.11665 1.07431,-2.11665 2.63462,0.19184 3.93914,1.11907 4.5914,1.94399 0.50518,-0.90805 1.82249,-2.24454 1.82249,-3.51069 0,-2.29571 -4.60419,-1.90563 -9.3043,-3.51709 -6.00463,-2.0591 -7.14289,-3.13341 -7.14289,-3.69615 0,-0.2366 0.19824,-0.42205 0.42845,-0.49239 0,0 0.58831,-0.79934 0.58831,-1.8097 0,-0.58192 -0.21742,-1.22778 -0.83131,-1.84168 -2.0591,-2.00793 -8.97817,-4.70011 -14.77817,-5.94707 0.25579,-0.43484 0.38368,-1.14466 0.38368,-1.6946 0,-2.66659 -1.99515,-6.043 -2.23815,-6.38192 -0.18544,-0.24939 -0.58192,-0.85689 -0.85689,-0.85689 -0.21742,0 -0.37089,0.3645 -0.37089,1.43881 0,2.37243 -1.22779,5.05821 -2.20618,6.81676 -1.01036,0 -1.84807,0.1215 -2.42998,0.3645 -1.6946,0.72899 -3.34444,1.58588 -4.94311,2.53869 l 0,-26.17993 68.74311,0 0,88.51555 z m -74.36406,-94.00221 0,7.67365 -78.38633,0 0,93.82955 c 0,51.63087 38.57927,94.01499 89.62822,113.18633 l 0,-15.14907 c 38.92459,-18.53186 68.89019,-65.34752 68.89019,-105.53825 l 0,-94.00221 -80.13208,0 z"
       id="path14208"
       style="fill:#ffffff;fill-opacity:1;fill-rule:nonzero;stroke:none" />
    <path
       d="m 275.92797,535.87557 c 4.18853,11.36979 19.99625,10.19316 12.086,-1.38126 -1.54752,3.83043 -7.7312,5.8 -12.086,1.38126"
       id="path14212"
       style="fill:#c81218;fill-opacity:1;fill-rule:nonzero;stroke:none" />
    <path
       d="m 284.34341,520.97782 c -3.7409,-5.76803 -6.38831,-12.15634 -7.99338,-18.50628 -20.33518,12.91091 -15.08512,39.31466 5.48665,43.54796 -15.43682,-7.40508 -8.05733,-24.24874 2.50673,-25.04168"
       id="path14216"
       style="fill:#c81218;fill-opacity:1;fill-rule:nonzero;stroke:none" />
    <path
       d="m 306.23313,424.80461 c 0.39647,1.29173 0.58192,2.57707 0.58192,3.83682 0,14.20905 -27.77222,28.81456 -27.77222,59.13187 0,15.80772 8.1021,38.4258 27.86814,47.04586 l 0,-42.0452 c -5.25006,-9.69438 -4.1118,-22.15127 1.19581,-31.20617 -9.5473,7.18125 -11.66395,19.64454 -8.59449,31.18059 -15.4624,-19.64454 10.71114,-46.49592 10.71114,-60.94796 0,-2.97993 -1.13826,-5.37155 -3.9903,-6.99581"
       id="path14220"
       style="fill:#c81218;fill-opacity:1;fill-rule:nonzero;stroke:none" />
    <path
       d="m 322.65155,516.34741 c -13.49923,22.15766 -18.38478,37.56251 -18.38478,47.81323 0,7.05336 2.1678,11.83021 5.60176,14.5032 0,0 -2.19339,-3.27409 -2.19339,-10.5129 0,-8.44102 3.15899,-22.40706 16.78611,-43.40088 0.33253,-3.36362 -0.3581,-6.66329 -1.8097,-8.40265"
       id="path14224"
       style="fill:#c81218;fill-opacity:1;fill-rule:nonzero;stroke:none" />
    <path
       d="m 322.87472,602.31083 c 38.73275,-19.17133 68.88379,-65.8591 68.88379,-107.00904 l 0,-96.23396 -84.85777,0 0,7.66726 2.35965,2.22535 0,-7.66725 80.13208,0 0,94.0086 c 0,40.18434 -29.95921,87 -68.88379,105.53186 l 2.36604,1.47718 z"
       id="path14228"
       style="fill:#c81218;fill-opacity:1;fill-rule:nonzero;stroke:none" />
    <path
       d="m 320.50996,600.83045 0,15.00838 C 269.4738,596.69307 230.88813,554.42406 230.88813,502.774 l 0,-93.81036 78.37354,0 -2.35965,-2.23815 -78.37993,0 0,96.04851 c 0,55.42293 41.39934,97.46814 94.33473,116.62029 l 0.0128,-17.08666 -2.35965,-1.47718 z"
       id="path14232"
       style="fill:#2a2666;fill-opacity:1;fill-rule:nonzero;stroke:none" />
    <path
       d="m 269.5921,452.39458 c 0.0256,-7.7312 3.41477,-13.98523 5.37795,-16.83087 l -5.99824,-7.64168 -5.99823,7.64168 c 1.95678,2.84564 5.35237,9.10606 5.37155,16.84366 -0.0192,1.11268 0.20463,1.96317 0.62668,1.96317 0.35171,0 0.62029,-0.68423 0.62029,-1.97596"
       id="path14236"
       style="fill:#2a2666;fill-opacity:1;fill-rule:nonzero;stroke:none" />
    <path
       d="m 271.50731,460.49475 c 0.21103,0.20463 0.21103,0.53716 0,0.74818 l -2.13583,2.14223 c -0.21103,0.20463 -0.54355,0.20463 -0.75458,0 l -2.13583,-2.14223 c -0.20463,-0.21102 -0.20463,-0.54355 0,-0.74818 l 2.13583,-2.14862 c 0.21103,-0.19824 0.54355,-0.19824 0.75458,0 l 2.13583,2.14862 z"
       id="path14240"
       style="fill:#2a2666;fill-opacity:1;fill-rule:nonzero;stroke:none" />
    <path
       d="m 264.56138,459.63467 -0.90165,-0.92084 c 3.82403,-10.12922 -7.11092,-15.3409 -12.18192,-12.27784 -1.07431,-3.51069 1.04873,-7.32194 5.11576,-7.32194 6.54818,0 12.40574,11.67034 7.96781,20.52062"
       id="path14244"
       style="fill:#2a2666;fill-opacity:1;fill-rule:nonzero;stroke:none" />
    <path
       d="m 273.39119,459.63467 0.90165,-0.92084 c -3.82403,-10.12922 7.11092,-15.3409 12.17553,-12.27784 1.0807,-3.51069 -1.03595,-7.32194 -5.10937,-7.32194 -6.54818,0 -12.40574,11.67034 -7.96781,20.52062"
       id="path14248"
       style="fill:#2a2666;fill-opacity:1;fill-rule:nonzero;stroke:none" />
    <path
       d="m 240.96299,498.28748 0,-79.71643 73.92282,0 0,-4.12458 -78.24564,0 0,88.34928 c 0,73.30893 78.24564,104.66858 78.24564,104.66858 l 0,-10.35304 c -40.24829,-18.86438 -73.92282,-48.25446 -73.92282,-98.82381"
       id="path14252"
       style="fill:#2a2666;fill-opacity:1;fill-rule:nonzero;stroke:none" />
    <path
       d="m 276.33459,502.46095 c -17.52899,11.12925 -16.01305,32.28679 -2.09375,40.625 -7.27098,-10.02149 -6.62273,-20.97365 4.03125,-34.375 -0.75367,-2.07012 -1.41043,-4.16483 -1.9375,-6.25 z"
       id="path17426"
       style="fill:#000000;fill-opacity:0.43137255;fill-rule:nonzero;stroke:none" />
    <path
       d="m 288.02209,534.4922 c -1.54752,3.83043 -7.73895,5.79374 -12.09375,1.375 0.29557,0.80232 0.66363,1.54062 1.0625,2.21875 4.34842,3.92716 10.59181,1.99886 12.09375,-1.71875 0.0813,0.11888 0.14256,0.22707 0.21875,0.34375 -0.32926,-0.6884 -0.74501,-1.43411 -1.28125,-2.21875 z"
       id="path14212-4"
       style="fill:#000000;fill-opacity:0.43137255;fill-rule:nonzero;stroke:none" />
    <path
       d="m 322.64709,516.33595 c -13.49923,22.15766 -18.375,37.56178 -18.375,47.8125 0,7.05336 2.15979,11.82701 5.59375,14.5 0,0 -0.0285,-0.0583 -0.0312,-0.0625 -0.009,-0.0117 -0.0226,-0.0195 -0.0312,-0.0312 -2.0584,-2.80178 -3.25,-6.80373 -3.25,-12.09375 0,-10.06407 4.70957,-25.11171 17.65625,-46.625 -0.31537,-1.41978 -0.85345,-2.65039 -1.5625,-3.5 z"
       id="path14224-6"
       style="fill:#000000;fill-opacity:0.43137255;fill-rule:nonzero;stroke:none" />
    <path
       d="m 306.24084,424.8047 c 0.39647,1.29173 0.5625,2.584 0.5625,3.84375 0,14.20905 -27.75,28.80769 -27.75,59.125 0,15.25423 7.52253,36.8542 25.8125,46.09375 -15.73375,-10.08723 -22.28125,-29.83063 -22.28125,-44.0625 0,-28.95159 25.31197,-43.58599 27.59375,-57.21875 0.0161,-0.26425 0.0312,-0.52471 0.0312,-0.78125 0,-2.97993 -1.11671,-5.37574 -3.96875,-7 z"
       id="path14220-0"
       style="fill:#000000;fill-opacity:0.43137255;fill-rule:nonzero;stroke:none" />
    <path
       d="m 308.11584,461.5547 c -9.44344,7.10313 -11.62733,19.38272 -8.70313,30.8125 1.32792,2.53487 3.18418,4.90273 5.70313,6.96875 -4.90824,-9.49539 -5.89483,-20.61181 -0.46875,-29.34375 0.78399,-2.98772 1.95742,-5.85913 3.46875,-8.4375 z"
       id="path14220-3"
       style="fill:#000000;fill-opacity:0.43137255;fill-rule:nonzero;stroke:none" />
  </g>
</svg>
