<?xml version="1.0" encoding="utf-8"?>
<!-- Generator: Adobe Illustrator 13.0.2, SVG Export Plug-In . SVG Version: 6.00 Build 14948)  -->
<!DOCTYPE svg PUBLIC "-//W3C//DTD SVG 1.0//EN" "http://www.w3.org/TR/2001/REC-SVG-20010904/DTD/svg10.dtd">
<svg version="1.0" id="Ebene_1" xmlns="http://www.w3.org/2000/svg" xmlns:xlink="http://www.w3.org/1999/xlink" x="0px" y="0px"
	 width="454.471px" height="527.244px" viewBox="0 0 454.471 527.244" enable-background="new 0 0 454.471 527.244"
	 xml:space="preserve">
<path fill-rule="evenodd" clip-rule="evenodd" d="M58.874,7.137C58.54,7.603,25.235,53.893,7.731,69.309L0,76.119l6.173,8.265
	c0.34,0.461,34.758,48.267,34.758,139.063c0,8.566-0.313,17.386-0.927,26.213c-0.229,2.071-4.1,36.306-14.834,74.788
	c-0.363,1.342-3.464,13.31-3.464,30.58c0,16.693,3.032,41.684,17.474,65.953c19.569,32.883,54.234,55.436,103.034,67.031
	c0.479,0.117,51.362,12.826,78.138,33.826l6.891,5.405l6.894-5.405c26.883-21.085,77.701-33.718,78.211-33.844
	c48.741-11.584,83.391-34.134,102.961-67.014c14.443-24.27,17.476-49.266,17.476-65.959c0-17.271-3.091-29.186-3.442-30.486
	c-10.743-38.514-14.631-72.8-14.859-74.877c-0.612-8.829-0.926-17.648-0.926-26.213l0,0c0-90.8,34.418-138.599,34.767-139.072
	c-0.009,0.01,3.803-5.093,3.803-5.093l2.347-3.142l-7.708-6.822c-17.355-15.287-50.818-61.715-51.155-62.183L390.489,0l-8.145,3.299
	C330.19,24.428,228.349,23.981,227.326,23.974c-1.08,0.007-103.192,0.388-155.187-20.675L63.998,0L58.874,7.137L58.874,7.137z"/>
<path fill-rule="evenodd" clip-rule="evenodd" fill="#FFDD00" d="M62.336,9.623C62,10.093,28.415,56.771,10.548,72.508l-4.778,4.21
	l3.819,5.115c0.388,0.52,35.603,48.841,35.603,141.614c0,8.486-0.296,17.347-0.939,26.575c-0.183,1.677-4.078,36.495-14.978,75.571
	c-0.268,0.99-3.308,12.633-3.308,29.435c0,17.681,3.366,41.074,16.875,63.773c18.957,31.852,52.723,53.742,100.356,65.063
	c0.472,0.117,52.187,12.976,79.784,34.62l4.258,3.343l4.263-3.343c27.595-21.645,79.313-34.503,79.831-34.629
	c47.587-11.312,81.352-33.202,100.307-65.054c13.515-22.705,16.878-46.104,16.878-63.779c0-16.787-3.035-28.409-3.293-29.37
	c-10.916-39.138-14.81-73.957-14.994-75.631c-0.642-9.227-0.94-18.088-0.94-26.575c0-92.771,35.215-141.091,35.604-141.612
	l3.812-5.104l-4.77-4.222c-17.868-15.737-51.451-62.416-51.791-62.886L388.98,5.21l-5.033,2.039
	c-52.922,21.438-155.618,20.994-156.65,20.987c-1.141,0.007-103.838,0.451-156.759-20.987L65.505,5.21L62.336,9.623L62.336,9.623z"
	/>
<path fill-rule="evenodd" clip-rule="evenodd" fill="#00519E" d="M403.351,250.601c-8.007-114.473,36.023-172.912,36.023-172.912
	c-18.671-16.444-52.834-64.042-52.834-64.042c-54.838,22.216-159.29,21.494-159.29,21.494l-0.016,0.031v-0.031
	c0,0-104.452,0.722-159.287-21.494c0,0-34.165,47.597-52.835,64.042c0,0,44.029,58.438,36.023,172.912
	c0,0-3.791,35.917-15.209,76.85c0,0-31.43,116.355,108.87,149.695c0,0,53.317,13.061,82.446,35.903l0,0
	c29.13-22.843,82.45-35.903,82.45-35.903c140.297-33.34,108.867-149.695,108.867-149.695
	C407.142,286.518,403.351,250.601,403.351,250.601L403.351,250.601z"/>
<path fill-rule="evenodd" clip-rule="evenodd" d="M403.975,255.732c-0.428-3.293-0.624-5.131-0.624-5.131
	c-0.149-2.153-0.275-4.282-0.39-6.397H51.526c-0.114,2.115-0.24,4.244-0.391,6.397c0,0-0.193,1.838-0.624,5.131h107.002v224.979
	c3.378,1.022,7.279,2.256,11.527,3.703V255.732h116.405v228.683c4.248-1.447,8.147-2.681,11.525-3.703V255.732H403.975
	L403.975,255.732z"/>
<path fill-rule="evenodd" clip-rule="evenodd" fill="#FFFFFF" d="M51.135,250.601c0,0-0.053,0.494-0.158,1.395H161.25v229.868
	c1.299,0.41,2.654,0.847,4.059,1.307V251.996h123.866V483.17c1.406-0.46,2.763-0.896,4.061-1.307V251.996h110.273
	c-0.105-0.901-0.158-1.395-0.158-1.395c-0.062-0.895-0.111-1.777-0.167-2.666H51.305C51.248,248.824,51.198,249.706,51.135,250.601
	L51.135,250.601z"/>
<path fill-rule="evenodd" clip-rule="evenodd" d="M100.646,276.873c-0.497,0.009-44.481,1.125-46.106,46.726
	c-0.015,0.229-1.422,32.581,40.913,40.896c5.96,0.996,16.705,4.632,16.336,9.035l-0.023,0.272l0.015,0.334
	c0.003,0.026,0.1,2.561-1.521,4.298c-1.206,1.295-3.223,1.986-5.993,2.054c-0.754,0.035-15.794,0.606-19.581-12.293l-1.176-4.005
	l-33.012,9.448l0.472,3.592c0.05,0.375,5.442,37.614,48.141,38.253c0.536,0.003,51.129-0.085,51.889-47.54l-0.012,0.237
	c0.003-0.035,0.028-0.434,0.028-1.125c0-6.22-1.945-36.229-38.884-41.168l-0.119-0.015l-0.123-0.009
	c-3.595-0.278-14.703-2.101-18.456-6.712c-0.788-0.97-1.159-1.948-1.159-3.1c0-0.193,0.019-0.393,0.04-0.595
	c0.302-1.14,1.919-5.344,9.417-4.925c0.46,0.021,9.164,0.489,13.216,9.445l1.674,3.697l30.227-12.431l-0.879-3.521
	C145.896,307.415,137.842,276.841,100.646,276.873L100.646,276.873z"/>
<path fill-rule="evenodd" clip-rule="evenodd" d="M227.864,276.252c-0.419,0.018-47.181,2.804-48.457,68.549
	c-0.021,0.53-1.815,61.154,47.446,68.212c0.646,0.105,17.767,2.722,31.941-8.854c10.954-8.947,16.919-23.622,17.733-43.617
	l0.167-4.134l-32.733-1.84l0.152,4.6c0.103,3.114-0.565,12.173-4.831,16.638c-1.723,1.802-3.891,2.695-6.633,2.728l-0.199,0.009
	c-0.917,0.044-9.012,0.117-11.048-10.778c-2.292-11.616-6.193-43.913,3.082-54.182c0.122-0.132,3.079-3.272,7.702-3.164l0.132,0.003
	l0.179-0.009c1.453-0.056,8.777,0.173,10.658,10.192c0.035,0.243,1.896,13.271,1.896,13.271l3.926-0.27l27.964-2.109l0.029-3.867
	c0.009-1.034,0.026-25.471-15.639-40.409C252.888,279.173,241.626,275.481,227.864,276.252L227.864,276.252z"/>
<path fill-rule="evenodd" clip-rule="evenodd" d="M400.28,371.777c0-3.999-1.324-16.286-15.68-28.096
	c6.123-4.942,15.334-15.258,15.36-32.634c-0.021-9.609-5.08-29.095-24.097-34.163l-0.53-0.141h-0.551H307.72v133.752h68.88
	l0.545-0.149c0.237-0.067,23.121-6.715,23.121-36.387c0-0.398-0.009-0.803-0.015-1.21C400.266,372.524,400.28,372.22,400.28,371.777
	L400.28,371.777L400.28,371.777z M367.239,370.582c0,11.52-8.994,12.255-10.808,12.284c-0.047,0-10.184,0-15.36,0
	c0-5.464,0-19.11,0-24.574c5.063,0,14.558,0.003,14.558,0.003c10.925,0,11.59,10.23,11.61,12.281
	C367.239,370.579,367.239,370.582,367.239,370.582L367.239,370.582L367.239,370.582z M355.535,328.447c-0.038,0-9.413,0-14.452,0
	c0-5.435-0.006-18.773-0.009-24.211c5.083,0,14.707,0,14.707,0c10.752,0,11.452,10.128,11.484,12.161
	C367.266,327.709,357.501,328.421,355.535,328.447L355.535,328.447z"/>
<path fill-rule="evenodd" clip-rule="evenodd" fill="#FFFFFF" d="M118.78,318.246l23.114-9.507c0,0-6.904-27.694-41.243-27.662
	c0,0-40.409,0.542-41.911,42.671c0,0-1.701,28.919,37.523,36.624c0,0,20.563,3.378,19.712,13.509c0,0,0.776,10.506-11.606,10.808
	c0,0-18.913,1.049-23.716-15.311l-25.518,7.304c0,0,4.475,34.008,44.038,34.597c0,0,46.922,0.428,47.624-43.4
	c0,0,2.376-32.798-35.224-37.825c0,0-25.141-1.878-23.416-15.311c0,0,1.727-9.082,13.809-8.405
	C101.968,306.337,113.525,306.636,118.78,318.246L118.78,318.246z"/>
<path fill-rule="evenodd" clip-rule="evenodd" fill="#FFFFFF" d="M272.769,327.595c0,0,0.404-49.67-44.67-47.147
	c0,0-43.276,1.875-44.489,64.436c0,0-2.24,57.366,43.84,63.97c0,0,42.627,6.905,44.88-48.48l-24.018-1.351
	c0,0,0.864,23.508-15.609,23.716c0,0-12.608,0.899-15.431-14.2c0,0-8.643-43.67,4.094-57.773c0,0,4.169-4.702,10.917-4.547
	c0,0,12.331-0.762,15.012,13.646c0,0,0.753,5.086,1.365,9.554L272.769,327.595L272.769,327.595z"/>
<path fill-rule="evenodd" clip-rule="evenodd" fill="#FFFFFF" d="M396.047,372.63c0,0,1.711-15.36-18.65-29.112
	c0,0,18.328-9.287,18.36-32.479c0,0-0.05-24.516-20.974-30.091h-62.862v125.344h64.11
	C376.031,406.292,396.727,400.597,396.047,372.63L396.047,372.63L396.047,372.63z M356.458,387.07H336.87v-32.982l18.762,0.006
	c15.812,0,15.812,16.459,15.812,16.459C371.449,387.07,356.458,387.07,356.458,387.07L356.458,387.07L356.458,387.07z
	 M355.559,332.651h-18.677l-0.012-32.619h18.911c15.609,0,15.686,16.324,15.686,16.324
	C371.467,332.643,355.559,332.651,355.559,332.651L355.559,332.651z"/>
<path fill-rule="evenodd" clip-rule="evenodd" d="M221.038,67.856l-0.018-0.564l-0.516-0.231
	c-44.25-19.764-89.29-18.901-89.739-18.891c-0.45-0.01-45.491-0.873-89.741,18.891l-0.516,0.231l-0.018,0.564
	c-0.009,0.27-0.696,27.315,9.992,59.965c9.872,30.155,31.736,71.421,79.84,96.76l0.438,0.231v0.003l0.004-0.001l0.003,0.001v-0.003
	l0.438-0.231c48.104-25.339,69.968-66.605,79.84-96.76C221.733,95.171,221.046,68.125,221.038,67.856L221.038,67.856z"/>
<path fill-rule="evenodd" clip-rule="evenodd" fill="#FFFFFF" d="M209.314,127.321c-9.74,29.722-31.274,70.348-78.501,95.414
	c-0.016-0.01-0.029-0.019-0.045-0.029v-0.003c-0.001,0-0.003,0.001-0.003,0.001c-0.001,0-0.003-0.001-0.004-0.001v0.003
	c-0.015,0.01-0.029,0.019-0.044,0.029c-47.228-25.066-68.763-65.692-78.502-95.414C42.853,98.748,42.28,74.525,42.28,69.06
	c0-0.249,0.003-0.406,0.004-0.576c43.695-19.352,87.992-18.523,88.472-18.513c0,0,0.003,0,0.004,0s0.004,0,0.007,0s0.004,0,0.004,0
	c0.48-0.01,44.776-0.839,88.472,18.513c0.001,0.17,0.003,0.327,0.003,0.576C219.248,74.525,218.676,98.748,209.314,127.321
	L209.314,127.321z"/>
<path fill-rule="evenodd" clip-rule="evenodd" d="M410.332,67.884l-0.018-0.564l-0.516-0.231
	c-44.25-19.762-89.291-18.901-89.739-18.889c-0.451-0.012-45.492-0.873-89.741,18.889l-0.517,0.231l-0.016,0.564
	c-0.009,0.27-0.697,27.315,9.992,59.965c9.87,30.155,31.737,71.421,79.84,96.76l0.437,0.231v0.003l0.006-0.001l0.003,0.001v-0.003
	l0.439-0.231c48.103-25.339,69.967-66.605,79.84-96.76C411.029,95.199,410.341,68.153,410.332,67.884L410.332,67.884z"/>
<path fill-rule="evenodd" clip-rule="evenodd" fill="#FFFFFF" d="M398.607,127.349c-9.738,29.722-31.274,70.348-78.501,95.414
	c-0.015-0.01-0.029-0.019-0.044-0.028v-0.004c-0.003,0-0.003,0.001-0.003,0.001c-0.003,0-0.003-0.001-0.006-0.001v0.004
	c-0.015,0.009-0.029,0.018-0.044,0.028c-47.227-25.066-68.763-65.692-78.501-95.414c-9.363-28.573-9.935-52.796-9.935-58.26
	c0-0.25,0.002-0.407,0.003-0.577c43.696-19.352,87.993-18.523,88.474-18.511h0.003c0.003,0,0.006,0,0.009,0s0.003,0,0.003,0
	c0.48-0.012,44.777-0.841,88.474,18.511c0.003,0.17,0.003,0.327,0.003,0.577C408.542,74.553,407.971,98.776,398.607,127.349
	L398.607,127.349z"/>
<path fill-rule="evenodd" clip-rule="evenodd" d="M320.218,55.402c0.425-0.009,41.66-0.596,82.866,16.68
	c-0.255,8.454-1.711,29.452-9.589,53.525c-9.252,28.258-29.537,66.649-73.436,90.977c-43.898-24.328-64.187-62.719-73.436-90.977
	c-7.881-24.073-9.337-45.072-9.592-53.525c41.212-17.276,82.441-16.689,82.866-16.68l0.149,0.003L320.218,55.402L320.218,55.402z"/>
<path fill-rule="evenodd" clip-rule="evenodd" fill="#FFFFFF" d="M320.256,57.202c0.416-0.009,40.559-0.563,80.982,16.058
	c-0.354,9.034-2.01,29.036-9.457,51.788c-9.088,27.759-28.942,65.396-71.722,89.468c-42.782-24.07-62.637-61.709-71.725-89.468
	c-7.447-22.752-9.103-42.754-9.457-51.788c40.43-16.62,80.566-16.066,80.985-16.058l0.182,0.004L320.256,57.202L320.256,57.202z"/>
<path fill-rule="evenodd" clip-rule="evenodd" d="M130.496,55.402c0.425-0.009,41.659-0.596,82.865,16.68
	c-0.253,8.454-1.708,29.452-9.589,53.525c-9.249,28.258-29.537,66.649-73.436,90.977c-43.898-24.328-64.185-62.719-73.434-90.977
	c-7.881-24.073-9.337-45.072-9.59-53.525c41.21-17.276,82.44-16.689,82.866-16.68l0.148,0.003L130.496,55.402L130.496,55.402z"/>
<path fill-rule="evenodd" clip-rule="evenodd" fill="#FFFFFF" d="M130.532,57.202c0.417-0.009,40.559-0.563,80.985,16.058
	c-0.356,9.034-2.011,29.036-9.458,51.788c-9.086,27.759-28.941,65.396-71.723,89.468c-42.781-24.07-62.635-61.709-71.722-89.468
	c-7.449-22.752-9.104-42.754-9.46-51.788c40.431-16.62,80.569-16.066,80.987-16.058l0.18,0.004L130.532,57.202L130.532,57.202z"/>
<path fill-rule="evenodd" clip-rule="evenodd" d="M177.335,79.617c-0.507-1.507-1.581-1.377-1.581-1.377
	c-1.805,0.312-2.332,3.672-2.332,3.672c-2.481,2.295-5.077,2.197-5.077,2.197c-0.321-1.689-0.489-3.706-0.489-3.706
	c-0.057-0.344-0.095-0.589-0.141-0.958c-0.236-1.238-0.932-1.771-0.932-1.771c-0.791-0.731-3.668-0.614-3.668-0.614l-1.392-1.657
	c0.674-0.521,0.94-1.296,0.94-1.296c0.664-1.425-0.413-2.524-0.413-2.524c-0.589-0.624-2.24-0.721-2.24-0.721
	c-2.087,0.073-2.539,1.934-2.539,1.934c-0.353,1.705,0.79,2.443,0.79,2.443c-4.702,2.786-7.562,5.95-7.562,5.95
	c7.787,11.035,7.674,16.723,7.674,16.723c0.791,12.888-5.981,13.084-5.981,13.084c-1.468,0.114-2.821-1.081-2.821-1.081
	c0.678-0.394,0.902-1.181,0.902-1.181c1.808-0.394,2.257-0.983,2.257-0.983c-1.129-0.986-1.129-1.967-1.129-1.967
	c2.259-0.69,2.483-1.576,2.483-1.576c-0.902-0.393-1.803-1.77-1.803-1.77c1.579-0.394,2.594-1.967,2.594-1.967
	c-1.581-0.984-2.37-2.361-2.37-2.361c1.017-0.294,2.03-1.573,2.03-1.573c-0.168-1.969-3.271-4.034-3.271-4.034
	c-1.036-0.671-0.227-2.36-0.227-2.36c0.677-1.182,0.227-1.573,0.227-1.573c-0.677,0.195-3.272-0.1-3.272-0.1
	c1.128-0.589,1.692-2.263,1.692-2.263c-4.289-0.59-7.109-3.835-7.109-3.835c-1.431-1.477-1.808-1.575-1.808-1.575
	c-1.128-0.394-1.241-1.377-1.241-1.377c0.847-0.492,0.113-1.181,0.113-1.181c-0.353-0.308-2.257,0.196-2.257,0.196
	c-1.947,0.369-2.256-1.375-2.256-1.375c-1.355-0.196-3.048-1.575-3.048-1.575l-3.385,0.196c-1.368,0.062-1.693-0.196-1.693-0.196
	c-0.902-0.542-1.805-0.69-1.805-0.69c-2.259-0.196-3.385,0.296-3.385,0.296c-1.438,0.354-2.259-1.377-2.259-1.377l-3.609,0.196
	c-0.227,0.984-0.453,1.377-0.453,1.377c-0.453,1.181-1.806,0.394-1.806,0.394c-0.677-0.394-1.693-0.491-1.693-0.491
	c-3.302-0.201-5.754,1.967-5.754,1.967c-1.496,1.487-2.648,1.269-2.648,1.269c-1.033-0.189-1.415-1.86-1.415-1.86
	c-2.597,2.559-5.755,3.64-5.755,3.64c-2.087,0.996-3.274,4.625-3.274,4.625c-0.579,1.771-2.257,4.131-2.257,4.131
	c-2.632,4.329-4.061,12.394-4.061,12.394c-0.214,1.709,0.901,3.346,0.901,3.346c1.017,1.72,0,2.952,0,2.952
	c-1.015,1.34-0.901,2.556-0.901,2.556c0.349,2.357,0.979,4.46,0.979,4.46c-2.517,3.311-2.899,5.77-2.899,5.77
	c-0.042,0.627-2.369,4.525-2.369,4.525c-1.581,3.234,0,3.639,0,3.639c2.977,0.82,3.032,0.683,5.981,0.986
	c0,0,0.549,1.843-0.791,2.162c0,0-2.467,0.74-1.354,3.444c0,0,0.466,1.206,1.354,3.05c-1.128,0-0.677,1.573-0.677,1.573
	c0.255,0.788,2.37,1.083,2.37,1.083c1.579,1.279,0.114,2.852,0.114,2.852c-0.551,0.702-0.791,1.673-0.791,1.673
	c-0.833,3.209,1.355,4.034,1.355,4.034c5.115,1.802,10.381,0.983,10.381,0.983c5.982-0.458,7.562,4.525,7.562,4.525
	c1.317,3.442,7.901,4.525,7.901,4.525c2.143,3.346,2.933,5.509,2.933,5.509c1.392,3.475,1.355,6.788,1.355,6.788
	c12.188,0.023,19.298-12.494,19.298-12.494c2.512-4.229,4.4-6.688,4.4-6.688c3.161-4.009,10.271-6.494,10.271-6.494
	c-4.389-2.95-6.886-4.327-6.886-4.327c-5.754-3.442-4.512-10.134-4.512-10.134c2.82-1.277,2.594-2.36,2.594-2.36
	c-1.509-0.356-1.805-0.983-1.805-0.983c-0.227-0.59,0.337-1.279,0.337-1.279c1.356,0.393,2.257,0.393,2.257,0.393
	c-1.466-1.575-2.257-3.148-2.257-3.148c2.257-0.59,4.515,0.59,4.515,0.59c0.085-1.156-0.677-1.967-0.677-1.967
	c-2.115-2.054-0.902-3.838-0.902-3.838c0.621-0.712,1.072-0.76,1.617-0.454c0.672,0.378,0.64,0.75,0.64,0.75
	c0.226,2.363,0.902,6.1,0.902,6.1c0.494,3.541,0.565,4.033,0.565,4.033c0.93,4.49,4.324,4.296,4.324,4.296
	c5.026-0.262,6.396,0.623,6.396,0.623c2.125,1.329,2.032,6,2.032,6c-1.806,3.344-6.659,7.771-6.659,7.771
	c0.227,2.558,2.259,6.198,2.259,6.198c-1.393,0.706-4.515,3.936-4.515,3.936c-0.902,1.213-7.449,5.902-7.449,5.902
	c1.298,8.525,7.56,8.656,7.56,8.656c5.793,0.198,6.095-2.558,6.095-2.558c1.819-6.48,4.062-9.444,4.062-9.444
	c1.594-2.225,3.839-4.917,3.839-4.917c1.663-1.857,1.69-4.559,1.69-4.559c0.015-2.955,0.34-7.247,0.34-7.247
	c0.13-6.672-1.355-7.869-1.355-7.869c-1.129-1.263-1.129-3.541-1.129-3.541c0.171-3.378-0.469-4.985-0.751-5.706
	c-0.62-1.542-2.594-2.656-2.594-2.656c-1.431-0.674-6.246-1.018-6.246-1.018c-4.23-0.278-3.951-3.212-3.951-3.212
	c0.227-2.689,1.693-2.854,1.693-2.854c2.446-0.264,5.982-0.788,5.982-0.788c8.049-1.211,7.674-10.917,7.674-10.917
	c0.188-8.95,2.991-15.347,2.991-15.347c1.222-2.852,3.104-6.491,3.104-6.491C178.295,81.863,177.335,79.617,177.335,79.617
	L177.335,79.617L177.335,79.617z M148.189,109.462c-0.239,7.783-1.964,6.986-1.964,6.986c-0.587-0.089-0.454-1.188-0.454-1.188
	c0.079-0.746-0.453-1.384-0.453-1.384c-0.766-1.046-6.652-2.372-6.652-2.372c-1.45-0.359-1.664,0.461-1.664,0.461
	c-0.224,1.122,0.754,1.187,0.754,1.187c3.381,0.612,5.292,1.581,5.292,1.581c2.801,1.195,2.42,1.715,2.42,1.715
	c-0.536,1.734-6.486,0.948-6.486,0.948c-1.824-0.163-3.946-1.477-3.946-1.477c-1.21,2.373-2.723,1.582-2.723,1.582
	c2.546-4.315,1.513-7.248,1.513-7.248c-0.94-2.703-5.748-2.241-5.748-2.241c-2.234,0.231-4.304,3.672-4.304,3.672
	c-0.709,0.839-4.314,0.809-4.314,0.809c-0.756-0.396-1.86-0.413-1.86-0.413c-1.292,0.171-2.373-0.246-2.373-0.246
	c-1.33-0.615-3.781-0.394-3.781-0.394c-1.415-0.062-1.361-1.055-1.361-1.055c0.129-1.011,1.058-0.791,1.058-0.791
	c5.181,0.297,5.747,0,5.747,0c0.379-0.11,1.059-0.791,1.059-0.791c1.408-1.075-1.059-1.714-1.059-1.714
	c-1.815-0.396-5.143,0.659-5.143,0.659c-1.73,0.582-7.104,0.264-7.104,0.264c-3.908-0.211-10.888-2.108-10.888-2.108
	c-7.126-1.731-4.688-4.219-4.688-4.219c0.776-1.042,3.479-0.264,3.479-0.264c1.206,0.368,2.418,0.396,2.418,0.396
	c2.244-0.1,2.269,0.659,2.269,0.659c1.663,0.79,6.144,1.34,6.144,1.34c2.522,0.319,2.476,1.295,2.476,1.295
	c1.188,0.415,1.663,0,1.663,0l0.756-0.658c4.235-0.791,8.921,0.527,8.921,0.527c1.487,0.385,1.816-0.265,1.816-0.265
	c0.404-0.813-0.604-0.923-0.604-0.923c-1.601-0.026-2.572-0.394-2.572-0.394c-1.513-0.791-3.478-0.527-3.478-0.527
	c-3.183,0.145-6.502-0.396-6.502-0.396c-2.112-0.135-4.386-1.582-4.386-1.582c-2.988-2.045-5.596-2.503-5.596-2.503
	c-1.655-0.292-5.14,0.132-5.14,0.132c-2.268,0.154-1.512-1.45-1.512-1.45c0.71-1.521,4.233-3.294,4.233-3.294
	c0.851-0.45,0.605-1.452,0.605-1.452c-0.454,0.265-1.361,0-1.361,0c-0.325,1.211-1.361,1.187-1.361,1.187
	c-1.011,0.135-0.908-1.317-0.908-1.317C90.58,90.35,93,89.691,93,89.691c0.442-0.519,0.302-1.317,0.302-1.317
	c0.309-0.381,3.025-0.264,3.025-0.264l0.604,0.527c0.152-0.396,2.117-1.055,2.117-1.055s-0.019-0.004-0.151,0.527
	c-0.135,0.545,0.305,1.055,0.305,1.055c4.988,0.658,7.408,2.897,7.408,2.897c0.939,0.687,0.601,1.375,0.601,1.375
	c-1.241,1.894-7.103-1.375-7.103-1.375c-0.57-0.259-0.756-0.921-0.756-0.921c-0.237-0.456-0.907,0.265-0.907,0.265
	c1.685,2.155,5.821,3.426,5.821,3.426c1.635,0.573,3.929,0.458,3.929,0.458c1.487-0.167,2.345-0.327,2.345-0.327
	c5.142-0.792,6.05,0.658,6.05,0.658l1.21-0.396c0.839-0.25,1.21,0.527,1.21,0.527c0.475,0.709,0.907,0.264,0.907,0.264
	c0.47-0.795,1.964-0.396,1.964-0.396c1.21,0.396-0.151,1.45-0.151,1.45l0.605,0.791c0.303-0.923,1.664-1.45,1.664-1.45
	c-0.152,0.396,0.605,1.055,0.605,1.055c0.756-0.527,2.268-0.132,2.268-0.132c1.699,0.431,0.907,1.978,0.907,1.978
	c-0.507,0.924-3.325-0.397-3.325-0.397c0.857,2.638,3.174,2.109,3.174,2.109c0.957-0.406,1.512-0.264,1.512-0.264
	c1.236,0.289,3.63,0.264,3.63,0.264c2.681-0.243,3.779,0.396,3.779,0.396C148.557,106.412,148.189,109.462,148.189,109.462
	L148.189,109.462L148.189,109.462z M149.704,116.448c-0.866-0.359-0.606-1.978-0.606-1.978c0.264-1.677,1.664-1.449,1.664-1.449
	c1.125,0.164,1.21,0.921,1.21,0.921c0.057,1.567-0.605,2.24-0.605,2.24C150.829,116.862,149.704,116.448,149.704,116.448
	L149.704,116.448L149.704,116.448z M161.348,162.088c0,0-0.98-0.13-3.088,1.772c0,0-1.077,0.996-1.657,1.774
	c0,0-0.012,0.546-0.602,1.181c0,0-0.36,0.507-1.507,0.394c0,0-1.428-0.066-2.032,0.064c1.582,1.378,2.259,2.493,2.259,2.493
	c0.691,1.003,0.3,1.708,0.3,1.708c-0.243,0.463-1.226,0.158-1.226,0.158c-1.443-0.382-4.428-1.796-5.427-6.989
	c1.77-1.28,6.019-4.409,7.031-5.626c-0.003,0.003-0.004,0.004-0.006,0.006l0.092-0.111c-0.023,0.032-0.059,0.07-0.086,0.105
	c0.721-0.744,1.828-1.824,2.773-2.64c0,0,0.486-0.45,1.27-0.412c0,0,1.16-0.018,1.304,0.412c0,0,0.019,1.148,0.488,1.898
	C161.234,158.276,162.229,160.182,161.348,162.088L161.348,162.088L161.348,162.088z M168.212,136.956
	c0.067,0.069,1.096,1.304,1.096,6.381c0,0.256-0.001,0.519-0.007,0.792c-0.01,0.123-0.324,4.307-0.338,7.263
	c-0.079,0.488-0.387,0.918-0.387,0.918c-0.555,0.814-2.032,0.328-2.032,0.328c-0.227,1.567-0.905,1.575-0.905,1.575
	c-1.301,0.095-1.957,0.787-1.957,0.787c0.601,0.526,0.828,1.05,0.828,1.05c0.275,1.08-0.227,2.561-0.227,2.561
	c-0.289,0.771-1.354,0.59-1.354,0.59c-0.979-0.328-1.356-3.151-1.356-3.151c-0.574-2.55-2.408-4.854-2.408-4.854
	c-1.204-1.512-1.146-2.647-1.146-2.647c1.162-1.097,4.535-4.395,6.223-7.239c1.652-2.621,2.829-3.898,2.829-3.898
	C167.799,136.622,168.212,136.956,168.212,136.956L168.212,136.956L168.212,136.956z M154.721,125.335
	c0.212-1.967,1.337-1.359,1.337-1.359c0.671,0.262,1.452,0.425,2.335,0.482c1.866,0.135,4.835,0.385,5.707,0.877
	c0.524,0.271,1.642,1.137,2.038,2.063c0.151,0.36,0.255,0.769,0.444,1.441c0.202,0.713,0.057,0.92,0.057,0.92
	c-0.454,0.659-1.362,0-1.362,0c-1.033-0.614-1.058,0.264-1.058,0.264c0.04,1.56-0.914,2.203-0.914,2.203
	c-0.401,0.401,0.46,1.093,0.46,1.093c-0.832,0.624-1.718,0.196-1.718,0.196c-0.284-0.174-1.216-0.678-3.917-0.838
	c-1.206-0.1-1.622-0.677-1.622-0.677c-0.454-0.659,0.149-0.659,0.149-0.659c0.606,0,1.211-0.527,1.211-0.527
	c0.492-0.425,0.453-0.791,0.453-0.791c-1.497-0.507-3.025-2.503-3.025-2.503C154.666,126.762,154.721,125.335,154.721,125.335
	L154.721,125.335L154.721,125.335z M155.676,129.825c0,0,0.697,0.256-0.379,1.78c0,0-0.885,1.182-1.781,0.639
	c-0.639-0.431-1.336-1.28-1.682-2.947c0,0-0.091-0.921,1.121-0.921c0,0,0.605,0,1.059,0.527
	C154.014,128.902,154.482,129.369,155.676,129.825L155.676,129.825L155.676,129.825z M167.546,84.155
	c0.662,1.204-0.303,2.373-0.303,2.373c-0.784,1.292-1.663,0.923-1.663,0.923c-0.744-0.198-0.303-0.791-0.303-0.791
	c0.224-0.527-0.171-1.459-0.171-1.459c-0.297-0.85,0.776-1.31,0.776-1.31C167.18,83.367,167.546,84.155,167.546,84.155
	L167.546,84.155L167.546,84.155z M158.67,73.428c0-0.129,0.013-0.274,0.047-0.435c0.035-0.126,0.322-0.952,1.296-1.018
	c0.511,0.045,1.115,0.19,1.266,0.315c0.05,0.056,0.335,0.391,0.335,0.87c0,0.164-0.034,0.344-0.122,0.535
	c-0.64,1.51-1.811,1.103-1.811,1.103C158.546,74.578,158.67,73.428,158.67,73.428L158.67,73.428L158.67,73.428z M156.658,79.015
	c0.025-1.107,0.454-1.187,0.454-1.187c2.364-0.659,3.327-1.185,3.327-1.185c1.512-0.791,1.663,0.791,1.663,0.791
	c0.083,0.412-2.873,2.372-2.873,2.372c-1.585,1.042-1.948,0.86-1.948,0.86C156.57,80.429,156.658,79.015,156.658,79.015
	L156.658,79.015L156.658,79.015z M171.694,89.855c-0.114,0.262-2.88,6.671-3.07,15.712c0,0.01,0.001,0.06,0.001,0.148
	c0,1.159-0.243,8.745-6.627,9.706c0,0-0.406,0.069-1.027,0.019c-0.803-0.138-0.835-0.839-0.835-0.839
	c-0.125-1.241,1.059-1.317,1.059-1.317c2.118-0.467,4.535-5.272,4.535-5.272c0.658-1.207-0.151-1.45-0.151-1.45
	c-0.615-0.076-0.908,0.791-0.908,0.791c-0.962,2.637-3.628,4.613-3.628,4.613c-1.059,0.926-1.663,0.132-1.663,0.132
	c-0.708-0.866,0.151-1.581,0.151-1.581c3.995-3.785,3.781-6.592,3.781-6.592c0.029-1.009-0.337-0.981-0.337-0.981
	c-0.719-0.038-0.913,0.955-0.913,0.955c-0.94,3.672-2.834,4.904-2.834,4.904c-1.304,0.801-1.321-0.428-1.321-0.428
	c-0.031-0.316,0.117-0.592,0.447-1.125c0.277-0.447,0.338-0.624,0.338-0.624c0.672-1.822,1.014-4.053,1.014-6.678
	c0-0.671-0.023-1.368-0.067-2.093c0-0.004,0-0.015,0-0.031c0-0.437-0.198-4.904-5.184-13.102c0,0,7.608-6.58,9.921-6.543
	c0.697,0.045,1.305,0.146,1.501,0.268c0.086,0.076,0.444,0.409,0.589,1.178c0.001,0.012,0.138,0.936,0.138,0.936
	c0,0.016,0.04,0.453,0.108,1.085c0,0-1.053,0.696-1.436,1.061c0,0-1.208,1.449-3.023,2.24c0,0-0.385,2.786,0.675,6.771
	c0,0,0.94,4.623,1.14,7.333c0,0,2.208,1.226,1.813-0.792c0,0-0.697-4.115-1.966-6.589c0,0-0.781-1.837,2.117-2.767
	c0,0,1.805-0.546,2.723-2.373c0,0,0.473-1.106,2.72-1.32c0,0,1.008-0.022,2.395-0.012C173.224,86.509,172.367,88.289,171.694,89.855
	L171.694,89.855L171.694,89.855z M176.316,81.914c-0.617,1.085-1.361,0.792-1.361,0.792c-0.864-0.347-0.303-1.582-0.303-1.582
	c0.541-1.409,1.359-1.162,1.359-1.162C177.138,80.492,176.316,81.914,176.316,81.914L176.316,81.914z"/>
<path fill-rule="evenodd" clip-rule="evenodd" fill="#FFFFFF" d="M123.283,120.117c0,0-1.201,1.701,0.199,2.502
	c0,0,2.443,0.924,2.502,0.3l0.4-1.802C126.384,121.118,125.883,119.817,123.283,120.117L123.283,120.117z"/>
<path fill-rule="evenodd" clip-rule="evenodd" fill="#FFFFFF" d="M92.662,109.711c0,0,0.217,1.661,1.601,1.8
	c0,0,1.701,0,2.102,2.703c0,0-1.201-0.501-0.901,1.701c0,0,0.1,0.4-0.601,1.102c0,0-1.8-0.201-1.8-2.002
	c0,0,0.284-1.819-0.702-2.202C92.361,112.812,90.46,111.412,92.662,109.711L92.662,109.711z"/>
<path fill-rule="evenodd" clip-rule="evenodd" fill="#FFFFFF" d="M97.666,114.214c0,0-0.601,0.601,0.398,1
	c0,0,0.401,0.5,0.401,0.901c0,0,0.501,0.5,1.201,0.5c0,0-0.3,0.899,0.8,1.4c0,0,1.223-1.377,0.501-3.001
	C100.967,115.014,98.807,112.361,97.666,114.214L97.666,114.214z"/>
<path fill-rule="evenodd" clip-rule="evenodd" fill="#FFFFFF" d="M130.286,120.517c0,0-1.32-0.226-1.4,2.202c0,0-0.1,0-0.501,0.601
	c0,0-1.4,0.8-1.4,2.301c0,0-1.102,1.701-4.403,0c0,0-1.1,1.601,1.002,2.401c0,0,1.601,0.601,2.3-0.1c0,0,4.304,0.4,5.304-6.104
	C131.187,121.818,131.383,120.828,130.286,120.517L130.286,120.517z"/>
<path fill-rule="evenodd" clip-rule="evenodd" fill="#FFFFFF" d="M125.883,145.033c0,0,1.201,0,1.402,1.201c0,0,0.4,0.8,1,1
	c0,0,1,1.802-1.601,2.301c0,0-0.795,0.195-0.1,3.202c0,0,0.543,1.132-1.1,1.702c0,0-1.771,0.869-2.202-1.901
	c0,0-0.432-1.458,0.5-1.4c0,0,1.301,0.098,1.8,0.599c0,0-0.299-1.8-0.149-2.751c0,0-0.951-0.551-0.851-1.752
	C124.582,147.234,123.995,145.346,125.883,145.033L125.883,145.033z"/>
<path fill-rule="evenodd" clip-rule="evenodd" fill="#FFFFFF" d="M132.188,147.835c0,0-1.501,5.004,1,5.804l-0.3,1.501
	c0,0-2.401-0.7-1.8-5.404c0,0-0.801-0.4-0.601-1.201C130.487,148.535,130.242,147.441,132.188,147.835L132.188,147.835z"/>
<path fill-rule="evenodd" clip-rule="evenodd" d="M145.923,110.506c0,0-7.786-7.443-11.549-7.897c0,0-1.403-0.158-2.518,0.272
	c0,0-0.791,0.444,0.097,0.782c0,0,0.157,0.066,0.27,0.054c0.785-0.085,2.234-0.006,2.377,0.541c0,0,0.132,0.505,2.269,0.659
	c0,0,1.292,0.116,0.454,1.318c0,0-0.262,0.359-2.873-0.461c0,0-4.387-1.384-5.675-2.177c0,0-1.025-0.532-1.437,0.066
	c0,0-0.393,0.645,0.454,1.071c0,0,5.102,2.357,7.673,3.083c0,0,1.523,0.561,2.237,0.066c0,0,0.832,1.386,4.386,1.45
	c0,0,0.833,1.583,2.421,1.715c0,0,0.732,0.932,1.664,0.592C146.174,111.642,146.922,111.391,145.923,110.506L145.923,110.506z"/>
<polygon fill-rule="evenodd" clip-rule="evenodd" fill="#FFFFFF" points="97.866,117.116 98.766,117.615 98.265,118.816 
	97.566,118.015 97.866,117.116 "/>
<path fill-rule="evenodd" clip-rule="evenodd" fill="#009036" d="M285.393,133.726l1.104-1.012v-7.646
	c-1.752-3.312-4.102-6.8-5.906-6.05c0,0-4.392,2.101-5.104-3.003c0,0-0.226-4.578-4.204-4.503c0,0-5.127-0.075-5.704,4.503
	c0,0-0.278,2.852-1.201,3.003c0,0-4.5,1.5-1.799,7.805c0,0,0.58,1.651-0.902,3.302c0,0-4.576,4.334,1.201,10.206
	c0,0,2.892,3.265,2.701,7.206c0,0-0.261,12.533,9.009,13.208c0,0,1.55,2.276,6.003,1.5c0,0,4.752-0.574,4.503-7.204
	c0,0,0.568-0.012,1.403-0.248v-18.105C286.011,136.466,283.781,135.338,285.393,133.726L285.393,133.726z"/>
<path fill-rule="evenodd" clip-rule="evenodd" fill="#009036" d="M378.384,130.124c-1.482-1.651-0.902-3.302-0.902-3.302
	c2.704-6.305-1.799-7.805-1.799-7.805c-0.92-0.151-1.204-3.003-1.204-3.003c-0.574-4.578-5.701-4.503-5.701-4.503
	c-3.979-0.075-4.204,4.503-4.204,4.503c-0.712,5.104-5.104,3.003-5.104,3.003c-1.796-0.746-4.128,2.701-5.877,5.996v7.727
	l1.075,0.986c1.576,1.578-0.53,2.694-1.075,2.947v18.126c0.82,0.229,1.374,0.24,1.374,0.24c-0.249,6.63,4.503,7.204,4.503,7.204
	c4.453,0.776,6.006-1.5,6.006-1.5c9.267-0.675,9.003-13.208,9.003-13.208c-0.185-3.94,2.704-7.206,2.704-7.206
	C382.96,134.458,378.384,130.124,378.384,130.124L378.384,130.124z"/>
<path fill-rule="evenodd" clip-rule="evenodd" fill="#FFDD00" d="M349.189,108.91c-10.676-7.286-29.145-7.976-29.145-7.976
	s-18.469,0.69-29.145,7.976c0,0-4.4,2.659-4.403,9.207v46.03c0,0,11.133,22.414,33.548,30.019
	c22.412-7.605,33.548-30.019,33.548-30.019v-46.03C353.59,111.568,349.189,108.91,349.189,108.91L349.189,108.91z"/>
<path fill-rule="evenodd" clip-rule="evenodd" fill="#E85236" d="M350.59,122.918v3.602c0,12.803,0,35.824,0,36.873
	c-1.802,3.297-12.108,20.807-30.545,27.551v0.001c-18.437-6.746-28.743-24.253-30.545-27.552c0-1.047,0-24.07,0-36.872v-3.602
	l-3.003-3.604v44.83c0,0,11.133,22.414,33.548,30.019v-0.001c22.412-7.604,33.548-30.019,33.548-30.019v-44.829L350.59,122.918
	L350.59,122.918z"/>
<path fill-rule="evenodd" clip-rule="evenodd" fill="#009036" d="M355.588,161.193c0,0-0.305-0.599-1.649-0.249
	c0,0,0.032-1.289-1.201-1.352c0,0-1.395-0.031-1.4,1.352c0,0-1.251-0.65-3.252-0.65c0,0,0.149-5.805-1.951-5.754
	c0,0-0.252-2.634-2.402-2.802c0,0-1.951-0.05-2.001,2.602c0,0-2.602-0.199-2.801,4.003c0,0-2.402,0.3-2.804,3.302
	c0,0-2.602,0.3-2.602-0.901c0,0-1.4,0.45-2.001,1.852c0,0-3.501,1.244-3.703-0.151c0,0-0.1-1.682-1.298-1.9
	c0,0-0.902-0.007-1.301,1.351c0,0-1.778,0.687-2.104-0.551c0,0-0.612,0.899-1.438,0.899c0,0-1.295,0.021-1.644-1.299v0.031
	l-0.009-0.031c-0.352,1.32-1.644,1.299-1.644,1.299c-0.826,0-1.441-0.899-1.441-0.899c-0.322,1.238-2.101,0.551-2.101,0.551
	c-0.398-1.358-1.301-1.351-1.301-1.351c-1.198,0.218-1.298,1.9-1.298,1.9c-0.202,1.395-3.703,0.151-3.703,0.151
	c-0.601-1.402-2.004-1.852-2.004-1.852c0,1.201-2.599,0.901-2.599,0.901c-0.401-3.001-2.804-3.302-2.804-3.302
	c-0.199-4.203-2.801-4.003-2.801-4.003c-0.05-2.651-2.001-2.602-2.001-2.602c-2.153,0.168-2.402,2.802-2.402,2.802
	c-2.101-0.051-1.951,5.754-1.951,5.754c-2.001,0-3.252,0.65-3.252,0.65c-0.006-1.383-1.4-1.352-1.4-1.352
	c-1.233,0.063-1.201,1.352-1.201,1.352c-1.345-0.35-1.649,0.249-1.649,0.249c-1.573,2.553-0.202,4.203-0.202,4.203
	c1.069,1.482,0.551,3.252,0.551,3.252c-0.384,1.758,0,3.003,0,3.003c0.744,2.602,1.901,1.301,1.901,1.301
	c0.7,4.134,2.101,4.803,2.101,4.803c3.302,2.202,6.554,0.35,6.554,0.35c2.602,1.601,3.604-0.601,3.604-0.601
	c1.998,0.201,2.95-2.152,2.95-2.152c2.602,0.201,3.202-2.602,3.202-2.602c1.802-0.199,3.003-2.6,3.003-2.6
	c0.202,4.203,2.001,3.001,2.001,3.001c0.231,1.607,1.852,1.701,1.852,1.701c2.25,0.35,3-2.102,3-2.102
	c2.247,0.394,2.402-0.599,2.402-0.599c0.425-0.914,2.607-0.847,2.637-0.845l0,0h0.003c0.026-0.001,2.212-0.069,2.637,0.845
	c0,0,0.155,0.993,2.399,0.599c0,0,0.753,2.452,3.003,2.102c0,0,1.62-0.094,1.852-1.701c0,0,1.799,1.201,2.001-3.001
	c0,0,1.201,2.401,3,2.6c0,0,0.604,2.802,3.205,2.602c0,0,0.949,2.353,2.95,2.152c0,0,1.002,2.202,3.604,0.601
	c0,0,3.249,1.852,6.554-0.35c0,0,1.4-0.669,2.101-4.803c0,0,1.157,1.301,1.901-1.301c0,0,0.381-1.245,0-3.003
	c0,0-0.519-1.77,0.551-3.252C355.79,165.396,357.161,163.746,355.588,161.193L355.588,161.193L355.588,161.193z M320.033,169.512
	c-0.609,0-1.102-0.896-1.102-2.001c0-1.106,0.492-2.002,1.102-2.002s1.102,0.896,1.102,2.002
	C321.135,168.615,320.643,169.512,320.033,169.512L320.033,169.512z"/>
<rect x="347.944" y="107.637" fill-rule="evenodd" clip-rule="evenodd" width="0" height="0.001"/>
<path fill-rule="evenodd" clip-rule="evenodd" d="M347.944,107.637c-1.939-1.153-4.078-2.12-6.284-2.933l1.986-4.137l-0.012-0.006
	l5.865-12.22l-4.447-2.808c0,0-2.546,3.394-2.977,3.968c-0.521-0.412-2.719-2.137-2.719-2.137l-0.261,0.198
	c-0.009,0.006-0.205,0.155-0.545,0.359l-0.267-2.391l-6.688-2.892l-0.199,0.281l-2.229,3.188c-0.782-1.143-1.462-2.578-2.021-4.342
	l-0.094-0.294h-0.308h-13.74l-0.094,0.294c-0.56,1.761-1.239,3.195-2.021,4.336l-2.423-3.463l-0.313,0.135l-6.375,2.757
	l-0.267,2.396c-0.346-0.208-0.545-0.359-0.554-0.365l-0.258-0.196c0,0-2.197,1.724-2.719,2.136
	c-0.434-0.574-2.979-3.968-2.979-3.968l-4.444,2.808l7.852,16.359c-2.209,0.813-4.351,1.781-6.293,2.937
	c-0.047,0.026-1.143,0.687-1.157,1.808c-0.009,0.875,0.636,1.723,1.916,2.522l5.074,3.025v37.54l0.097,0.042l-0.003,0.004
	l11.956,5.377h20.083l9.674-4.352l2.276-1.025l0,0l0.103-0.047v-37.554l5.042-3.006c1.28-0.797,1.925-1.639,1.925-2.505
	c0-0.007,0-0.015,0-0.022C349.087,108.325,347.991,107.666,347.944,107.637L347.944,107.637L347.944,107.637z M309.835,156.961
	c-0.003-0.001-0.003-0.001-0.006-0.003c-1.641-0.738-8.88-3.996-10.646-4.79c0.346-0.699,5.774-11.681,6.665-13.488l4.863,2.867
	L309.835,156.961L309.835,156.961L309.835,156.961z M311.607,140.203l5.411-5.606h6.018l5.411,5.606l-0.021,0.001l0.92,16.23
	l-4.696-8.3h-9.237l-4.708,8.313l0.926-16.244L311.607,140.203L311.607,140.203L311.607,140.203z M317.426,133.756V125.3
	c0.076-0.023,0.12-0.037,0.12-0.037l5.086,0.018v8.476H317.426L317.426,133.756L317.426,133.756z M310.761,140.602l-4.784-2.821
	c0-2.067,0-8.571,0-9.064c0.243-0.072,2.402-0.716,4.784-1.427V140.602L310.761,140.602L310.761,140.602z M330.22,156.97
	l-0.876-15.423l4.878-2.875c0.882,1.783,6.337,12.822,6.671,13.5C340.228,152.47,331.928,156.202,330.22,156.97L330.22,156.97
	L330.22,156.97z M329.294,140.602v-13.327c2.388,0.716,4.559,1.368,4.805,1.441c0,0.492,0,6.974,0,9.054L329.294,140.602
	L329.294,140.602L329.294,140.602z M341.294,151.087c-1.799-3.642-6.287-12.722-6.354-12.861c0-0.192,0-10.135,0-10.135
	l-12.17-3.633l-5.344-0.018l-12.29,3.65c0,0,0,9.943,0,10.135c-0.067,0.139-4.541,9.188-6.346,12.844c0-5.357,0-32.249,0-35.936
	h42.504C341.294,118.825,341.294,145.784,341.294,151.087L341.294,151.087L341.294,151.087z M348.264,109.466
	c0,0.551-0.527,1.169-1.523,1.789c0,0-4.904,2.924-5.098,3.038c-0.094,0-7.292,0-15.788,0c0.032-0.242,0.076-0.48,0.076-0.731
	c0-3.327-2.698-6.023-6.026-6.023c-3.325,0-6.023,2.697-6.023,6.023c0,0.25,0.044,0.489,0.073,0.731c-8.385,0-15.442,0-15.536,0
	c-0.193-0.114-5.104-3.042-5.104-3.042c-0.987-0.615-1.515-1.233-1.515-1.784c0-0.001,0-0.004,0-0.006
	c0.006-0.647,0.738-1.096,0.744-1.1c1.922-1.143,4.043-2.098,6.229-2.9l3.914,8.153l0.401-0.665
	c3.709-6.133,9.568-9.375,16.942-9.376c7.371,0.001,13.228,3.243,16.937,9.376l0.401,0.665l0.006-0.016l0.012,0.016l3.911-8.15
	c2.183,0.803,4.304,1.758,6.22,2.897c0.006,0.004,0.738,0.453,0.747,1.1C348.264,109.462,348.264,109.465,348.264,109.466
	L348.264,109.466z"/>
<path fill-rule="evenodd" clip-rule="evenodd" d="M278.411,84.312c-2.391,5.336,3.129,8.329,3.185,8.36
	c0.472,0.378,0.765,0.905,0.835,1.569c0.223,2.139-1.992,4.816-2.013,4.843c-1.896,2.666-5.476,0.737-5.628,0.653
	c-7.107-2.924-10.163,0.847-10.292,1.009c-2.657,3.804,1.488,8.164,1.529,8.206l0.979,1.008l-0.264-1.378
	c-0.416-2.212,0.853-4.812,0.867-4.838c2.194-3.23,7.348-0.88,7.4-0.855c6.885,3.675,9.258,2.814,9.504,2.704
	c1.295-0.324,2.312-1.109,2.956-2.312c1.957-3.659-0.237-9.954-0.328-10.22c0.006,0.021-1.192-4.178-1.192-4.178
	c-0.536-2.227,1.239-4.238,1.257-4.257c10.931-12.983,32.593-12.587,32.813-12.582c0.237-0.006,21.902-0.401,32.821,12.571
	c0.029,0.029,1.805,2.041,1.266,4.283c0.003-0.015-1.198,4.185-1.198,4.185c-0.085,0.243-2.276,6.538-0.319,10.197
	c0.642,1.203,1.658,1.988,3.023,2.335c0.179,0.086,2.552,0.948,9.454-2.738c0.035-0.015,5.186-2.364,7.412,0.916l0,0
	c0,0.007,0.92,1.907,0.92,3.835c0,0.319-0.026,0.64-0.085,0.954l-0.261,1.378l0.976-1.008c0.041-0.044,4.187-4.402,1.544-8.188
	l-0.015-0.018c-0.126-0.163-3.185-3.933-10.248-1.03c-0.193,0.104-3.776,2.033-5.651-0.606c-0.041-0.053-2.256-2.73-2.03-4.869
	c0.067-0.664,0.363-1.191,0.899-1.61c-0.009,0.01,5.508-2.982,3.123-8.309c-0.103-0.218-10.348-20.736-41.622-20.736
	C288.756,63.586,278.511,84.104,278.411,84.312L278.411,84.312z"/>
<path fill-rule="evenodd" clip-rule="evenodd" fill="#FFFFFF" d="M283.266,94.154c0.261,2.493-2.101,5.35-2.183,5.443
	c-0.527,0.741-1.178,1.192-1.872,1.449l0.006,0.001c-0.018,0.006-0.035,0.01-0.053,0.018c-0.091,0.032-0.182,0.062-0.272,0.088
	c-1.626,0.557-2.985,0.759-3.94,0.804c0.255,0.098,0.422,0.171,0.434,0.177c6.548,3.495,8.774,2.694,8.854,2.665
	c1.14-0.289,1.954-0.916,2.49-1.915c1.189-2.222,0.63-5.692,0.12-7.787c-0.952-0.735-2.704-1.138-3.656-1.311
	C283.219,93.908,283.254,94.025,283.266,94.154L283.266,94.154z"/>
<path fill-rule="evenodd" clip-rule="evenodd" fill="#FFFFFF" d="M361.532,101.247c-0.943-0.174-1.849-0.65-2.54-1.623
	c-0.1-0.12-2.464-2.977-2.203-5.47c0.015-0.125,0.05-0.237,0.073-0.354c-0.999,0.188-2.769,0.609-3.671,1.368
	c-0.507,2.093-1.04,5.515,0.138,7.717c0.533,0.999,1.348,1.626,2.546,1.935c0.021,0.009,2.25,0.81,8.815-2.695
	c0.009-0.003,0.17-0.075,0.428-0.171C364.225,101.906,362.994,101.717,361.532,101.247L361.532,101.247z"/>
<path fill-rule="evenodd" clip-rule="evenodd" fill="#FFFFFF" d="M360.888,84.677c-0.097-0.202-10.14-20.25-40.86-20.25
	s-40.764,20.048-40.854,20.238c-1.705,3.804,1.189,6.204,2.396,7.006c1.099-2.867,4.242-6.691,4.887-7.46
	c0.064-0.079,0.108-0.127,0.117-0.138c0.003-0.003,0.003-0.004,0.006-0.007c0.003-0.001,0.003-0.004,0.003-0.004v0.001
	c1.559-1.849,3.331-3.422,5.218-4.778c-1.271-1.897-0.328-2.656-0.328-2.656s1.075-0.45,2.098,1.471
	c2.405-1.501,4.957-2.676,7.488-3.595c-0.287-0.029-0.58-0.078-0.879-0.163c-1.603-0.458-2.689-1.576-2.429-2.499
	c0.261-0.924,1.77-1.301,3.372-0.844c1.6,0.458,2.687,1.578,2.426,2.499c-0.021,0.073-0.062,0.136-0.097,0.204
	c2.563-0.784,5.045-1.32,7.28-1.689c-1.157-0.265-2.019-1.293-2.019-2.528c0-1.436,1.163-2.599,2.596-2.599
	c1.436,0,2.599,1.163,2.599,2.599c0,0.965-0.533,1.8-1.315,2.247c4.336-0.584,7.354-0.532,7.427-0.529
	c0.079-0.003,3.079-0.056,7.389,0.521c-0.773-0.45-1.301-1.279-1.301-2.24c0-1.436,1.16-2.599,2.596-2.599
	c1.433,0,2.599,1.163,2.599,2.599c0,1.229-0.858,2.253-2.004,2.522c2.227,0.368,4.702,0.899,7.257,1.676
	c-0.032-0.06-0.07-0.117-0.091-0.185c-0.261-0.921,0.826-2.041,2.426-2.499c1.603-0.457,3.111-0.081,3.372,0.844
	c0.264,0.923-0.826,2.041-2.426,2.499c-0.287,0.081-0.568,0.127-0.841,0.158c2.522,0.914,5.063,2.082,7.462,3.574
	c1.017-1.891,2.083-1.446,2.083-1.446s0.938,0.753-0.313,2.632c1.901,1.361,3.683,2.941,5.25,4.8
	c0.003,0.004,0.023,0.031,0.029,0.038l0.044-0.038c0,0.001,0.006,0.009,0.006,0.01V84.07c0.164,0.19,3.776,4.437,4.995,7.562
	C359.736,90.833,362.572,88.443,360.888,84.677L360.888,84.677z"/>
<path fill-rule="evenodd" clip-rule="evenodd" fill="#FFFFFF" d="M307.38,88.951c1.113-0.352,2.104-1.077,2.982-2.139
	c-0.838-1.194-1.969-2.815-2.191-3.13c-0.545,0.236-5.218,2.257-5.61,2.427c-0.026,0.227-0.144,1.279-0.249,2.246
	C303.539,88.948,305.446,89.561,307.38,88.951L307.38,88.951z"/>
<path fill-rule="evenodd" clip-rule="evenodd" fill="#FFFFFF" d="M332.675,88.951c1.937,0.611,3.85-0.006,5.077-0.601
	c-0.108-0.964-0.226-2.014-0.249-2.241c-0.393-0.17-5.065-2.191-5.61-2.427c-0.223,0.315-1.359,1.941-2.194,3.135
	C330.574,87.876,331.564,88.6,332.675,88.951L332.675,88.951z"/>
<path fill-rule="evenodd" clip-rule="evenodd" fill="#FFFFFF" d="M303.457,91.729h3.683c0,0,1.169,2.859,1.351,3.303
	c0.501,0,6.823,0,7.459,0c0.091-0.596,0.601-4.053,0.601-4.053h6.609h0.36c0,0,0.513,3.457,0.601,4.053c0.639,0,6.961,0,7.462,0
	c0.182-0.444,1.351-3.303,1.351-3.303h3.68c0,0,0.287,4.972,0.311,5.41c0.316,0.16,4.274,2.181,5.962,3.041
	c2.698-5.621,5.382-11.206,5.534-11.527c-0.483-0.305-2.66-1.68-3.158-1.995c-0.396,0.529-3.026,4.037-3.026,4.037
	s-2.493-1.96-2.897-2.276c-0.771,0.533-3.697,2.345-6.908,1.336c-2.607-0.819-4.608-3.341-5.968-7.441c-0.521,0-6.434,0-6.434,0
	s-5.912,0-6.431,0c-1.362,4.1-3.363,6.623-5.971,7.441c-3.208,1.009-6.135-0.803-6.905-1.336c-0.404,0.316-2.897,2.276-2.897,2.276
	s-2.631-3.508-3.026-4.037c-0.498,0.315-2.678,1.69-3.161,1.995c0.155,0.322,2.839,5.911,5.537,11.534
	c1.682-0.857,5.66-2.887,5.977-3.048C303.176,96.7,303.457,91.729,303.457,91.729L303.457,91.729z"/>
</svg>
