<?xml version="1.0" encoding="UTF-8"?>
<!DOCTYPE svg PUBLIC "-//W3C//DTD SVG 1.1//EN" "http://www.w3.org/Graphics/SVG/1.1/DTD/svg11.dtd">
<!-- Creator: CorelDRAW -->
<svg xmlns="http://www.w3.org/2000/svg" xml:space="preserve" width="1715px" height="2081px" shape-rendering="geometricPrecision" text-rendering="geometricPrecision" image-rendering="optimizeQuality" fill-rule="evenodd" clip-rule="evenodd"
viewBox="0 0 1696.19 2058.4"
 xmlns:xlink="http://www.w3.org/1999/xlink">
 <g id="Ebene_x0020_1">
  <metadata id="CorelCorpID_0Corel-Layer"/>
  <g id="_102481144">
   <path id="_104265104" fill="#D9682B" d="M1255.14 109.912c-100.201,-3.05074 -201.239,-24.4211 -302.269,-62.9999 -34.4216,-13.3305 -68.8396,-28.5923 -103.255,-45.5204l0.00350525 -1.39158c-0.56084,0 -1.10883,0.279252 -1.39158,0.558503 -0.55383,-0.282757 -1.11116,-0.558503 -1.38691,-0.558503l0 1.39158c-36.3611,17.7588 -72.443,33.5815 -108.803,47.183 -100.48,38.025 -200.68,58.5657 -300.324,61.3407 -147.663,3.88732 -293.939,-31.6431 -437.715,-109.915 0,0.275746 0,0.558503 0,0.833081l0 324.467c23.8708,569.28 178.473,1007.83 437.715,1342.01 88.2657,114.078 188.743,215.942 300.324,306.712 35.2476,28.5853 71.3295,56.0606 108.803,82.4283l0 1.94191c0.278083,-0.268736 0.833081,-0.550324 1.38691,-0.829576 0.282757,0.275746 0.830744,0.56084 1.38808,0.829576l0.00350525 -1.94191c35.2488,-25.2553 69.6669,-51.3437 103.252,-78.2687 112.136,-90.765 213.443,-192.63 302.266,-306.705 260.905,-334.739 416.895,-774.399 441.045,-1346.18l0.00350525 -324.471c0,-0.274578 -0.00350525,-0.55383 -0.00350525,-0.833081 -145.168,78.8308 -292.272,114.358 -441.041,109.912z"/>
   <path id="_61470056" fill="white" d="M55.7896 344.732c130.177,-61.3407 257.299,-92.4253 381.925,-91.5957 102.143,0.833081 202.344,22.7619 300.324,66.8919 27.4788,12.217 54.6796,26.37 81.6022,41.9146l0.00350525 246.197c-29.1497,3.0519 -56.6262,11.9319 -81.6057,24.9796 -58.2888,31.0857 -101.589,86.8776 -116.3,152.936l-512.378 0c-29.4254,-143.5 -46.9084,-291.439 -53.5719,-441.324z"/>
   <path id="_103228056" fill="#3B342C" d="M844.348 646.719c1.38808,0 2.4934,0.00350525 3.88031,0.00350525 38.5858,0.833081 74.9423,13.3223 104.643,34.6938 47.7415,34.1388 79.1018,89.9319 79.1018,153.215 0,63.0069 -31.3638,119.075 -79.1018,153.215 -29.7012,21.0946 -66.0576,33.8607 -104.643,34.6938 -1.38691,0 -2.49574,0 -3.88031,0 -39.4189,0 -76.0546,-12.2111 -106.31,-33.3069 -49.1296,-33.8631 -81.6057,-90.4857 -81.6057,-154.601 0,-64.1192 32.4761,-121.018 81.6057,-154.882 30.255,-20.8189 66.8907,-33.0265 106.31,-33.03z"/>
   <path id="_60888488" fill="white" d="M1586.55 786.056l-519.878 0c-14.1565,-65.228 -56.6227,-120.46 -113.799,-151.548 -24.1465,-13.3235 -51.0715,-22.2046 -79.1088,-25.8127l0 -243.977c24.15,-17.2073 50.7993,-33.03 79.1088,-46.9073 86.3203,-42.4661 189.293,-67.7249 302.266,-68.2799 119.071,-0.56084 249.248,26.6434 381.646,91.0384 -6.94156,149.885 -20.8189,301.987 -50.2349,445.487z"/>
   <path id="_104253904" fill="#CE2B32" d="M1642.06 300.324c-131.28,-63.0104 -261.464,-90.7626 -386.919,-89.0953 -104.919,1.38691 -206.231,23.588 -302.266,62.7276 -35.8061,14.708 -70.4999,31.9188 -104.643,51.0715 -0.55383,0.272241 -1.11116,0.55383 -1.38691,0.833081l0 1.10532 -0.275746 0c-35.8061,-19.7077 -71.8915,-36.9115 -108.527,-51.3472 -98.5338,-39.135 -199.29,-59.1219 -300.324,-59.6769 -128.235,-0.557335 -257.024,30.2562 -383.313,93.8204 -2.77499,-74.9458 -3.05424,-145.166 -0.829576,-220.943l1.66266 0.830744c127.678,53.2962 255.358,78.2781 382.48,76.0581 100.48,-1.94892 200.678,-20.82 300.324,-56.6227 36.915,-13.0512 73.5542,-28.3166 110.19,-46.0789 34.4192,16.6534 69.113,31.3673 104.643,44.1334 98.2615,35.2476 200.119,55.5127 302.266,58.5681 130.734,4.15956 262.296,-20.2662 387.197,-76.8888 1.94541,70.7757 1.94308,141.283 -0.278083,211.504z"/>
   <path id="_60782928" fill="white" d="M257.854 839.345l-136.837 0c32.586,143.324 77.6717,282.122 136.837,414.239l0 -414.239z"/>
   <path id="_102814592" fill="white" d="M517.375 839.345l-129.619 0 0 656.718c0,0 0.365714,4.50775 49.9592,74.9352 25.1432,35.6005 51.706,70.4333 79.6603,104.48l0 -836.133z"/>
   <path id="_60302792" fill="white" d="M780.505 1052.84c-14.798,-4.33366 -29.0071,-10.1197 -42.4661,-17.2575 -37.7889,-19.8572 -69.3187,-50.166 -90.7626,-87.0669l0 868.896c29.0468,28.5257 59.2656,56.3341 90.7626,83.3315 13.9077,11.8291 28.1074,23.4863 42.4661,35.0432l0 -882.946z"/>
   <path id="_103311056" fill="white" d="M1043.36 944.818c0.0292104,-0.0537472 0.0630945,-0.109831 0.0887997,-0.163578 -21.0747,37.8719 -52.6185,69.1691 -90.5757,89.8197 -13.4952,7.28391 -27.8212,13.2767 -42.7454,17.795l0 887.85c14.4486,-11.5697 28.722,-23.2737 42.7454,-35.2056 31.3977,-26.6528 61.523,-54.0919 90.4869,-82.2495l0 -877.846z"/>
   <path id="_104354632" fill="white" d="M1575.17 839.345l-142.667 0 0 426.619c-4.54748,10.0063 97.3467,-203.31 142.667,-426.619z"/>
   <path id="_103088520" fill="white" d="M1302.88 839.345l-129.899 0 0 842.959c-14.9627,18.0544 42.8377,-51.429 82.1572,-106.863 16.5132,-23.3169 32.3967,-46.9809 47.738,-70.9381l0.00350525 -665.158z"/>
   <path id="_60875672" fill="#CE2B32" d="M387.756 839.345l0 656.718c-49.1284,-77.7184 -92.4288,-158.486 -129.901,-242.31l0 -414.408 129.901 0z"/>
   <path id="_60297632" fill="#CE2B32" d="M647.276 948.148l0 869.33c-46.3534,-45.5239 -89.6526,-92.708 -129.901,-141.834l0 -836.299 99.368 0c0.833081,39.6935 11.9354,76.6119 30.5331,108.803z"/>
   <path id="_61457760" fill="#CE2B32" d="M910.127 1052.24l0 887.919c-20.2615,16.1055 -40.8023,32.2039 -61.8981,47.745 -23.3123,-16.935 -45.7984,-34.4146 -67.7238,-51.9081l0 -883.198c20.2615,6.10264 41.9111,9.16039 63.8435,9.16039 23.04,-0.00350525 44.6838,-3.32999 65.7784,-9.71772z"/>
   <path id="_103306256" fill="#CE2B32" d="M1172.98 839.345l0 842.959c-40.2485,48.5758 -83.2719,95.483 -129.622,140.446l0 -877.932c17.4865,-31.365 27.7511,-67.1676 28.5877,-105.471l101.034 -0.00233683z"/>
   <path id="_102836376" fill="#CE2B32" d="M1432.5 839.345l0 426.619c-37.4723,82.4318 -80.4922,162.092 -129.622,238.701l0.00350525 -665.32 129.618 0z"/>
   <path id="_103953800" fill="#3B342C" d="M1445.97 605.583c0,0.93707 -0.00350525,1.88582 -0.0163578,2.83925 -1.08546,92.2652 -50.2618,146.248 -142.249,156.123l-25.2682 0c-30.3087,-1.10883 -93.5446,-9.52844 -102.388,-23.9934 -1.20581,-1.97579 -1.34134,-4.00066 -0.365714,-6.07577 5.79652,-8.68835 31.8183,-0.285094 50.8261,5.85026l4.60824 1.48038c13.4356,4.29627 34.1388,3.0741 47.8443,2.26673 0,-0.00233683 0.401935,-0.0221999 0.737271,-0.042063 0.00233683,-0.776997 0,-85.0327 0,-85.8085 -0.760639,-0.0338841 -18.5521,-0.827239 -18.5521,-0.827239l-18.0614 -4.17008c-79.6101,-22.3904 -107.781,-73.5881 -107.781,-115.164 0,-0.998996 0.0175263,-1.98865 0.0467367,-2.97479 1.67317,-51.3998 43.6287,-94.6429 104.478,-107.853 -0.962776,-0.852944 -5.56166,-4.91086 -5.56166,-4.91086 -10.0157,-8.74093 -19.481,-16.9946 -25.0392,-29.9629 -5.6271,-12.9507 -8.43948,-25.3009 -8.43948,-36.735 0.00350525,-11.6573 2.91871,-22.3542 8.75144,-31.7821 12.8222,-20.7242 38.837,-33.5955 71.3798,-35.3154l0.0432314 -0.00350525 22.8052 3.337c12.7089,1.8718 61.1713,27.7487 63.9404,47.1538 0.769987,5.41094 -2.21532,9.70721 -8.87529,12.7591l-0.278083 0.126189 -0.209147 -0.232515c-15.11,-17.5064 -48.5886,-38.9644 -72.3764,-41.7697l-13.3328 0.83425c-15.6802,0.766481 -30.9327,12.2707 -37.9408,28.618 -3.54965,7.9908 -5.12935,15.3086 -5.12935,22.0445 0.00350525,26.6761 24.7272,44.262 49.2955,58.9233 0.00233683,-1.44416 0,-49.6344 0,-49.6344l114.562 0.172926 0.962776 1.3577c1.81338,2.52028 2.97479,4.14671 2.97479,6.79668 0.00350525,2.0015 -0.667166,4.60123 -2.23051,8.61824l-0.0993154 0.262894c0,0 -80.0985,0 -80.9187,0 0,0.806208 0,34.2019 0,34.9859 23.0015,0.0233683 47.4389,2.26089 72.8578,6.75228l4.83958 4.34651 1.66032 5.26839c-4.92955,13.2171 -23.4256,8.30978 -38.2832,4.36988 0.00350525,0 -11.2472,-2.70021 -11.2472,-2.70605l-15.5949 -0.564345c0,0 -7.67183,-1.11934 -9.90701,-1.44416 1.30162,1.07144 3.49357,2.88482 3.49357,2.88482 76.5091,38.3989 124.038,79.3378 124.038,163.798l0 0zm-166.269 32.052c0,-0.956933 -0.00233683,-186.953 -0.00233683,-187.64 -30.4513,-7.44048 -60.4504,1.97813 -82.3465,25.8956 -17.2435,18.8407 -26.7194,44.0797 -26.7194,68.4085 0,9.59504 1.47454,19.0499 4.52528,27.9146 11.3512,32.9903 42.5327,55.3678 87.8042,62.9905 0,-0.00350525 15.8332,2.30061 16.7364,2.43031l0.00233683 0zm33.5826 -86.7117c15.9886,5.03938 21.2278,4.67133 38.067,0.743113 9.74693,-2.37072 13.3795,0.491904 14.6777,2.40694 1.81221,2.66983 1.27124,6.53729 -1.43131,10.3358 -6.22766,8.74794 -21.9253,15.0621 -42.9568,9.43847 0,0 -8.26071,-2.12535 -9.19077,-2.36371 0.00350525,1.04924 0,67.871 0,68.7041 0.744282,-0.0163578 14.4627,-0.371557 14.4627,-0.371557 22.2735,-0.903186 55.9216,-2.2714 61.5592,3.44917l0.859955 2.07861c-0.119179,3.05424 -1.39509,5.72992 -3.79852,7.95108 -11.2776,10.4176 -45.3907,9.02368 -63.7173,8.27356 0.00350525,0 -7.77815,-0.239525 -8.53529,-0.266399 0.00350525,0.843597 0,81.5356 0,82.5849 85.0876,-18.2133 106.12,-76.3128 106.12,-129.227 0,-7.68234 -0.441662,-15.2525 -1.19529,-22.5762 -6.02202,-55.938 -44.269,-101.9 -104.925,-126.239 0.00350525,1.27825 0,84.4707 0.00350525,85.0783z"/>
   <path id="_61763976" fill="#985531" d="M941.607 774.223c-0.209147,-0.0899681 -0.431146,-0.179936 -0.378567,-0.1332 -8.22332,-5.53129 -15.929,-7.38323 -22.8683,-5.50441 -8.85777,2.39409 -16.9456,11.0088 -24.0565,25.5042 17.6489,26.0989 26.5406,52.629 26.5406,79.2514 0.00233683,12.2509 -1.87648,24.5251 -5.63411,36.7818 -10.6805,35.521 -36.9383,71.8214 -77.8972,107.917 2.62894,0.0724418 7.03504,0.205641 7.03504,0.205641 23.9268,0 46.9715,-4.53229 68.5008,-13.4426 39.5813,-51.769 59.4023,-99.6893 59.4023,-143.344 0.00233683,-31.3346 -10.2096,-60.4644 -30.6441,-87.2363z"/>
   <path id="_103226976" fill="#985531" d="M1026.22 843.535c0,-11.7005 -1.40794,-23.3602 -4.336,-34.7546 -5.27891,-20.2814 -15.02,-38.4491 -28.798,-53.8769 -9.63126,-7.34701 -18.1969,-10.0355 -25.4668,-7.99781 -8.11115,2.27724 -15.027,10.5905 -20.5805,24.6185 20.7523,27.6249 31.1442,57.5948 31.1442,89.7461 0.00350525,42.535 -18.2729,88.9224 -54.5312,138.716 62.1902,-29.9734 102.565,-93.7433 102.568,-156.451z"/>
   <path id="_102820960" fill="#985531" d="M852.144 814.498c8.90684,-17.9539 21.3996,-25.8197 37.1837,-23.3461 7.74894,-16.0248 16.8451,-25.6795 27.0746,-28.5877 7.91836,-2.24803 16.5868,-0.378567 25.7496,5.2719 6.42746,-15.4652 14.4814,-24.698 23.9934,-27.2638 8.89165,-2.40343 19.1901,0.883323 30.6207,9.75394l0.404272 0.387914c11.1759,12.4507 19.7112,26.2555 25.5077,41.1855 -1.8052,-7.81905 -3.96093,-15.3553 -6.67633,-22.3834 -0.683524,-0.070105 -1.48739,-0.39843 -2.08095,-1.60073 -11.1993,-20.8364 -27.7452,-36.6229 -47.8584,-45.6571 -14.4323,-6.68568 -30.248,-9.64411 -47.0077,-8.79117 -16.2445,0.840092 -32.2273,5.4051 -46.2179,13.2066 -21.9744,11.8524 -39.2027,30.6078 -49.743,53.9633 -0.521114,3.79852 -0.787513,7.26171 -0.787513,10.365 0,7.17525 1.39509,12.467 4.17709,15.804 4.43882,5.22166 12.6096,7.66248 25.6608,7.69169z"/>
   <path id="_103684072" fill="#985531" d="M968.532 716.896c12.3735,5.50208 23.7785,13.9217 33.5815,24.4187 -11.8326,-19.7369 -27.2031,-37.5155 -45.3544,-51.6125 -34.4274,-21.6064 -66.6255,-27.2638 -95.7179,-16.8124 -27.8948,9.82755 -54.2496,34.3491 -78.2524,72.7141 -1.47805,3.79852 -2.21532,7.29793 -2.21532,10.4819 0,3.23301 0.764145,6.13536 2.29127,8.68484 4.54514,7.59237 16.1954,12.5967 34.4882,14.923 0.109831,-0.337672 0.221999,-0.703387 0.221999,-0.703387l-0.285094 0.683524 0.0829576 -0.95226c11.0462,-24.4585 29.2326,-44.193 52.6021,-57.0713 15.4909,-8.45583 31.9714,-13.1599 48.9835,-13.993 17.5192,-0.879818 34.6669,2.32048 49.5736,9.23867z"/>
   <path id="_103207840" fill="#985531" d="M742.955 722.142c3.55199,11.3243 15.3179,18.1806 34.959,20.4017 24.4152,-39.385 51.6989,-64.7467 81.0975,-75.3641 17.802,-6.17275 36.0223,-6.62376 55.2217,-2.0716 -22.4266,-9.35318 -45.8393,-14.3692 -69.8854,-14.3692 -16.3812,0 -33.1036,2.32048 -49.7103,6.90534l0.418293 -0.241862c0,0 -1.50375,0.826071 -1.08195,0.730261 -26.0627,12.7556 -42.7454,33.7006 -51.0189,64.0094z"/>
   <path id="_103751000" fill="#985531" d="M705.552 755.289c0,12.5465 2.24453,24.4585 6.73359,35.6764 10.8791,26.5371 33.8771,48.2194 68.3314,64.4312 10.2423,4.54865 18.8477,8.0317 27.5933,10.2155 8.36587,2.01552 16.3906,2.7154 25.1186,2.21181 0,0 3.36621,-1.02587 3.15356,-0.879818 9.0377,-8.16723 13.1575,-13.9416 14.7045,-20.6307 0.720913,-2.6932 1.03989,-5.5383 1.03989,-8.58553 0,-5.17609 -0.940576,-10.9527 -2.31113,-17.4597 -13.7745,-0.39843 -22.7187,-3.37322 -27.9707,-9.456 -3.85811,-4.77065 -5.71356,-11.2647 -5.71356,-20.1949 0.00233683,-1.54114 0.0852944,-3.18744 0.19162,-4.87464 -19.7568,-2.59856 -32.7414,-8.2759 -38.4351,-16.9584 -2.32048,-3.53913 -3.48305,-7.60523 -3.48305,-12.1469 0,-2.61024 0.53163,-5.43898 1.29811,-8.35652 -21.7022,-2.68619 -34.7499,-11.1584 -38.7307,-25.5077l0.0327157 -1.35536c6.05941,-23.2293 17.5099,-41.4823 33.5488,-54.9086 -19.9928,8.93722 -37.9268,20.7429 -53.1723,35.4544 -7.94173,18.787 -11.9295,36.6158 -11.9295,53.3254z"/>
   <path id="_62010096" fill="#985531" d="M840.935 909.25c0.939407,-2.67567 1.40794,-5.61424 1.40794,-8.86712 0,-3.29026 -0.479051,-6.89249 -1.43832,-10.8639 -1.12519,-5.09196 -3.33583,-10.5672 -6.31062,-15.8753 -9.78783,0.726755 -18.8618,0.00233683 -27.6623,-2.2714 -10.2295,-2.40343 -19.8736,-6.52093 -28.7781,-10.6104 -35.4206,-16.5506 -60.0648,-39.9564 -71.2641,-67.6817 -4.83958,-11.8886 -7.25353,-24.5543 -7.25353,-37.9175 0,-13.3398 2.54014,-27.4005 7.35635,-42.035 -18.3196,20.9392 -31.9807,45.4351 -39.3114,71.3798 0.109831,0.528124 0.261725,1.23268 0.255883,1.14622 6.40409,48.5711 23.3824,84.7885 50.4604,107.64 25.1128,21.3213 60.2915,31.7961 104.4,31.1488 3.21081,-0.581872 5.72057,-1.81689 7.75595,-2.94558 4.88048,-2.7119 8.56566,-7.06074 10.3814,-12.2473z"/>
   <path id="_62009896" fill="#985531" d="M714.374 897.813c-25.5708,-21.7185 -42.3399,-54.8023 -50.0889,-98.1552 -2.22116,11.9284 -3.559,23.6943 -3.559,34.9731 0,17.0776 2.50976,34.4379 7.45333,51.5996 13.4134,34.6366 30.5845,60.6397 51.0283,77.2662 21.9125,17.4129 47.9109,24.3545 77.3025,20.6132 5.01718,-0.477883 9.81821,-1.81221 14.6344,-4.05674 5.31279,-2.79836 9.19077,-6.57702 11.5206,-11.2355 1.96528,-3.92705 2.94908,-8.36937 2.94908,-13.2534 0.00233683,-1.46403 -0.0864629,-2.97128 -0.269904,-4.51126 -0.840092,-6.45784 -3.10098,-13.3795 -6.6296,-20.5513 -44.2386,-0.109831 -78.3879,-10.7868 -104.341,-32.6888z"/>
   <path id="_103303712" fill="#985531" d="M797.283 989.906c-25.5837,3.36738 -48.6412,-1.21165 -68.8793,-13.2463 28.6215,23.4256 63.8131,37.8509 100.632,40.9822 42.6554,-36.832 69.7335,-73.5647 80.4467,-109.185 3.64196,-11.8255 5.46469,-23.6488 5.46469,-35.4439 0.00350525,-25.5977 -8.59487,-51.0551 -25.6596,-76.0511 -14.1075,-2.21532 -24.9001,5.04289 -32.8816,21.8482 0.00350525,0 -0.272241,0.495409 -0.514103,0.939407 1.41028,6.63661 2.36604,12.5733 2.36604,18.0345 0,3.53913 -0.39843,6.88899 -1.32031,10.1197 -1.88349,7.81905 -6.79318,14.7104 -16.7165,23.5915 2.85561,5.79652 5.04639,11.4341 6.44382,16.7399 1.03989,4.03688 1.561,7.91486 1.561,11.6094 0.00233683,4.03805 -0.618093,7.85877 -1.86246,11.4306 -2.28426,6.57702 -6.63077,11.7893 -12.9683,15.5353 -2.59272,1.29811 -5.51843,2.30061 -8.57852,3.12084 3.32648,7.38323 5.51025,14.3248 6.32464,20.584 0.268736,1.84844 0.39843,3.68519 0.39843,5.50091 0.00233683,5.42846 -1.18945,10.6606 -3.56017,15.6404 -3.24002,5.88648 -7.95692,10.4141 -13.9965,13.4321 -4.99615,2.64296 -10.6303,4.2694 -16.7002,4.81738z"/>
   <path id="_102814328" fill="#3B342C" d="M718.61 587.878c-4.72157,-16.3812 -12.7696,-32.1969 -23.8743,-48.2965 1.11233,-5.2719 0.833081,-9.9923 0.557335,-15.2654 0,-2.21999 -0.278083,-4.44115 -0.278083,-6.93806 0,-1.39158 0,-2.7785 0,-4.16307 0.278083,-4.44583 0.278083,-8.60539 -0.83425,-12.4939 13.6027,-23.3123 17.49,-44.1288 14.1565,-72.1626 -4.16307,2.49574 -8.04689,4.99615 -11.1023,8.87997 -0.833081,-4.44115 -1.38691,-8.87997 -2.21999,-13.598 -0.279252,-1.66733 -2.50041,-2.22467 -3.60924,-0.833081 -3.60573,4.43531 -7.21497,8.60189 -11.1023,13.0442 -11.1023,12.7614 -21.3703,26.0919 -20.5408,44.6873 0,1.10532 0,2.22116 0,3.05074 0,0.279252 0,0.279252 0,0.279252l-1.10883 1.66616c-10.823,13.8773 -15.5446,29.1462 -20.5408,44.6873 -1.66383,5.55115 -3.32999,11.1023 -5.2719,16.6534l0 -115.47 -0.554998 -0.551493c-2.77499,-2.49924 -4.99615,-4.44232 -6.93806,-6.38423 -6.10965,-5.2754 -11.1023,-7.7688 -11.3815,-21.0946 -0.275746,-6.10965 3.88732,-9.98996 6.38423,-11.6573 1.94541,-1.66967 4.71807,-1.38691 8.88114,1.10883 0.557335,2.21882 1.11233,3.88849 0.833081,5.2754 -0.55383,6.93923 -7.21381,8.60656 3.88499,16.6534 3.33349,2.21766 7.21731,1.94541 11.6596,-4.16307 1.94191,-2.7785 3.32999,-5.8269 3.60924,-9.43497 0.55383,-4.99732 -0.279252,-10.2727 -2.50041,-15.2689 -2.22116,-4.99732 -5.55115,-9.43613 -9.71422,-12.7685 -2.77616,-1.94541 -6.10615,-3.60573 -9.71422,-3.88148l-0.558503 0c-9.9888,1.10182 -16.6488,4.15956 -21.0911,8.87763 -4.71807,4.71807 -6.93923,11.1023 -8.60539,19.1527 -1.38808,8.3238 0.278083,16.0984 4.16307,23.5927 3.33349,6.94156 8.60539,13.6015 14.4358,19.1527l0 181.803c-0.275746,0.274578 -0.83425,0.274578 -1.11233,0.55383 -5.8269,3.88499 -6.10615,16.0984 -9.98996,22.7619 -4.72157,7.48955 -14.9896,8.88114 -21.0958,14.7104 -8.66849,7.92888 -19.8572,25.2098 -19.7077,24.705l0 -419.681c-7.77114,-1.38691 -15.8192,-2.77148 -23.5915,-3.88031l0 8.32614 -7.77231 0 -9.71422 0c-3.05424,-14.9896 -26.925,-14.1565 -29.9792,-3.60924l-11.6561 -0.00233683c-7.49423,-16.6499 -27.2007,-12.7661 -32.7519,0.00233683l-8.88464 -0.00233683 -6.10498 0c-7.21848,-14.4323 -26.0896,-13.32 -33.0276,0.00233683l-12.4904 -0.00233683c-0.557335,-9.43613 -11.9389,-10.545 -19.9858,-7.21147 -5.54764,2.4934 -9.43847,6.65998 -8.32731,11.6561l-5.54998 0 -10.545 0 0 -11.6596c-8.0539,0.833081 -16.102,1.94541 -24.1523,3.05775l0 125.456c-11.6573,-30.2585 -20.8165,-61.3407 -28.5888,-92.7045 -0.275746,-2.22116 -4.16307,-1.11233 -3.88499,0.829576l32.4738 149.327 0 298.66 230.932 0c0.0595893,-1.29811 0,2.77148 0,6.10498 0,5.2719 17.2108,4.44232 19.4284,4.16307 1.62059,-0.205641 3.2073,-0.375062 4.72157,-0.497746l-0.551493 32.9716 48.0138 0c0.966281,-3.6291 1.74678,-7.06542 2.65932,-10.6349 -0.056084,0.120347 -0.102821,0.250041 -0.16241,0.365714 0.112168,-0.408946 0.25822,-0.800366 0.371557,-1.2023 -0.0736103,0.282757 -0.136705,0.554998 -0.209147,0.836587 0.172926,-0.371557 0.30262,-0.786345 0.344683,-1.28409 10.3861,-36.8192 29.5855,-70.3679 55.5606,-97.1597 13.0477,-13.6027 28.0338,-25.8162 44.1323,-35.8061 0.83425,-19.7077 -0.833081,-36.9185 -5.82573,-53.2927l0 0zm-175.976 -0.282757c-3.32999,-4.16307 -43.2992,-52.4549 -59.6769,-72.7141 20.5408,-13.0477 37.748,-28.0373 49.4077,-49.1296 1.66383,-3.05775 3.32999,-6.38774 4.71807,-9.99581 2.22116,-0.558503 3.88382,-1.38457 5.55115,-2.77265l0 134.612zm0 -162.092c-2.77616,-2.21999 -6.38072,-3.32999 -10.2692,-3.32999 -6.38423,0 -11.9354,3.32999 -14.9896,8.32731l-14.7104 6.93572c-1.66383,-6.10615 -4.71807,-12.2111 -8.60305,-18.5918 -3.88732,-5.83391 -8.88347,-11.6608 -14.9896,-17.2119 5.8304,-9.71656 6.38423,-19.4284 3.60924,-29.6965 -3.05074,-9.99698 -9.71422,-20.5408 -18.0404,-31.9223 1.38691,-2.21766 2.49574,-4.44232 3.32882,-6.93806 0.83425,-2.77966 1.11,-6.10615 0.279252,-10.5485 -0.557335,-3.88732 -3.88732,-8.32614 -7.77465,-13.32 -5.54881,-7.21731 -12.4904,-16.102 -14.4323,-26.9285 -0.275746,-1.9384 -3.32999,-1.9384 -3.88499,-0.274578 -0.557335,3.05424 -1.38691,5.82923 -2.7785,8.32964 -3.05074,6.10147 -7.21497,10.8195 -11.0988,15.2619 -5.2754,5.8269 -9.43497,10.8266 -9.99347,16.6534 -0.278083,3.05074 0.279252,6.38423 1.38808,9.71772 0.829576,2.77499 1.94191,5.2754 3.32999,8.04689 -1.10883,1.38808 -2.21766,3.05424 -3.05424,4.44232 -11.6573,16.9292 -23.8673,34.9731 -12.4869,57.1765 -4.99615,4.44232 -9.71772,9.71539 -14.1565,15.5446 -4.44232,5.8304 -8.88464,12.2111 -12.7685,19.1527l-11.3804 -6.10848c-0.554998,-0.836587 -0.830744,-1.38808 -1.38808,-2.21766 -3.60924,-4.16307 -8.88114,-6.10848 -13.8773,-5.8304 -5.8304,0.275746 -11.9354,3.32999 -14.7115,9.43613l0 -150.714c4.99615,3.60223 10.2692,5.82923 14.7115,5.2719 2.49574,-0.275746 4.99615,-1.38808 6.66231,-3.32999 2.21766,2.77148 4.43882,5.2719 7.21497,7.77231 4.16657,4.16307 8.88114,7.77114 13.8808,11.6561 3.60573,-16.102 5.26839,-24.4258 13.8738,-25.8127 8.88464,-1.39158 17.7658,12.2135 23.0412,22.2034 5.2719,-12.765 11.0988,-22.2034 17.7623,-28.0338l3.05074 -0.00350525 7.49656 0c8.32614,6.94273 13.3235,16.9385 15.5411,28.5958 7.49656,-13.0512 13.605,-25.5381 23.8708,-24.4293 9.99581,1.11233 12.7685,14.7115 13.8773,27.48 6.10848,-7.77231 12.7685,-14.9861 19.9869,-21.3703 4.7204,3.60223 8.32964,5.2719 12.2135,5.2719 3.32999,-0.00350525 6.38423,-1.66733 10.2692,-4.44232l0 143.778z"/>
   <path id="_102833512" fill="#985531" d="M478.518 515.711c17.7646,21.9288 35.8061,43.8577 53.8465,65.5073 2.77616,3.32648 5.54764,6.65998 8.32731,10.2657l0 34.4146 -8.32731 -5.82923 -88.2657 -59.1196c-0.557335,-0.275746 -1.66616,-0.272241 -2.21999,0.00350525l-103.81 72.1626 0 -101.305 13.0477 60.7822c0.279252,1.11233 1.66616,1.66967 2.77616,1.39042 0.274578,-0.00233683 0.829576,-0.278083 0.829576,-0.833081 4.16657,-6.10498 8.32964,-12.2111 13.0477,-18.3196 11.3804,-15.8192 24.9831,-31.3603 40.2485,-46.9049 0.00233683,-0.281588 0,-0.279252 0,-0.279252 0.274578,-0.00233683 0.274578,-0.278083 0.274578,-0.278083 0.279252,-0.833081 0.279252,-1.66733 -0.274578,-2.49691 -12.4939,-10.2751 -23.5962,-22.2046 -33.585,-34.9731l134.336 0c-8.60539,8.60539 -18.5954,16.0984 -29.6977,23.0377 -1.10883,0.55383 -1.10883,1.94541 -0.55383,2.77499z"/>
   <path id="_103212752" fill="white" d="M304.208 356.392c8.88114,28.028 19.7077,55.5103 33.0311,81.8815 0,-0.00350525 0,0 0,0.274578 -0.279252,5.8304 3.05424,12.7696 8.60539,15.8239 2.77148,4.43882 5.2719,8.88464 8.04806,13.0442 4.43882,6.93923 8.87997,13.6015 13.8773,20.2615 10.5473,14.1565 22.2034,27.48 36.0819,38.8604 -0.554998,0.272241 -29.2326,31.2645 -49.6846,60.5076l-0.274578 -0.833081 -49.6846 -229.821z"/>
   <path id="_102779824" fill="#985531" d="M542.634 658.93l-206.507 0 0 -19.9869c1.11233,-0.275746 106.03,-73.5472 106.861,-74.1022 7.77114,4.71456 99.0911,66.3369 99.6461,66.6126l0 27.4765z"/>
   <path id="_61965184" fill="#3B342C" d="M532.365 452.702c-6.38423,-0.272241 -12.4892,-4.16073 -13.3258,-11.3745l0 -0.279252c0,-0.281588 0,-0.279252 0,-0.279252 0,-0.278083 0,-0.274578 0,-0.55383 -0.830744,-9.16039 6.38774,-13.8773 13.3258,-13.8773 6.65998,0 13.0442,4.16307 13.0442,13.0442 0,9.15571 -6.65998,13.3223 -13.0442,13.32z"/>
   <path id="_103890168" fill="#985531" d="M532.365 456.593c-11.1023,0 -19.1527,-9.99698 -16.9315,-20.82l-13.3235 6.10848c-0.322483,0.209147 -0.720913,0.219662 -1.10883,0.136705l0 17.0682c0,0.829576 -1.11233,1.94541 -1.94541,1.94541l-24.9796 -0.00350525c-0.833081,0 -1.94191,-1.10883 -1.94191,-1.9384l0 -11.9389 -58.5681 0 0 11.9354c0,0.829576 -1.10883,1.94541 -1.93957,1.94541l-24.9831 -0.00350525c-0.833081,0 -1.94191,-1.10883 -1.94191,-1.9384l0 -22.0492c-0.55383,0.963944 -1.11817,1.9127 -1.66616,2.89534 -0.554998,0.830744 -1.94191,1.39158 -2.77616,0.833081l-8.88114 -4.7169c1.11233,5.2719 -0.278083,10.5438 -3.60807,14.4323 -3.32999,3.88382 -8.32731,6.10848 -13.8773,6.10848 -0.554998,0 -0.83425,0 -1.38808,0 0,0 0,0 0,-0.279252 0,0 0,0 -0.279252,0l-0.275746 0c-0.278083,0 -0.278083,0 -0.278083,0 0.833081,1.10532 1.38691,2.49691 2.22116,3.60573 4.43882,7.21731 8.87997,14.16 13.8773,21.0981 1.11233,1.66032 2.22116,3.32999 3.60807,4.99381l141.279 -0.00350525c7.77231,-8.59838 14.4323,-18.0345 19.7077,-28.8611 0,-0.281588 0,-0.278083 0.279252,-0.55383 -0.279252,0 -0.279252,0 -0.279252,0z"/>
   <path id="_103039224" fill="#985531" d="M423.004 346.677c-10.6478,16.1055 -22.3168,33.0276 -11.6035,53.392 0.070105,-0.0327157 0.156568,-0.0794523 0.225504,-0.0993154 0.830744,-0.00350525 1.93957,0.829576 1.93957,1.9384l0 22.4838 59.4011 0 0 -22.4838c0,-1.18828 1.24787,-1.95126 2.53313,-2.11834 5.24502,-8.568 5.96594,-17.4001 3.29377,-26.7451 -2.77265,-9.99347 -9.43613,-20.2627 -18.0415,-31.6396 -0.55383,-0.56084 -0.55383,-1.66733 -0.278083,-2.22116 1.66616,-2.7785 3.05424,-4.72157 3.60807,-7.21731 0.833081,-2.22116 0.833081,-4.99732 0.279252,-8.88464 -0.279252,-2.77616 -3.32999,-6.93572 -7.21497,-11.6573 -4.44466,-5.83274 -9.9923,-13.0442 -13.0477,-21.6496 -1.38691,3.0519 -3.05424,5.8269 -4.7204,8.32731 -2.49691,3.88732 -5.55115,6.93806 -8.3238,10.268 -4.44115,4.99732 -8.32964,9.43964 -8.88347,14.1565 -0.275746,2.77265 0.278083,5.2754 1.11233,8.05156 1.10883,2.77148 2.22116,5.8269 3.60457,8.88114 0.279252,0.275746 0.279252,1.38691 0,1.94541 -1.38341,1.65915 -2.49574,3.32999 -3.88382,5.2719z"/>
   <path id="_102357432" fill="#3B342C" d="M457.698 348.619c-3.60573,-5.82923 -8.88114,-9.15922 -14.7104,-9.15922 -5.8269,0 -11.1023,3.32999 -14.708,9.15922 -3.60924,5.2719 -5.8304,12.7661 -5.8304,20.82 0,8.04806 2.22116,15.5411 5.8304,21.0923 3.60573,5.54764 8.88114,9.15922 14.708,9.15922 5.82923,0 11.1046,-3.60807 14.7104,-9.15922 3.60924,-5.55115 5.8304,-13.0442 5.8304,-21.0923 0,-8.0539 -2.22116,-15.5481 -5.8304,-20.82z"/>
   <path id="_102356288" fill="white" d="M454.368 388.314c-3.05074,4.43531 -6.93572,7.21381 -11.3804,7.21381 -4.43882,0 -8.3238,-2.77499 -11.378,-7.21381 -3.32999,-4.72508 -5.2754,-11.3815 -5.2754,-18.8746 0,-7.21731 1.94541,-13.8808 5.2754,-18.5989 3.05424,-4.7204 6.93923,-7.49656 11.378,-7.49656 4.44466,0 8.32964,2.77616 11.3804,7.49656 3.05424,4.71807 4.99615,11.3815 4.99615,18.5989 0,7.49306 -1.94191,14.153 -4.99615,18.8746z"/>
   <path id="_102294968" fill="white" d="M354.446 426.059c-7.21731,0 -13.0442,5.8304 -13.0442,13.3235 0,7.21381 5.8269,13.3223 13.0442,13.3223 7.49306,-0.00233683 13.3235,-6.10848 13.3235,-13.3223 0,-7.49306 -5.8304,-13.32 -13.3235,-13.3235z"/>
   <path id="_103916224" fill="white" d="M532.365 426.059c-7.49306,0 -13.3258,5.8304 -13.3258,13.3235 0,7.21381 5.83274,13.3223 13.3258,13.3223 7.21497,-0.00233683 13.0442,-6.10848 13.0442,-13.3223 0,-7.49306 -5.82923,-13.32 -13.0442,-13.3235z"/>
   <path id="_102274008" fill="#985531" d="M680.304 484.623c-4.99615,-2.50041 -10.5438,-3.60573 -16.6534,-3.32999 0,-0.275746 0,-0.275746 0,-0.55383 -0.55383,-15.5446 7.21848,-27.48 16.6534,-38.5823 3.88732,-4.7204 7.77231,-8.88114 11.3815,-13.3235 2.49574,17.7623 9.9888,49.6846 0.55383,67.4492 -3.32999,-5.55115 -7.49306,-9.15922 -11.9354,-11.6596z"/>
   <path id="_102271848" fill="#985531" d="M554.014 748.303l3.88499 1.39158c2.49924,1.10883 6.93806,0.554998 11.3804,0 4.99732,-0.557335 9.99347,-1.38808 13.3235,0.279252 4.43882,2.49691 7.49306,4.7169 9.71422,6.66348 4.71807,3.60807 7.49306,5.54998 18.8746,3.60807 0.557335,0 1.38691,0.275746 1.94191,0.830744 2.50041,3.60457 3.88382,5.54998 5.2754,6.65881l0.00350525 -0.00233683c1.10532,1.11233 2.77148,1.94892 5.26839,3.33583 7.49306,-26.6493 19.9869,-51.0715 36.0819,-72.9992 16.657,-22.2046 37.1977,-41.633 60.7857,-56.6191 0.836587,-19.4319 -0.829576,-36.3646 -5.54764,-52.4631 -4.44232,-14.9861 -11.3804,-28.8669 -21.0958,-43.5749 -2.77499,17.483 -6.65881,31.6396 -14.9896,42.7454 -8.88114,12.21 -22.7584,21.0911 -45.2411,27.2007 -0.279252,-0.00350525 -0.554998,0 -0.833081,0.274578l0 40.7999c0,0.279252 -0.275746,1.11233 -0.554998,1.39158 -2.22116,2.49574 -4.16307,5.54998 -6.38423,9.43847 -2.22116,4.15606 -4.43882,8.88114 -6.66348,14.7069 -0.550324,1.66383 -3.60457,1.11233 -3.60457,-0.829576l0 -54.4085c-0.275746,0 -0.275746,0.00350525 -0.275746,0.00350525 -0.558503,1.94191 -1.11233,3.60924 -1.66733,5.55115 -1.38691,5.2754 -3.05424,10.2692 -5.82923,14.9896 -3.32999,5.26956 -8.32731,7.77231 -13.3235,10.5485 -3.05424,1.66266 -6.10848,3.05074 -8.60539,5.2719 -12.4904,11.3769 -20.5408,24.4246 -25.2588,38.8604 -4.7169,14.1495 -6.65998,29.6977 -6.65998,46.3464z"/>
   <path id="_62099608" fill="white" d="M661.708 505.719l0 0c-1.38808,-0.279252 -2.49691,0.278083 -3.60924,1.38691 -1.38691,1.11233 -2.21999,3.05541 -2.49574,4.99732 -0.279252,2.21766 0,4.16307 0.829576,5.55115 0.833081,1.38691 1.94541,2.49924 3.05424,2.49924l0 -0.00350525c1.38808,0.282757 2.49691,-0.274578 3.60924,-1.38341 1.38808,-1.11584 2.22116,-3.05541 2.49691,-4.99732 0.278083,-2.22116 0,-4.16307 -0.830744,-5.55115 -0.557335,-1.39042 -1.66616,-2.22116 -3.05424,-2.49924z"/>
   <path id="_104407680" fill="white" d="M628.678 433.272c-2.22116,-2.21766 -4.16424,-3.88382 -5.8269,-5.54998 -6.94273,-6.10615 -10.2727,-9.15688 -13.0477,-23.8684l0.279252 -0.836587c2.22116,-6.93806 4.43882,-11.9319 7.77114,-14.4288 8.04806,-6.10848 16.9292,1.10883 16.0961,9.99347 0,1.94191 -0.830744,3.60573 -1.93957,6.10615 1.10883,2.77148 2.49691,5.54998 4.43882,6.93806 1.38808,1.10532 3.32999,0.554998 6.10615,-3.05424 1.38808,-2.22467 2.49691,-4.71807 2.77499,-7.49306 0.558503,-4.44583 -0.278083,-9.16039 -2.22116,-13.6015 -1.94191,-4.16424 -4.7169,-8.3238 -8.32614,-10.8242 -2.49691,-1.66616 -4.99381,-3.05424 -7.7688,-3.33233 -8.88464,1.11116 -14.7104,3.61158 -18.5989,7.77465 -3.88382,3.88499 -6.10498,9.71422 -7.49306,17.2073 -1.38808,7.21497 0.275746,14.4323 3.60924,21.0958 3.60807,6.65998 8.60189,13.0442 14.4311,18.5954l0.554998 0.829576 0 232.596c0.833081,-2.21766 1.94541,-4.15606 2.7785,-5.82339 2.21766,-3.89083 4.43531,-7.21731 6.38189,-9.71422l0 -222.609z"/>
   <path id="_102822144" fill="#3B342C" d="M316.419 738.035c-1.66266,-10.2692 -3.60924,-20.5373 -4.99265,-31.0822 -1.38808,-13.8843 -1.94658,-28.0338 -2.50041,-42.1904 -0.554998,-10.8266 -0.829576,-21.6496 -1.94191,-32.4761 0,-0.275746 -0.279252,-1.10883 -0.554998,-1.38808 -3.60807,-3.60807 -6.93806,-7.21381 -10.5473,-11.1011 -8.60539,-9.71422 -17.4865,-19.4296 -28.3131,-25.5346l0 -154.048c5.55115,-5.55465 10.8266,-12.2111 14.4358,-19.1527 3.60807,-7.49423 5.55115,-15.2654 3.88382,-23.5927 -1.38808,-8.0539 -3.88382,-14.4311 -8.32614,-19.1527 -4.16307,-4.16657 -9.71422,-6.93923 -17.4865,-8.3238 -1.10883,-0.281588 -2.49691,-0.55383 -3.88732,-0.55383 0,0 0,0 -0.275746,0 -0.279252,0 -0.279252,0 -0.279252,0l-0.275746 0c-3.60807,0.551493 -6.66348,1.9384 -9.43497,3.88148 -0.558503,0.55383 -1.39158,1.11116 -1.94541,1.94541 -3.32999,2.77148 -5.8269,6.65998 -7.7688,10.823 -1.94541,4.99265 -3.05424,10.2716 -2.50041,15.2689 0.554998,3.60457 1.66383,6.65998 3.60573,9.43497 2.50041,3.32999 4.72157,4.71807 6.66348,5.2719 1.94541,0.279252 3.60807,0 4.99615,-1.10883 2.77616,-2.22467 4.71807,-6.10498 6.10615,-9.71422 0,-0.279252 0,-1.38808 0,-1.66616 -1.38808,-2.49691 -1.94308,-3.88499 -2.22116,-5.27307 0,-1.39042 0.278083,-3.05424 1.11233,-5.2754 0.55383,-0.278083 0.829576,-0.55383 1.38691,-0.833081 0,0 0.275746,0 0.275746,-0.275746l0.279252 -0.00233683c1.66616,-0.83425 3.05424,-1.10649 4.16307,-1.10649 1.11233,0 1.94191,0.275746 2.77499,1.10883 2.50041,1.66383 4.44232,5.8304 6.38423,11.6573 -2.21999,11.1011 -4.7169,14.7104 -9.15922,18.8734 -0.833081,0.83425 -1.66616,1.66733 -2.49691,2.22116 -0.55383,0.551493 -1.11233,1.11233 -1.66616,1.39158 0,0.275746 -0.279252,0.275746 -0.279252,0.550324 0,-0.00233683 -0.275746,0 -0.275746,0.279252 -1.38691,1.11233 -2.77499,2.49691 -4.44232,4.16307 -0.278083,0.275746 -0.55383,1.10883 -0.55383,1.38808l0 106.028 -6.38423 0 0 -1.11233c-1.10883,-8.04806 -3.32999,-15.8204 -6.66348,-23.3134 -4.71807,-10.8266 -11.378,-20.5408 -19.4249,-29.1427l-1.11233 -4.16307c0,-3.05541 0,-5.8304 -0.279252,-8.88114 -0.275746,-6.10965 -0.275746,-11.9389 -0.833081,-17.7658 -1.10883,-9.43847 -2.77616,-18.5954 -7.21497,-27.7546l-4.44115 -9.43964c-0.554998,-1.39042 -2.77616,-1.38691 -3.32999,0.00350525 -0.558503,0.827239 -1.11233,1.66383 -1.66383,2.49691 -1.11233,1.94191 -2.22116,3.88499 -3.60924,5.8269 -0.833081,1.38457 -1.66616,2.7785 -2.49924,4.16307 -0.554998,-1.38457 -1.10883,-2.77616 -1.94541,-4.16307 -1.10883,-2.50041 -2.21766,-4.99732 -3.60573,-7.49306 -0.554998,-1.10883 -1.94191,-1.38457 -2.77616,-0.830744 -11.3804,8.04455 -16.6523,21.9253 -18.0404,37.1907 -1.94191,19.4319 2.22116,41.3573 8.04806,55.2346 -0.554998,6.10264 -3.32999,8.32731 -6.65998,11.1058 -2.50041,1.94191 -5.2754,4.15956 -7.77231,8.04806 -2.77616,4.43882 -3.88499,9.71422 -4.72157,14.7104 -0.274578,1.10883 -0.55383,2.22116 -0.829576,3.32999l0 0.551493c0.554998,5.00316 2.22116,8.88347 4.71807,12.4962 2.22116,2.76915 4.7169,5.2719 7.77231,7.49306l-4.44232 9.98646c-2.22116,6.94273 -4.71807,13.8808 -7.21848,20.5443 -5.82573,16.6499 -11.6561,33.0311 -14.7069,50.7958 -5.55115,32.4703 -7.49656,65.5038 -8.32731,98.5338 0,-0.00233683 0.279252,1.10883 0.554998,1.10883l3.05074 3.88499 0.279252 0.279252c5.55115,4.16307 7.77231,4.16307 4.99615,3.05074l-3.60807 30.81 117.962 0 0.279252 0c1.38691,0 34.1388,0 49.4042,0 0,-0.279252 0,-0.554998 -0.275746,-0.554998l-7.49656 -18.3231 21.6508 1.94892c1.11116,0 2.2235,-1.11233 1.94541,-2.22116 -1.11233,-9.71422 -2.77616,-19.1527 -4.72157,-28.8704z"/>
   <path id="_103726744" fill="white" d="M254.245 540.413l0 -107.14c0.279252,-0.274578 0.554998,-0.55383 1.11233,-0.829576l0 -0.279252 0.275746 -0.274578 0.279252 -0.282757c1.66616,-1.38457 3.05424,-2.77265 4.16307,-3.60223 0,-0.285094 0,-0.281588 0.279252,-0.281588 6.93806,-6.10615 10.268,-9.15688 12.765,-23.8684l0 -0.836587c-2.21766,-6.93806 -4.71456,-11.9319 -7.7688,-14.4288 -1.66616,-1.11116 -3.33349,-1.66616 -5.2754,-1.66616 -1.38808,-0.00350525 -2.49691,0 -4.16307,0.554998l-0.279252 0.274578 -0.275746 0c-1.38691,0.562009 -2.77499,1.39158 -4.16657,2.22467 -0.275746,0.272241 -0.829576,0.833081 -0.829576,1.10883 -1.11233,3.32999 -1.66733,5.2754 -1.38808,7.49656 0.275746,1.94191 0.833081,3.60573 2.21766,6.10615 -1.38457,2.77148 -2.77148,5.54998 -4.43882,6.93806 -0.829576,0.551493 -1.66266,0.554998 -2.77499,0 -1.10883,-0.281588 -2.22116,-1.38808 -3.32999,-3.05424 -1.66733,-2.22467 -2.49691,-4.71807 -2.77966,-7.49306 -0.55383,-4.44583 0.282757,-9.16039 1.94658,-13.6015 1.10883,-2.22467 2.49574,-4.43882 4.16307,-6.66348 1.38691,-1.66032 2.77499,-3.0519 4.44232,-4.16073 1.94191,-1.66616 4.43882,-2.77499 6.93806,-3.05424l0 -0.281588 0.275746 0 0.279252 0 0.275746 0c1.39042,0.281588 2.49924,0.281588 3.88732,0.56084 6.66348,1.38808 11.3804,3.88382 14.7104,7.21731 3.88499,3.88499 5.8304,9.71422 7.21848,17.2073 1.38691,7.21497 -0.279252,14.4323 -3.60924,21.0958 -3.33349,6.65998 -8.60539,13.0442 -14.1565,18.5954 -0.275746,0.275746 -0.55383,1.10883 -0.55383,1.66616l0 152.378c-1.38808,-0.557335 -2.49691,-0.829576 -3.60924,-1.38457l-0.279252 0c0,0 0,0 0,-0.274578 -0.275746,0 -0.275746,0 -0.275746,0 -0.278083,0 -0.278083,0 -0.278083,0 -0.275746,0 -0.275746,0 -0.275746,0 0,-0.282757 0,-0.279252 0,-0.279252l-0.279252 -0.00350525 -0.278083 0c-0.275746,-0.279252 -0.830744,-0.275746 -1.38457,-0.55383 -0.279252,0 -0.558503,-0.275746 -0.836587,-0.275746 0,-0.00350525 0,0 -0.275746,0l-0.279252 -0.00350525 -0.275746 0c-0.278083,0 -0.278083,0.00350525 -0.278083,0.00350525l-0.279252 -0.00350525 0 0.279252c0,0 -0.275746,0 -0.554998,0l0 -49.1296z"/>
   <path id="_104594560" fill="white" d="M215.664 506.828c0.833081,0.275746 1.39042,0.557335 2.22467,1.11233 1.38691,0.829576 2.49574,2.49574 3.05074,4.43882 0.55383,1.94191 0.279252,3.88732 -0.279252,5.55349 -0.829576,1.38457 -1.94191,2.50041 -3.32999,2.77616 -0.55383,0.272241 -1.10883,0.275746 -1.66616,0.275746 -0.829576,-0.275746 -1.66383,-0.551493 -2.49691,-1.10883 -1.38808,-1.10883 -2.49691,-2.49691 -2.77499,-4.71807 -0.554998,-1.94191 -0.554998,-3.88732 0.278083,-5.2754 0.554998,-1.38808 1.66383,-2.49691 3.0519,-3.05424 0.557335,0 1.39042,0 1.94191,0z"/>
   <path id="_104426104" fill="#985531" d="M198.735 427.443c0.279252,-0.275746 0.279252,-0.275746 0.279252,-0.551493 1.10532,-1.66967 1.94191,-3.05074 3.05074,-4.71807l2.77616 5.8304c6.65998,14.1495 7.21731,28.8646 7.77231,44.1299l0.55383 9.71071c-5.54764,-2.21766 -10.268,-0.551493 -14.153,2.50275 -3.33349,2.77616 -6.38774,6.65998 -8.6089,9.99347 -0.275746,0.275746 -0.275746,0.275746 -0.275746,0.554998 -0.278083,-0.00350525 -0.278083,0.274578 -0.278083,0.274578 -0.275746,0.279252 -0.275746,0.279252 -0.275746,0.279252 -0.275746,0.272241 -0.275746,0.275746 -0.554998,0.554998 -8.60539,-31.6431 -2.77499,-47.7415 9.71422,-68.5615z"/>
   <path id="_104408488" fill="#985531" d="M215.664 758.297c-5.54764,-0.550324 -72.4418,-6.10147 -76.8807,-9.15571l-2.22116 -3.05775c0.829576,-32.1911 2.77148,-64.9429 8.04689,-96.8641 3.05424,-17.4865 8.88464,-33.8607 14.7115,-50.2384 2.22116,-6.65998 4.7169,-13.3235 6.93806,-20.5408l4.16657 -9.43964c0,0 0,0.00350525 0.275746,0.00350525 0,-0.00350525 0,0 0.275746,0 0,-0.00350525 0.279252,0 0.279252,-0.278083 0,0 0,0 0.275746,0 5.55349,-3.32999 8.05039,-5.55115 9.71656,-6.93923 1.10883,-0.836587 1.66383,-1.38808 2.49691,-1.66616 3.05424,-0.836587 9.71422,0.278083 15.2689,1.38691 2.77265,0.558503 4.99381,1.11233 6.65998,1.38808 3.32999,1.10883 6.65998,1.94541 9.98996,2.50041 8.32964,1.66616 16.9315,0.833081 23.595,-5.55115 2.49691,-2.22467 3.88499,-4.99732 4.71807,-7.7688 0.833081,-3.05775 0.833081,-6.38774 0.55383,-9.71772l5.8304 0 0 48.5676c-2.22116,1.11233 -4.43882,1.94892 -6.38423,3.05775 -10.5485,5.55115 -19.9834,12.2111 -28.3131,20.5384 -6.10615,5.54764 -11.6561,11.9377 -16.6499,18.8769 -18.3231,24.7003 -30.81,55.5103 -40.5277,86.8741 0,0.554998 0,0.833081 -0.278083,1.38808 0,0.279252 -0.275746,0.833081 -0.275746,1.11233l0 0.275746c-0.279252,0.274578 -0.279252,0.836587 -0.279252,1.11116 -0.275746,0.551493 -0.275746,0.83425 -0.275746,1.38808 -0.274578,0.830744 0.554998,2.21766 1.38808,2.21766 1.94541,0.279252 3.88499,0.558503 6.10615,0.836587 11.1011,1.66383 21.3739,3.32999 33.03,3.88499 0.279252,0 0.833081,-0.279252 1.11233,-0.554998 0.275746,0 0.551493,-0.278083 0.551493,-0.278083 5.82923,-7.77231 11.1046,-16.0996 16.0984,-24.7015 0,-0.278083 0,11.9354 0,11.9354 0.279252,13.3164 0.833081,26.3677 1.39042,39.4119 -0.557335,-0.00350525 -1.11116,0 -1.39042,-0.00350525z"/>
   <path id="_104653488" fill="#985531" d="M294.773 762.743c-1.38808,0 -2.50041,1.38808 -1.94541,2.77265l7.49656 18.5954 -12.2146 0 7.49306 -73.2726c0,-0.833081 0.279252,-1.94191 -1.66616,-1.94191 -1.94191,-0.282757 -2.21766,0.55383 -2.21766,1.66266l-7.49656 73.2761c0,0.275746 0,0.278083 0,0.278083l-10.2692 -0.00233683 7.49656 -59.3988c0,-0.829576 0.275746,-1.9384 -1.66967,-1.9384 -1.9384,-0.282757 -2.21766,0.55383 -2.21766,1.66616l-7.49306 59.6711 -48.2965 0c0,-7.7688 -0.279252,-15.5411 -0.55383,-23.3099 0,-0.282757 0,-0.279252 0,-0.279252 -0.558503,-13.8843 -1.38808,-27.48 -1.66733,-41.3573 0,-0.275746 0,-10.5473 0,-10.8266l6.66348 -19.4284c0.275746,-0.275746 0.275746,-0.551493 0.554998,-0.833081l0 -0.275746c0,0 0,0 0,-0.279252l0.274578 -0.00350525c0,0 0,0.00350525 0,-0.272241 0,-0.278083 0,-0.278083 0,-0.278083 0,0 0,0 0.279252,0l0 -0.279252 0 -0.275746c0,0 0,0 0.275746,0 0,0 0,0 0,-0.278083 0,0 0,0 0,-0.279252 0,-0.275746 0,-0.275746 0,-0.275746 0,0 0,0 0.279252,0l16.0984 -25.5369 3.88732 -6.38189c0.275746,-0.281588 0.275746,-0.55383 0.275746,-0.836587 0.833081,-4.99615 -1.38808,-3.60457 -4.16307,-0.829576 -3.05424,3.32999 -6.66348,8.32614 -7.7688,9.99347 0,0 0,0.278083 -0.279252,0.278083 0,0.275746 0,0.275746 -0.279252,0.554998 0,0 0,0.275746 -0.278083,0.275746 0,0.278083 0,0.278083 -0.275746,0.55383 0,0 0,0.279252 -0.279252,0.279252 0,0.275746 0,0.55383 -0.275746,0.55383 0,0.275746 0,0.279252 -0.278083,0.554998l-0.279252 0.279252c0,0.275746 -0.275746,0.55383 -0.275746,0.55383 0,0.279252 -0.279252,0.279252 -0.279252,0.554998 0,-0.00350525 -0.274578,0.278083 -0.274578,0.55383 -0.279252,0 -0.279252,0.282757 -0.279252,0.282757 -0.279252,0.275746 -0.279252,0.55383 -0.279252,0.55383 -0.275746,0.272241 -0.275746,0.275746 -0.275746,0.554998 -0.278083,0.275746 -0.278083,0.275746 -0.55383,0.55383 0,0.275746 0,0.275746 -0.279252,0.554998 -2.77499,4.99265 -4.99615,10.8266 -8.05039,15.8227l-0.275746 0.275746c-0.557335,1.66616 -1.38808,2.7785 -2.22116,4.43882 0,0.279252 0,0.279252 0,0.279252 -0.279252,0 -0.279252,0 -0.279252,0 -1.66616,3.05074 -3.32999,5.82923 -4.99615,8.60539 -5.2719,9.15922 -10.545,18.3196 -16.6499,26.925 -0.557335,0.826071 -1.11233,1.66266 -1.94541,2.49691 -11.378,-0.558503 -23.0377,-1.94308 -34.4181,-3.88499 -0.279252,0 -0.279252,0 -0.279252,0l-0.275746 0c-0.279252,0 -0.279252,0 -0.279252,0 0,-0.281588 0,-0.279252 0,-0.279252l-0.274578 -0.00233683c8.88347,-29.6941 19.9858,-57.1776 37.4723,-83.2661 0.275746,-0.279252 0.551493,-0.833081 0.829576,-1.10883 4.71807,-6.94156 9.99347,-13.6015 15.8204,-19.4284 8.60539,-9.16273 18.0439,-16.935 28.3131,-22.2069 2.77499,-1.38808 5.82923,-2.77616 8.88114,-3.88499l2.22116 -0.836587 0.278083 0 0.275746 0c0.279252,0 0.279252,0.00350525 0.279252,0.00350525l0.55383 -0.00350525c1.38808,0.554998 2.50041,1.11233 3.60924,1.39158 13.0442,5.54998 23.0377,16.6523 33.03,27.7546 3.33349,3.60924 6.65998,7.21731 9.99347,10.5473 0.833081,10.8266 1.38808,21.375 1.66383,31.9188 0.55383,13.8808 1.11233,28.0338 2.77499,42.4696 1.38808,10.5438 3.33349,20.8165 4.99732,31.3603 1.66616,8.6089 3.32999,17.2143 4.43882,26.0919l-22.2011 -2.21766z"/>
   <path id="_103583584" fill="#3B342C" d="M232.875 752.195c0.55383,-1.39158 0.833081,-2.77616 1.38808,-4.16424 1.10883,-2.7785 1.94541,-5.2719 2.22116,-8.05039 0.278083,-2.7785 0,-4.99615 -0.275746,-7.21731 -0.279252,-3.60573 -0.836587,-6.93572 0.829576,-12.4904l0.275746 -0.55383 24.15 -28.5888c0.55383,-1.39158 -0.554998,-3.88499 -1.66733,-6.38072 -1.10883,-2.50041 -1.94191,-5.00082 -1.94191,-7.49656l0 0c-0.275746,-3.88499 1.11233,-9.16039 2.22116,-13.0477 0.55383,-1.94191 1.11233,-3.60573 1.11233,-4.43882 0.275746,-0.836587 0.275746,-1.94191 2.21766,-1.66383 1.94541,0.272241 1.94541,1.10883 1.66616,2.21766 0,1.10649 -0.55383,3.05424 -1.10883,4.99732 -1.11233,3.60573 -2.22116,8.32614 -2.22116,11.9354l0 0c0,1.66616 0.830744,3.60807 1.66383,5.82923 1.66616,3.60573 3.33349,7.21497 1.39042,10.2692l0 0.279252 -24.1488 28.3096c-1.11233,4.43882 -0.833081,7.21731 -0.558503,10.268 0.279252,2.49691 0.558503,4.99732 0.279252,8.05156 -0.279252,3.32648 -1.10883,6.10498 -2.21766,9.15922 -0.557335,1.38457 -1.11233,2.77616 -1.38808,3.88499 -0.278083,1.11233 -0.55383,1.94191 -2.49924,1.38691 -1.94308,-0.557335 -1.66733,-1.38691 -1.38808,-2.49574z"/>
  </g>
 </g>
</svg>
