<svg version="1.1" xmlns="http://www.w3.org/2000/svg" xml:space="preserve" overflow="visible" width="200" height="172.04" viewBox="0 0 200 172.036" enable-background="new 0 0 200 172.036">
<title>Stade Malherbe Caen</title>
<path d="M187.99,106.86c4.084-2.174,8.088-4.506,12.008-7.004l-8.893-9.232,1.428-14.35c-8.125,4.639-16.589,8.606-25.332,11.846h14.857l5.92,18.74z" fill="#171D3F"/>
<path d="M12.007,106.86c-4.083-2.17-8.088-4.5-12.007-7.003l8.892-9.232-1.427-14.35c8.124,4.639,16.588,8.606,25.332,11.846h-14.858l-5.932,18.739z" fill="#171D3F"/>
<path d="M182.06,88.122v-0.005h-9.809c0.315-3.104,0.48-6.262,0.48-9.475v-56.607l-0.848-0.443c-21.4-11.19-45.75-21.585-71.88-21.592-26.133,0.007-50.485,10.402-71.885,21.591l-0.847,0.443v56.607c0,3.213,0.165,6.371,0.479,9.475h-9.808v0.005-0.001c3.451,1.969,6.969,3.813,10.543,5.536,2.595,15.819,9.262,30.058,19.03,42.198,12.769,15.877,30.802,28.191,51.942,35.979l0.545,0.201,0.545-0.201c21.141-7.786,39.175-20.103,51.943-35.979,9.768-12.141,16.435-26.379,19.029-42.198,3.58-1.718,7.1-3.563,10.55-5.53z" fill="#B39C46"/>
<path d="M169.58,78.642c-0.005,21.164-7.194,39.864-19.548,55.235-12.244,15.23-29.588,27.168-50.027,34.793-20.44-7.625-37.782-19.563-50.028-34.793-12.353-15.38-19.542-34.075-19.546-55.238v-54.695c21.03-10.943,44.635-20.798,69.574-20.79,24.939-0.008,48.545,9.846,69.575,20.79v54.695z" fill="#FFF"/>
<path d="M64.647,13.719c-9.085,3.02-18.652,7.139-29.881,12.875v52.048c0,9.824,1.644,19.35,4.885,28.313,3.121,8.632,7.732,16.773,13.704,24.201,11.34,14.101,27.436,25.437,46.645,32.87v-156.53c-11.194,0-22.758,2.034-35.353,6.22z" fill="#171D3F"/>
<path d="M146.64,131.16c5.973-7.428,10.584-15.569,13.705-24.201,3.241-8.964,4.885-18.489,4.885-28.313v-52.053c-11.229-5.736-20.795-9.855-29.881-12.875-12.58-4.186-24.14-6.22-35.34-6.22v156.53c19.21-7.44,35.3-18.77,46.64-32.87z" fill="#E60000"/>
<path d="M182.06,88.121c-24.703,14.096-52.68,22.025-82.061,22.025s-57.358-7.93-82.061-22.025l-7.462,23.58c26.516,16.9,57.148,26.53,89.523,26.53s63.008-9.63,89.523-26.53l-7.46-23.579z" fill="#171D3F"/>
<path d="M19.028,106.5c0.3-0.58,0.842-0.777,1.345-0.516,0.542,0.282,0.672,0.864,0.467,1.257-0.1,0.197-0.212,0.328-0.367,0.437,0.187,0.358,0.572,0.729,1.101,1.005,0.882,0.462,1.65,0.361,2.017-0.337,0.342-0.661-0.165-1.333-0.827-2.04-1.216-1.317-2.023-2.348-1.243-3.847,0.671-1.284,2.239-1.748,3.874-0.896,1.507,0.783,2.272,2.164,1.765,3.137-0.297,0.573-0.827,0.719-1.296,0.473-0.563-0.291-0.665-0.871-0.454-1.277,0.103-0.197,0.184-0.265,0.282-0.334-0.149-0.252-0.434-0.541-0.938-0.805-0.798-0.413-1.474-0.252-1.782,0.334-0.345,0.662,0.174,1.312,0.833,2.027,1.179,1.272,2.008,2.341,1.228,3.841-0.799,1.533-2.442,1.785-4.1,0.923-1.596-0.82-2.418-2.38-1.905-3.36" fill="#FFF"/>
<polygon points="27.742,111.53,28.774,112,31.426,106.23,29.893,105.52,29.291,106.83,27.944,106.21,29.113,103.67,36.294,106.97,35.128,109.51,33.782,108.89,34.383,107.58,32.847,106.88,30.195,112.65,31.228,113.13,30.643,114.4,27.158,112.8" fill="#FFF"/>
<path d="M34.077,114.42l0.733,0.289,4.428-5.055-0.931-0.365,0.507-1.29,4.791,1.883-0.504,1.29-0.929-0.365-0.199,6.717,0.733,0.291-0.513,1.299-3.258-1.281,0.507-1.287,0.979,0.386,0.068-1.579-3.168-1.248-1.023,1.206,1.029,0.403-0.507,1.287-3.258-1.28,0.515-1.32zm6.49-0.43l0.125-3.802-2.496,2.869,2.371,0.93z" fill="#FFF"/>
<path d="M43.927,118.25l0.99,0.319,1.949-6.003-0.988-0.321,0.435-1.329,3.277,1.064c3.13,1.021,4.455,3.252,3.606,5.875-0.862,2.645-3.185,3.841-6.582,2.736l-3.118-1.016,0.431-1.33zm3.33,1.08c2.238,0.729,3.789-0.108,4.393-1.962,0.615-1.896-0.389-3.372-2.547-4.076l-0.751-0.24-1.949,5.999,0.854,0.28z" fill="#FFF"/>
<polygon points="53.875,121.41,54.88,121.67,56.486,115.57,55.486,115.31,55.839,113.95,62.412,115.69,61.75,118.2,60.304,117.82,60.615,116.64,58.004,115.96,57.382,118.31,60.046,119.01,59.708,120.3,57.046,119.6,56.388,122.09,59.011,122.78,59.322,121.6,60.764,121.98,60.102,124.49,53.517,122.76" fill="#FFF"/>
<polygon points="65.547,124.36,66.611,124.54,67.991,118.38,66.875,118.18,67.118,116.81,69.571,117.24,71.441,122.71,75.077,118.21,77.513,118.64,77.27,120.02,76.154,119.82,75.347,126.09,76.41,126.27,76.167,127.65,72.487,127,72.729,125.62,73.805,125.81,74.445,121.16,71.087,125.21,70.882,125.17,69.112,120.22,68.121,124.81,69.201,125,68.958,126.38,65.306,125.74" fill="#FFF"/>
<path d="M77.685,126.42l0.786,0.085,2.928-6.048-0.991-0.105,0.149-1.376,5.12,0.55-0.148,1.375-0.991-0.106,1.584,6.53,0.784,0.086-0.149,1.39-3.479-0.373,0.146-1.376,1.046,0.113-0.352-1.543-3.385-0.363-0.665,1.432,1.1,0.115-0.15,1.379-3.478-0.37,0.145-1.37zm6.146-2.14l-0.886-3.701-1.644,3.43,2.53,0.27z" fill="#FFF"/>
<polygon points="88.19,127.48,89.226,127.53,89.552,121.23,88.517,121.17,88.588,119.78,92.391,119.97,92.316,121.37,91.115,121.31,90.786,127.62,93.289,127.75,93.354,126.47,94.862,126.55,94.722,129.21,88.116,128.87" fill="#FFF"/>
<polygon points="96.331,127.9,97.369,127.89,97.333,121.58,96.294,121.59,96.286,120.19,100.02,120.17,100.03,121.56,98.896,121.57,98.909,123.98,103.12,123.96,103.1,121.55,101.97,121.55,101.96,120.16,105.7,120.13,105.7,121.53,104.67,121.54,104.7,127.85,105.74,127.84,105.75,129.24,102.01,129.26,102.01,127.86,103.14,127.86,103.12,125.33,98.917,125.35,98.935,127.88,100.07,127.88,100.08,129.28,96.34,129.3" fill="#FFF"/>
<polygon points="107.33,127.76,108.36,127.7,107.97,121.4,106.94,121.47,106.85,120.07,113.64,119.65,113.8,122.25,112.3,122.34,112.23,121.12,109.53,121.29,109.69,123.72,112.44,123.55,112.51,124.88,109.77,125.05,109.93,127.62,112.64,127.45,112.56,126.23,114.05,126.14,114.21,128.74,107.41,129.16" fill="#FFF"/>
<path d="M115.87,127.2l1.033-0.118-0.723-6.27-1.033,0.118-0.157-1.39,3.503-0.404c2.077-0.24,3.671,0.482,3.881,2.328,0.133,1.17-0.48,2.144-1.421,2.656l1.669,2.302,1.033-0.118,0.157,1.391-2.089,0.24-2.21-3.23c-0.19,0.036-0.37,0.069-0.546,0.088-0.292,0.035-0.553,0.066-0.747,0.072l0.233,2.037,1.13-0.13,0.161,1.387-3.717,0.432-0.14-1.4zm4.9-5.49c-0.109-0.95-0.943-1.314-2.197-1.169l-0.838,0.095,0.334,2.902c0.17-0.004,0.389-0.016,0.883-0.073,1.18-0.14,1.94-0.82,1.83-1.76" fill="#FFF"/>
<path d="M124.98,126.11l1.023-0.173-1.057-6.222-1.021,0.174-0.233-1.382,3.586-0.606c2.197-0.373,3.448,0.455,3.676,1.803,0.18,1.041-0.35,1.818-1.188,2.268,1.172,0.137,1.953,0.678,2.144,1.798,0.249,1.484-0.776,2.711-2.957,3.085l-3.74,0.634-0.23-1.38zm2.96-4.41c1.074-0.183,1.591-0.777,1.461-1.555-0.135-0.762-0.832-1.081-1.922-0.896l-1.012,0.17,0.42,2.457,1.05-0.17zm0.81,3.8c1.065-0.18,1.7-0.734,1.554-1.598-0.139-0.834-0.871-1.184-2.03-0.986l-1.178,0.201,0.442,2.589,1.22-0.2z" fill="#FFF"/>
<polygon points="133.67,124.59,134.68,124.36,133.31,118.2,132.3,118.43,131.99,117.06,138.62,115.58,139.19,118.12,137.73,118.45,137.47,117.26,134.83,117.85,135.36,120.22,138.05,119.63,138.34,120.92,135.65,121.52,136.21,124.04,138.86,123.44,138.59,122.26,140.05,121.93,140.62,124.47,133.98,125.95" fill="#FFF"/>
<path d="M144.61,118.75c-0.799-2.623,0.658-5.137,3.202-5.914,2.022-0.619,3.694,0.028,4.014,1.075,0.197,0.635-0.079,1.195-0.622,1.362-0.599,0.183-1.121-0.063-1.293-0.634-0.053-0.17-0.064-0.355-0.047-0.477-0.309-0.125-0.874-0.168-1.669,0.075-1.694,0.519-2.593,2.211-2.04,4.026,0.533,1.746,2.174,2.762,4.013,2.2,1.021-0.313,1.716-1.017,2.149-1.915l1.313,0.731c-0.564,1.196-1.646,2.149-3.037,2.574-2.67,0.81-5.14-0.4-5.97-3.11" fill="#FFF"/>
<path d="M154.97,118.85l0.734-0.276-0.079-6.719-0.935,0.35-0.483-1.299,4.824-1.799,0.485,1.3-0.935,0.343,4.335,5.137,0.741-0.273,0.485,1.309-3.279,1.221-0.485-1.297,0.987-0.363-0.999-1.224-3.194,1.188,0.04,1.581,1.038-0.385,0.486,1.299-3.282,1.218-0.48-1.31zm4.54-4.66l-2.444-2.917,0.055,3.808,2.39-0.89z" fill="#FFF"/>
<polygon points="164.83,115.11,165.78,114.69,163.26,108.91,162.3,109.32,161.75,108.04,167.98,105.32,169.02,107.71,167.65,108.31,167.16,107.19,164.69,108.27,165.66,110.5,168.18,109.4,168.71,110.62,166.19,111.72,167.22,114.08,169.7,112.99,169.22,111.88,170.58,111.28,171.63,113.67,165.39,116.39" fill="#FFF"/>
<polygon points="172.78,106.14,174.98,110.51,175.99,110,176.62,111.24,173.32,112.91,172.69,111.66,173.62,111.19,170.78,105.56,169.85,106.02,169.22,104.78,171.33,103.71,177.91,106.79,175.97,102.94,174.95,103.45,174.32,102.2,177.59,100.56,178.22,101.81,177.33,102.26,180.8,109.15,180.06,109.56" fill="#FFF"/>
<path d="M58.154,47.117h-2.958l-10.166,2.565,1.398,5.027,5.639-1.342v18.042h-6.702v5.027h19.383v-5.027h-6.594v-24.292zm59.886,0h-2.957l-10.168,2.565,1.4,5.027,5.641-1.342v18.042h-6.703v5.027h19.381v-5.027h-6.594v-24.292zm31.26,18.319c-1.006-0.559-2.123-1.008-3.188-1.288,1.229-0.225,2.404-0.667,3.464-1.284,2.572-1.451,4.414-3.907,4.414-6.87,0-5.361-5.082-9.326-12.119-9.326-5.586,0-8.938,2.119-10.504,4.411-0.783,1.12-1.114,2.289-1.114,3.239,0,2.684,1.782,4.414,3.795,4.414s3.688-1.676,3.688-3.686c0-0.783-0.337-1.621-0.783-2.237,0.953-0.726,2.459-1.114,4.693-1.114,3.295,0,6.088,1.506,6.088,4.523,0,2.01-1.118,3.519-3.016,4.523-1.566,0.78-3.631,1.227-6.032,1.227h-1.843v4.806h1.676c2.511,0,4.408,0.334,5.805,0.953,2.623,1.114,3.631,3.015,3.631,5.134,0,3.409-2.793,5.644-6.588,5.644-2.344,0-4.523-0.559-5.92-1.676,0.443-0.616,0.78-1.451,0.78-2.234,0-2.013-1.673-3.688-3.688-3.688-2.234,0-3.795,1.9-3.795,4.244,0,1.229,0.449,2.459,1.172,3.521,1.955,2.793,6.145,4.857,11.394,4.857,7.374,0,12.905-4.02,12.905-10.276,0.02-3.797-2.22-6.312-4.9-7.817m-68.3-18.768c-7.763,0-13.405,5.194-13.405,11.84,0,6.37,5.363,11.285,12.566,11.285,3.746,0,7.098-1.9,8.605-4.135-0.228,8.546-5.142,12.791-8.885,12.791-1.281,0-2.344-0.222-3.124-0.559,0.111-0.392,0.22-0.835,0.22-1.284,0-1.955-1.617-3.743-4.02-3.743-1.955,0-3.743,1.788-3.743,4.08,0,1.339,0.56,2.568,1.507,3.573,1.788,1.897,4.915,3.015,8.602,3.015,8.267,0,15.306-7.204,15.306-20.386,0-5.811-1.62-10.222-4.416-13.012-2.342-2.348-5.413-3.465-9.213-3.465m-0.279,18.097c-4.188,0-6.926-2.848-6.926-6.257,0-3.686,3.018-6.813,7.206-6.813,2.067,0,3.856,0.78,5.138,1.952,1.287,1.175,2.068,2.851,2.068,4.581,0,3.689-3.296,6.537-7.486,6.537" fill="#B39C46"/>
</svg>
