<?xml version="1.0" encoding="UTF-8" standalone="no"?>
<!-- Generator: Adobe Illustrator 15.0.2, SVG Export Plug-In . SVG Version: 6.00 Build 0)  -->

<svg
   xmlns:dc="http://purl.org/dc/elements/1.1/"
   xmlns:cc="http://creativecommons.org/ns#"
   xmlns:rdf="http://www.w3.org/1999/02/22-rdf-syntax-ns#"
   xmlns:svg="http://www.w3.org/2000/svg"
   xmlns="http://www.w3.org/2000/svg"
   xmlns:sodipodi="http://sodipodi.sourceforge.net/DTD/sodipodi-0.dtd"
   xmlns:inkscape="http://www.inkscape.org/namespaces/inkscape"
   version="1.1"
   id="Capa_1"
   x="0px"
   y="0px"
   width="116.67471"
   height="200"
   viewBox="0 0 116.67471 566.00098"
   enable-background="new 0 0 612 792"
   xml:space="preserve"
   inkscape:version="0.48.2 r9819"
   sodipodi:docname="sporting de gijón.svg"><metadata
   id="metadata23"><rdf:RDF><cc:Work
       rdf:about=""><dc:format>image/svg+xml</dc:format><dc:type
         rdf:resource="http://purl.org/dc/dcmitype/StillImage" /></cc:Work></rdf:RDF></metadata><defs
   id="defs21" /><sodipodi:namedview
   pagecolor="#ffffff"
   bordercolor="#666666"
   borderopacity="1"
   objecttolerance="10"
   gridtolerance="10"
   guidetolerance="10"
   inkscape:pageopacity="0"
   inkscape:pageshadow="2"
   inkscape:window-width="1280"
   inkscape:window-height="968"
   id="namedview19"
   showgrid="false"
   fit-margin-top="0"
   fit-margin-left="0"
   fit-margin-right="0"
   fit-margin-bottom="0"
   inkscape:zoom="3.755"
   inkscape:cx="58.337355"
   inkscape:cy="100.00001"
   inkscape:window-x="-4"
   inkscape:window-y="-4"
   inkscape:window-maximized="1"
   inkscape:current-layer="Capa_1" />
<path
   d="M 58.342356,566.001 -106.75764,193.805 h 88.587996 c 22.399,-11.734 58.514,-16.3 76.465,-16.341 18.033,0.038 54.147004,4.607 76.546004,16.341 h 88.591 L 58.342356,566.001 z"
   id="path3"
   inkscape:connector-curvature="0"
   style="fill:#e2001a" />
<path
   d="m 58.340356,522.894 -23.768,-53.589 V 199.86 c 9.873,-1.41 18.678,-2.096 23.806,-2.115 4.987,0.019 13.499,0.675 23.096,2.022 v 270.965 l -23.134,52.162 z"
   id="path5"
   inkscape:connector-curvature="0"
   style="fill:#ffffff" />
<polygon
   points="187.997,370.749 187.997,325.431 234.901,325.431 234.901,476.498 "
   id="polygon7"
   style="fill:#ffffff"
   transform="translate(-247.76264,-114.139)" />
<polygon
   points="423.574,325.431 423.574,372.17 376.671,477.921 376.671,325.431 "
   id="polygon9"
   style="fill:#ffffff"
   transform="translate(-247.76264,-114.139)" />
<path
   d="m 29.698356,290.613 c -8.444,6.351 -12.566,13.989 -12.566,20.02 0,12.664 18.18,32.508 56.409,32.508 2.137,0 4.225,-0.101 6.264,-0.28 -6.644,-15.334 -23.014,-26.279 -32.882,-34.828 -5.936,-5.421 -12.206,-10.729 -17.225,-17.42 z m 90.987004,58.898 c -5.082,2.473 -10.66,4.583 -16.512,6.255 l 0.017,1.427 c 0,28.872 -23.216004,47.6 -47.979004,47.6 -14.813,0 -32.502,-6.242 -43.558,-18.989 l 9.507,-15.086 c 9.065,7.544 19.015,15.867 33.609,15.867 14.464,0 25.75,-8.654 26.878,-26.847 -3.042,0.263 -6.085,0.402 -9.105,0.402 -38.208,0 -78.803,-18.09 -78.803,-49.508 0,-16.238 10.844,-28.917 26.597,-37.376 -1.028,-4.116 -1.605,-8.698 -1.605,-13.867 0,-24.452 20.118,-42.918 44.217,-42.918 16.14,0 29.627,6.763 38.250004,18.207 l -10.171004,13.005 c -7.517,-6.503 -17.466,-13.005 -26.751,-13.005 -15.478,0 -24.101,10.665 -24.101,24.712 0,2.028 0.233,3.97 0.697,5.874 10.117,-2.723 20.986,-4.139 31.67,-4.139 16.167,0 32.221004,4.539 45.988004,10.658 l -6.63,15.003 c -9.166,-4.966 -23.286004,-8.584 -39.358004,-8.584 -8.472,0 -15.958,0.967 -22.48,2.619 4.746,5.285 11.232,11.064 19.519,18.106 15.111,12.962 25.737998,25.129 30.607004,39.512 l 1.044,-0.304 0.008,-23.722 h 18.446 v 35.098 z"
   id="path11"
   inkscape:connector-curvature="0"
   style="fill:#e2b900" />
<path
   d="m 58.459356,169.363 c -35.439,0 -63.018,7.655 -80.616,17.762 l -10.106,-17.521 c 23.714,-13.23 57.475,-20.503 90.723,-20.522 33.249,0.019 67.009004,7.292 90.723004,20.522 l -10.107,17.521 c -17.599,-10.107 -45.177004,-17.762 -80.578004,-17.762 h -0.039 z"
   id="path13"
   inkscape:connector-curvature="0"
   style="fill:#e2b900" />
<path
   d="m -49.244644,130.898 c -5.912,-0.556 -12.078,-6.063 -12.078,-19.484 0,-16.715 13.549,-30.266 30.263,-30.266 2.969,0 5.835,0.429 8.542,1.226 3.918,-10.917 13.404,-19.186 25.1,-21.323 8.17,-1.464 16.395,-2.603 24.614,-3.419 0.434,-6.023 5.458,-10.777 11.592,-10.777 h 12.026 c -4.807,-2.63 -8.07,-7.736 -8.07,-13.602 0,-7.468 5.28,-13.699 12.58,-15.185 v -6.175 h -5.828 V 6.061 h 5.828 V 0 h 6.109 v 6.061 h 5.825 v 5.833 h -5.825 v 6.175 c 7.297,1.486 12.58,7.718 12.58,15.185 0,5.866 -3.262,10.972 -8.071,13.602 h 12.024 c 6.137,0 11.161,4.754 11.595,10.777 8.215998,0.816 16.444004,1.955 24.611004,3.419 11.699,2.137 21.184,10.405 25.101,21.323 2.705,-0.797 5.574,-1.226 8.541,-1.226 16.715,0 30.266,13.551 30.266,30.266 0,13.42 -6.167,18.928 -12.079,19.484 1.362,0.393 2.65,0.911 3.833,1.502 6.528,3.525 10.535,10.256 10.535,17.678 0,13.518 -20.281,13.518 -20.281,0 -4.009,6.483 -13.202,14.258 -27.377,9.23 -6.368,-2.259 -12.29,-6.283 -17.692,-12.476 -19.377006,4.691 -37.708004,2.646 -56.639004,-10.332 -18.928,12.979 -37.267,15.023 -56.642,10.332 -5.405,6.193 -11.324,10.217 -17.691,12.476 -14.177,5.028 -23.372,-2.747 -27.378,-9.23 0,13.518 -20.28,13.518 -20.28,0 0,-7.422 4.003,-14.153 10.533,-17.678 1.184,-0.592 2.47,-1.11 3.833,-1.503 z"
   id="path15"
   inkscape:connector-curvature="0"
   style="fill:#e2b900" />
<path
   d="m 58.570356,88.435 h -0.382 c -4.429,0.052 -9.106,1.982 -12.041,5.833 -4.157,-3.183 -7.028,-8.281 -7.028,-15.293 l 0.307,-1.999 c -11.078,0.715 -22.211,2.058 -33.251,4.035 -5.88700008,1.093 -10.351,6.275 -10.351,12.561 0,1.662 0.315,3.232 0.876,4.664 0.727,1.846 0.927,3.606 0.727,5.214 -6.161,-1.993 -13.464,0.328 -17.447,5.459 -0.54,-0.556 -1.05,-1.191 -1.521,-1.909 -1.679,-3.604 -5.321,-6.072 -9.518,-6.072 -5.79,0 -10.485,4.694 -10.485,10.486 0,1.89 0.493,3.639 1.35,5.153 3.576,6.315 0.77,11.527 -3.826,13.515 l 0.409,-0.005 c 6.879,0 13.45,3.615 17.07,9.475 0.12,0.051 1.313,1.071 1.66,1.079 1.592,0.033 3.181,-0.466 4.729,-1.334 -0.246,-0.206 -0.374,-0.326 -0.36,-0.331 -10.405,-4.667 -6.131,-18.559 2.864,-19.478 -1.99,-11.454 14.887,-16.539 19.386,-5.461 6.565,-1.432 14.291,4.276 12.365,12.162 -0.179,0.74 -0.444,1.5 -0.802,2.272 9.897,1.272 19.212,-0.277 28.861,-5.692 -1.036,-1.042 -2.077,-2.121 -3.121,-3.232 -7.552,-8.057 0.933,-18.784 9.336,-17.073 0.542,-5.847 5.1,-8.834 9.762,-8.957 5.044,0.055 9.697,3.04 10.247,8.957 8.401,-1.711 16.886,9.016 9.334,17.073 -1.044,1.112 -2.082,2.191 -3.121,3.232 9.651,5.415 18.963,6.964 28.863004,5.692 -0.357,-0.773 -0.623,-1.532 -0.805,-2.272 -1.925,-7.886 5.803,-13.594 12.365,-12.162 4.501,-11.078 21.38,-5.993 19.389,5.461 8.992,0.919 13.265,14.812 2.863,19.478 0.011,0.005 -0.116,0.125 -0.363,0.331 1.549,0.868 3.14,1.367 4.732,1.334 0.345,-0.008 1.538,-1.027 1.657,-1.079 3.623,-5.86 10.191,-9.475 17.07,-9.475 l 0.412,0.005 c -4.597,-1.987 -7.403,-7.2 -3.826,-13.515 0.857,-1.514 1.347,-3.263 1.347,-5.153 0,-5.792 -4.693,-10.486 -10.485,-10.486 -4.198,0 -7.837,2.468 -9.515,6.072 -0.475,0.718 -0.985,1.353 -1.523,1.909 -3.981,-5.131 -11.287,-7.452 -17.446,-5.459 -0.203,-1.608 0,-3.368 0.725,-5.214 0.564,-1.432 0.875,-3.002 0.875,-4.664 0,-6.286 -4.46,-11.468 -10.348,-12.561 C 99.547354,79.034 88.410356,77.692 77.335356,76.976 l 0.307,1.999 c 0,7.012 -2.873,12.11 -7.033,15.293 -2.935,-3.851 -7.613,-5.781 -12.039,-5.833 z"
   id="path17"
   inkscape:connector-curvature="0"
   style="fill:#e2001a" />
</svg>