<?xml version="1.0" encoding="UTF-8" standalone="no"?>
<!-- Created with Inkscape (http://www.inkscape.org/) -->

<svg
   xmlns:dc="http://purl.org/dc/elements/1.1/"
   xmlns:cc="http://creativecommons.org/ns#"
   xmlns:rdf="http://www.w3.org/1999/02/22-rdf-syntax-ns#"
   xmlns:svg="http://www.w3.org/2000/svg"
   xmlns="http://www.w3.org/2000/svg"
   xmlns:xlink="http://www.w3.org/1999/xlink"
   xmlns:sodipodi="http://sodipodi.sourceforge.net/DTD/sodipodi-0.dtd"
   xmlns:inkscape="http://www.inkscape.org/namespaces/inkscape"
   version="1.1"
   width="250"
   height="170"
   id="svg2"
   xml:space="preserve"
   inkscape:version="0.48.1 "
   sodipodi:docname="lazio.svg"><sodipodi:namedview
     pagecolor="#ffffff"
     bordercolor="#666666"
     borderopacity="1"
     objecttolerance="10"
     gridtolerance="10"
     guidetolerance="10"
     inkscape:pageopacity="0"
     inkscape:pageshadow="2"
     inkscape:window-width="1280"
     inkscape:window-height="738"
     id="namedview82"
     showgrid="false"
     showguides="true"
     inkscape:guide-bbox="true"
     inkscape:zoom="3.0529412"
     inkscape:cx="164.30636"
     inkscape:cy="85"
     inkscape:window-x="-8"
     inkscape:window-y="-8"
     inkscape:window-maximized="1"
     inkscape:current-layer="svg2" /><metadata
     id="metadata8"><rdf:RDF><cc:Work
         rdf:about=""><dc:format>image/svg+xml</dc:format><dc:type
           rdf:resource="http://purl.org/dc/dcmitype/StillImage" /><dc:title /></cc:Work></rdf:RDF></metadata><defs
     id="defs6"><linearGradient
       id="linearGradient4118"><stop
         id="stop4120"
         style="stop-color:#c59a17;stop-opacity:1"
         offset="0" /><stop
         id="stop4126"
         style="stop-color:#d7a819;stop-opacity:1"
         offset="0.5" /><stop
         id="stop4122"
         style="stop-color:#dbab19;stop-opacity:1"
         offset="1" /></linearGradient><linearGradient
       id="linearGradient4108"><stop
         id="stop4110"
         style="stop-color:#d7d7d7;stop-opacity:1"
         offset="0" /><stop
         id="stop4116"
         style="stop-color:#ffffff;stop-opacity:1"
         offset="0.40000001" /><stop
         id="stop4112"
         style="stop-color:#ffffff;stop-opacity:1"
         offset="1" /></linearGradient><linearGradient
       x1="65.453522"
       y1="73.356483"
       x2="123.87615"
       y2="73.356483"
       id="linearGradient4114"
       xlink:href="#linearGradient4108"
       gradientUnits="userSpaceOnUse" /><linearGradient
       x1="8.7639513"
       y1="128.98997"
       x2="184.51224"
       y2="128.98997"
       id="linearGradient4124"
       xlink:href="#linearGradient4118"
       gradientUnits="userSpaceOnUse" /><linearGradient
       x1="65.453522"
       y1="73.356483"
       x2="123.87615"
       y2="73.356483"
       id="linearGradient4193"
       xlink:href="#linearGradient4108"
       gradientUnits="userSpaceOnUse" /><linearGradient
       x1="8.7639513"
       y1="128.98997"
       x2="184.51224"
       y2="128.98997"
       id="linearGradient4195"
       xlink:href="#linearGradient4118"
       gradientUnits="userSpaceOnUse" /><linearGradient
       inkscape:collect="always"
       xlink:href="#linearGradient4108"
       id="linearGradient3139"
       gradientUnits="userSpaceOnUse"
       x1="65.453522"
       y1="73.356483"
       x2="123.87615"
       y2="73.356483" /><linearGradient
       inkscape:collect="always"
       xlink:href="#linearGradient4118"
       id="linearGradient3141"
       gradientUnits="userSpaceOnUse"
       x1="8.7639513"
       y1="128.98997"
       x2="184.51224"
       y2="128.98997" /><linearGradient
       inkscape:collect="always"
       xlink:href="#linearGradient4118"
       id="linearGradient3192"
       gradientUnits="userSpaceOnUse"
       x1="8.7639513"
       y1="128.98997"
       x2="184.51224"
       y2="128.98997"
       gradientTransform="matrix(1.3940391,0,0,-1.4079531,-9.717286,217.01039)" /><linearGradient
       inkscape:collect="always"
       xlink:href="#linearGradient4108"
       id="linearGradient3207"
       gradientUnits="userSpaceOnUse"
       x1="65.453522"
       y1="73.356483"
       x2="123.87615"
       y2="73.356483"
       gradientTransform="matrix(1.3940391,0,0,-1.4079531,-9.717286,217.01039)" /></defs><g
     id="g3210"><path
       inkscape:connector-curvature="0"
       style="fill:#15366f;fill-opacity:1;fill-rule:evenodd;stroke:none"
       id="path16"
       d="m 139.3936,60.872897 25.33292,0 0,55.826243 c 0,0 0.99468,38.19281 -41.89043,50.80086 0,0 -38.722389,-7.85739 -43.065099,-50.06963 l 0,-56.283091 19.72253,0 39.900079,-0.274382 0,0" /><path
       inkscape:connector-curvature="0"
       style="fill:url(#linearGradient3207);fill-opacity:1;fill-rule:evenodd;stroke:none"
       id="path18"
       d="m 138.68398,62.619209 24.28505,0 0,53.516301 c 0,0 0.95386,36.61275 -40.1577,48.70109 0,0 -37.120134,-7.533 -41.28385,-47.99892 l 0,-53.954564 18.90819,0 38.24831,-0.263907 0,0" /><path
       inkscape:connector-curvature="0"
       style="fill:#15366f;fill-opacity:1;fill-rule:evenodd;stroke:none"
       id="path20"
       d="m 135.92378,89.399829 20.20732,0 0,26.331541 c 0,0 0.7946,30.46585 -33.41378,40.52269 0,0 -30.888783,-6.26855 -34.352245,-39.93912 l 0,-26.878279 15.732795,0 31.82591,-0.03683 0,0" /><path
       inkscape:connector-curvature="0"
       style="fill:#87d8f7;fill-opacity:1;fill-rule:evenodd;stroke:none"
       id="path22"
       d="m 135.24527,91.058961 19.20529,0 0,25.024849 c 0,0 0.75412,28.95337 -31.75666,38.51247 0,0 -29.354782,-5.95835 -32.646611,-37.95797 l 0,-25.545221 14.950901,0 30.24708,-0.03413 0,0" /><path
       inkscape:connector-curvature="0"
       style="fill:#15366f;fill-opacity:1;fill-rule:evenodd;stroke:none"
       id="path24"
       d="m 110.18134,84.092296 c 0.37907,-0.04765 0.66011,-0.143949 0.84178,-0.28925 0.18167,-0.143949 0.33323,-0.440633 0.452,-0.890727 l 1.95656,-7.379927 c 0.0562,-0.208828 0.098,-0.382851 0.12413,-0.522745 0.0315,-0.143949 0.0472,-0.269313 0.0472,-0.377444 0,-0.277423 -0.076,-0.451446 -0.22617,-0.521393 -0.15156,-0.07533 -0.46538,-0.133474 -0.94348,-0.177065 l 0,-0.425089 5.06538,0 0,0.425089 c -0.55539,0.05942 -0.93044,0.150708 -1.12248,0.273369 -0.19205,0.117282 -0.35297,0.419682 -0.48245,0.906609 l -2.07266,7.854013 c -0.0207,0.08549 -0.0391,0.166251 -0.0549,0.241267 -0.0103,0.07535 -0.0157,0.163885 -0.0157,0.265596 0,0.182133 0.0786,0.312565 0.23386,0.393326 0.15558,0.07501 0.37405,0.112185 0.65475,0.112185 1.09538,0 2.04155,-0.192946 2.83615,-0.578162 0.80129,-0.385553 1.50422,-1.104961 2.1118,-2.160926 l 0.38174,0.07265 -0.93445,3.196955 -8.85304,0 0,-0.418331" /><path
       inkscape:connector-curvature="0"
       style="fill:#15366f;fill-opacity:1;fill-rule:evenodd;stroke:none"
       id="path26"
       d="m 130.72992,84.036879 7.97078,-9.950061 -1.26366,0 c -1.03115,0.02675 -1.92512,0.291953 -2.67924,0.794761 -0.49014,0.327434 -1.04017,0.868426 -1.64809,1.6223 l -0.43895,-0.06353 1.1827,-2.931696 7.61146,0 -0.0432,0.481858 -7.95639,9.950061 1.15259,0 c 0.91237,0 1.68355,-0.112186 2.31321,-0.337909 1.14891,-0.411911 2.0924,-1.198562 2.82577,-2.360292 l 0.43126,0.07265 -1.24694,3.195603 -8.25315,0 0.0418,-0.473748 0,0" /><path
       inkscape:connector-curvature="0"
       style="fill:#15366f;fill-opacity:1;fill-rule:evenodd;stroke:none"
       id="path28"
       d="m 140.50169,84.092296 c 0.38576,-0.04765 0.67315,-0.143949 0.85884,-0.28925 0.18535,-0.143949 0.33825,-0.440633 0.46137,-0.890727 l 1.99537,-7.379927 c 0.0588,-0.208828 0.10065,-0.382851 0.12686,-0.522745 0.0328,-0.143949 0.0485,-0.269313 0.0485,-0.377444 0,-0.277423 -0.0786,-0.451446 -0.23152,-0.521393 -0.1529,-0.07533 -0.47442,-0.133474 -0.96189,-0.177065 l 0,-0.425089 4.84357,0 0,0.425089 c -0.39848,0.05407 -0.68754,0.150708 -0.86788,0.28925 -0.17364,0.139951 -0.32286,0.436916 -0.44431,0.890728 l -2.00474,7.381278 -0.12685,0.57039 c -0.01,0.05271 -0.0211,0.109483 -0.0315,0.167603 -0.007,0.05406 -0.008,0.104076 -0.008,0.153073 0,0.278437 0.0733,0.455501 0.22215,0.529165 0.14755,0.07535 0.46907,0.134825 0.96189,0.177064 l 0,0.418331 -4.84222,0 0,-0.418331" /><path
       inkscape:connector-curvature="0"
       style="fill:#ffffff;fill-opacity:1;fill-rule:evenodd;stroke:none"
       id="path30"
       d="m 111.46073,91.036321 22.72864,-0.0037 0,58.72854 0,-0.0659 c 0,0 -5.35712,3.42673 -11.55435,4.84291 0,0 -6.47058,-1.55236 -11.17429,-4.52224 l 0,-58.979603" /><path
       inkscape:connector-curvature="0"
       style="fill:#15366f;fill-opacity:1;fill-rule:evenodd;stroke:none"
       id="path32"
       d="m 87.771883,84.753274 0.841442,-3.674758 0.465386,0.03176 c -0.004,0.524097 0.01439,0.905596 0.05621,1.145849 0.07193,0.399746 0.229849,0.754888 0.473081,1.063737 0.223492,0.283843 0.483453,0.500443 0.778877,0.64946 0.301782,0.14395 0.635348,0.2166 0.999694,0.2166 0.651072,0 1.167312,-0.208828 1.55006,-0.624455 0.3881,-0.422386 0.602559,-0.910665 0.640365,-1.465173 0.04851,-0.688996 -0.555385,-1.558773 -1.808682,-2.611021 -1.25062,-1.099217 -1.844146,-2.115646 -1.77857,-3.050302 0.05989,-0.880252 0.402487,-1.630072 1.027128,-2.24912 0.629994,-0.619049 1.467755,-0.927898 2.514623,-0.927898 0.290072,0 0.5865,0.029 0.888616,0.08715 0.198735,0.03816 0.372376,0.08307 0.522598,0.135868 l 0.402487,0.137135 c 0.08766,0.02633 0.179329,0.0504 0.272005,0.07124 0.09401,0.01591 0.178994,0.02506 0.252265,0.02506 0.190704,0 0.338584,-0.04083 0.445646,-0.119957 0.104386,-0.08039 0.198735,-0.17943 0.281039,-0.297022 l 0.483452,0 -0.884601,3.282784 -0.424903,-0.05677 -0.0184,-0.535923 c -0.03379,-0.506863 -0.159255,-0.942428 -0.37639,-1.305342 -0.340926,-0.57039 -0.876906,-0.856936 -1.605933,-0.856936 -0.624976,0 -1.094042,0.229778 -1.411548,0.689333 -0.211783,0.303442 -0.329551,0.632228 -0.354309,0.984666 -0.02476,0.37339 0.04985,0.704878 0.22483,0.992438 0.100706,0.159831 0.254942,0.333854 0.464048,0.520042 l 1.322553,1.16173 c 0.469066,0.410222 0.858505,0.880253 1.170993,1.408404 0.313491,0.522407 0.445646,1.120505 0.39981,1.79362 -0.05989,0.864708 -0.453341,1.645953 -1.17735,2.345762 -0.718989,0.694065 -1.667828,1.040083 -2.846516,1.040083 -0.296763,0 -0.593526,-0.02906 -0.889954,-0.08853 -0.292749,-0.05271 -0.580478,-0.133474 -0.863859,-0.240253 l -0.401483,-0.151721 c -0.134497,-0.05271 -0.227173,-0.08583 -0.278362,-0.0963 -0.05219,-0.01588 -0.112415,-0.02399 -0.181671,-0.02399 -0.178994,0 -0.312153,0.04629 -0.397134,0.136178 -0.07963,0.08583 -0.174979,0.237549 -0.285053,0.456514 l -0.492486,0 0,0" /><path
       inkscape:connector-curvature="0"
       style="fill:#15366f;fill-opacity:1;fill-rule:evenodd;stroke:none"
       id="path34"
       d="m 95.63694,82.687919 c 0.254607,-0.235184 0.544679,-0.351087 0.872892,-0.352439 0.333231,0 0.607578,0.119958 0.823375,0.360211 0.222154,0.234847 0.321521,0.51869 0.297767,0.848827 -0.02342,0.336557 -0.161932,0.624117 -0.416874,0.86437 -0.24825,0.235185 -0.53966,0.352439 -0.872891,0.352439 -0.326875,0 -0.601221,-0.117254 -0.823376,-0.352439 -0.215462,-0.240253 -0.312487,-0.527813 -0.288733,-0.86437 0.02342,-0.336557 0.159255,-0.621752 0.40784,-0.856599 l 0,0" /><path
       inkscape:connector-curvature="0"
       style="fill:#15366f;fill-opacity:1;fill-rule:evenodd;stroke:none"
       id="path36"
       d="m 97.963201,84.753921 0.840104,-3.674757 0.466724,0.03176 c -0.0053,0.522745 0.0131,0.905596 0.05487,1.145849 0.07193,0.399746 0.22985,0.754888 0.473082,1.063736 0.22349,0.283844 0.48345,0.499092 0.78022,0.649461 0.30077,0.143949 0.634,0.215248 0.99969,0.215248 0.64973,0 1.16597,-0.207476 1.55006,-0.623104 0.38676,-0.422386 0.60122,-0.910664 0.63903,-1.465172 0.0485,-0.688996 -0.55539,-1.558773 -1.80869,-2.611021 -1.25062,-1.099555 -1.84414,-2.115647 -1.77857,-3.050302 0.0612,-0.880253 0.40383,-1.630072 1.02713,-2.249121 0.63,-0.619049 1.46776,-0.927897 2.51462,-0.929249 0.29008,0 0.58684,0.03041 0.88996,0.08955 0.1974,0.03717 0.37104,0.08208 0.52126,0.134882 l 0.40249,0.137134 c 0.0876,0.02633 0.17932,0.0504 0.27334,0.07124 0.0927,0.01591 0.17765,0.02365 0.25226,0.02365 0.18937,0 0.33725,-0.03956 0.44431,-0.11855 0.10573,-0.08082 0.19874,-0.17943 0.28104,-0.297022 l 0.48345,0 -0.8846,3.282784 -0.42356,-0.05542 -0.0197,-0.537274 c -0.0338,-0.506864 -0.15926,-0.942428 -0.37639,-1.305342 -0.34093,-0.57039 -0.87691,-0.856936 -1.60594,-0.856936 -0.62363,0 -1.09404,0.229777 -1.41154,0.688995 -0.21045,0.30378 -0.32956,0.632566 -0.35298,0.984667 -0.0261,0.373727 0.0485,0.704877 0.22484,0.992775 0.0994,0.159831 0.2536,0.333854 0.4627,0.520042 l 1.32256,1.16173 c 0.46906,0.410221 0.8585,0.880253 1.17233,1.409418 0.31215,0.522744 0.44565,1.120843 0.39847,1.792606 -0.0599,0.864708 -0.452,1.645953 -1.17735,2.345762 -0.71899,0.694065 -1.66783,1.040083 -2.84652,1.040083 -0.29542,0 -0.59218,-0.02906 -0.88995,-0.08718 -0.29275,-0.05407 -0.57914,-0.134826 -0.86252,-0.241605 l -0.402821,-0.151721 c -0.133159,-0.05407 -0.225834,-0.08583 -0.278362,-0.0963 -0.05219,-0.01588 -0.112081,-0.02399 -0.180333,-0.02399 -0.180333,0 -0.312153,0.04494 -0.398472,0.136178 -0.07963,0.08583 -0.17498,0.237549 -0.285053,0.456514 l -0.491148,0 0,0" /><path
       inkscape:connector-curvature="0"
       style="fill:#15366f;fill-opacity:1;fill-rule:evenodd;stroke:none"
       id="path38"
       d="m 106.34952,82.687919 c 0.2536,-0.235184 0.54501,-0.352439 0.87289,-0.352439 0.33356,0 0.60791,0.119958 0.82337,0.360211 0.22115,0.234847 0.32153,0.51869 0.29811,0.848827 -0.0234,0.336557 -0.16194,0.624117 -0.41688,0.86437 -0.24825,0.235185 -0.53966,0.352439 -0.87289,0.352439 -0.32821,0 -0.60122,-0.117254 -0.82337,-0.352439 -0.2158,-0.240253 -0.31249,-0.527813 -0.28907,-0.86437 0.0237,-0.336557 0.15959,-0.621752 0.40784,-0.856599 l 0,0" /><path
       inkscape:connector-curvature="0"
       style="fill:#15366f;fill-opacity:1;fill-rule:evenodd;stroke:none"
       id="path40"
       d="m 149.39153,75.746119 c 1.42059,-1.681434 3.01213,-2.521137 4.7713,-2.522489 1.17099,0.0014 2.13422,0.356494 2.887,1.067792 0.75144,0.712987 1.12917,1.676365 1.12917,2.892161 0,1.772669 -0.66513,3.455793 -1.99571,5.050046 -1.42192,1.70948 -3.05428,2.562024 -4.89943,2.562024 -1.16062,0 -2.10679,-0.354804 -2.83882,-1.067792 -0.72635,-0.716704 -1.08869,-1.67231 -1.08869,-2.866817 0,-1.797675 0.67851,-3.5031 2.03518,-5.114925 l 0,0 z m 0.50186,7.492113 c 0.25996,0.658584 0.7317,0.987369 1.41523,0.987369 0.64036,0 1.22452,-0.23755 1.74979,-0.714001 0.52427,-0.481858 1.06795,-1.397929 1.62869,-2.74686 0.35531,-0.85153 0.63367,-1.747664 0.83508,-2.690092 0.20108,-0.942427 0.30178,-1.704074 0.30312,-2.288994 0,-0.551467 -0.13578,-1.021498 -0.4065,-1.413472 -0.27033,-0.396029 -0.69122,-0.592692 -1.26367,-0.594044 -1.35132,0 -2.48852,1.213093 -3.41127,3.637926 -0.70025,1.841265 -1.04921,3.375033 -1.04921,4.601303 0,0.476452 0.0652,0.882956 0.19874,1.220865 l 0,0" /><path
       inkscape:connector-curvature="0"
       style="fill:#15366f;fill-opacity:1;fill-rule:evenodd;stroke:none"
       id="path42"
       d="m 126.68364,80.552026 -0.0495,-3.999488 -2.96395,3.998136 3.01347,0.0014 0,0 z m -7.25313,3.677461 c 0.31483,-0.09124 0.55137,-0.190243 0.70962,-0.297022 0.23387,-0.155776 0.50955,-0.443674 0.8284,-0.867412 l 7.38294,-9.668582 0.42089,0 0.25594,9.403324 c 0.0184,0.632227 0.0917,1.019133 0.22082,1.164434 0.12814,0.139894 0.44196,0.228088 0.94114,0.265258 l -0.0549,0.393326 -4.93758,0 0.0549,-0.393326 c 0.47041,-0.03717 0.80899,-0.112186 1.01676,-0.225723 0.21178,-0.117592 0.3436,-0.357845 0.39345,-0.722111 0.0171,-0.122661 0.0288,-0.416979 0.0351,-0.882956 0.003,-0.0963 0.005,-0.495036 0.007,-1.19721 l -3.50662,0 -1.18638,1.670958 c -0.0786,0.112186 -0.15424,0.234847 -0.22483,0.368321 -0.0669,0.134488 -0.10874,0.262555 -0.12547,0.386905 -0.0315,0.224372 0.0144,0.369335 0.13852,0.432862 0.12914,0.06454 0.40516,0.119957 0.82839,0.168954 l -0.0549,0.393326 -3.19781,0 0.0549,-0.393326 0,0" /><path
       inkscape:connector-curvature="0"
       style="fill:url(#linearGradient3192);fill-opacity:1;fill-rule:evenodd;stroke:none"
       id="path44"
       d="m 98.663455,61.449707 -0.859843,-0.49774 c 0,0 -1.74478,-0.126715 -3.770263,-2.174105 0,0 5.010511,-1.651022 6.359161,-3.402741 0,0 -1.543369,-0.488278 -1.832103,-1.268509 0,0 4.818473,-1.455711 5.299583,-2.429902 0,0 -10.123404,-2.053809 -11.861492,-5.852579 0,0 -5.494298,-0.101654 -7.426102,-3.610217 -1.930131,-3.507155 -0.192043,-0.19396 -0.192043,-0.19396 0,0 -3.566509,0.87248 -5.690356,-2.829986 0,0 -3.855243,-0.0028 -5.785708,-2.926289 0,0 -6.363175,-0.881942 -8.485683,-3.707873 0,0 -7.712159,-1.174909 -11.282684,-4.976382 -3.569186,-3.801473 0,-0.19396 0,-0.19396 0,0 -4.723116,-0.0042 -8.100259,-3.707872 0,0 -7.134358,-0.395691 -10.993616,-5.365315 0,0 -9.158836,-1.273916 -13.211576,-6.730467 0,0 -8.677893,-1.078604 -13.885934,-5.2707003 C 1.7364961,2.1190138 2.5454514,2.5096363 2.5454514,2.5096363 l 82.0650856,0.068567 c 0,0 16.678623,-1.0137262 26.849193,11.6379154 10.1689,12.651979 21.28798,5.961048 26.73912,1.426988 5.45248,-4.534059 10.36529,-12.9591379 28.65553,-12.9435941 18.2889,0.014502 80.64561,0.066174 80.64561,0.066174 0,0 -5.66426,6.2631385 -19.03265,9.2779603 0,0 -5.12962,5.61503 -13.57883,6.796359 0,0 -2.66986,3.888653 -12.18836,5.824871 0,0 -2.45675,3.457144 -8.5536,4.207977 0,0 -2.34968,3.780523 -8.76673,3.883585 -6.41704,0.101373 -0.21445,0.106723 -0.21445,0.106723 0,0 -2.99005,4.861493 -10.05013,5.396065 -7.05841,0.534572 -0.21279,-0.0014 -0.21279,-0.0014 0,0 -1.49653,1.944327 -6.4157,2.913112 -4.91918,0.968784 -0.32152,0 -0.32152,0 0,0 -0.85349,2.700566 -6.41437,3.236489 -5.56221,0.535924 -0.42858,0.107146 -0.42858,0.107146 0,0 -0.63903,1.62061 -3.74183,2.051106 -3.10112,0.428806 0,0 0,0 0,0 -5.12961,5.39843 -13.25731,6.364849 0,0 -0.45735,2.389015 -5.05501,5.734987 0,0 1.21282,1.782131 1.31085,3.632519 l 0,-0.06857 c 0,0 0.41419,-1.552015 -0.13718,0.9306 -0.5517,2.484306 -5.39125,4.653004 -5.39125,4.653004 3.00845,-5.150405 -0.31081,-5.650848 -0.31081,-5.650848 0.7394,2.980355 -5.46553,5.335241 -5.46553,5.335241 2.94689,-4.033617 -0.24959,-5.588673 -0.24959,-5.588673 0.92375,4.037672 -5.89678,5.149054 -5.89678,5.149054 3.62271,-4.466478 -1.04821,-5.789053 -1.04821,-5.789053 l -4.36379,-0.0042 c 0.37238,5.526498 -6.38693,6.902124 -6.38693,6.902124 3.56116,-5.089919 -0.0652,-5.776212 -0.0652,-5.776212 0.80096,3.72612 -4.91281,5.646793 -4.91281,5.646793 2.82276,-5.524132 -1.04955,-6.147236 -1.04955,-6.147236 1.60225,4.34821 -7.36822,7.07243 -6.078455,6.265842 1.290095,-0.80625 2.270055,-4.345168 2.270055,-4.345168 0.98296,-1.302638 -2.829455,-2.361307 -2.829455,-2.361307 l 0,0" /><path
       inkscape:connector-curvature="0"
       style="fill:#ffffff;fill-opacity:1;fill-rule:evenodd;stroke:none"
       id="path46"
       d="m 47.142446,4.5134352 c 0,0 1.352664,2.4403769 4.928542,3.9041976 l -28.511702,0 c 0,0 -12.467929,0.1953112 -15.8502245,-3.9041976 l 39.4333845,0 0,0" /><path
       inkscape:connector-curvature="0"
       style="fill:#ffffff;fill-opacity:1;fill-rule:evenodd;stroke:none"
       id="path48"
       d="m 61.620602,12.126857 c 0,0 1.352664,2.283587 4.929545,3.74876 l -25.883291,0 c 0,0 -12.468063,0.351087 -15.850225,-3.74876 l 36.803971,0 0,0" /><path
       inkscape:connector-curvature="0"
       style="fill:#ffffff;fill-opacity:1;fill-rule:evenodd;stroke:none"
       id="path50"
       d="m 73.991639,18.764736 c 0,0 1.354003,1.892965 4.92988,3.358138 l -25.883626,0 c 0,0 -12.177656,0.351087 -15.850224,-3.358138 l 36.80397,0 0,0" /><path
       inkscape:connector-curvature="0"
       style="fill:#ffffff;fill-opacity:1;fill-rule:evenodd;stroke:none"
       id="path52"
       d="m 82.420111,23.937781 c 0,0 1.354003,1.034677 4.929546,2.498836 l -22.714251,0 c 0,0 -12.274347,0.33115 -15.850224,-2.498836 l 33.634929,0 0,0" /><path
       inkscape:connector-curvature="0"
       style="fill:#ffffff;fill-opacity:1;fill-rule:evenodd;stroke:none"
       id="path54"
       d="m 91.505677,28.719866 c 0,0 0.503193,0.644392 4.078736,2.109564 l -21.863106,0 c 0,0 -12.274681,0.721773 -15.850224,-2.109564 l 33.634594,0 0,0" /><path
       inkscape:connector-curvature="0"
       style="fill:#ffffff;fill-opacity:1;fill-rule:evenodd;stroke:none"
       id="path56"
       d="m 98.773528,32.722057 c 0,0 0.03915,0.644054 3.614692,2.107875 l -19.774728,0 c 0,0 -12.274681,0.722111 -15.850224,-2.107875 l 32.01026,0 0,0" /><path
       inkscape:connector-curvature="0"
       style="fill:#ffffff;fill-opacity:1;fill-rule:evenodd;stroke:none"
       id="path58"
       d="m 107.58843,36.724248 c 0,0 -1.50824,0.175375 2.06897,1.640547 l -18.538485,0 c 0,0 -10.922017,0.213896 -15.541751,-1.640547 l 32.011266,0 0,0" /><path
       inkscape:connector-curvature="0"
       style="fill:#ffffff;fill-opacity:1;fill-rule:evenodd;stroke:none"
       id="path60"
       d="m 109.36733,39.964793 c 0,0 1.46742,-0.604519 -1.1004,1.639195 l -11.039782,0 c 0,0 -10.921683,0.215248 -15.541751,-1.639195 l 27.681933,0 0,0" /><path
       inkscape:connector-curvature="0"
       style="fill:#ffffff;fill-opacity:1;fill-rule:evenodd;stroke:none"
       id="path62"
       d="m 107.1652,43.380713 c 0,0 1.46742,-0.917423 -1.10174,1.327981 l -2.84384,0 c 0,0 -10.922017,0.526462 -15.542085,-1.327981 l 19.487665,0 0,0" /><path
       inkscape:connector-curvature="0"
       style="fill:#ffffff;fill-opacity:1;fill-rule:evenodd;stroke:none"
       id="path64"
       d="m 104.53682,45.996802 c 0,0 1.46776,-0.917422 -1.1004,1.327981 l -2.84384,0 c 0,0 -2.95893,0.5268 -7.578664,-1.327981 l 11.522904,0 0,0" /><path
       inkscape:connector-curvature="0"
       style="fill:#ffffff;fill-opacity:1;fill-rule:evenodd;stroke:none"
       id="path66"
       d="m 202.55795,4.5134352 c 0,0 -1.354,2.4403769 -4.92988,3.9041976 l 28.51167,0 c 0,0 12.4694,0.1953112 15.85157,-3.9041976 l -39.43336,0 0,0" /><path
       inkscape:connector-curvature="0"
       style="fill:#ffffff;fill-opacity:1;fill-rule:evenodd;stroke:none"
       id="path68"
       d="m 188.07846,12.126857 c 0,0 -1.35266,2.283587 -4.92821,3.74876 l 25.88196,0 c 0,0 12.4694,0.351087 15.85156,-3.74876 l -36.80531,0 0,0" /><path
       inkscape:connector-curvature="0"
       style="fill:#ffffff;fill-opacity:1;fill-rule:evenodd;stroke:none"
       id="path70"
       d="m 175.70742,18.764736 c 0,0 -1.35266,1.892965 -4.92988,3.358138 l 25.88497,0 c 0,0 12.17632,0.351087 15.85022,-3.358138 l -36.80531,0 0,0" /><path
       inkscape:connector-curvature="0"
       style="fill:#ffffff;fill-opacity:1;fill-rule:evenodd;stroke:none"
       id="path72"
       d="m 167.27895,23.937781 c 0,0 1.02479,0.345681 1.02479,2.263651 l 16.75992,0.0014 c 0,0 12.27434,0.564983 15.85022,-2.265003 l -33.63493,0 0,0" /><path
       inkscape:connector-curvature="0"
       style="fill:#ffffff;fill-opacity:1;fill-rule:evenodd;stroke:none"
       id="path74"
       d="m 148.23091,41.10118 c 0,0 0.13453,-0.951551 -0.94248,1.223568 l 4.03725,0.07406 c 0,0 10.92034,0.526462 15.54175,-1.327981 l -18.63652,0.03041 0,0" /><path
       inkscape:connector-curvature="0"
       style="fill:#ffffff;fill-opacity:1;fill-rule:evenodd;stroke:none"
       id="path76"
       d="m 145.67313,46.538132 c 0,0 -1.97864,-0.912016 0.59085,1.33305 l 2.84384,0 c 0,0 2.95759,0.5268 7.57866,-1.327981 l -11.01335,-0.0056 0,0" /><path
       inkscape:connector-curvature="0"
       style="fill:#ffffff;fill-opacity:1;fill-rule:evenodd;stroke:none"
       id="path78"
       d="m 126.2942,22.751046 34.45295,0 c 0,0 4.9794,-0.407856 5.51772,3.805528 0,0 0.40383,0.951551 -0.94215,1.087728 -1.3463,0.135868 -13.9957,0 -13.9957,0 l -1.21148,1.495585 9.42014,0 c 0,0 1.61396,-0.13615 1.4808,1.495246 l 5.92155,-2.582975 5.92154,0 c 0,0 6.86402,-0.544033 6.05637,7.204215 0,0 -0.94248,-3.399024 -5.92187,-3.399024 -4.97907,0 -13.72772,0 -13.72772,0 l -1.21148,1.495584 15.47785,0.136149 c 0,0 3.36376,0.271678 4.17175,2.718814 l -21.2649,0 c 0,0 -1.07564,-1.359407 -3.90241,-0.271679 -2.82544,1.087728 -0.26933,0 -0.26933,0 0,0 -6.7292,4.349223 -9.95846,3.806542 -3.23094,-0.545047 -4.03859,-2.310958 -2.28846,-4.078559 0,0 -7.67033,0.815712 -1.88462,-3.262846 0,0 -4.17175,-1.494233 3.0961,-5.027745 l -7.40235,0 c 0,0 -4.8449,-0.409207 -6.86402,-3.262846 -2.01779,-2.855329 -0.67182,-1.359745 -0.67182,-1.359745 l 0,0" /><path
       inkscape:connector-curvature="0"
       style="fill:#ffffff;fill-opacity:1;fill-rule:evenodd;stroke:none"
       id="path80"
       d="m 152.89782,37.943761 c 0,0 -0.36066,-0.376093 -2.64778,1.327981 l 6.59336,0 c 0,0 13.18939,1.013727 15.54175,-1.327981 l -19.48733,0 0,0" /><path
       inkscape:connector-curvature="0"
       style="fill:#ffffff;fill-opacity:1;fill-rule:evenodd;stroke:none"
       id="path82"
       d="m 178.97215,28.462717 c 0,0 -0.32553,-0.274719 1.1004,2.185594 l 6.315,0 c 0,0 3.42933,-0.284857 5.96336,-2.185594 l -13.37876,0 0,0" /><path
       inkscape:connector-curvature="0"
       style="fill:#ffffff;fill-opacity:1;fill-rule:evenodd;stroke:none"
       id="path84"
       d="m 146.34762,43.474313 c 0,0 0.13453,-0.951551 -0.94248,1.223568 l 0.53732,0.07406 c 0,0 12.65074,0.950538 15.54041,-1.255331 l -15.13525,-0.04224 0,0" /><path
       inkscape:connector-curvature="0"
       style="fill:#ffffff;fill-opacity:1;fill-rule:evenodd;stroke:none"
       id="path86"
       d="m 180.80024,32.673398 -0.13578,1.631424 c 0,0 2.96161,-0.815712 2.55778,-1.631424 l -2.42195,0 0,0" /><path
       inkscape:connector-curvature="0"
       style="fill:#ffffff;fill-opacity:1;fill-rule:evenodd;stroke:none"
       id="path88"
       d="m 55.771994,7.3920797 c 0,0 -4.306242,-0.5913403 -5.24839,-2.8786445 l 37.548722,0 c 0,0 11.977914,0.4315094 20.994234,9.8098288 9.01764,9.379671 11.03577,8.291943 15.20852,8.699798 l 1.88463,2.991169 c 0,0 -2.42296,0.542343 -5.92155,-1.087729 l -29.74422,0 c 0,0 -3.902418,0 -4.844565,-1.495584 l 31.358185,0 c 0,0 -2.69228,-1.087728 -4.17175,-2.583312 l -28.531404,0 c 0,0 -5.921544,0.272016 -6.863691,-2.037928 l 32.164495,0 c 0,0 -1.34497,-2.854991 -5.11423,-4.62124 l -35.395094,0 c 0,0 -3.363761,-0.135867 -4.44074,-2.175118 l 37.682214,0 c 0,0 -4.306241,-3.6693513 -9.016309,-4.6212403 l -37.549057,0 0,0" /><path
       inkscape:connector-curvature="0"
       style="fill:#ffffff;fill-opacity:1;fill-rule:evenodd;stroke:none"
       id="path90"
       d="m 97.896287,29.955598 c 0,0 -2.422951,-0.544033 -3.36376,-1.495584 l 28.261743,0 c 0,0 3.09611,-1.766249 5.11423,-1.086376 0,0 1.88429,1.222215 2.69194,0.950199 0,0 -3.36509,3.67104 -11.16993,3.263185 0,0 0.1345,-1.223568 1.34464,-1.767601 l -22.878863,0.136149 0,0" /><path
       inkscape:connector-curvature="0"
       style="fill:#ffffff;fill-opacity:1;fill-rule:evenodd;stroke:none"
       id="path92"
       d="m 132.21608,28.595853 4.44074,0 c 0,0 -0.13453,2.583313 -6.4602,2.311296 l 2.01946,-2.311296 0,0" /><path
       inkscape:connector-curvature="0"
       style="fill:#ffffff;fill-opacity:1;fill-rule:evenodd;stroke:none"
       id="path94"
       d="m 135.17602,31.722861 c 0,0 -2.01779,1.087728 -3.90242,0.950537 0,0 -0.67316,1.224919 -3.2306,2.718814 0,0 4.57557,1.631761 7.94067,-2.853639 l -0.80765,-0.815712 0,0" /><path
       inkscape:connector-curvature="0"
       style="fill:#ffffff;fill-opacity:1;fill-rule:evenodd;stroke:none"
       id="path96"
       d="m 128.44682,31.315005 c 0,0 -3.09477,1.495584 -5.38322,1.223568 0,0 -1.07698,2.037927 -2.69094,3.125656 0,0 5.38322,1.495584 9.42013,-3.398687 l -1.34597,-0.950537 0,0" /><path
       inkscape:connector-curvature="0"
       style="fill:#ffffff;fill-opacity:1;fill-rule:evenodd;stroke:none"
       id="path98"
       d="m 134.63769,35.528389 c 0,0 -1.6153,0.815712 -3.09476,1.087728 -1.48081,0.271679 -0.26933,0.135868 -0.26933,0.135868 0,0 -0.26933,1.359407 -1.88463,2.037928 0,0 3.90375,2.447135 7.26785,-1.358056 0,0 -1.88463,-0.815711 -1.88463,-1.495584 0,-0.679872 -0.13452,-0.407856 -0.13452,-0.407856 l 0,0" /><path
       inkscape:connector-curvature="0"
       style="fill:#ffffff;fill-opacity:1;fill-rule:evenodd;stroke:none"
       id="path100"
       d="m 126.83152,36.344101 c 0,0 -2.96027,0.951551 -3.90242,0.815712 0,0 -0.26933,1.358055 -2.01912,1.902088 -1.7488,0.543695 -0.26799,0 -0.26799,0 0,0 5.65221,2.175119 8.61248,-2.037928 l -2.42295,-0.679872 0,0" /><path
       inkscape:connector-curvature="0"
       style="fill:#ffffff;fill-opacity:1;fill-rule:evenodd;stroke:none"
       id="path102"
       d="m 128.44682,39.605596 c 0,0 -1.34597,1.087728 -5.11389,2.175457 0,0 2.82678,4.077207 10.22778,-0.679873 0,0 -3.76792,-0.135867 -4.44074,-0.951551 -0.67315,-0.814698 -0.67315,-0.544033 -0.67315,-0.544033 l 0,0" /><path
       inkscape:connector-curvature="0"
       style="fill:#ffffff;fill-opacity:1;fill-rule:evenodd;stroke:none"
       id="path104"
       d="m 129.11997,44.364027 c 0,0 -1.21147,1.766249 -2.82577,2.174105 -1.6153,0.407856 -0.40382,0.135867 -0.40382,0.135867 0,0 4.66824,1.287095 7.67033,-3.261495 1.61531,-2.447135 -1.88329,0.815712 -4.44074,0.951551 l 0,0" /><path
       inkscape:connector-curvature="0"
       style="fill:#ffffff;fill-opacity:1;fill-rule:evenodd;stroke:none"
       id="path106"
       d="m 126.56219,44.498853 c 0,0 -3.49859,0.137134 -3.90242,-1.495584 0,0 -2.55744,1.360758 -4.17174,1.089079 -1.6153,-0.272016 -0.26899,0 -0.26899,0 0,0 -0.40383,1.359407 -1.88463,2.173767 0,0 4.8459,2.447136 8.88181,-0.679872 4.03825,-3.125656 1.34597,-1.08739 1.34597,-1.08739 l 0,0" /><path
       inkscape:connector-curvature="0"
       style="fill:#ffffff;fill-opacity:1;fill-rule:evenodd;stroke:none"
       id="path108"
       d="m 119.02669,39.741773 c 0,0 1.21013,0.815712 3.49859,0.951551 0,0 -2.01913,3.127008 -7.80484,1.767263 -5.78704,-1.359407 -0.26933,-0.135867 -0.26933,-0.135867 0,0 1.47947,-0.951551 1.8833,-1.631424 0,0 1.6153,-0.407856 2.15362,-0.679872 0.53866,-0.271679 0.53866,-0.271679 0.53866,-0.271679 l 0,0" /><path
       inkscape:connector-curvature="0"
       style="fill:#ffffff;fill-opacity:1;fill-rule:evenodd;stroke:none"
       id="path110"
       d="m 119.02669,36.207924 c 0,0 0.40382,0.951889 2.01912,0.679872 0,0 -2.42295,3.261833 -8.47932,2.447135 -6.05604,-0.815711 -0.26933,-0.137134 -0.26933,-0.137134 0,0 2.96161,-1.494233 3.63342,-2.581623 l 3.09611,-0.408194 0,0" /><path
       inkscape:connector-curvature="0"
       style="fill:#ffffff;fill-opacity:1;fill-rule:evenodd;stroke:none"
       id="path112"
       d="m 111.08568,40.285469 c 0,0 2.55645,0.951551 2.96161,0.679872 0,0 -1.21148,1.223567 -4.30758,1.631423 -3.09477,0.406505 -0.26933,0 -0.26933,0 l 1.6153,-2.311295 0,0" /><path
       inkscape:connector-curvature="0"
       style="fill:#ffffff;fill-opacity:1;fill-rule:evenodd;stroke:none"
       id="path114"
       d="m 112.97031,43.14046 c 0,0 2.15262,1.358393 3.22926,1.087728 0,0 -0.26899,3.397672 -9.55463,2.037927 -9.286975,-1.359406 -0.26933,-0.135867 -0.26933,-0.135867 0,0 4.71007,-1.902088 5.65255,-2.581961 0.94215,-0.679872 0.94215,-0.407856 0.94215,-0.407856 l 0,0" /><path
       inkscape:connector-curvature="0"
       style="fill:#ffffff;fill-opacity:1;fill-rule:evenodd;stroke:none"
       id="path116"
       d="m 120.23816,32.673398 c 0,0 0.40383,2.582975 -5.51772,3.12667 -5.92321,0.544033 -0.27066,0 -0.27066,0 l 1.07698,-1.901751 -11.84343,0 c 0,0 -2.28711,-0.545384 -2.69094,-1.224919 l 19.24577,0 0,0" /><path
       inkscape:connector-curvature="0"
       style="fill:#ffffff;fill-opacity:1;fill-rule:evenodd;stroke:none"
       id="path118"
       d="m 109.20139,36.47994 3.3651,0 c 0,0 0.21713,0.834297 -1.34598,1.359745 l -2.01912,-1.359745 0,0" /><path
       inkscape:connector-curvature="0"
       style="fill:#ffffff;fill-opacity:1;fill-rule:evenodd;stroke:none"
       id="path120"
       d="m 101.66555,54.694235 c 0,0 4.71006,-2.039617 9.15114,-5.302464 0,0 6.45986,-4.349223 8.61382,-0.67852 2.15229,3.669688 -10.09463,6.524679 -10.09463,6.524679 l -7.67033,-0.543695 0,0" /><path
       inkscape:connector-curvature="0"
       style="fill:#ffffff;fill-opacity:1;fill-rule:evenodd;stroke:none"
       id="path122"
       d="m 101.66555,56.189481 c 0,0 6.05637,1.222216 8.34349,0.272017 0,0 -5.78705,4.62124 -12.651075,2.989817 -6.864025,-1.631424 0,-0.272017 0,-0.272017 0,0 2.019126,-0.951551 3.499935,-2.175456 1.47946,-1.222216 0.80765,-0.814361 0.80765,-0.814361 l 0,0" /><path
       inkscape:connector-curvature="0"
       style="fill:#ffffff;fill-opacity:1;fill-rule:evenodd;stroke:none"
       id="path124"
       d="m 100.31957,61.354417 c 0,0 4.57524,-2.175119 2.28712,1.358393 l -2.28712,-1.358393 0,0" /><path
       inkscape:connector-curvature="0"
       style="fill:#ffffff;fill-opacity:1;fill-rule:evenodd;stroke:none"
       id="path126"
       d="m 105.56796,61.762272 c 0,0 5.1139,-3.534525 3.09477,0.950538 0,0 -1.21014,-1.358393 -2.01779,-0.81436 -0.80765,0.543695 -0.26933,0 -0.26933,0 l -0.80765,-0.136149 0,0" /><path
       inkscape:connector-curvature="0"
       style="fill:#ffffff;fill-opacity:1;fill-rule:evenodd;stroke:none"
       id="path128"
       d="m 111.22051,61.89845 c 0,0 4.44074,-2.311296 3.22927,1.087728 0,0 -0.67182,-1.087728 -2.15262,-0.815712 l -1.07665,-0.272016 0,0" /><path
       inkscape:connector-curvature="0"
       style="fill:#ffffff;fill-opacity:1;fill-rule:evenodd;stroke:none"
       id="path130"
       d="m 126.02387,54.558058 c 0,0 9.01765,-5.029096 10.36362,-6.660519 0,0 4.30624,-4.485063 6.99852,-1.495584 2.69095,2.991168 -6.19087,7.204552 -7.80617,7.748247 -1.6153,0.544033 -9.55597,0.407856 -9.55597,0.407856 l 0,0" /><path
       inkscape:connector-curvature="0"
       style="fill:#ffffff;fill-opacity:1;fill-rule:evenodd;stroke:none"
       id="path132"
       d="m 125.48655,55.645786 c 0,0 5.78705,1.358056 9.8243,0 0,0 -4.17175,5.708631 -15.20852,3.397673 0,0 3.2306,-1.359745 4.44207,-2.581961 1.21148,-1.223568 0.94215,-0.815712 0.94215,-0.815712 l 0,0" /><path
       inkscape:connector-curvature="0"
       style="fill:#ffffff;fill-opacity:1;fill-rule:evenodd;stroke:none"
       id="path134"
       d="m 123.87125,61.218577 c 0,0 4.57557,-2.175118 2.28846,1.358393 l -2.28846,-1.358393 0,0" /><path
       inkscape:connector-curvature="0"
       style="fill:#ffffff;fill-opacity:1;fill-rule:evenodd;stroke:none"
       id="path136"
       d="m 129.5238,61.626433 c 0,0 5.11389,-3.534863 3.09477,0.950537 0,0 -1.21014,-1.358393 -2.01813,-0.814698 -0.80765,0.544034 -0.27033,0 -0.27033,0 l -0.80631,-0.135867 0,0" /><path
       inkscape:connector-curvature="0"
       style="fill:#ffffff;fill-opacity:1;fill-rule:evenodd;stroke:none"
       id="path138"
       d="m 134.77219,61.762272 c 0,0 5.51772,-2.854991 3.2306,1.086377 0,0 -0.67282,-1.086377 -2.15362,-0.815712 l -1.07698,-0.270665 0,0" /><path
       inkscape:connector-curvature="0"
       style="fill:#ffffff;fill-opacity:1;fill-rule:evenodd;stroke:none"
       id="path140"
       d="m 132.71526,21.784965 c 0,0 6.22868,-3.534864 12.15156,-9.51551 5.9202,-5.9806473 14.1302,-8.3382366 20.7249,-7.6360622 l 32.83899,0 c 0,0 0.80765,1.5192377 -4.03859,2.8789825 l -34.85644,0 c 0,0 -2.28712,-1.2235676 -9.82396,4.0772067 l 35.52959,0.135868 c 0,0 -1.4808,2.463016 -6.86402,2.735033 l -31.49268,-0.01591 -5.78705,4.213384 c 0,0 27.18644,-0.13995 32.41944,-0.0056 -2.89235,2.228171 -6.8483,2.197759 -6.8483,2.197759 l -27.99409,0 c 0,0 -2.47515,1.263441 -3.85792,1.263441 -1.62567,0 -2.10143,-0.328785 -2.10143,-0.328785 l 0,0" /><g
       id="g3325"
       transform="matrix(1.2441731,0,0,-1.244137,-7.0672527,210.00295)"><path
         inkscape:connector-curvature="0"
         id="path142"
         style="fill:#87d8f7;fill-opacity:1;fill-rule:evenodd;stroke:none"
         d="m 146.34813,110.22102 c 2.65969,0 4.8095,2.1632 4.8103,4.83467 -8e-4,2.64738 -2.15061,4.81057 -4.8103,4.81057 -2.67254,0 -4.83466,-2.16319 -4.83466,-4.81057 0,-2.67147 2.16212,-4.83467 4.83466,-4.83467 l 0,0 z m 0,0.63569 c -2.3535,0 -4.07131,1.8329 -4.07131,4.19898 0,2.34198 1.71781,4.17382 4.07131,4.17382 2.34198,0 4.04615,-1.83184 4.04615,-4.17382 0,-2.36608 -1.70417,-4.19898 -4.04615,-4.19898 l 0,0 z m 0.77566,3.98244 c 0.95473,0.0262 1.69266,0.42049 1.69266,1.47639 0,0.89076 -0.48285,1.425 -1.90785,1.425 l -2.35457,0 0,-5.38229 0.66165,0 0,2.4809 1.20873,0 1.54009,-2.4809 0.78932,0 -1.63003,2.4809 0,0 z m -1.90811,0.52193 0,1.90892 1.54009,0 c 0.66084,0 1.34871,-0.10227 1.34871,-0.94188 0,-1.09364 -1.1196,-0.96704 -1.88402,-0.96704 l -1.00478,0 0,0" /></g></g></svg>