<?xml version="1.0" encoding="UTF-8" standalone="no"?>
<!DOCTYPE svg PUBLIC "-//W3C//DTD SVG 1.1//EN" "http://www.w3.org/Graphics/SVG/1.1/DTD/svg11.dtd">
<svg
    xmlns:svg="http://www.w3.org/2000/svg"
    xmlns="http://www.w3.org/2000/svg"
    version="1.1"
    width="300"
    height="300"
    id="svg5817">
  <defs id="defs5819" />
  <path
      d="M 0,150.0005 C 0,67.15674 67.156733,0 149.9995,0 232.84526,0 300,67.15674 300,150.0005 300,232.84526 232.84526,300 149.9995,300 67.156733,300 0,232.84526 0,150.0005"
      id="path4948"
      style="fill:#ffffff;fill-opacity:1;fill-rule:nonzero;stroke:none;"
  />
  <path
      d="m 3.8767169,150.00049 c 0,-80.70288 65.4207481,-146.12363 146.1226331,-146.12363 80.70338,0 146.12363,65.42075 146.12363,146.12363 0,80.70239 -65.42025,146.12261 -146.12363,146.12261 -80.701885,0 -146.1226331,-65.42022 -146.1226331,-146.12261"
      id="path4952"
      style="fill:#004f9f;fill-opacity:1;fill-rule:nonzero;stroke:none;"
  />
  <path
      d="m 7.7534836,150.00049 c 0,-78.562 63.6847634,-142.24726 142.2457664,-142.24726 78.5625,0 142.24726,63.68526 142.24726,142.24726 0,78.56101 -63.68476,142.24581 -142.24726,142.24581 -78.561003,0 -142.2457664,-63.6848 -142.2457664,-142.24581"
      id="path4956"
      style="fill:#ffffff;fill-opacity:1;fill-rule:nonzero;stroke:none;"
  />
  <path
      d="m 278.16594,149.34789 c -2.11303,-0.0363 -3.86244,1.48478 -3.89627,3.38442 -0.0323,1.90063 1.66337,3.48142 3.7759,3.51873 2.11153,0.0363 3.86144,-1.48479 3.89527,-3.38542 0.0323,-1.89964 -1.66337,-3.48043 -3.7749,-3.51773 m -24.22972,11.32145 17.10169,8.28448 -18.82275,2.59502 0.57352,5.74516 26.27803,-4.47874 0.79985,-5.05524 -23.60939,-12.37723 -2.32095,5.28655 z m 19.67453,23.41684 c -2.01852,-0.6163 -4.11961,0.36311 -4.67672,2.18117 -0.55412,1.81706 0.63968,3.80325 2.65969,4.42104 2.01951,0.61779 4.1206,-0.36311 4.67622,-2.18018 0.55611,-1.81656 -0.63918,-3.80325 -2.65919,-4.42203 m -15.11933,17.19858 c -0.70833,-0.31536 -3.24217,-2.4642 -2.32841,-4.51754 0.86799,-1.94888 2.57015,-1.74344 2.57015,-1.74344 0.79338,2.1359 0.86302,3.78136 -0.24174,6.26098 m 7.39708,-0.18852 c -0.94758,2.12546 -3.2541,1.90461 -3.68685,1.71211 2.11253,-4.74635 1.31268,-8.88287 -2.11154,-12.74133 -4.0813,-0.58447 -7.38912,0.91325 -8.96593,4.45536 -2.03394,4.57076 1.43604,9.80956 6.43707,12.035 4.99953,2.22494 11.2451,1.22862 13.2477,-3.26952 1.93992,-4.35887 -0.5785,-8.23822 -0.5785,-8.23822 l -4.31758,1.64396 c 0,0 1.20574,1.63949 -0.0244,4.40264 m -30.24791,21.38404 c 0.96001,0.86601 0.82074,2.30653 0.0438,3.17104 -0.77895,0.86451 -2.17222,1.12316 -3.13372,0.25865 -0.96002,-0.866 -0.8476,-2.27717 -0.0696,-3.14168 0.77945,-0.86551 2.19808,-1.15401 3.15959,-0.28801 m 8.94504,6.4898 c 1.47285,1.32462 1.25996,3.42969 0.0657,4.75381 -1.16694,1.29776 -3.27051,1.70216 -4.71153,0.4049 -1.44052,-1.29875 -1.25996,-3.43218 -0.093,-4.72844 1.1943,-1.32612 3.26555,-1.75887 4.73889,-0.43027 m -9.89461,1.84144 c -0.95156,2.79498 -0.38898,5.64817 2.04389,7.84128 3.74753,3.37248 9.35591,1.84641 12.08026,-1.17838 3.01086,-3.34314 3.62467,-8.79135 -0.1164,-12.10862 -2.43435,-2.19162 -5.41438,-2.42292 -8.06511,-1.15401 0.54268,-2.27817 0.0791,-4.46829 -1.84144,-6.1988 -3.2342,-2.91288 -7.85272,-1.90461 -10.47361,1.00677 -2.62337,2.90988 -3.16705,7.63684 0.0662,10.54971 1.92401,1.73051 4.06638,1.99016 6.30625,1.24205 m -9.43241,11.13388 c 1.16942,1.54796 0.5775,3.34065 -0.81527,4.39219 -1.39476,1.04955 -3.28096,1.12316 -4.44939,-0.4248 -1.16694,-1.54945 -0.57651,-3.34314 0.81775,-4.39368 1.39326,-1.05054 3.27997,-1.12466 4.44691,0.42629 m 6.04759,-1.32065 c -4.66876,-6.19383 -9.86626,-6.32415 -13.64365,-3.47744 -3.59333,2.70744 -5.03982,8.00543 -1.87476,12.20509 3.24216,4.3007 7.71593,4.438 10.96854,1.9862 1.54796,-1.1654 2.06229,-2.0946 2.60248,-3.3103 0.49742,1.9459 0.23031,4.6842 -0.11341,6.2918 -0.48598,2.2548 -1.56636,4.6882 -2.54478,5.9651 l 5.40542,1.0515 c 3.55405,-5.9143 3.948,-14.41365 -0.79984,-20.71195 m -27.10996,7.43305 c 0.60585,1.141 -0.0169,2.4487 -1.04408,2.9929 -1.02617,0.5467 -2.42441,0.3139 -3.03175,-0.8272 -0.60586,-1.1411 -0.0179,-2.4304 1.00925,-2.97604 1.02717,-0.54766 2.45923,-0.33227 3.06658,0.81034 m 6.18587,9.1554 c 0.93067,1.7499 0.0119,3.6545 -1.56338,4.4922 -1.54199,0.8192 -3.65452,0.4795 -4.56429,-1.2341 -0.91227,-1.7126 -0.0119,-3.6545 1.52856,-4.4728 1.57532,-0.8386 3.66894,-0.5362 4.59911,1.2147 m -9.92694,-1.6514 c -1.85039,2.3 -2.29906,5.1741 -0.76105,8.0661 2.36721,4.4519 8.15913,4.9354 11.75396,3.0238 3.97137,-2.1125 6.41369,-7.022 4.03206,-11.4152 -1.53801,-2.8935 -4.26038,-4.1301 -7.18369,-3.8446 1.2898,-1.9553 1.60367,-4.1713 0.38898,-6.45345 -2.04439,-3.84453 -6.72856,-4.47675 -10.1866,-2.6378 -3.45705,1.83895 -5.58798,6.09435 -3.5436,9.93645 1.2137,2.2846 3.1392,3.2615 5.49994,3.3247 m -4.23083,17.1495 -6.45498,-18.7427 -5.20745,1.7922 6.45348,18.7427 5.20895,-1.7922 z m -32.4161,7.6941 -1.7524,-20.0056 5.7959,-0.5049 -0.50289,-5.7531 -17.15192,1.4977 0.50139,5.7517 5.7959,-0.5039 1.74942,20.0041 5.5646,-0.486 z m -29.84197,-20.3736 2.23191,0.274 c 3.1566,0.3865 4.88562,3.8123 4.57076,7.3335 -0.34272,3.7361 -2.96461,7.2782 -6.31421,6.8658 l -2.23191,-0.2741 1.74345,-14.1992 z m 2.93625,-5.4587 -7.77463,-0.955 -3.15113,25.6632 7.77512,0.9545 c 6.31272,0.777 11.96735,-4.8662 12.63538,-11.9051 0.64366,-6.8256 -3.36502,-13.0055 -9.48474,-13.7576 m -21.90425,3.2747 -0.37853,7.9438 -3.98331,-1.2953 4.36184,-6.6485 z m -10.63477,16.1636 2.97605,-4.5151 7.0081,2.2797 -0.24672,5.4014 5.73771,0.4149 -0.1,-26.676 -4.50013,-1.4629 -15.760652,21.5198 4.885622,3.0382 z m -13.632795,-6.8541 9.427045,-17.7309 5.13632,2.7333 2.71092,-5.09807 -15.203539,-8.08701 -2.710424,5.09803 5.135828,2.73032 -9.426544,17.73093 4.930394,2.6234 z m -16.229514,-24.85267 0.925195,2.31697 c 0.74513,1.91008 1.310195,3.4153 0.402907,4.62 -1.011248,1.3425 -2.671625,1.2251 -3.724159,0.4313 -1.239065,-0.9342 -1.829001,-2.72787 -1.695694,-4.51608 l -5.355686,1.62954 c -0.137287,3.40384 1.605164,5.79694 3.679889,7.36024 3.344631,2.5214 8.630181,2.0807 11.431135,-1.637 2.048859,-2.7178 2.035926,-5.85755 0.82223,-8.82364 l -0.924698,-2.31697 c -0.658082,-1.57532 -1.311191,-3.09095 -0.429768,-4.26286 0.88192,-1.16943 2.194603,-0.71877 3.308816,0.12137 1.022191,0.77 1.39227,1.69669 1.518116,3.14019 l 4.941835,-1.40073 c -0.159173,-2.81985 -1.219666,-4.6976 -3.449585,-6.37887 -2.787523,-2.10208 -8.061633,-2.19162 -10.654667,1.25001 -2.283142,3.02877 -1.788213,6.0461 -0.795866,8.46653 m -26.975756,-9.95027 3.340651,3.98281 14.953342,-7.38514 -12.024553,12.21804 4.48073,3.53067 16.7331,-19.81311 -3.340154,-3.98281 -16.069048,8.0666 10.735746,-14.42558 -3.340651,-3.98132 -22.416086,13.03729 2.697989,5.02689 14.118677,-9.72002 -9.869743,13.44568 z m -2.71122,-30.66644 5.099019,-2.70993 0.418328,0.78691 c 1.219665,2.29409 0.763534,3.54857 -0.910771,4.43796 -1.674304,0.89037 -3.38691,-0.21986 -4.187751,-1.72654 l -0.418825,-0.7884 z m -0.813774,7.3737 c 2.514939,1.51812 5.567088,1.47833 8.078546,0.14326 4.604089,-2.44878 5.554155,-8.00642 3.350599,-12.1509 l -3.039714,-5.71979 -22.828942,12.13846 2.620889,4.93139 7.533874,-4.0047 0.400918,0.75458 -5.199995,10.23186 4.709045,3.07453 4.37478,-9.39869 z m -3.137456,-27.25883 -6.723085,4.24495 -1.224142,-4.0057 7.947227,-0.23925 z m -19.339563,0.5581 5.405428,-0.15221 2.153814,7.0479 -4.566286,2.89596 2.950677,4.94034 21.793817,-15.3846 -1.383316,-4.5255 -26.667507,-0.56706 0.313373,5.74517 z m 17.026973,-25.69884 0.195485,2.24236 c 0.277061,3.16804 -2.714403,5.57057 -6.224673,5.99436 -3.724657,0.4432 -7.733836,-1.38779 -8.027809,-4.74883 l -0.195485,-2.24087 14.252482,-1.24702 z m 5.94811,1.73947 -0.681461,-7.80547 -25.757872,2.25131 0.681461,7.80497 c 0.553625,6.33758 7.249849,10.69744 14.273374,9.88864 6.809137,-0.78989 12.02107,-5.99636 11.484358,-12.13945"
      id="path5028"
      style="fill:#004f9f;fill-opacity:1;fill-rule:evenodd;stroke:none;"
  />
  <path
      d="m 241.85884,99.77329 3.28743,5.26168 21.92314,-13.69936 -3.28643,-5.26217 -12.42348,7.76368 7.71842,-15.29159 -3.28743,-5.26217 -21.92166,13.69985 3.28644,5.26267 12.42348,-7.76318 -7.71991,15.29059 z m 5.95085,-35.57102 -4.29172,-4.6011 -18.90432,17.62895 4.29022,4.6006 18.90582,-17.62845 z m -31.43013,-1.89152 2.95516,-3.92213 6.02222,4.53793 3.47495,-4.61056 -6.02222,-4.53843 2.17769,-2.89049 7.05287,5.31689 3.47645,-4.61055 -12.00914,-9.0505 -15.5572,20.64428 12.35135,9.31015 3.47595,-4.61155 -7.39808,-5.57504 z m -17.95714,-20.52208 2.44082,-5.23282 0.89685,0.41932 c 2.61591,1.21917 3.09492,2.53683 2.29508,4.25491 -0.80234,1.71758 -3.01584,1.77876 -4.73442,0.97742 l -0.89833,-0.41883 z m 4.40413,6.66489 c 3.17501,-0.18355 5.72825,-1.98768 6.92901,-4.56529 2.20306,-4.72446 -0.83118,-9.94286 -5.55564,-12.14642 l -6.52064,-3.0412 -10.92327,23.42982 5.6213,2.62238 3.60528,-7.73135 0.85954,0.40042 2.66963,11.60821 6.10579,-0.14723 -2.791,-10.42934 z m -28.33271,-5.56833 1.18733,-4.76575 7.31551,1.82452 1.39724,-5.6019 -7.3155,-1.82453 0.87495,-3.51226 8.57149,2.1379 1.39674,-5.60191 -14.59072,-3.6396 -6.25452,25.08374 15.00806,3.74355 1.39724,-5.6019 -8.98782,-2.24186 z m -15.84427,-23.56278 -6.43408,18.07214 -5.79988,-18.28653 -6.22965,1.35596 9.03806,25.41103 5.68597,0.099 9.918,-25.07776 -6.17842,-1.57383 z m -26.25465,27.82191 -3.83359,-19.70865 6.34455,-1.23309 -1.10227,-5.66657 -18.77798,3.64954 1.10227,5.66757 6.34356,-1.23359 3.83259,19.70864 6.09087,-1.18385 z m -30.61948,-5.61315 -2.162766,-5.3532 0.918226,-0.37107 c 2.67611,-1.08138 3.9664,-0.53373 4.67671,1.22414 0.71032,1.75787 -0.75607,3.41875 -2.51344,4.12906 l -0.91873,0.37107 z m 7.87709,1.32512 c 2.03195,-2.44729 2.45276,-5.5452 1.38779,-8.18151 -1.95385,-4.8334 -7.83879,-6.17344 -12.672183,-4.22108 l -6.671354,2.695 9.684707,23.96903 5.75312,-2.32443 -3.1969,-7.90943 0.87894,-0.35515 10.31045,5.96502 4.05643,-4.56579 -9.531,-5.07166 z M 76.625802,58.03824 c -2.532846,-3.4854 -3.611743,-7.38863 -0.578496,-9.59219 3.032253,-2.20356 6.411205,0.0283 8.944051,3.51475 2.532846,3.4854 3.611743,7.38863 0.578496,9.59218 -3.032253,2.20256 -6.411205,-0.0293 -8.944051,-3.51474 M 72.703671,43.84495 c -5.646675,4.10269 -5.270131,12.24441 -1.167437,17.89009 4.103191,5.64767 11.730082,8.52174 17.377254,4.41905 C 94.56066,62.05139 94.184116,53.91017 90.080925,48.2635 85.977734,42.61633 78.350843,39.74275 72.703671,43.84495 M 54.680272,69.30458 55.343329,68.5674 c 1.470364,-1.63202 3.987293,-2.49653 5.620312,-1.02666 1.633516,1.47036 1.037114,4.06439 -0.432753,5.69741 l -0.663554,0.73617 -5.187062,-4.66974 z m -3.628157,-4.59912 -4.814497,5.34673 19.214214,17.29618 4.150446,-4.61006 -5.443729,-4.90105 0.663554,-0.73617 C 68.540293,72.97054 69.303827,66.5847 65.172781,62.86601 61.041735,59.14782 54.7713,60.57491 51.052115,64.70546 m -4.607522,30.4427 2.328408,-1.36541 c 1.922018,-1.10675 3.436652,-1.95584 4.729936,-1.17937 1.440519,0.8655 1.41714,2.66068 0.663056,3.91666 -0.887889,1.47732 -2.698983,2.39904 -4.546389,2.54578 l 1.992154,5.46909 c 3.51027,-0.4044 5.86902,-2.6562 7.355302,-5.13085 2.396554,-3.98829 1.631029,-9.57478 -2.358253,-11.97083 -2.917349,-1.7529 -6.146579,-1.23061 -9.125608,0.54915 l -2.328408,1.36441 c -1.581785,0.96051 -3.104875,1.90511 -4.360355,1.15052 -1.255977,-0.75408 -0.870977,-2.2319 -0.07212,-3.5615 0.732695,-1.21817 1.663859,-1.76483 3.141684,-2.13342 l -1.733497,-5.06221 c -2.889992,0.62674 -4.760279,2.06577 -6.357484,4.72496 -1.996631,3.32424 -1.778265,8.98335 1.915055,11.20232 3.250121,1.95286 6.324654,0.93515 8.756524,-0.5193"
      id="path5076"
      style="fill:#004f9f;fill-opacity:1;fill-rule:evenodd;stroke:none;"
  />
  <path
      d="m 274.3318,123.64711 c -0.59193,-2.78206 -3.3506,-4.57425 -6.13166,-3.98282 -2.78105,0.59143 -4.57325,3.3506 -3.98281,6.13265 0.59192,2.78156 3.35209,4.57425 6.13165,3.98232 2.78255,-0.59093 4.57475,-3.3506 3.98282,-6.13215 M 25.382478,121.69798 c -0.687927,2.75917 1.007269,5.58002 3.76644,6.26745 2.759171,0.68842 5.580021,-1.00627 6.267949,-3.76545 0.687927,-2.75966 -1.006772,-5.58001 -3.765943,-6.26794 -2.759668,-0.68743 -5.580021,1.00677 -6.268446,3.76594"
      id="path5080"
      style="fill:#004f9f;fill-opacity:1;fill-rule:evenodd;stroke:none;"
  />
  <path
      d="m 53.391719,149.82476 c 0,-53.70658 43.536898,-97.24398 97.243481,-97.24398 53.70808,0 97.24448,43.5374 97.24448,97.24398 0,53.70857 -43.5364,97.24448 -97.24448,97.24448 -53.706583,0 -97.243481,-43.53591 -97.243481,-97.24448 m 48.320551,64.34135 c 1.32711,0.71429 2.30503,-0.53522 3.80275,-0.72374 5.25272,-0.66455 6.14559,1.97972 10.08115,1.44848 4.4678,-0.60486 9.24897,-1.32313 13.63021,-4.88712 1.9653,-1.59969 2.96063,-2.69948 4.37279,-4.80355 1.86731,-2.78454 2.49405,-5.12638 3.30683,-7.93678 0.78443,-2.7164 0.48349,-8.99529 2.71639,-8.9346 2.48659,0.0671 2.04588,5.82425 1.69023,9.59865 -0.26214,2.78603 -2.11253,8.45011 -3.74207,11.95193 -1.16445,2.502 -4.62797,14.71906 1.54398,21.72915 2.50051,2.84075 9.20072,10.74918 11.55648,10.74918 1.93097,0 5.49248,-3.98382 7.60501,-6.39927 2.6776,-3.05862 4.60558,-4.59762 6.1048,-8.3387 0.94061,-2.35228 1.52707,-3.85995 1.44052,-6.33112 -0.26364,-7.6627 -2.02101,-11.62761 -4.03405,-15.78452 -1.09581,-2.26524 -1.46689,-4.33449 -1.82105,-7.21603 -0.48199,-3.92312 -0.96499,-9.89859 1.63103,-9.89859 2.53683,0 1.74942,5.07067 3.03673,9.89611 1.31567,4.93238 3.28743,9.13854 8.97589,12.80201 3.56299,2.29409 8.57148,3.44014 12.55579,3.74257 2.73828,0.20692 3.95546,-1.33258 6.57983,-1.44848 2.43983,-0.10894 4.49963,0.0478 6.21821,0.72473 1.99265,0.78443 1.45395,-6.04759 -1.08537,-9.59865 -5.91727,-8.27204 -15.29606,-2.55473 -20.70547,-8.51229 -1.56785,-1.72504 -3.20087,-4.67522 -2.17371,-5.97646 0.90431,-1.14754 3.01087,2.10904 5.85112,-1.92401 0.72921,-1.03413 0.58048,-5.49248 -0.90182,-8.45907 -2.11402,-4.22605 -4.97765,-3.59931 -4.76824,-5.13185 0.09,-0.66554 2.35278,-6.27789 5.85509,-11.65099 2.68009,-3.52768 6.09784,-7.00263 9.05448,-8.81323 3.82762,-2.34283 3.58886,-2.72534 8.27055,-3.38044 3.01882,-0.42231 7.30009,0 10.08115,3.01733 2.83776,3.0795 3.19938,5.49496 2.59701,10.80737 -0.4626,4.06041 -2.7149,7.28815 -1.93296,11.1675 0.43175,2.14387 2.17371,7.12301 5.73471,6.82158 2.16476,-0.18455 -0.32779,-2.8323 3.32126,-7.72737 2.47365,-3.31976 12.13299,-5.13135 16.01632,-11.23217 1.82054,-2.86114 4.03156,-6.3346 3.72416,-12.91493 -0.36312,-7.72637 -3.32872,-12.84479 -9.3584,-17.92889 -6.15653,-5.19154 -16.84601,-8.21981 -28.55222,-5.13135 -4.34991,1.14754 -6.53755,2.25131 -10.34577,4.43248 -7.63485,4.37279 -11.62911,7.58014 -16.45803,15.42838 -3.29787,5.35867 -5.01048,9.47728 -6.33858,14.18632 -1.89317,6.71165 -1.81159,15.04537 -5.49496,14.66932 -2.95764,-0.30243 0.0612,-12.19368 0.66454,-18.95456 0.54517,-6.10579 2.98252,-14.23259 6.52064,-21.24964 3.62219,-7.1842 7.18369,-12.37573 9.41809,-21.18946 1.1356,-4.48571 2.41247,-7.96165 1.68873,-13.46159 -0.60337,-4.58817 -1.97077,-9.4549 -4.91697,-14.75786 -2.87009,-5.16368 -5.70636,-7.3369 -9.75285,-11.13965 -5.2164,-4.90652 -7.94722,-9.38824 -10.80438,-13.28102 -4.83042,-6.57983 -3.38194,-6.51964 -7.90744,-0.12137 -2.98102,4.21162 -4.34842,5.85608 -7.09913,9.32557 -3.05016,3.84403 -6.80019,6.43458 -9.3211,9.38874 -2.11402,2.47564 -5.13483,6.47437 -6.93647,11.33314 -1.97823,5.33529 -2.30055,10.64074 -2.05881,14.44399 0.2303,3.63214 2.38959,11.73058 5.24974,18.21291 0.9048,2.05284 6.03267,9.91053 8.6441,16.80075 2.8507,7.52194 3.73361,11.65049 4.87966,20.04142 0.70832,5.18159 2.63482,14.29078 0.0607,14.66931 -4.10418,0.60387 -2.47464,-5.61484 -5.49297,-14.48825 -1.94241,-5.70786 -3.01385,-9.12113 -6.33958,-14.18633 -5.83618,-8.8948 -10.02045,-12.43542 -20.76615,-17.68863 -2.67908,-1.30871 -9.277315,-4.62548 -21.248643,-3.01733 -4.044496,0.54317 -11.409746,3.44112 -15.816361,8.08948 -3.180483,3.35359 -4.847824,6.2003 -5.915777,10.92576 -1.813084,8.01985 -0.517811,14.72005 5.311913,20.40503 4.829419,4.70755 11.469436,5.25173 14.125641,9.17485 3.061103,4.52152 0.546661,8.23921 3.984806,7.00264 1.215189,-0.43674 2.306024,-1.61263 3.259572,-3.07802 1.614614,-2.48261 1.409679,-4.52798 1.267915,-7.48612 -0.142261,-2.94869 -1.754389,-4.36533 -1.970268,-7.31004 -0.276066,-3.77241 -0.552132,-6.48333 1.651921,-9.55786 2.957143,-4.1206 7.316503,-4.91547 12.328971,-4.14149 3.27151,0.50388 4.87717,1.88919 7.61545,3.75151 3.21729,2.18764 4.13701,3.21133 7.2215,6.88525 3.52618,4.19969 4.73391,8.376 6.15503,11.14014 2.24484,4.36931 -1.2908,1.68525 -3.52668,6.15653 -1.15351,2.30503 -2.10806,4.27579 -1.68376,7.00512 1.23459,7.94325 5.88444,2.406 6.50124,4.47227 0.0955,0.31835 -0.0124,2.72933 -1.85189,4.9871 -4.97715,6.10828 -11.53409,2.18914 -18.13879,6.21025 -5.03336,3.06558 -6.21373,11.75346 -4.64389,12.59857"
      id="path4960"
      style="fill:#004f9f;fill-opacity:1;fill-rule:nonzero;stroke:none;"
  />
  <metadata id="metadata6460"></metadata>
</svg>
