<?xml version="1.0" encoding="UTF-8" standalone="no"?>
<!-- Created with Inkscape (http://www.inkscape.org/) -->

<svg
   xmlns:dc="http://purl.org/dc/elements/1.1/"
   xmlns:cc="http://creativecommons.org/ns#"
   xmlns:rdf="http://www.w3.org/1999/02/22-rdf-syntax-ns#"
   xmlns:svg="http://www.w3.org/2000/svg"
   xmlns="http://www.w3.org/2000/svg"
   xmlns:sodipodi="http://sodipodi.sourceforge.net/DTD/sodipodi-0.dtd"
   xmlns:inkscape="http://www.inkscape.org/namespaces/inkscape"
   id="svg2"
   sodipodi:version="0.32"
   inkscape:version="0.48.1 "
   width="500"
   height="600"
   version="1.0"
   sodipodi:docname="Torino_FC_Logo.svg">
  <metadata
     id="metadata7">
    <rdf:RDF>
      <cc:Work
         rdf:about="">
        <dc:format>image/svg+xml</dc:format>
        <dc:type
           rdf:resource="http://purl.org/dc/dcmitype/StillImage" />
        <dc:title>Torino FC Logo SVG Version</dc:title>
        <dc:date>June 8 2006</dc:date>
        <dc:creator>
          <cc:Agent>
            <dc:title>Angelo Romano</dc:title>
          </cc:Agent>
        </dc:creator>
        <dc:rights>
          <cc:Agent>
            <dc:title />
          </cc:Agent>
        </dc:rights>
        <cc:license
           rdf:resource="http://web.resource.org/cc/PublicDomain" />
      </cc:Work>
      <cc:License
         rdf:about="http://web.resource.org/cc/PublicDomain">
        <cc:permits
           rdf:resource="http://web.resource.org/cc/Reproduction" />
        <cc:permits
           rdf:resource="http://web.resource.org/cc/Distribution" />
        <cc:permits
           rdf:resource="http://web.resource.org/cc/DerivativeWorks" />
      </cc:License>
    </rdf:RDF>
  </metadata>
  <defs
     id="defs5">
    <style
       id="style2416"
       type="text/css">
   
    .fil0 {fill:#E46417}
   
  </style>
  </defs>
  <sodipodi:namedview
     inkscape:window-height="738"
     inkscape:window-width="1280"
     inkscape:pageshadow="2"
     inkscape:pageopacity="0.0"
     borderopacity="1.0"
     bordercolor="#666666"
     pagecolor="#ffffff"
     id="base"
     inkscape:zoom="0.865"
     inkscape:cx="388.72832"
     inkscape:cy="300"
     inkscape:window-x="-8"
     inkscape:window-y="-8"
     inkscape:current-layer="svg2"
     showgrid="false"
     inkscape:window-maximized="1" />
  <g
     inkscape:groupmode="layer"
     id="layer4"
     inkscape:label="bottom"
     transform="translate(0,-366)" />
  <g
     inkscape:groupmode="layer"
     id="layer2"
     inkscape:label="1906"
     transform="translate(0,-366)" />
  <g
     id="g3835">
    <g
       style="fill:#ecb215;fill-opacity:1"
       transform="matrix(3.8885388,0,0,3.8721884,-1807.8448,-1739.203)"
       inkscape:label="top1"
       id="layer1">
      <path
         id="path5762"
         d="m 527.80148,449.80173 c -3.80656,0.1336 -8.32605,0.58389 -15.53125,1.28125 -15.95834,1.54454 -20.40511,1.86379 -29.03125,0.78125 -5.49999,-0.69022 -12.94332,-2.04536 -13.9375,-2.03125 0.0309,1.00517 -1.58362,9.94911 -1.59375,10 -0.4875,2.44901 -0.91621,5.98831 -1.5,12.40625 -1.92299,21.14056 0.46918,43.30746 6.65625,61.84375 6.13667,18.38528 15.67598,34.83779 27.84375,48.09375 5.45124,5.93874 13.46172,12.15869 19.46875,16.71875 0.48071,0.33173 7.26683,4.42252 9.03125,4.5625 1.76442,-0.13998 8.55053,-4.23077 9.03125,-4.5625 6.00703,-4.56006 14.0175,-10.78001 19.46875,-16.71875 12.16777,-13.25596 21.70707,-29.70847 27.84375,-48.09375 6.18707,-18.53629 8.57923,-40.70319 6.65625,-61.84375 -0.58379,-6.41794 -1.01251,-9.95724 -1.5,-12.40625 -0.0101,-0.0509 -1.62463,-8.99483 -1.59375,-10 -0.99418,-0.0141 -8.43752,1.34103 -13.9375,2.03125 -8.62614,1.08254 -13.07292,0.76329 -29.03125,-0.78125 -7.43763,-0.71986 -12.02287,-1.16368 -15.90625,-1.28125 -0.3493,-0.0106 -0.69166,0.006 -1.03125,0 -0.3396,0.006 -0.68195,-0.0106 -1.03125,0 -0.12136,0.004 -0.25221,-0.004 -0.375,0 z"
         style="fill:#ecb215;fill-opacity:1"
         inkscape:connector-curvature="0" />
    </g>
    <path
       style="fill:#881f19;fill-opacity:1"
       d="M 239.76295,15.015043 C 168.86614,20.934845 95.369257,32.64016 25.558319,17.104747 16.48663,77.828753 9.3044598,139.83263 16.653798,201.61448 29.138185,341.35417 95.61707,481.27651 211.96958,564.14042 c 7.20795,5.13336 32.61535,20.89134 37.63639,20.89588 5.32547,0.005 30.38317,-15.24055 36.67063,-19.62906 C 429.61004,465.36353 494.88426,283.49446 485.50468,112.74006 483.50644,80.705633 481.21146,46.848226 472.88987,16.858902 409.41768,31.471147 343.40643,23.123018 279.11889,16.328489 266.03929,15.234945 252.8872,14.741357 239.76295,15.015043 z"
       id="path5755"
       sodipodi:nodetypes="cccssscccc"
       inkscape:connector-curvature="0" />
    <g
       id="g13797"
       transform="matrix(3.8885388,0,0,3.8721884,-1189.333,-1739.203)"
       style="stroke:#e9aa0f;stroke-opacity:1">
      <path
         inkscape:connector-curvature="0"
         sodipodi:nodetypes="cccccccccccc"
         id="rect8439"
         d="m 388.95981,498.01565 0,18.13567 5.16347,0 0,-6.91765 4.97633,0 0,-4.13438 -5.06472,0 0,-2.86085 9.18751,0 0,-4.22279 -9.85042,0 -4.41217,0 z"
         style="fill:#f8fbfd;fill-opacity:1;stroke:#e9aa0f;stroke-width:1.08155334;stroke-miterlimit:4;stroke-opacity:1;stroke-dasharray:none" />
      <path
         inkscape:connector-curvature="0"
         sodipodi:nodetypes="csscccsssccssc"
         id="path11112"
         d="m 413.24897,498.18382 c -4.09075,0.40366 -7.31236,4.26306 -7.31236,8.93677 0,4.94217 3.58297,8.96962 8.0072,8.96963 2.88212,0 5.4292,-1.71347 6.84913,-4.27125 l -4.03669,-1.01853 c -0.12984,0.1335 -0.2806,0.24493 -0.43014,0.36142 -6.18288,3.21408 -7.53137,-7.95003 -2.70208,-8.6059 0.0445,-0.006 0.0923,-0.0247 0.13235,-0.0329 0.0163,-0.003 0.0487,7.8e-4 0.0662,0 1.2411,-0.0543 2.17976,0.17144 2.9006,0.9505 l 4.03669,-1.11709 c -1.42645,-2.51321 -3.95759,-4.1727 -6.81604,-4.17269 -0.20739,0 -0.39214,-0.0173 -0.59558,0 -0.0323,0.003 -0.067,-0.003 -0.0993,0 z"
         style="fill:#f8fbfd;fill-opacity:1;stroke:#e9aa0f;stroke-width:1.05508757;stroke-miterlimit:4;stroke-opacity:1;stroke-dasharray:none" />
    </g>
    <g
       id="g3831">
      <path
         inkscape:connector-curvature="0"
         style="fill:#fffbff;fill-opacity:1"
         d="m 243.24837,29.582396 c -1.9394,0.01344 -3.87755,0.03332 -5.81817,0.07699 -1.0016,0.02254 -2.03292,0.0844 -3.03472,0.115489 -65.12101,5.306796 -132.39621,14.117651 -196.735314,4.369339 -6.659973,39.578524 -9.522738,80.246933 -8.388988,120.859393 l 441.562332,0 c 0.89372,-41.15124 -2.63826,-82.195038 -10.53456,-121.841051 -41.91952,10.552527 -87.11346,4.30935 -130.02932,1.693841 -28.96888,-2.420203 -57.93027,-5.47558 -87.02126,-5.274004 z"
         id="path5774" />
      <rect
         style="opacity:0.95999995;fill:#518ac3;fill-opacity:1;fill-rule:nonzero;stroke:none"
         id="rect3050"
         width="441.64999"
         height="7.6717215"
         x="29.174162"
         y="155.0036" />
    </g>
    <g
       transform="translate(-0.00125414,-2.3151225)"
       id="g3042">
      <path
         sodipodi:nodetypes="ccccccccc"
         id="rect6660"
         d="m 56.261665,57.874334 0,21.408633 19.442694,0 0,60.990603 18.819322,0 0,-60.990603 20.066069,0 0,-21.408633 -58.328085,0 z"
         style="fill:#881f19;fill-opacity:1;stroke:#e9aa0f;stroke-width:4.10655785;stroke-miterlimit:4;stroke-opacity:1;stroke-dasharray:none"
         inkscape:connector-curvature="0" />
      <rect
         y="57.502647"
         x="270.00986"
         height="82.894585"
         width="18.956627"
         id="rect7540"
         style="fill:#881f19;fill-opacity:1;stroke:#e9aa0f;stroke-width:3.85871792;stroke-miterlimit:4;stroke-opacity:1;stroke-dasharray:none" />
      <path
         sodipodi:nodetypes="ccccccccccccccc"
         id="rect7543"
         d="m 301.23961,57.233409 0,0.598292 0,82.326209 18.71359,0 0,-37.21432 27.94888,36.85537 0.48606,0.59829 18.47056,0 0,-83.163841 -19.44269,0 0,41.402445 -30.62225,-41.282794 0,-0.119651 -0.12132,0 -15.43264,0 z"
         style="fill:#881f19;fill-opacity:1;stroke:#e9aa0f;stroke-width:3.85871792;stroke-miterlimit:4;stroke-opacity:1;stroke-dasharray:none"
         inkscape:connector-curvature="0" />
      <path
         sodipodi:nodetypes="ccccccccscccccccccscccc"
         id="rect7547"
         d="m 196.24906,56.933082 0,83.464168 18.81932,0 0,-30.97793 12.28899,0 11.66562,30.97793 22.11144,0 -13.8483,-35.71974 c 9.1119,-2.75421 11.17959,-12.335511 11.17955,-23.573066 0,-12.723353 -8.61743,-23.158552 -19.56421,-24.171362 l -3.40247,0 -23.69578,0 -15.55416,0 z m 18.78374,18.108715 0.12133,0 2.11715,0 16.64781,0 1.21517,0 c 4.28108,0.132042 7.65556,2.80846 7.65556,8.049777 0,5.241316 -3.37444,8.291168 -7.65556,8.423326 l -1.09366,0 -19.00799,0 0,-16.473103 z"
         style="fill:#881f19;fill-opacity:1;stroke:#e9aa0f;stroke-width:3.85871792;stroke-miterlimit:4;stroke-opacity:1;stroke-dasharray:none"
         inkscape:connector-curvature="0" />
      <path
         id="path9329"
         d="m 151.72735,56.624624 c -18.08948,1.374317 -32.56655,19.559508 -32.56651,41.761397 4e-5,23.095589 15.64433,41.881049 34.75382,41.881049 19.10948,4e-5 34.51074,-18.78538 34.51078,-41.881049 4e-5,-23.095668 -15.40134,-41.761358 -34.51078,-41.761397 -0.29864,3.9e-5 -0.55389,-0.0077 -0.85062,0 -0.4382,0.01162 -0.90253,-0.03485 -1.33669,0 z m 0.85062,21.692425 c 0.0704,-0.01162 0.0506,0.01162 0.12132,0 19.55869,-0.849093 21.48344,38.076431 2.91641,42.409411 -20.69737,1.97396 -23.54985,-39.186433 -3.03792,-42.409411 z"
         style="fill:#881f19;fill-opacity:1;stroke:#e9aa0f;stroke-width:4.11961699;stroke-miterlimit:4;stroke-opacity:1;stroke-dasharray:none"
         sodipodi:nodetypes="csssssccccc"
         inkscape:connector-curvature="0" />
      <path
         id="path2385"
         d="m 407.03454,56.624624 c -18.08948,1.374317 -32.56655,19.559508 -32.56651,41.761397 4e-5,23.095589 15.64433,41.881049 34.75381,41.881049 19.10949,4e-5 34.51075,-18.78538 34.51079,-41.881049 3e-5,-23.095668 -15.40134,-41.761358 -34.51079,-41.761397 -0.29864,3.9e-5 -0.55388,-0.0077 -0.85061,0 -0.4382,0.01162 -0.90253,-0.03485 -1.33669,0 z m 0.85062,21.692425 c 0.0704,-0.01162 0.0502,0.01162 0.12132,0 19.55869,-0.849093 21.48344,38.076431 2.9164,42.409411 -20.69737,1.97396 -23.54984,-39.186433 -3.03792,-42.409411 z"
         style="fill:#881f19;fill-opacity:1;stroke:#e9aa0f;stroke-width:4.11961699;stroke-miterlimit:4;stroke-opacity:1;stroke-dasharray:none"
         sodipodi:nodetypes="csssssccccc"
         inkscape:connector-curvature="0" />
    </g>
    <g
       transform="matrix(0.81949578,0,0,0.81604999,655.58718,-133.04292)"
       id="g12989">
      <path
         sodipodi:nodetypes="csssssssssssssssssscsssc"
         id="path9346"
         d="m -701.35756,393.08385 c -3.48837,0.30521 -4.85659,0.6198 -6.5916,1.46122 -1.61619,0.78378 -3.53903,1.67319 -5.04749,3.44972 -2.81743,3.31811 -3.4637,4.56194 -3.51229,9.43672 -0.0275,2.76093 1.36686,5.14558 2.7227,6.53564 2.24311,2.29974 4.59455,3.38863 9.3423,3.85894 3.39853,0.33666 6.87239,-0.30482 8.10678,-0.97307 0.61654,-0.33374 1.18287,-0.61072 1.49494,-0.75965 0.56302,-0.26869 0.74622,-0.46094 0.78396,-0.44009 0.1404,0.0776 -0.19135,1.2128 -0.29054,1.49831 -0.30968,0.89156 -1.38647,2.40888 -3.18584,4.33871 -2.15482,2.31108 -5.01513,4.08231 -8.00157,5.03257 -1.59953,0.50896 -4.25239,1.37823 -4.81998,1.54791 -0.059,0.0176 -0.0621,-0.0346 -0.0538,0.0346 l 0.60656,5.05591 c 0.001,0.01 1.52557,-0.10894 3.27518,-0.43009 8.85482,-1.62539 16.37613,-8.1227 18.45822,-15.94411 1.72689,-8.70964 2.42356,-18.75988 -7.25001,-22.52983 -1.71238,-0.66758 -3.70139,-1.11458 -6.03751,-1.17345 z m 0.0601,6.4567 c 2.07364,-0.014 4.17402,0.51953 5.88719,1.73327 2.73136,1.93516 2.98277,6.60704 0.47597,8.84376 -5.16487,4.60844 -15.37183,1.97743 -15.37183,-3.96322 0,-3.90554 4.44661,-6.58315 9.00867,-6.61381 z"
         style="fill:#ffffff;fill-opacity:1"
         inkscape:connector-curvature="0" />
      <path
         id="path9342"
         d="m -666.00933,393.56531 c -5.09017,-0.002 -10.14743,2.44607 -12.65122,7.34361 -2.20105,4.30535 -3.02681,15.74347 -1.47805,20.49015 1.59669,4.89375 4.77646,8.80871 8.55271,10.53649 6.4834,2.96642 14.19296,0.0616 18.22775,-6.86722 2.74877,-4.72042 2.8662,-19.18233 0.1954,-24.15435 -2.63166,-4.89918 -7.75645,-7.34705 -12.84659,-7.34868 z m 0.0501,6.43643 c 2.42794,0 4.85658,0.92285 6.21788,2.76715 3.97591,5.38662 3.58223,17.68769 -0.70647,22.02578 -3.20495,3.24186 -7.53278,3.15517 -10.8675,-0.21792 -4.46441,-4.51581 -4.92599,-16.29487 -0.85677,-21.80786 1.3613,-1.8443 3.7849,-2.76715 6.21286,-2.76715 z"
         style="fill:#ffffff;fill-opacity:1"
         inkscape:connector-curvature="0" />
      <rect
         y="393.401"
         x="-729.49561"
         height="38.889339"
         width="6.0926232"
         id="rect8447"
         style="fill:#ffffff;fill-opacity:1;stroke:none" />
      <path
         sodipodi:nodetypes="csssssssssssssssssscsssc"
         id="path12940"
         d="m -630.75953,433.61606 c 3.48838,-0.30521 4.8566,-0.61981 6.59161,-1.46122 1.61617,-0.78379 3.53904,-1.67321 5.04749,-3.44972 2.81744,-3.31811 3.46369,-4.56194 3.51227,-9.43672 0.0275,-2.76094 -1.36684,-5.14558 -2.72269,-6.53565 -2.24311,-2.29974 -4.59455,-3.38863 -9.34229,-3.85893 -3.39854,-0.33666 -6.87238,0.30482 -8.10678,0.97306 -0.61653,0.33375 -1.18287,0.61073 -1.49492,0.75965 -0.56303,0.26869 -0.74624,0.46095 -0.78399,0.4401 -0.1404,-0.0776 0.19138,-1.2128 0.29054,-1.49832 0.30968,-0.89156 1.38649,-2.40887 3.18583,-4.3387 2.15484,-2.31108 5.01516,-4.08232 8.00159,-5.03258 1.59953,-0.50897 4.2524,-1.37822 4.81996,-1.54791 0.059,-0.0176 0.0621,0.0346 0.0538,-0.0346 l -0.60656,-5.05592 c -10e-4,-0.01 -1.52558,0.10893 -3.27518,0.43009 -8.85481,1.6254 -16.37613,8.1227 -18.45823,15.9441 -1.72688,8.70966 -2.42354,18.7599 7.25003,22.52985 1.71238,0.66757 3.70136,1.11458 6.03749,1.17345 z m -0.0601,-6.4567 c -2.07365,0.0139 -4.17403,-0.51953 -5.8872,-1.73328 -2.73136,-1.93515 -2.98274,-6.60703 -0.47598,-8.84375 5.1649,-4.60844 15.37184,-1.97743 15.37184,3.96321 0,3.90555 -4.44661,6.58315 -9.00866,6.61382 z"
         style="fill:#ffffff;fill-opacity:1"
         inkscape:connector-curvature="0" />
    </g>
    <path
       inkscape:connector-curvature="0"
       id="path2987"
       d="m 273.71529,520.61388 -2.19056,-1.95678 7.4529,-11.55723 c 4.0991,-6.35649 8.18049,-13.15329 9.06978,-15.10401 0.88928,-1.95073 3.56115,-5.47981 5.9375,-7.84242 4.91249,-4.88408 9.86216,-14.28977 10.50696,-19.96598 0.53531,-4.71246 -1.01631,-7.3547 -12.92312,-22.00653 -14.70628,-18.09673 -19.90006,-26.65431 -21.85863,-36.01551 -1.80142,-8.61013 1.65288,-20.66092 8.53403,-29.77209 l 4.15665,-5.50372 -4.61558,4.47033 c -9.20933,8.91951 -12.72571,19.88376 -10.08311,31.43964 2.34386,10.24955 2.33626,10.28137 -2.52149,10.54304 -7.05406,0.37998 -11.91569,-3.85488 -12.9692,-11.29721 -0.46071,-3.25464 -0.55156,-2.87909 -0.64711,2.67508 -0.19882,11.55638 -3.69917,12.93839 -32.77023,12.93839 l -17.13135,0 -2.55974,2.13717 c -1.66582,1.39083 -2.56418,2.90434 -2.57247,4.33397 -0.021,3.61197 -0.92728,4.22669 -6.03513,4.09334 -5.71319,-0.14915 -7.72813,1.29139 -8.71212,6.22851 -1.19565,5.99908 -9.46542,10.44906 -19.41837,10.44906 -3.97412,0 -8.91408,-1.9022 -9.60945,-3.70026 -0.64622,-1.67097 7.15306,-11.94136 15.48562,-20.39207 3.44027,-3.48904 8.68854,-8.834 11.66282,-11.87767 8.0453,-8.233 9.11032,-8.56813 27.29793,-8.58977 l 15.2344,-0.0182 -0.65025,-3.9212 c -1.12466,-6.78209 -0.55479,-26.77099 0.92681,-32.50943 2.356,-9.12504 4.92739,-10.4064 17.2252,-8.58354 4.26085,0.63157 7.82851,1.06744 7.92811,0.96861 0.66515,-0.66 -5.49948,-10.64487 -11.17952,-18.10754 -7.03504,-9.24291 -10.60166,-15.51605 -11.55915,-20.33075 -0.49307,-2.4794 -0.38114,-2.75296 0.92316,-2.25633 3.60567,1.3729 16.28191,3.01402 23.28062,3.01402 9.42138,0 15.08068,-1.55305 18.37892,-5.04362 l 2.46231,-2.6059 -3.68693,2.38011 c -3.57198,2.3059 -3.99996,2.37741 -13.72747,2.29371 -12.20315,-0.10501 -15.38191,-1.00173 -41.85113,-11.80603 -20.58554,-8.40267 -36.86255,-14.08075 -40.41734,-14.09919 -2.86539,-0.0148 -5.52602,1.26896 -7.35045,3.5468 -0.87977,1.09843 -2.37482,1.73125 -4.15983,1.76079 l -2.78648,0.0461 -0.0621,5.36586 c -0.0861,7.44802 -0.66352,8.65195 -5.16945,10.77885 -8.79642,4.15212 -17.87787,5.38508 -20.50006,2.78322 -1.84167,-1.82739 -1.94359,-1.57089 4.76069,-11.98165 3.33744,-5.18255 6.92546,-11.18319 7.97337,-13.33473 2.524,-5.18219 8.21749,-10.07356 13.21241,-11.35099 2.16972,-0.55491 7.89316,-1.20447 12.71875,-1.44347 10.60436,-0.52524 16.929,0.60617 35.9767,6.43581 7.3391,2.24616 13.52267,3.90646 13.74129,3.68954 0.63971,-0.63476 -7.16267,-3.70645 -14.81347,-5.83187 -3.88945,-1.0805 -8.75647,-2.44445 -10.81559,-3.031 l -3.74385,-1.06645 6.4966,-0.24198 c 5.76672,-0.21479 23.25055,1.52826 28.85674,2.87688 1.99106,0.47898 2.0224,0.43082 0.6941,-1.06663 -2.38931,-2.69356 -2.56909,-5.47293 -0.67832,-10.48726 0.97515,-2.58612 2.10746,-4.70204 2.51625,-4.70204 2.12864,0 6.69611,-5.40635 7.86389,-9.30821 1.96065,-6.55101 1.49085,-7.1048 -1.30972,-1.54382 -3.47648,6.90309 -6.41249,8.95778 -14.92117,10.44215 -7.94167,1.38546 -10.79909,2.90181 -10.79909,5.73075 0,3.93697 -8.06948,4.76392 -12.33674,1.26425 -2.55822,-2.09805 -2.04423,-4.39279 1.10517,-4.93408 2.85898,-0.49137 3.60376,-2.49763 1.64771,-4.43851 -2.65119,-2.63063 -6.81188,1.72597 -5.91202,6.19039 0.38002,1.88535 0.18263,2.37309 -0.95629,2.36306 -5.8602,-0.0516 -6.54342,-10.11923 -2.09674,-30.89666 1.62454,-7.59074 1.89547,-10.19931 1.17776,-11.33965 -1.52891,-2.42919 -1.07067,-7.2413 1.32993,-13.96609 l 2.26209,-6.33674 -2.99365,-3.28791 c -1.6465,-1.80835 -3.49868,-4.72951 -4.11597,-6.49149 -1.52412,-4.3505 -1.28766,-13.65289 0.50693,-19.9427 1.63416,-5.72749 2.91049,-7.34329 2.91049,-3.6846 0,5.02606 2.55575,11.06448 6.41634,15.15976 2.08724,2.21412 4.08137,4.02567 4.4314,4.02567 0.35004,0 0.89684,-2.13602 1.21512,-4.74672 0.31828,-2.6107 1.21745,-6.78987 1.99816,-9.28706 l 1.41948,-4.54034 1.07417,5.34554 c 1.34354,6.686 3.22135,10.33394 7.29391,14.16952 5.249,4.94356 7.65608,5.70456 23.49103,7.42677 26.66767,2.90036 37.91023,6.83794 47.94076,16.79068 10.37161,10.29121 12.7642,17.24708 15.34013,44.59777 2.09857,22.28216 5.55173,50.02739 7.19055,57.77418 4.81508,22.76117 33.75655,52.12897 44.02799,44.67655 3.77337,-2.73776 1.02846,-10.60557 -8.4664,-24.26741 -5.82702,-8.38432 -14.43398,-23.2241 -14.43398,-24.88653 0,-2.87127 20.7998,24.69842 29.59053,39.22161 8.28893,13.69419 10.13136,20.38347 7.55648,27.43524 -2.34211,6.41429 -11.20439,11.65385 -17.91151,10.58967 l -3.06721,-0.48668 -0.97079,8.05489 c -1.74727,14.49763 -4.2267,18.54744 -19.98132,32.63685 -5.25842,4.70262 -4.63128,7.40431 3.45268,14.87407 l 4.06775,3.7587 -0.50807,4.25677 c -0.56305,4.71711 -3.37638,9.1103 -7.05536,11.01742 -5.29812,2.74641 -10.11682,10.67638 -11.83257,19.47246 -1.33602,6.84935 -2.0922,8.06776 -6.19457,9.98115 -2.07296,0.96685 -3.8126,1.99561 -3.86587,2.28614 -0.0533,0.29052 -0.19775,3.28834 -0.3211,6.66183 -0.26024,7.11709 -0.18321,7.0287 -9.48036,10.88111 -8.74505,3.62365 -16.35391,4.19267 -19.42156,1.45239 z m 48.17127,-70.91599 c -3.93476,-4.34247 -5.99982,-8.86893 -5.28447,-11.58321 0.59425,-2.2548 -0.40092,-1.98507 -3.1391,0.85082 l -2.36301,2.44732 1.99936,2.98808 c 1.5441,2.30768 10.68681,9.33966 12.26807,9.43579 0.1568,0.009 -1.40958,-1.85292 -3.48085,-4.1388 z m 12.35198,-28.26806 c 3.56577,-4.1335 6.09675,-11.74376 6.77422,-20.36914 l 0.48942,-6.2311 -2.68944,2.58697 c -2.54857,2.45149 -2.69686,2.9271 -2.83125,9.08069 -0.17106,7.8342 -1.99367,12.32695 -7.75136,19.10732 l -3.97978,4.68668 3.52037,-2.72234 c 1.9362,-1.4973 4.84672,-4.25987 6.46782,-6.13908 z m -6.9863,-54.66654 c -5.03643,-5.42151 -10.16944,-13.65887 -16.28453,-26.13312 -5.87284,-11.98008 -7.72803,-19.02713 -9.74335,-37.01082 -0.56027,-4.99952 -1.36843,-9.09005 -1.79591,-9.09005 -1.2573,0 -0.0525,28.58207 1.42345,33.77032 3.76851,13.24672 15.64288,31.70054 25.06238,38.94915 5.34715,4.11479 5.54485,4.04306 1.33796,-0.48548 z M 200.98533,234.83413 c 4.3945,-0.67091 5.54154,-1.85981 5.54154,-5.74381 l 0,-3.32307 -1.87193,2.80502 c -1.02956,1.54275 -3.45359,3.53417 -5.38673,4.42537 -1.93315,0.8912 -3.70305,2.10712 -3.93312,2.70204 -0.30465,0.78774 -0.0278,0.88336 1.0189,0.35187 0.79047,-0.40137 2.87457,-0.94921 4.63134,-1.21742 z m 29.2227,-13.77273 c 11.22664,-1.15511 14.74428,-3.3012 12.13087,-7.40094 -0.6329,-0.99285 -1.08225,-0.81142 -2.53774,1.02458 -1.72069,2.17054 -6.30948,3.91333 -13.37051,5.078 -1.63643,0.26993 -3.69555,1.07081 -4.57582,1.77976 -0.88027,0.70895 -1.17004,1.07679 -0.64394,0.81744 0.52611,-0.25934 4.57481,-0.84382 8.99714,-1.29884 z m -14.52951,-9.49652 c 0,-0.87881 -0.90569,-1.24113 -3.11988,-1.24808 -3.82211,-0.012 -10.47868,-1.7163 -14.23502,-3.64461 -1.53751,-0.78929 -2.54168,-1.02758 -2.23148,-0.52956 0.64611,1.03731 6.03745,3.87232 10.38924,5.46312 4.22894,1.54589 9.19714,1.52381 9.19714,-0.0409 z m -41.12809,128.98698 c -1.24442,-4.65385 -3.4016,-11.79253 -4.79375,-15.86376 -3.79076,-11.0858 -2.4763,-20.13211 3.76502,-25.91144 l 2.09943,-1.94401 4.42929,1.43671 c 2.43611,0.79019 5.4728,1.96031 6.74818,2.60025 l 2.3189,1.16353 -1.7468,2.20347 c -1.2862,1.62247 -1.68771,3.15692 -1.52269,5.81946 0.16797,2.71025 -0.13162,3.8135 -1.19607,4.40459 -2.25872,1.25423 -1.77347,4.6061 0.86774,5.99397 1.25835,0.66122 3.33229,2.52675 4.60875,4.14562 2.16162,2.74148 2.257,3.17864 1.39029,6.3724 -2.71484,10.00394 -8.27956,18.04076 -12.4915,18.04076 -2.10646,0 -2.32431,-0.41176 -4.47679,-8.46155 z m 186.90711,-4.70011 c -1.22124,-2.58597 -3.85257,-5.71836 -7.39864,-8.80749 -8.98318,-7.82564 -11.02987,-14.98855 -5.73717,-20.07865 3.41187,-3.28128 5.00119,-6.73484 4.32663,-9.40168 -1.11658,-4.41432 -8.66731,-9.60687 -17.07921,-11.74519 -6.30871,-1.60369 -9.89757,-1.10283 -13.46996,1.87983 l -2.61614,2.18426 1.71175,-3.32929 c 4.24764,-8.2615 14.21978,-9.54539 30.47262,-3.92327 18.55893,6.41984 23.14006,17.11656 15.25286,35.61476 -2.4295,5.69802 -2.73547,7.26975 -2.73547,14.05166 0,4.19982 -0.18719,7.6208 -0.41598,7.6022 -0.2288,-0.0186 -1.26887,-1.83982 -2.31129,-4.04714 z m -0.47988,-13.92881 c 0.53951,-1.6725 1.94093,-5.26979 3.11425,-7.99399 4.87009,-11.30727 1.98496,-19.92233 -8.40162,-25.08744 -4.85809,-2.41586 -5.10882,-2.18332 -1.01465,0.94107 6.99943,5.34148 8.50958,13.06371 4.39918,22.49533 -2.94868,6.76594 -3.35311,9.98837 -1.50755,12.01188 1.74424,1.91243 2.11243,1.6569 3.41039,-2.36685 z"
       style="fill:#ffffff" />
  </g>
</svg>
