<?xml version="1.0" encoding="iso-8859-1"?>
<!-- Generator: Adobe Illustrator 16.0.0, SVG Export Plug-In . SVG Version: 6.00 Build 0)  -->
<!DOCTYPE svg PUBLIC "-//W3C//DTD SVG 1.1//EN" "http://www.w3.org/Graphics/SVG/1.1/DTD/svg11.dtd">
<svg version="1.1" id="Layer_1" xmlns="http://www.w3.org/2000/svg" xmlns:xlink="http://www.w3.org/1999/xlink" x="0px" y="0px"
	 width="192.756px" height="192.756px" viewBox="0 0 192.756 192.756" style="enable-background:new 0 0 192.756 192.756;"
	 xml:space="preserve">
<g>
	<polygon style="fill-rule:evenodd;clip-rule:evenodd;fill:#FFFFFF;" points="0,0 192.756,0 192.756,192.756 0,192.756 0,0 	"/>
	<path style="fill-rule:evenodd;clip-rule:evenodd;fill:#FFFFFF;" d="M96.377,187.807c18.742-7.25,36.021-19.99,48.814-34.955
		c14.5-16.961,23.312-38.887,23.312-62.487V4.482H24.252v85.882c0,23.601,8.812,45.526,23.312,62.487
		C60.357,167.816,77.636,180.557,96.377,187.807L96.377,187.807z"/>
	<path style="fill-rule:evenodd;clip-rule:evenodd;fill:#CD3529;" d="M86.115,172.758l-1.631,0.941l-0.426-0.736
		c-0.068,0.441-0.188,0.801-0.362,1.072c-0.173,0.271-0.439,0.512-0.799,0.719c-0.48,0.277-0.94,0.352-1.38,0.221
		c-0.439-0.129-0.831-0.494-1.176-1.09l-1.674-2.9l1.755-1.014l1.446,2.506c0.165,0.285,0.334,0.459,0.509,0.518
		s0.359,0.033,0.55-0.076c0.208-0.121,0.334-0.301,0.374-0.537c0.041-0.236-0.059-0.564-0.298-0.979l-1.266-2.191l1.746-1.008
		L86.115,172.758L86.115,172.758z M86.167,170.395l1.867-1.078l1.011,1.75l-1.867,1.078L86.167,170.395L86.167,170.395z
		 M92.469,166.717l1.77-0.77c0.109,0.398,0.131,0.785,0.068,1.158c-0.062,0.373-0.215,0.725-0.46,1.051
		c-0.243,0.328-0.615,0.637-1.116,0.926c-0.483,0.279-0.911,0.467-1.285,0.562c-0.374,0.096-0.735,0.109-1.083,0.041
		c-0.348-0.068-0.666-0.201-0.954-0.395c-0.289-0.197-0.563-0.52-0.822-0.969c-0.271-0.469-0.416-0.904-0.436-1.309
		c-0.014-0.297,0.026-0.594,0.124-0.895c0.099-0.297,0.229-0.553,0.394-0.766c0.26-0.338,0.655-0.658,1.187-0.965
		c0.743-0.43,1.387-0.625,1.932-0.584c0.543,0.041,1.042,0.27,1.495,0.693l-1.517,1.166c-0.164-0.164-0.342-0.258-0.536-0.277
		c-0.192-0.02-0.403,0.037-0.632,0.168c-0.289,0.168-0.463,0.404-0.522,0.717c-0.059,0.311,0.032,0.674,0.275,1.096
		c0.216,0.375,0.47,0.607,0.759,0.701c0.29,0.092,0.571,0.059,0.846-0.102c0.229-0.131,0.388-0.301,0.476-0.508
		C92.52,167.25,92.532,167.004,92.469,166.717L92.469,166.717z M94.953,165.322l1.866-1.078l1.011,1.75l-1.867,1.078L94.953,165.322
		L94.953,165.322z M100.777,162.611l1.639-1.164c0.189,0.166,0.377,0.254,0.555,0.268c0.182,0.016,0.379-0.039,0.594-0.162
		c0.232-0.135,0.385-0.291,0.457-0.465c0.057-0.133,0.053-0.254-0.012-0.365c-0.072-0.127-0.193-0.186-0.365-0.18
		c-0.121,0.006-0.408,0.092-0.855,0.254c-0.666,0.244-1.143,0.391-1.432,0.436c-0.287,0.047-0.574,0.01-0.859-0.111
		c-0.287-0.123-0.508-0.32-0.666-0.594c-0.174-0.301-0.236-0.609-0.188-0.928s0.195-0.619,0.439-0.904
		c0.244-0.283,0.623-0.574,1.139-0.871c0.543-0.312,0.969-0.504,1.273-0.57c0.309-0.066,0.6-0.062,0.871,0.014
		c0.275,0.074,0.555,0.225,0.84,0.457l-1.561,1.119c-0.127-0.121-0.262-0.188-0.4-0.197c-0.189-0.014-0.381,0.037-0.576,0.15
		c-0.197,0.113-0.32,0.232-0.371,0.354c-0.049,0.121-0.045,0.234,0.012,0.334c0.064,0.109,0.17,0.162,0.318,0.152
		c0.146-0.008,0.426-0.102,0.836-0.275c0.617-0.27,1.104-0.428,1.453-0.475c0.352-0.045,0.664-0.004,0.939,0.129
		c0.275,0.129,0.488,0.324,0.639,0.586c0.152,0.264,0.221,0.564,0.205,0.904c-0.014,0.34-0.15,0.682-0.408,1.027
		c-0.256,0.346-0.678,0.688-1.268,1.027c-0.832,0.48-1.492,0.705-1.984,0.67C101.551,163.197,101.129,162.99,100.777,162.611
		L100.777,162.611z M106.994,156.596l-1.771,0.789c-0.104-0.328-0.146-0.609-0.125-0.846c0.023-0.236,0.111-0.48,0.262-0.73
		c0.109-0.182,0.289-0.379,0.543-0.59c0.252-0.209,0.541-0.408,0.867-0.596c0.523-0.303,0.961-0.516,1.312-0.641
		c0.35-0.125,0.686-0.154,1.004-0.092c0.223,0.043,0.445,0.158,0.668,0.344c0.223,0.188,0.395,0.387,0.518,0.602l1.162,2.012
		c0.125,0.215,0.234,0.373,0.332,0.48c0.098,0.105,0.246,0.227,0.447,0.363l-1.639,0.945c-0.135-0.08-0.229-0.143-0.283-0.193
		c-0.057-0.051-0.131-0.135-0.229-0.256c-0.102,0.354-0.238,0.643-0.408,0.867c-0.236,0.303-0.561,0.574-0.969,0.811
		c-0.543,0.312-1.029,0.426-1.455,0.336c-0.428-0.088-0.748-0.318-0.961-0.688c-0.199-0.346-0.262-0.689-0.188-1.029
		s0.354-0.723,0.838-1.146c0.578-0.51,0.949-0.848,1.113-1.012s0.33-0.354,0.498-0.566c-0.125-0.213-0.256-0.338-0.393-0.373
		c-0.139-0.033-0.32,0.014-0.543,0.143c-0.287,0.164-0.475,0.334-0.564,0.508C106.961,156.174,106.949,156.361,106.994,156.596
		L106.994,156.596z M109.039,156.641c-0.191,0.225-0.398,0.443-0.621,0.66c-0.299,0.299-0.469,0.521-0.512,0.668
		c-0.043,0.15-0.029,0.287,0.041,0.406c0.078,0.137,0.191,0.221,0.338,0.254c0.145,0.031,0.311-0.006,0.498-0.113
		c0.195-0.111,0.348-0.264,0.461-0.455c0.111-0.191,0.164-0.375,0.156-0.551s-0.074-0.373-0.201-0.592L109.039,156.641
		L109.039,156.641z M110.424,152.65l1.631-0.941l0.383,0.664c0.074-0.412,0.197-0.746,0.367-1.002
		c0.172-0.254,0.426-0.48,0.764-0.674c0.363-0.211,0.688-0.312,0.973-0.305c0.287,0.006,0.57,0.098,0.852,0.273
		c0.104-0.455,0.236-0.803,0.4-1.041c0.164-0.236,0.412-0.449,0.744-0.643c0.488-0.281,0.953-0.357,1.396-0.227
		c0.441,0.133,0.842,0.508,1.197,1.125l1.652,2.861l-1.75,1.01l-1.498-2.594c-0.119-0.207-0.248-0.336-0.385-0.391
		c-0.209-0.09-0.4-0.084-0.574,0.018c-0.207,0.119-0.328,0.289-0.369,0.51c-0.039,0.221,0.035,0.496,0.225,0.824l1.357,2.352
		l-1.75,1.01l-1.449-2.508c-0.115-0.201-0.205-0.33-0.268-0.389c-0.104-0.092-0.223-0.146-0.354-0.164
		c-0.133-0.018-0.26,0.01-0.383,0.08c-0.201,0.115-0.322,0.285-0.361,0.512c-0.041,0.225,0.037,0.512,0.236,0.857l1.342,2.326
		l-1.75,1.01L110.424,152.65L110.424,152.65z M122.834,153.869l-3.629-6.289l1.635-0.943l0.389,0.674
		c0.061-0.414,0.158-0.725,0.289-0.936c0.178-0.281,0.42-0.51,0.729-0.689c0.609-0.35,1.215-0.391,1.818-0.115
		c0.602,0.273,1.102,0.752,1.498,1.439c0.438,0.758,0.588,1.441,0.457,2.049c-0.135,0.609-0.477,1.074-1.033,1.395
		c-0.268,0.154-0.539,0.25-0.814,0.287c-0.275,0.035-0.551,0.016-0.828-0.064l1.254,2.174L122.834,153.869L122.834,153.869z
		 M122.277,148.859c0.209,0.361,0.438,0.584,0.689,0.672c0.254,0.088,0.496,0.062,0.727-0.07c0.203-0.117,0.324-0.299,0.365-0.545
		c0.041-0.248-0.055-0.57-0.285-0.973c-0.213-0.369-0.441-0.598-0.684-0.688c-0.244-0.09-0.469-0.076-0.674,0.043
		c-0.223,0.129-0.357,0.322-0.406,0.584C121.963,148.143,122.051,148.469,122.277,148.859L122.277,148.859z M128.852,139.699
		l3.631,6.289l-1.635,0.943l-0.391-0.672c-0.062,0.416-0.16,0.73-0.291,0.939c-0.176,0.277-0.418,0.504-0.727,0.684
		c-0.621,0.357-1.23,0.395-1.83,0.111c-0.6-0.281-1.096-0.76-1.484-1.436c-0.438-0.756-0.59-1.438-0.459-2.045
		c0.131-0.611,0.475-1.076,1.033-1.398c0.271-0.156,0.545-0.254,0.818-0.289c0.275-0.037,0.551-0.014,0.828,0.07l-1.258-2.18
		L128.852,139.699L128.852,139.699z M129.408,144.709c-0.205-0.357-0.436-0.58-0.688-0.67c-0.254-0.088-0.496-0.066-0.729,0.068
		c-0.203,0.117-0.324,0.299-0.363,0.549c-0.041,0.246,0.055,0.57,0.283,0.967c0.215,0.373,0.443,0.604,0.684,0.695
		c0.242,0.092,0.469,0.076,0.676-0.043c0.225-0.129,0.359-0.324,0.406-0.586C129.727,145.432,129.637,145.102,129.408,144.709
		L129.408,144.709z M132.023,143.232c-0.4-0.693-0.498-1.402-0.289-2.123c0.209-0.723,0.713-1.312,1.51-1.773
		c0.914-0.525,1.756-0.66,2.527-0.4c0.619,0.211,1.111,0.627,1.471,1.25c0.404,0.701,0.504,1.41,0.297,2.125
		c-0.205,0.717-0.719,1.311-1.541,1.785c-0.732,0.422-1.432,0.578-2.098,0.467C133.08,144.424,132.453,143.98,132.023,143.232
		L132.023,143.232z M133.771,142.219c0.234,0.404,0.49,0.658,0.766,0.758c0.277,0.1,0.539,0.078,0.789-0.064
		c0.252-0.146,0.402-0.361,0.453-0.646c0.053-0.285-0.045-0.641-0.289-1.062c-0.229-0.395-0.479-0.641-0.754-0.74
		s-0.531-0.078-0.771,0.061c-0.254,0.146-0.408,0.365-0.463,0.656C133.451,141.473,133.539,141.818,133.771,142.219L133.771,142.219
		z M136.793,137.426l1.633-0.943l0.432,0.746c-0.029-0.414,0.004-0.73,0.102-0.949c0.098-0.217,0.27-0.396,0.516-0.539
		c0.258-0.148,0.584-0.23,0.984-0.248l0.176,1.555c-0.256,0.035-0.443,0.086-0.562,0.154c-0.229,0.133-0.352,0.33-0.369,0.592
		c-0.025,0.369,0.172,0.918,0.592,1.648l0.883,1.527l-1.756,1.012L136.793,137.426L136.793,137.426z M139.738,133.414l1.746-1.008
		l0.686,1.188l-1.746,1.008L139.738,133.414L139.738,133.414z M140.738,135.146l1.746-1.008l2.631,4.557l-1.746,1.008
		L140.738,135.146L140.738,135.146z M146.043,134.051l-1.77,0.789c-0.105-0.328-0.146-0.609-0.125-0.846s0.109-0.48,0.262-0.732
		c0.107-0.18,0.287-0.377,0.541-0.588c0.252-0.209,0.541-0.408,0.867-0.598c0.523-0.301,0.961-0.514,1.312-0.639
		c0.35-0.125,0.686-0.154,1.006-0.092c0.223,0.043,0.443,0.156,0.666,0.344c0.223,0.186,0.395,0.387,0.52,0.602l1.16,2.012
		c0.125,0.213,0.236,0.373,0.332,0.48c0.098,0.105,0.246,0.227,0.447,0.361l-1.639,0.947c-0.135-0.08-0.229-0.145-0.283-0.193
		c-0.055-0.051-0.131-0.135-0.229-0.256c-0.1,0.354-0.236,0.641-0.408,0.867c-0.236,0.303-0.559,0.574-0.967,0.809
		c-0.545,0.314-1.029,0.428-1.457,0.338s-0.746-0.318-0.959-0.688c-0.201-0.346-0.264-0.689-0.188-1.029
		c0.072-0.34,0.352-0.723,0.836-1.146c0.578-0.51,0.949-0.848,1.113-1.012c0.164-0.166,0.33-0.354,0.498-0.566
		c-0.123-0.213-0.256-0.338-0.393-0.373c-0.139-0.033-0.318,0.014-0.543,0.143c-0.285,0.164-0.473,0.334-0.564,0.508
		C146.01,133.629,145.998,133.814,146.043,134.051L146.043,134.051z M148.088,134.096c-0.191,0.225-0.398,0.443-0.619,0.66
		c-0.301,0.299-0.471,0.521-0.514,0.668c-0.043,0.15-0.029,0.287,0.041,0.406c0.078,0.137,0.191,0.221,0.338,0.254
		c0.146,0.031,0.312-0.006,0.498-0.113c0.195-0.113,0.348-0.264,0.461-0.455s0.164-0.375,0.156-0.551s-0.074-0.373-0.201-0.59
		L148.088,134.096L148.088,134.096z"/>
	<path style="fill-rule:evenodd;clip-rule:evenodd;fill:#318ECE;" d="M168.504,8.299V4.482h-39.219L24.252,65.8v24.564
		c0,0.704,0.009,1.406,0.024,2.106L44.53,80.651c-2.979-0.635-5.61-1.447-7.413-2.235c7.193-1.466,25.81-16.198,27.706-24.508
		c3.772,0.712,5.609,0.599,8.286,0.178c-0.05-3.771,2.085-7.319,5.913-8.438c-0.131-4.692,3.908-8.515,8.685-10.434
		c5.085-2.042,11.473-1.739,14.096,1.784c2.451-1.503,7.504-0.645,9.947,4.025c-2.107,0.502-2.682,0.761-4.076,1.386
		c0.451,0.206,0.93,0.39,1.434,0.554L168.504,8.299L168.504,8.299z"/>
	<path style="fill-rule:evenodd;clip-rule:evenodd;fill:#CD3529;" d="M168.504,46.125V35.987l-39.631,23.142l0.941,1.024
		c2.67,0.022,8.25,0.458,12.648,1.177L168.504,46.125L168.504,46.125z M48.544,106.037l-20.21,11.801
		c0.865,2.852,1.859,5.648,2.977,8.389l21.902-12.787c0.268-0.953,0.43-1.857,0.43-2.607c-2.109,0.252-5.564,1.113-7.288,1.479
		C47.02,111.201,47.997,108.561,48.544,106.037L48.544,106.037z"/>
	<path style="fill-rule:evenodd;clip-rule:evenodd;" d="M168.504,56.207V46.125L142.463,61.33c0.029,0.004,0.057,0.009,0.084,0.014
		c3.004-0.229,9.068-1.756,11.904-2.481c-2.045,5.854-7.676,10.501-12.535,12.687c0.043,0.036,0.086,0.072,0.127,0.107
		L168.504,56.207L168.504,56.207z M53.213,113.439l-21.902,12.787c0.846,2.707,2.243,5.355,3.667,7.939l18.283-10.674
		c1.514-1.531,2.897-3.184,3.681-4.629c-2.325,0.021-4.027,0.477-6.675,0.734C51.349,118.225,52.579,115.695,53.213,113.439
		L53.213,113.439z"/>
	<path style="fill-rule:evenodd;clip-rule:evenodd;fill:#318ECE;" d="M166.113,111.473c1.562-6.816,2.391-13.885,2.391-21.108
		v-6.918l-23.572,13.755c-0.242,5.891-0.684,13.311-0.717,15.834c-6.357-1.393-9.73-5.051-12.203-8.295l-9.684,5.652
		c1.609,3.543,7.725,7.738,10.99,9.307c-7.949,0.08-14.609,2.006-24.623,8.842c-9.125,6.23-16.013,13.857-20.073,20.383
		c0.388-3.504,0.262-11.869-0.732-18.436l-39.655,23.141c5.161,5.934,11.025,11.502,17.401,16.504L166.113,111.473L166.113,111.473z
		"/>
	<path style="fill-rule:evenodd;clip-rule:evenodd;" d="M65.804,55.959c-2.548,7.914-18.429,21.015-24.84,22.41
		c6.4,1.255,13.513,2.103,20.513,1.299c0.33,1.271,0.583,2.78-0.198,4c-1.803-0.187-7.636,0.613-9.439,1.626
		c0.289,3.013,0.046,7.695-0.555,10.561L40.069,95.83c-0.049-1.746-0.472-3.452-0.992-4.948l-7.389-0.002
		c-1.215,3.737-1.342,8.591,0.035,13.134l7.295,0.012c0.586-1.432,0.838-3.893,1.014-5.256l8.586-0.002
		c-0.858,1.041-2.284,2.273-3.604,3.035l5.94,0.23c0.021,2.877-1.028,6.221-1.956,7.771c1.643-0.348,4.888-1.141,6.896-1.141
		c0,2.404-1.186,7.777-2.65,8.896c3.333-0.75,5.259-0.592,7.012,0.027c-1.674,2.988-5.677,6.842-8.134,8.6
		c5.659-0.434,22.879,0.518,29.435,3.451c0.487-3.277,1.791-8.295,4.328-11.312c3.476,2.5,5.364,19.006,4.76,24.457
		c4.309-7.301,25.749-25.193,37.021-24.447c-2.703-1.646-6.031-4.428-7.395-7.848c-1.059-2.66-0.928-5.709,1.611-8.91
		c1.895-2.389,5.273-3.396,8.195-1.922c3.277,1.652,5.014,8.119,12.311,10.957c0.037-2.73,0.564-10.262,0.754-16.056
		c0.109-3.304,2.209-6.069,6.637-4.675c-1.906-3.618-3.924-11.317-4.365-14.576c-2.408-0.794-4.09-2.354-6.287-4.223
		c4.629-2.081,9.561-5.414,12.52-9.977c-2.701,0.691-7.77,2.144-10.584,1.71c-4.156-0.641-9.643-0.992-12.201-1.014l-3.109-3.133
		c4.221-2.449,13.951-7.634,21.211-18.049c-9.59,2.96-33.773,6.476-43.006,2.266c0.178-0.772,1.256-2.346,4.945-2.647
		c-2.314-2.892-5.945-1.66-8.059-1.091c-4.844-6.508-20.184-1.608-19.926,7.618c-3.067,1.169-4.862,2.631-5.897,6.09
		c2.211-1.259,4.278-1.793,6.2-1.601C81.808,56.707,68.054,56.685,65.804,55.959L65.804,55.959z"/>
	<polygon points="170.367,3.911 170.367,91.45 168.215,91.45 168.215,3.911 170.367,3.911 	"/>
	<path d="M170.367,91.45c0,11.808-2.188,23.025-6.135,33.443c-4.18,11.033-10.332,21.164-17.951,30.15
		c-6.477,7.639-14.012,14.451-22.295,20.285c-8.408,5.922-17.59,10.84-27.218,14.594h-0.782
		c-9.626-3.754-18.808-8.672-27.217-14.594c-8.283-5.834-15.819-12.646-22.296-20.285c-7.618-8.984-13.771-19.117-17.951-30.15
		c-3.947-10.418-6.134-21.635-6.134-33.443h2.151c0,11.548,2.136,22.511,5.991,32.687c4.089,10.795,10.116,20.715,17.581,29.52
		c6.355,7.496,13.755,14.184,21.892,19.914c8.154,5.744,17.048,10.525,26.373,14.197c9.324-3.672,18.218-8.453,26.373-14.197
		c8.139-5.73,15.537-12.418,21.893-19.914c7.465-8.805,13.492-18.725,17.582-29.52c3.855-10.176,5.99-21.139,5.99-32.687H170.367
		L170.367,91.45z"/>
	<polygon points="22.39,91.45 22.39,2.834 169.291,2.834 169.291,4.986 24.541,4.986 24.541,91.45 22.39,91.45 	"/>
</g>
</svg>
