<?xml version="1.0" encoding="UTF-8" standalone="no"?>
<!-- Created with Inkscape (http://www.inkscape.org/) -->
<svg
   xmlns:dc="http://purl.org/dc/elements/1.1/"
   xmlns:cc="http://web.resource.org/cc/"
   xmlns:rdf="http://www.w3.org/1999/02/22-rdf-syntax-ns#"
   xmlns:svg="http://www.w3.org/2000/svg"
   xmlns="http://www.w3.org/2000/svg"
   xmlns:sodipodi="http://inkscape.sourceforge.net/DTD/sodipodi-0.dtd"
   xmlns:inkscape="http://www.inkscape.org/namespaces/inkscape"
   id="svg1366"
   sodipodi:version="0.32"
   inkscape:version="0.43"
   width="615.85999"
   height="850"
   sodipodi:docbase="C:\Documents and Settings\Angelo\Desktop"
   sodipodi:docname="palermo calcio logo.svg"
   version="1.0">
  <metadata
     id="metadata1371">
    <rdf:RDF>
      <cc:Work
         rdf:about="">
        <dc:format>image/svg+xml</dc:format>
        <dc:type
           rdf:resource="http://purl.org/dc/dcmitype/StillImage" />
        <dc:title>US Città di Palermo SVG Version Logo</dc:title>
        <dc:creator>
          <cc:Agent>
            <dc:title>Angelo Romano</dc:title>
          </cc:Agent>
        </dc:creator>
        <dc:rights>
          <cc:Agent>
            <dc:title></dc:title>
          </cc:Agent>
        </dc:rights>
        <cc:license
           rdf:resource="http://web.resource.org/cc/PublicDomain" />
      </cc:Work>
      <cc:License
         rdf:about="http://web.resource.org/cc/PublicDomain">
        <cc:permits
           rdf:resource="http://web.resource.org/cc/Reproduction" />
        <cc:permits
           rdf:resource="http://web.resource.org/cc/Distribution" />
        <cc:permits
           rdf:resource="http://web.resource.org/cc/DerivativeWorks" />
      </cc:License>
    </rdf:RDF>
  </metadata>
  <defs
     id="defs1369" />
  <sodipodi:namedview
     inkscape:window-height="740"
     inkscape:window-width="1280"
     inkscape:pageshadow="2"
     inkscape:pageopacity="0.0"
     borderopacity="1.0"
     bordercolor="#666666"
     pagecolor="#ffffff"
     id="base"
     inkscape:zoom="0.70888142"
     inkscape:cx="565.72456"
     inkscape:cy="267.898"
     inkscape:window-x="-4"
     inkscape:window-y="-4"
     inkscape:current-layer="layer2" />
  <g
     inkscape:groupmode="layer"
     id="layer1"
     inkscape:label="Aquila" />
  <g
     inkscape:groupmode="layer"
     id="layer2"
     inkscape:label="top">
    <g
       id="g7655"
       transform="matrix(1.419032,0,0,1.419032,-948.7853,-217.626)">
      <path
         sodipodi:nodetypes="csscccccsssc"
         id="path5816"
         d="M 898.42711,741.98324 C 962.24261,715.94286 1016.0468,681.13909 1050.3958,643.68075 C 1075.3108,616.51037 1089.9284,588.38165 1095.622,556.65156 C 1097.1863,547.93437 1097.3311,533.75193 1097.3352,388.95267 L 1097.3398,230.77626 L 885.86053,230.77626 L 674.38124,230.77626 L 674.09685,378.94149 C 673.80941,528.69627 674.16074,548.10445 677.44047,563.64747 C 691.98271,632.56482 760.29276,695.05267 871.86191,741.4979 C 878.73623,744.35958 884.84114,746.73496 885.42838,746.7764 C 886.0156,746.81784 891.86504,744.6609 898.42711,741.98324 z "
         style="fill:#ffffff;fill-opacity:1" />
      <path
         sodipodi:nodetypes="csssssssssssssscccccsssssssssssssssssssccsscccccsssccssssssssssssssssscccsssccccccccssssccccscccccscsssscccsssssscsscccssscccccccccccscccssssssssc"
         id="path1449"
         d="M 875.13691,748.32838 C 869.63744,746.13875 864.013,743.86387 862.63813,743.27309 C 861.26326,742.68229 858.78851,741.65712 857.13867,740.99491 C 853.4653,739.52053 808.30828,717.06081 804.15974,714.64483 C 785.63025,703.85376 756.37217,684.02995 746.98874,675.9086 C 746.35041,675.35611 743.89231,673.32896 741.52631,671.40381 C 735.99952,666.9068 715.67285,646.4021 710.29731,639.90129 C 708.02314,637.15107 705.71048,634.39349 705.15806,633.77333 C 704.60564,633.15317 703.47873,631.63541 702.65381,630.40053 C 701.82889,629.16565 700.59151,627.56752 699.90408,626.84914 C 699.21665,626.13076 698.6542,625.09831 698.6542,624.55482 C 698.6542,624.01133 698.28112,623.41664 697.82513,623.23328 C 695.30092,622.21832 681.78753,596.91023 678.15621,586.39701 C 678.06122,586.12198 677.70943,585.22191 677.37447,584.39685 C 676.36828,581.91847 672.90183,569.39588 671.00719,561.39501 C 669.34203,554.36323 669.21175,541.37664 668.92273,353.62839 L 668.61443,153.36237 L 885.61452,153.36237 L 1102.6146,153.36237 L 1102.6146,348.15418 C 1102.6146,477.22381 1102.2629,545.80525 1101.5722,551.42044 C 1100.6663,558.78494 1096.6001,576.98409 1094.8748,581.39661 C 1094.5521,582.22167 1094.1931,583.23425 1094.0768,583.64679 C 1093.9606,584.05932 1093.753,584.62186 1093.6155,584.89689 C 1093.478,585.17191 1093.2933,585.73445 1093.2051,586.14699 C 1093.1169,586.55952 1092.4823,587.90963 1091.7951,589.14723 C 1091.1078,590.38483 1090.7677,591.39741 1091.0393,591.39741 C 1092.4111,591.39741 1077.8559,617.35733 1072.247,624.91436 C 1070.526,627.23309 1068.218,630.39042 1067.1181,631.93064 C 1066.0182,633.47086 1064.6657,635.21929 1064.1126,635.81604 C 1063.5595,636.4128 1059.3954,641.24607 1054.8591,646.55666 C 1050.3229,651.86725 1043.8011,658.60868 1040.3663,661.53763 C 1036.9316,664.46656 1033.1816,667.77215 1032.033,668.88336 C 1030.8844,669.99458 1028.4097,672.1113 1026.5335,673.58718 C 1024.6574,675.06306 1020.1977,678.59712 1016.623,681.44065 C 1005.2336,690.5006 983.74809,704.68576 963.62823,716.42882 C 959.43521,718.87609 918.65131,739.08887 915.63294,740.2156 C 913.70812,740.93412 910.78341,742.12596 909.13357,742.86415 C 903.32014,745.46527 886.12965,752.41364 885.63588,752.36189 C 885.3609,752.33308 880.63637,750.518 875.13691,748.32838 z M 898.20244,741.54631 C 962.01795,715.53289 1015.8221,680.76516 1050.1712,643.34558 C 1075.0862,616.20334 1089.7038,588.10374 1095.3974,556.4065 C 1096.9616,547.69834 1097.1065,533.53058 1097.1106,388.88121 L 1097.1152,230.86857 L 885.63588,230.86857 L 674.1566,230.86857 L 673.87221,378.88041 C 673.58477,528.48014 673.9361,547.86823 677.21583,563.39517 C 691.75807,632.24117 760.06811,694.66432 871.63725,741.06148 C 878.51157,743.92024 884.61649,746.29311 885.20372,746.33451 C 885.79095,746.37592 891.64038,744.22123 898.20244,741.54631 z M 869.63744,721.00731 C 848.38924,711.76892 835.63582,705.65415 835.67728,704.72473 C 835.69736,704.27466 837.73195,702.62716 840.19858,701.06365 C 842.66522,699.50013 847.71079,695.44981 851.41097,692.06293 C 861.24344,683.06299 898.19802,644.47723 915.25567,625.40013 C 942.9811,594.39231 944.84985,592.46951 949.40392,590.26454 C 954.28998,587.89881 963.93454,587.30342 965.87829,589.24751 C 966.7262,590.09557 966.43589,591.16591 964.7332,593.46931 C 963.47867,595.16647 962.70061,596.80347 963.00419,597.1071 C 963.30777,597.41074 966.47707,596.92532 970.04708,596.02841 C 977.52864,594.14877 984.86644,593.92066 987.77458,595.47731 C 989.69708,596.5064 989.71017,596.64699 988.05382,598.47755 C 986.39609,600.30965 986.40649,600.39813 988.2797,600.39813 C 989.35971,600.39813 991.11679,599.73738 992.1843,598.92981 C 994.90854,596.86893 999.66286,597.05198 1006.9055,599.49658 C 1014.6728,602.11823 1019.1614,601.68971 1028.3619,597.44816 C 1032.2087,595.67475 1036.4281,594.37541 1037.7384,594.56073 C 1040.0211,594.88359 1040.1229,595.23905 1040.172,603.0564 C 1040.2288,612.10821 1041.0626,613.84874 1046.4134,616.08576 L 1049.7063,617.46245 L 1043.5322,624.92784 C 1035.8557,634.20986 1018.8454,650.69668 1007.6154,659.73911 C 988.00698,675.52803 955.57336,695.53216 927.13181,709.37911 C 912.72113,716.39505 887.09834,727.42755 885.37224,727.35968 C 884.69232,727.33295 877.61166,724.47439 869.63744,721.00731 z M 808.14347,690.14905 L 803.14396,686.90505 L 809.54176,686.60345 C 817.23249,686.24091 818.60061,687.20321 815.45945,690.7658 L 813.14298,693.39305 L 808.14347,690.14905 z M 775.89983,669.15363 C 774.12975,667.91603 772.67373,666.56592 772.66423,666.15339 C 772.65473,665.74085 775.12171,665.40333 778.14641,665.40333 C 782.57654,665.40333 783.64587,665.72219 783.64587,667.04322 C 783.64587,668.48486 781.05025,671.28426 779.63219,671.372 C 779.34946,671.3895 777.66991,670.39123 775.89983,669.15363 z M 747.79887,646.056 L 744.45323,642.60357 L 747.49253,641.93591 C 750.4946,641.27643 754.64871,642.66388 754.64871,644.32604 C 754.64871,644.7958 753.86026,646.15401 752.89661,647.34429 L 751.1445,649.50844 L 747.79887,646.056 z M 730.05047,624.81594 C 728.38109,625.31201 727.19026,624.46473 724.24791,620.68744 C 722.21176,618.07348 720.90718,615.82677 721.34886,615.69475 M 1049.0285,610.83442 C 1047.6212,607.46587 1047.6283,606.66957 1049.105,602.15375 C 1051.3788,595.20089 1054.9901,589.81482 1061.7692,583.26597 C 1067.4801,577.74891 1071.6322,575.41579 1071.6033,577.73993 C 1071.556,581.54527 1054.8062,611.92943 1051.6959,613.85207 C 1051.0173,614.27154 1049.9688,613.08537 1049.0285,610.83442 z M 721.50619,615.82594 C 720.87742,615.82321 705.36484,588.37696 706.84519,587.1421 C 708.32552,585.90723 724.88314,570.94577 743.63989,553.89441 C 762.39664,536.84304 778.13987,522.75239 778.62484,522.58184 C 779.63123,522.22794 829.64816,555.2325 829.62852,556.23751 C 829.62145,556.59893 813.7605,561.05678 794.38197,566.14384 C 775.00344,571.23089 790.9294,600.4889 776.43465,604.34006 C 761.9399,608.19121 744.57863,590.64188 705.29687,589.39228 M 1028.6219,571.80905 C 1011.8299,563.87238 988.56701,550.93122 988.85058,549.68429 C 989.23308,548.00241 1035.9025,496.24732 1042.3567,490.3475 C 1050.2199,483.15969 1057.5734,479.88849 1065.8682,479.88849 L 1072.6176,479.88849 L 1072.6138,476.88825 C 1072.6071,471.50686 1069.3944,467.75518 1063.2673,465.97365 C 1059.8615,464.9834 1055.0437,462.3066 1050.5815,458.92547 C 1041.5753,452.10113 1038.8215,451.63138 1023.6224,454.32673 C 1017.298,455.44827 1007.9725,456.37056 1002.8991,456.37626 L 993.67479,456.38661 L 994.66971,459.00392 L 995.66463,461.62123 L 985.57429,461.21587 L 975.48395,460.81052 L 976.10076,464.099 L 976.71758,467.38749 L 967.06913,467.38749 L 957.4207,467.38749 L 951.77532,461.59919 C 939.98359,449.50894 909.37261,404.42594 911.21461,401.8625 C 911.71988,401.15934 949.7046,366.47323 995.6251,324.78229 L 1079.1169,248.98056 L 1079.3918,269.42692 C 1079.5429,280.67242 1079.5166,348.828 1079.3334,420.88377 C 1078.9789,560.25801 1079.1535,554.8784 1074.5201,569.14026 C 1073.5894,572.0051 1073.2272,572.25735 1071.4275,571.29404 C 1070.231,570.65356 1067.578,570.47456 1065.0039,570.86064 C 1059.2274,571.72703 1059.0441,569.46587 1064.5804,565.63585 C 1069.2343,562.4162 1069.4416,561.8186 1066.1876,561.00175 C 1062.708,560.12828 1059.6876,561.6074 1055.1193,566.42207 C 1049.3288,572.52478 1043.7022,576.40337 1040.7206,576.34748 C 1039.2908,576.32069 1033.8464,574.2784 1028.6219,571.80905 z "
         style="fill:#000000" />
      <path
         sodipodi:nodetypes="csssssssssscsssssssccssssssssssssssssssssscccsssccccccsscccccssccccccccccccccssssssssssssssssssssssssccscscccccccccsccscscccccccccsccccccccccccsccccccccccccccssssscccccccsssssssssssscccccssssccccsssscccssssssccccscccccssssscccssscccccccssssssssssssssssssssssssssssssssccssssssssssssssssssssscssccssssssssssssssssssssscccsssssssssssssssssssssssssssssssssssssssssssssccssssssscccsssccccccscccssssssssssssssssssssssccssssssssssssssssssssccsssssssssssssssssccsssssssssssssssssc"
         id="path1495"
         d="M 837.42712,156.92068 C 838.23241,158.03244 839.86291,161.17073 839.45543,161.75958 C 839.4474,161.77118 839.45661,161.80999 839.45543,161.82208 C 839.45458,161.82761 839.45654,161.84833 839.45543,161.85334 C 839.45213,161.86123 839.42857,161.8789 839.42419,161.88459 C 839.42278,161.8856 839.42578,161.91495 839.42419,161.91584 C 839.42032,161.91711 839.3975,161.91507 839.39294,161.91584 C 839.38248,161.91639 839.34355,161.91723 839.33044,161.91584 C 839.30885,161.91233 839.2649,161.88192 839.2367,161.88459 C 838.56277,161.94848 834.49214,159.2756 833.24386,157.88928 C 832.15194,156.67661 836.72664,155.95363 837.42712,156.92068 z M 1078.7757,165.60364 C 1081.6681,165.38044 1084.6099,166.59478 1086.9312,169.35394 C 1090.5587,173.66573 1092.1242,181.30995 1092.0244,194.38719 C 1091.907,209.7756 1090.3158,216.87904 1086.0875,221.10808 C 1083.4711,223.72497 1081.9906,224.38959 1078.807,224.38959 C 1075.5053,224.38959 1074.3029,223.79416 1071.8077,220.95181 C 1067.5369,216.08679 1066.3196,209.02298 1066.8082,191.94949 C 1067.1405,180.33392 1067.5933,177.05876 1069.3392,173.19799 C 1071.4459,168.539 1075.057,165.89061 1078.7757,165.60364 z M 728.40382,165.97867 C 728.52175,165.96169 728.65173,165.97131 728.74753,165.97867 C 728.80384,165.98455 728.88518,165.99516 728.93501,166.00992 C 729.0083,166.03428 729.09184,166.09035 729.15374,166.13493 C 729.2146,166.18176 729.28799,166.25512 729.34122,166.32244 C 729.3646,166.35339 729.41254,166.41242 729.43497,166.44745 C 729.60728,166.72693 729.76858,167.13479 729.96616,167.6663 C 730.57164,169.29508 730.33944,170.14497 729.06,170.88531 C 728.10946,171.43535 725.9451,173.07406 724.24797,174.54185 C 719.53488,178.61811 720.01097,183.91917 725.9978,193.98091 C 733.16643,206.02884 733.4209,212.2773 727.02895,218.67038 C 722.44448,223.25567 717.84106,225.03627 716.96744,222.57694 C 716.63257,221.6343 716.1969,220.57462 715.99878,220.20175 C 715.99568,220.19592 715.96974,220.17678 715.96754,220.1705 C 715.96687,220.16714 715.96799,220.14272 715.96754,220.13925 C 715.96751,220.13556 715.96735,220.11179 715.96754,220.108 C 715.96815,220.104 715.96672,220.08085 715.96754,220.07674 C 715.96857,220.07253 715.96631,220.0498 715.96754,220.04549 C 716.13146,219.5425 717.65469,218.3844 719.59218,217.29527 C 727.188,213.02542 727.33749,207.06982 720.15462,195.98107 C 715.06157,188.11854 713.92133,183.78768 715.53008,178.41716 C 717.10415,173.16241 720.28469,169.4298 725.06039,167.29127 C 726.77501,166.52348 727.76693,166.0703 728.40382,165.97867 z M 866.64027,166.07242 L 872.67093,166.72873 C 886.05685,168.12809 888.13816,171.99527 888.13816,195.38727 C 888.13816,209.16709 887.90415,211.3854 885.98212,215.54513 C 884.625,218.48226 882.67059,220.80948 880.76388,221.79563 C 879.07327,222.67003 875.29053,223.38951 872.20222,223.38951 L 866.64027,223.38951 L 866.64027,194.73097 L 866.64027,166.07242 z M 684.6581,166.22869 L 684.6581,191.23069 C 684.6581,212.62179 684.87584,216.45046 686.22045,217.79531 C 687.08465,218.65967 688.60185,219.38919 689.59512,219.38919 C 693.73977,219.38919 694.11359,217.24129 694.50089,191.23069 L 694.87585,166.38495 L 697.25062,166.38495 L 699.65663,166.38495 L 699.65663,191.4182 C 699.65663,218.70246 699.16019,221.47073 694.03219,223.42076 C 689.34158,225.20444 684.73067,224.57174 682.15835,221.79563 C 678.95598,218.3396 678.47663,213.39102 678.84617,187.88667 L 679.15864,166.88499 L 681.90837,166.54121 L 684.6581,166.22869 z M 777.64899,166.22869 L 777.64899,194.79347 L 777.64899,223.38951 L 774.61804,223.38951 L 771.61833,223.38951 L 771.86831,195.13725 L 772.14953,166.88499 L 774.89926,166.54121 L 777.64899,166.22869 z M 761.49432,166.38495 C 761.75512,166.3707 762.03878,166.38495 762.30674,166.38495 C 764.41402,166.38495 765.53604,166.42703 766.08762,166.75998 C 766.13621,166.79102 766.20426,166.84912 766.24386,166.88499 C 766.25022,166.89111 766.26899,166.90998 766.2751,166.91624 C 766.30455,166.94826 766.34503,167.00554 766.36885,167.04125 C 766.38248,167.06313 766.41959,167.11173 766.43134,167.13501 C 766.44247,167.15877 766.45325,167.20355 766.46259,167.22877 C 766.57355,167.55439 766.54889,168.02741 766.46259,168.63513 C 766.2206,170.3393 765.31748,171.00665 762.7442,171.38535 C 755.97072,172.38219 753.71081,178.63823 753.68259,196.38735 C 753.65552,213.42149 755.68821,218.41563 762.83794,218.76414 C 764.10388,218.82585 764.93597,218.96355 765.46268,219.29543 C 765.54294,219.34805 765.64497,219.41963 765.71266,219.48295 C 766.14782,219.90621 766.33891,220.57413 766.46259,221.63937 C 766.56191,222.49476 766.58836,223.11071 766.46259,223.51452 C 766.44706,223.56048 766.42034,223.62962 766.40009,223.67078 C 766.37461,223.71905 766.33925,223.78519 766.30635,223.82704 C 766.28355,223.85426 766.23897,223.89624 766.21261,223.9208 C 766.19897,223.93276 766.16469,223.97197 766.15012,223.98331 C 766.12756,223.99983 766.08111,224.03064 766.05638,224.04581 C 765.55516,224.33556 764.6066,224.35995 762.96293,224.35834 C 757.60241,224.35309 753.36939,221.41998 750.55789,215.73265 C 748.34268,211.25148 748.16003,209.70569 748.15188,195.88731 C 748.14475,183.75448 748.49086,179.98604 749.9642,176.16698 C 752.36823,169.9355 756.19146,166.67469 761.49432,166.38495 z M 790.17901,166.38495 C 790.95785,166.36685 791.84474,166.38495 792.835,166.38495 C 798.29837,166.38495 800.00462,166.42546 800.42801,167.22877 C 800.5844,167.55323 800.546,168.02429 800.45925,168.63513 C 800.25391,170.0812 799.34282,170.99247 797.89701,171.19783 L 795.64723,171.51036 L 795.64723,197.44993 L 795.64723,223.38951 L 792.64752,223.38951 L 789.64781,223.38951 L 789.64781,197.38743 L 789.64781,171.38535 L 786.64811,171.38535 C 783.59552,171.38535 783.16128,170.76459 784.24209,167.94757 C 784.64972,166.8851 785.97329,166.48268 790.17901,166.38495 z M 812.17686,166.38495 C 812.95569,166.36685 813.84258,166.38495 814.83285,166.38495 C 820.29621,166.38495 822.00246,166.42546 822.42585,167.22877 C 822.58225,167.55323 822.54384,168.02429 822.4571,168.63513 C 822.25176,170.0812 821.34067,170.99247 819.89485,171.19783 L 817.64507,171.51036 L 817.64507,197.44993 L 817.64507,223.38951 L 814.64536,223.38951 L 811.64566,223.38951 L 811.64566,197.38743 L 811.64566,171.38535 L 808.64595,171.38535 C 805.59336,171.38535 805.15912,170.76459 806.23994,167.94757 C 806.64757,166.8851 807.97114,166.48268 812.17686,166.38495 z M 893.63762,166.38495 L 896.63733,166.38495 L 899.63703,166.38495 L 899.63703,194.88723 L 899.63703,223.38951 L 896.63733,223.38951 L 893.63762,223.38951 L 893.63762,194.88723 L 893.63762,166.38495 z M 912.63576,166.38495 L 917.38529,166.4162 C 928.71558,166.55086 933.6337,171.28167 933.6337,182.04245 C 933.6337,192.74802 930.5202,197.4319 922.3848,198.9188 L 918.63517,199.60636 L 918.63517,211.48231 L 918.63517,223.38951 L 915.63547,223.38951 L 912.63576,223.38951 L 912.63576,194.88723 L 912.63576,166.38495 z M 963.63076,166.38495 L 966.13052,166.38495 L 968.63027,166.38495 L 968.63027,192.38703 L 968.63027,218.38911 L 972.62988,218.38911 C 974.48595,218.38911 975.49731,218.45377 976.0358,218.82664 C 976.08347,218.86139 976.15168,218.9116 976.19203,218.95165 C 976.20509,218.96531 976.24223,218.99988 976.25452,219.01416 C 976.27241,219.03605 976.30076,219.08456 976.31702,219.10792 C 976.56347,219.48145 976.62949,220.06307 976.62949,220.88931 C 976.62949,221.60492 976.60363,222.11828 976.41076,222.48319 C 975.93756,223.31991 974.48699,223.38951 970.13012,223.38951 L 963.63076,223.38951 L 963.63076,194.88723 L 963.63076,166.38495 z M 983.6288,166.38495 L 989.65946,166.38495 C 993.62266,166.38495 995.08678,166.52855 995.8776,167.41628 C 996.13934,167.72062 996.34814,168.1371 996.53379,168.63513 C 996.75633,169.23211 996.88044,169.67671 996.8775,170.01024 C 996.87636,170.04566 996.88203,170.10227 996.8775,170.13525 C 996.87345,170.15954 996.8523,170.20601 996.84626,170.22901 C 996.83954,170.25157 996.8238,170.30143 996.81501,170.32276 C 996.80868,170.33671 996.79104,170.37184 996.78376,170.38527 C 996.76824,170.41161 996.74073,170.45465 996.72127,170.47903 C 996.71615,170.485 996.69539,170.50442 996.69002,170.51028 C 996.68439,170.51602 996.66466,170.5359 996.65877,170.54153 C 996.65263,170.54705 996.63394,170.56737 996.62753,170.57278 C 996.58081,170.60987 996.50017,170.66563 996.44005,170.69779 C 995.95213,170.94536 995.02933,171.0453 993.50283,171.16658 L 989.62821,171.47911 L 989.62821,182.91752 L 989.62821,194.38719 L 994.12777,194.38719 C 996.93687,194.38719 998.01188,194.48088 998.4086,195.26226 C 998.58396,195.62882 998.62733,196.16974 998.62733,196.88739 C 998.62733,197.71268 998.56736,198.26512 998.31486,198.63753 C 998.22391,198.76432 998.08795,198.89455 997.9399,198.98131 C 997.33163,199.31929 996.19423,199.38759 994.12777,199.38759 L 989.62821,199.38759 L 989.62821,208.88835 C 989.62821,214.89853 989.64771,217.109 990.2844,217.92032 C 990.6422,218.34705 991.1948,218.38911 992.03423,218.38911 C 995.7624,218.38911 997.62743,219.40752 997.62743,221.48311 C 997.62743,221.79758 997.58893,222.07573 997.50244,222.29567 C 997.45293,222.41286 997.37307,222.54608 997.28371,222.63945 C 996.64823,223.26687 994.93964,223.38951 990.62812,223.38951 L 983.6288,223.38951 L 983.6288,211.85734 C 983.6288,202.52896 983.34217,200.197 982.12895,199.73137 C 981.30403,199.41475 980.6291,198.07863 980.6291,196.76238 C 980.6291,195.30181 981.21359,194.38719 982.12895,194.38719 C 982.16837,194.38719 982.21648,194.3605 982.25394,194.35594 C 982.30939,194.34728 982.39024,194.34512 982.44142,194.32468 C 982.53395,194.28333 982.64364,194.1949 982.72264,194.10592 C 983.45837,193.21928 983.6288,189.95628 983.6288,180.38607 L 983.6288,166.38495 z M 1003.6268,166.38495 L 1008.3764,166.4162 C 1019.6681,166.5504 1023.6154,170.62728 1024.4061,182.94877 C 1024.8273,189.51356 1024.5757,190.93848 1022.0938,196.01232 L 1019.3128,201.70027 L 1022.3125,211.98235 L 1025.3435,222.23317 L 1022.875,222.85822 C 1021.7048,223.15195 1020.4902,223.18601 1019.969,222.98323 C 1019.9329,222.96781 1019.8727,222.93878 1019.844,222.92072 C 1019.8373,222.91604 1019.8189,222.89432 1019.8128,222.88947 C 1019.8071,222.88446 1019.7867,222.8634 1019.7815,222.85822 C 1019.7785,222.85441 1019.7534,222.83138 1019.7503,222.82696 C 1019.3354,222.20388 1017.4981,216.9745 1015.5632,210.91976 L 1011.9073,199.54385 L 1014.8445,196.60612 C 1018.1819,193.26812 1019.2542,188.1438 1018.1567,180.8236 C 1017.4265,175.95341 1014.0373,171.38535 1011.1574,171.38535 C 1011.1045,171.38535 1011.0505,171.37456 1011.0011,171.38535 C 1009.8123,171.70696 1009.6263,175.6694 1009.6263,197.38743 L 1009.6263,223.38951 L 1006.6266,223.38951 L 1003.6268,223.38951 L 1003.6268,194.88723 L 1003.6268,166.38495 z M 838.2993,167.35378 C 838.30256,167.35474 838.32698,167.35125 838.33054,167.35378 C 839.29534,168.37435 849.63314,217.83213 849.64193,221.63937 C 849.64485,222.90894 848.83031,223.38951 846.70472,223.38951 C 844.42731,223.38951 843.70342,222.88824 843.45504,221.13933 C 843.16792,219.1173 842.58499,218.88915 837.64311,218.88915 C 834.47722,218.88915 833.08328,218.97779 832.42487,219.5767 C 832.40142,219.59907 832.35274,219.64671 832.33113,219.67046 C 832.04394,220.0015 831.92316,220.49165 831.83118,221.13933 C 831.58283,222.88824 830.85893,223.38951 828.5815,223.38951 C 827.49851,223.38951 826.77452,223.28202 826.33172,223.01448 C 826.3165,223.00486 826.28382,222.99331 826.26922,222.98323 C 826.16916,222.91097 826.06005,222.79909 825.988,222.70195 C 825.97797,222.6878 825.96626,222.65414 825.95676,222.63945 C 825.94289,222.61699 825.907,222.56942 825.89426,222.54569 C 825.70873,222.1833 825.64429,221.65703 825.64429,220.95181 C 825.64429,219.83024 825.31382,218.77071 824.89436,218.35786 C 824.83947,218.30745 824.76479,218.26001 824.70688,218.23285 C 824.69855,218.22947 824.684,218.20445 824.67563,218.20159 C 823.22928,217.70676 824.66,213.38871 826.26922,213.38871 C 826.69716,213.38871 827.07738,213.27832 827.33162,213.13869 C 827.34534,213.13078 827.38123,213.11565 827.39411,213.10744 C 827.40034,213.10326 827.41935,213.08043 827.42536,213.07618 C 827.43695,213.06755 827.47718,213.05382 827.48786,213.04493 C 827.49296,213.04042 827.51423,213.01825 827.5191,213.01368 C 827.54227,212.99053 827.56469,212.94445 827.5816,212.91992 C 827.58784,212.91001 827.60767,212.89877 827.61284,212.88867 C 827.61515,212.88358 827.6108,212.86256 827.61284,212.85742 C 827.6146,212.85224 827.64262,212.83138 827.64409,212.82616 C 827.64528,212.8209 827.64319,212.8002 827.64409,212.79491 C 827.64469,212.78958 827.64379,212.76902 827.64409,212.76366 C 827.64409,212.75983 827.64379,212.73751 827.64409,212.73241 C 827.79815,211.11674 837.64847,169.05422 838.26805,167.38503 C 838.27007,167.3796 838.29697,167.35759 838.2993,167.35378 z M 944.25766,167.35378 C 944.26406,167.35689 944.2813,167.37566 944.28891,167.38503 C 945.31047,168.93755 955.54354,218.30532 955.6003,222.13941 C 955.61095,222.85931 954.38176,223.38951 952.69433,223.38951 C 950.41693,223.38951 949.69303,222.88824 949.44465,221.13933 C 949.15753,219.1173 948.5746,218.88915 943.63272,218.88915 C 940.46683,218.88915 939.07289,218.97779 938.41448,219.5767 C 938.39104,219.59907 938.34235,219.64671 938.32074,219.67046 C 938.03355,220.0015 937.91277,220.49165 937.82079,221.13933 C 937.57245,222.88824 936.84855,223.38951 934.57111,223.38951 C 933.64902,223.38951 932.98309,223.32081 932.54006,223.13949 C 932.43137,223.09285 932.31279,223.01545 932.22759,222.95197 C 932.19285,222.9249 932.1336,222.88851 932.1026,222.85822 C 932.07232,222.82726 932.03562,222.76756 932.00886,222.73321 C 931.72726,222.35463 931.6339,221.77445 931.6339,220.88931 C 931.6339,219.92243 931.38524,219.0546 931.04021,218.63913 C 931.00912,218.60391 930.94788,218.54226 930.91522,218.51412 C 930.83269,218.44834 930.72403,218.40529 930.634,218.38911 C 930.61587,218.38694 930.58985,218.38911 930.5715,218.38911 C 930.43751,218.38911 930.31463,218.33181 930.22779,218.2641 C 930.21394,218.25196 930.1779,218.2154 930.16529,218.20159 C 930.1473,218.17966 930.11807,218.13331 930.1028,218.10784 C 929.58537,217.14973 930.80139,213.98349 932.38382,212.82616 C 933.24672,212.13803 935.84763,202.90763 938.72695,190.32436 C 941.42609,178.52848 943.89296,168.21009 944.22641,167.38503 C 944.22837,167.38018 944.25538,167.35701 944.25766,167.35378 z M 1037.6548,165.6728 C 1037.6568,165.67067 1037.684,165.67459 1037.686,165.6728 C 1037.6879,165.67237 1037.7154,165.67288 1037.7173,165.6728 C 1037.7237,165.67941 1037.7413,165.69464 1037.7485,165.70405 C 1037.7523,165.70945 1037.7758,165.72921 1037.7797,165.7353 C 1038.2908,166.56817 1040.2079,176.01502 1042.1543,182.88627 C 1044.1007,189.75752 1046.066,195.80163 1046.6226,196.69987 C 1046.627,196.70649 1046.6497,196.7252 1046.6539,196.73113 C 1046.6618,196.74161 1046.678,196.75469 1046.6851,196.76238 C 1046.7143,196.79362 1046.7481,196.83553 1046.7789,196.85614 C 1046.8022,196.86963 1046.8485,196.87969 1046.8726,196.88739 C 1046.905,196.89513 1046.9642,196.92083 1046.9976,196.91864 C 1047.4184,196.86085 1047.9318,196.0258 1048.2475,194.76222 C 1051.6897,180.98423 1054.8289,166.95767 1055.7467,165.92282 C 1055.7545,165.91458 1055.7705,165.89836 1055.778,165.89156 C 1055.7853,165.88548 1055.8023,165.86493 1055.8092,165.86031 C 1055.8126,165.85836 1055.8372,165.86189 1055.8405,165.86031 C 1055.8436,165.85946 1055.8687,165.86079 1055.8717,165.86031 C 1055.8745,165.86095 1055.9003,165.8593 1055.903,165.86031 C 1055.9054,165.86244 1055.9319,165.88905 1055.9342,165.89156 C 1055.9404,165.90251 1055.9601,165.93968 1055.9655,165.95407 C 1056.5745,167.83636 1062.6211,218.8327 1062.6211,221.76438 C 1062.6211,222.87826 1061.7375,223.38951 1059.7463,223.38951 L 1056.8404,223.38951 L 1055.653,213.13869 C 1054.6556,204.64268 1054.0838,200.1689 1053.4032,199.26258 C 1053.3921,199.24878 1053.3519,199.212 1053.3407,199.20007 C 1053.3351,199.19457 1053.3151,199.17385 1053.3095,199.16882 C 1053.2925,199.15512 1053.2641,199.14709 1053.247,199.13757 C 1053.2413,199.13486 1053.2215,199.10857 1053.2157,199.10632 C 1053.2042,199.10275 1053.1649,199.10805 1053.1532,199.10632 C 1053.1474,199.10592 1053.1279,199.10626 1053.122,199.10632 C 1053.1161,199.10684 1053.0967,199.10535 1053.0907,199.10632 C 1053.0669,199.11205 1053.0213,199.12453 1052.997,199.13757 C 1052.9909,199.14129 1052.9719,199.16465 1052.9658,199.16882 C 1052.3067,199.66387 1051.4549,202.77323 1050.0598,208.13829 C 1048.5512,213.93953 1047.0812,218.7478 1046.6539,219.32668 C 1046.6505,219.33091 1046.6259,219.3543 1046.6226,219.35794 C 1046.6197,219.36038 1046.5942,219.3561 1046.5914,219.35794 C 1046.5887,219.35917 1046.5939,219.38857 1046.5914,219.38919 C 1046.5867,219.38919 1046.5655,219.36034 1046.5601,219.35794 C 1046.5572,219.35555 1046.532,219.36091 1046.5289,219.35794 C 1046.5191,219.34725 1046.5087,219.31129 1046.4976,219.29543 C 1046.4938,219.28957 1046.4704,219.2706 1046.4664,219.26418 C 1045.9886,218.4539 1044.5719,213.86999 1043.123,208.38831 C 1041.749,203.19018 1040.3528,199.03147 1039.7483,198.23125 C 1039.7429,198.22453 1039.7223,198.20615 1039.7171,198.19999 C 1039.712,198.19439 1039.6908,198.17378 1039.6858,198.16874 C 1039.681,198.16427 1039.6593,198.14139 1039.6546,198.13749 C 1039.6454,198.13083 1039.6319,198.11058 1039.6233,198.10624 C 1039.6192,198.10465 1039.5961,198.10724 1039.5921,198.10624 C 1039.5882,198.10583 1039.5645,198.10605 1039.5608,198.10624 C 1039.5574,198.10762 1039.5328,198.10425 1039.5296,198.10624 C 1039.5265,198.10884 1039.5325,198.13428 1039.5296,198.13749 C 1039.5235,198.14504 1039.5046,198.15895 1039.4983,198.16874 C 1039.492,198.17964 1039.4737,198.21815 1039.4671,198.23125 C 1039.0632,199.08929 1038.2873,203.92877 1037.686,209.38839 C 1037.0499,215.16385 1036.2829,220.67679 1035.9987,221.63937 C 1035.6577,222.79414 1034.4776,223.38951 1032.5303,223.38951 C 1031.539,223.38951 1030.8756,223.31348 1030.468,223.13949 C 1030.4441,223.12875 1030.3963,223.11992 1030.3742,223.10824 C 1030.3599,223.10024 1030.3253,223.08541 1030.3117,223.07698 C 1030.2259,223.02076 1030.1485,222.9345 1030.093,222.85822 C 1030.0766,222.83423 1030.0442,222.79053 1030.0305,222.76446 C 1030.024,222.75116 1030.0052,222.71579 1029.9993,222.70195 C 1029.9909,222.68077 1029.975,222.63064 1029.968,222.6082 C 1029.8729,222.27285 1029.9187,221.80437 1030.0618,221.13933 C 1030.328,219.90173 1032.0117,207.50497 1033.7801,193.60588 C 1035.4243,180.68405 1037.0688,166.79941 1037.6235,165.7353 C 1037.628,165.72769 1037.6504,165.71033 1037.6548,165.70405 C 1037.6569,165.70125 1037.6527,165.67527 1037.6548,165.6728 z M 1079.4007,170.85406 C 1077.6042,170.95567 1075.7601,172.23775 1074.4324,174.63561 C 1072.7554,177.66427 1072.1173,203.23669 1073.5262,210.88851 C 1074.1091,214.05379 1075.201,216.98473 1076.1197,217.95157 C 1076.1428,217.97512 1076.1906,218.02434 1076.2135,218.04533 C 1076.2439,218.07217 1076.2773,218.11693 1076.3072,218.13909 C 1080.4698,221.22399 1084.173,217.80429 1085.1501,209.98219 C 1086.1685,201.82962 1085.2677,176.25162 1083.869,173.72929 C 1082.7461,171.70441 1081.0883,170.75859 1079.4007,170.85406 z M 872.63968,171.22909 L 872.63968,194.79347 C 872.63968,217.23533 872.71581,218.38911 874.5145,218.38911 C 875.55345,218.38911 877.39998,217.58594 878.60784,216.60772 C 881.53718,214.23526 882.92334,202.65832 882.04501,188.04293 C 881.34802,176.44514 879.99142,173.35548 874.88946,171.88539 L 872.63968,171.22909 z M 918.63517,171.38535 L 918.63517,182.38623 L 918.63517,193.38711 L 921.13493,193.38711 C 926.29113,193.38711 929.63551,186.49405 928.19673,178.82344 C 927.37663,174.45106 924.45814,171.38535 921.13493,171.38535 L 918.63517,171.38535 z M 837.89309,194.38719 C 837.88291,194.38801 837.87195,194.41583 837.86184,194.41844 C 837.8568,194.42019 837.83561,194.41624 837.83059,194.41844 C 837.80557,194.43164 837.76149,194.45677 837.73685,194.48095 C 837.72702,194.49148 837.71538,194.53119 837.7056,194.54345 C 837.64706,194.62217 837.57551,194.74817 837.51812,194.88723 C 836.32187,197.78624 834.00065,211.23496 834.39343,212.73241 C 834.39511,212.73808 834.39166,212.75839 834.39343,212.76366 C 834.39529,212.76853 834.39148,212.79044 834.39343,212.79491 C 834.39752,212.80304 834.42022,212.81967 834.42468,212.82616 C 835.34063,213.74229 840.34532,213.41841 841.11152,212.41988 C 841.11707,212.41187 841.13777,212.39672 841.14277,212.38863 C 841.1453,212.38389 841.14035,212.36262 841.14277,212.35738 C 841.14742,212.34592 841.16976,212.30825 841.17401,212.29487 C 841.18009,212.27337 841.20006,212.22686 841.20526,212.20111 C 841.39815,211.13388 840.91184,206.83306 840.04912,202.13781 C 839.20067,197.52017 838.61299,195.14538 838.14306,194.54345 C 838.13762,194.53693 838.11722,194.51825 838.11181,194.5122 C 838.10643,194.50662 838.08593,194.48606 838.08057,194.48095 C 838.07524,194.47631 838.05463,194.45386 838.04932,194.44969 C 838.03347,194.43856 838.00247,194.42541 837.98683,194.41844 C 837.98164,194.41658 837.96075,194.41985 837.95558,194.41844 C 837.95043,194.41749 837.92946,194.38769 837.92433,194.38719 C 837.91922,194.38715 837.89817,194.38678 837.89309,194.38719 z M 943.78896,194.48095 C 943.78407,194.48368 943.76258,194.50904 943.75771,194.5122 C 943.71402,194.54458 943.6439,194.60144 943.60147,194.66846 C 943.56387,194.73142 943.51337,194.82894 943.47649,194.91848 C 942.2914,197.79476 939.99386,211.23976 940.38304,212.73241 C 940.3847,212.73806 940.38129,212.75841 940.38304,212.76366 C 940.38488,212.76851 940.3811,212.79046 940.38304,212.79491 C 940.38709,212.803 940.40987,212.8197 940.41429,212.82616 C 941.39741,213.80947 947.15361,213.40176 947.60108,212.38863 C 947.60272,212.38449 947.59961,212.36154 947.60108,212.35738 C 947.60366,212.34903 947.63048,212.33455 947.63233,212.32612 C 947.63307,212.32188 947.63177,212.29912 947.63233,212.29487 C 947.63252,212.29058 947.63233,212.26793 947.63233,212.26362 C 947.63233,211.65491 946.89236,207.05234 945.97624,202.04405 C 945.17813,197.68086 944.59148,195.34995 944.13267,194.66846 C 944.08378,194.59965 944.02317,194.54374 943.97644,194.5122 C 943.97127,194.50915 943.95033,194.48355 943.94519,194.48095 C 943.94007,194.4788 943.91904,194.48265 943.91394,194.48095 C 943.90887,194.4797 943.88775,194.48175 943.8827,194.48095 C 943.87767,194.48059 943.85646,194.48086 943.85145,194.48095 C 943.84646,194.48148 943.82517,194.47998 943.8202,194.48095 C 943.81525,194.48236 943.79389,194.4791 943.78896,194.48095 z M 705.65605,217.38903 C 705.9443,217.37028 706.28098,217.38903 706.65595,217.38903 C 707.80167,217.38903 708.52537,217.45103 708.96822,217.73281 C 708.99184,217.74862 709.03992,217.77815 709.06196,217.79531 C 709.1122,217.83643 709.17598,217.90252 709.2182,217.95157 C 709.57064,218.38221 709.65565,219.13917 709.65565,220.38927 C 709.65565,221.36852 709.59456,222.03416 709.40568,222.48319 C 709.38078,222.53934 709.3418,222.6213 709.31194,222.6707 C 709.29657,222.69486 709.26614,222.7419 709.24944,222.76446 C 708.85477,223.27152 708.09331,223.38951 706.65595,223.38951 C 705.59355,223.38951 704.88553,223.30934 704.43742,223.07698 C 704.40302,223.0582 704.34391,223.03556 704.31243,223.01448 C 703.76603,222.62979 703.65624,221.86856 703.65624,220.38927 C 703.65624,219.28501 703.71246,218.55393 703.96871,218.10784 C 703.98364,218.08313 704.01496,218.03717 704.03121,218.01408 C 704.04234,217.99904 704.08195,217.96592 704.0937,217.95157 C 704.1359,217.90252 704.1997,217.83643 704.24993,217.79531 C 704.30137,217.75527 704.37721,217.70316 704.43742,217.6703 C 704.72738,217.51995 705.12759,217.4234 705.65605,217.38903 z M 738.65281,217.38903 C 738.94106,217.37028 739.27775,217.38903 739.65271,217.38903 C 740.79843,217.38903 741.52214,217.45103 741.96499,217.73281 C 741.9886,217.74862 742.03669,217.77815 742.05873,217.79531 C 742.10896,217.83643 742.17275,217.90252 742.21496,217.95157 C 742.56741,218.38221 742.65242,219.13917 742.65242,220.38927 C 742.65242,221.36852 742.59133,222.03416 742.40244,222.48319 C 742.37755,222.53934 742.33857,222.6213 742.3087,222.6707 C 742.29333,222.69486 742.26291,222.7419 742.24621,222.76446 C 741.85154,223.27152 741.09007,223.38951 739.65271,223.38951 C 738.59032,223.38951 737.8823,223.30934 737.43418,223.07698 C 737.39978,223.0582 737.34068,223.03556 737.30919,223.01448 C 736.7628,222.62979 736.65301,221.86856 736.65301,220.38927 C 736.65301,219.28501 736.70922,218.55393 736.96548,218.10784 C 736.98041,218.08313 737.01172,218.03717 737.02797,218.01408 C 737.03911,217.99904 737.07872,217.96592 737.09046,217.95157 C 737.13267,217.90252 737.19646,217.83643 737.2467,217.79531 C 737.29813,217.75527 737.37398,217.70316 737.43418,217.6703 C 737.72414,217.51995 738.12435,217.4234 738.65281,217.38903 z "
         style="fill:#c0a25e;fill-opacity:1" />
      <path
         sodipodi:nodetypes="csscccccsssc"
         id="path1362"
         d="M 898.06288,736.24388 C 960.37467,710.80757 1012.911,676.81117 1046.4507,640.22176 C 1070.7786,613.68168 1085.0518,586.20547 1090.6112,555.21144 C 1092.1386,546.69647 1092.28,532.84303 1092.284,391.40275 L 1092.2885,236.89566 L 885.79242,236.89566 L 679.29633,236.89566 L 679.01864,381.62382 C 678.73797,527.90464 679.08102,546.8626 682.28347,562.04507 C 696.48305,629.3637 763.18347,690.40198 872.12365,735.7698 C 878.83598,738.5651 884.79705,740.88536 885.37045,740.92584 C 885.94384,740.96632 891.65544,738.85942 898.06288,736.24388 z "
         style="fill:#f7b7d3;fill-opacity:1" />
      <path
         sodipodi:nodetypes="csscccccsssc"
         id="path2240"
         d="M 897.70177,729.18913 C 958.20597,704.35794 1009.2183,671.1703 1041.785,635.45134 C 1065.4072,609.54264 1079.2663,582.72008 1084.6645,552.46339 C 1086.1476,544.15099 1086.2849,530.62711 1086.2888,392.55166 L 1086.2932,241.72024 L 885.78726,241.72024 L 685.28137,241.72024 L 685.01173,383.00536 C 684.7392,525.80621 685.0723,544.31317 688.18185,559.13445 C 701.96952,624.85159 766.73504,684.4378 872.515,728.72633 C 879.03261,731.45513 884.82076,733.72019 885.37753,733.75971 C 885.93429,733.79922 891.4802,731.74244 897.70177,729.18913 z "
         style="fill:#ffffff;fill-opacity:1" />
      <path
         sodipodi:nodetypes="csscccccsssc"
         id="path3115"
         d="M 897.28755,722.95085 C 955.71834,698.77818 1004.9825,666.47066 1036.4332,631.69896 C 1059.2459,606.47735 1072.6301,580.36611 1077.8433,550.91182 C 1079.2755,542.81986 1079.4082,529.65463 1079.4119,395.24088 L 1079.4161,248.40946 L 885.78134,248.40946 L 692.14656,248.40946 L 691.88617,385.94775 C 691.62298,524.96158 691.94466,542.97773 694.94765,557.40596 C 708.26283,621.38031 770.80891,679.38631 872.96391,722.50032 C 879.25817,725.15676 884.84796,727.36175 885.38565,727.40022 C 885.92333,727.43869 891.27919,725.43646 897.28755,722.95085 z "
         style="fill:#f7b7d3;fill-opacity:1" />
      <path
         sodipodi:nodetypes="cssccssssc"
         id="path3990"
         d="M 897.28755,722.38319 C 955.71834,698.21052 1004.9825,665.903 1036.4332,631.1313 C 1059.2459,605.90969 1072.6301,579.79845 1077.8433,550.34416 C 1079.2755,542.2522 1079.4082,529.08697 1079.4119,394.67322 L 1079.4161,247.8418 L 705.82754,588.62995 C 705.70077,588.74559 705.9764,588.93927 706.05128,589.09385 C 730.81546,640.21818 788.28012,686.19229 872.96391,721.93266 C 879.25817,724.5891 884.84796,726.79409 885.38565,726.83256 C 885.92333,726.87103 891.27919,724.8688 897.28755,722.38319 z "
         style="fill:#221e1f;fill-opacity:1" />
      <g
         transform="matrix(0.979021,0,0,0.997902,-631.0192,-8.471772)"
         id="g5810">
        <path
           style="fill:#c5a55e;fill-opacity:1"
           d="M 1459.4956,241.08021 C 1458.8405,241.15883 1458.2749,241.40457 1457.8394,241.83021 C 1450.637,248.86895 1448.8173,256.09609 1450.6831,270.17396 C 1451.4497,275.9581 1451.336,276.50041 1449.3394,277.58021 C 1446.8274,278.93882 1440.6288,276.58373 1434.7456,272.04896 L 1431.2456,269.39271 L 1429.8081,272.23646 C 1425.6265,280.41157 1423.5967,290.22952 1423.5894,302.54896 C 1423.5828,313.78493 1423.8272,315.24405 1426.4956,321.33021 C 1432.0654,334.03394 1430.1089,337.82402 1420.4644,332.95521 C 1417.2289,331.32184 1414.2696,329.84211 1413.9019,329.67396 C 1413.8989,329.67292 1413.8736,329.67473 1413.8706,329.67396 C 1413.8674,329.67399 1413.8427,329.67367 1413.8394,329.67396 C 1413.8359,329.67477 1413.8116,329.67289 1413.8081,329.67396 C 1413.7971,329.67871 1413.7572,329.69819 1413.7456,329.70521 C 1413.2962,330.02304 1412.4304,331.88908 1411.6831,334.23646 C 1405.855,352.54312 1407.0843,369.4931 1415.4644,386.20521 C 1419.7221,394.69639 1417.2801,398.08803 1409.4331,394.58021 C 1407.0065,393.49542 1403.4239,391.37191 1401.4644,389.86146 C 1399.6886,388.49263 1398.0094,387.5286 1397.4956,387.58021 C 1397.4913,387.5808 1397.4684,387.57947 1397.4644,387.58021 C 1397.4569,387.5823 1397.4398,387.60876 1397.4331,387.61146 C 1397.4299,387.61296 1397.4049,387.6098 1397.4019,387.61146 C 1397.3966,387.61539 1397.3751,387.63815 1397.3706,387.64271 C 1397.3659,387.64921 1397.3442,387.66554 1397.3394,387.67396 C 1397.0352,388.24983 1396.4238,392.41255 1395.9331,397.17396 C 1394.2713,413.30079 1397.2991,429.84708 1404.6519,444.61146 C 1406.5554,448.43347 1407.9789,452.5606 1407.8081,453.76771 C 1407.3461,457.03417 1402.8026,456.28213 1396.2144,451.86146 C 1393.5576,450.07882 1391.0978,448.78758 1390.3394,448.73646 C 1390.3329,448.7362 1390.3143,448.73652 1390.3081,448.73646 C 1390.2963,448.73673 1390.2563,448.7354 1390.2456,448.73646 C 1390.2354,448.73792 1390.2234,448.76545 1390.2144,448.76771 C 1390.2101,448.76904 1390.1871,448.76618 1390.1831,448.76771 C 1390.1794,448.76945 1390.1553,448.76577 1390.1519,448.76771 C 1390.1487,448.76986 1390.1547,448.7966 1390.1519,448.79896 C 1390.1113,448.83999 1390.0626,448.90893 1390.0269,448.98646 C 1389.0633,451.21273 1389.8501,466.59101 1391.3394,473.08021 C 1394.2701,485.85056 1402.5534,499.4762 1411.9956,507.04896 C 1414.5872,509.12739 1434.2117,522.48725 1455.5894,536.73646 C 1485.2771,556.52474 1493.459,562.35902 1494.3706,564.51771 C 1494.3848,564.55318 1494.4229,564.6092 1494.4331,564.64271 C 1494.4424,564.67574 1494.4588,564.73652 1494.4644,564.76771 C 1494.4666,564.78308 1494.463,564.81528 1494.4644,564.83021 C 1494.4653,564.84493 1494.4643,564.87841 1494.4644,564.89271 C 1494.4697,566.63901 1493.6447,567.3472 1490.7144,568.11146 C 1488.6409,568.65224 1461.1384,576.01915 1429.6206,584.48646 C 1398.1029,592.95376 1371.4139,600.03741 1370.3081,600.20521 C 1367.778,600.58914 1362.0444,602.74792 1361.7769,603.39271 C 1361.7765,603.39509 1361.777,603.42163 1361.7769,603.42396 C 1361.7769,604.98179 1366.071,611.84701 1368.4644,614.11146 C 1372.5228,617.95148 1382.6903,622.66658 1391.1519,624.61146 C 1399.1167,626.44222 1400.9643,627.49561 1400.9644,630.26771 C 1400.9643,633.72478 1392.6937,637.51771 1385.1519,637.51771 C 1383.7385,637.51771 1382.521,637.71767 1382.0581,637.98646 C 1381.9889,638.02994 1381.9299,638.09595 1381.9019,638.14271 C 1381.899,638.1486 1381.8727,638.16803 1381.8706,638.17396 C 1381.8699,638.17694 1381.8711,638.20222 1381.8706,638.20521 C 1381.8704,638.20822 1381.8706,638.23344 1381.8706,638.23646 C 1381.8711,638.23993 1381.8699,638.26401 1381.8706,638.26771 C 1381.988,638.75411 1383.9221,640.93187 1386.2456,643.23646 C 1391.6255,648.57223 1397.7063,650.61301 1408.3081,650.61146 C 1417.8933,650.61005 1419.064,651.04863 1419.0581,654.45521 C 1419.0536,657.07633 1414.9693,662.45938 1411.2769,664.70521 C 1410.9053,664.93121 1410.6057,665.1398 1410.4331,665.33021 C 1410.4276,665.33656 1410.4071,665.35511 1410.4019,665.36146 C 1410.3918,665.37416 1410.3797,665.41123 1410.3706,665.42396 C 1410.3663,665.43033 1410.3434,665.44882 1410.3394,665.45521 C 1410.3316,665.46802 1410.3148,665.50482 1410.3081,665.51771 C 1410.305,665.52418 1410.2797,665.54247 1410.2769,665.54896 C 1410.2716,665.562 1410.2811,665.59829 1410.2769,665.61146 C 1410.2731,665.6247 1410.2484,665.66057 1410.2456,665.67396 C 1410.2433,665.68744 1410.2469,665.7228 1410.2456,665.73646 C 1410.2448,665.75022 1410.2454,665.78498 1410.2456,665.79896 C 1410.2463,665.81305 1410.2438,665.84712 1410.2456,665.86146 C 1410.2524,665.90486 1410.2606,665.97166 1410.2769,666.01771 C 1410.3006,666.07976 1410.361,666.16845 1410.4019,666.23646 C 1410.6925,666.70112 1411.3745,667.33378 1412.5269,668.29896 C 1416.2817,671.44367 1423.2297,673.89271 1428.3706,673.89271 C 1430.5202,673.8927 1433.1448,674.37676 1434.2144,674.95521 C 1435.1149,675.44233 1435.6884,675.59141 1435.9644,675.42396 C 1435.9949,675.40272 1436.0354,675.3603 1436.0581,675.33021 C 1436.0877,675.28561 1436.1372,675.20466 1436.1519,675.14271 C 1436.1626,675.08749 1436.1519,675.02318 1436.1519,674.95521 C 1436.1519,674.94213 1436.1506,674.90554 1436.1519,674.89271 C 1436.1528,674.88636 1436.1818,674.86775 1436.1831,674.86146 C 1436.1863,674.84901 1436.1787,674.81117 1436.1831,674.79896 C 1436.1856,674.79292 1436.2115,674.77369 1436.2144,674.76771 C 1436.2175,674.76179 1436.2109,674.74232 1436.2144,674.73646 C 1436.2589,674.66693 1436.348,674.57846 1436.4331,674.51771 C 1436.4552,674.5027 1436.5024,674.46967 1436.5269,674.45521 C 1438.374,673.40775 1446.4223,673.8191 1448.0581,675.23646 C 1448.0724,675.24943 1448.1073,675.28582 1448.1206,675.29896 C 1448.1333,675.31218 1448.1715,675.34808 1448.1831,675.36146 C 1450.0298,677.61026 1449.0522,680.25716 1445.7144,681.98646 C 1444.0595,682.84385 1442.4651,683.86167 1442.1831,684.23646 C 1441.8685,684.61305 1440.3938,685.22509 1438.8706,685.61146 L 1436.0581,686.33021 L 1438.2144,688.67396 C 1439.4071,689.95697 1442.7095,692.06736 1445.5581,693.36146 C 1450.1982,695.4694 1452.2479,695.72286 1465.3081,695.73646 C 1473.2005,695.7447 1480.2437,696.10633 1481.1206,696.54896 C 1481.1268,696.55248 1481.1465,696.54543 1481.1519,696.54896 C 1481.8431,697.00103 1482.3869,698.16654 1482.3706,699.11146 C 1482.3367,701.09058 1477.7356,706.46862 1473.9331,708.98646 C 1472.6161,709.85854 1471.5339,710.89554 1471.3706,711.39271 C 1471.3639,711.41706 1471.3411,711.46501 1471.3394,711.48646 C 1471.3394,711.48987 1471.3391,711.5142 1471.3394,711.51771 C 1471.3407,711.52516 1471.3683,711.54109 1471.3706,711.54896 C 1471.372,711.553 1471.369,711.57607 1471.3706,711.58021 C 1471.5905,712.08874 1473.4175,713.3219 1475.6206,714.42396 C 1480.461,716.84518 1487.504,717.21274 1493.8394,715.36146 C 1506.5517,711.64669 1522.9066,695.51001 1594.6831,615.79896 C 1610.8446,597.85086 1613.9984,595.67396 1623.8394,595.67396 C 1630.7088,595.67398 1632.7393,597.0992 1631.9331,601.36146 C 1631.7817,602.1621 1631.6972,602.71574 1631.7456,603.08021 C 1631.751,603.11486 1631.7688,603.17412 1631.7769,603.20521 C 1631.7812,603.22032 1631.803,603.25347 1631.8081,603.26771 C 1631.819,603.29534 1631.8255,603.3372 1631.8394,603.36146 C 1631.8467,603.37318 1631.8625,603.41306 1631.8706,603.42396 C 1631.8748,603.42921 1631.8974,603.45016 1631.9019,603.45521 C 1631.925,603.47947 1631.9672,603.49829 1631.9956,603.51771 C 1632.0074,603.5251 1632.0455,603.54232 1632.0581,603.54896 C 1632.0646,603.5521 1632.0826,603.57726 1632.0894,603.58021 C 1632.1103,603.58853 1632.1601,603.60474 1632.1831,603.61146 C 1632.6017,603.72083 1633.3594,603.59351 1634.5894,603.33021 C 1645.3569,601.02514 1655.3394,602.02516 1655.3394,605.42396 C 1655.3393,605.80108 1655.3793,606.08115 1655.4956,606.23646 C 1655.5073,606.25027 1655.5451,606.28711 1655.5581,606.29896 C 1655.5718,606.30983 1655.6056,606.32128 1655.6206,606.33021 C 1655.6599,606.35011 1655.7285,606.38485 1655.7769,606.39271 C 1656.0782,606.42554 1656.5695,606.24407 1657.2769,605.86146 C 1660.1997,604.28063 1664.4086,604.5726 1670.9019,606.83021 C 1679.2347,609.72747 1683.494,609.42057 1692.5269,605.29896 C 1701.2798,601.30511 1703.6956,601.00421 1706.1519,603.48646 C 1707.5749,604.92463 1707.7372,606.40091 1707.1831,612.58021 C 1706.5919,619.17176 1706.7293,620.2009 1708.5581,622.04896 C 1711.2996,624.81943 1714.1326,624.87981 1712.6831,622.14271 C 1709.4124,615.96671 1714.1601,603.2808 1723.4331,593.45521 C 1729.5907,586.93043 1734.0202,583.99341 1736.3394,584.89271 C 1736.3457,584.89519 1736.3647,584.89078 1736.3706,584.89271 C 1736.376,584.89411 1736.397,584.89184 1736.4019,584.89271 C 1736.4062,584.89306 1736.4293,584.89287 1736.4331,584.89271 C 1736.4359,584.89156 1736.462,584.89435 1736.4644,584.89271 C 1736.4657,584.89013 1736.4635,584.86449 1736.4644,584.86146 C 1736.4643,584.85754 1736.4649,584.83456 1736.4644,584.83021 C 1736.4633,584.82544 1736.4658,584.80414 1736.4644,584.79896 C 1736.4585,584.78223 1736.443,584.75665 1736.4331,584.73646 C 1736.4219,584.71517 1736.3858,584.66713 1736.3706,584.64271 C 1735.8056,583.77019 1732.9696,581.1559 1729.9644,581.73646 C 1727.101,582.28961 1723.6831,581.00947 1723.6831,579.39271 C 1723.7261,578.83472 1725.1188,576.80581 1726.8081,574.86146 C 1728.0859,573.39079 1728.7897,572.46485 1728.9644,571.92396 C 1728.9714,571.90059 1728.9906,571.85212 1728.9956,571.83021 C 1728.9985,571.81592 1728.9936,571.78137 1728.9956,571.76771 C 1728.9964,571.76104 1728.995,571.74298 1728.9956,571.73646 C 1728.9963,571.72374 1728.9958,571.68607 1728.9956,571.67396 C 1728.9953,571.66806 1728.9961,571.64846 1728.9956,571.64271 C 1728.9949,571.63711 1728.9966,571.61692 1728.9956,571.61146 C 1728.9944,571.60615 1728.997,571.58537 1728.9956,571.58021 C 1728.994,571.57519 1728.9662,571.55383 1728.9644,571.54896 C 1728.9623,571.54423 1728.9666,571.5223 1728.9644,571.51771 C 1728.9594,571.50881 1728.9389,571.4948 1728.9331,571.48646 C 1728.9238,571.47436 1728.9131,571.43485 1728.9019,571.42396 C 1728.89,571.41347 1728.8531,571.40202 1728.8394,571.39271 C 1728.8343,571.38986 1728.8133,571.36418 1728.8081,571.36146 C 1728.7864,571.35109 1728.7394,571.33862 1728.7144,571.33021 C 1728.5981,571.29454 1728.4273,571.26771 1728.2456,571.26771 C 1728.2075,571.26978 1728.1374,571.28671 1728.0894,571.29896 C 1726.8788,571.64377 1722.8037,574.92478 1718.7144,578.86146 C 1714.3883,583.02588 1709.6396,586.73412 1708.1519,587.11146 C 1704.4387,588.05326 1695.2076,584.15225 1673.4956,572.48646 C 1652.6264,561.2735 1651.3081,560.46648 1651.3081,558.73646 C 1651.3081,556.77201 1699.5324,502.54884 1706.8394,496.29896 C 1715.3839,488.99062 1722.6491,485.61486 1729.9644,485.51771 C 1733.2867,485.47359 1734.7356,485.34888 1735.3394,484.76771 C 1735.3898,484.71645 1735.4566,484.639 1735.4956,484.58021 C 1735.5384,484.51173 1735.5906,484.4094 1735.6206,484.33021 C 1735.7241,484.03808 1735.7444,483.6644 1735.7456,483.20521 C 1735.7543,479.82322 1731.8137,476.13593 1726.2144,474.33021 C 1723.4496,473.43863 1718.9165,470.90701 1716.1519,468.67396 C 1706.4243,460.81708 1704.1265,460.39954 1686.9956,463.58021 C 1680.9765,464.69778 1672.7547,465.61146 1668.7144,465.61146 C 1664.1408,465.61147 1662.366,465.71307 1661.7144,466.36146 C 1661.6503,466.42908 1661.5701,466.53155 1661.5269,466.61146 C 1661.3944,466.87356 1661.3706,467.22979 1661.3706,467.64271 C 1661.3705,470.3095 1657.9484,471.08674 1649.2144,470.45521 C 1645.4268,470.18136 1643.7097,470.0807 1643.0269,470.42396 C 1642.9624,470.45908 1642.885,470.50461 1642.8394,470.54896 C 1642.7717,470.62079 1642.7112,470.73359 1642.6831,470.83021 C 1642.6017,471.15414 1642.7112,471.62595 1642.8706,472.26771 C 1643.2856,473.93901 1642.8664,474.9131 1641.4019,475.70521 C 1638.5445,477.25058 1625.7468,477.0614 1621.8706,475.42396 C 1618.1222,473.84045 1609.9722,465.2302 1601.9644,454.39271 C 1595.6217,445.80872 1573.9508,412.16291 1573.6206,410.39271 C 1573.5015,409.75435 1572.8675,408.76603 1572.2144,408.20521 C 1571.2917,407.41291 1502.6077,300.64276 1468.4644,246.92396 C 1465.9891,243.02936 1462.0655,240.77178 1459.4956,241.08021 z M 1451.1831,287.51771 C 1451.1962,287.51557 1451.2013,287.51961 1451.2144,287.51771 C 1451.2212,287.51672 1451.2386,287.51845 1451.2456,287.51771 C 1451.267,287.51623 1451.3165,287.51689 1451.3394,287.51771 C 1453.2851,287.65068 1460.4484,295.92612 1487.5581,329.23646 C 1563.1808,422.15571 1607.2357,477.65078 1610.7769,484.45521 C 1611.7028,486.23448 1611.8307,487.47877 1611.3394,488.14271 C 1611.2601,488.24458 1611.1351,488.34973 1611.0269,488.42396 C 1610.9844,488.45169 1610.9172,488.49407 1610.8706,488.51771 C 1609.4305,489.21135 1606.101,488.0139 1602.1519,484.86146 C 1581.6533,468.49818 1506.6322,394.48865 1481.8394,366.17396 C 1464.8568,346.77889 1453.4667,331.58858 1448.7769,322.08021 C 1445.4139,315.2621 1445.0983,313.8651 1445.1519,306.29896 C 1445.2233,296.26257 1447.8544,288.06313 1451.1831,287.51771 z M 1430.4644,342.51771 C 1431.2363,342.44787 1432.1373,342.61992 1432.7144,342.95521 C 1436.5835,345.20312 1568.9162,472.73248 1585.9956,490.67396 C 1591.3825,496.33262 1594.6003,500.50565 1594.5581,501.70521 C 1594.5566,501.72365 1594.5613,501.75079 1594.5581,501.76771 C 1594.4652,502.25977 1594.3039,502.67937 1594.0894,502.98646 C 1592.6694,504.94629 1588.404,502.90449 1578.0581,495.64271 C 1557.211,481.01028 1518.9916,452.31716 1464.9331,410.67396 C 1453.7217,402.03759 1443.3542,393.35456 1441.8706,391.39271 C 1434.8666,382.13003 1429.8511,367.09481 1428.6831,351.76771 C 1428.2792,346.46691 1428.2707,344.31882 1428.8394,343.36146 C 1428.8822,343.29271 1428.9462,343.19982 1428.9956,343.14271 C 1429.01,343.12683 1429.0432,343.09524 1429.0581,343.08021 C 1429.1189,343.02171 1429.2072,342.93947 1429.2769,342.89271 C 1429.3831,342.82453 1429.5248,342.7544 1429.6519,342.70521 C 1429.8991,342.6095 1430.1623,342.54504 1430.4644,342.51771 z M 1416.9019,404.33021 C 1417.0443,404.31819 1417.2045,404.33021 1417.3706,404.33021 C 1419.4033,404.33021 1458.686,431.84201 1523.1519,478.42396 C 1570.6733,512.76189 1580.614,520.50394 1580.6206,523.11146 C 1580.6219,523.63651 1580.5783,524.04743 1580.4644,524.36146 C 1580.4469,524.40684 1580.4229,524.47625 1580.4019,524.51771 C 1580.293,524.7212 1580.1215,524.89953 1579.9019,525.01771 C 1579.3534,525.29874 1578.3958,525.35056 1576.8394,525.33021 C 1574.7591,525.30303 1569.5683,523.9704 1565.2769,522.36146 C 1545.3769,514.90036 1504.6885,493.08701 1453.1519,462.26771 C 1436.4556,452.28313 1429.1235,444.86471 1422.3394,431.01771 C 1418.7018,423.59285 1415.2144,412.23186 1415.2144,407.76771 C 1415.2144,406.1668 1415.3569,405.27357 1415.7769,404.79896 C 1415.7828,404.79253 1415.802,404.77398 1415.8081,404.76771 C 1415.8205,404.75548 1415.8578,404.71682 1415.8706,404.70521 C 1415.8771,404.69956 1415.8952,404.67946 1415.9019,404.67396 C 1415.9426,404.64185 1416.0128,404.60713 1416.0581,404.58021 C 1416.0811,404.56717 1416.1276,404.52953 1416.1519,404.51771 C 1416.3571,404.4225 1416.6052,404.35526 1416.9019,404.33021 z M 1414.6206,463.01771 C 1415.2761,462.942 1416.0277,463.06947 1416.8706,463.39271 C 1421.2481,465.07144 1506.3847,510.0232 1542.5269,529.73646 C 1560.6548,539.62415 1565.7524,542.73757 1566.3081,544.95521 C 1566.3982,545.34214 1566.3535,545.71452 1566.2144,546.08021 C 1565.2662,548.57253 1560.6857,548.13583 1546.8081,544.23646 C 1517.084,535.88449 1457.9023,511.17839 1435.0269,497.58021 C 1426.4795,492.49933 1417.975,484.80869 1414.6831,479.14271 C 1410.1584,471.35469 1410.4817,463.49578 1414.6206,463.01771 z M 1708.5559,470.13597 C 1712.0766,470.05756 1713.0714,469.42395 1713.7767,470.07833 C 1713.8006,470.10155 1713.8482,470.14769 1713.8704,470.17208 C 1713.9065,470.21339 1713.9636,470.28367 1713.9954,470.32833 C 1714.0883,470.46437 1714.1815,470.62915 1714.2454,470.79708 C 1715.2257,473.374 1712.2805,476.19193 1708.6519,476.92396 C 1704.5829,477.74478 1704.8155,477.75974 1700.8394,476.01771 C 1699.3982,475.3863 1698.5505,474.8891 1698.1206,474.23646 C 1697.7345,473.62875 1697.6803,472.85783 1697.8081,471.73646 C 1698.1242,468.96255 1698.7942,470.52004 1706.3684,470.22972 C 1707.1743,470.19883 1708.0771,470.32689 1708.5559,470.13597 z M 1510.8706,575.23646 C 1510.919,575.23026 1510.9658,575.23646 1510.9956,575.23646 C 1512.2688,575.23645 1516.43,576.4832 1520.2456,577.98646 C 1525.9055,580.21631 1527.1831,581.12562 1527.1831,582.95521 C 1527.183,584.92493 1524.6843,586.17122 1506.7456,593.33021 C 1479.2979,604.28411 1452.2387,614.12398 1438.8394,618.01771 C 1423.4535,622.48871 1410.379,623.09523 1400.8706,619.73646 C 1393.4074,617.10003 1389.9956,614.56831 1389.9956,611.70521 C 1389.9956,611.51404 1390.0282,611.32891 1390.0581,611.17396 C 1390.0797,611.07219 1390.1119,610.9486 1390.1519,610.86146 C 1390.5759,609.99548 1392.0769,609.83021 1396.5581,609.83021 C 1403.7471,609.83021 1403.6185,609.8618 1470.2769,587.89271 C 1490.9037,581.09452 1508.8545,575.49481 1510.8706,575.23646 z M 1536.3706,584.64271 C 1537.1889,584.58636 1537.9354,584.65017 1538.7769,584.73646 C 1541.5504,585.02089 1545.6205,585.86592 1547.8394,586.61146 C 1555.1519,589.06836 1553.713,590.75473 1534.0581,602.83021 C 1502.1607,622.42721 1475.6181,636.5463 1460.1206,642.11146 C 1451.331,645.2678 1434.084,646.27706 1428.1831,643.98646 C 1422.0165,641.59266 1419.1311,639.24632 1419.4644,636.89271 C 1419.6828,635.34844 1420.5921,634.67394 1422.7769,634.45521 C 1432.7943,633.45242 1446.691,627.47957 1496.9331,602.51771 C 1526.5295,587.81337 1532.4279,584.91424 1536.3706,584.64271 z M 1564.0581,589.89271 C 1564.6945,589.85077 1565.271,589.94882 1565.9331,590.04896 C 1581.1219,592.3465 1581.1879,593.33805 1566.8081,605.29896 C 1531.2819,634.84913 1495.9373,658.09674 1478.8394,663.14271 C 1471.523,665.30198 1463.1282,665.18144 1457.9956,662.83021 C 1451.4042,659.81074 1451.4356,656.67048 1458.0894,655.04896 C 1465.0419,653.35463 1472.7235,648.58401 1530.1206,610.45521 C 1556.0048,593.26048 1560.8157,590.1064 1564.0581,589.89271 z M 1587.1831,593.45521 L 1593.5581,593.83021 C 1600.1959,594.19663 1602.4209,595.62674 1600.8394,598.58021 C 1599.0274,601.96353 1553.0769,649.57657 1541.4956,660.14271 C 1526.6624,673.67571 1526.6614,673.90622 1517.7769,677.83021 C 1503.419,684.17154 1476.6374,683.00657 1492.4331,674.26771 C 1499.059,670.60195 1506.4332,664.93189 1551.9019,624.70521 L 1587.1831,593.45521 z "
           id="path4867"
           sodipodi:nodetypes="cssscccssssssssssssssssssssssssssssssssssssssssssssssssssssssssssssssssssssssssssssssssssssssssccccssssssssssssssssssssssssssssssssssssssssssssssssssscssssssssssssssssssssssssssssssssssssssssssssssccssssssssssssccsssscsssssssssccscsssssssssssssssccsscssssccsssssssssccsssssssssssccssssssssccsssssscccsssscc" />
        <path
           style="fill:#ffffff;fill-opacity:1"
           d="M 1492.4359,674.27289 C 1499.0618,670.60714 1506.4141,664.92459 1551.8828,624.69791 L 1587.1833,593.46724 L 1593.5561,593.81904 C 1600.1939,594.18546 1602.4021,595.6353 1600.8206,598.58877 C 1599.0087,601.97207 1553.0827,649.57271 1541.5014,660.13885 C 1526.6682,673.67186 1526.6431,673.90954 1517.7586,677.83353 C 1503.4008,684.17483 1476.6402,683.01175 1492.4359,674.27289 z M 1457.9855,662.83308 C 1451.394,659.81361 1451.4363,656.66418 1458.09,655.04266 C 1465.0426,653.34834 1472.7217,648.5961 1530.1188,610.4673 C 1561.083,589.8979 1561.9045,589.42937 1565.9401,590.03977 C 1581.129,592.33728 1581.1866,593.35541 1566.8068,605.31632 C 1531.2807,634.86646 1495.9273,658.10851 1478.8294,663.15448 C 1471.5131,665.31376 1463.1181,665.18431 1457.9855,662.83308 z M 1428.1746,643.99392 C 1422.008,641.60011 1419.1223,639.25164 1419.4556,636.89803 C 1419.6741,635.35375 1420.5991,634.67528 1422.7839,634.45655 C 1432.8014,633.45376 1446.6728,627.47685 1496.9149,602.51499 C 1532.6539,584.75878 1533.8754,584.24007 1538.7712,584.74215 C 1541.5448,585.02657 1545.6296,585.86926 1547.8485,586.6148 C 1555.161,589.07172 1553.7183,590.77028 1534.0634,602.84576 C 1502.166,622.44277 1475.5991,636.54723 1460.1016,642.11239 C 1451.3121,645.26871 1434.0755,646.28452 1428.1746,643.99392 z M 1400.8806,619.72541 C 1393.4174,617.08898 1390.0049,614.57453 1390.0049,611.71143 C 1390.0049,610.08013 1390.8602,609.83442 1396.5393,609.83442 C 1403.7283,609.83442 1403.6065,609.87062 1470.2648,587.90153 C 1491.3868,580.94021 1509.7099,575.24457 1510.983,575.24457 C 1512.2562,575.24457 1516.4195,576.47451 1520.2351,577.97777 C 1525.895,580.20764 1527.1724,581.12393 1527.1724,582.95352 C 1527.1724,584.92322 1524.6873,586.18789 1506.7486,593.34688 C 1479.3009,604.30077 1452.245,614.13543 1438.8457,618.02916 C 1423.4598,622.50018 1410.389,623.08418 1400.8806,619.72541 z M 1546.8024,544.24607 C 1517.0784,535.89407 1457.8874,511.19319 1435.012,497.59501 C 1426.4647,492.51413 1417.9751,484.8077 1414.6832,479.14172 C 1409.4419,470.12032 1410.7039,461.02428 1416.8688,463.38856 C 1421.2462,465.06729 1506.3893,510.01819 1542.5314,529.73145 C 1563.9174,541.3962 1567.1417,543.6239 1566.2044,546.08748 C 1565.2563,548.57979 1560.68,548.14544 1546.8024,544.24607 z M 1565.2608,522.37024 C 1545.3609,514.90915 1504.6705,493.10476 1453.1338,462.28546 C 1436.4375,452.30089 1429.1134,444.86722 1422.3292,431.02022 C 1418.6916,423.59535 1415.2195,412.24779 1415.2195,407.78364 C 1415.2195,404.93757 1415.5976,404.33009 1417.3689,404.33009 C 1419.4016,404.33009 1458.6722,431.83882 1523.1381,478.42077 C 1570.6596,512.75872 1580.6154,520.49796 1580.622,523.10548 C 1580.6268,525.08213 1580.1113,525.38776 1576.8453,525.34506 C 1574.7651,525.31786 1569.5522,523.97918 1565.2608,522.37024 z M 1578.0587,495.65578 C 1557.2116,481.02334 1518.9908,452.30851 1464.9323,410.66531 C 1453.7209,402.02895 1443.3346,393.35766 1441.851,391.39581 C 1434.847,382.13314 1429.8473,367.0892 1428.6793,351.7621 C 1428.1351,344.61996 1428.2806,343.24497 1429.636,342.72032 C 1430.5151,342.38002 1431.8913,342.48324 1432.6942,342.94973 C 1436.5633,345.19763 1568.9104,472.74833 1585.9898,490.68981 C 1591.506,496.48427 1594.757,500.69361 1594.5525,501.77624 C 1593.8526,505.48119 1590.0431,504.06762 1578.0587,495.65578 z M 1602.1505,484.87338 C 1581.6519,468.51011 1506.6197,394.49422 1481.8268,366.17953 C 1464.8442,346.78447 1453.4502,331.58894 1448.7604,322.08057 C 1445.3974,315.26247 1445.0789,313.87782 1445.1325,306.31168 C 1445.2043,296.23594 1447.864,288.01812 1451.2112,287.53087 C 1452.9558,287.27693 1459.8018,295.13236 1487.5621,329.24215 C 1563.1848,422.16139 1607.2436,477.66286 1610.7848,484.46729 C 1613.6408,489.95517 1608.8017,490.18276 1602.1505,484.87338 z M 1700.8324,476.0332 C 1698.0374,474.80865 1697.5384,474.10233 1697.8066,471.74929 C 1698.1227,468.97537 1698.2467,470.51414 1705.8209,470.22382 C 1712.2681,469.97668 1713.6194,468.61884 1714.1646,470.05184 C 1715.1449,472.62875 1712.2887,476.1975 1708.6601,476.92953 C 1704.5912,477.75036 1704.8085,477.77523 1700.8324,476.0332 z "
           id="path5807"
           sodipodi:nodetypes="ccccsssscsssssccsssssssccssssssssccsssssccsssssssccsssssssccssssssccssssc" />
      </g>
    </g>
  </g>
</svg>
