<?xml version="1.0" encoding="UTF-8" standalone="no"?>
<!-- Created with Inkscape (http://www.inkscape.org/) -->

<svg
   xmlns:dc="http://purl.org/dc/elements/1.1/"
   xmlns:cc="http://creativecommons.org/ns#"
   xmlns:rdf="http://www.w3.org/1999/02/22-rdf-syntax-ns#"
   xmlns:svg="http://www.w3.org/2000/svg"
   xmlns="http://www.w3.org/2000/svg"
   xmlns:sodipodi="http://sodipodi.sourceforge.net/DTD/sodipodi-0.dtd"
   xmlns:inkscape="http://www.inkscape.org/namespaces/inkscape"
   width="78.913353"
   height="86.481003"
   id="svg8969"
   version="1.1"
   inkscape:version="0.48.4 r9939"
   sodipodi:docname="New document 9">
  <defs
     id="defs8971" />
  <sodipodi:namedview
     id="base"
     pagecolor="#ffffff"
     bordercolor="#666666"
     borderopacity="1.0"
     inkscape:pageopacity="0"
     inkscape:pageshadow="2"
     inkscape:zoom="3.959798"
     inkscape:cx="108.03871"
     inkscape:cy="-1.4481122"
     inkscape:document-units="px"
     inkscape:current-layer="layer1"
     showgrid="false"
     fit-margin-top="0"
     fit-margin-left="0"
     fit-margin-right="0"
     fit-margin-bottom="0"
     inkscape:window-width="1680"
     inkscape:window-height="987"
     inkscape:window-x="-8"
     inkscape:window-y="-8"
     inkscape:window-maximized="1" />
  <metadata
     id="metadata8974">
    <rdf:RDF>
      <cc:Work
         rdf:about="">
        <dc:format>image/svg+xml</dc:format>
        <dc:type
           rdf:resource="http://purl.org/dc/dcmitype/StillImage" />
        <dc:title></dc:title>
      </cc:Work>
    </rdf:RDF>
  </metadata>
  <g
     inkscape:label="Layer 1"
     inkscape:groupmode="layer"
     id="layer1"
     transform="translate(-0.29078757,0.03404967)">
    <path
       d="m 53.383738,0.79395033 0.7131,-0.828 c 1.1754,1.69350007 2.56875,4.44899997 4.34115,5.48849997 1.6143,0.948 4.7877,1.896 11.5482,1.9125 l 1.05585,0.003 4.15665,5.5469997 c -2.54115,4.38 -4.91835,10.0725 -4.91835,15.273 0,1.3755 0.2403,3.2655 0.9498,5.658 l 4.33545,1.2075 -0.978,1.9875 3.198,1.4415 -1.62,2.163 3.03855,2.301 -3.07545,2.3235 c 1.16595,3.069 2.6589,7.8765 2.6589,11.8125 0,13.7505 -11.1621,18.675 -32.4123,22.272 l 1.5036,5.217 -5.66025,-2.4435 -3.9609,4.317 -1.72965,-4.4205 -6.7179,2.0235 1.806,-4.953 c -20.2512,-3.576 -30.90885043,-8.5785 -30.90885043,-22.0125 0,-3.936 1.49295003,-8.7435 2.65785003,-11.8125 l -3.07440003,-2.3235 3.03810003,-2.301 -1.6179,-2.163 3.19695,-1.4415 -0.97905,-1.9875 4.3365,-1.2075 c 0.7089,-2.3925 0.9492,-4.2825 0.9492,-5.658 0,-5.2005 -2.38065,-10.893 -4.9167,-15.273 l 4.15665,-5.5469997 1.0542,-0.003 c 3.6462004,-0.009 10.7373004,-0.108 13.1496004,-3.33 0.9756,-1.3034999 1.8099,-2.7314999 2.74035,-4.07099997 4.0506,4.71149997 7.4373,7.87049997 14.0619,7.96649997 l 0.56085,-0.0165 c 5.96655,-0.063 9.5373,-2.6715 13.3623,-7.12199997"
       style="fill:#a7a5a6;fill-opacity:1;fill-rule:nonzero;stroke:none"
       id="path5329"
       inkscape:connector-curvature="0" />
    <path
       d="m 40.044838,10.25145 c 5.68305,-0.06 10.30365,-2.4644997 13.872,-6.6119997 1.5534,2.2425 2.28585,6.03 16.0635,6.063 l 2.69775,3.5999997 c 0,0 -4.50885,7.767 -4.50885,15.126 0,1.836 0.36675,4.3035 1.39095,7.371 l 2.99775,0.8355 -0.81735,1.6635 2.7873,1.2585 -1.3008,1.74 2.49255,1.8855 -2.14155,1.62 c 1.1625,2.76 3.0984,8.3115 3.0984,12.5175 0,12.2535 -9.80445,16.887 -32.98065,20.5875 l 0.9228,3.2085 -2.94135,-1.269 -2.6883,2.9265 -1.20465,-3.078 -4.55745,1.3725 1.23165,-3.378 c -22.2159,-3.6675 -31.6413004,-8.3535 -31.6413004,-20.37 0,-4.206 1.9371,-9.7575 3.09855,-12.5175 l -2.1411,-1.62 2.4909,-1.8855 -1.302,-1.74 2.7903,-1.2585 -0.8151,-1.6635 2.9941503,-0.8355 c 1.0260001,-3.0675 1.3903501,-5.535 1.3903501,-7.371 0,-7.359 -4.5075004,-15.126 -4.5075004,-15.126 l 2.6976,-3.5999997 c 13.7778004,-0.033 14.5090504,-3.8205 16.0641004,-6.063 3.56835,4.1475 8.1885,6.5519997 13.872,6.6284997 l 0.59535,-0.0165"
       style="fill:#231f20;fill-opacity:1;fill-rule:nonzero;stroke:none"
       id="path5331"
       inkscape:connector-curvature="0" />
    <path
       d="m 42.249088,68.79645 2.54715,-1.164 -0.0826,-6.477 -2.4123,-1.3665 -5.50845,3.423 0.18225,2.3865 5.274,3.198"
       style="fill:#ffffff;fill-opacity:1;fill-rule:nonzero;stroke:none"
       id="path5333"
       inkscape:connector-curvature="0" />
    <path
       d="m 31.892038,60.65295 0.20625,-6.444 -1.3617,-0.762 c -1.6758,2.004 -2.6877,4.5825 -2.6877,7.395 0,0.2445 0.01,0.486 0.0217,0.7275 l 2.7462,0.324 1.0752,-1.2405"
       style="fill:#ffffff;fill-opacity:1;fill-rule:nonzero;stroke:none"
       id="path5335"
       inkscape:connector-curvature="0" />
    <path
       d="m 36.636388,52.87995 -2.84115,1.1115 -0.2004,6.1965 2.274,1.623 5.35785,-3.3315 -0.20925,-3.1995 -4.38105,-2.4"
       style="fill:#ffffff;fill-opacity:1;fill-rule:nonzero;stroke:none"
       id="path5337"
       inkscape:connector-curvature="0" />
    <path
       d="m 31.967038,69.49995 0.6669,-2.5755 -2.1774,-3.387 -2.14635,-0.2505 c 0.5298,2.4495 1.8387,4.6095 3.65685,6.213"
       style="fill:#ffffff;fill-opacity:1;fill-rule:nonzero;stroke:none"
       id="path5339"
       inkscape:connector-curvature="0" />
    <path
       d="m 51.303088,60.84195 c 0,-0.429 -0.0229,-0.8475 -0.0679,-1.263 l -2.5131,-0.3045 -2.32155,1.758 0.0832,6.585 1.90305,0.885 c 1.8135,-2.0415 2.9163,-4.722 2.9163,-7.6605"
       style="fill:#ffffff;fill-opacity:1;fill-rule:nonzero;stroke:none"
       id="path5341"
       inkscape:connector-curvature="0" />
    <path
       d="m 45.789988,51.00195 c -1.7772,-1.095 -3.87135,-1.725 -6.1161,-1.725 -0.3093,0 -0.6204,0.012 -0.9252,0.036 l -0.7482,2.4 4.29135,2.3505 2.97315,0 0.525,-3.0615"
       style="fill:#ffffff;fill-opacity:1;fill-rule:nonzero;stroke:none"
       id="path5343"
       inkscape:connector-curvature="0" />
    <path
       d="m 50.913388,57.86445 c -0.60525,-2.265 -1.88325,-4.2555 -3.60525,-5.748 l -0.4482,2.628 1.90425,2.853 2.1492,0.267"
       style="fill:#ffffff;fill-opacity:1;fill-rule:nonzero;stroke:none"
       id="path5345"
       inkscape:connector-curvature="0" />
    <path
       d="m 41.369638,72.28545 0.10485,-1.9935 -5.4393,-3.3 -1.76355,0.342 -0.83325,3.2685 c 1.8024,1.143 3.94275,1.806 6.2355,1.806 0.5784,0 1.14435,-0.0435 1.69575,-0.123"
       style="fill:#ffffff;fill-opacity:1;fill-rule:nonzero;stroke:none"
       id="path5347"
       inkscape:connector-curvature="0" />
    <path
       d="m 21.979138,20.27445 c 0.3915,0 0.70845,-0.3135 0.70845,-0.702 0,-0.3885 -0.31695,-0.7035 -0.70845,-0.7035 -0.38955,0 -0.7065,0.315 -0.7065,0.7035 0,0.3885 0.31695,0.702 0.7065,0.702"
       style="fill:#ffffff;fill-opacity:1;fill-rule:nonzero;stroke:none"
       id="path5349"
       inkscape:connector-curvature="0" />
    <path
       d="m 20.434738,15.77145 c -0.3891,0 -0.70725,0.315 -0.70725,0.705 0,0.3675 0.2865,0.669 0.6486,0.699 0.11535,-0.3855 0.3873,-0.7035 0.74175,-0.879 -0.0784,-0.3015 -0.35445,-0.525 -0.6831,-0.525"
       style="fill:#ffffff;fill-opacity:1;fill-rule:nonzero;stroke:none"
       id="path5351"
       inkscape:connector-curvature="0" />
    <path
       d="m 34.019038,20.54745 c 0,0.3885 0.3147,0.702 0.70545,0.702 0.3915,0 0.70665,-0.3135 0.70665,-0.702 0,-0.3885 -0.31515,-0.7035 -0.70665,-0.7035 -0.39075,0 -0.70545,0.315 -0.70545,0.7035"
       style="fill:#ffffff;fill-opacity:1;fill-rule:nonzero;stroke:none"
       id="path5353"
       inkscape:connector-curvature="0" />
    <path
       d="m 18.966838,30.72645 4.43505,0 c -0.0329,-1.554 -0.3867,-5.2185 -2.29215,-5.2185 -1.851,0 -2.11125,3.189 -2.1429,5.2185"
       style="fill:#ffffff;fill-opacity:1;fill-rule:nonzero;stroke:none"
       id="path5355"
       inkscape:connector-curvature="0" />
    <path
       d="m 34.370038,17.30595 c -0.39255,0 -0.70725,0.315 -0.70725,0.7035 0,0.3885 0.3147,0.7035 0.70725,0.7035 0.3897,0 0.70545,-0.315 0.70545,-0.7035 0,-0.3885 -0.31575,-0.7035 -0.70545,-0.7035"
       style="fill:#ffffff;fill-opacity:1;fill-rule:nonzero;stroke:none"
       id="path5357"
       inkscape:connector-curvature="0" />
    <path
       d="m 19.116388,17.63895 c 0,-0.3885 -0.3159,-0.7035 -0.7056,-0.7035 -0.38955,0 -0.70605,0.315 -0.70605,0.7035 0,0.3885 0.3165,0.7035 0.70605,0.7035 0.3897,0 0.7056,-0.315 0.7056,-0.7035"
       style="fill:#ffffff;fill-opacity:1;fill-rule:nonzero;stroke:none"
       id="path5359"
       inkscape:connector-curvature="0" />
    <path
       d="m 23.403088,31.14495 -4.4397,0 c -0.002,0.294 0,0.5505 0,0.7515 0,0.969 0.0375,1.5675 0.0726,1.923 l 4.3671,0 0,-2.6745"
       style="fill:#ffffff;fill-opacity:1;fill-rule:nonzero;stroke:none"
       id="path5361"
       inkscape:connector-curvature="0" />
    <path
       d="m 17.349088,20.17845 c 0,0.3885 0.3159,0.702 0.70605,0.702 0.3921,0 0.70665,-0.3135 0.70665,-0.702 0,-0.3885 -0.31455,-0.705 -0.70665,-0.705 -0.39015,0 -0.70605,0.3165 -0.70605,0.705"
       style="fill:#ffffff;fill-opacity:1;fill-rule:nonzero;stroke:none"
       id="path5363"
       inkscape:connector-curvature="0" />
    <path
       d="m 20.142838,21.64095 c 0.3897,0 0.70845,-0.315 0.70845,-0.7035 0,-0.39 -0.31875,-0.7035 -0.70845,-0.7035 -0.39075,0 -0.70725,0.3135 -0.70725,0.7035 0,0.3885 0.3165,0.7035 0.70725,0.7035"
       style="fill:#ffffff;fill-opacity:1;fill-rule:nonzero;stroke:none"
       id="path5365"
       inkscape:connector-curvature="0" />
    <path
       d="m 19.418638,19.68945 c 0.2127,-0.123 0.45945,-0.1935 0.7242,-0.1935 0.13365,0 0.2637,0.018 0.3885,0.0525 0.005,-0.324 0.11655,-0.624 0.30525,-0.8625 -0.2373,-0.1965 -0.4083,-0.468 -0.48105,-0.7755 -0.18105,-0.0105 -0.3498,-0.0525 -0.50565,-0.1215 -0.0591,0.5625 -0.44295,1.0305 -0.9615,1.2105 0.2403,0.1695 0.4272,0.4095 0.53025,0.69"
       style="fill:#ffffff;fill-opacity:1;fill-rule:nonzero;stroke:none"
       id="path5367"
       inkscape:connector-curvature="0" />
    <path
       d="m 21.765988,18.28395 c 0.39075,0 0.7077,-0.315 0.7077,-0.7035 0,-0.3885 -0.31695,-0.702 -0.7077,-0.702 -0.3927,0 -0.70845,0.3135 -0.70845,0.702 0,0.3885 0.31575,0.7035 0.70845,0.7035"
       style="fill:#ffffff;fill-opacity:1;fill-rule:nonzero;stroke:none"
       id="path5369"
       inkscape:connector-curvature="0" />
    <path
       d="m 32.929138,18.15795 c -0.15645,0.0705 -0.3252,0.111 -0.50625,0.1215 -0.072,0.309 -0.2442,0.579 -0.47985,0.7755 0.1869,0.2385 0.3,0.5385 0.30585,0.8625 0.12195,-0.0345 0.2532,-0.0525 0.38505,-0.0525 0.26595,0 0.51375,0.072 0.72645,0.195 0.1032,-0.282 0.2907,-0.522 0.53205,-0.6915 -0.51975,-0.1785 -0.90585,-0.648 -0.9633,-1.2105"
       style="fill:#ffffff;fill-opacity:1;fill-rule:nonzero;stroke:none"
       id="path5371"
       inkscape:connector-curvature="0" />
    <path
       d="m 29.467438,33.81945 4.78065,0 0.0187,-1.887 c 0,-0.2055 0.002,-0.477 0,-0.7875 l -4.7373,0 -0.0621,2.6745"
       style="fill:#ffffff;fill-opacity:1;fill-rule:nonzero;stroke:none"
       id="path5373"
       inkscape:connector-curvature="0" />
    <path
       d="m 26.391838,22.58295 c -1.8,0 -2.2746,3.351 -2.32665,4.7805 l -0.0304,1.083 c 0.147,0.8355 0.20145,1.656 0.2115,2.2785 l 4.4478,0 c 0.006,-0.384 0.0363,-0.8175 0.0943,-1.272 -0.0996,-2.067 -0.57885,-6.87 -2.39655,-6.87"
       style="fill:#ffffff;fill-opacity:1;fill-rule:nonzero;stroke:none"
       id="path5375"
       inkscape:connector-curvature="0" />
    <path
       d="m 28.685188,31.14495 -4.43775,0 0,2.6745 4.37565,0 0.0621,-2.6745"
       style="fill:#ffffff;fill-opacity:1;fill-rule:nonzero;stroke:none"
       id="path5377"
       inkscape:connector-curvature="0" />
    <path
       d="m 26.105338,9.2149503 c -3.2466,3.5504997 -9.75705,3.9944997 -14.48085,4.1654997 0,0 3.49575,8.118 3.49575,14.5935 0,2.0475 -0.2913,3.984 -0.7629,5.847 l 3.8349,0 c -0.0363,-0.402 -0.0708,-1.0155 -0.0708,-1.9245 0,-2.1015 -0.10905,-7.2285 2.9883,-7.2285 0.11655,0 0.22845,0.009 0.3363,0.024 l -0.24375,-0.5295 -2.15625,-0.3705 0.0557,-0.795 2.0262,-0.147 -0.1653,-0.726 c -0.23325,0.159 -0.5139,0.2535 -0.81975,0.2535 -0.6258,0 -1.1613,-0.3975 -1.3617,-0.954 -0.2127,0.123 -0.4599,0.195 -0.726,0.195 -0.798,0 -1.4466,-0.645 -1.4466,-1.44 0,-0.63 0.40545,-1.1655 0.97035,-1.3605 -0.37275,-0.2625 -0.6147,-0.6915 -0.6147,-1.179 0,-0.795 0.6474,-1.4385 1.4466,-1.4385 0.20865,0 0.40665,0.0435 0.58545,0.1215 0.0766,-0.7245 0.69135,-1.29 1.4385,-1.29 0.68835,0 1.2627,0.4755 1.4109,1.113 0.7629,0.0405 1.36755,0.669 1.36755,1.437 0,0.333 -0.1137,0.6405 -0.30585,0.885 0.31815,0.2625 0.52095,0.6615 0.52095,1.104 0,0.675 -0.4677,1.242 -1.09635,1.398 l 0.9726,1.2315 0.59535,-1.4235 0.78225,0.111 -0.22845,2.2155 c 0.4482,-0.615 1.0698,-1.359 1.93815,-1.359 0.84675,0 1.4679,0.8355 1.9254,1.6455 l -0.21735,-2.133 0.78105,-0.111 0.59655,1.425 0.9726,-1.233 c -0.63045,-0.156 -1.0968,-0.723 -1.0968,-1.3965 0,-0.444 0.20145,-0.843 0.5202,-1.107 -0.19215,-0.243 -0.30645,-0.5505 -0.30645,-0.8835 0,-0.768 0.6042,-1.3965 1.3677,-1.437 0.1494,-0.6375 0.7218,-1.1115 1.4103,-1.1115 0.7482,0 1.3629,0.564 1.4397,1.2885 0.17805,-0.078 0.37605,-0.1215 0.5853,-0.1215 0.7992,0 1.4478,0.645 1.4478,1.44 0,0.486 -0.24435,0.918 -0.61455,1.1775 0.56355,0.1965 0.96915,0.7305 0.96915,1.3605 0,0.795 -0.64755,1.44 -1.44795,1.44 -0.26475,0 -0.5127,-0.072 -0.7236,-0.1935 -0.2016,0.5535 -0.7365,0.9525 -1.36695,0.9525 -0.3012,0 -0.58425,-0.093 -0.8175,-0.252 l -0.16395,0.7245 2.0262,0.147 0.0557,0.7965 -2.15565,0.369 -0.2262,0.4905 c 0.2577,-0.0855 0.5385,-0.132 0.84195,-0.132 2.99655,0 2.91615,5.001 2.91615,7.044 l -0.008,1.887 2.3367,0 c 0,0 0,-15.4425 0,-20.0205 -4.2393,-0.3735 -8.04435,-1.668 -11.33385,-4.5854997"
       style="fill:#ffffff;fill-opacity:1;fill-rule:nonzero;stroke:none"
       id="path5379"
       inkscape:connector-curvature="0" />
    <path
       d="m 34.259338,30.72645 c -0.0387,-1.9695 -0.3147,-4.9965 -2.0649,-4.9965 -2.1135,0 -2.6226,3.3465 -2.65665,4.9965 l 4.72155,0"
       style="fill:#ffffff;fill-opacity:1;fill-rule:nonzero;stroke:none"
       id="path5381"
       inkscape:connector-curvature="0" />
    <path
       d="m 31.929538,21.30645 c 0,0.3885 0.3171,0.7035 0.7044,0.7035 0.39375,0 0.7095,-0.315 0.7095,-0.7035 0,-0.3885 -0.31575,-0.7035 -0.7095,-0.7035 -0.3873,0 -0.7044,0.315 -0.7044,0.7035"
       style="fill:#ffffff;fill-opacity:1;fill-rule:nonzero;stroke:none"
       id="path5383"
       inkscape:connector-curvature="0" />
    <path
       d="m 32.341438,16.13745 c -0.32685,0 -0.60225,0.2235 -0.6825,0.5235 0.35565,0.177 0.62925,0.495 0.74355,0.8805 0.3627,-0.0285 0.6468,-0.3315 0.6468,-0.7005 0,-0.3885 -0.31575,-0.7035 -0.70785,-0.7035"
       style="fill:#ffffff;fill-opacity:1;fill-rule:nonzero;stroke:none"
       id="path5385"
       inkscape:connector-curvature="0" />
    <path
       d="m 30.093238,19.94145 c 0,0.387 0.3159,0.7035 0.70785,0.7035 0.3903,0 0.70485,-0.3165 0.70485,-0.7035 0,-0.39 -0.31455,-0.7035 -0.70485,-0.7035 -0.39195,0 -0.70785,0.3135 -0.70785,0.7035"
       style="fill:#ffffff;fill-opacity:1;fill-rule:nonzero;stroke:none"
       id="path5387"
       inkscape:connector-curvature="0" />
    <path
       d="m 31.013788,17.24745 c -0.3909,0 -0.70845,0.3135 -0.70845,0.702 0,0.231 0.1131,0.4365 0.2871,0.5655 l 0.20625,-0.015 c 0.1788,0 0.3498,0.0315 0.50805,0.0915 0.24375,-0.111 0.4143,-0.3555 0.4143,-0.642 0,-0.3885 -0.31755,-0.702 -0.70725,-0.702"
       style="fill:#ffffff;fill-opacity:1;fill-rule:nonzero;stroke:none"
       id="path5389"
       inkscape:connector-curvature="0" />
    <path
       d="m 65.787388,33.96795 c -0.49455,-1.9065 -0.8004,-3.8925 -0.8004,-5.9955 0,-6.474 3.49575,-14.592 3.49575,-14.592 -2.0988,-0.0765 -4.5498,-0.207 -6.91005,-0.6405 l 0,21.228 4.2147,0"
       style="fill:#33b65b;fill-opacity:1;fill-rule:nonzero;stroke:none"
       id="path5391"
       inkscape:connector-curvature="0" />
    <path
       d="m 73.547638,57.17895 c 0,-3.276 -0.88665,-6.312 -2.0877,-9.2955 l -7.54515,0 0,21.621 c 5.6091,-2.3325 9.63285,-5.8695 9.63285,-12.3255"
       style="fill:#33b65b;fill-opacity:1;fill-rule:nonzero;stroke:none"
       id="path5393"
       inkscape:connector-curvature="0" />
    <path
       d="m 66.557938,36.48495 -53.00805,0 c -1.06875,3.075 -2.52015,5.979 -3.8250004,8.8815 l 60.6574504,0 c -1.30425,-2.9025 -2.75565,-5.8065 -3.8244,-8.8815"
       style="fill:#33b65b;fill-opacity:1;fill-rule:nonzero;stroke:none"
       id="path5395"
       inkscape:connector-curvature="0" />
    <path
       d="m 8.6438376,47.89095 c -1.2,2.982 -2.0841,6.0165 -2.0841,9.288 0,6.0195 3.4992004,9.4995 8.5183504,11.835 l 0,-21.123 -6.4342504,0"
       style="fill:#33b65b;fill-opacity:1;fill-rule:nonzero;stroke:none"
       id="path5397"
       inkscape:connector-curvature="0" />
    <path
       d="m 56.142238,33.96795 0,-23.064 c -0.80685,-0.4665 -1.53045,-1.0244997 -2.13915,-1.6889997 -0.65565,0.5805 -1.33365,1.0919997 -2.0298,1.5509997 l 0,23.202 4.16895,0"
       style="fill:#33b65b;fill-opacity:1;fill-rule:nonzero;stroke:none"
       id="path5399"
       inkscape:connector-curvature="0" />
    <path
       d="m 46.740988,33.96795 0,-20.8665 c -1.33605,0.36 -2.727,0.585 -4.1661,0.7065 l 0,20.16 4.1661,0"
       style="fill:#33b65b;fill-opacity:1;fill-rule:nonzero;stroke:none"
       id="path5401"
       inkscape:connector-curvature="0" />
    <path
       d="m 25.674088,47.88195 0,24.4725 c 2.8278,0.6615 5.71755,1.26 8.48325,1.932 l 0.498,-2.1225 c -4.36935,-1.92 -7.4202,-6.2655 -7.4202,-11.322 0,-6.8355 5.5704,-12.375 12.43875,-12.375 6.87135,0 12.44295,5.5395 12.44295,12.375 0,5.4075 -3.49095,10.0035 -8.35185,11.6865 l 0.6474,2.145 c 2.84355,-0.7365 5.8641,-1.371 8.84775,-2.049 l 0,-24.7425 -27.58605,0"
       style="fill:#33b65b;fill-opacity:1;fill-rule:nonzero;stroke:none"
       id="path5403"
       inkscape:connector-curvature="0" />
    <path
       d="m 20.731738,38.10045 -1.3101,0 0,3.855 -0.4911,0 c -0.25485,0 -0.96555,0 -0.96555,-0.9435 0,-1.047 0.65445,-2.2725 0.94275,-2.9115 l -1.4139,0 c -0.4641,0.9195 -0.86835,1.8885 -0.86835,2.931 0,1.149 0.51975,2.0445 1.98345,2.0445 l 2.1228,0 0,-4.9755 z m 0.75345,3.855 1.1016,0 0,1.122 -1.1016,0 0,-1.122 z m 4.3812,-3.855 -1.40805,0 c -1.09515,0 -1.34595,0.7065 -1.34595,1.152 0,0.492 0.30525,0.846 0.6111,1.1925 l 0.8883,0.999 c 0.0921,0.0975 0.2133,0.207 0.2133,0.3465 0,0.1965 -0.35445,0.165 -0.48345,0.165 l -1.18875,0 0.30705,1.1205 1.5246,0 c 1.098,0 1.3458,-0.7065 1.3458,-1.1505 0,-0.4935 -0.30525,-0.846 -0.61575,-1.188 l -0.9123,-1.0035 c -0.0926,-0.099 -0.21735,-0.2085 -0.21735,-0.3495 0,-0.1935 0.3579,-0.162 0.4857,-0.162 l 1.1016,0 -0.30585,-1.122 z m 0.88065,3.855 1.10145,0 0,1.122 -1.10145,0 0,-1.122 z m 6.525,-3.855 -1.40805,0 c -1.098,0 -1.34715,0.7065 -1.34715,1.152 0,0.492 0.3054,0.846 0.61125,1.1925 l 0.8877,0.999 c 0.0925,0.0975 0.21495,0.207 0.21495,0.3465 0,0.1965 -0.35445,0.165 -0.4845,0.165 l -1.1865,0 0.30465,1.1205 1.5246,0 c 1.0968,0 1.3482,-0.7065 1.3482,-1.1505 0,-0.4935 -0.30645,-0.846 -0.61995,-1.188 l -0.9117,-1.0035 c -0.0914,-0.099 -0.2127,-0.2085 -0.2127,-0.3495 0,-0.1935 0.3534,-0.162 0.48225,-0.162 l 1.1016,0 -0.30465,-1.122 z m 4.7478,1.479 -1.30965,0 0,0.798 -1.30305,0 c 0.1653,-0.426 0.40305,-1.155 1.80465,-1.155 l 1.029,0 -0.30585,-1.122 -0.6429,0 c -0.94215,0 -1.7571,0.1155 -2.45445,0.8175 -0.6258,0.6195 -0.9012,1.521 -0.9012,2.3865 0,0.876 0.29595,1.7475 0.7782,2.472 l 1.06515,-0.7005 c -0.2877,-0.4755 -0.495,-1.0185 -0.50145,-1.5765 l 1.4319,0 0,1.5765 1.30965,0 0,-3.4965 z m 3.33045,-1.479 -1.4103,0 c -1.09395,0 -1.34595,0.7065 -1.34595,1.152 0,0.492 0.30645,0.846 0.6135,1.1925 l 0.8883,0.999 c 0.0919,0.0975 0.2139,0.207 0.2139,0.3465 0,0.1965 -0.3552,0.165 -0.48345,0.165 l -1.1883,0 0.30465,1.1205 1.527,0 c 1.09455,0 1.347,-0.7065 1.347,-1.1505 0,-0.4935 -0.3081,-0.846 -0.6192,-1.188 l -0.9123,-1.0035 c -0.0937,-0.099 -0.2139,-0.2085 -0.2139,-0.3495 0,-0.1935 0.35505,-0.162 0.4833,-0.162 l 1.1016,0 -0.30585,-1.122 z m 3.4278,0 -1.40805,0 c -1.0974,0 -1.3506,0.7065 -1.3506,1.152 0,0.492 0.30885,0.846 0.6147,1.1925 l 0.8883,0.999 c 0.0907,0.0975 0.21435,0.207 0.21435,0.3465 0,0.1965 -0.35565,0.165 -0.4833,0.165 l -1.1889,0 0.30585,1.1205 1.527,0 c 1.09335,0 1.3446,-0.7065 1.3446,-1.1505 0,-0.4935 -0.30465,-0.846 -0.61815,-1.188 l -0.9111,-1.0035 c -0.0937,-0.099 -0.21615,-0.2085 -0.21615,-0.3495 0,-0.1935 0.35565,-0.162 0.4833,-0.162 l 1.1028,0 -0.30465,-1.122 z m 4.77945,0 -1.30905,0 0,3.855 -0.49215,0 c -0.25605,0 -0.96675,0 -0.96675,-0.9435 0,-1.047 0.65685,-2.2725 0.94395,-2.9115 l -1.4139,0 c -0.4653,0.9195 -0.87015,1.8885 -0.87015,2.931 0,1.149 0.51975,2.0445 1.98405,2.0445 l 2.124,0 0,-4.9755 z m 2.83245,5.0865 c 1.54275,0 2.27985,-1.896 2.27985,-3.2175 0,-1.077 -0.52215,-1.9785 -2.27985,-1.9785 -1.75605,0 -2.2758,0.9015 -2.2758,1.9785 0,1.3215 0.7347,3.2175 2.2758,3.2175 z m 0,-1.176 c -0.49395,0 -0.9123,-1.0785 -0.9123,-1.98 0,-0.663 0.2712,-0.876 0.9123,-0.876 0.64395,0 0.9135,0.213 0.9135,0.876 0,0.9015 -0.4167,1.98 -0.9135,1.98 z m 4.1871,-3.9105 -1.30845,0 0,4.9755 2.7246,0 0.30465,-1.1205 -1.7208,0 0,-3.855 z m 4.01535,5.0865 c 1.54275,0 2.2776,-1.896 2.2776,-3.2175 0,-1.077 -0.51975,-1.9785 -2.2776,-1.9785 -1.7577,0 -2.27745,0.9015 -2.27745,1.9785 0,1.3215 0.7335,3.2175 2.27745,3.2175 z m 0,-1.176 c -0.4968,0 -0.9111,-1.0785 -0.9111,-1.98 0,-0.663 0.26895,-0.876 0.9111,-0.876 0.64275,0 0.9123,0.213 0.9123,0.876 0,0.9015 -0.41535,1.98 -0.9123,1.98"
       style="fill:#ffffff;fill-opacity:1;fill-rule:nonzero;stroke:none"
       id="path5405"
       inkscape:connector-curvature="0" />
  </g>
</svg>
