<?xml version="1.0" encoding="utf-8"?>
<!-- Generator: Adobe Illustrator 17.0.0, SVG Export Plug-In . SVG Version: 6.00 Build 0)  -->
<!DOCTYPE svg PUBLIC "-//W3C//DTD SVG 1.1//EN" "http://www.w3.org/Graphics/SVG/1.1/DTD/svg11.dtd">
<svg version="1.1" id="Layer_1" xmlns="http://www.w3.org/2000/svg" xmlns:xlink="http://www.w3.org/1999/xlink" x="0px" y="0px"
	 width="451.367px" height="568.598px" viewBox="0 0 451.367 568.598" enable-background="new 0 0 451.367 568.598"
	 xml:space="preserve">
<g>
	<path fill="#FFFFFF" d="M407.222,126.465c-30.095-51.86-64.054-79.735-87.241-93.995c-9.169-5.647-16.064-8.894-19.377-10.457
		l-1.261-0.604c-2.716-1.362-5.413-2.046-8.002-2.046c-4.916,0-8.485,2.428-10.356,4.89c-7.224,8.216-14.199,12.556-20.189,12.556
		c-3.448,0-6.211-1.429-8.076-2.824c1.107-3.058,2.435-7.217,3.26-11.469c0.959-5.554-0.865-9.129-2.569-11.154
		c-3.977-4.722-10.114-4.722-12.737-4.722c-3.837,0-7.505,2.274-10.467,4.916L226.956,11c-0.845-0.148-1.704-0.148-2.549,0
		l-3.25,0.557c-2.961-2.643-6.627-4.916-10.463-4.916c-2.68,0-8.951,0-12.918,4.836c-1.687,2.059-3.464,5.674-2.364,11.188
		c0.808,4.165,2.073,8.27,3.115,11.288c-1.848,1.409-4.591,2.857-8.025,2.857c-5.959,0-12.932-4.36-20.169-12.61
		c-1.895-2.415-5.51-4.836-10.4-4.836c-2.612,0-5.305,0.698-7.928,2.052l-1.365,0.637c-3.092,1.435-9.524,4.42-17.798,9.578
		c-23.666,14.34-58.266,42.437-88.683,94.813c-24.619,42.108-30.015,83.116-30.206,110.159l0.003,5.782
		c0.208,13.871,1.486,24.642,2.529,31.296c11.07,66.972,39.539,131.998,84.591,193.221c0.687,0.952,73.924,95.055,124.603,95.055
		c54.821,0,121.78-91.158,124.576-95.008c44.918-61.036,73.323-126.062,84.397-193.107c1.576-8.404,2.582-19.867,2.757-31.571
		v-5.775C437.023,209.4,431.476,168.311,407.222,126.465z"/>
	<path fill="#FFDF1C" d="M226.809,550.687c38.51,1.511,111.869-79.568,151.024-154.04c31.147-59.238,41.504-99.225,43.043-166.128
		L29.72,229.757c2.898,75.969,16.806,121.766,56.635,186.519C126.074,480.858,171.678,545.398,226.809,550.687"/>
	<path d="M225.686,554.44c-42.171,0-108.394-77.968-118.524-91.938c-63.812-86.718-78.6-161.876-83.263-190.043
		c-1.01-6.484-2.232-17.019-2.431-30.186v-5.673c0.199-27.96,6.078-66.855,29.176-106.361
		c30.591-52.679,65.028-79.417,86.093-92.185c9.732-6.078,16.621-8.915,18.64-9.925c6.291-3.242,9.121,0.81,9.121,0.81
		c26.134,29.98,42.748,6.882,42.748,6.882s-3.043-7.287-4.45-14.581c-1.422-7.095,5.055-7.095,7.898-7.095
		c3.036,0,7.905,5.481,7.905,5.481l7.088-1.223l7.088,1.223c0,0,4.863-5.481,7.905-5.481c2.837,0,9.121,0,7.898,7.095
		c-1.415,7.294-4.663,14.581-4.663,14.581s16.82,23.098,42.961-6.882c0,0,2.63-4.052,9.107-0.81
		c2.026,1.01,9.526,4.251,20.062,10.735c21.072,12.974,54.698,39.712,84.678,91.374c22.898,39.506,28.771,78.201,29.176,106.361
		v5.673c-0.199,13.166-1.415,23.702-2.63,30.186c-4.656,28.166-19.245,103.325-83.064,190.043
		C334.479,475.868,273.558,554.44,225.686,554.44 M316.044,58.523c-5.268-7.5-11.951-15.399-20.261-23.304l-0.811,1.621
		c0,0,10.536,10.536,21.072,26.339c10.735,16.01,21.271,37.274,20.866,58.551C336.91,121.731,340.351,93.365,316.044,58.523
		 M136.737,63.18c10.543-15.804,21.078-26.339,21.078-26.339l-1.017-1.621c-8.304,7.905-14.787,15.804-20.062,23.304
		c-24.506,34.842-21.065,63.208-21.065,63.208C115.267,100.453,126.002,79.189,136.737,63.18 M417.749,233.359h-40.117v156.238
		C410.365,320.009,422.22,253.593,417.749,233.359 M49.421,190.406h352.523c-3.448-6.484-7.301-12.96-11.545-19.65
		c-30.392-45.989-56.525-39.3-56.525-39.3c-5.879-4.258-11.758-6.889-17.83-8.311c-26.539-5.872-52.679,13.984-55.309,40.522
		c0,0,3.64,4.863,0.398,7.699c-3.235,2.63-4.451,0.405-4.451,0.405l-8.709-8.716c-15.199,0-22.493,18.846-22.493,18.846
		s-6.882-18.846-22.287-18.846l-8.503,8.716c0,0-1.422,2.225-4.457-0.405c-3.249-2.837,0.398-7.699,0.398-7.699
		c-2.624-26.14-27.954-45.79-53.895-40.721c-6.484,1.209-12.96,4.045-19.238,8.51c0,0-26.339-6.69-56.525,39.3
		C56.516,177.446,52.869,184.128,49.421,190.406 M76.173,393.271V233.359h-42.15C27.793,273.689,47.574,335.702,76.173,393.271
		 M162.273,508.458V233.359H119.12v228.443C132.575,479.035,147.348,495.106,162.273,508.458 M248.379,538.554V385.661
		c20.728-8.688,35.371-29.245,35.371-53.228c0-24.148-14.643-44.739-35.371-53.435v-45.639h-43.16v45.179
		c-21.422,8.42-36.58,29.313-36.58,53.895c0,24.416,15.151,45.275,36.58,53.689v152.103c6.985,3.228,13.695,5.398,20.041,6.326
		C232.314,544.55,240.117,542.414,248.379,538.554 M291.525,233.359V507.51c14.835-13.805,29.602-30.385,42.954-47.809V233.359
		H291.525z"/>
	<path fill="#EE3524" d="M377.636,233.359v156.245c0,0-3.547,7.707-5.909,12.117c-12.287,21.298-24.842,41.601-37.225,57.94
		c-0.006,0.008-0.012,0.014-0.018,0.022V233.359H377.636z M248.383,233.359v45.639c20.728,8.695,35.357,29.279,35.357,53.428
		c0,23.998-14.629,44.547-35.357,53.236v152.678c12.406-5.891,27.021-15.946,42.971-30.669c0.057-0.053,0.117-0.116,0.175-0.169
		V233.359H248.383z M162.27,233.359v274.948c1.748,1.59,3.5,3.284,5.245,4.788c13.511,11.648,26.014,19.781,37.709,25.041V386.115
		c-21.436-8.407-36.58-29.265-36.58-53.689c0-24.581,15.158-45.467,36.58-53.881v-45.186H162.27z M76.164,233.359v159.654
		c0.097,0.189,0.182,0.374,0.279,0.562c4.663,9.059,9.684,18.421,15.611,28.07c8.257,13.433,17.196,27.147,27.063,40.063V233.359
		H76.164z"/>
	<path fill="#B23428" d="M226.288,270.354c-34.19,0-61.875,27.693-61.875,62.075c0,34.19,27.685,61.882,61.875,61.882
		c33.99,0,61.676-27.699,61.676-61.882C287.964,298.046,260.292,270.354,226.288,270.354z"/>
	<path fill="#D18816" d="M238.524,386.35c-4.458-2.054-8.091-5.44-10.076-10.611c2.04-0.639,4.018-1.532,5.859-2.624
		c12.212-7.212,13.441-21.463,7.397-33.118c-0.206-0.405-0.46-0.838-0.707-1.243c7.012-21.875-5.089-31.559-8.805-33.936
		c2.301-7.631,8.359-11.69,17.418-10.433c13.331,8.97,16.971,30.193,16.82,44.52C266.23,373.864,244.355,383.844,238.524,386.35
		 M179.672,366.371c5.975,8.201,14.066,14.76,23.462,18.881c-2.28-3.324-4.32-7.246-5.027-10.749
		C193.168,369.077,187.152,365.107,179.672,366.371 M168.661,334.174c0.323,10.934,3.729,21.085,9.32,29.671
		c8.31-1.923,16.058,1.889,21.683,8.104c3.056-2.452,12.026-7.486,27.246,1.312c15.488-4.313,18.936-19.162,12.301-31.971
		l-0.391-0.687C232.864,342.416,203.489,349.943,168.661,334.174 M177.782,301.094c-5.557,8.668-8.881,18.929-9.128,29.98
		c19.011,8.874,36.429,10.563,49.169,10c9.746-0.426,17.335-2.37,20.529-3.331c3.482-11.065,2.733-24.114-7.823-30.646
		c-7.617,3.462-16.559,4.677-23.661-0.364c-10.659,5.082-21.237,3.729-28.682-5.137L177.782,301.094z M224.197,274.608
		c-18.441,0.659-34.671,9.959-44.746,24.025c0.234,0.337,0.536,0.728,0.893,1.154c6.861,8.173,15.749,8.668,25.186,4.437
		C205.261,300.46,206.017,288.187,224.197,274.608 M259.817,285.431c-8.757-6.339-19.348-10.261-30.804-10.797
		c-8.881,6.058-20.124,16.257-20.694,27.816c-0.041,0.817-0.007,1.442,0.034,1.841c0.33,0.247,0.68,0.501,1.01,0.694
		c6.181,3.681,13.716,2.562,19.986-0.474c2.548-8.901,9.842-14.506,19.705-13.29l0.776-0.735
		C252.639,287.896,256.094,286.008,259.817,285.431 M242.447,387.764c23.826-7.005,41.292-29.121,41.292-55.337
		c0-17.83-7.974-33.723-20.502-44.314c-4.265-0.385-8.324,1.532-11.415,4.389c4.602,3.359,17.754,15.68,17.411,46.422
		c-0.186,32.576-18.517,44.636-26.958,48.792L242.447,387.764z M226.288,390.081c3.839,0,7.589-0.378,11.222-1.106
		c-5.192-2.342-9.409-6.291-11.545-11.813c-0.227-0.604-0.385-1.106-0.488-1.463c-7.995-4.526-17.438-7.17-24.416-1.106
		c0.206,0.749,0.529,1.765,1.03,2.981c1.051,2.562,2.898,5.989,6.051,9.595C213.857,389.065,219.949,390.081,226.288,390.081"/>
	<path fill="#0097D7" d="M49.425,190.405h352.517c0,0,13.482,26.237,15.797,42.954H34.081
		C34.081,233.359,38.951,206.628,49.425,190.405"/>
	<path fill="#FFFFFF" d="M388.851,221.285h6.69v5.673h-6.69V221.285z M371.428,215.004h14.382v-4.87h-14.382v-6.477h16.614v-5.069
		h-23.297v28.366h6.683V215.004z M349.957,226.958h6.69v-5.673h-6.69V226.958z M328.075,227.763c3.647,0,6.683-1.01,9.114-2.837
		c2.431-2.026,3.853-4.457,4.457-7.493h-6.683c-0.405,1.415-1.01,2.431-1.82,3.242c-1.01,1.422-2.843,2.026-5.268,2.026
		c-2.232,0-4.059-0.81-5.481-2.431c-1.614-1.621-2.225-3.846-2.225-7.095c0-3.242,0.611-5.673,2.033-7.493
		c1.415-1.628,3.441-2.637,5.673-2.637c2.424,0,4.258,0.611,5.46,1.827c0.618,0.81,1.222,1.82,1.628,3.242h6.683
		c0-1.82-0.811-3.647-2.225-5.268c-2.431-3.242-6.278-4.863-11.751-4.863c-4.052,0-7.294,1.216-9.925,3.647
		c-3.043,2.63-4.67,6.484-4.67,11.346c0,4.663,1.429,8.304,4.059,10.941C319.765,226.547,323.412,227.763,328.075,227.763
		 M252.106,226.958h6.683v-28.366h-6.683V226.958z M230.217,227.763c3.647,0,6.683-1.01,9.121-2.837
		c2.438-2.026,3.853-4.457,4.458-7.493h-6.683c-0.405,1.415-1.017,2.431-1.628,3.242c-1.216,1.422-3.043,2.026-5.467,2.026
		c-2.225,0-4.045-0.81-5.467-2.431c-1.621-1.621-2.232-3.846-2.232-7.095c0-3.242,0.611-5.673,2.026-7.493
		c1.415-1.628,3.448-2.637,5.673-2.637c2.424,0,4.252,0.611,5.467,1.827c0.611,0.81,1.222,1.82,1.628,3.242h6.683
		c0-1.82-0.811-3.647-2.232-5.268c-2.431-3.242-6.284-4.863-11.751-4.863c-4.052,0-7.287,1.216-9.925,3.647
		c-3.036,2.63-4.656,6.484-4.656,11.346c0,4.663,1.422,8.304,4.052,10.941C221.913,226.547,225.56,227.763,230.217,227.763
		 M187.264,206.69l13.379,20.268h6.889v-28.366h-6.284v19.856l-13.166-19.856h-7.088v28.366h6.271V206.69z M173.288,221.891h-17.624
		v-7.493h15.399v-4.87h-15.399v-5.872h16.813v-5.069h-23.496v28.366h24.307V221.891z M142.295,221.891h-16.209v-23.304h-6.889
		v28.366h23.098V221.891z M67.331,226.956h6.284l11.14-28.366h-7.088l-7.095,21.477l-7.095-21.477h-7.287L67.331,226.956z
		 M102.995,198.593l11.339,28.366h-7.294l-2.026-5.879h-6.071h-6.085l-2.225,5.879h-6.889l11.545-28.366h3.654H102.995z
		 M103.194,216.217l-4.251-11.147l-4.265,11.147h4.265H103.194z M283.904,198.593l11.552,28.366h-7.5l-2.019-5.879h-6.078h-5.872
		l-2.239,5.879h-7.088l11.552-28.366h3.647H283.904z M284.11,216.217l-4.045-11.147l-4.258,11.147h4.052H284.11z"/>
</g>
</svg>
